<svg width="75" height="53" viewBox="0 0 75 53" fill="none" xmlns="http://www.w3.org/2000/svg">
<path d="M9.41998 30.45C9.41998 33.05 7.30999 35.16 4.70999 35.16C2.10999 35.16 0 33.05 0 30.45C0 27.85 2.10999 25.74 4.70999 25.74C7.30999 25.74 9.41998 27.85 9.41998 30.45Z" fill="#FCA695"/>
<path d="M65.5293 30.45C65.5293 33.05 67.6393 35.16 70.2393 35.16C72.8393 35.16 74.9493 33.05 74.9493 30.45C74.9493 27.85 72.8393 25.74 70.2393 25.74C67.6393 25.74 65.5293 27.85 65.5293 30.45Z" fill="#FCA695"/>
<path d="M64.3905 10.4686C62.5205 7.96858 63.0305 4.42859 65.5305 2.55859" stroke="#FE6661" stroke-width="2" stroke-linecap="round" stroke-linejoin="round"/>
<path d="M56.4492 5.27C59.4892 5.96 62.5192 4.04 63.1992 1" stroke="#FE6661" stroke-width="2" stroke-linecap="round" stroke-linejoin="round"/>
<path d="M62.5596 12.15C62.2296 9.05003 59.4496 6.80003 56.3496 7.13003" stroke="#FE6661" stroke-width="2" stroke-linecap="round" stroke-linejoin="round"/>
<path d="M47.2303 43.44C48.1603 47.27 45.8103 51.13 41.9803 52.07C38.1503 53 34.2903 50.65 33.3503 46.82L30.8503 36.55C29.9203 32.72 32.2603 28.86 36.1003 27.92C39.9303 26.99 43.7903 29.34 44.7303 33.17L47.2303 43.44Z" fill="#261E1C"/>
<path d="M47.2304 43.4391L46.7705 41.5391C45.5505 41.2391 44.2505 41.2091 42.9405 41.5391C38.6305 42.5891 35.9805 46.9391 37.0305 51.2491L37.1004 51.5191C38.5604 52.2491 40.2805 52.4891 41.9905 52.0791C45.8205 51.1491 48.1705 47.2791 47.2405 43.4491L47.2304 43.4391Z" fill="#FE6661"/>
<path d="M16.5898 23.2791C16.5898 27.2391 13.3798 30.4491 9.42978 30.4491C5.47978 30.4491 2.25977 27.2391 2.25977 23.2791C2.25977 19.3191 5.46978 16.1191 9.42978 16.1191C13.3898 16.1191 16.5898 19.3291 16.5898 23.2791Z" fill="#261E1C" stroke="#261E1C" stroke-width="3" stroke-linecap="round" stroke-linejoin="round"/>
<path d="M20.3194 22.1996L4.60938 11.3496" stroke="#261E1C" stroke-width="3" stroke-linecap="round" stroke-linejoin="round"/>
<path d="M15.9493 22.9191C15.9493 23.8191 15.2193 24.5491 14.3193 24.5491C13.4193 24.5491 12.6893 23.8191 12.6893 22.9191C12.6893 22.0191 13.4193 21.2891 14.3193 21.2891C15.2193 21.2891 15.9493 22.0191 15.9493 22.9191Z" fill="white"/>
<path d="M11.7093 22.619C11.7093 23.079 11.3393 23.459 10.8693 23.459C10.3993 23.459 10.0293 23.079 10.0293 22.619C10.0293 22.159 10.3993 21.7791 10.8693 21.7791C11.3393 21.7791 11.7093 22.159 11.7093 22.619Z" fill="white"/>
<path d="M58.3594 23.2791C58.3594 27.2391 61.5694 30.4491 65.5294 30.4491C69.4894 30.4491 72.6894 27.2391 72.6894 23.2791C72.6894 19.3191 69.4794 16.1191 65.5294 16.1191C61.5794 16.1191 58.3594 19.3291 58.3594 23.2791Z" fill="#261E1C" stroke="#261E1C" stroke-width="3" stroke-linecap="round" stroke-linejoin="round"/>
<path d="M54.6289 22.1996L70.3389 11.3496" stroke="#261E1C" stroke-width="3" stroke-linecap="round" stroke-linejoin="round"/>
<path d="M70.3087 22.9191C70.3087 23.8191 69.5787 24.5491 68.6787 24.5491C67.7787 24.5491 67.0487 23.8191 67.0487 22.9191C67.0487 22.0191 67.7787 21.2891 68.6787 21.2891C69.5787 21.2891 70.3087 22.0191 70.3087 22.9191Z" fill="white"/>
<path d="M66.0687 22.619C66.0687 23.079 65.6987 23.459 65.2287 23.459C64.7587 23.459 64.3887 23.079 64.3887 22.619C64.3887 22.159 64.7587 21.7791 65.2287 21.7791C65.6987 21.7791 66.0687 22.159 66.0687 22.619Z" fill="white"/>
</svg>
