<svg width="75" height="29" viewBox="0 0 75 29" fill="none" xmlns="http://www.w3.org/2000/svg">
<path d="M9.41998 16.6418C9.41998 19.2418 7.30999 21.3518 4.70999 21.3518C2.10999 21.3518 0 19.2418 0 16.6418C0 14.0418 2.10999 11.9318 4.70999 11.9318C7.30999 11.9318 9.41998 14.0418 9.41998 16.6418Z" fill="#FCA695"/>
<path d="M65.5293 16.6418C65.5293 19.2418 67.6393 21.3518 70.2393 21.3518C72.8393 21.3518 74.9493 19.2418 74.9493 16.6418C74.9493 14.0418 72.8393 11.9318 70.2393 11.9318C67.6393 11.9318 65.5293 14.0418 65.5293 16.6418Z" fill="#FCA695"/>
<path d="M25.6094 10.2422H49.3394" stroke="#FE6661" stroke-width="2" stroke-linecap="round" stroke-linejoin="round"/>
<path d="M29 13.6328H45.95" stroke="#FE6661" stroke-width="2" stroke-linecap="round" stroke-linejoin="round"/>
<path d="M30.51 19.1117C30.51 21.3717 31.99 23.2917 34.03 23.9517V27.0717C34.03 27.6717 34.51 28.1517 35.11 28.1517C35.71 28.1517 36.19 27.6717 36.19 27.0717V24.1917H39.35C42.16 24.1917 44.43 21.9117 44.43 19.1117C44.43 16.3117 30.5 16.3017 30.5 19.1117H30.51Z" fill="#261E1C"/>
<path d="M11.07 9.57174C12.7 8.86174 12.11 6.84174 10.69 6.41174C8.89 5.86174 7.31 7.45175 7.25 9.14175C7.2 11.6518 9.82 12.5817 11.94 12.2517C14.18 11.8717 15.48 9.97175 15.49 7.67175C15.52 1.56175 8.22999 0.141732 4.79999 4.62173C3.04999 6.91173 2.54999 10.7417 4.57999 13.0617C6.21999 14.9317 8.52998 16.1617 11.35 15.6917C12.98 15.4217 14.68 14.4417 15.61 13.0217" stroke="#261E1C" stroke-width="2.5" stroke-linecap="round" stroke-linejoin="round"/>
<path d="M64.0202 9.57174C62.3802 8.86174 62.9802 6.84174 64.4002 6.41174C66.2002 5.86174 67.7802 7.45175 67.8402 9.14175C67.8902 11.6518 65.2802 12.5817 63.1502 12.2517C60.9102 11.8717 59.6102 9.97175 59.6002 7.67175C59.5702 1.56175 66.8602 0.141732 70.2902 4.62173C72.0402 6.91173 72.5402 10.7417 70.5102 13.0617C68.8702 14.9317 66.5602 16.1617 63.7502 15.6917C62.1202 15.4217 60.4202 14.4417 59.4902 13.0217" stroke="#261E1C" stroke-width="2.5" stroke-linecap="round" stroke-linejoin="round"/>
</svg>
