<svg width="93" height="36" viewBox="0 0 93 36" fill="none" xmlns="http://www.w3.org/2000/svg">
<path d="M28.9823 13.54C28.9823 21.02 22.9223 27.08 15.4423 27.08C7.96232 27.08 1.90234 21.02 1.90234 13.54C1.90234 6.06001 7.97232 0 15.4423 0C22.9123 0 28.9823 6.06001 28.9823 13.54Z" fill="#261E1C"/>
<path d="M17.4619 12.8501C17.4619 15.4901 15.3219 17.6201 12.6919 17.6201C10.0619 17.6201 7.92188 15.4801 7.92188 12.8501C7.92188 10.2201 10.0619 8.08008 12.6919 8.08008C15.3219 8.08008 17.4619 10.2201 17.4619 12.8501Z" fill="white"/>
<path d="M24.0009 10.8501C24.0009 12.3801 22.7609 13.6201 21.2309 13.6201C19.7009 13.6201 18.4609 12.3801 18.4609 10.8501C18.4609 9.32007 19.7009 8.08008 21.2309 8.08008C22.7609 8.08008 24.0009 9.32007 24.0009 10.8501Z" fill="white"/>
<path d="M90.832 13.54C90.832 21.02 84.772 27.08 77.292 27.08C69.812 27.08 63.752 21.02 63.752 13.54C63.752 6.06001 69.822 0 77.292 0C84.762 0 90.832 6.06001 90.832 13.54Z" fill="#261E1C"/>
<path d="M79.3115 12.8501C79.3115 15.4901 77.1715 17.6201 74.5415 17.6201C71.9115 17.6201 69.7715 15.4801 69.7715 12.8501C69.7715 10.2201 71.9115 8.08008 74.5415 8.08008C77.1715 8.08008 79.3115 10.2201 79.3115 12.8501Z" fill="white"/>
<path d="M85.8408 10.8501C85.8408 12.3801 84.6008 13.6201 83.0708 13.6201C81.5408 13.6201 80.3008 12.3801 80.3008 10.8501C80.3008 9.32007 81.5408 8.08008 83.0708 8.08008C84.6008 8.08008 85.8408 9.32007 85.8408 10.8501Z" fill="white"/>
<path d="M15.6027 29.6491C14.5927 31.8491 10.3327 32.0591 6.08275 30.1091C1.83275 28.1591 -0.78725 24.7991 0.21275 22.5991C1.22275 20.3991 5.48274 20.1891 9.73274 22.1391C13.9827 24.0891 16.6028 27.4491 15.5928 29.6491H15.6027Z" fill="#FCA695"/>
<path d="M77.1323 29.6511C78.1423 31.8511 82.4023 32.0611 86.6523 30.1111C90.9023 28.1611 93.5223 24.8011 92.5223 22.6011C91.5123 20.4011 87.2523 20.1911 83.0023 22.1411C78.7523 24.0911 76.1323 27.4511 77.1423 29.6511H77.1323Z" fill="#FCA695"/>
<path d="M46.372 24.5703C42.342 24.5703 35.582 25.0903 35.582 28.5403C35.582 32.6803 40.322 35.9303 46.372 35.9303C52.422 35.9303 57.162 32.6903 57.162 28.5403C57.162 25.0803 50.402 24.5703 46.372 24.5703Z" fill="#261E1C"/>
<path d="M46.3717 30.7617C43.3317 30.7617 40.8017 32.3617 40.0117 34.5417C41.7817 35.4117 43.9717 35.9317 46.3717 35.9317C48.7717 35.9317 50.9517 35.4117 52.7317 34.5417C51.9517 32.3717 49.4117 30.7617 46.3717 30.7617Z" fill="#FE6661"/>
</svg>
