<svg width="77" height="65" viewBox="0 0 77 65" fill="none" xmlns="http://www.w3.org/2000/svg">
<path d="M10.603 38.3702C7.26305 38.3702 3.84304 36.7702 0.443044 33.5602C-0.126956 33.0302 -0.146953 32.1302 0.383047 31.5602C0.913047 30.9902 1.81305 30.9702 2.38305 31.5002C7.93305 36.7402 12.833 36.9102 17.823 32.0402C18.383 31.5002 19.2731 31.5102 19.823 32.0602C20.3631 32.6202 20.353 33.5102 19.803 34.0602C16.863 36.9302 13.7731 38.3602 10.6131 38.3602L10.603 38.3702Z" fill="#1E1D20"/>
<path d="M10.1027 48.7591C15.1009 48.7591 19.1527 47.0309 19.1527 44.8991C19.1527 42.7673 15.1009 41.0391 10.1027 41.0391C5.10456 41.0391 1.05273 42.7673 1.05273 44.8991C1.05273 47.0309 5.10456 48.7591 10.1027 48.7591Z" fill="#FFBB96"/>
<path fill-rule="evenodd" clip-rule="evenodd" d="M60.9836 48.7513C65.9636 48.7513 70.0336 47.0212 70.0336 44.8912C70.0336 42.7612 65.9736 41.0312 60.9836 41.0312C55.9936 41.0312 51.9336 42.7612 51.9336 44.8912C51.9336 47.0212 55.9936 48.7513 60.9836 48.7513Z" fill="#FFBB96"/>
<path d="M35.5422 64.4298C39.9881 64.4298 43.5922 59.3169 43.5922 53.0098C43.5922 46.7027 39.9881 41.5898 35.5422 41.5898C31.0963 41.5898 27.4922 46.7027 27.4922 53.0098C27.4922 59.3169 31.0963 64.4298 35.5422 64.4298Z" fill="#2B2A29"/>
<path fill-rule="evenodd" clip-rule="evenodd" d="M35.5438 64.4214C39.0538 64.4214 41.9138 61.5014 41.9138 57.9314C41.9138 54.3614 39.0538 51.4414 35.5438 51.4414C32.0338 51.4414 29.1738 54.3614 29.1738 57.9314C29.1738 61.5014 32.0338 64.4214 35.5438 64.4214Z" fill="#FF3C2E"/>
<path d="M61.4722 38.3702C58.1322 38.3702 54.7122 36.7702 51.3122 33.5602C50.7422 33.0302 50.7222 32.1302 51.2522 31.5602C51.7822 30.9902 52.6822 30.9702 53.2522 31.5002C58.8022 36.7402 63.7022 36.9102 68.6922 32.0402C69.2522 31.5002 70.1422 31.5102 70.6922 32.0602C71.2422 32.6102 71.2222 33.5102 70.6722 34.0602C67.7322 36.9302 64.6422 38.3602 61.4822 38.3602L61.4722 38.3702Z" fill="#1E1D20"/>
<path d="M48.1733 14.9609H54.4733L50.7833 21.4409H54.2633V23.1909H47.6133L51.3233 16.7109H48.1833V14.9609H48.1733Z" fill="#FF3C2E"/>
<path d="M55.4833 7.19922H65.0933L59.4533 17.0792H64.7633V19.7392H54.6133L60.2733 9.85922H55.4733V7.19922H55.4833Z" fill="#FF3C2E"/>
<path d="M65.2334 0H76.8334L70.0234 11.93H76.4434V15.15H64.1934L71.0334 3.22H65.2434V0H65.2334Z" fill="#FF3C2E"/>
</svg>
