<svg width="79" height="27" viewBox="0 0 79 27" fill="none" xmlns="http://www.w3.org/2000/svg">
<path d="M64.1897 2.01953V25.7395" stroke="#91DDE2" stroke-width="2" stroke-linecap="round" stroke-linejoin="round"/>
<path d="M59.1797 2.01953V18.9595" stroke="#91DDE2" stroke-width="2" stroke-linecap="round" stroke-linejoin="round"/>
<path d="M14.1191 2.01953V25.7395" stroke="#91DDE2" stroke-width="2" stroke-linecap="round" stroke-linejoin="round"/>
<path d="M19.1191 2.01953V18.9595" stroke="#91DDE2" stroke-width="2" stroke-linecap="round" stroke-linejoin="round"/>
<path d="M11.42 9.15923C11.42 11.7592 9.31002 13.8692 6.71002 13.8692C4.11002 13.8692 2 11.7592 2 9.15923C2 6.55923 4.11002 4.44922 6.71002 4.44922C9.31002 4.44922 11.42 6.55923 11.42 9.15923Z" fill="#FCA695"/>
<path d="M67.5195 9.15923C67.5195 11.7592 69.6295 13.8692 72.2295 13.8692C74.8295 13.8692 76.9395 11.7592 76.9395 9.15923C76.9395 6.55923 74.8295 4.44922 72.2295 4.44922C69.6295 4.44922 67.5195 6.55923 67.5195 9.15923Z" fill="#FCA695"/>
<path d="M2.11914 2H21.1091" stroke="#261E1C" stroke-width="3" stroke-linecap="round" stroke-linejoin="round"/>
<path d="M76.8201 2H57.8301" stroke="#261E1C" stroke-width="3" stroke-linecap="round" stroke-linejoin="round"/>
<path d="M32.5801 15.4491C32.5801 15.4491 34.5201 13.8691 39.4701 13.8691C44.4201 13.8691 46.3601 15.4491 46.3601 15.4491" stroke="#261E1C" stroke-width="3" stroke-linecap="round" stroke-linejoin="round"/>
</svg>
