<svg width="77" height="46" viewBox="0 0 77 46" fill="none" xmlns="http://www.w3.org/2000/svg">
<path fill-rule="evenodd" clip-rule="evenodd" d="M2.30774 12.3323C3.07774 13.4423 6.69775 15.6323 6.59775 16.8523C6.59775 18.8423 4.39773 23.3023 5.32773 24.8223C6.32773 26.4523 10.1777 23.4523 11.4577 22.6123C13.5977 21.2023 13.9078 21.5823 16.9178 23.5323C23.3878 27.7123 22.3377 22.9023 20.6377 18.7123C19.7477 15.6823 21.8977 14.9623 24.0777 13.0223C28.7777 8.37233 22.0578 9.25232 18.3178 8.92232C17.0578 8.77232 16.0977 4.40232 14.9877 2.84232C12.5977 -1.35768 10.1877 6.23233 9.32773 8.08232C8.50773 10.1023 -1.60227 7.51232 2.29773 12.3323H2.30774Z" fill="#FFCD1D"/>
<path d="M6.27791 26.711C6.07791 26.711 5.8779 26.6909 5.6779 26.6509C5.0079 26.5109 4.46791 26.131 4.11791 25.551C3.22791 24.091 3.86792 21.9209 4.53792 19.611C4.82792 18.631 5.1479 17.5209 5.1779 16.9209C4.9079 16.4709 3.76791 15.5409 3.14791 15.0309C2.31791 14.3409 1.5879 13.7509 1.1779 13.1809C0.737905 12.6309 -0.472076 11.081 0.197924 9.57096C0.947924 7.88096 3.26792 7.75095 5.50792 7.63095C6.31792 7.58095 7.63791 7.51095 8.11791 7.33095C8.22791 7.07095 8.34792 6.79095 8.47792 6.47095C9.83792 3.11095 11.1479 0.320943 13.3379 0.180943C14.0979 0.130943 15.2279 0.420952 16.1979 2.08095C16.7079 2.82095 17.1279 3.89094 17.5779 5.01094C17.8879 5.81094 18.3979 7.09095 18.7379 7.53095C19.2879 7.57095 19.9379 7.59095 20.6279 7.61095C23.4979 7.69095 26.2079 7.76095 26.9579 9.66095C27.5979 11.281 26.1979 12.9309 25.0879 14.0309C24.5679 14.5009 24.0979 14.871 23.6579 15.211C22.0279 16.481 21.6079 16.8809 21.9879 18.2509C23.6679 22.431 23.7879 24.8109 22.3779 25.9809C20.7179 27.3509 18.1879 26.031 16.1579 24.721L15.6279 24.381C14.1946 23.4476 13.0646 23.2509 12.2379 23.7909C12.0879 23.8909 11.9079 24.021 11.6979 24.161C9.75792 25.511 7.87791 26.711 6.27791 26.711ZM8.00792 16.8909C7.99792 17.8709 7.63792 19.101 7.25792 20.411C6.97792 21.381 6.46792 23.101 6.50792 23.851C7.12792 23.721 8.3279 23.041 10.0779 21.831C10.3079 21.671 10.5079 21.5309 10.6779 21.4209C13.4579 19.5809 14.5479 20.291 17.1679 22.0009L17.6879 22.3409C19.3279 23.4009 20.1579 23.651 20.4979 23.711C20.5379 23.281 20.4679 22.0609 19.3179 19.2509L19.2679 19.1209C18.2879 15.7809 20.2079 14.2909 21.8979 12.9809C22.2879 12.6709 22.7079 12.351 23.1279 11.971C23.7179 11.391 23.9979 11.0009 24.1379 10.7609C23.3579 10.5209 21.5579 10.471 20.5279 10.441C19.7379 10.421 18.9079 10.401 18.1879 10.331C16.5379 10.141 15.7879 8.24095 14.9179 6.05095C14.5579 5.15095 14.1579 4.13095 13.8279 3.66095L13.7479 3.54094C13.6179 3.31094 13.5079 3.17095 13.4379 3.08095C12.9079 3.50095 12.1179 4.99095 11.0879 7.53095C10.8979 8.00095 10.7379 8.39095 10.6079 8.67095C9.9879 10.2109 7.87792 10.3309 5.65792 10.4509C4.83792 10.5009 3.5479 10.5709 2.9279 10.7509C3.0079 10.9009 3.14791 11.1209 3.39791 11.4209L3.4579 11.5109C3.6379 11.7709 4.3879 12.381 4.9279 12.831C6.6079 14.211 8.06791 15.411 7.99791 16.881L8.00792 16.8909Z" fill="#2B2A29"/>
<path fill-rule="evenodd" clip-rule="evenodd" d="M13.5588 34.812C17.4188 34.812 20.5688 33.472 20.5688 31.822C20.5688 30.172 17.4188 28.832 13.5588 28.832C9.69884 28.832 6.54883 30.172 6.54883 31.822C6.54883 33.472 9.69884 34.812 13.5588 34.812Z" fill="#FFBB96"/>
<path fill-rule="evenodd" clip-rule="evenodd" d="M60.5081 34.8101C64.3681 34.8101 67.518 33.4701 67.518 31.8201C67.518 30.1701 64.3681 28.8301 60.5081 28.8301C56.6481 28.8301 53.498 30.1701 53.498 31.8201C53.498 33.4701 56.6481 34.8101 60.5081 34.8101Z" fill="#FFBB96"/>
<path fill-rule="evenodd" clip-rule="evenodd" d="M27.7686 36.0097V31.4297C33.9486 31.5597 40.1186 31.5597 46.2986 31.4297V36.0097C46.3486 39.3497 44.5986 42.4597 41.7086 44.1497C38.8186 45.8397 35.2486 45.8397 32.3586 44.1497C29.4686 42.4597 27.7186 39.3497 27.7686 36.0097Z" fill="#2B2A29"/>
<path fill-rule="evenodd" clip-rule="evenodd" d="M44.5785 38.0205C43.3285 41.7005 40.3485 44.1005 37.0285 44.1005C33.7085 44.1005 30.7285 41.6905 29.4785 38.0205C33.8785 33.7405 40.1785 33.7405 44.5785 38.0205Z" fill="#FF3C2E"/>
<path fill-rule="evenodd" clip-rule="evenodd" d="M51.4581 12.3323C52.2281 13.4423 55.8481 15.6323 55.7481 16.8523C55.7481 18.8423 53.5481 23.3023 54.4781 24.8223C55.4781 26.4523 59.3281 23.4523 60.6081 22.6123C62.7481 21.2023 63.0581 21.5823 66.0681 23.5323C72.5381 27.7123 71.4881 22.9023 69.7881 18.7123C68.8981 15.6823 71.0481 14.9623 73.2281 13.0223C77.9281 8.37233 71.2081 9.25232 67.4681 8.92232C66.2081 8.77232 65.2481 4.40232 64.1381 2.84232C61.7481 -1.35768 59.3381 6.23233 58.4781 8.08232C57.6581 10.1023 47.5481 7.51232 51.4481 12.3323H51.4581Z" fill="#FFCD1D"/>
<path d="M55.4283 26.711C55.2283 26.711 55.0283 26.6909 54.8283 26.6509C54.1583 26.5109 53.6183 26.131 53.2683 25.551C52.3783 24.091 53.0183 21.9209 53.6883 19.611C53.9783 18.631 54.2983 17.5209 54.3283 16.9209C54.0583 16.4709 52.9283 15.5409 52.2983 15.0309C51.4683 14.3409 50.7383 13.7509 50.3283 13.1809C49.8883 12.6309 48.6783 11.091 49.3483 9.57096C50.0983 7.88096 52.4183 7.75095 54.6583 7.63095C55.4683 7.58095 56.7883 7.51095 57.2683 7.33095C57.3783 7.07095 57.4983 6.79095 57.6283 6.47095C58.9883 3.11095 60.2983 0.320943 62.4883 0.180943C63.2683 0.130943 64.3783 0.420952 65.3483 2.08095C65.8583 2.83095 66.2783 3.89094 66.7283 5.01094C67.0383 5.81094 67.5483 7.09095 67.8883 7.53095C68.4383 7.57095 69.0883 7.59095 69.7783 7.61095C72.6483 7.69095 75.3583 7.76095 76.1083 9.66095C76.7483 11.281 75.3483 12.9309 74.2383 14.0309C73.7183 14.5009 73.2483 14.871 72.8083 15.211C71.1783 16.481 70.7583 16.8809 71.1383 18.2509C72.8183 22.431 72.9383 24.8109 71.5283 25.9809C69.8683 27.3509 67.3383 26.031 65.3083 24.721L64.7783 24.381C63.345 23.4476 62.215 23.2509 61.3883 23.7909C61.2383 23.8909 61.0583 24.021 60.8483 24.161C58.9083 25.511 57.0283 26.711 55.4283 26.711ZM57.1683 16.8909C57.1583 17.8709 56.7983 19.101 56.4183 20.411C56.1383 21.381 55.6283 23.101 55.6683 23.851C56.2883 23.721 57.4883 23.041 59.2383 21.831C59.4683 21.671 59.6683 21.5309 59.8383 21.4209C62.6183 19.5809 63.7083 20.291 66.3283 22.0009L66.8483 22.3409C68.4883 23.4009 69.3183 23.651 69.6583 23.711C69.6983 23.281 69.6283 22.0609 68.4783 19.2509L68.4283 19.1209C67.4483 15.7809 69.3683 14.2909 71.0583 12.9809C71.4483 12.6709 71.8683 12.351 72.2883 11.971C72.8783 11.391 73.1583 11.0009 73.2983 10.7609C72.5183 10.5209 70.7183 10.471 69.6883 10.441C68.8983 10.421 68.0683 10.401 67.3483 10.331C65.6983 10.141 64.9483 8.24095 64.0783 6.05095C63.7183 5.15095 63.3183 4.13095 62.9883 3.66095L62.9083 3.54094C62.7783 3.31094 62.6683 3.17095 62.5983 3.08095C62.0683 3.50095 61.2783 5.00095 60.2483 7.53095C60.0583 8.00095 59.8983 8.39095 59.7683 8.67095C59.1483 10.2109 57.0383 10.3309 54.8183 10.4509C53.9983 10.5009 52.7083 10.5709 52.0883 10.7509C52.1683 10.9009 52.3083 11.1209 52.5583 11.4209L52.6183 11.5109C52.7983 11.7709 53.5483 12.381 54.0883 12.831C55.7683 14.211 57.2283 15.411 57.1583 16.881L57.1683 16.8909Z" fill="#2B2A29"/>
</svg>
