<svg width="64" height="22" viewBox="0 0 64 22" fill="none" xmlns="http://www.w3.org/2000/svg">
<path d="M14.2129 8.16896C14.2129 11.5416 11.4791 14.2754 8.10646 14.2754C4.73385 14.2754 2 11.5416 2 8.16896C2 4.79635 4.73385 2.0625 8.10646 2.0625C11.4791 2.0625 14.2129 4.79635 14.2129 8.16896Z" fill="white" stroke="#261E1C" stroke-width="3" stroke-linecap="round" stroke-linejoin="round"/>
<path d="M49.7871 8.16896C49.7871 11.5416 52.521 14.2754 55.8936 14.2754C59.2662 14.2754 62 11.5416 62 8.16896C62 4.79635 59.2662 2.0625 55.8936 2.0625C52.521 2.0625 49.7871 4.79635 49.7871 8.16896Z" fill="white" stroke="#261E1C" stroke-width="3" stroke-linecap="round" stroke-linejoin="round"/>
<path d="M21.8945 7.04492H42.1046" stroke="#FE6661" stroke-width="2" stroke-linecap="round" stroke-linejoin="round"/>
<path d="M24.7814 9.93176H39.2171" stroke="#FE6661" stroke-width="2" stroke-linecap="round" stroke-linejoin="round"/>
<path d="M40.3339 18.9086C40.3339 20.5013 39.0393 21.7958 37.4467 21.7958H26.5454C24.9527 21.7958 23.6582 20.5013 23.6582 18.9086C23.6582 17.316 24.9527 16.0215 26.5454 16.0215H37.4467C39.0393 16.0215 40.3339 17.316 40.3339 18.9086Z" fill="#261E1C"/>
</svg>
