<svg width="60" height="28" viewBox="0 0 60 28" fill="none" xmlns="http://www.w3.org/2000/svg">
<path d="M18.7532 8.76041C18.7532 13.6 14.8324 13.3476 9.99283 13.3476C5.15326 13.3476 1.23242 13.6 1.23242 8.76041C1.23242 3.92083 5.15326 0 9.99283 0C14.8324 0 18.7532 3.92083 18.7532 8.76041Z" fill="#261E1C"/>
<path d="M11.2993 8.31473C11.2993 10.0228 9.91477 11.4009 8.21315 11.4009C6.51154 11.4009 5.12695 10.0163 5.12695 8.31473C5.12695 6.61311 6.51154 5.22852 8.21315 5.22852C9.91477 5.22852 11.2993 6.61311 11.2993 8.31473Z" fill="white"/>
<path d="M15.5238 7.01484C15.5238 8.00476 14.7216 8.80703 13.7317 8.80703C12.7417 8.80703 11.9395 8.00476 11.9395 7.01484C11.9395 6.02493 12.7417 5.22266 13.7317 5.22266C14.7216 5.22266 15.5238 6.02493 15.5238 7.01484Z" fill="white"/>
<path d="M58.7688 8.76041C58.7688 13.6 54.848 13.3476 50.0085 13.3476C45.1689 13.3476 41.248 13.6 41.248 8.76041C41.248 3.92083 45.1689 0 50.0085 0C54.848 0 58.7688 3.92083 58.7688 8.76041Z" fill="#261E1C"/>
<path d="M51.315 8.31473C51.315 10.0228 49.9304 11.4009 48.2288 11.4009C46.5272 11.4009 45.1426 10.0163 45.1426 8.31473C45.1426 6.61311 46.5272 5.22852 48.2288 5.22852C49.9304 5.22852 51.315 6.61311 51.315 8.31473Z" fill="white"/>
<path d="M55.5395 7.01484C55.5395 8.00476 54.7372 8.80703 53.7473 8.80703C52.7574 8.80703 51.9551 8.00476 51.9551 7.01484C51.9551 6.02493 52.7574 5.22266 53.7473 5.22266C54.7372 5.22266 55.5395 6.02493 55.5395 7.01484Z" fill="white"/>
<path d="M10.095 19.1768C9.44153 20.6002 6.68531 20.736 3.93555 19.4744C1.1858 18.2127 -0.509353 16.0388 0.137649 14.6154C0.79112 13.192 3.54735 13.0561 6.29711 14.3178C9.04686 15.5794 10.742 17.7534 10.0885 19.1768H10.095Z" fill="#FCA695"/>
<path d="M49.9051 19.1768C50.5586 20.6002 53.3148 20.736 56.0645 19.4744C58.8143 18.2127 60.5094 16.0388 59.8624 14.6154C59.209 13.192 56.4527 13.0561 53.703 14.3178C50.9532 15.5794 49.2581 17.7534 49.9115 19.1768H49.9051Z" fill="#FCA695"/>
<path d="M30.0037 12.5781C25.9017 12.5781 21.1074 13.678 21.1074 16.7707V18.9834C21.1074 23.8877 25.0994 27.8797 30.0037 27.8797C34.908 27.8797 38.9 23.8877 38.9 18.9834V16.7707C38.9 13.678 34.1057 12.5781 30.0037 12.5781Z" fill="#261E1C"/>
<path d="M31.7888 22.6836H28.2109C26.2893 22.6836 24.62 23.7253 23.7207 25.2781C25.3317 26.8891 27.551 27.8855 30.0031 27.8855C32.4552 27.8855 34.6744 26.8891 36.2855 25.2781C35.3861 23.7317 33.7104 22.6836 31.7953 22.6836H31.7888Z" fill="#FE6661"/>
</svg>
