<svg width="60" height="25" viewBox="0 0 60 25" fill="none" xmlns="http://www.w3.org/2000/svg">
<path d="M18.7572 8.75945C18.7572 13.5985 14.8368 17.5189 9.99774 17.5189C5.15869 17.5189 1.23828 13.5985 1.23828 8.75945C1.23828 3.9204 5.15869 0 9.99774 0C14.8368 0 18.7572 3.9204 18.7572 8.75945Z" fill="#261E1C"/>
<path d="M11.2967 8.31828C11.2967 10.0262 9.91229 11.4042 8.21086 11.4042C6.50943 11.4042 5.125 10.0197 5.125 8.31828C5.125 6.61685 6.50943 5.23242 8.21086 5.23242C9.91229 5.23242 11.2967 6.61685 11.2967 8.31828Z" fill="white"/>
<path d="M15.5274 7.01857C15.5274 8.00837 14.7252 8.81056 13.7354 8.81056C12.7456 8.81056 11.9434 8.00837 11.9434 7.01857C11.9434 6.02876 12.7456 5.22656 13.7354 5.22656C14.7252 5.22656 15.5274 6.02876 15.5274 7.01857Z" fill="white"/>
<path d="M58.7631 8.75945C58.7631 13.5985 54.8426 17.5189 50.0036 17.5189C45.1645 17.5189 41.2441 13.5985 41.2441 8.75945C41.2441 3.9204 45.1645 0 50.0036 0C54.8426 0 58.7631 3.9204 58.7631 8.75945Z" fill="#261E1C"/>
<path d="M51.3104 8.31828C51.3104 10.0262 49.926 11.4042 48.2245 11.4042C46.5231 11.4042 45.1387 10.0197 45.1387 8.31828C45.1387 6.61685 46.5231 5.23242 48.2245 5.23242C49.926 5.23242 51.3104 6.61685 51.3104 8.31828Z" fill="white"/>
<path d="M55.535 7.01857C55.535 8.00837 54.7328 8.81056 53.743 8.81056C52.7532 8.81056 51.951 8.00837 51.951 7.01857C51.951 6.02876 52.7532 5.22656 53.743 5.22656C54.7328 5.22656 55.535 6.02876 55.535 7.01857Z" fill="white"/>
<path d="M37.6604 17.5254C37.6604 20.7924 34.2317 23.4448 29.9943 23.4448C25.7569 23.4448 22.3281 20.7924 22.3281 17.5254" stroke="#261E1C" stroke-width="3" stroke-linecap="round" stroke-linejoin="round"/>
<path d="M10.0939 19.182C9.44051 20.6052 6.68458 20.7411 3.93512 19.4796C1.18566 18.2181 -0.509297 16.0444 0.137635 14.6211C0.791036 13.1979 3.54696 13.062 6.29642 14.3235C9.04588 15.585 10.7408 17.7587 10.0874 19.182H10.0939Z" fill="#FCA695"/>
<path d="M49.907 19.182C50.5604 20.6052 53.3164 20.7411 56.0658 19.4796C58.8153 18.2181 60.5102 16.0444 59.8633 14.6211C59.2099 13.1979 56.454 13.062 53.7045 14.3235C50.955 15.585 49.2601 17.7587 49.9135 19.182H49.907Z" fill="#FCA695"/>
</svg>
