<svg width="60" height="23" viewBox="0 0 60 23" fill="none" xmlns="http://www.w3.org/2000/svg">
<path d="M7.54102 13.7216C7.54102 15.803 5.8519 17.4921 3.77051 17.4921C1.68912 17.4921 0 15.803 0 13.7216C0 11.6402 1.68912 9.95103 3.77051 9.95103C5.8519 9.95103 7.54102 11.6402 7.54102 13.7216Z" fill="#FCA695"/>
<path d="M52.4592 13.7216C52.4592 15.803 54.1483 17.4921 56.2297 17.4921C58.3111 17.4921 60.0002 15.803 60.0002 13.7216C60.0002 11.6402 58.3111 9.95103 56.2297 9.95103C54.1483 9.95103 52.4592 11.6402 52.4592 13.7216Z" fill="#FCA695"/>
<path d="M20.502 8.59767H39.4986" stroke="#FE6661" stroke-width="2" stroke-linecap="round" stroke-linejoin="round"/>
<path d="M23.2148 11.3125H36.7839" stroke="#FE6661" stroke-width="2" stroke-linecap="round" stroke-linejoin="round"/>
<path d="M24.424 15.6997C24.424 17.509 25.6088 19.046 27.2419 19.5743V22.072C27.2419 22.5523 27.6261 22.9366 28.1065 22.9366C28.5868 22.9366 28.9711 22.5523 28.9711 22.072V19.7665H31.5007C33.7502 19.7665 35.5674 17.9412 35.5674 15.6997C35.5674 13.4583 24.416 13.4502 24.416 15.6997H24.424Z" fill="#261E1C"/>
<path d="M8.8619 8.06144C10.1668 7.49306 9.69447 5.87598 8.55771 5.53175C7.11675 5.09145 5.85191 6.36431 5.80388 7.71721C5.76385 9.72655 7.86125 10.471 9.55838 10.2069C11.3516 9.90266 12.3923 8.38166 12.4003 6.54043C12.4243 1.64917 6.58839 0.512393 3.84256 4.09879C2.44162 5.93201 2.04136 8.99805 3.66644 10.8553C4.97932 12.3523 6.82854 13.337 9.08605 12.9607C10.3909 12.7446 11.7518 11.96 12.4963 10.8233" stroke="#261E1C" stroke-width="2.5" stroke-linecap="round" stroke-linejoin="round"/>
<path d="M51.2495 8.06144C49.9366 7.49306 50.4169 5.87598 51.5537 5.53175C52.9946 5.09145 54.2595 6.36431 54.3075 7.71721C54.3475 9.72655 52.2581 10.471 50.553 10.2069C48.7598 9.90266 47.7191 8.38166 47.7111 6.54043C47.6871 1.64917 53.523 0.512393 56.2688 4.09879C57.6697 5.93201 58.07 8.99805 56.4449 10.8553C55.132 12.3523 53.2828 13.337 51.0333 12.9607C49.7285 12.7446 48.3675 11.96 47.623 10.8233" stroke="#261E1C" stroke-width="2.5" stroke-linecap="round" stroke-linejoin="round"/>
</svg>
