<svg width="62" height="25" viewBox="0 0 62 25" fill="none" xmlns="http://www.w3.org/2000/svg">
<path d="M14.1937 7.59686C14.1937 11.2395 11.2395 11.059 7.59686 11.059C3.95422 11.059 1 11.2395 1 7.59686C1 3.95422 3.95422 1 7.59686 1C11.2395 1 14.1937 3.95422 14.1937 7.59686Z" fill="#261E1C" stroke="#261E1C" stroke-linecap="round" stroke-linejoin="round"/>
<path d="M12.2278 4.63049C12.2278 6.6022 10.6237 8.20629 8.65198 8.20629C6.68028 8.20629 5.07617 6.6022 5.07617 4.63049C5.07617 2.65879 6.67359 1.05469 8.65198 1.05469C10.6304 1.05469 12.2278 2.65879 12.2278 4.63049Z" fill="white"/>
<path d="M7.29563 9.02086C7.29563 9.76944 6.68741 10.3777 5.93883 10.3777C5.19025 10.3777 4.58203 9.76944 4.58203 9.02086C4.58203 8.27228 5.19025 7.66406 5.93883 7.66406C6.68741 7.66406 7.29563 8.27228 7.29563 9.02086Z" fill="white"/>
<path d="M47.8065 7.59686C47.8065 11.2395 50.7607 11.059 54.4033 11.059C58.046 11.059 61.0002 11.2395 61.0002 7.59686C61.0002 3.95422 58.046 1 54.4033 1C50.7607 1 47.8065 3.95422 47.8065 7.59686Z" fill="#261E1C" stroke="#261E1C" stroke-linecap="round" stroke-linejoin="round"/>
<path d="M49.7381 4.62289C49.7381 6.61465 51.3556 8.23212 53.3473 8.23212C55.3391 8.23212 56.9565 6.61465 56.9565 4.62289C56.9565 2.63114 55.3391 1.01367 53.3473 1.01367C51.3556 1.01367 49.7381 2.63114 49.7381 4.62289Z" fill="white"/>
<path d="M54.7108 9.05376C54.7108 9.80903 55.319 10.4239 56.0809 10.4239C56.8429 10.4239 57.4511 9.80903 57.4511 9.05376C57.4511 8.2985 56.8362 7.68359 56.0809 7.68359C55.3257 7.68359 54.7108 8.2985 54.7108 9.05376Z" fill="white"/>
<path d="M41.5292 15.1958C41.5292 10.203 36.8172 14.8616 30.9957 14.8616C25.1741 14.8616 20.4688 10.203 20.4688 15.1958C20.4688 20.1886 25.1808 24.2389 30.9957 24.2389C36.8105 24.2389 41.5292 20.1886 41.5292 15.1958Z" fill="#261E1C" stroke="#261E1C" stroke-linecap="round" stroke-linejoin="round"/>
<path d="M24.8199 16.2988C24.1916 15.4901 23.7973 14.2202 23.7305 13.2109C25.622 13.7724 28.1752 14.8618 30.9957 14.8618C33.8162 14.8618 36.3761 13.7657 38.2609 13.2109C38.1807 14.3605 37.9936 15.4299 37.1982 16.3122C35.8748 17.7759 26.0965 17.9497 24.8132 16.3055L24.8199 16.2988Z" fill="white"/>
<path d="M31.0034 19.3867C28.1495 19.3867 25.7166 20.6499 24.7207 22.4412C26.4785 23.5641 28.6441 24.2391 31.0034 24.2391C33.3628 24.2391 35.5283 23.5641 37.2861 22.4412C36.2903 20.6499 33.8507 19.3867 31.0034 19.3867Z" fill="#FE6661"/>
</svg>
