<svg width="60" height="43" viewBox="0 0 60 43" fill="none" xmlns="http://www.w3.org/2000/svg">
<path d="M7.54102 24.6885C7.54102 26.7699 5.8519 28.459 3.77051 28.459C1.68912 28.459 0 26.7699 0 24.6885C0 22.6071 1.68912 20.918 3.77051 20.918C5.8519 20.918 7.54102 22.6071 7.54102 24.6885Z" fill="#FCA695"/>
<path d="M52.4592 24.6885C52.4592 26.7699 54.1483 28.459 56.2297 28.459C58.3111 28.459 60.0002 26.7699 60.0002 24.6885C60.0002 22.6071 58.3111 20.918 56.2297 20.918C54.1483 20.918 52.4592 22.6071 52.4592 24.6885Z" fill="#FCA695"/>
<path d="M51.5446 8.69354C50.0476 6.69221 50.4559 3.85833 52.4573 2.36133" stroke="#FE6661" stroke-width="2" stroke-linecap="round" stroke-linejoin="round"/>
<path d="M45.1895 4.53156C47.6231 5.08393 50.0487 3.5469 50.5931 1.11328" stroke="#FE6661" stroke-width="2" stroke-linecap="round" stroke-linejoin="round"/>
<path d="M50.0807 10.0405C49.8165 7.55884 47.591 5.75763 45.1094 6.02181" stroke="#FE6661" stroke-width="2" stroke-linecap="round" stroke-linejoin="round"/>
<path d="M37.8091 35.087C38.5536 38.153 36.6723 41.2431 33.6063 41.9956C30.5402 42.7401 27.4502 40.8588 26.6977 37.7928L24.6963 29.5713C23.9518 26.5052 25.8251 23.4152 28.8991 22.6627C31.9652 21.9182 35.0552 23.7994 35.8078 26.8655L37.8091 35.087Z" fill="#261E1C"/>
<path d="M37.8083 35.0872L37.44 33.5662C36.4634 33.326 35.4227 33.302 34.374 33.5662C30.9237 34.4067 28.8023 37.8891 29.6428 41.3394L29.6989 41.5555C30.8676 42.1399 32.2446 42.332 33.6135 42.0038C36.6795 41.2593 38.5608 38.1613 37.8163 35.0952L37.8083 35.0872Z" fill="#FE6661"/>
<path d="M13.2822 18.9484C13.2822 22.1186 10.7125 24.6883 7.55039 24.6883C4.38828 24.6883 1.81055 22.1186 1.81055 18.9484C1.81055 15.7783 4.38027 13.2166 7.55039 13.2166C10.7205 13.2166 13.2822 15.7863 13.2822 18.9484Z" fill="#261E1C" stroke="#261E1C" stroke-width="3" stroke-linecap="round" stroke-linejoin="round"/>
<path d="M16.2678 18.0842L3.69147 9.39844" stroke="#261E1C" stroke-width="3" stroke-linecap="round" stroke-linejoin="round"/>
<path d="M12.7699 18.6603C12.7699 19.3808 12.1855 19.9652 11.465 19.9652C10.7445 19.9652 10.1602 19.3808 10.1602 18.6603C10.1602 17.9399 10.7445 17.3555 11.465 17.3555C12.1855 17.3555 12.7699 17.9399 12.7699 18.6603Z" fill="white"/>
<path d="M9.37614 18.4204C9.37614 18.7886 9.07995 19.0928 8.7037 19.0928C8.32744 19.0928 8.03125 18.7886 8.03125 18.4204C8.03125 18.0521 8.32744 17.7479 8.7037 17.7479C9.07995 17.7479 9.37614 18.0521 9.37614 18.4204Z" fill="white"/>
<path d="M46.7207 18.9486C46.7207 22.1187 49.2904 24.6884 52.4605 24.6884C55.6307 24.6884 58.1924 22.1187 58.1924 18.9486C58.1924 15.7785 55.6227 13.2168 52.4605 13.2168C49.2984 13.2168 46.7207 15.7865 46.7207 18.9486Z" fill="#261E1C" stroke="#261E1C" stroke-width="3" stroke-linecap="round" stroke-linejoin="round"/>
<path d="M43.7344 18.0842L56.3108 9.39844" stroke="#261E1C" stroke-width="3" stroke-linecap="round" stroke-linejoin="round"/>
<path d="M56.2855 18.6603C56.2855 19.3808 55.7011 19.9652 54.9807 19.9652C54.2602 19.9652 53.6758 19.3808 53.6758 18.6603C53.6758 17.9399 54.2602 17.3555 54.9807 17.3555C55.7011 17.3555 56.2855 17.9399 56.2855 18.6603Z" fill="white"/>
<path d="M52.8918 18.4204C52.8918 18.7886 52.5956 19.0928 52.2193 19.0928C51.8431 19.0928 51.5469 18.7886 51.5469 18.4204C51.5469 18.0521 51.8431 17.7479 52.2193 17.7479C52.5956 17.7479 52.8918 18.0521 52.8918 18.4204Z" fill="white"/>
</svg>
