<svg width="60" height="22" viewBox="0 0 60 22" fill="none" xmlns="http://www.w3.org/2000/svg">
<path d="M7.54203 15.2515C7.54203 17.3332 5.85269 19.0225 3.77102 19.0225C1.68936 19.0225 0 17.3332 0 15.2515C0 13.1698 1.68936 11.4805 3.77102 11.4805C5.85269 11.4805 7.54203 13.1698 7.54203 15.2515Z" fill="#FCA695"/>
<path d="M52.457 15.2515C52.457 17.3332 54.1464 19.0225 56.228 19.0225C58.3097 19.0225 59.9991 17.3332 59.9991 15.2515C59.9991 13.1698 58.3097 11.4805 56.228 11.4805C54.1464 11.4805 52.457 13.1698 52.457 15.2515Z" fill="#FCA695"/>
<path d="M35.5807 19.6141C35.5807 21.8639 24.4277 21.8639 24.4277 19.6141C24.4277 17.3643 26.2532 15.5469 28.495 15.5469H31.5134C33.7632 15.5469 35.5807 17.3723 35.5807 19.6141Z" fill="#261E1C"/>
<path d="M13.274 9.51084C13.274 12.6814 10.7039 15.2514 7.53337 15.2514C4.36283 15.2514 1.80078 12.6814 1.80078 9.51084C1.80078 6.3403 13.274 6.3403 13.274 9.51084Z" fill="#261E1C"/>
<path d="M3.44922 6.00438C3.44922 6.00438 7.66059 6.27661 10.5829 2.11328" stroke="#261E1C" stroke-width="3" stroke-linecap="round" stroke-linejoin="round"/>
<path d="M46.7247 9.51084C46.7247 12.6814 49.2947 15.2514 52.4653 15.2514C55.6358 15.2514 58.2059 12.6814 58.2059 9.51084C58.2059 6.3403 46.7327 6.3403 46.7327 9.51084H46.7247Z" fill="#261E1C"/>
<path d="M56.5497 6.00438C56.5497 6.00438 52.3384 6.27661 49.416 2.11328" stroke="#261E1C" stroke-width="3" stroke-linecap="round" stroke-linejoin="round"/>
</svg>
