<svg width="60" height="26" viewBox="0 0 60 26" fill="none" xmlns="http://www.w3.org/2000/svg">
<path d="M7.54103 13.4796C7.54103 15.5609 5.8519 17.2501 3.77051 17.2501C1.68913 17.2501 0 15.5609 0 13.4796C0 11.3982 1.68913 9.70905 3.77051 9.70905C5.8519 9.70905 7.54103 11.3982 7.54103 13.4796Z" fill="#FCA695"/>
<path d="M52.4592 13.4796C52.4592 15.561 54.1483 17.2501 56.2297 17.2501C58.3111 17.2501 60.0002 15.561 60.0002 13.4796C60.0002 11.3982 58.3111 9.70911 56.2297 9.70911C54.1483 9.70911 52.4592 11.3982 52.4592 13.4796Z" fill="#FCA695"/>
<path d="M13.2824 7.73983C13.2824 10.9099 10.7127 13.4797 7.54256 13.4797C4.37245 13.4797 1.80273 10.9099 1.80273 7.73983C1.80273 4.56971 4.37245 2 7.54256 2C10.7127 2 13.2824 4.56971 13.2824 7.73983Z" fill="#261E1C" stroke="#261E1C" stroke-width="3" stroke-linecap="round" stroke-linejoin="round"/>
<path d="M10.864 9.12783C10.3597 9.64017 9.52712 9.64017 9.02278 9.12783C8.51845 8.61549 8.51845 7.79094 9.02278 7.2866C9.53513 6.77426 10.3597 6.77426 10.864 7.2866C11.3764 7.79894 11.3764 8.62349 10.864 9.12783Z" fill="white"/>
<path d="M8.63123 6.55702C8.36706 6.8212 7.94278 6.8212 7.6786 6.55702C7.41442 6.29284 7.41442 5.86856 7.6786 5.60438C7.94278 5.34021 8.36706 5.34021 8.63123 5.60438C8.89541 5.86856 8.89541 6.29284 8.63123 6.54901V6.55702Z" fill="white"/>
<path d="M46.7207 7.73983C46.7207 10.9099 49.2904 13.4797 52.4605 13.4797C55.6306 13.4797 58.2004 10.9099 58.2004 7.73983C58.2004 4.56971 55.6306 2 52.4605 2C49.2904 2 46.7207 4.56971 46.7207 7.73983Z" fill="#261E1C" stroke="#261E1C" stroke-width="3" stroke-linecap="round" stroke-linejoin="round"/>
<path d="M55.5907 9.12783C55.0864 9.64017 54.2538 9.64017 53.7495 9.12783C53.2371 8.61549 53.2371 7.79094 53.7495 7.2866C54.2618 6.77426 55.0864 6.77426 55.5907 7.2866C56.1031 7.79894 56.1031 8.62349 55.5907 9.12783Z" fill="white"/>
<path d="M53.3656 6.55702C53.1014 6.8212 52.6772 6.8212 52.413 6.55702C52.1488 6.29284 52.1488 5.86856 52.413 5.60438C52.6772 5.34021 53.1014 5.34021 53.3656 5.60438C53.6298 5.86856 53.6298 6.29284 53.3656 6.55702Z" fill="white"/>
<path d="M25.882 24.0772C25.842 20.5228 28.6839 17.6089 32.2382 17.5688C33.311 17.5528 34.3276 17.809 35.2242 18.2653L35.1602 12.8617C34.9841 12.8777 34.816 12.9017 34.6398 12.9017C31.7899 12.9017 29.4764 10.5882 29.4764 7.73828C29.4764 10.5882 27.1629 12.9017 24.313 12.9017C24.1128 12.9017 23.9207 12.8777 23.7286 12.8537L23.8166 19.9624C23.8407 21.8517 24.7773 23.5088 26.2022 24.5335C26.0982 24.4534 25.9861 24.3814 25.882 24.2933V24.0692V24.0772Z" fill="#261E1C"/>
<path d="M35.2395 19.8346L35.2235 18.2655C34.3269 17.8092 33.3102 17.5531 32.2375 17.5691C28.6831 17.6091 25.8413 20.523 25.8813 24.0774V24.3016C26.8899 25.1341 28.1868 25.6304 29.5958 25.6144C32.7499 25.5744 35.2795 22.9887 35.2395 19.8266V19.8346Z" fill="#FE6661"/>
<path d="M37.6336 11.9411C36.7851 12.5495 35.7524 12.9017 34.6316 12.9017C31.7817 12.9017 29.4682 10.5882 29.4682 7.73828C29.4682 10.5882 27.1546 12.9017 24.3047 12.9017C23.184 12.9017 22.1513 12.5415 21.3027 11.9411" stroke="#261E1C" stroke-width="2" stroke-linecap="round" stroke-linejoin="round"/>
</svg>
