<svg width="64" height="15" viewBox="0 0 64 15" fill="none" xmlns="http://www.w3.org/2000/svg">
<path d="M9.54102 7.84482C9.54102 9.92621 7.8519 11.6153 5.77051 11.6153C3.68912 11.6153 2 9.92621 2 7.84482C2 5.76343 3.68912 4.07431 5.77051 4.07431C7.8519 4.07431 9.54102 5.76343 9.54102 7.84482Z" fill="#FCA695"/>
<path d="M54.4592 7.84482C54.4592 9.92621 56.1483 11.6153 58.2297 11.6153C60.3111 11.6153 62.0002 9.92621 62.0002 7.84482C62.0002 5.76343 60.3111 4.07431 58.2297 4.07431C56.1483 4.07431 54.4592 5.76343 54.4592 7.84482Z" fill="#FCA695"/>
<path d="M2.0957 2.11328H17.2978" stroke="#261E1C" stroke-width="3" stroke-linecap="round" stroke-linejoin="round"/>
<path d="M61.9034 2.11328H46.7012" stroke="#261E1C" stroke-width="3" stroke-linecap="round" stroke-linejoin="round"/>
<path d="M22.502 5.37891H41.4986" stroke="#FE6661" stroke-width="2" stroke-linecap="round" stroke-linejoin="round"/>
<path d="M25.2148 8.09375H38.7839" stroke="#FE6661" stroke-width="2" stroke-linecap="round" stroke-linejoin="round"/>
<path d="M26.4882 12.8806H37.5116" stroke="#261E1C" stroke-width="3" stroke-linecap="round" stroke-linejoin="round"/>
</svg>
