<svg width="62" height="30" viewBox="0 0 62 30" fill="none" xmlns="http://www.w3.org/2000/svg">
<path d="M43.2521 11.0508C42.6052 12.2735 42.2365 13.6579 42.2365 15.1329C42.2365 19.972 46.1633 23.8989 50.9959 23.8989C55.8285 23.8989 59.7554 19.972 59.7554 15.1329C59.7554 13.6579 59.3866 12.2735 58.7461 11.0508H43.2457H43.2521Z" fill="#261E1C"/>
<path d="M52.3104 15.6757C52.3104 17.3836 50.926 18.7616 49.2245 18.7616C47.5231 18.7616 46.1387 17.3771 46.1387 15.6757C46.1387 13.9743 47.5231 12.5898 49.2245 12.5898C50.926 12.5898 52.3104 13.9743 52.3104 15.6757Z" fill="white"/>
<path d="M56.535 14.376C56.535 15.3658 55.7329 16.168 54.743 16.168C53.7532 16.168 52.951 15.3658 52.951 14.376C52.951 13.3862 53.7532 12.584 54.743 12.584C55.7329 12.584 56.535 13.3862 56.535 14.376Z" fill="white"/>
<path d="M42.1328 11.0508H59.8717" stroke="#261E1C" stroke-width="3" stroke-linecap="round" stroke-linejoin="round"/>
<path d="M2.22923 15.1329C2.22923 19.972 6.14965 23.8989 10.9887 23.8989C15.8278 23.8989 19.7482 19.972 19.7482 15.1329C19.7482 13.6579 19.3794 12.2735 18.7325 11.0508H3.23847C2.59153 12.2735 2.22278 13.6579 2.22278 15.1329H2.22923Z" fill="#261E1C"/>
<path d="M12.2948 15.6757C12.2948 17.3836 10.9103 18.7616 9.20891 18.7616C7.50747 18.7616 6.12305 17.3771 6.12305 15.6757C6.12305 13.9743 7.50747 12.5898 9.20891 12.5898C10.9103 12.5898 12.2948 13.9743 12.2948 15.6757Z" fill="white"/>
<path d="M16.5194 14.376C16.5194 15.3658 15.7172 16.168 14.7274 16.168C13.7376 16.168 12.9354 15.3658 12.9354 14.376C12.9354 13.3862 13.7376 12.584 14.7274 12.584C15.7172 12.584 16.5194 13.3862 16.5194 14.376Z" fill="white"/>
<path d="M2.11914 11.0508H19.858" stroke="#261E1C" stroke-width="3" stroke-linecap="round" stroke-linejoin="round"/>
<path d="M11.0939 25.5546C10.4405 26.9779 7.68458 27.1137 4.93512 25.8522C2.18566 24.5907 0.490703 22.417 1.13763 20.9938C1.79104 19.5705 4.54696 19.4411 7.29642 20.6962C10.0459 21.9577 11.7408 24.1314 11.0874 25.5546H11.0939Z" fill="#FCA695"/>
<path d="M50.907 25.5546C51.5604 26.9779 54.3164 27.1137 57.0658 25.8522C59.8153 24.5907 61.5102 22.417 60.8633 20.9938C60.2099 19.5705 57.454 19.4411 54.7045 20.6962C51.9551 21.9577 50.2601 24.1314 50.9135 25.5546H50.907Z" fill="#FCA695"/>
<path d="M24.6152 28.2148H37.3792" stroke="#261E1C" stroke-width="3" stroke-linecap="round" stroke-linejoin="round"/>
<path d="M45.1953 7.24015L52.4086 2" stroke="#261E1C" stroke-width="3" stroke-linecap="round" stroke-linejoin="round"/>
<path d="M16.8006 7.24015L9.59375 2" stroke="#261E1C" stroke-width="3" stroke-linecap="round" stroke-linejoin="round"/>
</svg>
