<svg width="60" height="33" viewBox="0 0 60 33" fill="none" xmlns="http://www.w3.org/2000/svg">
<path d="M18.7572 17.443C18.7572 22.2821 14.8368 26.2025 9.99773 26.2025C5.15868 26.2025 1.23828 22.2821 1.23828 17.443C1.23828 12.604 5.15868 8.68359 9.99773 8.68359C14.8368 8.68359 18.7572 12.604 18.7572 17.443Z" fill="#261E1C"/>
<path d="M9.07213 16.996C9.07213 18.7039 7.68769 20.0819 5.98626 20.0819C4.28483 20.0819 2.90039 18.6975 2.90039 16.996C2.90039 15.2946 4.28483 13.9102 5.98626 13.9102C7.68769 13.9102 9.07213 15.2946 9.07213 16.996Z" fill="white"/>
<path d="M13.2968 15.7021C13.2968 16.6919 12.4946 17.4941 11.5048 17.4941C10.515 17.4941 9.71283 16.6919 9.71283 15.7021C9.71283 14.7123 10.515 13.9101 11.5048 13.9101C12.4946 13.9101 13.2968 14.7123 13.2968 15.7021Z" fill="white"/>
<path d="M58.763 17.443C58.763 22.2821 54.8427 26.2025 50.0036 26.2025C45.1646 26.2025 41.2441 22.2821 41.2441 17.443C41.2441 12.604 45.171 8.68359 50.0036 8.68359C54.8362 8.68359 58.763 12.604 58.763 17.443Z" fill="#261E1C"/>
<path d="M49.0858 16.996C49.0858 18.7039 47.7014 20.0819 45.9999 20.0819C44.2985 20.0819 42.9141 18.6975 42.9141 16.996C42.9141 15.2946 44.2985 13.9102 45.9999 13.9102C47.7014 13.9102 49.0858 15.2946 49.0858 16.996Z" fill="white"/>
<path d="M53.3106 15.7022C53.3106 16.692 52.5084 17.4942 51.5186 17.4942C50.5288 17.4942 49.7266 16.692 49.7266 15.7022C49.7266 14.7124 50.5288 13.9102 51.5186 13.9102C52.5084 13.9102 53.3106 14.7124 53.3106 15.7022Z" fill="white"/>
<path d="M10.0939 27.8636C9.44051 29.2869 6.68458 29.4227 3.93512 28.1612C1.18566 26.8997 -0.509297 24.726 0.137635 23.3028C0.791036 21.8795 3.54696 21.7437 6.29642 23.0052C9.04588 24.2667 10.7408 26.4404 10.0874 27.8636H10.0939Z" fill="#FCA695"/>
<path d="M49.907 27.8636C50.5604 29.2869 53.3164 29.4227 56.0658 28.1612C58.8153 26.8997 60.5102 24.726 59.8633 23.3028C59.2099 21.8795 56.454 21.7437 53.7045 23.0052C50.9551 24.2667 49.2601 26.4404 49.9135 27.8636H49.907Z" fill="#FCA695"/>
<path d="M38.4942 26.6415C34.4315 23.9632 27.7875 26.3116 26.5195 31.4806" stroke="#261E1C" stroke-width="3" stroke-linecap="round" stroke-linejoin="round"/>
<path d="M50.4102 2C51.2124 5.04705 55.4303 6.78082 58.2704 4.83355" stroke="#261E1C" stroke-width="3" stroke-linecap="round" stroke-linejoin="round"/>
<path d="M9.9442 2C9.14201 5.04705 4.92401 6.78082 2.08398 4.83355" stroke="#261E1C" stroke-width="3" stroke-linecap="round" stroke-linejoin="round"/>
</svg>
