<svg width="24" height="24" viewBox="0 0 24 24" fill="none" xmlns="http://www.w3.org/2000/svg">
<path d="M2.12795 15.7321C1.67173 12.7666 1.2155 9.80117 0.75928 6.83567C0.658105 6.1783 1.40608 5.72995 1.93813 6.12902C3.35953 7.19507 4.78086 8.26105 6.20226 9.3271C6.67026 9.6781 7.337 9.56387 7.66145 9.07712L11.2114 3.75212C11.5866 3.1894 12.4134 3.1894 12.7885 3.75212L16.3385 9.07712C16.663 9.56387 17.3297 9.67802 17.7977 9.3271C19.2191 8.26105 20.6404 7.19507 22.0618 6.12902C22.5939 5.72995 23.3419 6.1783 23.2408 6.83567C22.7845 9.80117 22.3283 12.7666 21.8721 15.7321H2.12795Z" fill="#272828"/>
<path d="M20.8436 20.6676H3.15828C2.58978 20.6676 2.12891 20.2067 2.12891 19.6382V17.377H21.873V19.6382C21.873 20.2067 21.4121 20.6676 20.8436 20.6676Z" fill="#272828"/>
</svg>
