<svg width="24" height="24" viewBox="0 0 24 24" fill="none" xmlns="http://www.w3.org/2000/svg">
<path d="M12 3.5999C13.1031 3.5999 14.1954 3.81717 15.2146 4.23931C16.2337 4.66145 17.1597 5.28019 17.9397 6.06021C18.7197 6.84022 19.3385 7.76623 19.7606 8.78536C20.1828 9.8045 20.4 10.8968 20.4 11.9999C20.4 13.103 20.1828 14.1953 19.7606 15.2144C19.3385 16.2336 18.7197 17.1596 17.9397 17.9396C17.1597 18.7196 16.2337 19.3384 15.2146 19.7605C14.1954 20.1826 13.1031 20.3999 12 20.3999V3.5999ZM12 2.3999C9.45395 2.3999 7.01215 3.41133 5.2118 5.21168C3.41145 7.01203 2.40002 9.45382 2.40002 11.9999C2.40002 14.546 3.41145 16.9878 5.2118 18.7881C7.01215 20.5885 9.45395 21.5999 12 21.5999C14.5461 21.5999 16.9879 20.5885 18.7882 18.7881C20.5886 16.9878 21.6 14.546 21.6 11.9999C21.6 9.45382 20.5886 7.01203 18.7882 5.21168C16.9879 3.41133 14.5461 2.3999 12 2.3999Z" fill="#272828"/>
</svg>
