<svg width="24" height="24" viewBox="0 0 24 24" fill="none" xmlns="http://www.w3.org/2000/svg">
<path d="M11.5 12H6.6C6.44087 12 6.28826 12.0632 6.17574 12.1757C6.06321 12.2883 6 12.4409 6 12.6V19.4C6 19.5591 6.06321 19.7117 6.17574 19.8243C6.28826 19.9368 6.44087 20 6.6 20H17.4C17.5591 20 17.7117 19.9368 17.8243 19.8243C17.9368 19.7117 18 19.5591 18 19.4V18.5M10.131 4.385C10.637 4.145 11.253 4 12 4C15.2 4 16 6.667 16 8V12H17.4C17.5591 12 17.7117 12.0632 17.8243 12.1757C17.9368 12.2883 18 12.4409 18 12.6V13M8 8V12M3 3L21 21" stroke="#272828" stroke-width="1.5" stroke-linecap="round" stroke-linejoin="round"/>
</svg>
