<svg width="24" height="24" viewBox="0 0 24 24" fill="none" xmlns="http://www.w3.org/2000/svg">
<path fill-rule="evenodd" clip-rule="evenodd" d="M7.48485 2.84985H8.76205C9.05372 2.84985 9.29017 3.0863 9.29017 3.37798C9.29017 3.66965 9.05372 3.9061 8.76205 3.9061H7.50795C6.7598 3.9061 6.23042 3.9065 5.8166 3.94033C5.40892 3.97363 5.1601 4.0367 4.96452 4.13635C4.56702 4.33888 4.24385 4.66205 4.04132 5.05955C3.94167 5.25513 3.8786 5.50395 3.8453 5.91163C3.81147 6.32545 3.81107 6.85483 3.81107 7.60298V8.90543C3.81107 9.1971 3.57462 9.43355 3.28295 9.43355C2.99127 9.43355 2.75482 9.1971 2.75482 8.90543V7.57988C2.75482 6.86 2.75482 6.2875 2.79255 5.82563C2.8312 5.35263 2.91202 4.9493 3.1002 4.58003C3.404 3.98378 3.88875 3.49903 4.485 3.19523C4.85427 3.00705 5.2576 2.92623 5.73057 2.88758C6.19247 2.84985 6.76497 2.84985 7.48485 2.84985ZM18.0851 3.94033C17.6713 3.9065 17.1419 3.9061 16.3938 3.9061H16.2848C15.9931 3.9061 15.7567 3.66965 15.7567 3.37798C15.7567 3.0863 15.9931 2.84985 16.2848 2.84985H16.4169C17.1368 2.84985 17.7093 2.84985 18.1712 2.88758C18.6441 2.92623 19.0475 3.00705 19.4167 3.19523C20.013 3.49903 20.4977 3.98378 20.8015 4.58003C20.9897 4.9493 21.0705 5.35263 21.1092 5.8256C21.1469 6.2875 21.1469 6.85998 21.1469 7.5798V8.86745C21.1469 9.15913 20.9105 9.39558 20.6188 9.39558C20.3271 9.39558 20.0907 9.15913 20.0907 8.86745V7.60298C20.0907 6.85483 20.0902 6.32545 20.0564 5.91163C20.0231 5.50395 19.9601 5.25513 19.8604 5.05955C19.6579 4.66205 19.3347 4.33888 18.9372 4.13635C18.7416 4.0367 18.4928 3.97363 18.0851 3.94033ZM3.28295 14.6958C3.57462 14.6958 3.81107 14.9322 3.81107 15.2239V16.5074C3.81107 17.2555 3.81147 17.7849 3.8453 18.1987C3.8786 18.6064 3.94167 18.8552 4.04132 19.0508C4.24385 19.4483 4.56702 19.7715 4.96452 19.974C5.1601 20.0736 5.40892 20.1367 5.8166 20.17C6.23042 20.2038 6.7598 20.2043 7.50795 20.2043H8.76205C9.05372 20.2043 9.29017 20.4407 9.29017 20.7324C9.29017 21.024 9.05372 21.2605 8.76205 21.2605H7.48477C6.76495 21.2605 6.19247 21.2605 5.73057 21.2228C5.2576 21.1841 4.85427 21.1033 4.485 20.9151C3.88875 20.6113 3.404 20.1266 3.1002 19.5303C2.91202 19.161 2.8312 18.7577 2.79255 18.2847C2.75482 17.8228 2.75482 17.2503 2.75482 16.5305V15.2239C2.75482 14.9322 2.99127 14.6958 3.28295 14.6958ZM20.6188 14.7126C20.9105 14.7126 21.1469 14.949 21.1469 15.2407V16.5305C21.1469 17.2504 21.1469 17.8229 21.1092 18.2847C21.0705 18.7577 20.9897 19.161 20.8015 19.5303C20.4977 20.1266 20.013 20.6113 19.4167 20.9151C19.0475 21.1033 18.6441 21.1841 18.1711 21.2228C17.7093 21.2605 17.1368 21.2605 16.417 21.2605H15.131C14.8393 21.2605 14.6029 21.024 14.6029 20.7324C14.6029 20.4407 14.8393 20.2043 15.131 20.2043H16.3938C17.1419 20.2043 17.6713 20.2038 18.0851 20.17C18.4928 20.1367 18.7416 20.0736 18.9372 19.974C19.3347 19.7715 19.6579 19.4483 19.8604 19.0508C19.9601 18.8552 20.0231 18.6064 20.0564 18.1987C20.0902 17.7849 20.0907 17.2555 20.0907 16.5074V15.2407C20.0907 14.949 20.3271 14.7126 20.6188 14.7126Z" fill="#272828"/>
<path fill-rule="evenodd" clip-rule="evenodd" d="M9.96539 15.3399C10.2149 15.1888 10.5396 15.2686 10.6907 15.5181C11.0306 16.0794 11.6724 16.3893 12.3714 16.3904C13.0693 16.3915 13.7519 16.083 14.1482 15.4961C14.3115 15.2544 14.6397 15.1907 14.8815 15.354C15.1232 15.5172 15.1868 15.8455 15.0236 16.0872C14.4015 17.0084 13.3639 17.4483 12.3696 17.4467C11.3763 17.445 10.3538 17.0009 9.78722 16.0652C9.63612 15.8157 9.71589 15.491 9.96539 15.3399Z" fill="#272828"/>
<path fill-rule="evenodd" clip-rule="evenodd" d="M11.9769 8.75757C12.2685 8.75757 12.505 8.99402 12.505 9.28569V12.5304C12.505 12.6992 12.5457 12.7783 12.57 12.8118C12.594 12.8448 12.6296 12.8717 12.6891 12.8889C12.753 12.9074 12.8376 12.9115 12.9287 12.894C13.0207 12.8763 13.0936 12.8415 13.1361 12.8096C13.3694 12.6346 13.7004 12.6818 13.8755 12.9151C14.0505 13.1484 14.0033 13.4794 13.77 13.6545C13.4128 13.9225 12.8731 14.0416 12.3958 13.9036C12.1437 13.8307 11.8965 13.6817 11.7156 13.4328C11.535 13.1844 11.4487 12.8756 11.4487 12.5304V9.28569C11.4487 8.99402 11.6852 8.75757 11.9769 8.75757Z" fill="#272828"/>
<path fill-rule="evenodd" clip-rule="evenodd" d="M9.28203 7.97876C9.57371 7.97876 9.81016 8.21521 9.81016 8.50688V8.90823C9.81016 9.19991 9.57371 9.43636 9.28203 9.43636C8.99036 9.43636 8.75391 9.19991 8.75391 8.90823V8.50688C8.75391 8.21521 8.99036 7.97876 9.28203 7.97876Z" fill="#272828"/>
<path fill-rule="evenodd" clip-rule="evenodd" d="M14.6717 7.97876C14.9634 7.97876 15.1998 8.21521 15.1998 8.50688V8.90823C15.1998 9.19991 14.9634 9.43636 14.6717 9.43636C14.38 9.43636 14.1436 9.19991 14.1436 8.90823V8.50688C14.1436 8.21521 14.38 7.97876 14.6717 7.97876Z" fill="#272828"/>
</svg>
