<svg width="24" height="24" viewBox="0 0 24 24" fill="none" xmlns="http://www.w3.org/2000/svg">
<path fill-rule="evenodd" clip-rule="evenodd" d="M9.83757 6.29008C9.95777 6.68647 9.73387 7.10525 9.33748 7.22544L5.24601 8.4661C4.44853 8.70792 3.6422 8.11645 3.63335 7.28316L3.58793 3.00797C3.58353 2.59378 3.91573 2.25444 4.32992 2.25004C4.74411 2.24564 5.08345 2.57784 5.08785 2.99203L5.12972 6.93392L8.90221 5.78999C9.2986 5.66979 9.71737 5.89369 9.83757 6.29008Z" fill="#272828"/>
<path fill-rule="evenodd" clip-rule="evenodd" d="M12 3.75C9.23934 3.75 6.79524 5.10522 5.29646 7.18998C5.05468 7.5263 4.58603 7.60293 4.2497 7.36115C3.91338 7.11936 3.83675 6.65071 4.07854 6.31439C5.84702 3.85447 8.73615 2.25 12 2.25C17.3848 2.25 21.75 6.61522 21.75 12C21.75 17.3848 17.3848 21.75 12 21.75C6.61522 21.75 2.25 17.3848 2.25 12C2.25 11.5858 2.58579 11.25 3 11.25C3.41421 11.25 3.75 11.5858 3.75 12C3.75 16.5564 7.44365 20.25 12 20.25C16.5563 20.25 20.25 16.5564 20.25 12C20.25 7.44365 16.5563 3.75 12 3.75Z" fill="#272828"/>
</svg>
