<svg width="24" height="24" viewBox="0 0 24 24" fill="none" xmlns="http://www.w3.org/2000/svg">
<path d="M6.14981 3.34839C6.11685 3.31176 6.07697 3.28201 6.03247 3.26085C5.98797 3.23968 5.93973 3.22753 5.89052 3.22508C5.8413 3.22263 5.79209 3.22993 5.74571 3.24657C5.69933 3.26321 5.6567 3.28885 5.62026 3.32203L5.11251 3.78178L4.60476 3.32203C4.56833 3.28885 4.5257 3.26321 4.47932 3.24657C4.43294 3.22993 4.38372 3.22262 4.33451 3.22507C4.28529 3.22752 4.23705 3.23968 4.19255 3.26084C4.14805 3.28201 4.10818 3.31176 4.07522 3.34839C3.7415 3.74227 4.32579 4.0463 4.55396 4.28755L4.10159 4.69715C4.04668 4.74851 4.00837 4.8151 3.99156 4.88838C3.97474 4.96166 3.98021 5.0383 4.00724 5.10845C4.03427 5.17861 4.08165 5.2391 4.14329 5.28215C4.20493 5.3252 4.27802 5.34886 4.35319 5.3501C4.56634 5.38225 4.95936 4.90235 5.11253 4.79331C5.26673 4.90281 5.65663 5.38107 5.87184 5.35011C5.94702 5.34887 6.02011 5.32521 6.08175 5.28215C6.14338 5.23909 6.19075 5.17861 6.21778 5.10845C6.24482 5.03829 6.25027 4.96166 6.23346 4.88838C6.21665 4.81509 6.17833 4.7485 6.12342 4.69715L5.67108 4.28754L6.12344 3.87794C6.16 3.84493 6.18968 3.80504 6.21079 3.76054C6.2319 3.71605 6.24403 3.66782 6.24648 3.61863C6.24893 3.56944 6.24165 3.52026 6.22506 3.47388C6.20847 3.42751 6.1829 3.38487 6.14981 3.34839Z" fill="#272828"/>
<path d="M9.59316 3.34839C9.56021 3.31176 9.52033 3.28201 9.47583 3.26084C9.43134 3.23968 9.38309 3.22752 9.33388 3.22507C9.28466 3.22262 9.23545 3.22993 9.18907 3.24657C9.14269 3.26321 9.10006 3.28885 9.06362 3.32203L8.55587 3.78178L8.04812 3.32203C8.01169 3.28885 7.96906 3.26321 7.92268 3.24657C7.8763 3.22993 7.82708 3.22262 7.77787 3.22507C7.72865 3.22752 7.68041 3.23968 7.63591 3.26084C7.59141 3.28201 7.55154 3.31176 7.51858 3.34839C7.18486 3.74227 7.76915 4.0463 7.99732 4.28755L7.54495 4.69715C7.49004 4.74851 7.45172 4.8151 7.43491 4.88838C7.4181 4.96166 7.42357 5.0383 7.4506 5.10845C7.47763 5.17861 7.52501 5.2391 7.58665 5.28215C7.64829 5.3252 7.72138 5.34886 7.79655 5.3501C8.0097 5.38225 8.40272 4.90235 8.55589 4.79331C8.71009 4.90281 9.09999 5.38107 9.3152 5.35011C9.39038 5.34887 9.46347 5.32521 9.52511 5.28215C9.58674 5.23909 9.63411 5.17861 9.66114 5.10845C9.68817 5.03829 9.69363 4.96166 9.67682 4.88838C9.66001 4.81509 9.62169 4.7485 9.56678 4.69715L9.11444 4.28754L9.5668 3.87794C9.60335 3.84493 9.63304 3.80504 9.65415 3.76054C9.67526 3.71605 9.68739 3.66782 9.68984 3.61863C9.69229 3.56944 9.68501 3.52026 9.66842 3.47388C9.65183 3.42751 9.62626 3.38487 9.59316 3.34839Z" fill="#272828"/>
<path d="M13.0368 3.34839C13.0038 3.31176 12.964 3.28201 12.9195 3.26084C12.875 3.23968 12.8267 3.22752 12.7775 3.22507C12.7283 3.22262 12.6791 3.22993 12.6327 3.24657C12.5863 3.26321 12.5437 3.28885 12.5072 3.32203L11.9993 3.78183L11.4914 3.32203C11.4549 3.28893 11.4123 3.26336 11.3659 3.24677C11.3195 3.23018 11.2703 3.2229 11.2211 3.22535C11.172 3.2278 11.1237 3.23993 11.0792 3.26104C11.0347 3.28216 10.9948 3.31184 10.9618 3.34839C10.6283 3.74247 11.2125 4.04637 11.4407 4.28755L10.9882 4.69715C10.9333 4.74852 10.895 4.81511 10.8782 4.88839C10.8615 4.96166 10.8669 5.03828 10.894 5.10843C10.921 5.17857 10.9684 5.23905 11.03 5.2821C11.0916 5.32516 11.1647 5.34884 11.2398 5.3501C11.453 5.38224 11.8462 4.90227 11.9993 4.79327C12.1536 4.90275 12.5436 5.38106 12.7588 5.35011C12.834 5.34884 12.9071 5.32515 12.9687 5.28209C13.0303 5.23903 13.0777 5.17855 13.1047 5.10841C13.1317 5.03826 13.1372 4.96165 13.1204 4.88838C13.1036 4.81511 13.0653 4.74852 13.0104 4.69715L12.558 4.28754L13.0104 3.87794C13.047 3.84491 13.0766 3.805 13.0977 3.76051C13.1188 3.71602 13.1309 3.6678 13.1333 3.61862C13.1358 3.56945 13.1285 3.52027 13.112 3.4739C13.0954 3.42753 13.0698 3.38489 13.0368 3.34839Z" fill="#272828"/>
<path d="M16.4818 3.34839C16.4489 3.31176 16.409 3.28201 16.3645 3.26084C16.32 3.23968 16.2718 3.22752 16.2226 3.22507C16.1733 3.22262 16.1241 3.22993 16.0777 3.24657C16.0314 3.26321 15.9887 3.28885 15.9523 3.32203L15.4445 3.78178L14.9368 3.32203C14.9004 3.28885 14.8577 3.26321 14.8114 3.24657C14.765 3.22993 14.7158 3.22262 14.6665 3.22507C14.6173 3.22752 14.5691 3.23968 14.5246 3.26084C14.4801 3.28201 14.4402 3.31176 14.4073 3.34839C14.0735 3.74227 14.6578 4.0463 14.886 4.28755L14.4336 4.69715C14.3787 4.74851 14.3404 4.8151 14.3236 4.88838C14.3068 4.96167 14.3122 5.0383 14.3393 5.10846C14.3663 5.17861 14.4137 5.2391 14.4753 5.28215C14.537 5.3252 14.6101 5.34886 14.6852 5.3501C14.8984 5.38225 15.2914 4.90235 15.4446 4.79331C15.5988 4.90281 15.9887 5.38107 16.2039 5.35011C16.279 5.34887 16.3521 5.32521 16.4138 5.28215C16.4754 5.23909 16.5228 5.17861 16.5498 5.10845C16.5768 5.03829 16.5823 4.96166 16.5655 4.88838C16.5487 4.81509 16.5104 4.7485 16.4555 4.69715L16.0031 4.28754L16.4555 3.87794C16.492 3.84493 16.5217 3.80504 16.5428 3.76054C16.5639 3.71605 16.5761 3.66782 16.5785 3.61863C16.581 3.56945 16.5737 3.52026 16.5571 3.47388C16.5405 3.42751 16.5149 3.38487 16.4818 3.34839Z" fill="#272828"/>
<path d="M19.9252 3.34839C19.8922 3.31176 19.8524 3.28201 19.8079 3.26085C19.7634 3.23968 19.7151 3.22753 19.6659 3.22508C19.6167 3.22263 19.5675 3.22993 19.5211 3.24657C19.4747 3.26321 19.4321 3.28885 19.3957 3.32203L18.8879 3.78178L18.3802 3.32203C18.3437 3.28885 18.3011 3.26321 18.2547 3.24657C18.2083 3.22993 18.1591 3.22262 18.1099 3.22507C18.0607 3.22752 18.0124 3.23968 17.9679 3.26084C17.9234 3.28201 17.8836 3.31176 17.8506 3.34839C17.5169 3.74227 18.1012 4.0463 18.3293 4.28755L17.877 4.69715C17.8221 4.74851 17.7838 4.8151 17.7669 4.88839C17.7501 4.96167 17.7556 5.03831 17.7826 5.10847C17.8097 5.17862 17.857 5.23911 17.9187 5.28216C17.9803 5.32521 18.0534 5.34887 18.1286 5.3501C18.3418 5.38225 18.7348 4.90235 18.8879 4.79331C19.0421 4.90281 19.432 5.38107 19.6473 5.35011C19.7224 5.34887 19.7955 5.32521 19.8572 5.28215C19.9188 5.23909 19.9662 5.17861 19.9932 5.10845C20.0202 5.03829 20.0257 4.96166 20.0089 4.88838C19.9921 4.81509 19.9537 4.7485 19.8988 4.69715L19.4465 4.28754L19.8988 3.87794C19.9354 3.84493 19.9651 3.80503 19.9862 3.76054C20.0073 3.71604 20.0194 3.66782 20.0219 3.61863C20.0243 3.56944 20.017 3.52025 20.0005 3.47388C19.9839 3.42751 19.9583 3.38487 19.9252 3.34839Z" fill="#272828"/>
<path d="M21 1.69531H3C2.6023 1.69571 2.221 1.85387 1.93978 2.13509C1.65856 2.41631 1.5004 2.79761 1.5 3.19531V5.37903C1.5004 5.77673 1.65856 6.15803 1.93978 6.43925C2.221 6.72047 2.6023 6.87863 3 6.87903H21C21.3977 6.87863 21.779 6.72047 22.0602 6.43925C22.3414 6.15803 22.4996 5.77673 22.5 5.37903V3.19531C22.4996 2.79761 22.3414 2.41631 22.0602 2.13509C21.779 1.85387 21.3977 1.69571 21 1.69531ZM21.75 5.37903C21.7497 5.57786 21.6706 5.76848 21.53 5.90907C21.3894 6.04967 21.1988 6.12877 21 6.12903H3C2.80117 6.12877 2.61055 6.04967 2.46995 5.90907C2.32936 5.76848 2.25026 5.57786 2.25 5.37903V3.19531C2.25026 2.99648 2.32936 2.80586 2.46995 2.66527C2.61055 2.52467 2.80117 2.44557 3 2.44531H21C21.1988 2.44557 21.3894 2.52467 21.53 2.66527C21.6706 2.80586 21.7497 2.99648 21.75 3.19531V5.37903Z" fill="#272828"/>
<path d="M11.9999 8.41602C11.5546 8.42006 11.1289 8.59978 10.8155 8.91609C10.502 9.2324 10.3262 9.65969 10.3262 10.105C10.3262 10.5503 10.502 10.9776 10.8155 11.2939C11.1289 11.6102 11.5546 11.7899 11.9999 11.7939C12.4452 11.7899 12.8709 11.6102 13.1843 11.2939C13.4978 10.9776 13.6736 10.5503 13.6736 10.105C13.6736 9.65965 13.4978 9.23236 13.1843 8.91606C12.8708 8.59976 12.4452 8.42005 11.9999 8.41602ZM11.9999 11.0439C11.7527 11.0412 11.5165 10.941 11.3427 10.7653C11.1688 10.5895 11.0713 10.3522 11.0713 10.105C11.0713 9.85773 11.1688 9.62047 11.3427 9.44468C11.5165 9.2689 11.7527 9.16876 11.9999 9.16602C12.2471 9.16877 12.4833 9.26891 12.6571 9.44471C12.831 9.6205 12.9285 9.85776 12.9285 10.105C12.9285 10.3522 12.831 10.5895 12.6571 10.7653C12.4833 10.9411 12.2471 11.0412 11.9999 11.0439Z" fill="#272828"/>
<path d="M16.5038 8.41602C16.0585 8.42006 15.6328 8.59978 15.3194 8.91609C15.0059 9.2324 14.8301 9.65969 14.8301 10.105C14.8301 10.5503 15.0059 10.9776 15.3194 11.2939C15.6328 11.6102 16.0585 11.7899 16.5038 11.7939C16.9491 11.7899 17.3748 11.6102 17.6882 11.2939C18.0017 10.9776 18.1775 10.5503 18.1775 10.105C18.1775 9.65966 18.0017 9.23237 17.6882 8.91607C17.3748 8.59977 16.9491 8.42005 16.5038 8.41602ZM16.5038 11.0439C16.2566 11.0412 16.0204 10.941 15.8466 10.7653C15.6727 10.5895 15.5752 10.3522 15.5752 10.105C15.5752 9.85773 15.6727 9.62048 15.8466 9.44469C16.0204 9.2689 16.2566 9.16876 16.5038 9.16602C16.751 9.16877 16.9872 9.26891 17.161 9.4447C17.3349 9.6205 17.4324 9.85776 17.4324 10.105C17.4324 10.3522 17.3349 10.5895 17.161 10.7653C16.9872 10.9411 16.751 11.0412 16.5038 11.0439Z" fill="#272828"/>
<path d="M11.9999 13.6719C11.5546 13.6759 11.1289 13.8556 10.8155 14.172C10.502 14.4883 10.3262 14.9156 10.3262 15.3609C10.3262 15.8062 10.502 16.2335 10.8155 16.5498C11.1289 16.8661 11.5546 17.0458 11.9999 17.0498C12.4452 17.0458 12.8709 16.866 13.1843 16.5497C13.4978 16.2334 13.6736 15.8061 13.6736 15.3608C13.6736 14.9155 13.4978 14.4882 13.1843 14.1719C12.8708 13.8556 12.4452 13.6759 11.9999 13.6719ZM11.9999 16.2998C11.7527 16.297 11.5165 16.1969 11.3427 16.0211C11.1688 15.8453 11.0713 15.6081 11.0713 15.3608C11.0713 15.1136 11.1688 14.8763 11.3427 14.7005C11.5165 14.5248 11.7527 14.4246 11.9999 14.4219C12.2472 14.4246 12.4834 14.5247 12.6572 14.7005C12.8311 14.8763 12.9286 15.1136 12.9286 15.3609C12.9286 15.6081 12.8311 15.8454 12.6572 16.0212C12.4833 16.197 12.2471 16.2971 11.9999 16.2998Z" fill="#272828"/>
<path d="M16.5038 13.6719C16.0585 13.6759 15.6328 13.8556 15.3194 14.1719C15.0059 14.4883 14.8301 14.9155 14.8301 15.3609C14.8301 15.8062 15.0059 16.2335 15.3194 16.5498C15.6328 16.8661 16.0585 17.0458 16.5038 17.0498C16.9491 17.0458 17.3748 16.866 17.6882 16.5497C18.0017 16.2334 18.1775 15.8061 18.1775 15.3608C18.1775 14.9155 18.0017 14.4882 17.6882 14.1719C17.3748 13.8556 16.9491 13.6759 16.5038 13.6719ZM16.5038 16.2998C16.2566 16.297 16.0204 16.1969 15.8466 16.0211C15.6727 15.8453 15.5752 15.6081 15.5752 15.3608C15.5752 15.1136 15.6727 14.8763 15.8466 14.7005C16.0204 14.5248 16.2566 14.4246 16.5038 14.4219C16.7511 14.4246 16.9873 14.5247 17.1611 14.7005C17.335 14.8763 17.4325 15.1136 17.4325 15.3609C17.4325 15.6081 17.335 15.8454 17.1611 16.0212C16.9872 16.197 16.751 16.2971 16.5038 16.2998Z" fill="#272828"/>
<path d="M12 18.9277C11.5547 18.9318 11.129 19.1115 10.8156 19.4278C10.5021 19.7441 10.3263 20.1714 10.3263 20.6167C10.3263 21.062 10.5022 21.4893 10.8156 21.8056C11.1291 22.1219 11.5547 22.3016 12 22.3057C12.4453 22.3016 12.871 22.1219 13.1845 21.8056C13.4979 21.4893 13.6737 21.062 13.6737 20.6167C13.6737 20.1714 13.4979 19.7441 13.1844 19.4278C12.871 19.1115 12.4453 18.9318 12 18.9277ZM12 21.5557C11.7528 21.5529 11.5166 21.4528 11.3428 21.277C11.1689 21.1012 11.0714 20.8639 11.0714 20.6167C11.0714 20.3694 11.169 20.1322 11.3428 19.9564C11.5166 19.7806 11.7528 19.6805 12 19.6777C12.2472 19.6805 12.4834 19.7806 12.6573 19.9564C12.8311 20.1322 12.9286 20.3695 12.9286 20.6167C12.9286 20.8639 12.8311 21.1012 12.6572 21.277C12.4834 21.4528 12.2472 21.5529 12 21.5557Z" fill="#272828"/>
<path d="M7.49557 8.41602C7.05035 8.42016 6.62478 8.59994 6.31142 8.91623C5.99806 9.23253 5.82226 9.65976 5.82227 10.105C5.82227 10.5502 5.99808 10.9775 6.31144 11.2938C6.62481 11.61 7.05039 11.7898 7.4956 11.7939C7.94082 11.7898 8.3664 11.61 8.67976 11.2937C8.99312 10.9774 9.16891 10.5502 9.16891 10.105C9.1689 9.65972 8.9931 9.2325 8.67973 8.91621C8.36636 8.59992 7.94079 8.42015 7.49557 8.41602ZM7.49557 11.0439C7.24841 11.0411 7.01233 10.9409 6.83856 10.7651C6.66479 10.5894 6.56733 10.3521 6.56734 10.105C6.56734 9.85779 6.6648 9.62058 6.83858 9.4448C7.01236 9.26902 7.24844 9.16885 7.4956 9.16602C7.74276 9.16886 7.97883 9.26904 8.15261 9.44482C8.32638 9.62061 8.42383 9.85782 8.42383 10.105C8.42382 10.3522 8.32636 10.5894 8.15258 10.7652C7.97881 10.9409 7.74273 11.0411 7.49557 11.0439Z" fill="#272828"/>
<path d="M7.49557 13.6719C7.05035 13.676 6.62478 13.8558 6.31142 14.1721C5.99806 14.4884 5.82226 14.9156 5.82227 15.3609C5.82227 15.8061 5.99808 16.2333 6.31144 16.5496C6.62481 16.8659 7.05039 17.0457 7.4956 17.0498C7.94082 17.0457 8.3664 16.8659 8.67976 16.5496C8.99312 16.2333 9.16891 15.8061 9.16891 15.3608C9.1689 14.9156 8.9931 14.4884 8.67973 14.1721C8.36636 13.8558 7.94079 13.676 7.49557 13.6719ZM7.49557 16.2998C7.24841 16.297 7.01233 16.1968 6.83856 16.021C6.66479 15.8452 6.56733 15.608 6.56734 15.3608C6.56734 15.1136 6.6648 14.8764 6.83858 14.7007C7.01236 14.5249 7.24844 14.4247 7.4956 14.4219C7.74279 14.4247 7.9789 14.5248 8.15271 14.7006C8.32652 14.8764 8.424 15.1136 8.42399 15.3609C8.42399 15.6081 8.3265 15.8453 8.15269 16.0211C7.97888 16.1969 7.74276 16.297 7.49557 16.2998Z" fill="#272828"/>
<path d="M7.49557 18.9277C7.05035 18.9319 6.62478 19.1117 6.31142 19.428C5.99806 19.7442 5.82226 20.1715 5.82227 20.6167C5.82227 21.062 5.99808 21.4892 6.31144 21.8055C6.62481 22.1218 7.05039 22.3015 7.4956 22.3057C7.94082 22.3015 8.3664 22.1217 8.67976 21.8054C8.99312 21.4892 9.16891 21.0619 9.16891 20.6167C9.1689 20.1714 8.9931 19.7442 8.67973 19.4279C8.36636 19.1116 7.94079 18.9319 7.49557 18.9277ZM7.49557 21.5557C7.24841 21.5528 7.01233 21.4526 6.83856 21.2769C6.66479 21.1011 6.56733 20.8639 6.56734 20.6167C6.56734 20.3695 6.6648 20.1323 6.83858 19.9565C7.01236 19.7807 7.24844 19.6806 7.4956 19.6777C7.74276 19.6806 7.97883 19.7808 8.15261 19.9565C8.32638 20.1323 8.42383 20.3695 8.42383 20.6167C8.42382 20.8639 8.32636 21.1011 8.15258 21.2769C7.97881 21.4527 7.74273 21.5528 7.49557 21.5557Z" fill="#272828"/>
<path d="M16.5038 18.9277C16.0585 18.9318 15.6328 19.1115 15.3194 19.4278C15.0059 19.7441 14.8301 20.1714 14.8301 20.6167C14.8301 21.062 15.0059 21.4893 15.3194 21.8056C15.6328 22.1219 16.0585 22.3016 16.5038 22.3057C16.9491 22.3016 17.3748 22.1219 17.6882 21.8056C18.0017 21.4893 18.1775 21.062 18.1775 20.6167C18.1775 20.1714 18.0017 19.7441 17.6882 19.4278C17.3748 19.1115 16.9491 18.9318 16.5038 18.9277ZM16.5038 21.5557C16.2566 21.5529 16.0204 21.4528 15.8466 21.277C15.6727 21.1012 15.5752 20.8639 15.5752 20.6167C15.5752 20.3695 15.6727 20.1322 15.8466 19.9564C16.0204 19.7806 16.2566 19.6805 16.5038 19.6777C16.751 19.6805 16.9872 19.7806 17.161 19.9564C17.3349 20.1322 17.4324 20.3695 17.4324 20.6167C17.4324 20.8639 17.3349 21.1012 17.161 21.277C16.9872 21.4528 16.751 21.5529 16.5038 21.5557Z" fill="#272828"/>
</svg>
