<svg width="20" height="16" viewBox="0 0 20 16" fill="none" xmlns="http://www.w3.org/2000/svg">
<path d="M18.9232 8.58869C19.0004 8.51111 19.0615 8.41908 19.1032 8.31786C19.1455 8.21707 19.1673 8.10885 19.1673 7.99953C19.1673 7.8902 19.1455 7.78198 19.1032 7.68119C19.0615 7.57997 19.0004 7.48794 18.9232 7.41036L12.2565 0.743692C12.0993 0.591894 11.8888 0.507898 11.6703 0.509797C11.4518 0.511696 11.2428 0.599337 11.0883 0.753843C10.9338 0.90835 10.8462 1.11736 10.8443 1.33586C10.8424 1.55436 10.9264 1.76486 11.0782 1.92203L16.3223 7.16619H1.66732C1.4463 7.16619 1.23434 7.25399 1.07806 7.41027C0.921782 7.56655 0.833984 7.77851 0.833984 7.99953C0.833984 8.22054 0.921782 8.4325 1.07806 8.58878C1.23434 8.74506 1.4463 8.83286 1.66732 8.83286H16.3223L11.0782 14.077C10.9264 14.2342 10.8424 14.4447 10.8443 14.6632C10.8462 14.8817 10.9338 15.0907 11.0883 15.2452C11.2428 15.3997 11.4518 15.4874 11.6703 15.4893C11.8888 15.4912 12.0993 15.4072 12.2565 15.2554L18.9232 8.58869Z" fill="white"/>
</svg>
