<svg width="40" height="40" viewBox="0 0 40 40" fill="none" xmlns="http://www.w3.org/2000/svg">
<path d="M26.0576 6.0606C26.7759 5.23278 27.3235 4.27124 27.6691 3.23119C28.0147 2.19113 28.1515 1.09305 28.0715 0C25.8665 0.177993 23.8196 1.21508 22.3719 2.88781C21.6786 3.68951 21.1533 4.62216 20.8269 5.63055C20.5006 6.63894 20.3799 7.70255 20.472 8.75842C21.5476 8.76738 22.6109 8.52871 23.5795 8.06089C24.548 7.59308 25.396 6.90865 26.0576 6.0606ZM30.8453 20.1957C30.8581 18.7399 31.2415 17.3113 31.9595 16.0448C32.6776 14.7783 33.7064 13.7157 34.9491 12.9571C34.1648 11.8272 33.1281 10.8955 31.9211 10.2359C30.7141 9.57634 29.3701 9.20708 27.9955 9.15739C25.0317 8.85341 22.2959 10.8863 20.719 10.8863C19.1421 10.8863 16.9193 9.19539 14.4494 9.23339C12.8348 9.28657 11.2615 9.75733 9.88297 10.5997C8.50448 11.4422 7.36785 12.6275 6.58394 14.0401C3.24017 19.8537 5.729 28.4981 9.07278 33.1908C10.5927 35.4896 12.4926 38.0925 15.0004 37.9975C17.5082 37.9025 18.3252 36.4396 21.232 36.4396C24.1388 36.4396 25.0317 37.9975 27.5016 37.9405C29.9714 37.8835 31.7193 35.5846 33.3152 33.2858C34.4457 31.6168 35.3288 29.793 35.937 27.8711C34.4313 27.229 33.1467 26.1599 32.2418 24.7958C31.3369 23.4318 30.8515 21.8325 30.8453 20.1957Z" fill="#75818D"/>
</svg>
