<svg width="40" height="40" viewBox="0 0 40 40" fill="none" xmlns="http://www.w3.org/2000/svg">
<path d="M19.9993 38.3327C30.1246 38.3327 38.3327 30.1246 38.3327 19.9993C38.3327 9.87413 30.1246 1.66602 19.9993 1.66602C9.87413 1.66602 1.66602 9.87413 1.66602 19.9993C1.66602 30.1246 9.87413 38.3327 19.9993 38.3327Z" fill="url(#paint0_linear_134_17175)"/>
<path d="M19.9993 33.3327C27.3631 33.3327 33.3327 27.3631 33.3327 19.9993C33.3327 12.6356 27.3631 6.66602 19.9993 6.66602C12.6356 6.66602 6.66602 12.6356 6.66602 19.9993C6.66602 27.3631 12.6356 33.3327 19.9993 33.3327Z" fill="url(#paint1_linear_134_17175)"/>
<path d="M20.0007 29.1673C25.0633 29.1673 29.1673 25.0633 29.1673 20.0007C29.1673 14.938 25.0633 10.834 20.0007 10.834C14.938 10.834 10.834 14.938 10.834 20.0007C10.834 25.0633 14.938 29.1673 20.0007 29.1673Z" fill="url(#paint2_linear_134_17175)"/>
<path d="M20.0007 24.1673C22.3018 24.1673 24.1673 22.3018 24.1673 20.0007C24.1673 17.6995 22.3018 15.834 20.0007 15.834C17.6995 15.834 15.834 17.6995 15.834 20.0007C15.834 22.3018 17.6995 24.1673 20.0007 24.1673Z" fill="url(#paint3_linear_134_17175)"/>
<path d="M19.9992 20.8342C19.8344 20.8341 19.6733 20.7852 19.5363 20.6937C19.3993 20.6021 19.2925 20.472 19.2294 20.3197C19.1664 20.1675 19.1499 19.9999 19.182 19.8383C19.2142 19.6767 19.2935 19.5282 19.41 19.4117L31.91 6.91166C32.0672 6.75986 32.2777 6.67587 32.4962 6.67777C32.7147 6.67966 32.9237 6.76731 33.0782 6.92181C33.2327 7.07632 33.3203 7.28533 33.3222 7.50383C33.3241 7.72232 33.2401 7.93283 33.0883 8.08999L20.5883 20.59C20.4321 20.7463 20.2202 20.8341 19.9992 20.8342Z" fill="url(#paint4_linear_134_17175)"/>
<path d="M37.9283 5.69463C37.8337 5.46606 37.6733 5.27073 37.4675 5.13336C37.2618 4.99599 37.0199 4.92277 36.7725 4.92296H35.0767V3.22713C35.0768 2.97982 35.0035 2.73804 34.8662 2.53237C34.7288 2.3267 34.5336 2.1664 34.3051 2.07175C34.0766 1.97709 33.8252 1.95233 33.5827 2.00061C33.3401 2.04889 33.1173 2.16803 32.9425 2.34296L30.2408 5.04546C30.1245 5.16122 30.0323 5.29889 29.9695 5.45051C29.9067 5.60213 29.8746 5.76469 29.875 5.9288V9.29213C29.875 9.51314 29.9628 9.72511 30.1191 9.88139C30.2754 10.0377 30.4873 10.1255 30.7083 10.1255H34.0708C34.235 10.1259 34.3977 10.0937 34.5493 10.0308C34.7009 9.96784 34.8386 9.87539 34.9542 9.7588L37.6575 7.0563C37.8322 6.88151 37.9511 6.65888 37.9993 6.41652C38.0476 6.17416 38.0228 5.92295 37.9283 5.69463Z" fill="url(#paint5_linear_134_17175)"/>
<path d="M30.7091 10.1263H34.0716C34.2358 10.1268 34.3985 10.0946 34.5501 10.0317C34.7018 9.9687 34.8394 9.87625 34.955 9.75966L37.6583 7.05716C37.833 6.88225 37.9519 6.65947 38 6.41698C38.0481 6.17449 38.0232 5.92319 37.9285 5.69485C37.8337 5.46651 37.6734 5.27139 37.4678 5.13415C37.2622 4.99691 37.0205 4.92372 36.7733 4.92383H35.0775L30.1191 9.88216C30.1966 9.95965 30.2886 10.0211 30.3898 10.063C30.4911 10.1049 30.5996 10.1264 30.7091 10.1263Z" fill="url(#paint6_linear_134_17175)"/>
<defs>
<linearGradient id="paint0_linear_134_17175" x1="7.03602" y1="7.03602" x2="32.9627" y2="32.9627" gradientUnits="userSpaceOnUse">
<stop stop-color="#5C5C5C"/>
<stop offset="1" stop-color="#1C1C1C"/>
</linearGradient>
<linearGradient id="paint1_linear_134_17175" x1="10.571" y1="10.571" x2="29.4277" y2="29.4277" gradientUnits="userSpaceOnUse">
<stop stop-color="#EDF1F2"/>
<stop offset="1" stop-color="#C6CBCC"/>
</linearGradient>
<linearGradient id="paint2_linear_134_17175" x1="13.519" y1="13.519" x2="26.4823" y2="26.4823" gradientUnits="userSpaceOnUse">
<stop stop-color="#5C5C5C"/>
<stop offset="1" stop-color="#1C1C1C"/>
</linearGradient>
<linearGradient id="paint3_linear_134_17175" x1="17.054" y1="17.054" x2="22.9473" y2="22.9473" gradientUnits="userSpaceOnUse">
<stop stop-color="#EDF1F2"/>
<stop offset="1" stop-color="#C6CBCC"/>
</linearGradient>
<linearGradient id="paint4_linear_134_17175" x1="25.6275" y1="13.1292" x2="27.3283" y2="14.83" gradientUnits="userSpaceOnUse">
<stop stop-color="#3E4154"/>
<stop offset="1" stop-color="#1B2129"/>
</linearGradient>
<linearGradient id="paint5_linear_134_17175" x1="30.8392" y1="4.5363" x2="33.025" y2="6.72213" gradientUnits="userSpaceOnUse">
<stop stop-color="#FED200"/>
<stop offset="1" stop-color="#F59815"/>
</linearGradient>
<linearGradient id="paint6_linear_134_17175" x1="32.4808" y1="6.178" x2="35.55" y2="9.24633" gradientUnits="userSpaceOnUse">
<stop stop-color="#FED200"/>
<stop offset="1" stop-color="#F59815"/>
</linearGradient>
</defs>
</svg>
