<svg width="120" height="119" viewBox="0 0 120 119" fill="none" xmlns="http://www.w3.org/2000/svg">
<g clip-path="url(#clip0_134_12507)">
<path d="M120 66.3736C120 66.3736 119.979 30.0951 100.552 12.768C83.3997 -2.52807 59.7863 -5.63516 43.9291 12.0523C38.2787 18.354 31.4467 24.9209 24.3496 29.3254C16.3927 34.2627 7.09199 36.5178 1.67582 52.8666C-3.74034 69.2155 4.64648 93.1867 16.9461 101.674C29.2458 110.161 48.519 107.008 65.0764 103.458C81.6312 99.908 118.556 111.394 120 66.3762V66.3736Z" fill="#FEF2CA"/>
<path opacity="0.7" d="M120 66.3736C120 66.3736 119.979 30.0951 100.552 12.768C83.3997 -2.52807 59.7863 -5.63516 43.9291 12.0523C38.2787 18.354 31.4467 24.9209 24.3496 29.3254C16.3927 34.2627 7.09199 36.5178 1.67582 52.8666C-3.74034 69.2155 4.64648 93.1867 16.9461 101.674C29.2458 110.161 48.519 107.008 65.0764 103.458C81.6312 99.908 118.556 111.394 120 66.3762V66.3736Z" fill="white"/>
<path opacity="0.16" d="M60.9431 118.151C82.7506 118.151 100.429 115.995 100.429 113.335C100.429 110.675 82.7506 108.519 60.9431 108.519C39.1355 108.519 21.457 110.675 21.457 113.335C21.457 115.995 39.1355 118.151 60.9431 118.151Z" fill="black"/>
<path opacity="0.07" d="M100.552 12.7655C97.7876 10.2994 94.853 8.14993 91.8103 6.3557L66.1144 44.9716L101.034 13.2057C100.874 13.0538 100.715 12.9097 100.55 12.7629L100.552 12.7655ZM77.5568 0.769636C73.487 -0.0566895 69.3837 -0.231737 65.373 0.30885L66.117 44.9742L77.5568 0.769636ZM50.6253 6.08541C48.2776 7.72261 46.0355 9.70219 43.9297 12.0525C43.2321 12.8324 42.5139 13.615 41.7803 14.4001L66.1144 44.9742L50.6253 6.08541ZM29.5424 25.7061C27.8357 27.019 26.1007 28.2366 24.3502 29.3229C20.4966 31.7118 16.3289 33.4751 12.4393 36.5153L66.1144 44.9716L29.5424 25.7061ZM0.0932982 61.2639C-0.37521 68.2323 0.945366 75.7748 3.50157 82.5965L66.117 44.9742L0.0932982 61.2639ZM66.117 44.9742L21.4156 104.138C27.9207 106.964 35.736 107.474 43.8396 106.861L66.1196 44.9742H66.117ZM66.117 44.9742L68.2433 102.966C72.8357 102.475 78.4475 102.627 84.2601 102.377L66.1144 44.9742H66.117ZM116.299 85.1578L66.1144 44.9742L105.186 97.6454C109.737 95.0995 113.637 91.1892 116.299 85.1578ZM118.423 50.5011L66.117 44.9742L119.952 64.4688C119.844 61.8405 119.499 56.7101 118.423 50.5011ZM109.951 24.8412L66.117 44.9742L114.551 35.2745C113.318 31.7401 111.807 28.2031 109.948 24.8412H109.951Z" fill="black"/>
<path d="M103.345 18.2919C103.345 18.2919 100.539 19.144 99.5431 19.1543C98.5468 19.1646 95.5813 18.6729 94.2324 17.6304C92.8836 16.5878 91.6865 15.3342 90.8499 14.374C90.0133 13.4164 89.3903 13.4576 89.3311 14.7086C89.2693 15.9571 89.9978 17.3961 90.7572 18.1066C91.5166 18.8171 92.7394 19.4014 92.7909 19.6151C92.8424 19.8288 92.9814 20.2329 92.9814 20.2329C92.9814 20.2329 90.7881 21.4505 89.4676 21.9937C88.147 22.5368 87.1791 23.0774 87.4931 23.6566C87.8072 24.2358 88.6335 24.9 89.1046 25.4174C89.5757 25.9348 92.222 27.8088 93.0586 28.0637C93.8952 28.3185 94.5697 28.491 94.9764 28.4987C95.3831 28.5065 95.5041 28.6738 96.1837 28.2877C96.8633 27.9015 97.6639 27.4793 97.9445 27.379C98.2251 27.2786 98.6241 27.3455 99.6949 26.5269C100.768 25.7083 101.613 24.8536 101.613 24.8536L105.78 23.7287L103.345 18.2894V18.2919Z" fill="#FFBE9D" stroke="#263238" stroke-width="0.75" stroke-miterlimit="10"/>
<path d="M101.832 18.4202L104.7 25.3088L107.567 24.6138L104.301 17.6582L101.832 18.4202Z" fill="#FFBE9D" stroke="#263238" stroke-width="0.75" stroke-miterlimit="10"/>
<path d="M108.25 15.5371L103.141 17.5836L106.585 25.7671L114.477 24.2946L114.122 23.7412L108.25 15.5371Z" fill="#263238" stroke="#263238" stroke-width="0.75" stroke-miterlimit="10"/>
<path d="M93.0625 20.627C93.0625 20.627 94.0459 22.6348 94.3573 23.0673C94.6662 23.4998 96.4296 23.9966 96.808 23.8241" stroke="#263238" stroke-width="0.75" stroke-miterlimit="10"/>
<path d="M95.63 25.621C95.63 25.621 96.2143 25.4537 96.3662 25.948C96.5181 26.4422 95.926 27.719 95.6506 28.3188C95.3751 28.9186 95.1847 29.0036 94.4407 29.0834C93.6942 29.1657 93.2051 28.7616 93.2051 28.7616C93.2051 28.7616 94.0108 28.1335 94.1318 27.9481C94.2502 27.7628 95.63 25.621 95.63 25.621Z" fill="#FFBE9D" stroke="#263238" stroke-width="0.75" stroke-miterlimit="10"/>
<path d="M91.1897 27.4897C91.1897 27.4897 92.2838 29.0188 92.7446 28.8901C93.2053 28.7614 93.7742 28.504 93.9828 28.3058C94.1913 28.105 95.3728 26.4575 95.5299 26.043C95.6869 25.6286 95.6766 24.985 95.2261 24.7044L94.7756 24.4238C94.7756 24.4238 94.1733 25.0571 93.3418 25.6492C92.5103 26.2438 90.9246 26.9749 90.8963 27.1474C90.8679 27.3173 91.1897 27.4897 91.1897 27.4897Z" fill="#FFBE9D" stroke="#263238" stroke-width="0.75" stroke-miterlimit="10"/>
<path d="M89.2181 25.7853C89.2181 25.7853 89.0894 26.0273 89.3031 26.3259C89.5167 26.6245 89.7613 27.8061 90.4383 27.7726C91.1179 27.7392 92.7448 26.9257 93.0434 26.7121C93.342 26.4984 94.6523 24.6064 94.7707 24.421C94.8891 24.2357 94.4618 23.6384 94.2276 23.4531C93.9959 23.2678 93.3498 23.6307 93.3498 23.6307C93.3498 23.6307 90.7446 25.3941 89.2155 25.7853H89.2181Z" fill="#FFBE9D" stroke="#263238" stroke-width="0.75" stroke-miterlimit="10"/>
<path d="M88.6339 23.1418C88.6339 23.1418 90.2685 23.1778 90.5157 23.1032C90.7628 23.0285 92.5467 22.5034 92.5467 22.5034C92.5467 22.5034 92.817 22.4596 93.1028 22.8586C93.3885 23.2576 93.2546 23.703 92.9715 24.0067C92.6883 24.3105 91.6329 25.3659 91.082 25.5101C90.5311 25.6542 89.1153 25.7109 88.6751 25.7263C88.2323 25.7417 88.0109 25.4998 87.9157 25.0132C87.8204 24.5293 87.4961 23.6566 87.4961 23.6566" fill="#FFBE9D"/>
<path d="M88.6339 23.1418C88.6339 23.1418 90.2685 23.1778 90.5157 23.1032C90.7628 23.0285 92.5467 22.5034 92.5467 22.5034C92.5467 22.5034 92.817 22.4596 93.1028 22.8586C93.3885 23.2576 93.2546 23.703 92.9715 24.0067C92.6883 24.3105 91.6329 25.3659 91.082 25.5101C90.5311 25.6542 89.1153 25.7109 88.6751 25.7263C88.2323 25.7417 88.0109 25.4998 87.9157 25.0132C87.8204 24.5293 87.4961 23.6566 87.4961 23.6566" stroke="#263238" stroke-width="0.75" stroke-miterlimit="10"/>
<path d="M111.483 81.4642C111.483 81.4642 108.706 80.5247 107.887 79.9532C107.071 79.3817 104.945 77.258 104.456 75.6233C103.967 73.9887 103.72 72.2743 103.599 71.0078C103.475 69.7412 102.945 69.4143 102.17 70.3951C101.392 71.3759 101.148 72.9693 101.354 73.9913C101.557 75.0132 102.211 76.1974 102.131 76.4008C102.049 76.6041 101.928 77.0134 101.928 77.0134C101.928 77.0134 99.4361 76.7277 98.046 76.4008C96.6559 76.0738 95.5542 75.9503 95.4718 76.6041C95.3894 77.258 95.6751 78.2799 95.7575 78.9724C95.8399 79.6674 96.9005 82.7308 97.4333 83.4258C97.9662 84.1208 98.4141 84.6511 98.741 84.8957C99.068 85.1402 99.068 85.3462 99.8428 85.426C100.62 85.5084 101.519 85.6293 101.804 85.7117C102.09 85.7941 102.376 86.0798 103.725 86.0386C105.074 85.9975 106.258 85.7941 106.258 85.7941L110.302 87.3052L111.486 81.4642H111.483Z" fill="#FFBE9D" stroke="#263238" stroke-width="0.75" stroke-miterlimit="10"/>
<path d="M110.176 80.6875L108.5 87.9597L111.236 89.0614L112.626 81.5035L110.176 80.6875Z" fill="#FFBE9D" stroke="#263238" stroke-width="0.75" stroke-miterlimit="10"/>
<path d="M117.074 82.0772L111.727 80.7695L109.766 89.4292L117.04 92.8246L117.074 92.1682V82.0772Z" fill="#263238" stroke="#263238" stroke-width="0.75" stroke-miterlimit="10"/>
<path d="M101.763 77.3789C101.763 77.3789 101.395 79.585 101.395 80.1153C101.395 80.6456 102.537 82.0769 102.947 82.1567" stroke="#263238" stroke-width="0.75" stroke-miterlimit="10"/>
<path d="M100.943 82.9342C100.943 82.9342 101.515 83.1376 101.353 83.6293C101.191 84.1209 99.9627 84.8134 99.3912 85.1403C98.8197 85.4672 98.6138 85.4261 97.9625 85.058C97.3087 84.6898 97.1465 84.0772 97.1465 84.0772C97.1465 84.0772 98.1685 84.036 98.3718 83.9536C98.5752 83.8712 100.946 82.9316 100.946 82.9316L100.943 82.9342Z" fill="#FFBE9D" stroke="#263238" stroke-width="0.75" stroke-miterlimit="10"/>
<path d="M96.2447 81.871C96.2447 81.871 96.2447 83.7501 96.6951 83.9123C97.1456 84.0745 97.7583 84.1981 98.044 84.1569C98.3298 84.1157 100.25 83.4618 100.618 83.2173C100.986 82.9727 101.354 82.4399 101.149 81.9508L100.945 81.4617C100.945 81.4617 100.088 81.6238 99.066 81.6238C98.044 81.6238 96.3296 81.2969 96.206 81.4205C96.0825 81.544 96.2472 81.871 96.2472 81.871H96.2447Z" fill="#FFBE9D" stroke="#263238" stroke-width="0.75" stroke-miterlimit="10"/>
<path d="M95.6328 79.3379C95.6328 79.3379 95.3882 79.4615 95.3882 79.827C95.3882 80.1925 94.8991 81.2969 95.4706 81.665C96.0421 82.0331 97.8389 82.3188 98.207 82.3188C98.5751 82.3188 100.74 81.5414 100.943 81.4616C101.147 81.3818 101.147 80.6456 101.067 80.3599C100.987 80.0741 100.251 79.9917 100.251 79.9917C100.251 79.9917 97.1053 79.9094 95.6354 79.3379H95.6328Z" fill="#FFBE9D" stroke="#263238" stroke-width="0.75" stroke-miterlimit="10"/>
<path d="M96.6951 76.8461C96.6951 76.8461 98.0028 77.8269 98.2474 77.9093C98.4919 77.9916 100.25 78.6043 100.25 78.6043C100.25 78.6043 100.495 78.7279 100.495 79.217C100.495 79.7061 100.127 79.9944 99.7173 80.0742C99.308 80.154 97.8381 80.4011 97.3078 80.1978C96.7775 79.9944 95.5908 79.217 95.2253 78.9724C94.8571 78.7279 94.816 78.4009 95.0219 77.9505C95.2278 77.5 95.4724 76.6016 95.4724 76.6016" fill="#FFBE9D"/>
<path d="M96.6951 76.8461C96.6951 76.8461 98.0028 77.8269 98.2474 77.9093C98.4919 77.9916 100.25 78.6043 100.25 78.6043C100.25 78.6043 100.495 78.7279 100.495 79.217C100.495 79.7061 100.127 79.9944 99.7173 80.0742C99.308 80.154 97.8381 80.4011 97.3078 80.1978C96.7775 79.9944 95.5908 79.217 95.2253 78.9724C94.8571 78.7279 94.816 78.4009 95.0219 77.9505C95.2278 77.5 95.4724 76.6016 95.4724 76.6016" stroke="#263238" stroke-width="0.75" stroke-miterlimit="10"/>
<path d="M13.4674 80.5404C13.4674 80.5404 16.245 79.6008 17.0636 79.0294C17.8796 78.4579 20.0059 76.3341 20.495 74.6995C20.9842 73.0649 21.2313 71.3504 21.3523 70.0839C21.4758 68.8174 22.0061 68.4905 22.781 69.4713C23.5584 70.452 23.8029 72.0455 23.597 73.0675C23.3936 74.0894 22.7398 75.2736 22.8196 75.4769C22.9019 75.6803 23.0229 76.0896 23.0229 76.0896C23.0229 76.0896 25.5148 75.8039 26.9049 75.4769C28.2949 75.15 29.3967 75.0264 29.4791 75.6803C29.5615 76.3341 29.2757 77.3561 29.1933 78.0486C29.111 78.7436 28.0504 81.8069 27.5175 82.502C26.9847 83.197 26.5367 83.7273 26.2098 83.9719C25.8829 84.2164 25.8829 84.4224 25.1081 84.5022C24.3332 84.582 23.4322 84.7055 23.1465 84.7879C22.8608 84.8703 22.575 85.156 21.2261 85.1148C19.8772 85.0736 18.6931 84.8703 18.6931 84.8703L14.649 86.3813L13.4648 80.5404H13.4674Z" fill="#FFBE9D" stroke="#263238" stroke-width="0.75" stroke-miterlimit="10"/>
<path d="M14.7749 79.7627L16.4507 87.0349L13.7143 88.1392L12.3242 80.5813L14.7749 79.7627Z" fill="#FFBE9D" stroke="#263238" stroke-width="0.75" stroke-miterlimit="10"/>
<path d="M7.875 81.1534L13.2217 79.8457L15.1832 88.5054L7.90846 91.9008L7.875 91.2444V81.1534Z" fill="#263238" stroke="#263238" stroke-width="0.75" stroke-miterlimit="10"/>
<path d="M23.192 76.4551C23.192 76.4551 23.5601 78.6612 23.5601 79.1915C23.5601 79.7218 22.4171 81.153 22.0078 81.2328" stroke="#263238" stroke-width="0.75" stroke-miterlimit="10"/>
<path d="M24.0086 82.0104C24.0086 82.0104 23.4371 82.2137 23.5993 82.7054C23.7615 83.1971 24.9894 83.8896 25.5608 84.2165C26.1323 84.5434 26.3383 84.5022 26.9895 84.1341C27.6434 83.766 27.8056 83.1533 27.8056 83.1533C27.8056 83.1533 26.7836 83.1122 26.5802 83.0298C26.3769 82.9474 24.006 82.0078 24.006 82.0078L24.0086 82.0104Z" fill="#FFBE9D" stroke="#263238" stroke-width="0.75" stroke-miterlimit="10"/>
<path d="M28.7054 80.9471C28.7054 80.9471 28.7054 82.8263 28.2549 82.9885C27.8044 83.1507 27.1917 83.2742 26.906 83.233C26.6202 83.1919 24.6999 82.538 24.3317 82.2935C23.9636 82.0489 23.5955 81.516 23.8015 81.0269L24.0048 80.5378C24.0048 80.5378 24.862 80.7 25.884 80.7C26.906 80.7 28.6204 80.3731 28.744 80.4966C28.8675 80.6202 28.7028 80.9471 28.7028 80.9471H28.7054Z" fill="#FFBE9D" stroke="#263238" stroke-width="0.75" stroke-miterlimit="10"/>
<path d="M29.3178 78.416C29.3178 78.416 29.5624 78.5396 29.5624 78.9051C29.5624 79.2707 30.0515 80.375 29.48 80.7431C28.9085 81.1112 27.1117 81.397 26.7436 81.397C26.3755 81.397 24.2105 80.6196 24.0072 80.5397C23.8038 80.4599 23.8038 79.7237 23.8836 79.438C23.9634 79.1522 24.6996 79.0699 24.6996 79.0699C24.6996 79.0699 27.8453 78.9875 29.3152 78.416H29.3178Z" fill="#FFBE9D" stroke="#263238" stroke-width="0.75" stroke-miterlimit="10"/>
<path d="M28.2566 75.9223C28.2566 75.9223 26.9489 76.9031 26.7043 76.9854C26.4598 77.0678 24.7016 77.6805 24.7016 77.6805C24.7016 77.6805 24.457 77.804 24.457 78.2931C24.457 78.7822 24.8251 79.0706 25.2344 79.1504C25.6437 79.2302 27.1136 79.4773 27.6439 79.2739C28.1742 79.0706 29.3609 78.2931 29.7265 78.0486C30.0946 77.804 30.1358 77.4771 29.9298 77.0266C29.7239 76.5761 29.4793 75.6777 29.4793 75.6777" fill="#FFBE9D"/>
<path d="M28.2566 75.9223C28.2566 75.9223 26.9489 76.9031 26.7043 76.9854C26.4598 77.0678 24.7016 77.6805 24.7016 77.6805C24.7016 77.6805 24.457 77.804 24.457 78.2931C24.457 78.7822 24.8251 79.0706 25.2344 79.1504C25.6437 79.2302 27.1136 79.4773 27.6439 79.2739C28.1742 79.0706 29.3609 78.2931 29.7265 78.0486C30.0946 77.804 30.1358 77.4771 29.9298 77.0266C29.7239 76.5761 29.4793 75.6777 29.4793 75.6777" stroke="#263238" stroke-width="0.75" stroke-miterlimit="10"/>
<path d="M16.488 20.7383C16.488 20.7383 19.2939 21.5904 20.2901 21.6007C21.2863 21.611 24.2518 21.1193 25.6007 20.0767C26.9496 19.0342 28.1492 17.7805 28.9832 16.8203C29.8173 15.8601 30.4428 15.9039 30.502 17.155C30.5638 18.4035 29.8353 19.8425 29.0759 20.553C28.3165 21.266 27.0938 21.8478 27.0423 22.0614C26.9908 22.2751 26.8518 22.6793 26.8518 22.6793C26.8518 22.6793 29.045 23.8969 30.3656 24.44C31.6862 24.9832 32.6541 25.5238 32.34 26.103C32.026 26.6822 31.1996 27.3463 30.7286 27.8637C30.2575 28.3812 27.6112 30.2552 26.7745 30.51C25.9379 30.7649 25.2635 30.9374 24.8568 30.9451C24.4474 30.9554 24.329 31.1201 23.6494 30.734C22.9698 30.3479 22.1693 29.9257 21.8887 29.8253C21.6081 29.7249 21.2091 29.7918 20.1382 28.9732C19.0647 28.1546 18.2204 27.3 18.2204 27.3L14.0527 26.1751L16.488 20.7357V20.7383Z" fill="#FFBE9D" stroke="#263238" stroke-width="0.75" stroke-miterlimit="10"/>
<path d="M18.0055 20.8674L15.1353 27.7561L12.2676 27.061L15.5368 20.1055L18.0055 20.8674Z" fill="#FFBE9D" stroke="#263238" stroke-width="0.75" stroke-miterlimit="10"/>
<path d="M11.5819 17.9834L16.6943 20.0299L13.25 28.2134L5.35742 26.7409L5.71266 26.1874L11.5819 17.9834Z" fill="#263238" stroke="#263238" stroke-width="0.75" stroke-miterlimit="10"/>
<path d="M26.7728 23.0732C26.7728 23.0732 25.7895 25.0811 25.478 25.5136C25.1691 25.9461 23.4058 26.4429 23.0273 26.2704" stroke="#263238" stroke-width="0.75" stroke-miterlimit="10"/>
<path d="M24.2059 28.0673C24.2059 28.0673 23.6215 27.9 23.4697 28.3942C23.3178 28.8885 23.9098 30.1653 24.1853 30.7651C24.4607 31.3649 24.6512 31.4498 25.3952 31.5296C26.1417 31.612 26.6308 31.2079 26.6308 31.2079C26.6308 31.2079 25.8251 30.5798 25.7067 30.3944C25.5882 30.2091 24.2085 28.0673 24.2085 28.0673H24.2059Z" fill="#FFBE9D" stroke="#263238" stroke-width="0.75" stroke-miterlimit="10"/>
<path d="M28.6429 29.936C28.6429 29.936 27.5488 31.4651 27.0881 31.3364C26.6273 31.2077 26.0584 30.9503 25.8499 30.752C25.6413 30.5513 24.4598 28.9038 24.3027 28.4893C24.1457 28.0749 24.156 27.4313 24.6065 27.1507L25.057 26.8701C25.057 26.8701 25.6594 27.5034 26.4908 28.0954C27.3223 28.6901 28.908 29.4212 28.9363 29.5936C28.9647 29.7635 28.6429 29.936 28.6429 29.936Z" fill="#FFBE9D" stroke="#263238" stroke-width="0.75" stroke-miterlimit="10"/>
<path d="M30.6157 28.2316C30.6157 28.2316 30.7444 28.4736 30.5308 28.7722C30.3171 29.0708 30.0725 30.2524 29.3955 30.2189C28.7185 30.1855 27.089 29.372 26.7904 29.1584C26.4918 28.9447 25.1815 27.0526 25.0631 26.8673C24.9447 26.682 25.372 26.0847 25.6063 25.8994C25.8405 25.714 26.4841 26.077 26.4841 26.077C26.4841 26.077 29.0892 27.8404 30.6183 28.2316H30.6157Z" fill="#FFBE9D" stroke="#263238" stroke-width="0.75" stroke-miterlimit="10"/>
<path d="M31.202 25.5881C31.202 25.5881 29.5673 25.6241 29.3202 25.5495C29.0731 25.4722 27.2891 24.9497 27.2891 24.9497C27.2891 24.9497 27.0188 24.9059 26.7331 25.3049C26.4474 25.7039 26.5812 26.1492 26.8644 26.453C27.1501 26.7568 28.203 27.8122 28.7539 27.9564C29.3048 28.1005 30.7206 28.1571 31.1608 28.1726C31.601 28.188 31.8249 27.9461 31.9202 27.4595C32.0154 26.9756 32.3398 26.1029 32.3398 26.1029" fill="#FFBE9D"/>
<path d="M31.202 25.5881C31.202 25.5881 29.5673 25.6241 29.3202 25.5495C29.0731 25.4722 27.2891 24.9497 27.2891 24.9497C27.2891 24.9497 27.0188 24.9059 26.7331 25.3049C26.4474 25.7039 26.5812 26.1492 26.8644 26.453C27.1501 26.7568 28.203 27.8122 28.7539 27.9564C29.3048 28.1005 30.7206 28.1571 31.1608 28.1726C31.601 28.188 31.8249 27.9461 31.9202 27.4595C32.0154 26.9756 32.3398 26.1029 32.3398 26.1029" stroke="#263238" stroke-width="0.75" stroke-miterlimit="10"/>
<path d="M54.18 58.0534C54.18 58.0534 52.378 65.946 52.306 69.658C52.2365 73.37 52.4398 86.7483 52.5093 89.6185C52.5788 92.4888 53.8402 101.805 53.8402 102.644C53.8402 103.483 54.0513 105.095 54.0513 105.095L53.4901 108.107C53.4901 108.107 53.001 108.526 51.7396 109.226C50.4783 109.927 49.0084 110.838 48.5888 111.327C48.37 111.582 48.4678 111.976 48.7793 112.097C49.1757 112.249 49.7292 112.413 50.3393 112.449C51.5286 112.519 53.4901 112.519 54.5404 112.238C55.5907 111.958 56.4324 111.049 56.9216 110.696L57.4107 110.346L57.4802 111.116C57.4802 111.116 57.5497 111.116 58.1803 110.977C58.811 110.838 59.6502 110.346 59.6502 110.346C59.6502 110.346 59.7197 109.157 59.7197 108.454C59.7197 107.751 59.3696 106.493 59.3001 106.212C59.2306 105.931 59.3001 103.411 59.089 102.569C58.878 101.73 58.739 101.939 58.5999 100.399C58.4609 98.86 59.7197 84.2925 59.6502 83.8729C59.5807 83.4533 61.4342 70.8241 61.4342 70.8241C61.4342 70.8241 64.9737 87.3043 66.0935 90.4551C67.2133 93.606 67.7745 99.6992 67.7745 100.119C67.7745 100.538 68.4052 105.512 68.6858 106.212C68.9663 106.912 69.736 109.082 69.736 109.082C69.736 109.082 70.8558 110.763 71.3475 111.602C71.8366 112.442 73.5176 113.144 74.7789 113.353C76.0403 113.564 77.0211 113.633 77.0906 111.952C77.1601 110.272 76.5294 109.152 75.4791 108.382C74.4288 107.612 74.2178 106.912 74.2178 106.912C74.2178 106.912 74.3568 105.02 74.2178 103.831C74.0788 102.642 73.3065 101.73 73.237 99.2796C73.1675 96.8289 72.6758 83.9424 72.2562 81.9113C71.8366 79.8802 71.2831 66.2909 71.3526 64.4014C71.4222 62.5094 71.1776 57.2425 71.1776 57.2425L54.1259 57.0469L54.1774 58.0482L54.18 58.0534Z" fill="#263238" stroke="#263238" stroke-width="0.75" stroke-miterlimit="10"/>
<path d="M60.8736 29.8403C60.8736 29.8403 58.2711 31.3745 56.4279 32.2987C54.5848 33.2203 52.3375 33.7403 52.1058 34.2577C51.8741 34.7751 47.8995 43.2469 47.1504 44.4001C46.4013 45.5534 44.6148 47.8007 44.9598 49.0672C45.3047 50.3337 46.7463 52.0636 47.6679 51.9477C48.5894 51.8319 50.4326 51.3145 51.1842 49.9888C51.9333 48.663 53.7198 44.4001 53.7198 44.4001C53.7198 44.4001 54.0082 48.3773 53.9515 50.3363C53.8949 52.2953 53.8949 53.9093 53.7791 54.8875C53.6632 55.8683 53.1458 57.0782 53.3749 57.4231C53.604 57.7681 53.8923 58.1156 54.1806 58.0564C54.4689 57.9997 58.7911 57.9405 60.1168 57.9997C61.4425 58.0564 67.4353 57.9997 68.7018 58.0564C69.9683 58.113 71.065 57.4797 71.1808 57.2506C71.2966 57.0215 71.5258 56.674 71.4125 55.4075C71.2966 54.141 71.5283 50.2796 71.8733 48.7814C72.2182 47.2832 74.293 41.5196 74.293 41.5196C74.293 41.5196 79.7684 45.8417 80.9191 46.1866C82.0723 46.5316 85.1846 46.0142 86.2194 44.7451C87.2543 43.476 87.6018 42.4978 86.9685 41.6328C86.3353 40.7679 84.0288 39.9621 81.609 37.3673C79.1892 34.7751 78.2676 33.5652 76.5944 32.7569C74.9237 31.9512 71.5232 30.8545 70.7174 30.5096C69.9117 30.1647 69.68 29.9922 69.1626 29.7605C68.6452 29.5288 67.4327 29.068 65.1854 29.0114C62.9381 28.9548 60.871 29.8377 60.871 29.8377L60.8736 29.8403Z" fill="#FEF2CA" stroke="#263238" stroke-width="0.75" stroke-miterlimit="10"/>
<path d="M52.5581 40.3154C52.6379 40.5934 53.7191 44.3981 53.7191 44.3981L52.1231 41.2293" stroke="#263238" stroke-width="0.75" stroke-miterlimit="10"/>
<path d="M74.2899 41.5167C74.0479 41.5064 71.7852 40.2373 71.7852 40.2373" stroke="#263238" stroke-width="0.75" stroke-miterlimit="10"/>
<path d="M70.6309 40.0781C70.6309 40.0781 71.5447 41.27 72.3402 41.5094" stroke="#263238" stroke-width="0.75" stroke-miterlimit="10"/>
<path d="M60.5506 33.3751L61.2739 36.1064C61.2739 36.1064 58.9829 47.5565 58.6225 49.4846C58.2621 51.4127 58.1797 53.019 58.1797 53.019L60.1876 56.9962L62.7181 52.6972C62.7181 52.6972 62.4761 47.2733 62.3963 42.9332C62.3165 38.5931 62.4761 36.5054 62.4375 36.3844C62.3963 36.2634 64.9679 34.3765 64.9679 34.3765C64.9679 34.3765 66.4533 32.729 66.5356 32.4484C66.6155 32.1678 65.4905 32.5282 65.2511 32.7702C65.0091 33.0121 64.2858 33.4523 63.2432 33.2515C62.1981 33.0508 60.8337 31.8846 60.633 32.4484C60.4322 33.0096 60.5532 33.3725 60.5532 33.3725L60.5506 33.3751Z" fill="#263238" stroke="#263238" stroke-width="0.75" stroke-miterlimit="10"/>
<path d="M62.2774 28.716C62.1564 28.7958 61.1937 29.0378 60.8719 29.841C60.5501 30.6441 58.9026 34.3407 58.4212 34.9431C57.9399 35.5454 58.7018 35.3035 59.3454 34.9019C59.9889 34.5003 60.5501 32.9326 60.9131 33.6174C61.2735 34.2995 62.3186 34.5827 62.3186 34.5827C62.3186 34.5827 64.4887 34.1811 64.9701 33.8593C65.4514 33.5376 65.8942 33.0948 65.8942 33.0948C65.8942 33.0948 67.7425 35.8672 68.2651 36.1092C68.7876 36.3512 68.8674 35.9496 68.9086 35.5068C68.9498 35.0641 69.3102 32.4538 69.8328 30.7265C70.3553 28.9992 69.3514 28.4354 68.7078 27.7121C68.0643 26.9887 67.3409 27.4701 66.6176 27.5525C65.8942 27.6323 62.2774 28.7186 62.2774 28.7186V28.716Z" fill="#FEF2CA" stroke="#263238" stroke-width="0.75" stroke-miterlimit="10"/>
<path d="M61.1767 16.3439C61.1767 16.3439 59.9205 18.2489 60.1548 18.7148C60.3865 19.1807 60.3865 19.7831 60.1548 20.11C59.9231 20.4344 59.6425 20.854 59.7352 21.6443C59.8278 22.4346 59.3645 26.4323 60.0595 26.8983C60.7571 27.3642 61.5011 27.5959 61.5011 27.5959C61.5011 27.5959 62.2914 34.2914 62.5694 34.1035C62.8474 33.9182 66.8452 29.8277 67.3111 28.9422C67.7771 28.0592 68.3331 26.803 68.3331 26.803C68.3331 26.803 69.9137 23.7809 70.843 22.5272C71.7722 21.2736 72.8431 18.9465 72.5162 17.7392C72.1918 16.5293 70.516 15.6463 69.7257 14.9951C68.9354 14.3438 69.4477 12.8559 68.3305 12.1119C67.2159 11.368 65.867 11.1826 64.984 11.507C64.1011 11.8313 64.0547 12.5289 62.9838 11.8313C61.9155 11.1337 60.891 10.4361 59.2641 11.2264C57.6372 12.0167 57.3103 14.8071 58.2885 15.5511C59.2641 16.295 61.1716 16.3414 61.1716 16.3414L61.1767 16.3439Z" fill="#FFBE9D" stroke="#263238" stroke-width="0.75" stroke-miterlimit="10"/>
<path d="M69.7296 14.9951C68.9394 14.3438 69.4516 12.8559 68.3344 12.1119C67.2198 11.368 65.8709 11.1826 64.9879 11.507C64.105 11.8313 64.0586 12.5289 62.9878 11.8313C61.9194 11.1337 60.8949 10.4361 59.268 11.2264C57.6411 12.0167 57.3142 14.8071 58.2924 15.5511C59.268 16.295 61.1755 16.3414 61.1755 16.3414C61.1755 16.3414 62.5707 15.6901 63.5 15.1804C64.4293 14.6681 66.5222 15.5048 66.8928 15.8317C67.2635 16.156 66.7075 15.9243 66.6148 16.5293C66.5222 17.1342 67.6831 18.1099 68.1954 18.5758C68.7077 19.0417 68.1027 19.3661 67.9637 19.971C67.8247 20.576 68.3833 20.8077 68.7077 20.576C69.032 20.3443 70.0566 19.0417 70.4273 19.7857C70.7979 20.5296 71.3566 21.6443 70.3346 22.4346C69.3126 23.2248 68.5687 23.0395 68.5687 23.0395C68.5687 23.0395 68.234 25.0525 69.2019 25.2121C69.7193 24.2829 70.3706 23.1734 70.8469 22.5298C71.7761 21.2736 72.847 18.9491 72.5201 17.7418C72.1957 16.5319 70.5199 15.6489 69.7296 14.9976V14.9951Z" fill="#263238" stroke="#263238" stroke-width="0.75" stroke-miterlimit="10"/>
<path d="M63.6875 18.8076C63.6875 18.8076 64.1535 18.6222 64.6168 18.6686" stroke="#263238" stroke-width="0.5" stroke-miterlimit="10"/>
<path d="M61.3075 19.2656C61.3075 19.2656 60.9007 19.3506 60.6485 19.5025" stroke="#263238" stroke-width="0.5" stroke-miterlimit="10"/>
<path d="M61.3233 17.9971C61.3233 17.9971 61.6116 18.5222 61.4597 19.0293C61.3078 19.5365 59.8714 20.6691 59.8869 20.8905C59.9049 21.1093 60.7312 21.5675 60.7158 21.7529C60.7003 21.9382 60.6488 22.242 60.6488 22.242" stroke="#263238" stroke-width="0.75" stroke-miterlimit="10"/>
<path d="M64.4679 19.4516C64.6356 19.4516 64.7716 19.2845 64.7716 19.0783C64.7716 18.8722 64.6356 18.7051 64.4679 18.7051C64.3001 18.7051 64.1641 18.8722 64.1641 19.0783C64.1641 19.2845 64.3001 19.4516 64.4679 19.4516Z" fill="#263238" stroke="#263238" stroke-width="0.5" stroke-miterlimit="10"/>
<path d="M63.877 19.6883C63.9285 19.6703 64.6724 19.3666 65.1615 19.4" stroke="#263238" stroke-width="0.75" stroke-miterlimit="10"/>
<path d="M62.8028 17.4479C62.8028 17.4479 63.799 16.5238 64.5738 16.7091C65.3461 16.8971 65.6396 17.6384 65.516 17.641C65.3924 17.6436 65.0037 17.067 64.5764 17.0258C64.1517 16.982 63.853 17.1828 63.4901 17.3681C63.1271 17.5509 62.898 17.6848 62.8053 17.4479H62.8028Z" fill="#263238" stroke="#263238" stroke-width="0.5" stroke-miterlimit="10"/>
<path d="M61.3904 18.1821C61.3904 18.1075 61.272 17.7599 60.8164 17.8269C60.3607 17.8938 60.0132 18.7227 60.1522 18.715C60.2912 18.7073 60.4431 18.1821 60.7983 18.1306C61.1536 18.0791 61.3904 18.6377 61.3904 18.1821Z" fill="#263238" stroke="#263238" stroke-width="0.5" stroke-miterlimit="10"/>
<path d="M60.6133 23.2887C60.6133 23.2887 61.3392 23.2037 62.2866 23.0853C63.2339 22.9669 64.5699 22.7816 64.7887 22.1045C65.0075 21.4275 64.9586 21.0723 64.9586 21.0723" stroke="#263238" stroke-width="0.75" stroke-miterlimit="10"/>
<path d="M64.4511 21.0238C64.5181 21.0058 65.0587 21.0058 65.28 21.0753" stroke="#263238" stroke-width="0.75" stroke-miterlimit="10"/>
<path d="M68.3522 24.3652C68.3522 24.3652 68.172 25.364 67.3277 25.902C66.4833 26.4401 60.282 27.0553 60.4854 27.1325C60.6888 27.2098 61.4996 27.5959 61.4996 27.5959L61.7416 29.7968C61.7416 29.7968 62.9206 28.6693 64.9697 27.6191C67.0188 26.5688 68.3007 26.211 68.3522 24.3652Z" fill="#263238" stroke="#263238" stroke-width="0.5" stroke-miterlimit="10"/>
<path d="M71.8127 54.4248C71.8127 54.4248 70.6594 54.3682 70.3711 54.309C70.0828 54.2524 69.1612 53.3874 68.7571 53.4441C68.3529 53.5007 67.6038 54.309 67.3155 54.9989C67.0272 55.6914 66.9114 56.0363 66.9114 56.0363C66.9114 56.0363 65.874 56.9579 66.3939 57.5911C66.9114 58.2244 67.488 57.9953 67.488 57.9953C67.488 57.9953 67.8329 58.5719 68.2937 58.6286C68.7545 58.6852 69.3311 58.6852 69.3311 58.6852C69.3311 58.6852 69.9078 58.8577 70.2527 58.801C70.5976 58.7444 70.9452 58.5127 70.9452 58.5127C70.9452 58.5127 71.3493 58.5693 71.6376 58.3402C71.8487 58.1703 72.8733 57.1278 73.3984 56.5872C73.5863 56.3941 73.7125 56.2654 73.7125 56.2654L71.8101 54.4223L71.8127 54.4248Z" fill="#FFBE9D" stroke="#263238" stroke-width="0.75" stroke-miterlimit="10"/>
<path d="M81.4348 42.5547C81.4348 42.5547 79.3034 44.9178 78.6109 46.0711C77.9184 47.2243 75.787 50.2207 74.9812 51.1423C74.1755 52.0639 71.3516 54.3112 71.3516 54.3112C71.3516 54.3112 72.2165 56.1543 72.8498 56.4426C73.4831 56.7309 74.003 56.8468 74.003 56.8468L76.307 55.1169C76.307 55.1169 80.6857 51.7756 82.9922 49.8732C85.2962 47.9709 88.5242 45.4352 88.7559 44.3412C88.9876 43.2472 88.8126 42.6705 87.6619 41.8056C86.5086 40.9406 85.2987 40.5957 85.2987 40.5957" fill="#FEF2CA"/>
<path d="M81.4348 42.5547C81.4348 42.5547 79.3034 44.9178 78.6109 46.0711C77.9184 47.2243 75.787 50.2207 74.9812 51.1423C74.1755 52.0639 71.3516 54.3112 71.3516 54.3112C71.3516 54.3112 72.2165 56.1543 72.8498 56.4426C73.4831 56.7309 74.003 56.8468 74.003 56.8468L76.307 55.1169C76.307 55.1169 80.6857 51.7756 82.9922 49.8732C85.2962 47.9709 88.5242 45.4352 88.7559 44.3412C88.9876 43.2472 88.8126 42.6705 87.6619 41.8056C86.5086 40.9406 85.2987 40.5957 85.2987 40.5957" stroke="#263238" stroke-width="0.75" stroke-miterlimit="10"/>
<path d="M73.1367 52.8691C73.1367 52.8691 73.6542 55.4047 75.4407 55.4047" stroke="#263238" stroke-width="0.75" stroke-miterlimit="10"/>
<path d="M48.0299 34.1981C48.0299 34.1981 48.2693 36.224 48.3877 37.1379C48.5061 38.0517 48.7841 38.4482 48.7841 38.4482C48.7841 38.4482 46.9178 42.6184 46.838 42.7394C46.7582 42.8578 44.8121 46.5132 44.4954 46.9508C44.1788 47.3884 43.422 48.7785 43.9008 49.6512C44.377 50.5238 45.1313 52.3129 46.1249 52.3515C47.1186 52.3901 48.5087 51.7955 49.4611 51.2395C50.4136 50.6834 50.7328 50.3256 50.8126 48.7373C50.8924 47.149 50.8512 44.2891 51.1292 42.778C51.4072 41.2695 51.6054 39.6786 51.8037 39.084C52.0019 38.4893 53.1551 38.6876 53.5516 38.4482C53.948 38.2088 54.3058 37.6939 55.0214 37.3747C55.7371 37.0581 56.7307 37.1353 56.9676 37.2151C57.207 37.2949 57.642 36.9371 57.5236 36.4995C57.4052 36.0618 56.6097 35.825 55.8143 35.9048C55.0189 35.9846 54.3058 36.2214 54.105 36.103C53.9068 35.9846 53.7086 33.8789 53.7086 33.8789C53.7086 33.8789 50.8872 34.1183 49.8962 34.1569C48.9051 34.1955 48.0299 34.1955 48.0299 34.1955V34.1981Z" fill="#FFBE9D" stroke="#263238" stroke-width="0.75" stroke-miterlimit="10"/>
<path d="M52.3986 32.6488C52.3986 32.6488 52.4372 35.2694 52.4372 35.5088C52.4372 35.7482 52.6766 35.9464 52.8749 35.9052C53.0731 35.8666 53.5905 36.0648 53.7089 35.4676C53.8273 34.873 54.0667 33.2023 53.9483 32.8059C53.8299 32.4094 52.7565 32.2498 52.3986 32.6463V32.6488Z" fill="#FFBE9D" stroke="#263238" stroke-width="0.75" stroke-miterlimit="10"/>
<path d="M52.3974 32.6485C52.3974 32.6485 51.1258 32.3319 50.7679 32.5301C50.4101 32.7283 50.9661 35.5497 51.0073 35.7865C51.0485 36.0233 51.602 36.1443 51.8414 36.0645C52.0808 35.9847 52.436 35.8251 52.436 35.5085C52.436 35.1918 52.3974 32.6485 52.3974 32.6485Z" fill="#FFBE9D" stroke="#263238" stroke-width="0.75" stroke-miterlimit="10"/>
<path d="M50.4921 32.6101C50.4921 32.6101 49.6581 32.4505 49.4187 32.7285C49.1793 33.0065 49.102 33.4029 49.1793 34.1186C49.2591 34.8342 49.6555 35.9051 49.8151 36.1445C49.9747 36.3839 50.4895 36.4225 50.8087 36.3041C51.1254 36.1857 51.007 35.7867 51.007 35.7867C51.007 35.7867 50.8474 35.6271 50.8087 34.3966C50.7701 33.1661 50.7701 32.5303 50.7701 32.5303L50.4921 32.6101Z" fill="#FFBE9D" stroke="#263238" stroke-width="0.75" stroke-miterlimit="10"/>
<path d="M49.1011 33.0866C48.9415 33.1252 47.9478 33.1664 47.9092 33.5628C47.8706 33.9592 48.2258 35.8281 48.3854 36.0263C48.545 36.2245 48.9801 36.1447 49.1397 36.0649C49.2993 35.9851 49.5773 35.8667 49.5361 35.6273C49.4975 35.3879 49.0985 33.084 49.0985 33.084L49.1011 33.0866Z" fill="#FFBE9D" stroke="#263238" stroke-width="0.75" stroke-miterlimit="10"/>
<path d="M49.4199 40.9509C48.7146 40.8788 48.3233 40.3305 48.1251 39.916C47.5794 41.131 46.8843 42.6679 46.838 42.7374C46.7582 42.8558 44.8121 46.5112 44.4954 46.9488C44.1788 47.3864 43.422 48.7765 43.9008 49.6492C44.377 50.5218 45.1313 52.3109 46.1249 52.3495C47.1186 52.3881 48.5087 51.7935 49.4611 51.2374C50.4136 50.6814 50.7328 50.3236 50.8126 48.7353C50.8924 47.147 50.8512 44.287 51.1292 42.776C51.2656 42.0346 51.3841 41.2778 51.4896 40.6239C50.8744 40.817 50.0532 41.0126 49.4199 40.9483V40.9509Z" fill="#FEF2CA" stroke="#263238" stroke-width="0.75" stroke-miterlimit="10"/>
<path d="M51.2472 36.582C51.2472 36.582 50.5727 37.1767 50.4929 37.6941C50.4131 38.2115 50.6912 38.6466 50.6912 38.6466" fill="#FFBE9D"/>
<path d="M51.2472 36.582C51.2472 36.582 50.5727 37.1767 50.4929 37.6941C50.4131 38.2115 50.6912 38.6466 50.6912 38.6466" stroke="#263238" stroke-width="0.75" stroke-miterlimit="10"/>
</g>
<defs>
<clipPath id="clip0_134_12507">
<rect width="120" height="118.152" fill="white"/>
</clipPath>
</defs>
</svg>
