<svg width="120" height="120" viewBox="0 0 120 120" fill="none" xmlns="http://www.w3.org/2000/svg">
<path d="M10.6398 78.6644C8.35865 63.8369 6.07752 49.0098 3.7964 34.1823C3.29052 30.8954 7.0304 28.6536 9.69065 30.649C16.7976 35.9793 23.9043 41.3091 31.0113 46.6394C33.3513 48.3944 36.685 47.8233 38.3073 45.3895L56.0571 18.7645C57.9329 15.9509 62.0669 15.9509 63.9426 18.7645L81.6925 45.3895C83.3148 47.8233 86.6485 48.394 88.9885 46.6394C96.0955 41.3091 103.202 35.9793 110.309 30.649C112.969 28.6536 116.709 30.8954 116.204 34.1823C113.923 49.0098 111.642 63.8369 109.36 78.6644H10.6398Z" fill="#272828"/>
<path d="M104.214 103.345H15.7875C12.945 103.345 10.6406 101.04 10.6406 98.1978V86.8916H109.361V98.1978C109.361 101.04 107.057 103.345 104.214 103.345Z" fill="#272828"/>
</svg>
