<svg width="120" height="116" viewBox="0 0 120 116" fill="none" xmlns="http://www.w3.org/2000/svg">
<g clip-path="url(#clip0_134_12265)">
<path d="M109.672 19.347C108.978 16.9634 106.795 15.1537 104.364 14.6442C101.932 14.1348 99.3337 14.8346 97.3067 16.2663C96.4193 16.8937 95.5747 17.6793 94.5049 17.8804C93.6443 18.0412 92.7595 17.7973 91.8828 17.8348C89.5985 17.934 87.7833 19.9958 87.2042 22.2051C86.6251 24.417 87.0031 26.7523 87.3865 29.0071L91.4377 29.5836C90.7782 28.7256 91.3332 27.3824 92.2662 26.8381C93.1992 26.2938 94.3494 26.3179 95.4299 26.3582C97.5373 26.4386 99.6447 26.5163 101.752 26.5968C103.615 26.6665 105.589 26.7121 107.211 25.7951C109.372 24.5752 110.367 21.7278 109.672 19.3443V19.347Z" fill="#EBEBEB"/>
<path d="M113.4 9.93924C112.843 9.14026 111.443 8.58794 110.483 9.36279C109.797 10.0545 109.692 11.2557 110.277 12.0359C110.861 12.8161 112.073 13.0467 112.886 12.5105C113.698 11.9742 113.955 10.7382 113.4 9.93924Z" fill="#EBEBEB"/>
<path d="M100.596 94.4862C96.0085 91.4431 94.8422 85.6169 94.8931 80.3512C94.9011 79.4718 94.7832 78.5494 95.1827 77.7692C95.5822 76.989 96.5447 76.4394 97.3383 76.7906C97.9979 77.0829 98.3008 77.8336 98.6816 78.4529C99.1883 79.276 99.9256 79.949 100.789 80.3699C101.355 80.6461 102.052 80.807 102.596 80.4906C103.344 80.0536 103.408 79.0052 103.382 78.1339C103.331 76.5064 103.282 74.879 103.234 73.2515C103.207 72.3774 103.183 71.4873 103.435 70.6508C103.687 69.8143 104.269 69.0314 105.092 68.7793C105.918 68.5273 106.956 68.9804 107.151 69.8304C107.232 70.1843 107.17 70.5543 107.202 70.9162C107.234 71.2782 107.414 71.675 107.76 71.7688C108.111 71.8627 108.454 71.608 108.709 71.3452C109.588 70.4417 110.173 69.2914 110.717 68.1466C111.261 67.0044 111.787 65.8328 112.583 64.8515C113.377 63.8702 114.49 63.0792 115.739 62.98C116.988 62.8781 118.34 63.6181 118.686 64.8381C119.031 66.0607 118.345 67.3288 117.586 68.3423C116.463 69.8491 115.122 71.1897 113.621 72.3104C113.35 72.5115 113.058 72.7314 112.959 73.0558C112.782 73.6429 113.347 74.2087 113.929 74.3856C114.586 74.5867 115.291 74.5009 115.972 74.5653C116.656 74.6296 117.401 74.9111 117.672 75.5492C118.05 76.434 117.326 77.3858 116.608 78.0186C115.168 79.2814 113.511 80.2922 111.736 80.992C111.101 81.2413 110.428 81.4638 109.921 81.9277C109.414 82.3915 109.119 83.1851 109.449 83.7911C109.776 84.3997 110.586 84.5767 111.256 84.4346C111.926 84.2925 112.519 83.9144 113.154 83.657C114.342 83.1744 115.895 83.22 116.688 84.2388C117.211 84.9091 117.278 85.8556 117.042 86.676C116.806 87.4937 116.305 88.2069 115.771 88.8665C113.902 91.1696 111.484 93.0464 108.722 94.0786C105.961 95.1109 103.39 95.4353 100.599 94.4888" fill="#EBEBEB"/>
<path d="M101.875 91.1565C102.586 88.4834 103.607 85.6172 104.776 82.6573C105.071 81.9173 105.363 81.188 105.65 80.4694C105.94 79.7509 106.227 79.0404 106.548 78.3621C107.189 77 107.908 75.7426 108.629 74.5682C109.35 73.3939 110.077 72.3054 110.763 71.2919C111.452 70.2811 112.112 69.3481 112.75 68.5249C114.021 66.8734 115.2 65.6642 116.045 64.8679C116.466 64.4684 116.804 64.1681 117.034 63.9697C117.147 63.8758 117.233 63.8008 117.3 63.7445C117.359 63.6935 117.391 63.6694 117.393 63.6721C117.393 63.6721 117.367 63.7043 117.31 63.7579C117.246 63.8169 117.163 63.8946 117.056 63.9965C116.833 64.2029 116.501 64.5113 116.088 64.9161C115.259 65.7258 114.096 66.9404 112.838 68.5973C112.208 69.4231 111.554 70.3562 110.873 71.3696C110.192 72.3858 109.471 73.4743 108.755 74.6487C108.039 75.823 107.326 77.0778 106.69 78.4318C106.369 79.1074 106.087 79.8126 105.798 80.5338C105.511 81.2523 105.218 81.9843 104.923 82.7216C103.754 85.6789 102.73 88.537 102.014 91.1994" fill="#E0E0E0"/>
<path d="M106.596 78.3515C106.596 78.3515 106.553 78.2228 106.502 77.9815C106.451 77.7402 106.387 77.3917 106.315 76.9573C106.17 76.0913 106.012 74.8875 105.84 73.5603C105.671 72.2331 105.494 71.0347 105.339 70.1713C105.261 69.7397 105.194 69.3911 105.146 69.1525C105.097 68.9112 105.076 68.7771 105.087 68.7745C105.097 68.7718 105.14 68.9005 105.205 69.1391C105.272 69.375 105.355 69.7209 105.449 70.1499C105.636 71.0078 105.829 72.209 105.998 73.5388C106.162 74.8499 106.312 76.035 106.425 76.9412C106.478 77.3514 106.524 77.6946 106.561 77.9708C106.593 78.2148 106.604 78.3488 106.593 78.3515H106.596Z" fill="#E0E0E0"/>
<path d="M117.771 75.981C117.771 75.981 117.613 76.0159 117.324 76.0454C117.037 76.0775 116.621 76.1231 116.106 76.1955C115.079 76.3322 113.672 76.5682 112.125 76.898C110.58 77.2304 109.197 77.5924 108.202 77.8819C107.704 78.024 107.304 78.1474 107.028 78.2332C106.752 78.319 106.596 78.3619 106.594 78.3511C106.591 78.3404 106.738 78.2787 107.009 78.1742C107.28 78.0696 107.677 77.9275 108.173 77.772C109.162 77.453 110.546 77.0749 112.095 76.7398C113.645 76.41 115.063 76.1875 116.096 76.0829C116.61 76.0266 117.031 75.9971 117.321 75.9837C117.61 75.973 117.771 75.9703 117.771 75.9837V75.981Z" fill="#E0E0E0"/>
<path d="M102.006 90.9471C102.006 90.9471 101.974 90.9042 101.926 90.8131C101.872 90.7032 101.805 90.5718 101.725 90.4109C101.551 90.0624 101.312 89.5503 101.028 88.9122C100.454 87.6386 99.7194 85.8556 98.9338 83.877C98.1483 81.8983 97.4297 80.11 96.8855 78.8257C96.6173 78.201 96.3975 77.6889 96.2339 77.3082C96.1642 77.1419 96.1052 77.0052 96.0597 76.8953C96.0221 76.7987 96.0034 76.7478 96.0087 76.7451C96.0141 76.7451 96.0409 76.7907 96.0892 76.8792C96.1428 76.9864 96.2098 77.1205 96.2902 77.2813C96.4645 77.6299 96.7031 78.142 96.9873 78.7801C97.5611 80.0536 98.2957 81.8366 99.0813 83.8153C99.8669 85.794 100.585 87.5823 101.13 88.8666C101.398 89.4913 101.618 90.0034 101.781 90.3841C101.851 90.5503 101.91 90.6871 101.955 90.7997C101.993 90.8962 102.012 90.9471 102.006 90.9498V90.9471Z" fill="#E0E0E0"/>
<path d="M116.808 85.7754C116.808 85.7754 116.76 85.8022 116.661 85.8397C116.546 85.8826 116.404 85.9336 116.232 85.9952C115.835 86.1347 115.299 86.3223 114.647 86.5529C113.31 87.0221 111.468 87.6924 109.435 88.4378C107.4 89.1831 105.553 89.8373 104.204 90.2797C103.531 90.5022 102.982 90.6738 102.601 90.7864C102.424 90.8374 102.279 90.8776 102.161 90.9125C102.059 90.9393 102.006 90.95 102.006 90.9446C102.006 90.9393 102.054 90.9178 102.153 90.8803C102.269 90.8374 102.411 90.7864 102.582 90.7248C102.979 90.5854 103.515 90.3977 104.167 90.1671C105.505 89.6979 107.347 89.0276 109.379 88.2823C111.411 87.5396 113.261 86.8854 114.61 86.443C115.283 86.2205 115.833 86.0489 116.213 85.9363C116.39 85.8853 116.535 85.8424 116.653 85.8102C116.755 85.7834 116.808 85.7727 116.808 85.7781V85.7754Z" fill="#E0E0E0"/>
<path d="M2.93657 65.7844C2.93657 65.7844 0.965931 66.7416 3.59077 70.8839C6.21561 75.0263 7.95568 77.0372 7.95568 77.0372C7.95568 77.0372 8.44365 78.0104 7.60713 78.2464C6.77061 78.4823 4.87236 78.359 4.59084 79.4341C4.29859 80.5495 5.17801 81.4932 6.85104 82.2386C8.52408 82.9839 12.1275 84.7481 12.452 84.909C12.771 85.0672 13.1169 85.5096 12.5753 85.7616C12.031 86.0136 7.86184 86.8475 8.37662 88.802C8.88872 90.7566 13.8891 92.065 14.4333 92.2178C14.9776 92.3706 15.1224 92.5824 15.1063 92.8747C15.0902 93.1669 13.6638 93.3144 12.4868 93.5986C11.3098 93.8828 9.99603 94.4217 10.3875 95.5236C10.7789 96.6256 13.8649 98.733 20.8815 98.7652L24.1337 98.5667L25.6432 95.6631C28.4932 89.2498 27.839 85.5712 26.9945 84.7615C26.1499 83.9518 25.1204 84.9304 24.3777 85.8849C23.635 86.8394 22.9138 88.0808 22.6403 87.9762C22.3668 87.8717 22.2355 87.6518 22.3186 87.0914C22.4017 86.5338 23.2597 81.4369 21.6885 80.1661C20.1173 78.8952 17.6453 82.3566 17.1922 82.748C16.7391 83.1394 16.479 82.6434 16.4656 82.2868C16.4522 81.9249 16.3208 77.9139 16.3289 76.0827C16.3369 74.2514 15.8356 73.0637 14.6988 72.8707C13.6022 72.6857 12.9346 74.4686 12.3769 75.1335C11.8192 75.7985 11.1302 74.9539 11.1302 74.9539C11.1302 74.9539 10.0094 72.5436 7.30952 68.4495C4.60961 64.3553 2.89367 65.8032 2.89367 65.8032" fill="#EBEBEB"/>
<path d="M24.371 99.317C22.4004 96.3007 18.9846 90.8848 16.03 86.2491C13.0753 81.6134 10.3969 77.4201 8.44232 74.3958C7.4637 72.8863 6.67276 71.6637 6.12313 70.8164C5.85233 70.3955 5.64052 70.0684 5.49306 69.8432C5.42335 69.7333 5.36973 69.6501 5.33219 69.5885C5.29734 69.5295 5.28125 69.5 5.28125 69.5C5.28125 69.5 5.3027 69.5268 5.34292 69.5831C5.38313 69.6421 5.43944 69.7252 5.51183 69.8325C5.66197 70.055 5.87914 70.3794 6.15798 70.795C6.71834 71.6315 7.52001 72.8487 8.50399 74.3582C10.4746 77.3745 13.1638 81.5598 16.1184 86.1955C19.0731 90.8312 22.4781 96.2551 24.4327 99.2795" fill="#E0E0E0"/>
<path d="M7.24292 79.7156C7.24292 79.7156 7.32603 79.7236 7.47617 79.7585C7.62364 79.7906 7.83545 79.8443 8.0982 79.914C8.62102 80.0534 9.33957 80.2625 10.1278 80.5065C10.9054 80.7505 11.6078 80.973 12.144 81.1419C12.3854 81.217 12.5918 81.2787 12.7553 81.3296C12.9001 81.3725 12.9806 81.402 12.9779 81.4074C12.9779 81.4154 12.8948 81.3993 12.7446 81.3672C12.5972 81.335 12.3854 81.2814 12.1226 81.209C11.5998 81.0642 10.8839 80.847 10.0957 80.6003C9.31812 80.3617 8.61298 80.1446 8.07675 79.9783C7.83277 79.9059 7.629 79.8416 7.46277 79.7933C7.31799 79.7477 7.24023 79.7209 7.24023 79.7129L7.24292 79.7156Z" fill="#E0E0E0"/>
<path d="M13.1772 81.1793C13.1503 81.1712 13.5177 79.6725 13.9976 77.8305C14.4775 75.9859 14.8877 74.4978 14.9145 74.5059C14.9414 74.5139 14.574 76.0127 14.0941 77.8546C13.6142 79.6966 13.204 81.1846 13.1772 81.1793Z" fill="#E0E0E0"/>
<path d="M17.3933 88.5042C17.3933 88.5042 17.4282 88.4238 17.5059 88.2924C17.5971 88.1423 17.707 87.9546 17.8411 87.732C18.1226 87.2575 18.5113 86.6006 18.9108 85.8606C19.313 85.1206 19.6535 84.4396 19.8975 83.9436C20.0128 83.7103 20.1093 83.5146 20.1844 83.3564C20.2541 83.217 20.2943 83.1419 20.2997 83.1446C20.305 83.1473 20.2782 83.2277 20.2192 83.3725C20.1602 83.5146 20.0745 83.7211 19.9592 83.9731C19.7339 84.4771 19.4015 85.1662 18.9966 85.9089C18.5945 86.6515 18.1977 87.3057 17.9 87.7696C17.7499 88.0028 17.6266 88.1878 17.5381 88.3139C17.4496 88.4399 17.3987 88.5096 17.3906 88.5042H17.3933Z" fill="#E0E0E0"/>
<path d="M11.7344 88.3601C11.7344 88.3601 11.8148 88.3467 11.9569 88.344C12.1205 88.344 12.3242 88.3386 12.5628 88.3359C13.0723 88.3332 13.7774 88.3359 14.5576 88.3467C15.3378 88.3574 16.043 88.3708 16.5524 88.3869C16.791 88.3949 16.9921 88.403 17.1557 88.411C17.2978 88.419 17.3782 88.4271 17.3782 88.4324C17.3782 88.4405 17.3004 88.4459 17.1557 88.4485C16.9921 88.4485 16.7883 88.4539 16.5497 88.4566C16.0403 88.4593 15.3352 88.4566 14.5549 88.4459C13.7774 88.4351 13.0723 88.4217 12.5602 88.4056C12.3215 88.3976 12.1205 88.3896 11.9569 88.3815C11.8148 88.3735 11.7344 88.3654 11.7344 88.3601Z" fill="#E0E0E0"/>
<path d="M14.6348 95.2951C14.6348 95.2951 14.7366 95.2817 14.919 95.2764C15.1201 95.2737 15.3801 95.2683 15.6938 95.263C16.348 95.2549 17.2516 95.2522 18.2489 95.2549C19.2463 95.2576 20.1526 95.2656 20.8068 95.279C21.1205 95.2871 21.3805 95.2924 21.5816 95.2978C21.7639 95.3032 21.8658 95.3112 21.8658 95.3193C21.8658 95.3273 21.7639 95.3327 21.5816 95.338C21.3805 95.3407 21.1205 95.3461 20.8068 95.3514C20.1526 95.3595 19.249 95.3622 18.2489 95.3595C17.2516 95.3568 16.348 95.3487 15.6938 95.3353C15.3801 95.3273 15.1201 95.3219 14.919 95.3166C14.7366 95.3112 14.6348 95.3032 14.6348 95.2951Z" fill="#E0E0E0"/>
<path d="M21.6914 95.2685C21.6914 95.2685 21.7343 95.1666 21.8281 94.995C21.93 94.8074 22.0668 94.5634 22.2276 94.2684C22.5628 93.6545 23.0266 92.8045 23.5092 91.85C23.9945 90.8982 24.4101 90.0242 24.705 89.3888C24.8471 89.0831 24.9651 88.8311 25.0562 88.638C25.1394 88.4611 25.1903 88.3646 25.1957 88.3672C25.201 88.3699 25.1662 88.4718 25.0911 88.6541C25.0187 88.8364 24.9088 89.0992 24.7694 89.4183C24.4905 90.0617 24.083 90.9411 23.5977 91.8956C23.1151 92.8501 22.6432 93.6974 22.2893 94.3033C22.1123 94.6063 21.9676 94.8503 21.863 95.0165C21.7584 95.1827 21.6994 95.2739 21.6914 95.2685Z" fill="#E0E0E0"/>
<path d="M36.9027 50.4758C35.8705 50.0683 34.7364 49.1755 34.1653 48.221C33.8436 47.6847 33.6157 47.0547 33.7149 46.438C33.8141 45.8187 34.3154 45.2395 34.9401 45.21C35.3691 45.1913 35.7767 45.4245 36.0662 45.7382C36.3558 46.0519 36.5488 46.4434 36.7365 46.8295C36.8143 46.2021 37.1869 45.5908 37.7661 45.3361C38.3452 45.0813 39.0852 45.2798 39.4337 45.8079C39.793 46.3495 39.6831 47.1431 39.3721 47.6311C39.0611 48.1191 38.5999 48.5561 38.1897 48.9663C37.6481 49.5106 36.9027 49.9423 36.9027 50.4758Z" fill="#EBEBEB"/>
<path d="M113.399 43.1611C112.683 42.8795 111.9 42.2602 111.503 41.6006C111.281 41.2306 111.123 40.7936 111.192 40.3673C111.262 39.9383 111.608 39.5361 112.04 39.5174C112.337 39.504 112.619 39.6648 112.82 39.882C113.021 40.0992 113.155 40.37 113.284 40.6381C113.337 40.2038 113.595 39.7801 113.997 39.6059C114.399 39.4316 114.908 39.5683 115.152 39.933C115.402 40.3083 115.324 40.858 115.11 41.1958C114.895 41.5336 114.576 41.8366 114.292 42.1208C113.916 42.4961 113.399 42.7964 113.399 43.1664" fill="#F5F5F5"/>
<path d="M66 36.3302C65.3566 36.0755 64.6487 35.5178 64.2922 34.9252C64.0911 34.5901 63.949 34.1987 64.0106 33.8126C64.0723 33.4265 64.386 33.0645 64.7748 33.0458C65.0429 33.0324 65.2976 33.1798 65.4772 33.3755C65.6595 33.5713 65.7775 33.8153 65.8955 34.0566C65.9437 33.6651 66.177 33.2844 66.5363 33.1262C66.8955 32.968 67.3594 33.0913 67.5766 33.4211C67.8018 33.759 67.7321 34.255 67.539 34.5579C67.346 34.8636 67.0564 35.1344 66.8017 35.3918C66.4639 35.7296 65.9974 36.0004 65.9974 36.3328" fill="#EBEBEB"/>
<path d="M7.60682 42.3563C6.45125 41.9005 5.18575 40.9031 4.54763 39.8387C4.18568 39.2382 3.93365 38.5357 4.04358 37.8466C4.1535 37.1549 4.71386 36.5061 5.41364 36.4739C5.89089 36.4524 6.34936 36.7125 6.67378 37.0637C6.9982 37.415 7.21269 37.852 7.4245 38.2837C7.51298 37.5839 7.92856 36.9002 8.57471 36.616C9.22087 36.3318 10.0467 36.5543 10.4381 37.1415C10.8403 37.7474 10.7143 38.6322 10.3684 39.1792C10.0225 39.7261 9.50507 40.2114 9.04928 40.6699C8.44334 41.2785 7.6095 41.7611 7.6095 42.3563" fill="#F5F5F5"/>
<path d="M88.7655 53.8967C87.7788 53.5079 86.6983 52.6553 86.1514 51.7464C85.843 51.2343 85.6259 50.6337 85.7224 50.0439C85.8162 49.454 86.2961 48.899 86.8914 48.8722C87.2989 48.8534 87.6903 49.076 87.9665 49.3763C88.2453 49.6765 88.4277 50.0492 88.6073 50.4165C88.6824 49.8186 89.0363 49.2342 89.5886 48.9902C90.1409 48.7462 90.846 48.9365 91.1812 49.4406C91.5244 49.9581 91.4171 50.7141 91.1222 51.1807C90.8273 51.6472 90.3849 52.0628 89.9934 52.4542C89.476 52.9717 88.7628 53.3872 88.7628 53.894" fill="#EBEBEB"/>
<path d="M9.61136 20.5488L9.87947 21.0395C10.1798 21.5891 10.6329 22.0422 11.1852 22.3452L11.6758 22.6133L11.1852 22.8814C10.6356 23.1817 10.1824 23.6348 9.87947 24.1871L9.61136 24.6778L9.34324 24.1871C9.04295 23.6375 8.58984 23.1844 8.03752 22.8814L7.54688 22.6133L8.03752 22.3452C8.58716 22.0449 9.04027 21.5918 9.34324 21.0395L9.61136 20.5488Z" fill="#EBEBEB"/>
<path d="M91.545 3.44238L91.8131 3.93303C92.1134 4.48267 92.5665 4.93578 93.1188 5.23875L93.6094 5.50686L93.1188 5.77498C92.5691 6.07527 92.116 6.52838 91.8131 7.0807L91.545 7.57134L91.2768 7.0807C90.9766 6.53106 90.5234 6.07795 89.9711 5.77498L89.4805 5.50686L89.9711 5.23875C90.5208 4.93846 90.9739 4.48535 91.2768 3.93303L91.545 3.44238Z" fill="#EBEBEB"/>
<path d="M22.6235 23.6426L23.0123 24.3531C23.4493 25.1494 24.1035 25.8063 24.8998 26.2406L25.6103 26.6294L24.8998 27.0181C24.1035 27.4552 23.4466 28.1094 23.0123 28.9057L22.6235 29.6162L22.2347 28.9057C21.7977 28.1094 21.1435 27.4525 20.3472 27.0181L19.6367 26.6294L20.3472 26.2406C21.1435 25.8036 21.8004 25.1494 22.2347 24.3531L22.6235 23.6426Z" fill="#EBEBEB"/>
<path d="M20.5956 7.34375L20.743 7.61186C20.9066 7.91215 21.1559 8.1615 21.4562 8.32505L21.7243 8.47251L21.4562 8.61998C21.1559 8.78352 20.9066 9.03287 20.743 9.33316L20.5956 9.60127L20.4481 9.33316C20.2845 9.03287 20.0352 8.78352 19.7349 8.61998L19.4668 8.47251L19.7349 8.32505C20.0352 8.1615 20.2845 7.91215 20.4481 7.61186L20.5956 7.34375Z" fill="#F5F5F5"/>
<path d="M98.3983 0L98.5458 0.268114C98.7093 0.568403 98.9586 0.817749 99.2589 0.981299L99.5271 1.12876L99.2589 1.27622C98.9586 1.43977 98.7093 1.68912 98.5458 1.98941L98.3983 2.25752L98.2508 1.98941C98.0873 1.68912 97.8379 1.43977 97.5376 1.27622L97.2695 1.12876L97.5376 0.981299C97.8379 0.817749 98.0873 0.568403 98.2508 0.268114L98.3983 0Z" fill="#F5F5F5"/>
<path d="M120.001 99.6771C120.001 99.7147 93.1361 99.7468 60.0052 99.7468C26.8743 99.7468 0.00390625 99.7147 0.00390625 99.6771C0.00390625 99.6396 26.8636 99.6074 60.0052 99.6074C93.1469 99.6074 120.001 99.6396 120.001 99.6771Z" fill="#263238"/>
<path d="M84.6484 36.6329V28.5117H94.8904V45.6416L84.6484 36.6329Z" fill="#FEF2CA"/>
<path d="M95.627 28.0312H83.6289V31.5623H95.627V28.0312Z" fill="#FEF2CA"/>
<path d="M95.6063 31.5619C95.6063 31.5994 92.9306 31.6316 89.6274 31.6316C86.3242 31.6316 83.6484 31.5994 83.6484 31.5619C83.6484 31.5244 86.3242 31.4922 89.6274 31.4922C92.9306 31.4922 95.6063 31.5244 95.6063 31.5619Z" fill="#263238"/>
<path d="M11.2734 54.2024L57.7591 14.374L111.176 54.3553L106.701 58.1947L57.9119 22.6373L15.9735 58.1464L11.2734 54.2024Z" fill="#FEF2CA"/>
<g opacity="0.3">
<path d="M57.9106 22.6373L57.7578 14.374L111.174 54.3553L106.699 58.1947L57.9106 22.6373Z" fill="black"/>
</g>
<path d="M57.9128 22.6376C57.9128 22.6376 57.894 22.5223 57.8833 22.3131C57.8752 22.0745 57.8645 21.7796 57.8538 21.4284C57.8297 20.6508 57.8002 19.6347 57.7653 18.5086C57.7331 17.3691 57.7144 16.3342 57.7171 15.5861C57.7171 15.2108 57.7224 14.9105 57.7305 14.7014C57.7385 14.4922 57.7465 14.377 57.7573 14.377C57.768 14.377 57.776 14.4922 57.7868 14.7014C57.7948 14.94 57.8055 15.2349 57.8163 15.5861C57.8404 16.3637 57.8699 17.3825 57.9047 18.5059C57.9369 19.6454 57.9557 20.6803 57.953 21.4284C57.953 21.8037 57.9476 22.104 57.9396 22.3131C57.9315 22.5223 57.9235 22.6376 57.9128 22.6376Z" fill="#263238"/>
<path d="M45.9063 41.6729C45.4988 40.7827 45.0886 39.8819 44.8875 38.922C44.6891 37.9622 44.7159 36.9246 45.1583 36.0505C45.4157 35.5384 45.8071 35.096 46.0162 34.5625C46.3031 33.8279 46.2361 32.9431 46.7241 32.3237C47.4855 31.3558 49.0218 31.6534 50.1586 31.1762C51.0434 30.8062 51.6869 29.9509 52.6145 29.6962C53.4242 29.4737 54.2822 29.7552 55.041 30.1172C55.7971 30.4791 56.5317 30.9295 57.3575 31.0743C57.9473 31.1762 58.5506 31.1145 59.1485 31.1548C59.7464 31.1923 60.3738 31.3505 60.7759 31.7929C61.1781 32.2353 61.2344 33.0235 60.7625 33.3908C61.8162 33.2568 62.7573 34.34 62.6983 35.4017C62.6393 36.4607 61.8028 37.3616 60.8215 37.7611C59.8402 38.1606 58.7383 38.1445 57.6846 38.0185C54.7032 37.6619 51.7432 36.3991 49.7967 34.1094" fill="#263238"/>
<path d="M46.7079 37.956L44.0536 52.6862C43.6031 55.1903 44.3699 59.1155 47.1851 59.4507C50.1934 59.7831 52.3034 58.9091 52.7244 56.5711C52.9228 55.4611 53.1855 52.2277 53.215 52.1151C53.215 52.1151 57.0276 52.4368 57.9687 48.7744C58.4218 47.0048 59.0599 43.2834 59.5988 39.9078C60.178 36.2856 57.8722 32.8269 54.3063 31.9582L53.9523 31.8724C50.0754 31.1646 47.3112 34.0629 46.7106 37.9586L46.7079 37.956Z" fill="#FFBE9D"/>
<path d="M53.2132 52.1125C53.2132 52.1125 50.8645 51.6835 48.7732 49.5332C48.7732 49.5332 49.355 52.6675 53.1033 53.2278L53.2132 52.1098V52.1125Z" fill="#EB996E"/>
<path d="M57.3722 42.4864C57.3159 42.7652 57.0317 42.9475 56.7367 42.8939C56.4445 42.8403 56.2541 42.5695 56.3104 42.288C56.3667 42.0091 56.6509 41.8268 56.9459 41.8804C57.2381 41.9341 57.4285 42.2049 57.3722 42.4864Z" fill="#263238"/>
<path d="M58.37 41.5162C58.2895 41.5698 57.9625 41.1783 57.3967 41.0416C56.8337 40.8968 56.3484 41.0872 56.3055 41.0041C56.2841 40.9665 56.3779 40.8593 56.5924 40.7708C56.8015 40.6823 57.1367 40.6287 57.4879 40.7172C57.8391 40.8057 58.1046 41.0068 58.2413 41.181C58.3834 41.3553 58.4102 41.4947 58.3727 41.5162H58.37Z" fill="#263238"/>
<path d="M52.0675 41.3367C52.0112 41.6156 51.727 41.7979 51.432 41.7416C51.1398 41.688 50.9494 41.4172 51.0057 41.1356C51.062 40.8568 51.3462 40.6745 51.6412 40.7281C51.9334 40.7817 52.1238 41.0525 52.0675 41.334V41.3367Z" fill="#263238"/>
<path d="M52.7919 40.272C52.7087 40.3257 52.3843 39.9342 51.8186 39.7975C51.2556 39.6527 50.7703 39.843 50.7274 39.7599C50.7059 39.7224 50.7998 39.6151 51.0143 39.5267C51.2234 39.4382 51.5585 39.3846 51.9098 39.473C52.261 39.5615 52.5264 39.7626 52.6632 39.9369C52.8026 40.1112 52.8321 40.2506 52.7945 40.272H52.7919Z" fill="#263238"/>
<path d="M53.8241 44.9558C53.8295 44.9237 54.1941 44.9478 54.7813 45.0148C54.9287 45.0363 55.0735 45.0389 55.1218 44.9478C55.1808 44.8513 55.1593 44.6824 55.1298 44.4974C55.0789 44.1166 55.0253 43.7145 54.9716 43.2962C54.7598 41.5883 54.6445 40.1995 54.7142 40.1914C54.784 40.1834 55.0119 41.5615 55.221 43.2667C55.2692 43.6877 55.3175 44.0871 55.3604 44.4705C55.3738 44.6475 55.4247 44.8566 55.2987 45.055C55.2344 45.1542 55.1084 45.2052 55.0092 45.2079C54.91 45.2132 54.8295 45.1945 54.7571 45.1811C54.178 45.0738 53.8214 44.988 53.8268 44.9558H53.8241Z" fill="#263238"/>
<path d="M52.0662 44.9423C52.1601 44.9584 52.0126 45.5724 52.4308 46.1354C52.8491 46.6985 53.5194 46.7896 53.5033 46.8754C53.5033 46.9156 53.329 46.9585 53.0502 46.8996C52.7767 46.8433 52.404 46.6609 52.1466 46.3151C51.8919 45.9692 51.841 45.5804 51.8812 45.3257C51.9214 45.063 52.026 44.9289 52.0662 44.9423Z" fill="#263238"/>
<path d="M53.4768 38.0948C53.383 38.2342 52.8387 38.0251 52.155 37.9446C51.474 37.8508 50.8949 37.9125 50.8386 37.7543C50.8145 37.6792 50.9432 37.5559 51.1952 37.462C51.4445 37.3655 51.8199 37.3065 52.2301 37.3602C52.6376 37.4138 52.9862 37.5639 53.2034 37.7221C53.4232 37.8803 53.5171 38.0304 53.4742 38.0975L53.4768 38.0948Z" fill="#263238"/>
<path d="M58.5599 39.832C58.4286 39.9366 58.072 39.7087 57.6055 39.588C57.1443 39.4513 56.7207 39.4647 56.6617 39.3065C56.6376 39.2314 56.7314 39.1188 56.9325 39.0384C57.1336 38.9579 57.4419 38.9284 57.761 39.0169C58.08 39.1054 58.3294 39.2904 58.4607 39.4593C58.5948 39.6309 58.6162 39.7757 58.5573 39.8293L58.5599 39.832Z" fill="#263238"/>
<path d="M46.3466 40.7497C46.2903 40.7068 44.0032 39.3877 43.4724 41.9187C42.9415 44.4497 45.5932 44.4604 45.6119 44.388C45.6307 44.3156 46.3466 40.747 46.3466 40.747V40.7497Z" fill="#FFBE9D"/>
<path d="M45.0376 43.2676C45.0376 43.2676 44.9866 43.2891 44.9062 43.3078C44.8257 43.3266 44.6971 43.3212 44.5764 43.2462C44.3297 43.0907 44.193 42.6215 44.2761 42.1603C44.319 41.9297 44.4128 41.7206 44.5308 41.5544C44.6461 41.3855 44.7936 41.2809 44.933 41.2863C45.0724 41.2836 45.1528 41.3828 45.1689 41.4605C45.1877 41.5383 45.1609 41.5865 45.1743 41.5919C45.1797 41.5999 45.2386 41.5597 45.2386 41.4525C45.2386 41.3989 45.2226 41.3345 45.1716 41.2728C45.1207 41.2112 45.0376 41.1656 44.941 41.1576C44.7426 41.1307 44.5308 41.2728 44.3994 41.4525C44.2573 41.6321 44.1447 41.8654 44.0992 42.1255C44.008 42.6375 44.1689 43.1711 44.5121 43.3534C44.681 43.4365 44.8392 43.4151 44.9303 43.3722C45.0215 43.3266 45.0456 43.273 45.0402 43.2649L45.0376 43.2676Z" fill="#EB996E"/>
<path d="M60.4732 36.4951C59.996 37.4201 57.7331 37.6882 56.1056 37.1225C54.6042 36.5997 54.0948 35.613 53.1617 34.7309C52.7685 34.3591 52.2403 34.125 51.5772 34.0285C50.7728 33.9105 50.0918 34.688 49.4591 35.1974C49.7138 37.2378 48.7298 39.2058 47.7753 41.0262C47.6708 41.2273 47.5501 41.4418 47.341 41.5357C46.9871 41.6912 46.5876 41.4043 46.3945 41.0718C46.0862 40.5383 46.0728 39.8841 46.1103 39.2674C46.1961 37.8625 46.5018 36.4603 47.1265 35.2001C47.7512 33.94 48.7057 32.8246 49.9229 32.1195C51.4458 31.2401 53.3253 31.0497 55.0278 31.4894C56.7304 31.9318 58.2479 32.9801 59.3606 34.3422C59.878 34.9749 60.3177 35.6935 60.4705 36.4951" fill="#263238"/>
<path d="M55.03 42.4428C55.0514 42.4428 55.0541 42.2229 55.1694 41.8556C55.2847 41.4937 55.5582 40.9708 56.1266 40.5821C56.6762 40.1933 57.561 40.0003 58.3948 40.3515C58.805 40.5204 59.1911 40.8207 59.4566 41.2256C59.73 41.625 59.8721 42.1291 59.856 42.6412C59.8292 43.1533 59.6469 43.6439 59.3386 44.0193C59.041 44.4 58.6308 44.6681 58.2071 44.8022C57.3465 45.0837 56.4805 44.8183 55.9657 44.3839C55.4322 43.9496 55.2043 43.4053 55.1185 43.0353C55.0327 42.6573 55.0488 42.4374 55.0273 42.4374C55.0193 42.4374 55.0139 42.4911 55.0085 42.5956C55.0005 42.7002 55.0085 42.8557 55.0407 43.0514C55.1051 43.4375 55.3196 44.0193 55.8745 44.4939C56.4081 44.9684 57.3331 45.2741 58.2661 44.9818C58.7246 44.8424 59.1724 44.5555 59.4968 44.1426C59.8319 43.7378 60.033 43.2016 60.0625 42.6466C60.0813 42.0889 59.9231 41.5419 59.6228 41.1076C59.3305 40.6706 58.9123 40.3461 58.4645 40.1692C57.5583 39.7992 56.6119 40.0271 56.0408 40.4561C55.4482 40.8824 55.1855 41.4454 55.0917 41.8261C55.0407 42.0192 55.0219 42.172 55.0219 42.2766C55.0193 42.3811 55.0219 42.4348 55.0273 42.4348L55.03 42.4428Z" fill="#263238"/>
<path d="M49.03 41.1371C49.0514 41.1371 49.0541 40.9173 49.1694 40.55C49.2847 40.188 49.5582 39.6652 50.1266 39.2764C50.6762 38.8877 51.561 38.6946 52.3948 39.0458C52.805 39.2148 53.1911 39.515 53.4566 39.9199C53.73 40.3194 53.8721 40.8234 53.856 41.3355C53.8292 41.8476 53.6469 42.3383 53.3386 42.7136C53.041 43.0944 52.6308 43.3625 52.2071 43.4965C51.3465 43.7781 50.4805 43.5126 49.9657 43.0783C49.4322 42.6439 49.2043 42.0997 49.1185 41.7297C49.0327 41.3516 49.0488 41.1318 49.0273 41.1318C49.0193 41.1318 49.0139 41.1854 49.0085 41.29C49.0005 41.3945 49.0085 41.55 49.0407 41.7457C49.1051 42.1318 49.3196 42.7136 49.8746 43.1882C50.4081 43.6628 51.3331 43.9684 52.2661 43.6762C52.7246 43.5368 53.1724 43.2499 53.4968 42.837C53.8319 42.4321 54.033 41.8959 54.0625 41.3409C54.0813 40.7832 53.9231 40.2363 53.6228 39.8019C53.3305 39.3649 52.9123 39.0405 52.4645 38.8635C51.5583 38.4935 50.6119 38.7214 50.0408 39.1504C49.4482 39.5767 49.1855 40.1397 49.0917 40.5205C49.0407 40.7135 49.0219 40.8663 49.0219 40.9709C49.0193 41.0755 49.0219 41.1291 49.0273 41.1291L49.03 41.1371Z" fill="#263238"/>
<path d="M54.0073 41.4294C54.0314 41.483 54.3612 41.3436 54.7339 41.475C55.1066 41.6037 55.2809 41.9147 55.3318 41.8879C55.3559 41.8772 55.3479 41.7807 55.2675 41.6493C55.1897 41.5179 55.0288 41.3597 54.8009 41.2793C54.573 41.1988 54.3478 41.2257 54.2057 41.2793C54.0609 41.3329 53.9939 41.4053 54.0073 41.4294Z" fill="#263238"/>
<path d="M45.6306 40.3409C45.6306 40.3972 46.4403 40.467 47.4431 40.4938C48.4458 40.5206 49.2582 40.4965 49.2609 40.4401C49.2609 40.3838 48.4512 40.3141 47.4485 40.2873C46.4457 40.2605 45.6333 40.2846 45.6306 40.3409Z" fill="#263238"/>
<path d="M18.0651 60.9238L23.0225 66.5489L29.1221 60.9238L34.0742 66.7071C34.0742 66.7071 28.484 72.5144 25.516 73.7853C22.7302 74.9811 21.4031 73.9086 20.4459 73.6673C19.5263 73.4367 14.416 64.3128 14.416 64.3128L18.0651 60.9238Z" fill="#FFBE9D"/>
<path d="M21.1679 54.4511C21.1679 54.4511 20.9078 54.8452 20.2027 56.092C19.4895 57.3521 19.5753 58.8267 19.1946 60.0038C18.7361 61.4167 18.2964 61.6848 18.2964 61.6848L14.4195 64.315C14.4195 64.315 12.5454 63.1595 11.9126 62.1058C11.2772 61.0521 10.2557 57.4299 10.2557 57.4299L8.49147 54.25C8.49147 54.25 8.46734 54.0757 8.52364 53.9712C8.83197 53.4055 9.63095 53.3733 9.98755 53.9095C9.98755 53.9095 10.5881 53.3786 11.607 53.9819C12.4462 54.4779 12.3604 55.1965 12.3604 55.1965C12.8564 55.4297 15.2265 59.1485 15.8164 58.1859C16.3392 57.336 16.8245 57.0143 16.8245 57.0143C18.6932 56.0249 18.3554 56.0196 19.1597 54.9659C19.9587 53.9202 20.991 53.6628 21.1706 54.4565L21.1679 54.4511Z" fill="#FFBE9D"/>
<path d="M11.0882 59.1158C11.0882 59.1158 11.0748 59.0622 11.064 58.9576C11.0533 58.837 11.0399 58.6869 11.0238 58.5019C10.9943 58.0863 10.9514 57.5152 10.9005 56.8208C10.8764 56.4642 10.8496 56.0754 10.8227 55.6598C10.8093 55.4507 10.7959 55.2335 10.7798 55.0137C10.7691 54.7938 10.7316 54.5552 10.812 54.3059C10.8522 54.1852 10.9354 54.0646 11.0533 53.9948C11.1713 53.9225 11.3107 53.8983 11.4448 53.9117C11.7102 53.9305 11.9703 54.0941 12.1151 54.3246C12.2652 54.5525 12.3376 54.8153 12.3966 55.0754C12.4529 55.3327 12.5119 55.5955 12.5682 55.8609C12.8711 57.2658 13.1553 58.5823 13.3993 59.703L13.335 59.6547C13.9356 59.6226 14.4852 59.7379 14.9329 59.9229C15.3861 60.1025 15.7373 60.3492 16 60.5744C16.2628 60.8023 16.4344 61.0168 16.5416 61.1669C16.5952 61.242 16.6301 61.3037 16.6569 61.3439C16.681 61.3841 16.6918 61.4082 16.6891 61.4082C16.6703 61.4243 16.48 61.065 15.9545 60.6253C15.689 60.4108 15.3432 60.1776 14.8981 60.0113C14.4584 59.8371 13.9221 59.7352 13.343 59.77H13.2921L13.2814 59.7218C13.0347 58.6011 12.7424 57.2873 12.4314 55.8824C12.3724 55.6169 12.3161 55.3542 12.2598 55.0968C12.2009 54.8421 12.1338 54.5927 11.9998 54.3917C11.8711 54.1852 11.6593 54.0592 11.434 54.0377C11.2061 54.0109 10.997 54.1343 10.9354 54.3434C10.8656 54.5472 10.8925 54.7777 10.9032 55.0003C10.9139 55.2228 10.9273 55.44 10.938 55.6491C10.9595 56.0647 10.9809 56.4535 10.9997 56.8127C11.0319 57.5098 11.0587 58.0809 11.0775 58.4965C11.0828 58.6842 11.0882 58.8343 11.0909 58.955C11.0909 59.0595 11.0909 59.1158 11.0855 59.1158H11.0882Z" fill="#EB996E"/>
<path d="M17.3532 56.7269C17.3639 56.7457 17.195 56.8449 16.9429 57.0272C16.6936 57.2095 16.3611 57.4884 16.0984 57.8771C15.8329 58.2632 15.7177 58.6815 15.6855 58.9845C15.6533 59.2901 15.6774 59.4858 15.6533 59.4885C15.6399 59.4912 15.5809 59.3008 15.5863 58.9764C15.5943 58.6574 15.7016 58.2042 15.9831 57.7967C16.2619 57.3892 16.6185 57.1103 16.8893 56.9441C17.1601 56.7779 17.3478 56.7108 17.3532 56.7269Z" fill="#EB996E"/>
<path d="M10.8912 55.8323C10.8563 55.8431 10.6606 55.3953 10.3764 54.8591C10.0975 54.3202 9.875 53.8805 9.90985 53.859C9.94203 53.8402 10.2209 54.2505 10.5024 54.7947C10.7866 55.3363 10.9314 55.8189 10.8912 55.8323Z" fill="#EB996E"/>
<path d="M25.9788 70.0504C25.9359 70.0719 25.5739 69.0906 24.7669 68.112C23.9706 67.1253 23.0832 66.5757 23.11 66.5381C23.118 66.5247 23.3513 66.6427 23.6891 66.892C24.0269 67.1387 24.4666 67.5275 24.8742 68.0262C25.279 68.5249 25.5739 69.0316 25.7482 69.4123C25.9252 69.793 25.9949 70.0451 25.9788 70.0504Z" fill="#EB996E"/>
<path d="M44.384 50.9099C44.384 50.9099 37.2066 52.8242 34.075 54.9531C32.5092 56.0175 27.1094 62.4093 27.1094 62.4093L32.5065 70.4099L38.086 64.935L44.3813 50.9072L44.384 50.9099Z" fill="#E0E0E0"/>
<path d="M34.9226 65.8088L36.7699 87.3223L41.1643 87.6253H62.584L62.5277 65.4898L61.5839 55.7519L53.334 52.6069C50.4009 55.457 45.7008 54.7384 44.3629 50.9473L34.9199 65.8062L34.9226 65.8088Z" fill="#E0E0E0"/>
<path d="M34.372 59.1055C34.4096 59.1028 34.6857 62.0547 34.986 65.6984C35.2863 69.3421 35.5008 72.2994 35.4606 72.3021C35.4204 72.3047 35.1469 69.3528 34.8466 65.7091C34.5463 62.0655 34.3318 59.1082 34.372 59.1055Z" fill="#263238"/>
<g opacity="0.3">
<path d="M43.792 83.3842L43.3281 83.5585C46.8002 83.3762 50.1543 81.5611 52.2054 78.7539C49.5243 80.5181 46.8083 82.2984 43.7893 83.3869L43.792 83.3842Z" fill="black"/>
</g>
<path d="M52.4723 71.9922C52.4723 71.9922 52.4589 72.0404 52.4187 72.1236C52.3704 72.2201 52.3141 72.3407 52.2417 72.4855C52.1667 72.6437 52.0675 72.8341 51.9441 73.0512C51.8208 73.2684 51.6894 73.5178 51.5178 73.7832C51.1934 74.3194 50.7698 74.9361 50.2657 75.5956C49.7536 76.2472 49.1558 76.9389 48.4801 77.6172C47.7964 78.2902 47.102 78.8827 46.4451 79.3895C45.7829 79.8882 45.1635 80.3064 44.6246 80.6282C44.3592 80.7971 44.1072 80.9258 43.89 81.0491C43.6728 81.1724 43.4824 81.2689 43.3243 81.344C43.1768 81.4137 43.0588 81.47 42.9596 81.5183C42.8765 81.5558 42.8309 81.5746 42.8283 81.5692C42.8256 81.5639 42.8658 81.5397 42.9462 81.4915C43.0401 81.4379 43.1554 81.3735 43.2975 81.2958C43.4503 81.2126 43.638 81.1108 43.8498 80.9821C44.0616 80.8534 44.3109 80.7193 44.571 80.545C45.1019 80.2153 45.7105 79.7916 46.3647 79.2903C47.0135 78.7808 47.7026 78.1883 48.3782 77.5207C49.0512 76.8477 49.6464 76.164 50.1612 75.5206C50.6679 74.8691 51.0969 74.2631 51.4294 73.7349C51.6036 73.4749 51.7431 73.2309 51.8717 73.0191C52.0031 72.8073 52.105 72.6223 52.1908 72.4667C52.2712 72.3273 52.3356 72.2094 52.3892 72.1155C52.4348 72.0351 52.4616 71.9949 52.467 71.9975L52.4723 71.9922Z" fill="#263238"/>
<path d="M20.6207 100.474L22.3152 108.195C22.3152 108.195 14.942 111.943 15.1163 113.402L30.2996 111.222L28.152 99.082L20.6207 100.474Z" fill="#455A64"/>
<g opacity="0.6">
<path d="M26.8638 106.691C27.1695 106.718 27.4322 107.01 27.4188 107.316C27.4054 107.624 27.1105 107.892 26.8021 107.871C26.4965 107.849 26.1694 107.509 26.2177 107.206C26.2659 106.903 26.6279 106.605 26.9228 106.699" fill="white"/>
</g>
<g opacity="0.6">
<path d="M30.3001 111.22L30.0829 109.997L15.4948 112.614C15.4948 112.614 15.039 112.898 15.0551 113.523L30.3001 111.22Z" fill="white"/>
</g>
<path d="M22.0586 108.163C22.0747 108.235 22.45 108.203 22.8549 108.375C23.2651 108.536 23.5091 108.82 23.5734 108.78C23.6378 108.753 23.4474 108.332 22.9541 108.133C22.4608 107.93 22.0318 108.099 22.0613 108.166L22.0586 108.163Z" fill="#263238"/>
<path d="M20.5938 109.107C20.5911 109.182 20.9316 109.25 21.2399 109.515C21.5536 109.772 21.6796 110.097 21.752 110.081C21.8244 110.081 21.7949 109.638 21.4088 109.317C21.0227 108.989 20.5857 109.038 20.5964 109.107H20.5938Z" fill="#263238"/>
<path d="M20.04 111.163C20.1097 111.166 20.1446 110.779 19.8818 110.409C19.6217 110.039 19.2464 109.943 19.2249 110.01C19.1954 110.077 19.4582 110.254 19.6673 110.56C19.8845 110.86 19.9623 111.168 20.0373 111.163H20.04Z" fill="#263238"/>
<path d="M21.8666 106.361C21.9095 106.422 22.2285 106.259 22.6495 106.211C23.0704 106.154 23.419 106.235 23.4458 106.165C23.4779 106.103 23.1133 105.889 22.6173 105.95C22.1213 106.009 21.8183 106.307 21.8639 106.358L21.8666 106.361Z" fill="#263238"/>
<g opacity="0.3">
<path d="M20.959 102.002L21.2593 103.38L28.6619 101.961L28.4447 100.712L20.959 102.002Z" fill="black"/>
</g>
<path d="M21.5547 104.795C21.56 104.824 21.8577 104.819 22.3108 104.653C22.536 104.57 22.7934 104.446 23.0561 104.267C23.1875 104.178 23.3189 104.074 23.4476 103.958C23.5092 103.902 23.5843 103.84 23.6433 103.739C23.7103 103.647 23.7211 103.444 23.6058 103.339C23.5066 103.237 23.3618 103.213 23.2519 103.229C23.1392 103.245 23.0534 103.285 22.9757 103.32C22.8148 103.393 22.6674 103.476 22.536 103.567C22.2706 103.749 22.0668 103.958 21.922 104.151C21.6298 104.54 21.5627 104.835 21.5895 104.846C21.6271 104.865 21.7558 104.602 22.0641 104.269C22.2169 104.103 22.4207 103.926 22.67 103.768C22.7961 103.69 22.9328 103.618 23.0803 103.556C23.2331 103.487 23.3671 103.46 23.4234 103.524C23.4422 103.548 23.4476 103.559 23.4234 103.613C23.3966 103.661 23.3403 103.717 23.2787 103.773C23.1607 103.886 23.04 103.985 22.9221 104.074C22.6834 104.253 22.4475 104.387 22.2437 104.487C21.8335 104.685 21.552 104.757 21.5601 104.798L21.5547 104.795Z" fill="#263238"/>
<path d="M21.6687 104.884C21.6982 104.89 21.7947 104.6 21.7358 104.117C21.7063 103.879 21.6285 103.597 21.4811 103.308C21.406 103.166 21.3148 103.021 21.2049 102.884C21.0896 102.75 20.9448 102.57 20.6526 102.589C20.5024 102.611 20.4006 102.75 20.3764 102.857C20.3442 102.967 20.3523 103.058 20.3496 103.15C20.355 103.332 20.3898 103.504 20.4408 103.659C20.548 103.973 20.7277 104.214 20.9046 104.38C21.2719 104.718 21.5937 104.75 21.5963 104.723C21.6151 104.683 21.3309 104.587 21.0387 104.252C20.8939 104.085 20.7491 103.86 20.6713 103.584C20.6311 103.447 20.607 103.297 20.607 103.144C20.6016 102.981 20.6392 102.839 20.7008 102.844C20.7759 102.828 20.9261 102.927 21.0092 103.042C21.1111 103.163 21.1968 103.292 21.2719 103.418C21.4167 103.672 21.5052 103.927 21.5561 104.144C21.658 104.584 21.6285 104.874 21.6714 104.876L21.6687 104.884Z" fill="#263238"/>
<path d="M20.091 102.42C20.091 102.42 14.8842 81.105 14.8252 78.1879C14.7635 75.0885 17.6056 72.4797 19.5092 72.0427C21.4128 71.603 25.6543 73.0669 27.9977 75.9947C30.3383 78.9225 37.8026 84.4832 37.8026 84.4832C40.8859 86.797 45.4546 87.781 49.6077 85.612C49.6077 85.612 55.7046 95.0952 56.1014 94.8539C56.8173 94.4222 56.3508 95.6153 55.7797 97.0873C54.6509 99.999 52.4149 102.482 49.8222 102.543L34.9204 103.211L29.1157 96.7253L29.6546 101.211L20.091 102.42Z" fill="#263238"/>
<path d="M29.5091 99.9264C29.5091 99.9264 29.485 99.8486 29.4555 99.7012C29.426 99.551 29.3804 99.3312 29.3348 99.047C29.2383 98.4759 29.1257 97.6447 29.0587 96.6125C28.9889 95.5803 28.9702 94.3469 29.0211 92.9796C29.0452 92.2959 29.0801 91.58 29.1284 90.8373C29.1793 90.0946 29.2195 89.3305 29.1954 88.5449C29.1471 86.9738 28.9594 85.4804 28.7047 84.1425C28.4527 82.8019 28.131 81.6142 27.7932 80.6409C27.45 79.6704 27.1068 78.9062 26.8092 78.4129C26.6778 78.1555 26.5384 77.9812 26.4606 77.8499C26.3775 77.7212 26.3373 77.6541 26.34 77.6515C26.3427 77.6488 26.3936 77.7104 26.4821 77.8338C26.5679 77.9598 26.7153 78.1314 26.8548 78.3861C27.1684 78.8741 27.5277 79.6382 27.8843 80.6088C28.2382 81.582 28.568 82.7751 28.8308 84.1184C29.0935 85.4616 29.2892 86.9604 29.3348 88.5423C29.3589 89.3332 29.3187 90.108 29.2651 90.848C29.2168 91.5907 29.1766 92.3039 29.1525 92.9876C29.0962 94.3523 29.1042 95.5803 29.1605 96.6098C29.2142 97.6394 29.3134 98.4705 29.3911 99.0416C29.426 99.3285 29.4662 99.5484 29.485 99.7012C29.5064 99.8513 29.5144 99.9318 29.5118 99.9318L29.5091 99.9264Z" fill="#455A64"/>
<path d="M38.8618 89.1668C38.8189 89.1668 38.8538 88.2526 38.6956 87.1426C38.5428 86.0326 38.2586 85.1639 38.2988 85.1505C38.3149 85.1451 38.4087 85.3543 38.5186 85.7082C38.6286 86.0621 38.7519 86.5608 38.8323 87.1211C38.9101 87.6815 38.9288 88.1963 38.9181 88.5663C38.9074 88.9363 38.8779 89.1642 38.8591 89.1642L38.8618 89.1668Z" fill="#455A64"/>
<path d="M36.0125 103.436L28.5696 106.099C28.5696 106.099 29.307 114.338 27.9798 114.963L21.7676 100.937L33.1946 96.3125L36.0125 103.434V103.436Z" fill="#455A64"/>
<g opacity="0.6">
<path d="M27.4301 101.447C27.2451 101.201 26.859 101.134 26.607 101.311C26.355 101.485 26.2826 101.879 26.4649 102.126C26.6445 102.375 27.1057 102.469 27.339 102.268C27.5722 102.067 27.6285 101.6 27.3953 101.402" fill="white"/>
</g>
<g opacity="0.6">
<path d="M21.7676 100.94L22.9205 100.474L28.449 114.225C28.449 114.225 28.449 114.761 27.9128 115.081L21.7703 100.94H21.7676Z" fill="white"/>
</g>
<path d="M28.7332 106.3C28.6635 106.326 28.4919 105.989 28.1326 105.737C27.7787 105.474 27.406 105.418 27.4087 105.343C27.3953 105.273 27.8538 105.211 28.2854 105.525C28.7198 105.836 28.8029 106.289 28.7332 106.3Z" fill="#263238"/>
<path d="M28.7117 108.043C28.6501 108.086 28.4115 107.831 28.0227 107.713C27.6366 107.582 27.2961 107.649 27.272 107.579C27.2344 107.517 27.6232 107.308 28.1031 107.464C28.5857 107.616 28.7761 108.013 28.7117 108.043Z" fill="#263238"/>
<path d="M27.2613 109.603C27.2211 109.546 27.5294 109.31 27.9826 109.337C28.4357 109.361 28.7172 109.629 28.6689 109.68C28.626 109.742 28.3392 109.613 27.9665 109.597C27.5965 109.573 27.2935 109.67 27.2587 109.603H27.2613Z" fill="#263238"/>
<path d="M30.362 105.506C30.2869 105.503 30.2547 105.144 30.0724 104.763C29.8955 104.377 29.6434 104.123 29.689 104.064C29.7239 104.002 30.0992 104.2 30.311 104.654C30.5255 105.107 30.4344 105.52 30.3647 105.509L30.362 105.506Z" fill="#263238"/>
<g opacity="0.3">
<path d="M34.537 103.962L33.2099 104.436L30.4805 97.4116L31.6548 96.9316L34.537 103.962Z" fill="black"/>
</g>
<path d="M31.8533 104.94C31.8238 104.954 31.671 104.694 31.5718 104.225C31.5235 103.991 31.4913 103.704 31.5021 103.385C31.5074 103.227 31.5262 103.061 31.5557 102.889C31.5718 102.806 31.5825 102.712 31.6361 102.608C31.679 102.501 31.8453 102.385 31.9927 102.428C32.1321 102.458 32.2287 102.568 32.2742 102.669C32.3198 102.774 32.3332 102.868 32.3439 102.951C32.3681 103.125 32.3761 103.294 32.3681 103.455C32.352 103.777 32.285 104.061 32.1992 104.286C32.0249 104.739 31.8104 104.956 31.7863 104.938C31.7514 104.916 31.9042 104.667 32.0222 104.23C32.0812 104.013 32.1268 103.747 32.1268 103.45C32.1268 103.302 32.116 103.147 32.0892 102.988C32.0678 102.822 32.0195 102.694 31.9364 102.68C31.9042 102.677 31.8935 102.68 31.864 102.728C31.8372 102.777 31.8211 102.854 31.805 102.935C31.7729 103.093 31.7514 103.249 31.7407 103.399C31.7166 103.696 31.7273 103.967 31.7514 104.195C31.7997 104.648 31.8882 104.924 31.8506 104.938L31.8533 104.94Z" fill="#263238"/>
<path d="M31.7164 104.89C31.695 104.868 31.8907 104.632 32.3304 104.426C32.5503 104.324 32.8291 104.241 33.1508 104.211C33.3117 104.198 33.4806 104.198 33.6576 104.219C33.8319 104.246 34.0597 104.273 34.1992 104.53C34.2608 104.67 34.1992 104.831 34.1187 104.908C34.041 104.994 33.9632 105.037 33.8855 105.085C33.73 105.179 33.5664 105.241 33.4055 105.278C33.0838 105.354 32.7835 105.332 32.5476 105.268C32.0677 105.136 31.8693 104.879 31.8907 104.863C31.9175 104.825 32.1481 105.016 32.5878 105.085C32.805 105.12 33.0731 105.123 33.3492 105.043C33.486 105.005 33.6254 104.946 33.7568 104.866C33.8989 104.782 33.9981 104.678 33.9605 104.627C33.9337 104.555 33.7702 104.479 33.6281 104.471C33.4699 104.45 33.3171 104.442 33.1696 104.45C32.8774 104.463 32.6146 104.522 32.4028 104.595C31.9765 104.742 31.7459 104.919 31.7191 104.887L31.7164 104.89Z" fill="#263238"/>
<path d="M34.8619 94.6118C34.8619 94.6118 49.812 80.6296 54.7212 81.3723C59.6304 82.115 60.8208 84.4959 61.2658 86.429C61.7109 88.3621 61.5635 94.1641 54.8686 97.5852C48.1738 101.006 33.894 104.725 33.894 104.725L30.918 96.3948L34.8593 94.6091L34.8619 94.6118Z" fill="#263238"/>
<path d="M34.8626 94.6124C34.8626 94.6124 34.7795 94.6553 34.6079 94.7357C34.4336 94.8161 34.1816 94.9341 33.8518 95.0869C33.1815 95.3953 32.1975 95.8457 30.932 96.4248L30.9481 96.3873C31.6881 98.4437 32.7096 101.286 33.943 104.71L33.8813 104.677C37.3909 103.734 41.5065 102.549 45.984 101.047C48.2201 100.288 50.55 99.4545 52.896 98.433C53.4858 98.189 54.0623 97.8968 54.6468 97.6179C54.9417 97.4839 55.2152 97.3042 55.502 97.1487L55.9283 96.9074C56.0731 96.8297 56.1991 96.7251 56.3386 96.634C57.4405 95.9208 58.4433 95.0172 59.2583 93.9448C60.1243 92.8294 60.7276 91.5398 61.0547 90.2073C61.1512 89.8775 61.1914 89.537 61.2531 89.2018C61.288 88.864 61.3335 88.5262 61.3335 88.1884C61.355 87.5127 61.3067 86.8397 61.1351 86.1989C60.9743 85.5555 60.7142 84.9442 60.3603 84.3999C60.0064 83.8556 59.5479 83.3918 59.0331 83.0164C58.5183 82.6411 57.9553 82.3408 57.3708 82.1209C56.7917 81.885 56.1884 81.7322 55.5932 81.5927C55.2929 81.5391 54.9926 81.4855 54.695 81.4319C54.5476 81.4238 54.4001 81.4158 54.2526 81.4077C54.1052 81.4158 53.9577 81.4346 53.8102 81.448C53.2257 81.5391 52.6573 81.7027 52.1211 81.9225C51.0406 82.3488 50.0486 82.8931 49.1102 83.4508C47.2361 84.5742 45.5845 85.77 44.0991 86.888C41.1365 89.1348 38.8521 91.1028 37.281 92.4648C36.4981 93.1485 35.8948 93.6874 35.4873 94.052C35.2862 94.2317 35.1307 94.3711 35.0235 94.4676C34.9189 94.5614 34.8626 94.607 34.8626 94.607C34.8626 94.607 34.9108 94.5534 35.0127 94.4569C35.1173 94.3577 35.2701 94.2156 35.4685 94.0306C35.8707 93.6579 36.4686 93.1136 37.2461 92.4219C38.8066 91.0465 41.0828 89.0678 44.0401 86.8076C45.5228 85.6842 47.1744 84.4803 49.0512 83.3489C49.9923 82.7885 50.987 82.2362 52.0755 81.8045C52.6171 81.582 53.1936 81.4131 53.7915 81.3193C53.9443 81.3059 54.0944 81.2871 54.2473 81.2764C54.4001 81.2844 54.5556 81.2924 54.7111 81.3032C55.0114 81.3568 55.3144 81.4104 55.6173 81.464C56.2179 81.6035 56.8292 81.7563 57.4164 81.9976C58.0089 82.2201 58.5854 82.5231 59.1082 82.9065C59.6337 83.2899 60.1029 83.7645 60.4702 84.3221C60.8348 84.8771 61.1003 85.5045 61.2665 86.1587C61.4435 86.8129 61.4917 87.502 61.473 88.1857C61.473 88.5289 61.4247 88.872 61.3898 89.2152C61.3282 89.5557 61.2853 89.8989 61.1888 90.2341C60.8563 91.5854 60.245 92.8938 59.3683 94.0225C58.5425 95.1084 57.5263 96.0227 56.4136 96.7412C56.2742 96.8324 56.1455 96.9369 56.0007 97.0147L55.5691 97.2587C55.2795 97.4142 55.0033 97.5938 54.7057 97.7305C54.1186 98.0121 53.5394 98.3016 52.9469 98.5483C50.5955 99.5725 48.2603 100.404 46.0215 101.16C41.536 102.658 37.4177 103.836 33.9027 104.766L33.8572 104.777L33.8411 104.731C32.6238 101.299 31.6157 98.4545 30.8838 96.3953L30.873 96.3685L30.8999 96.3578C32.1707 95.7894 33.1547 95.3497 33.8277 95.0467C34.1601 94.8993 34.4148 94.7866 34.5918 94.7089C34.7634 94.6338 34.8545 94.599 34.8545 94.599L34.8626 94.6124Z" fill="#455A64"/>
<path d="M42.8282 84.5789C42.5976 84.1607 43.0721 83.426 42.6217 83.2679C40.8951 82.6619 42.2195 79.9298 40.4527 80.4098L38.0879 84.5977C39.1201 85.2278 38.6804 87 39.5813 87.807C40.1041 88.2736 40.8977 88.2467 41.5814 88.0939C44.1821 87.5121 46.378 86.1394 47.0483 83.5601C47.1689 83.0963 43.0587 85.0026 42.8282 84.5816V84.5789Z" fill="#E0E0E0"/>
<path d="M67.4625 38.4258C65.9959 38.6215 64.3631 39.5465 63.8001 40.9246C63.3631 41.9944 63.8617 43.5897 63.8778 44.7452C63.8912 45.681 63.9073 46.6167 63.9636 47.5497C63.9529 47.6409 63.9422 47.732 63.9315 47.8232C63.8001 48.9466 63.6204 50.2014 63.6607 51.5607C63.6687 51.8985 63.6982 52.2364 63.7384 52.5661C63.7625 52.7324 63.784 52.8959 63.8189 53.0568C63.8537 53.2177 63.8778 53.3785 63.9207 53.534C64.0736 54.1614 64.2854 54.7459 64.5267 55.2795C65.0093 56.3492 65.5884 57.2206 66.1059 57.9204C66.6233 58.6202 67.0818 59.1483 67.4116 59.5023C67.4464 59.5398 67.4786 59.572 67.5108 59.6068C67.8754 60.5399 68.2401 61.4729 68.6047 62.4059C68.9693 63.339 69.3447 64.2935 69.9855 65.0629C70.6263 65.8324 71.5888 66.4035 72.5808 66.307C73.4897 66.2212 74.2807 65.5831 74.7338 64.7868C75.1869 63.9905 75.337 63.0548 75.3558 62.1378L67.4652 38.4258H67.4625ZM66.5536 57.6094C66.1059 56.8881 65.5964 56.0141 65.1755 54.9926C64.7519 53.9711 64.4543 52.8048 64.4248 51.5366C64.4194 51.3462 64.4194 51.1585 64.4221 50.9709C64.827 52.727 65.4838 54.4215 66.1407 56.1026C66.4303 56.8452 66.7198 57.5879 67.0094 58.3306C66.8673 58.1107 66.7145 57.8694 66.5509 57.6094H66.5536Z" fill="#263238"/>
<path d="M80.7042 56.417L70.0762 60.6934C70.0762 60.6934 74.0014 69.4474 77.3716 68.6591C80.7418 67.8735 82.3773 59.8515 82.3773 59.8515L80.7015 56.417H80.7042Z" fill="#FFBE9D"/>
<path d="M81.2332 56.7631C81.2332 56.7631 82.4021 64.7556 79.0239 65.4017C76.6564 65.8548 71.1547 60.1494 71.1547 60.1494C70.1949 60.4336 69.4817 60.9269 68.7229 61.3988C66.2938 62.9056 65.3849 66.0023 66.519 68.6245C67.6907 71.3378 69.2324 74.8688 70.1037 76.6947C71.64 79.9148 75.2381 81.9256 75.2381 81.9256L74.9432 88.7652C74.9432 88.7652 84.2226 86.8187 89.1962 87.3174C94.1697 87.8134 97.4594 86.7302 97.4594 86.7302L90.8504 75.2442L85.7991 56.251C85.7991 56.251 83.496 56.4118 81.2332 56.7604V56.7631Z" fill="#455A64"/>
<path d="M85.8001 56.2559C85.8001 56.2559 88.819 56.2291 90.5725 59.854C91.4734 61.7174 95.235 67.9859 95.235 67.8277L100.903 59.4089L105.844 62.1624C105.844 62.1624 101.235 71.9137 100.503 73.3776C99.7715 74.8416 98.8197 76.8899 96.042 77.1822C93.2617 77.4744 90.5564 75.1338 89.9692 73.745C89.3848 72.3561 85.1405 65.1117 85.1405 64.8918C85.1405 64.672 85.8001 56.2612 85.8001 56.2612V56.2559Z" fill="#455A64"/>
<path d="M95.3587 83.0864C95.3587 83.0864 95.3211 83.0382 95.2595 82.939C95.1924 82.829 95.104 82.6842 94.994 82.5019C94.7608 82.1051 94.4337 81.5501 94.0262 80.8637C93.2084 79.4535 92.0743 77.5016 90.79 75.287L90.782 75.2736V75.2575C90.7552 74.6515 90.723 74.0215 90.672 73.378C90.5594 71.8765 90.302 70.4609 89.9106 69.2169C89.5299 67.9728 88.9695 66.9245 88.3877 66.1362C87.8059 65.3426 87.1946 64.8171 86.7522 64.49C86.527 64.3318 86.35 64.2112 86.224 64.1388C86.1007 64.0637 86.0363 64.0208 86.039 64.0181C86.039 64.0128 86.1087 64.0476 86.2401 64.1146C86.3715 64.179 86.5538 64.2916 86.7871 64.4444C87.2402 64.7581 87.8702 65.2783 88.4708 66.0746C89.0714 66.8655 89.6452 67.9219 90.0393 69.1766C90.4388 70.4261 90.7042 71.8551 90.8168 73.3646C90.8678 74.0107 90.8999 74.6435 90.9241 75.2494L90.916 75.2173C92.1869 77.4426 93.3022 79.4025 94.1119 80.8182C94.5034 81.5153 94.8171 82.0756 95.0423 82.4778C95.1442 82.6655 95.2246 82.8156 95.2863 82.9282C95.3399 83.0301 95.3667 83.0864 95.364 83.0891L95.3587 83.0864Z" fill="#263238"/>
<path d="M95.4783 71.4766C95.4435 71.4846 95.2531 70.699 95.1968 69.707C95.1673 69.211 95.1754 68.7606 95.1968 68.4388C95.2183 68.1144 95.2505 67.916 95.2665 67.916C95.3068 67.916 95.2773 68.7177 95.3362 69.699C95.3926 70.6803 95.5186 71.4712 95.4783 71.4766Z" fill="#263238"/>
<path d="M82.634 69.2812C82.634 69.2812 82.6877 69.3965 82.7627 69.611C82.8029 69.7183 82.8458 69.8523 82.8807 70.0105C82.9182 70.1687 82.9719 70.3457 83.0014 70.5494C83.0389 70.7505 83.0764 70.9704 83.0952 71.2117C83.1274 71.4503 83.13 71.7077 83.1381 71.9785C83.1381 72.5201 83.0898 73.1153 82.9719 73.7293C82.8458 74.3432 82.6582 74.9117 82.449 75.4104C82.3364 75.657 82.2345 75.893 82.1139 76.1021C82.004 76.3166 81.8833 76.5069 81.7707 76.6759C81.6661 76.8501 81.5482 76.9949 81.4517 77.1263C81.3578 77.2577 81.2667 77.3649 81.1889 77.448C81.0361 77.6196 80.9503 77.7081 80.9422 77.7027C80.9208 77.684 81.264 77.3113 81.6876 76.6249C81.7922 76.4533 81.9074 76.263 82.012 76.0485C82.1273 75.8393 82.2238 75.6061 82.3311 75.3621C82.5295 74.8661 82.7091 74.3057 82.8351 73.7025C82.9531 73.0965 83.0014 72.512 83.0094 71.9785C83.004 71.713 83.004 71.4583 82.9799 71.2224C82.9665 70.9838 82.9343 70.7666 82.9048 70.5655C82.7761 69.7665 82.6045 69.292 82.6314 69.2812H82.634Z" fill="#263238"/>
<path d="M77.0211 42.5719C76.0907 39.2017 72.5275 37.2605 69.1144 38.333C65.897 39.3438 64.098 42.781 64.905 46.0198C65.6128 48.8591 66.3877 51.6985 66.8086 52.6691C68.0795 55.6022 70.3021 56.0151 71.1521 56.0634C71.3451 56.0741 71.8277 55.9776 72.0181 55.9266C72.0181 55.9266 72.0422 55.932 72.0449 55.9427L72.7956 59.6052C73.423 61.9485 75.4982 63.4017 77.871 62.7823C80.2519 62.163 81.2948 59.7205 80.7103 57.3557L77.0211 42.5719Z" fill="#FFBE9D"/>
<path d="M66.9343 47.4897C66.9906 47.7525 67.2614 47.9187 67.5402 47.8624C67.8164 47.8061 67.996 47.546 67.9397 47.286C67.8834 47.0232 67.6126 46.857 67.3338 46.9133C67.0549 46.9696 66.878 47.2297 66.9343 47.4924V47.4897Z" fill="#263238"/>
<path d="M65.9257 46.5269C66.0035 46.5751 66.3091 46.1998 66.8453 46.063C67.3789 45.9182 67.84 46.0872 67.8803 46.0067C67.9017 45.9719 67.8079 45.87 67.6068 45.7922C67.4084 45.7145 67.0893 45.6689 66.7569 45.7574C66.4244 45.8459 66.175 46.0416 66.0464 46.2078C65.915 46.3767 65.8882 46.5054 65.9257 46.5269Z" fill="#263238"/>
<path d="M71.946 46.2876C72.0023 46.5503 72.2731 46.7166 72.5519 46.6603C72.8281 46.604 73.0077 46.3439 72.9514 46.0838C72.8951 45.8211 72.6243 45.6548 72.3455 45.7111C72.0666 45.7675 71.8897 46.0275 71.946 46.2903V46.2876Z" fill="#263238"/>
<path d="M71.207 45.2554C71.2847 45.3036 71.593 44.9283 72.1266 44.7915C72.6601 44.6468 73.1213 44.8157 73.1615 44.7352C73.183 44.7004 73.0918 44.5985 72.888 44.5208C72.6896 44.443 72.3706 44.3974 72.0381 44.4859C71.7056 44.5744 71.4563 44.7701 71.3276 44.9363C71.1962 45.1052 71.1694 45.2339 71.207 45.2554Z" fill="#263238"/>
<path d="M70.2687 49.6931C70.2634 49.6636 69.9175 49.6931 69.3598 49.7655C69.2204 49.7869 69.0837 49.795 69.0381 49.7065C68.9818 49.618 69.0005 49.4572 69.0274 49.2829C69.0729 48.9209 69.1185 48.5429 69.1695 48.1461C69.3571 46.532 69.4563 45.221 69.3893 45.2129C69.325 45.2075 69.1185 46.5106 68.9308 48.1219C68.8879 48.5188 68.8477 48.8968 68.8075 49.2588C68.7941 49.425 68.7512 49.6234 68.8718 49.8084C68.9335 49.8995 69.0542 49.9478 69.148 49.9478C69.2418 49.9505 69.3196 49.9317 69.3893 49.9183C69.9389 49.8057 70.2768 49.7199 70.2714 49.6904L70.2687 49.6931Z" fill="#263238"/>
<path d="M72.0371 55.9179C72.0371 55.9179 74.1445 55.5479 76.3377 53.3359C76.3377 53.3359 76.2117 56.253 72.2409 56.9045L72.0371 55.9179Z" fill="#EB996E"/>
<path d="M70.8205 50.9102C70.9492 50.6073 71.2495 50.382 71.5954 50.3311C71.834 50.2963 72.0968 50.3445 72.2844 50.4947C72.4721 50.6448 72.5713 50.9022 72.4882 51.1167C72.3944 51.3553 72.1048 51.4813 71.8313 51.476C71.5578 51.4706 71.2951 51.3607 71.0457 51.2507C70.976 51.2186 70.9063 51.1864 70.8527 51.1328C70.8018 51.0791 70.7723 50.9987 70.8044 50.9344" fill="#EB996E"/>
<path d="M71.9341 49.6504C71.8457 49.6692 71.9904 50.2429 71.599 50.7818C71.2075 51.3207 70.5721 51.4173 70.5882 51.5004C70.5882 51.5379 70.7544 51.5755 71.0172 51.5165C71.2746 51.4575 71.6285 51.2805 71.8698 50.9507C72.1084 50.621 72.154 50.2536 72.1138 50.0123C72.0736 49.7657 71.9743 49.6397 71.9341 49.6531V49.6504Z" fill="#263238"/>
<path d="M70.5336 43.5536C70.6221 43.685 71.1396 43.4758 71.7857 43.3874C72.4319 43.2855 72.9842 43.3364 73.0325 43.1863C73.0539 43.1139 72.9306 43.0013 72.692 42.9155C72.4533 42.8297 72.0968 42.7814 71.708 42.8377C71.3219 42.894 70.9921 43.0442 70.7857 43.197C70.5792 43.3498 70.4907 43.4919 70.531 43.5563L70.5336 43.5536Z" fill="#263238"/>
<path d="M65.6056 45.0521C65.7316 45.1487 66.0668 44.9261 66.5091 44.8055C66.9462 44.6687 67.3483 44.6741 67.402 44.524C67.4234 44.4516 67.3349 44.347 67.1419 44.2773C66.9515 44.2049 66.6566 44.1834 66.3563 44.2719C66.0534 44.3604 65.8174 44.54 65.6968 44.7036C65.5707 44.8671 65.552 45.0066 65.6083 45.0521H65.6056Z" fill="#263238"/>
<path d="M84.8956 55.9667C84.0296 52.8405 83.0456 49.7491 81.9464 46.698C81.2841 44.8587 80.5709 43.0222 79.536 41.3679C78.5011 39.7109 77.1122 38.2336 75.3695 37.3649C74.1362 36.751 72.7152 36.4748 71.3612 36.6491C70.0287 36.5713 68.6961 36.8689 67.6853 37.7162C67.1759 38.1425 66.7496 38.8449 67.0231 39.4535C67.2403 39.9362 67.7979 40.1426 68.2966 40.3008C69.6774 40.7378 71.0582 41.1775 72.439 41.6146C72.4497 41.6253 72.4605 41.636 72.4712 41.6467C72.5409 41.7218 72.6213 41.8076 72.7125 41.8988C73.0718 42.2795 73.5276 42.8908 73.911 43.738C74.2917 44.5853 74.5866 45.6711 74.7287 46.9044C74.8735 48.1378 74.8601 49.532 74.911 51.012C74.9646 52.492 75.1228 53.9425 75.5599 55.1972C75.9835 56.4466 76.5814 57.4708 77.1283 58.2805C77.6512 59.0393 78.1311 59.6158 78.493 60.0126C78.5386 60.2271 78.5708 60.4469 78.5842 60.6668C78.6217 61.3129 78.4957 61.9591 78.5038 62.6052C78.5118 63.2514 78.678 63.9485 79.1714 64.3641C79.6701 64.785 80.4127 64.8225 81.0106 64.5705C81.6085 64.3185 82.0724 63.8171 82.4129 63.2621C83.1529 62.0502 83.3593 60.5676 83.2494 59.1466C83.236 58.9723 83.2172 58.7953 83.1958 58.6237C83.4451 58.5781 83.6891 58.5138 83.9197 58.4119C84.4505 58.184 84.9251 57.7363 85.0323 57.1652C85.1074 56.7657 85.0002 56.3582 84.8929 55.964L84.8956 55.9667ZM77.5922 57.9883C77.1176 57.1679 76.6001 56.1624 76.2382 54.9827C75.8682 53.8084 75.7368 52.4437 75.6832 50.9878C75.6483 50.0602 75.6349 49.1512 75.5786 48.2772C75.6537 48.6338 75.7207 48.9904 75.7851 49.347C76.2784 52.1032 76.5653 54.9291 77.5922 57.5352C77.7745 57.9963 77.9809 58.4548 78.1579 58.9213C77.9809 58.6425 77.7879 58.3315 77.5868 57.991L77.5922 57.9883Z" fill="#263238"/>
<path d="M79.7321 41.6122C79.7321 41.6122 79.6892 41.6041 79.6061 41.5934C79.5176 41.5854 79.397 41.572 79.2468 41.5559C79.0913 41.5425 78.8983 41.5237 78.6784 41.4942C78.4586 41.4674 78.2038 41.4433 77.9277 41.4004C77.3727 41.328 76.7131 41.218 75.9839 41.0759C75.2573 40.9285 74.4636 40.7435 73.6379 40.5129C72.8147 40.277 72.0399 40.0196 71.3428 39.7676C70.6484 39.5075 70.0263 39.2581 69.5143 39.0276C69.2542 38.9176 69.0263 38.8077 68.8252 38.7139C68.6214 38.6227 68.4498 38.5369 68.3077 38.4672C68.171 38.4002 68.0611 38.3492 67.9806 38.309C67.9056 38.2742 67.8653 38.2554 67.8653 38.2581C67.8653 38.2581 67.9029 38.2822 67.9753 38.3224C68.0557 38.3653 68.1603 38.4216 68.2943 38.4913C68.4338 38.5664 68.6053 38.6549 68.8064 38.7487C69.0075 38.8452 69.2354 38.9605 69.4928 39.0731C70.0049 39.3091 70.6242 39.5665 71.3187 39.8292C72.0158 40.0866 72.7933 40.3467 73.6191 40.5826C74.4449 40.8132 75.2412 40.9982 75.9705 41.143C76.6997 41.2824 77.362 41.387 77.9196 41.454C78.1985 41.4915 78.4505 41.513 78.673 41.5371C78.8956 41.5612 79.0859 41.5746 79.2441 41.5854C79.3943 41.5934 79.5149 41.6014 79.6061 41.6068C79.6892 41.6122 79.7321 41.6122 79.7321 41.6068V41.6122Z" fill="#455A64"/>
<path d="M79.8783 42.1481C79.8783 42.1481 79.8327 42.1481 79.7496 42.1507C79.6584 42.1561 79.5351 42.1641 79.3823 42.1749C79.3019 42.1802 79.2134 42.1856 79.1169 42.1936C79.0203 42.1963 78.9131 42.199 78.8005 42.2044C78.5726 42.2097 78.3152 42.2258 78.0283 42.2151C77.8862 42.2151 77.7361 42.2124 77.5806 42.2097C77.425 42.2097 77.2615 42.1936 77.0953 42.1856C76.7601 42.1749 76.4035 42.132 76.0255 42.0971C75.2748 42.006 74.4543 41.8665 73.6071 41.6574C72.7625 41.4402 71.9716 41.1748 71.2665 40.8986C70.9179 40.7512 70.5828 40.6198 70.2798 40.4697C70.127 40.3973 69.9795 40.3329 69.8401 40.2605C69.7007 40.1881 69.5693 40.1184 69.4406 40.0541C69.1832 39.9254 68.9634 39.7913 68.765 39.6787C68.6658 39.6224 68.5746 39.5688 68.4915 39.5205C68.4084 39.4696 68.3333 39.4213 68.2663 39.3784C68.1349 39.2953 68.0303 39.231 67.9526 39.1827C67.8802 39.1398 67.8426 39.1157 67.84 39.1184C67.84 39.1184 67.8748 39.1479 67.9445 39.1961C68.0196 39.2471 68.1215 39.3168 68.2502 39.4026C68.3172 39.4482 68.3923 39.4964 68.4727 39.55C68.5558 39.6037 68.647 39.6546 68.7435 39.7136C68.9392 39.8289 69.1591 39.9683 69.4165 40.0997C69.5425 40.1667 69.6765 40.2391 69.8133 40.3115C69.9527 40.3839 70.1002 40.4509 70.253 40.526C70.556 40.6788 70.8884 40.8129 71.2396 40.963C71.9448 41.2418 72.7384 41.5126 73.5856 41.7298C74.4356 41.9389 75.2614 42.0783 76.0148 42.1641C76.3928 42.199 76.7521 42.2365 77.0872 42.2446C77.2561 42.2499 77.417 42.2634 77.5752 42.2634C77.7307 42.2634 77.8808 42.2634 78.0256 42.2634C78.3125 42.2687 78.5699 42.2499 78.7978 42.2392C78.9104 42.2339 79.0176 42.2312 79.1142 42.2231C79.2107 42.2151 79.2992 42.2044 79.3796 42.1963C79.5324 42.1802 79.6558 42.1668 79.7469 42.1588C79.83 42.1481 79.8756 42.1427 79.8729 42.14L79.8783 42.1481Z" fill="white"/>
<path d="M81.8796 61.6661C81.8796 61.6661 81.8796 61.6473 81.8796 61.6152C81.8796 61.5776 81.8742 61.5267 81.8716 61.465C81.8635 61.331 81.8528 61.1353 81.8233 60.8832C81.7724 60.3792 81.6705 59.6526 81.4801 58.7651C81.2924 57.8777 81.0082 56.8374 80.649 55.6952C80.2897 54.553 79.858 53.309 79.4183 52.0033C78.5282 49.3918 77.7212 47.0271 77.1367 45.3111C76.8417 44.4585 76.6031 43.7695 76.4369 43.2869C76.3538 43.0509 76.2894 42.8686 76.2438 42.7372C76.2224 42.6782 76.2036 42.63 76.1902 42.5951C76.1768 42.563 76.1714 42.5469 76.1688 42.5469C76.1661 42.5469 76.1715 42.563 76.1822 42.5978C76.1929 42.6354 76.209 42.6809 76.2278 42.7426C76.2706 42.874 76.3296 43.059 76.4074 43.2976C76.5683 43.7829 76.7988 44.4746 77.0857 45.3299C77.6648 47.0485 78.4638 49.416 79.3486 52.0301C79.791 53.3385 80.2227 54.5799 80.5846 55.7193C80.9492 56.8588 81.2361 57.8964 81.4292 58.7785C81.6276 59.6606 81.7348 60.3845 81.7965 60.8859C81.8287 61.1379 81.8448 61.3337 81.8582 61.465C81.8662 61.5267 81.8716 61.5776 81.8742 61.6152C81.8796 61.65 81.8823 61.6661 81.8823 61.6661H81.8796Z" fill="#455A64"/>
<path d="M78.2424 53.9984C78.2424 53.9984 78.2424 53.9555 78.229 53.8723C78.2156 53.7839 78.1968 53.6659 78.1754 53.5184C78.1271 53.2101 78.052 52.765 77.9555 52.2154C77.7598 51.1161 77.4622 49.604 77.0788 47.9443C76.6954 46.2847 76.3012 44.794 75.9956 43.7215C75.8428 43.1853 75.7168 42.751 75.6229 42.4533C75.5773 42.3086 75.5425 42.196 75.5157 42.1102C75.4915 42.0324 75.4755 41.9922 75.4728 41.9922C75.4728 41.9922 75.4808 42.0351 75.4996 42.1155C75.5237 42.2013 75.5532 42.3166 75.5934 42.4614C75.6765 42.7697 75.7972 43.2041 75.942 43.7349C76.2342 44.8101 76.6203 46.3035 77.0037 47.9604C77.3871 49.6174 77.6928 51.1268 77.9019 52.2234C78.0038 52.765 78.0869 53.2074 78.1459 53.5211C78.1754 53.6686 78.1968 53.7865 78.2129 53.875C78.229 53.9555 78.2397 53.9984 78.2424 53.9984Z" fill="#455A64"/>
<path d="M102.023 58.3799C102.023 58.3799 102.35 57.4549 102.497 56.1519C102.645 54.8515 102.647 54.7845 102.361 54.2107C102.074 53.637 101.567 53.3983 101.328 53.1222C101.09 52.846 101.988 52.4894 102.771 53.023C103.551 53.5538 104.157 54.57 104.32 54.8086C105.144 56.0178 105.859 56.05 105.859 56.05L108.991 55.2403C108.991 55.2403 109.643 54.2965 110.216 54.4199L110.468 54.4654L110.57 54.4064C110.828 54.259 111.165 54.4279 111.176 54.7228C111.176 54.8086 111.16 54.9051 111.112 55.0043C110.889 55.4548 108.895 57.2243 108.79 57.7016C108.685 58.1761 108.795 58.9376 107.913 59.7795C107.031 60.6213 105.996 60.9458 104.908 61.0825L104.741 61.5383L101.395 59.6829L102.023 58.3826V58.3799Z" fill="#FFBE9D"/>
<path d="M108.209 58.675C108.209 58.675 108.209 58.5677 108.241 58.3774C108.278 58.1575 108.324 57.8921 108.38 57.5757C108.444 57.2271 108.52 56.8277 108.603 56.3906C108.646 56.1735 108.694 55.9322 108.589 55.7391C108.541 55.6426 108.455 55.5648 108.356 55.5487C108.254 55.53 108.141 55.5702 108.053 55.6426C107.841 55.8169 107.79 56.1332 107.699 56.3987C107.613 56.6695 107.533 56.9295 107.455 57.1735C107.302 57.6454 107.168 58.061 107.058 58.4042L107.05 58.431H107.023C106.782 58.4578 106.608 58.5597 106.503 58.6374C106.399 58.7179 106.35 58.7768 106.342 58.7688C106.337 58.7661 106.372 58.6964 106.474 58.6026C106.576 58.5087 106.753 58.3854 107.015 58.3479L106.981 58.3774C107.08 58.0315 107.203 57.6105 107.34 57.1333C107.412 56.8866 107.49 56.6266 107.573 56.3531C107.616 56.2164 107.654 56.0769 107.704 55.9322C107.758 55.7901 107.83 55.6372 107.967 55.5273C108.08 55.4361 108.23 55.3772 108.383 55.404C108.538 55.4308 108.654 55.5461 108.715 55.6694C108.844 55.9268 108.774 56.1949 108.731 56.4094C108.638 56.8437 108.554 57.2405 108.479 57.5891C108.407 57.9001 108.348 58.1655 108.297 58.38C108.251 58.5677 108.222 58.6696 108.211 58.6669L108.209 58.675Z" fill="#EB996E"/>
<path d="M110.554 54.4946C110.587 54.5134 110.206 55.2132 109.702 56.0551C109.198 56.897 108.763 57.5646 108.729 57.5431C108.696 57.5243 109.077 56.8246 109.581 55.9827C110.085 55.1408 110.52 54.4732 110.552 54.4946H110.554Z" fill="#EB996E"/>
<path d="M108.654 56.0179C108.619 56.0152 108.645 55.6747 108.857 55.3208C109.066 54.9642 109.353 54.7792 109.375 54.8087C109.402 54.8409 109.174 55.0607 108.978 55.3905C108.78 55.7203 108.694 56.026 108.654 56.0179Z" fill="#EB996E"/>
<path d="M104.522 55.3044C104.522 55.3044 104.699 55.4305 104.889 55.72C105.079 56.0042 105.286 56.452 105.345 56.9802C105.404 57.5083 105.304 57.9909 105.181 58.31C105.058 58.6344 104.929 58.806 104.916 58.7953C104.897 58.7846 104.993 58.5969 105.087 58.2778C105.184 57.9588 105.262 57.4976 105.205 56.9936C105.149 56.4895 104.969 56.0578 104.803 55.7683C104.64 55.476 104.503 55.3178 104.519 55.3018L104.522 55.3044Z" fill="#EB996E"/>
<path d="M106.679 57.8622C106.636 57.8649 106.598 57.452 106.376 57.0015C106.158 56.5511 105.855 56.2642 105.885 56.2347C105.904 56.2052 106.268 56.4599 106.502 56.9425C106.738 57.4225 106.716 57.8675 106.679 57.8622Z" fill="#EB996E"/>
<path d="M107.496 56.5107C107.51 56.5483 107.268 56.6689 106.96 56.7815C106.652 56.8941 106.389 56.9585 106.376 56.9209C106.362 56.8834 106.604 56.7628 106.912 56.6502C107.22 56.5375 107.483 56.4732 107.496 56.5107Z" fill="#EB996E"/>
<path d="M98.7305 101.595L105.798 103.617C105.798 103.617 105.61 111.306 106.878 111.805L111.796 98.4179L100.916 94.8145L98.7305 101.592V101.595Z" fill="#455A64"/>
<g opacity="0.6">
<path d="M106.574 99.233C106.732 98.9944 107.086 98.9086 107.33 99.0561C107.577 99.2036 107.665 99.5628 107.513 99.8041C107.36 100.045 106.939 100.161 106.711 99.9864C106.483 99.8122 106.4 99.3859 106.606 99.1875" fill="white"/>
</g>
<g opacity="0.6">
<path d="M111.795 98.4176L110.698 98.0557L106.4 111.148C106.4 111.148 106.433 111.646 106.95 111.909L111.795 98.4176Z" fill="white"/>
</g>
<path d="M105.655 103.815C105.722 103.833 105.859 103.512 106.178 103.257C106.489 102.992 106.832 102.916 106.824 102.847C106.832 102.782 106.403 102.75 106.022 103.069C105.639 103.383 105.588 103.809 105.652 103.815H105.655Z" fill="#263238"/>
<path d="M105.783 105.426C105.842 105.461 106.048 105.212 106.402 105.078C106.751 104.933 107.072 104.976 107.091 104.909C107.121 104.85 106.748 104.678 106.314 104.852C105.877 105.024 105.721 105.405 105.785 105.426H105.783Z" fill="#263238"/>
<path d="M107.223 106.788C107.257 106.732 106.954 106.534 106.536 106.584C106.118 106.633 105.874 106.898 105.92 106.946C105.962 107.003 106.222 106.863 106.566 106.826C106.909 106.78 107.193 106.853 107.223 106.788Z" fill="#263238"/>
<path d="M104.095 103.174C104.164 103.166 104.172 102.834 104.32 102.467C104.459 102.097 104.679 101.847 104.633 101.794C104.599 101.74 104.261 101.944 104.092 102.378C103.92 102.81 104.03 103.19 104.092 103.174H104.095Z" fill="#263238"/>
<path d="M91.5456 100.243L84.883 103.345C84.883 103.345 86.2718 110.909 85.0948 111.603L78.1426 99.1491L88.3256 93.8887L91.5429 100.24L91.5456 100.243Z" fill="#455A64"/>
<g opacity="0.6">
<path d="M83.4303 99.1357C83.2372 98.9239 82.8753 98.8944 82.6554 99.0794C82.4356 99.2644 82.4034 99.6317 82.5938 99.8462C82.7814 100.061 83.2185 100.109 83.4142 99.9025C83.6126 99.6961 83.626 99.2591 83.3901 99.0955" fill="white"/>
</g>
<g opacity="0.6">
<path d="M78.1426 99.149L79.1695 98.6182L85.4621 110.876C85.4621 110.876 85.5077 111.372 85.0385 111.716L78.1426 99.149Z" fill="white"/>
</g>
<path d="M85.0523 103.519C84.9879 103.548 84.8029 103.253 84.449 103.05C84.1005 102.838 83.7492 102.816 83.7465 102.747C83.7305 102.682 84.1487 102.586 84.5723 102.84C85.0013 103.09 85.1166 103.503 85.0523 103.519Z" fill="#263238"/>
<path d="M85.1806 105.131C85.127 105.176 84.8857 104.962 84.5157 104.884C84.1483 104.796 83.8373 104.887 83.8078 104.825C83.7676 104.772 84.1108 104.544 84.5666 104.648C85.0251 104.747 85.2369 105.101 85.1779 105.131H85.1806Z" fill="#263238"/>
<path d="M83.9714 106.702C83.9285 106.653 84.1966 106.407 84.6175 106.393C85.0385 106.377 85.3227 106.6 85.2825 106.653C85.2503 106.715 84.9714 106.619 84.6256 106.635C84.2797 106.643 84.0089 106.758 83.9714 106.702Z" fill="#263238"/>
<path d="M86.492 102.643C86.4222 102.646 86.3633 102.318 86.1595 101.978C85.9638 101.635 85.7064 101.423 85.7439 101.364C85.7707 101.305 86.1354 101.455 86.3686 101.857C86.6046 102.257 86.5563 102.648 86.492 102.643Z" fill="#263238"/>
<path d="M97.1586 85.3094C97.1586 85.3094 107.385 82.7033 109.964 83.2503C112.543 83.7972 115.747 84.1913 116.214 86.1057C116.683 88.0173 116.527 91.1435 114.65 92.8622C112.776 94.5808 89.882 101.927 89.882 101.927L87.6164 95.7551L81.8225 85.2155C86.8764 85.4729 92.4505 85.926 97.1613 85.3147L97.1586 85.3094Z" fill="#263238"/>
<path d="M89.2266 96.0641C89.2266 96.0641 89.2909 96.0319 89.4142 95.9863C89.551 95.9354 89.7333 95.8684 89.9612 95.7826C90.4358 95.6056 91.1168 95.3402 91.9426 94.9755C93.5968 94.2516 95.8195 93.088 98.0475 91.4632C99.1602 90.6482 100.187 89.8251 101.166 89.1333C102.147 88.447 103.077 87.8812 103.917 87.5273C104.753 87.168 105.472 86.983 105.976 86.9187C106.225 86.8678 106.423 86.8731 106.557 86.8597C106.692 86.8517 106.761 86.849 106.761 86.8544C106.761 86.8704 106.482 86.8865 105.986 86.975C105.488 87.0554 104.783 87.2538 103.959 87.6212C103.134 87.9831 102.217 88.5515 101.243 89.2433C100.273 89.9377 99.2487 90.7661 98.1333 91.5812C95.8946 93.2113 93.6531 94.3669 91.9855 95.0694C91.1516 95.4233 90.4626 95.6753 89.9826 95.8389C89.744 95.922 89.5537 95.9783 89.4276 96.0185C89.299 96.056 89.2319 96.0748 89.2319 96.0694L89.2266 96.0641Z" fill="#455A64"/>
<path d="M78.16 84.6253C78.16 84.6253 75.0606 85.5932 74.2268 89.8911C73.3929 94.189 75.6344 99.0338 76.1921 99.7363C76.7497 100.439 87.6137 100.908 87.6137 100.908L102.851 103.251C102.851 103.251 104.529 101.924 104.864 99.0499C105.119 96.8701 104.88 96.2186 104.88 96.2186L88.52 88.4084C88.52 88.4084 80.8867 84.0837 78.1573 84.6227L78.16 84.6253Z" fill="#263238"/>
<path d="M81.8191 85.2124C81.8191 85.2124 81.8593 85.2258 81.937 85.2607C82.0175 85.2982 82.1301 85.3491 82.2775 85.4162C82.5805 85.5583 83.0229 85.7647 83.5886 86.0301C84.7335 86.5717 86.3904 87.3546 88.4549 88.3306C92.5892 90.2985 98.3564 93.0413 104.912 96.1595L104.944 96.1756L104.949 96.2105C105.067 97.047 105.11 97.9183 105.011 98.7924C104.914 99.6664 104.67 100.538 104.282 101.353C104.107 101.726 103.898 102.079 103.668 102.409C103.437 102.739 103.185 103.042 102.898 103.307L102.874 103.329L102.842 103.324C98.9114 102.718 95.1899 102.141 91.8224 101.621C90.9805 101.492 90.1628 101.358 89.3611 101.251C88.5675 101.104 87.8007 100.932 87.0795 100.707C85.6317 100.27 84.3313 99.7201 83.1891 99.1463C82.0443 98.5725 81.0576 97.9693 80.2157 97.4036C79.8029 97.1086 79.4141 96.8432 79.0789 96.5697C78.7331 96.3097 78.4328 96.0523 78.1647 95.819C77.8912 95.5938 77.6687 95.3686 77.4703 95.1809C77.2692 94.9959 77.111 94.827 76.985 94.6902C76.8616 94.5562 76.7651 94.4543 76.6954 94.3792C76.6311 94.3095 76.6016 94.2693 76.6016 94.2693C76.6016 94.2693 76.6391 94.3015 76.7061 94.3685C76.7758 94.4409 76.875 94.5401 77.0037 94.6688C77.1324 94.8028 77.2933 94.9664 77.4971 95.1487C77.6981 95.331 77.9234 95.5536 78.1995 95.7761C78.4703 96.0067 78.7706 96.2587 79.1192 96.5161C79.457 96.7869 79.8484 97.047 80.2586 97.3392C81.1005 97.8969 82.0899 98.4921 83.232 99.0605C84.3742 99.6262 85.6692 100.17 87.1117 100.599C87.8302 100.822 88.5916 100.991 89.3826 101.133C90.1789 101.238 90.9993 101.369 91.8412 101.495C95.2114 102.012 98.9328 102.581 102.866 103.184L102.81 103.2C103.349 102.693 103.812 102.018 104.158 101.291C104.539 100.492 104.78 99.6343 104.874 98.7736C104.973 97.913 104.931 97.055 104.815 96.2292L104.853 96.2802C98.3054 93.1459 92.5463 90.3843 88.4174 88.4083C86.3609 87.4163 84.712 86.6227 83.5699 86.0704C83.0068 85.7969 82.5698 85.5824 82.2668 85.4349C82.122 85.3625 82.0121 85.3089 81.9317 85.2687C81.8566 85.2312 81.8191 85.207 81.8191 85.207V85.2124Z" fill="#455A64"/>
<path d="M76.0485 99.8601C76.0485 99.8601 76.019 99.8145 75.9708 99.7234C75.9252 99.6322 75.8582 99.4982 75.7777 99.3212C75.6142 98.97 75.389 98.4552 75.1396 97.8064C74.649 96.5141 74.0698 94.6533 73.9921 92.5218C73.9572 91.4601 74.0403 90.4439 74.2468 89.5431C74.346 89.0926 74.4881 88.6771 74.6329 88.2937C74.7937 87.9156 74.9573 87.5698 75.1396 87.2721C75.4989 86.6743 75.8689 86.2426 76.1424 85.9691C76.2764 85.827 76.3944 85.7332 76.4695 85.6635C76.5472 85.5964 76.5874 85.5616 76.5901 85.5669C76.5982 85.575 76.4426 85.7251 76.1799 86.0066C75.9198 86.2908 75.5659 86.7252 75.2227 87.3231C75.0485 87.618 74.8903 87.9639 74.7374 88.3366C74.598 88.7173 74.464 89.1275 74.3674 89.5726C74.169 90.46 74.0913 91.4655 74.1261 92.5165C74.2012 94.6238 74.7589 96.4765 75.2254 97.7715C75.4587 98.423 75.6705 98.9405 75.8206 99.2971C75.8903 99.4633 75.9466 99.6001 75.9895 99.71C76.0271 99.8038 76.0458 99.8548 76.0405 99.8574L76.0485 99.8601Z" fill="#455A64"/>
<path d="M61.2283 57.2798C60.6116 55.2367 59.6411 53.2875 59.3247 51.1748L57.3862 51.451C56.0591 51.8049 54.8767 52.6736 54.1394 53.8318C53.402 54.9901 53.1152 56.4272 53.3538 57.7811C53.5683 59.0011 54.1823 60.1137 54.4745 61.3176C54.7667 62.5214 54.6407 63.9746 53.6621 64.7307C54.1233 64.7575 54.5898 64.6154 54.9571 64.3365C55.0054 64.7843 54.8767 65.2508 54.6086 65.6128C55.4558 65.7388 56.3486 65.5377 57.0591 65.0605C57.0752 65.3902 56.9278 65.7254 56.673 65.9372C58.3997 65.9211 60.1049 64.9773 60.987 63.492C62.0756 61.6554 61.8477 59.3228 61.2283 57.2771V57.2798Z" fill="#263238"/>
<path d="M55.3217 57.0278C55.0161 54.9552 56.7857 52.4457 58.8689 52.2285L63.8397 52.3921C64.5234 52.4135 65.1347 52.8157 65.4323 53.4323L67.832 67.1518C67.832 67.1518 68.8133 71.4121 65.0516 71.9483C61.6734 72.4309 61.1077 68.8731 61.1077 68.8704L60.6626 66.2804C60.6626 66.2804 57.9493 66.7442 56.6838 63.4491C56.0537 61.8109 55.6649 59.3282 55.3244 57.0278H55.3217Z" fill="#FFBE9D"/>
<path d="M57.3382 59.4728C57.3785 59.7061 57.609 59.8616 57.853 59.824C58.097 59.7865 58.2606 59.5666 58.2203 59.3334C58.1801 59.1001 57.9495 58.9446 57.7056 58.9821C57.4616 59.0197 57.298 59.2395 57.3382 59.4728Z" fill="#263238"/>
<path d="M56.3084 58.7141C56.3754 58.7597 56.6543 58.4433 57.1235 58.3441C57.5927 58.2396 57.9895 58.4085 58.027 58.3388C58.0458 58.3093 57.9707 58.2181 57.7965 58.1404C57.6249 58.0626 57.3514 58.0117 57.0565 58.0733C56.7642 58.1377 56.539 58.2986 56.421 58.438C56.3004 58.5801 56.2736 58.6927 56.3057 58.7141H56.3084Z" fill="#263238"/>
<path d="M61.307 58.6261C61.3472 58.8594 61.5778 59.0149 61.8218 58.9773C62.0658 58.9398 62.2293 58.72 62.1891 58.4867C62.1489 58.2534 61.9183 58.0979 61.6743 58.1355C61.4303 58.173 61.2668 58.3929 61.307 58.6261Z" fill="#263238"/>
<path d="M60.656 57.8675C60.723 57.913 61.0018 57.5967 61.471 57.4975C61.9402 57.3929 62.337 57.5618 62.3746 57.4921C62.3934 57.4626 62.3183 57.3714 62.144 57.2937C61.9724 57.2159 61.6989 57.165 61.404 57.2267C61.1118 57.291 60.8865 57.4519 60.7686 57.5913C60.6479 57.7334 60.6211 57.846 60.6533 57.8675H60.656Z" fill="#263238"/>
<path d="M59.9651 61.5861C59.9625 61.5619 59.6595 61.5807 59.1742 61.6263C59.0509 61.6397 58.9329 61.6424 58.898 61.578C58.8525 61.511 58.8793 61.3903 58.9115 61.2616C58.9704 60.9935 59.0321 60.7093 59.0965 60.4144C59.1688 60.1061 59.4745 58.3821 59.4477 58.2266C59.3914 58.2212 59.142 59.1918 58.8927 60.3956C58.8337 60.6906 58.7774 60.9748 58.7238 61.2429C58.705 61.3689 58.6541 61.5137 58.7506 61.6558C58.7988 61.7255 58.9007 61.763 58.9812 61.763C59.0616 61.7657 59.1313 61.755 59.1903 61.7442C59.6729 61.6692 59.9678 61.6102 59.9651 61.5861Z" fill="#263238"/>
<path d="M60.6447 66.305C60.6447 66.305 62.9692 65.9645 64.9506 64.1172C64.9506 64.1172 64.291 66.7447 60.8109 67.1522L60.6447 66.305Z" fill="#EB996E"/>
<path d="M61.384 61.3278C61.3063 61.3386 61.4135 61.8507 61.0542 62.3065C60.695 62.7622 60.14 62.8212 60.1507 62.8936C60.1507 62.9258 60.2928 62.966 60.5234 62.9231C60.7513 62.8829 61.065 62.7408 61.2848 62.462C61.5047 62.1831 61.5556 61.8614 61.5288 61.6496C61.502 61.4324 61.4189 61.3171 61.384 61.3278Z" fill="#263238"/>
<path d="M60.4753 56.2634C60.561 56.3974 60.9418 56.2017 61.4405 56.132C61.9338 56.0489 62.3735 56.1159 62.3976 55.9631C62.4057 55.8907 62.2984 55.7754 62.1 55.6816C61.9043 55.5877 61.6174 55.5287 61.3198 55.5743C61.0222 55.6199 60.7809 55.762 60.6361 55.9095C60.4913 56.0569 60.4377 56.199 60.4779 56.2634H60.4753Z" fill="#263238"/>
<path d="M55.9505 57.1002C56.055 57.2155 56.3821 57.0358 56.795 56.9742C57.2052 56.8937 57.5726 56.9554 57.6342 56.8106C57.661 56.7409 57.5886 56.6203 57.417 56.5184C57.2481 56.4192 56.9827 56.3548 56.6985 56.4031C56.4143 56.4514 56.1837 56.6015 56.0577 56.7543C55.929 56.9072 55.8995 57.0439 55.9478 57.1029L55.9505 57.1002Z" fill="#263238"/>
<path d="M57.0903 51.564C56.2967 53.6955 58.3478 54.1138 59.4605 54.7412C60.5758 55.3685 61.8199 55.7225 63.0559 56.0496C63.3615 56.13 63.686 56.2185 63.9031 56.449C64.0828 56.6367 64.1659 56.8968 64.241 57.1435C64.4688 57.8808 64.6967 58.6154 64.9246 59.3527C65.0855 59.8755 65.2491 60.4037 65.2705 60.9507C65.2893 61.4976 65.1499 62.0714 64.7745 62.4682C65.0909 62.436 65.3912 62.2671 65.5815 62.0124C65.6244 62.8087 65.4501 63.6184 65.0802 64.3262C66.0749 64.3155 67.0401 63.6855 67.4449 62.7765C67.4932 63.1519 67.7104 63.4013 68.0214 63.672C68.1447 63.7793 68.3726 63.8436 68.3163 63.6908C68.1983 63.3637 68.1286 62.924 68.0535 62.621C68.5469 62.8221 68.6729 62.9776 69.7212 62.6532C69.1367 62.2028 68.933 61.9105 68.7185 61.2885C68.7185 61.2885 69 61.8676 69.9062 61.5834C69.9062 61.5834 68.7372 60.6558 68.6488 59.1061C68.5737 57.7494 68.6219 56.1568 68.3458 54.8323C68.0696 53.5078 67.4288 52.2236 66.3805 51.371C65.5172 50.6712 64.426 50.2958 63.3374 50.1001C62.1657 49.891 60.9646 49.9071 59.7902 50.1001C59.0529 50.2234 57.4389 50.4889 57.0903 51.5613" fill="#263238"/>
<path d="M65.0802 64.3234C65.0775 64.3047 65.359 64.2993 65.8416 64.1438C66.0803 64.0661 66.3698 63.9374 66.6567 63.7148C66.9382 63.495 67.2358 63.1813 67.4047 62.7603L67.4557 62.6343L67.4879 62.7657C67.5388 62.9695 67.6192 63.1813 67.7613 63.3663C67.8954 63.5486 68.1099 63.7041 68.3458 63.7363L68.2922 63.8006C68.201 63.4306 68.1018 63.0419 68.0026 62.6343L67.9705 62.5003L68.0884 62.5727C68.5389 62.8435 69.1662 62.8461 69.6971 62.5995L69.6918 62.7067C69.2172 62.4011 68.8284 61.9024 68.6595 61.3072L68.563 60.9666L68.7748 61.2482C69.0054 61.5565 69.496 61.6986 69.8821 61.5216L69.8687 61.6369C69.1528 61.0739 68.7668 60.1623 68.6059 59.2427C68.445 58.3391 68.496 57.4436 68.4906 56.5964C68.4933 55.7465 68.4316 54.926 68.1903 54.186C67.7184 52.698 66.7184 51.5987 65.729 50.9794C64.7263 50.352 63.7637 50.1509 63.1122 50.0839C62.7851 50.049 62.5277 50.0517 62.3535 50.0517C62.273 50.0517 62.2087 50.0571 62.1551 50.0571C62.1095 50.0571 62.088 50.0571 62.088 50.0544C62.088 50.0544 62.4527 49.982 63.1176 50.0303C63.7745 50.0812 64.7558 50.2689 65.78 50.8963C66.7934 51.5156 67.823 52.6283 68.311 54.1458C68.563 54.9019 68.6273 55.7411 68.6247 56.5964C68.63 57.449 68.5818 58.3364 68.74 59.2185C68.8955 60.1194 69.2735 60.9935 69.9491 61.5297L70.0376 61.5994L69.9357 61.645C69.4826 61.8487 68.9384 61.6852 68.6676 61.3286L68.7855 61.2696C68.941 61.8327 69.3084 62.3072 69.7588 62.5995L69.8526 62.6611L69.7534 62.7067C69.1823 62.9721 68.5174 62.9641 68.0294 62.6665L68.1152 62.6048C68.2144 63.0124 68.3056 63.4038 68.3968 63.7738L68.4155 63.8489L68.3431 63.8382C68.0563 63.7953 67.8364 63.621 67.6889 63.4226C67.5388 63.2215 67.4584 62.9963 67.4074 62.7845L67.4932 62.7898C67.3055 63.2376 66.9972 63.5486 66.7023 63.7711C66.4047 63.9937 66.1071 64.117 65.8604 64.1894C65.6164 64.2645 65.418 64.2966 65.2866 64.31C65.1553 64.3234 65.0855 64.3288 65.0855 64.3261L65.0802 64.3234Z" fill="#455A64"/>
<path d="M67.5325 60.4094C67.5325 60.4094 67.5272 60.3558 67.5325 60.2539C67.5406 60.1359 67.5486 59.9884 67.5594 59.8088C67.5808 59.4227 67.6157 58.8624 67.5674 58.1733C67.5165 57.4896 67.3744 56.6611 66.9373 55.8648C66.7202 55.468 66.4279 55.0873 66.0472 54.7763C65.6692 54.4653 65.2134 54.2213 64.72 54.047C63.728 53.7012 62.7145 53.6207 61.8056 53.5322C60.8914 53.4518 60.0656 53.3365 59.3926 53.1354C58.7196 52.9451 58.2156 52.6636 57.9019 52.4357C57.7464 52.315 57.6311 52.2212 57.5587 52.1461C57.4863 52.0737 57.4488 52.0362 57.4514 52.0308C57.4622 52.0201 57.6123 52.1729 57.9314 52.3928C58.2504 52.6046 58.7518 52.8673 59.4194 53.0443C60.0843 53.2293 60.9021 53.3312 61.8163 53.4062C62.7279 53.4867 63.7495 53.5644 64.7656 53.9183C65.2697 54.0953 65.7415 54.3473 66.133 54.6717C66.5271 54.9962 66.8274 55.3956 67.0473 55.8032C67.4897 56.6263 67.6237 57.4735 67.6639 58.1679C67.6988 58.865 67.6478 59.4281 67.6103 59.8142C67.5915 60.0072 67.5701 60.1574 67.5567 60.2592C67.5406 60.3611 67.5325 60.4121 67.5272 60.4121L67.5325 60.4094Z" fill="#455A64"/>
<path d="M53.9089 79.0078L53.7266 81.1501C55.6248 81.2358 57.0485 81.7694 58.2443 82.4477L58.1129 79.0078H53.9089Z" fill="#FFBE9D"/>
<path d="M56.674 93.543C56.674 93.543 54.5479 99.4362 56.2075 102.324C57.8671 105.211 58.457 105.643 60.559 105.52C62.661 105.396 64.074 103.798 64.5056 103.184C64.9346 102.57 65.8569 94.0899 65.8569 94.0899L65.4869 86.127L59.1594 86.4085L56.6767 93.5457L56.674 93.543Z" fill="#263238"/>
<path d="M74.1551 85.6094C74.1551 85.6094 74.9004 90.0359 74.8388 93.9075C74.7771 97.7791 73.3802 102.533 71.8761 104.474C71.1629 105.396 69.3076 105.646 68.0045 105.536C66.798 105.434 65.6398 104.455 65.5781 102.611C65.5164 100.766 65.8676 93.5322 65.8542 93.6555C65.8408 93.7788 64.1464 88.261 64.1464 88.261L65.1786 86.1242L74.1551 85.6094Z" fill="#263238"/>
<path d="M66.1572 92.2266C66.1948 92.232 66.125 93.0014 65.999 93.9479C65.873 94.8943 65.7416 95.6558 65.7014 95.6504C65.6639 95.645 65.7336 94.8756 65.8596 93.9291C65.9856 92.9827 66.117 92.2212 66.1572 92.2266Z" fill="#455A64"/>
<path d="M56.2075 102.324C56.2075 102.324 56.1726 102.291 56.119 102.219C56.0627 102.149 55.9957 102.034 55.9233 101.881C55.7812 101.573 55.6498 101.093 55.5935 100.492C55.4729 99.2886 55.623 97.6156 56.0037 95.8192C56.3818 94.0201 56.9099 92.4383 57.355 91.3229C57.5776 90.7652 57.7813 90.3228 57.9261 90.0199C57.9985 89.8697 58.0602 89.7544 58.1031 89.674C58.146 89.5963 58.1701 89.556 58.1728 89.5587C58.1781 89.5587 58.162 89.6043 58.1272 89.6874C58.087 89.7839 58.036 89.9019 57.9744 90.0413C57.843 90.3497 57.6553 90.7974 57.4462 91.3578C57.0252 92.4785 56.5131 94.0577 56.1378 95.846C55.7597 97.6316 55.5962 99.2913 55.69 100.482C55.7329 101.077 55.8455 101.549 55.9715 101.857C56.0949 102.165 56.2182 102.31 56.2048 102.318L56.2075 102.324Z" fill="#455A64"/>
<g opacity="0.3">
<path d="M58.2772 89.3527L58.1914 89.7039C61.6635 91.4842 65.7925 91.7362 69.5997 90.8863C71.3344 90.4975 73.1227 89.8192 74.1871 88.3955C68.9214 89.1516 63.5939 89.4706 58.2772 89.3554V89.3527Z" fill="black"/>
</g>
<path d="M59.2616 67.4287C59.2616 67.4287 56.0389 67.855 55.0334 72.5899C54.0816 77.0674 53.6875 79.0086 53.6875 79.0086H59.7362L59.2616 67.4287Z" fill="#FEF2CA"/>
<path d="M67.5293 65.093C67.5293 65.093 71.8888 64.2029 74.2804 66.7365C76.2537 68.8278 77.8919 72.2543 77.8919 72.2543L73.0632 74.7129L67.5293 65.093Z" fill="#FEF2CA"/>
<path d="M59.2616 67.4285L60.7121 66.9781C60.7121 66.9781 62.7122 67.8334 64.5193 67.3159C66.7768 66.6698 67.4685 65.0879 67.4685 65.0879L71.1122 65.3104L73.4689 76.6463L74.839 88.3683C68.8896 90.4783 63.168 91.3792 57.9746 89.489L58.4331 87.9393L57.9746 74.6247L59.2616 67.4285Z" fill="#FEF2CA"/>
<path d="M58.3697 86.1238C58.3697 86.1238 58.359 86.0729 58.351 85.9737C58.3429 85.8584 58.3349 85.7163 58.3241 85.542C58.3054 85.1479 58.2786 84.6117 58.2464 83.9575C58.2196 83.2818 58.1874 82.4882 58.1499 81.6061C58.1338 81.1637 58.115 80.6999 58.0989 80.2173C58.0828 79.7347 58.0694 79.236 58.0212 78.7319C57.8362 76.6996 57.4126 74.8952 57.1713 73.5761C57.0452 72.9192 56.9514 72.383 56.8924 72.013C56.8683 71.8414 56.8468 71.6993 56.8307 71.5867C56.8173 71.4875 56.8147 71.4365 56.8173 71.4365C56.8227 71.4365 56.8361 71.4848 56.8576 71.5813C56.8817 71.6939 56.9112 71.8333 56.946 72.0022C57.0265 72.3883 57.1364 72.9138 57.2678 73.5546C57.5332 74.8657 57.9756 76.6701 58.1606 78.7158C58.2089 79.2279 58.2196 79.7266 58.2357 80.2092C58.2518 80.6892 58.2652 81.1557 58.2786 81.5981C58.3027 82.4775 58.3268 83.2738 58.3456 83.9494C58.359 84.6036 58.3697 85.1425 58.3778 85.5367C58.3778 85.7109 58.3778 85.853 58.3778 85.9683C58.3778 86.0675 58.3724 86.1185 58.3697 86.1185V86.1238Z" fill="#263238"/>
<path d="M70.7959 84.2949C70.7959 84.2949 70.6753 84.3727 70.442 84.4933C70.2115 84.614 69.8709 84.7749 69.4446 84.9625C68.592 85.3379 67.3909 85.8044 66.0289 86.2146C64.6668 86.6275 63.4121 86.9144 62.4978 87.0887C62.042 87.1772 61.6693 87.2388 61.4119 87.2764C61.1545 87.3139 61.0098 87.33 61.0098 87.3193C61.0098 87.3085 61.1492 87.2764 61.4039 87.2227C61.6827 87.1638 62.0447 87.086 62.479 86.9922C63.3853 86.7937 64.6347 86.4935 65.9913 86.0832C67.348 85.6757 68.5491 85.2253 69.4098 84.8741C69.8388 84.6971 70.1846 84.5496 70.4233 84.4451C70.6619 84.3405 70.7959 84.2896 70.8013 84.2976L70.7959 84.2949Z" fill="#263238"/>
<g opacity="0.3">
<path d="M57.0227 72.5898L56.953 72.7159C56.3631 74.472 56.768 76.5284 57.9799 77.9307C57.8029 76.129 57.4812 74.3406 57.02 72.5898H57.0227Z" fill="black"/>
</g>
<path d="M70.0026 83.2687C70.0107 83.2848 69.7559 83.4698 69.3189 83.7326C68.8819 83.9953 68.2572 84.3305 67.5413 84.6415C66.8255 84.9525 66.1552 85.1804 65.6645 85.3225C65.1739 85.4646 64.8629 85.5262 64.8575 85.5075C64.8521 85.486 65.1524 85.3922 65.6323 85.2286C66.1123 85.0651 66.7718 84.8211 67.4823 84.5128C68.1928 84.2044 68.8175 83.8854 69.2653 83.6468C69.713 83.4081 69.9865 83.2526 69.9999 83.2687H70.0026Z" fill="#263238"/>
<path d="M77.1787 71.3691C77.1787 71.3691 77.9724 73.388 78.6105 75.1227C79.2861 76.9647 80.5516 81.0695 77.8705 82.0374C75.8301 82.7747 74.8166 80.4502 74.8166 80.4502L73.1758 74.6804L74.6906 73.8653L74.1919 72.447L77.1734 71.3691H77.1787Z" fill="#FFBE9D"/>
<path d="M74.4575 73.115C74.4575 73.115 73.2751 71.8978 73.1062 71.4688L72.4922 68.8627C72.4922 68.8627 72.7147 68.4981 73.1303 68.852C73.377 69.0611 73.6317 69.5196 73.6317 69.5196L73.9749 70.2489L74.1357 69.7797L73.873 67.9913C73.873 67.9913 73.6478 66.7097 73.9293 66.7607C74.2108 66.8116 74.4226 67.1387 74.5218 67.691C74.6183 68.2434 74.7417 68.9458 74.7417 68.9458C74.7417 68.9458 74.7953 69.1576 74.8945 68.7394C74.991 68.3211 74.6559 66.7955 74.6666 66.5703C74.6773 66.3451 74.5004 65.8196 74.8784 65.7311C75.2564 65.6427 75.3154 66.3666 75.3154 66.3666L75.8463 68.6107C75.8463 68.6107 75.8356 67.6428 75.8383 67.4766C75.8436 67.3103 75.7498 66.8089 75.7659 66.514C75.782 66.2191 75.9133 66.0287 76.0849 65.9912C76.3906 65.9269 76.4737 66.144 76.4737 66.144L76.6855 68.1415C76.6855 68.1415 76.7284 69.0692 76.7713 69.1147C76.8142 69.1603 77.0287 68.6402 77.0287 68.6402L77.0743 67.9565C77.0743 67.9565 76.967 67.0395 77.2378 66.9269C77.5086 66.8143 77.589 66.9805 77.589 66.9805L77.766 68.6589L77.64 70.6644L77.2351 72.5064L76.3021 72.7825L74.4494 73.115H74.4575Z" fill="#FFBE9D"/>
<path d="M75.7598 80.4989C75.7598 80.4989 75.7357 80.4882 75.6955 80.4534C75.6552 80.4212 75.6016 80.3676 75.5373 80.2925C75.4139 80.1397 75.2665 79.8903 75.1673 79.5552C74.9635 78.8849 74.8831 77.9143 74.9474 76.8606C75.0118 75.8096 74.8938 74.8658 74.7356 74.1982C74.5801 73.5306 74.4219 73.1311 74.4434 73.1231C74.4514 73.1204 74.5024 73.2143 74.5747 73.3939C74.6471 73.5735 74.741 73.839 74.8321 74.1741C75.0171 74.8417 75.1539 75.8096 75.0895 76.866C75.0681 77.3915 75.0493 77.8902 75.0868 78.3406C75.1217 78.7937 75.1753 79.1986 75.2665 79.5284C75.3523 79.8581 75.4783 80.1048 75.5855 80.263C75.6928 80.4185 75.7732 80.4909 75.7652 80.5016L75.7598 80.4989Z" fill="#EB996E"/>
<path d="M75.8593 71.6454C75.8379 71.6534 75.7762 71.4738 75.5939 71.2432C75.4143 71.0153 75.0925 70.7365 74.6582 70.6292C74.5509 70.5997 74.4464 70.589 74.3338 70.5756C74.2774 70.5676 74.2211 70.5568 74.1648 70.5408C74.1327 70.5273 74.1166 70.53 74.0764 70.4979C74.0415 70.4684 74.0308 70.4469 74.0147 70.4255C73.9021 70.2458 73.8377 70.0796 73.7761 69.9402C73.6608 69.6586 73.5938 69.4871 73.6072 69.479C73.6259 69.4683 73.7278 69.6292 73.8672 69.8973C73.9396 70.0287 74.0174 70.1949 74.1219 70.3504C74.1541 70.3933 74.1541 70.396 74.2077 70.4121C74.2506 70.4255 74.3016 70.4335 74.3525 70.4389C74.4571 70.4496 74.5777 70.4603 74.693 70.4925C75.1649 70.6131 75.5054 70.9268 75.6743 71.1842C75.8459 71.447 75.8754 71.6427 75.8593 71.6454Z" fill="#EB996E"/>
<path d="M56.1799 81.1446C56.078 80.9516 55.8448 80.8711 55.6303 80.847C55.4158 80.8229 55.1906 80.839 54.9868 80.7666C54.8206 80.7076 54.6812 80.5923 54.523 80.5172C54.1208 80.3269 53.6007 80.4287 53.2977 80.7585L53.1744 80.6835C52.9974 80.5333 52.7293 80.528 52.5148 80.6191C52.3003 80.7103 52.1314 80.8819 51.9866 81.0642C51.5549 81.595 51.2707 82.2439 51.1662 82.9222C51.126 83.185 51.1394 83.504 51.3646 83.6434C51.5201 83.74 51.7319 83.7051 51.8847 83.6059C52.0375 83.5067 52.1475 83.3512 52.2467 83.1957C52.555 82.7077 52.8017 82.1795 52.9759 81.6299C52.8231 82.2895 52.673 82.9517 52.6274 83.6274C52.6167 83.7989 52.614 83.9759 52.673 84.1395C52.7346 84.3003 52.8741 84.4424 53.0457 84.4585C53.1878 84.4719 53.3245 84.3968 53.421 84.295C53.5175 84.1931 53.5819 84.0617 53.6409 83.933C53.9063 83.3539 54.1315 82.756 54.3112 82.1447C54.1825 82.7748 54.1101 83.4155 54.094 84.0563C54.0886 84.2762 54.1074 84.5336 54.2924 84.6542C54.4264 84.7427 54.6114 84.7213 54.7482 84.6355C54.8849 84.5497 54.9788 84.4129 55.0512 84.2681C55.3917 83.6059 55.3729 82.7882 55.7938 82.1715C55.9038 82.0106 56.0405 81.8685 56.1317 81.6996C56.2255 81.5307 56.2684 81.3162 56.1772 81.1446H56.1799Z" fill="#FFBE9D"/>
<path d="M56.1797 81.1451C56.1797 81.1451 56.2119 81.1799 56.2306 81.2657C56.2494 81.3515 56.2494 81.4883 56.1824 81.6465C56.118 81.8046 55.9813 81.9655 55.8446 82.1559C55.7105 82.3489 55.6006 82.5983 55.5201 82.8905C55.4344 83.1828 55.378 83.5152 55.2654 83.8691C55.2091 84.0461 55.1394 84.2284 55.0349 84.4027C54.933 84.5743 54.7533 84.7539 54.512 84.762C54.3941 84.77 54.2654 84.7217 54.1823 84.6252C54.0991 84.5314 54.0643 84.408 54.0482 84.2928C54.0241 84.0568 54.0482 83.8316 54.0562 83.5957C54.0857 83.1238 54.1474 82.6331 54.2493 82.1291L54.3726 82.1612C54.2734 82.5017 54.1554 82.8476 54.0241 83.1962C53.957 83.3704 53.8846 83.5447 53.8096 83.719C53.7291 83.8933 53.6648 84.0729 53.5468 84.2445C53.4342 84.4134 53.2197 84.5689 52.9784 84.5126C52.7452 84.4509 52.6057 84.2311 52.5709 84.0193C52.5334 83.8048 52.5602 83.5983 52.5763 83.3946C52.595 83.1908 52.6245 82.9844 52.6594 82.7806C52.7291 82.3811 52.8176 81.9896 52.906 81.6062L53.0401 81.6438C52.8202 82.3114 52.528 82.9254 52.1285 83.4643C52.0213 83.593 51.8711 83.7109 51.6942 83.7458C51.5226 83.7887 51.3134 83.727 51.2035 83.5769C51.0963 83.4267 51.0775 83.2525 51.0829 83.0943C51.0882 82.9334 51.1204 82.7833 51.1526 82.6358C51.2893 82.0433 51.5521 81.5178 51.8845 81.0915C52.0481 80.8797 52.2331 80.6786 52.477 80.5713C52.7157 80.4668 53.0079 80.4721 53.2036 80.6384L53.1983 80.633C53.2439 80.6598 53.2814 80.6839 53.3216 80.7107L53.2626 80.7188C53.6273 80.3381 54.1715 80.3005 54.5308 80.4748C54.7104 80.5633 54.8499 80.6786 55.0027 80.7322C55.1528 80.7858 55.3057 80.7912 55.4397 80.8019C55.7132 80.8099 55.9304 80.8743 56.043 80.9681C56.1609 81.0593 56.1797 81.1397 56.1797 81.1397C56.1717 81.1451 56.1449 81.07 56.0296 80.9896C55.9143 80.9091 55.7105 80.8555 55.4397 80.8555C55.3057 80.8502 55.1475 80.8502 54.9839 80.7939C54.8177 80.7402 54.6729 80.6223 54.5013 80.5445C54.1662 80.389 53.6594 80.4373 53.335 80.7858L53.3082 80.8153L53.2733 80.7939C53.2331 80.7697 53.1929 80.7456 53.15 80.7188H53.1473L53.1447 80.7134C52.9865 80.5794 52.7318 80.5713 52.5226 80.6678C52.3081 80.7644 52.1339 80.952 51.9757 81.1612C51.6566 81.5767 51.4046 82.0888 51.2786 82.6626C51.2491 82.8074 51.2196 82.9549 51.2142 83.097C51.2089 83.2417 51.233 83.3919 51.3108 83.4965C51.3912 83.6037 51.5306 83.6466 51.67 83.6144C51.8094 83.5876 51.9301 83.4938 52.0293 83.3758C52.402 82.8664 52.6996 82.247 52.9114 81.5982L53.0455 81.6357C52.957 82.0191 52.8685 82.4052 52.8015 82.802C52.7666 83.0031 52.7371 83.2042 52.7184 83.4053C52.7023 83.6064 52.6781 83.8075 52.7103 83.9898C52.7398 84.1694 52.8551 84.333 53.0133 84.3732C53.1688 84.4134 53.3404 84.3062 53.4369 84.1614C53.5388 84.0139 53.6085 83.8316 53.6862 83.66C53.7613 83.4857 53.8337 83.3141 53.9007 83.1425C54.0348 82.7994 54.1501 82.4562 54.252 82.1183L54.3753 82.1505C54.2734 82.6492 54.2091 83.1345 54.1769 83.601C54.1662 83.8316 54.142 84.0675 54.1608 84.2767C54.1742 84.3812 54.2037 84.4804 54.2654 84.5501C54.3244 84.6199 54.4155 84.6547 54.5094 84.652C54.7024 84.6467 54.8552 84.5046 54.9517 84.3464C55.0509 84.1828 55.1233 84.0086 55.1796 83.837C55.2922 83.4911 55.3566 83.1586 55.4478 82.8637C55.5362 82.5688 55.6542 82.3114 55.799 82.1157C55.9464 81.9226 56.0832 81.7725 56.1502 81.625C56.2923 81.3194 56.1717 81.137 56.1851 81.1397L56.1797 81.1451Z" fill="#EB996E"/>
</g>
<defs>
<clipPath id="clip0_134_12265">
<rect width="120" height="115.08" fill="white"/>
</clipPath>
</defs>
</svg>
