<svg width="40" height="40" viewBox="0 0 40 40" fill="none" xmlns="http://www.w3.org/2000/svg">
<path d="M39 20C39 29.4837 32.0516 37.3442 22.9688 38.7692V25.4922H27.3959L28.2383 20H22.9688V16.436C22.9688 14.9331 23.705 13.4688 26.0652 13.4688H28.4609V8.79297C28.4609 8.79297 26.2863 8.42188 24.2075 8.42188C19.8679 8.42188 17.0312 11.0522 17.0312 15.8141V20H12.207V25.4922H17.0312V38.7692C7.94836 37.3442 1 29.4837 1 20C1 9.50695 9.50695 1 20 1C30.493 1 39 9.50695 39 20Z" fill="#1877F2"/>
<path d="M27.3959 25.4922L28.2383 20H22.9688V16.4359C22.9688 14.9334 23.7049 13.4688 26.0651 13.4688H28.4609V8.79297C28.4609 8.79297 26.2866 8.42188 24.2078 8.42188C19.8678 8.42188 17.0312 11.0522 17.0312 15.8141V20H12.207V25.4922H17.0312V38.7691C17.9986 38.9209 18.99 39 20 39C21.01 39 22.0014 38.9209 22.9688 38.7691V25.4922H27.3959Z" fill="white"/>
</svg>
