<svg width="92" height="39" viewBox="0 0 92 39" fill="none" xmlns="http://www.w3.org/2000/svg">
<path d="M7.09984 10.8925C5.17984 10.8925 3.25984 10.6325 1.38984 10.1025C0.639839 9.8925 0.199839 9.11249 0.409839 8.36249C0.619839 7.61249 1.39984 7.1725 2.14984 7.3825C5.38984 8.2925 8.80984 8.2925 12.0498 7.3825C12.7998 7.1725 13.5798 7.61249 13.7898 8.36249C13.9998 9.11249 13.5598 9.8925 12.8098 10.1025C10.9398 10.6225 9.01984 10.8925 7.09984 10.8925Z" fill="#1E1D20"/>
<path d="M11.0205 7.99278C6.64051 7.99278 3.14051 6.11278 0.600515 2.38278C0.160515 1.74278 0.330514 0.86278 0.970514 0.42278C1.61051 -0.0172198 2.49051 0.152779 2.93051 0.792779C5.59051 4.69278 9.47051 5.96278 14.7905 4.68278C15.5505 4.50278 16.3105 4.96278 16.4905 5.72278C16.6705 6.48278 16.2105 7.24278 15.4505 7.42278C13.8905 7.80278 12.4105 7.99278 11.0205 7.99278Z" fill="#1E1D20"/>
<path d="M84.9006 10.8925C82.9806 10.8925 81.0606 10.6325 79.1906 10.1025C78.4406 9.8925 78.0006 9.11249 78.2106 8.36249C78.4206 7.61249 79.2006 7.1725 79.9506 7.3825C83.1906 8.2925 86.6106 8.2925 89.8506 7.3825C90.6006 7.1725 91.3806 7.61249 91.5906 8.36249C91.8006 9.11249 91.3606 9.8925 90.6106 10.1025C88.7406 10.6225 86.8206 10.8925 84.9006 10.8925Z" fill="#1E1D20"/>
<path d="M80.9699 7.99278C79.5799 7.99278 78.1099 7.80278 76.5399 7.42278C75.7799 7.24278 75.3199 6.47278 75.4999 5.72278C75.6799 4.96278 76.4499 4.50278 77.1999 4.68278C82.5199 5.96278 86.3999 4.69278 89.0599 0.792779C89.4999 0.152779 90.3799 -0.0172198 91.0199 0.42278C91.6599 0.86278 91.8299 1.74278 91.3899 2.38278C88.8499 6.11278 85.3499 7.99278 80.9699 7.99278Z" fill="#1E1D20"/>
<path fill-rule="evenodd" clip-rule="evenodd" d="M21.3305 25.1128C27.3905 25.1128 32.3405 20.1628 32.3405 14.1028C32.3405 8.04278 27.3905 3.09277 21.3305 3.09277C15.2705 3.09277 10.3205 8.04278 10.3205 14.1028C10.3205 20.1628 15.2705 25.1128 21.3305 25.1128Z" fill="#1E1D20"/>
<path fill-rule="evenodd" clip-rule="evenodd" d="M15.6197 15.1232C17.3797 15.1232 18.8097 13.6932 18.8097 11.9332C18.8097 10.1732 17.3797 8.74316 15.6197 8.74316C13.8597 8.74316 12.4297 10.1732 12.4297 11.9332C12.4297 13.6932 13.8597 15.1232 15.6197 15.1232Z" fill="white"/>
<path fill-rule="evenodd" clip-rule="evenodd" d="M19.6011 9.36234C20.5511 9.36234 21.3311 8.58234 21.3311 7.63234C21.3311 6.68234 20.5511 5.90234 19.6011 5.90234C18.6511 5.90234 17.8711 6.68234 17.8711 7.63234C17.8711 8.58234 18.6511 9.36234 19.6011 9.36234Z" fill="white"/>
<path fill-rule="evenodd" clip-rule="evenodd" d="M70.6311 25.1128C76.6911 25.1128 81.6411 20.1628 81.6411 14.1028C81.6411 8.04278 76.6911 3.09277 70.6311 3.09277C64.5711 3.09277 59.6211 8.04278 59.6211 14.1028C59.6211 20.1628 64.5711 25.1128 70.6311 25.1128Z" fill="#1E1D20"/>
<path fill-rule="evenodd" clip-rule="evenodd" d="M76.3502 15.1232C78.1102 15.1232 79.5402 13.6932 79.5402 11.9332C79.5402 10.1732 78.1102 8.74316 76.3502 8.74316C74.5902 8.74316 73.1602 10.1732 73.1602 11.9332C73.1602 13.6932 74.5902 15.1232 76.3502 15.1232Z" fill="white"/>
<path d="M72.3609 9.37309C73.3163 9.37309 74.0909 8.59854 74.0909 7.64309C74.0909 6.68763 73.3163 5.91309 72.3609 5.91309C71.4054 5.91309 70.6309 6.68763 70.6309 7.64309C70.6309 8.59854 71.4054 9.37309 72.3609 9.37309Z" fill="white"/>
<path fill-rule="evenodd" clip-rule="evenodd" d="M17.8804 34.2525C22.6904 34.2525 26.6004 32.5825 26.6004 30.5325C26.6004 28.4825 22.6804 26.8125 17.8804 26.8125C13.0804 26.8125 9.15039 28.4825 9.15039 30.5325C9.15039 32.5825 13.0704 34.2525 17.8804 34.2525Z" fill="#FFBB96"/>
<path fill-rule="evenodd" clip-rule="evenodd" d="M76.3511 34.2525C81.1611 34.2525 85.0711 32.5825 85.0711 30.5325C85.0711 28.4825 81.1511 26.8125 76.3511 26.8125C71.5511 26.8125 67.6211 28.4825 67.6211 30.5325C67.6211 32.5825 71.5411 34.2525 76.3511 34.2525Z" fill="#FFBB96"/>
<path fill-rule="evenodd" clip-rule="evenodd" d="M36.8301 31.043C38.1801 35.593 42.3601 38.723 47.1101 38.723C51.8601 38.723 56.0401 35.603 57.3901 31.043H36.8301Z" fill="#FF3C2E"/>
</svg>
