<svg width="40" height="40" viewBox="0 0 40 40" fill="none" xmlns="http://www.w3.org/2000/svg">
<path d="M29.1797 12.7972C28.3461 11.8871 27.0502 10.6587 26.4989 13.4323C26.3114 14.3754 25.8733 15.1023 25.4979 15.6877C25.0933 13.6398 23.876 11.5202 22.729 10.0911C22.2997 9.5564 20.7768 7.43085 20.4842 3.87492C20.4405 3.34421 19.8101 3.09499 19.4158 3.45296C15.6477 6.87359 13.5794 11.5781 13.5026 16.8744C13.5026 16.8744 11.9336 15.5519 11.0811 13.0914C10.8516 12.4288 9.96334 12.3024 9.57794 12.8883C9.50396 13.0008 9.43537 13.1134 9.37349 13.2228C6.46623 18.3634 5.06771 24.606 6.3606 30.4138C8.52232 40.1402 22.8219 42.8594 30.3921 36.7462C37.7987 30.7652 35.4444 19.6333 29.1797 12.7972Z" fill="#ED694A"/>
<path d="M8.37271 31.0245C7.09482 25.1546 8.44748 18.8512 11.2865 13.6301C11.2147 13.4569 11.1456 13.2778 11.0811 13.0915C10.8515 12.4289 9.96326 12.3025 9.57787 12.8884C9.50388 13.0009 9.43537 13.1135 9.37349 13.2229C6.46623 18.3635 5.06771 24.6061 6.3606 30.4139C7.34662 34.8503 10.8582 37.828 15.1044 39.1756C11.7919 37.571 9.19779 34.8203 8.37271 31.0245Z" fill="#D8553A"/>
<path d="M15.5241 16.7765C15.681 11.9697 17.4196 7.65954 20.5313 4.34844C20.5099 4.1661 20.4941 4.00305 20.4838 3.8793C20.4392 3.34407 19.8319 3.07563 19.4393 3.43047C15.7998 6.72094 13.5816 11.3779 13.502 16.8738L14.1831 17.4028C14.5186 17.6634 14.9731 17.652 15.2935 17.4134C15.4847 17.2513 15.5121 17.0068 15.5241 16.7765Z" fill="#D8553A"/>
<path d="M26.8934 19.9067C26.2778 19.2345 25.3205 18.3271 24.9133 20.3758C24.7749 21.0723 24.4512 21.6093 24.1741 22.0417C23.8753 20.5291 22.976 18.9635 22.1289 17.9079C21.8118 17.513 20.687 15.9431 20.4708 13.3164C20.4385 12.9244 19.973 12.7404 19.6817 13.0048C16.8985 15.5313 15.3708 19.0063 15.3142 22.9182C15.3142 22.9182 14.1552 21.9413 13.5256 20.1239C13.3561 19.6346 12.6999 19.5412 12.4153 19.9739C12.3607 20.057 12.31 20.1403 12.2643 20.2211C10.1169 24.018 9.08393 28.6289 10.0389 32.9187C11.6356 40.1028 22.1974 42.1113 27.789 37.5959C33.2596 33.1783 31.5206 24.9561 26.8934 19.9067Z" fill="#F4A32C"/>
<path d="M12.0303 33.4823C11.1849 29.2889 12.0606 24.7892 13.9172 21.0424C13.7757 20.7653 13.6417 20.4591 13.5256 20.1241C13.356 19.6347 12.6999 19.5413 12.4153 19.974C12.3607 20.0571 12.3099 20.1403 12.2642 20.2212C10.1169 24.0181 9.08401 28.629 10.0388 32.9188C10.7814 36.26 13.4635 38.481 16.6826 39.4474C14.3955 38.3005 12.5947 36.2853 12.0303 33.4823Z" fill="#E89528"/>
<path d="M24.8077 26.3986C24.3909 25.9436 23.7428 25.3293 23.4672 26.7162C23.3735 27.1878 23.1544 27.5512 22.9667 27.8439C22.7644 26.8199 22.1558 25.7601 21.5822 25.0456C21.3677 24.7783 20.6062 23.7155 20.4598 21.9375C20.4379 21.6721 20.1228 21.5475 19.9256 21.7265C18.0416 23.4368 17.0074 25.7892 16.9691 28.4372C16.9691 28.4372 16.1845 27.7759 15.7584 26.5458C15.6436 26.2145 15.1995 26.1513 15.0068 26.4442C14.9698 26.5004 14.9355 26.5568 14.9045 26.6115C13.4509 29.1818 12.7516 32.303 13.398 35.207C14.4789 40.0702 21.6287 41.4298 25.4137 38.3732C26.7099 37.3265 27.5136 35.8515 27.6766 34.22C27.9226 31.749 26.9716 28.76 24.8077 26.3986Z" fill="#F4D44E"/>
<path d="M22.8701 32.4232C22.6379 32.1697 22.2769 31.8275 22.1233 32.6001C22.0711 32.8628 21.9491 33.0653 21.8445 33.2283C21.7318 32.6579 21.3927 32.0674 21.0732 31.6694C20.9536 31.5204 20.5293 30.9283 20.4478 29.9377C20.4356 29.7898 20.26 29.7205 20.1502 29.8201C19.1006 30.773 18.5243 32.0836 18.503 33.5589C18.503 33.5589 18.0659 33.1904 17.8285 32.5051C17.7645 32.3204 17.5171 32.2852 17.4098 32.4485C17.3892 32.4798 17.3701 32.5112 17.3529 32.5417C16.5431 33.9737 16.1535 35.7126 16.5136 37.3305C17.3338 41.0204 24.0563 40.9086 24.4686 36.7806C24.6055 35.404 24.0757 33.7387 22.8701 32.4232Z" fill="#EAE9E8"/>
<path d="M18.0745 38.0627C17.7143 36.6154 18.1039 35.0599 18.9138 33.779C18.931 33.7517 18.9501 33.7237 18.9707 33.6956C19.078 33.5496 19.3254 33.5811 19.3893 33.7462C19.6268 34.3593 20.0639 34.6889 20.0639 34.6889C20.0814 33.6045 20.4743 32.6201 21.1957 31.8306C21.0344 31.6072 20.5408 31.0684 20.4478 29.9377C20.4356 29.7898 20.26 29.7205 20.1502 29.8201C19.1006 30.773 18.5243 32.0836 18.503 33.5589C18.503 33.5589 18.0659 33.1905 17.8285 32.5051C17.7646 32.3205 17.5171 32.2853 17.4098 32.4486C17.3892 32.4799 17.3701 32.5113 17.3529 32.5418C16.5431 33.9737 16.1535 35.7127 16.5136 37.3306C16.8469 38.8302 18.2161 39.7315 19.7299 39.949C18.9133 39.548 18.2857 38.9129 18.0745 38.0627Z" fill="#F7E7A1"/>
<path d="M14.422 5.31602C16.1114 3.94187 16.1077 1.37102 14.422 0C12.7325 1.37406 12.7362 3.945 14.422 5.31602Z" fill="#D8553A"/>
<path d="M34.6704 16.3453C36.3598 14.9712 36.3561 12.4003 34.6704 11.0293C33.8982 11.6573 32.9847 14.9743 34.6704 16.3453Z" fill="#D8553A"/>
<path d="M4.74834 17.3919C5.96592 16.4015 5.96326 14.5488 4.74834 13.5605C4.19186 14.0131 3.53342 16.4037 4.74834 17.3919Z" fill="#D8553A"/>
<path d="M25.836 9.14773C27.0536 8.15734 27.0509 6.30461 25.836 5.31641C24.6184 6.30672 24.6211 8.15961 25.836 9.14773Z" fill="#D8553A"/>
<path d="M16.868 22.2918C17.1476 18.9909 18.4081 16.0558 20.5247 13.8182C20.5033 13.6561 20.4852 13.4896 20.4712 13.3184C20.4389 12.9264 19.9734 12.7424 19.6821 13.0068C17.4766 15.0088 16.0612 17.6069 15.5398 20.5456L15.539 20.5454C15.5003 20.7633 15.4523 21.0808 15.422 21.3303C15.4221 21.3305 15.4222 21.3307 15.4223 21.3309C15.359 21.8515 15.3223 22.3815 15.3145 22.9202C15.3734 22.9317 16.7068 23.6171 16.868 22.2918Z" fill="#E89528"/>
<path d="M15.3464 35.8959C14.7718 33.183 15.2612 30.2901 16.398 27.7834C16.1778 27.4746 15.9368 27.0597 15.7584 26.5447C15.6436 26.2135 15.1995 26.1503 15.0068 26.4432C14.9698 26.4994 14.9355 26.5558 14.9045 26.6105C13.4509 29.1808 12.7516 32.302 13.398 35.206C13.9043 37.4835 15.7416 38.9926 17.9409 39.6395C16.6607 38.7897 15.6923 37.5318 15.3464 35.8959Z" fill="#E8C842"/>
<path d="M19.0427 27.2518C19.2332 25.8904 19.79 24.3905 20.6665 23.1365C20.571 22.7825 20.4959 22.3824 20.4593 21.9375C20.4374 21.6721 20.1223 21.5475 19.9252 21.7265C18.7513 22.7922 17.9087 24.1077 17.43 25.5881L17.4288 25.5878C17.3534 25.8204 17.247 26.2057 17.1824 26.5098C17.183 26.5097 17.1835 26.5097 17.1841 26.5094C17.0519 27.13 16.9784 27.7741 16.9688 28.4372C18.0228 28.5687 18.8948 28.3077 19.0427 27.2518Z" fill="#E8C842"/>
</svg>
