<svg width="20" height="20" viewBox="0 0 20 20" fill="none" xmlns="http://www.w3.org/2000/svg">
<path d="M9.99935 1.66406C14.6027 1.66406 18.3344 5.39573 18.3344 9.99906C18.3344 14.6016 14.6027 18.3324 9.99935 18.3324C5.39602 18.3324 1.66602 14.6016 1.66602 9.99906C1.66518 5.39573 5.39602 1.66406 9.99935 1.66406ZM9.99602 8.53906C9.79179 8.53934 9.59478 8.6146 9.44239 8.75056C9.29 8.88651 9.19283 9.07369 9.16935 9.27656L9.16352 9.37323L9.16685 13.9582L9.17185 14.0549C9.19514 14.2582 9.29238 14.4457 9.44506 14.5819C9.59774 14.7181 9.79518 14.7934 9.99977 14.7934C10.2044 14.7934 10.4018 14.7181 10.5545 14.5819C10.7071 14.4457 10.8044 14.2582 10.8277 14.0549L10.8327 13.9574L10.8293 9.3724L10.8235 9.2749C10.7994 9.07219 10.7018 8.88538 10.5491 8.7499C10.3964 8.61442 10.1993 8.53969 9.99518 8.5399M9.99935 5.41573C9.72275 5.41573 9.45748 5.52561 9.2619 5.72119C9.06631 5.91678 8.95643 6.18205 8.95643 6.45865C8.95643 6.73524 9.06631 7.00051 9.2619 7.1961C9.45748 7.39168 9.72275 7.50156 9.99935 7.50156C10.2759 7.50156 10.5412 7.39168 10.7368 7.1961C10.9324 7.00051 11.0423 6.73524 11.0423 6.45865C11.0423 6.18205 10.9324 5.91678 10.7368 5.72119C10.5412 5.52561 10.2759 5.41573 9.99935 5.41573Z" fill="#383939"/>
</svg>
