<svg width="20" height="20" viewBox="0 0 20 20" fill="none" xmlns="http://www.w3.org/2000/svg">
<path d="M8.65961 8.66016C8.30286 9.01504 8.10147 9.49696 8.09961 10.0002C8.09961 10.5041 8.29979 10.9873 8.65611 11.3437C9.01243 11.7 9.4957 11.9002 9.99961 11.9002C10.5028 11.8983 10.9847 11.6969 11.3396 11.3402" stroke="#272828" stroke-linecap="round" stroke-linejoin="round"/>
<path d="M10.0008 4.30078C8.87343 4.30078 7.77139 4.63508 6.83403 5.2614C5.89667 5.88773 5.16609 6.77795 4.73467 7.81949C4.30325 8.86102 4.19037 10.0071 4.41031 11.1128C4.63024 12.2185 5.17312 13.2341 5.97028 14.0313C6.76743 14.8284 7.78308 15.3713 8.88877 15.5913C9.99446 15.8112 11.1405 15.6983 12.1821 15.2669C13.2236 14.8355 14.1138 14.1049 14.7402 13.1675C15.3665 12.2302 15.7008 11.1281 15.7008 10.0008" stroke="#272828" stroke-linecap="round" stroke-linejoin="round"/>
<path d="M10 0.5C8.12108 0.5 6.28435 1.05717 4.72209 2.10104C3.15982 3.14491 1.94218 4.62861 1.22315 6.36451C0.504116 8.10041 0.315985 10.0105 0.682544 11.8534C1.0491 13.6962 1.95389 15.3889 3.28249 16.7175C4.61109 18.0461 6.30383 18.9509 8.14665 19.3175C9.98947 19.684 11.8996 19.4959 13.6355 18.7769C15.3714 18.0578 16.8551 16.8402 17.899 15.2779C18.9428 13.7157 19.5 11.8789 19.5 10M13.525 6.476L10.95 9.05" stroke="#272828" stroke-linecap="round" stroke-linejoin="round"/>
<path d="M18.9392 3.84434L15.6992 4.30034L16.1552 1.06034C16.1586 1.02271 16.1506 0.98493 16.1324 0.951837C16.1142 0.918745 16.0865 0.891839 16.0529 0.874557C16.0193 0.857275 15.9813 0.850403 15.9438 0.854817C15.9063 0.859231 15.8709 0.874732 15.8422 0.899339L13.6942 3.03634C13.4736 3.25856 13.3113 3.53187 13.2218 3.83194C13.1323 4.13202 13.1184 4.44957 13.1812 4.75634L13.5232 6.47634L15.2432 6.81734C15.55 6.88019 15.8676 6.86624 16.1676 6.77674C16.4677 6.68724 16.741 6.52496 16.9632 6.30434L19.0992 4.15734C19.1239 4.12861 19.1395 4.09315 19.1439 4.05552C19.1483 4.01789 19.1413 3.97981 19.1239 3.94616C19.1065 3.91251 19.0794 3.88484 19.0461 3.8667C19.0129 3.84855 18.975 3.84077 18.9372 3.84434" stroke="#272828" stroke-linecap="round" stroke-linejoin="round"/>
</svg>
