<svg width="24" height="24" viewBox="0 0 24 24" fill="none" xmlns="http://www.w3.org/2000/svg">
<path d="M10.6596 10.6602C10.3029 11.015 10.1015 11.497 10.0996 12.0002C10.0996 12.5041 10.2998 12.9873 10.6561 13.3437C11.0124 13.7 11.4957 13.9002 11.9996 13.9002C12.5028 13.8983 12.9847 13.6969 13.3396 13.3402" stroke="#C2C3C3" stroke-linecap="round" stroke-linejoin="round"/>
<path d="M12.0008 6.30078C10.8734 6.30078 9.77139 6.63508 8.83403 7.2614C7.89667 7.88773 7.16609 8.77795 6.73467 9.81949C6.30325 10.861 6.19037 12.0071 6.41031 13.1128C6.63024 14.2185 7.17312 15.2341 7.97028 16.0313C8.76743 16.8284 9.78308 17.3713 10.8888 17.5913C11.9945 17.8112 13.1405 17.6983 14.1821 17.2669C15.2236 16.8355 16.1138 16.1049 16.7402 15.1675C17.3665 14.2302 17.7008 13.1281 17.7008 12.0008" stroke="#C2C3C3" stroke-linecap="round" stroke-linejoin="round"/>
<path d="M12 2.5C10.1211 2.5 8.28435 3.05717 6.72209 4.10104C5.15982 5.14491 3.94218 6.62861 3.22315 8.36451C2.50412 10.1004 2.31598 12.0105 2.68254 13.8534C3.0491 15.6962 3.95389 17.3889 5.28249 18.7175C6.61109 20.0461 8.30383 20.9509 10.1466 21.3175C11.9895 21.684 13.8996 21.4959 15.6355 20.7769C17.3714 20.0578 18.8551 18.8402 19.899 17.2779C20.9428 15.7157 21.5 13.8789 21.5 12M15.525 8.476L12.95 11.05" stroke="#C2C3C3" stroke-linecap="round" stroke-linejoin="round"/>
<path d="M20.9392 5.84434L17.6992 6.30034L18.1552 3.06034C18.1586 3.02271 18.1506 2.98493 18.1324 2.95184C18.1142 2.91875 18.0865 2.89184 18.0529 2.87456C18.0193 2.85728 17.9813 2.8504 17.9438 2.85482C17.9063 2.85923 17.8709 2.87473 17.8422 2.89934L15.6942 5.03634C15.4736 5.25856 15.3113 5.53187 15.2218 5.83194C15.1323 6.13202 15.1184 6.44957 15.1812 6.75634L15.5232 8.47634L17.2432 8.81734C17.55 8.88019 17.8676 8.86624 18.1676 8.77674C18.4677 8.68724 18.741 8.52496 18.9632 8.30434L21.0992 6.15734C21.1239 6.12861 21.1395 6.09315 21.1439 6.05552C21.1483 6.01789 21.1413 5.97981 21.1239 5.94616C21.1065 5.91251 21.0794 5.88484 21.0461 5.8667C21.0129 5.84855 20.975 5.84077 20.9372 5.84434" stroke="#C2C3C3" stroke-linecap="round" stroke-linejoin="round"/>
</svg>
