<svg width="40" height="40" viewBox="0 0 40 40" fill="none" xmlns="http://www.w3.org/2000/svg">
<path d="M37.5651 16.6961L22.0654 16.6953C21.381 16.6953 20.8262 17.25 20.8262 17.9345V22.8859C20.8262 23.5702 21.381 24.1251 22.0653 24.1251H30.7938C29.8381 26.6055 28.0541 28.6828 25.7782 30.0027L29.5 36.4455C35.4703 32.9927 38.9999 26.9343 38.9999 20.1524C38.9999 19.1867 38.9288 18.4964 38.7864 17.7192C38.6782 17.1286 38.1655 16.6961 37.5651 16.6961Z" fill="#167EE6"/>
<path d="M19.9987 31.5648C15.7271 31.5648 11.9981 29.2309 9.99533 25.7773L3.55273 29.4908C6.83133 35.1731 12.9732 38.9996 19.9987 38.9996C23.4452 38.9996 26.6972 38.0716 29.4986 36.4545V36.4456L25.7768 30.0027C24.0744 30.9901 22.1043 31.5648 19.9987 31.5648Z" fill="#12B347"/>
<path d="M29.4999 36.4547V36.4458L25.7781 30.0029C24.0757 30.9903 22.1058 31.565 20 31.565V38.9997C23.4465 38.9997 26.6986 38.0718 29.4999 36.4547Z" fill="#0F993E"/>
<path d="M8.43475 19.9999C8.43475 17.8944 9.00934 15.9246 9.99652 14.2222L3.55393 10.5088C1.92788 13.3014 1 16.5446 1 19.9999C1 23.4552 1.92788 26.6984 3.55393 29.491L9.99652 25.7776C9.00934 24.0752 8.43475 22.1054 8.43475 19.9999Z" fill="#FFD500"/>
<path d="M19.9987 8.43475C22.7842 8.43475 25.3428 9.42452 27.3413 11.0709C27.8343 11.477 28.5509 11.4477 29.0025 10.9961L32.5108 7.48779C33.0232 6.97539 32.9867 6.13665 32.4393 5.6618C29.091 2.75697 24.7343 1 19.9987 1C12.9732 1 6.83133 4.82647 3.55273 10.5088L9.99533 14.2222C11.9981 10.7686 15.7271 8.43475 19.9987 8.43475Z" fill="#FF4B26"/>
<path d="M27.3424 11.0709C27.8355 11.477 28.5521 11.4477 29.0037 10.9961L32.512 7.48779C33.0243 6.97539 32.9878 6.13665 32.4405 5.6618C29.0921 2.7569 24.7355 1 19.9999 1V8.43475C22.7853 8.43475 25.344 9.42452 27.3424 11.0709Z" fill="#D93F21"/>
</svg>
