<svg width="56" height="34" viewBox="0 0 56 34" fill="none" xmlns="http://www.w3.org/2000/svg">
<g clip-path="url(#clip0_134_17211)">
<path d="M17.5014 12.3795C17.5014 16.8964 13.842 16.6609 9.32506 16.6609C4.80813 16.6609 1.14868 16.8964 1.14868 12.3795C1.14868 7.86257 4.80813 4.20312 9.32506 4.20312C13.842 4.20312 17.5014 7.86257 17.5014 12.3795Z" fill="#261E1C"/>
<path d="M10.5443 11.9625C10.5443 13.5567 9.25207 14.8429 7.6639 14.8429C6.07573 14.8429 4.78345 13.5507 4.78345 11.9625C4.78345 10.3743 6.07573 9.08203 7.6639 9.08203C9.25207 9.08203 10.5443 10.3743 10.5443 11.9625Z" fill="white"/>
<path d="M14.4882 10.7489C14.4882 11.6728 13.7395 12.4216 12.8155 12.4216C11.8916 12.4216 11.1428 11.6728 11.1428 10.7489C11.1428 9.82496 11.8916 9.07617 12.8155 9.07617C13.7395 9.07617 14.4882 9.82496 14.4882 10.7489Z" fill="white"/>
<path d="M54.851 12.3795C54.851 16.8964 51.1916 16.6609 46.6747 16.6609C42.1577 16.6609 38.4983 16.8964 38.4983 12.3795C38.4983 7.86257 42.1577 4.20312 46.6747 4.20312C51.1916 4.20312 54.851 7.86257 54.851 12.3795Z" fill="#261E1C"/>
<path d="M47.894 11.9625C47.894 13.5567 46.6017 14.8429 45.0135 14.8429C43.4253 14.8429 42.1331 13.5507 42.1331 11.9625C42.1331 10.3743 43.4253 9.08203 45.0135 9.08203C46.6017 9.08203 47.894 10.3743 47.894 11.9625Z" fill="white"/>
<path d="M51.8379 10.7489C51.8379 11.6728 51.0891 12.4216 50.1652 12.4216C49.2412 12.4216 48.4924 11.6728 48.4924 10.7489C48.4924 9.82496 49.2412 9.07617 50.1652 9.07617C51.0891 9.07617 51.8379 9.82496 51.8379 10.7489Z" fill="white"/>
<path d="M9.422 22.0999C8.8121 23.4284 6.23962 23.5552 3.67318 22.3776C1.10675 21.2001 -0.475396 19.1711 0.128472 17.8426C0.738379 16.5141 3.31086 16.3873 5.8773 17.5648C8.44374 18.7424 10.0259 20.7714 9.41597 22.0999H9.422Z" fill="#FCA695"/>
<path d="M46.5798 22.0999C47.1897 23.4284 49.7622 23.5552 52.3286 22.3776C54.895 21.2001 56.4772 19.1711 55.8733 17.8426C55.2634 16.5141 52.6909 16.3873 50.1245 17.5648C47.558 18.7424 45.9759 20.7714 46.5858 22.0999H46.5798Z" fill="#FCA695"/>
<path d="M28.0044 15.9414C24.1758 15.9414 19.7012 16.968 19.7012 19.8545V21.9197C19.7012 26.497 23.427 30.2229 28.0044 30.2229C32.5817 30.2229 36.3075 26.497 36.3075 21.9197V19.8545C36.3075 16.968 31.8329 15.9414 28.0044 15.9414Z" fill="#261E1C"/>
<path d="M29.6709 25.373H26.3315C24.538 25.373 22.98 26.3453 22.1406 27.7946C23.6443 29.2982 25.7155 30.2282 28.0042 30.2282C30.2928 30.2282 32.3641 29.2982 33.8678 27.7946C33.0284 26.3513 31.4644 25.373 29.6769 25.373H29.6709Z" fill="#FE6661"/>
</g>
<defs>
<clipPath id="clip0_134_17211">
<rect width="56" height="33.6" fill="white"/>
</clipPath>
</defs>
</svg>
