<svg width="195" height="195" viewBox="0 0 195 195" fill="none" xmlns="http://www.w3.org/2000/svg">
<path d="M135.912 147.023C148.818 147.023 159.281 136.56 159.281 123.654C159.281 110.748 148.818 100.285 135.912 100.285C123.006 100.285 112.543 110.748 112.543 123.654C112.543 136.56 123.006 147.023 135.912 147.023Z" fill="white"/>
<path d="M52.2684 96.947C64.7654 96.947 74.8962 86.8162 74.8962 74.3192C74.8962 61.8222 64.7654 51.6914 52.2684 51.6914C39.7714 51.6914 29.6406 61.8222 29.6406 74.3192C29.6406 86.8162 39.7714 96.947 52.2684 96.947Z" fill="white"/>
<path d="M97.5435 173.178C140.426 173.178 175.189 170.705 175.189 167.655C175.189 164.605 140.426 162.133 97.5435 162.133C54.6613 162.133 19.8984 164.605 19.8984 167.655C19.8984 170.705 54.6613 173.178 97.5435 173.178Z" fill="#FAFAFA"/>
<path d="M61.0543 164.873C59.9896 165.419 59.3344 166.487 59.9272 167.548C60.52 168.609 64.6696 168.512 68.5501 168.527C72.4306 168.543 74.7355 168.453 75.1021 166.113C75.4687 163.773 70.4025 162.225 69.8019 162.225C69.2013 162.225 68.8309 162.775 68.8309 162.775L61.0543 164.873Z" fill="#272828"/>
<path d="M60.863 154.909C60.8747 155.046 60.0986 165.642 60.4028 166.543C60.707 167.444 67.7231 167.393 67.7231 167.393C67.7231 167.393 67.6256 164.445 68.8346 162.775L66.5297 161.882C66.5297 161.882 68.2886 155.939 68.3198 155.151C68.3471 154.363 60.863 154.909 60.863 154.909Z" fill="#D8877B"/>
<path d="M60.8629 154.908C60.8668 154.966 60.7381 156.796 60.6055 158.991C62.9143 159.424 65.3401 159.202 67.5358 158.367C67.6801 157.845 67.8205 157.326 67.9414 156.858L67.1302 154.775C65.0281 154.604 60.8629 154.908 60.8629 154.908Z" fill="#B44E50"/>
<path d="M64.331 164.837C64.2257 164.853 64.1204 164.873 64.019 164.912C63.9059 164.954 63.7967 165.032 63.6914 165.095C63.5237 165.188 63.3443 165.278 63.161 165.298C63.0089 165.317 62.8607 165.302 62.7242 165.239C62.6462 165.204 62.5955 165.169 62.5331 165.11C62.459 165.044 62.4122 164.954 62.2991 164.939C62.2211 164.927 62.1431 164.962 62.108 165.036C61.9871 165.278 62.2874 165.528 62.4707 165.637C62.6696 165.754 62.9036 165.797 63.1298 165.797C63.3794 165.797 63.6329 165.715 63.8591 165.606C64.1243 165.477 64.3466 165.309 64.4753 165.04C64.5143 164.947 64.4402 164.822 64.331 164.837Z" fill="#B44E50"/>
<path d="M67.7244 167.393C67.7244 167.393 67.6269 164.445 68.8359 162.775L68.5902 162.682C67.7946 163.236 67.2135 164.086 66.8703 165.002C66.5856 165.767 66.4491 166.57 66.3711 167.385C67.1706 167.397 67.7244 167.393 67.7244 167.393Z" fill="#B44E50"/>
<path d="M37.4717 163.875C36.368 164.335 35.6309 165.349 36.1379 166.453C36.6449 167.557 40.7906 167.787 44.6594 168.11C48.5282 168.434 50.8292 168.524 51.383 166.223C51.9368 163.922 47.0072 161.976 46.4105 161.929C45.8099 161.882 45.3965 162.401 45.3965 162.401L37.4717 163.875Z" fill="#272828"/>
<path d="M38.0691 153.93C38.0691 154.066 36.4584 164.569 36.6885 165.489C36.9186 166.41 43.9191 166.917 43.9191 166.917C43.9191 166.917 44.0556 163.968 45.3933 162.405L43.1664 161.328C43.1664 161.328 45.3933 155.541 45.483 154.757C45.5766 153.977 38.0691 153.93 38.0691 153.93Z" fill="#D8877B"/>
<path d="M38.0674 153.93C38.0674 153.988 37.7944 155.802 37.4902 157.978C39.7561 158.59 42.1936 158.563 44.4478 157.908C44.635 157.397 44.8144 156.89 44.9743 156.434L44.3308 154.293C42.2443 153.953 38.0674 153.93 38.0674 153.93Z" fill="#B44E50"/>
<path d="M38.4386 96.6401C37.3349 100.326 35.4902 111.928 36.7811 117.454C38.072 122.981 38.2553 132.099 38.6219 137.625C38.9885 143.151 36.4106 155.585 36.4106 155.585C36.4106 155.585 43.0406 157.796 46.4492 157.336C46.4492 157.336 51.1448 139.56 52.8062 133.019C54.4637 126.479 55.0175 119.205 55.0175 119.205C55.0175 119.205 57.7826 130.902 58.7927 136.888C59.8067 142.875 59.3465 157.429 59.3465 157.429C59.3465 157.429 64.9664 158.627 69.2954 157.796C69.2954 157.796 69.4787 135.968 68.7416 123.258C68.0045 110.547 63.4922 96.1799 63.4922 96.1799L38.4386 96.6401Z" fill="#0C0D0D"/>
<path d="M63.9758 97.8179C63.8861 97.502 63.8042 97.2251 63.7379 96.9989L62.9072 96.1916L38.4386 96.6401C38.2787 97.1666 38.1071 97.8608 37.9277 98.672C52.4552 105.095 62.0882 99.1595 63.9758 97.8179Z" fill="#272828"/>
<path d="M84.3651 88.2265C84.8877 88.6867 86.7285 89.8528 87.528 89.884C88.3275 89.9152 91.0887 90.1921 91.8882 90.4066C92.6877 90.6211 92.5551 91.0423 92.247 91.2568C91.9389 91.4713 90.5973 91.6624 90.5973 91.6624C90.5973 91.6624 92.8086 93.0118 93.3 93.4135C93.7914 93.8113 93.6978 94.4275 93.0855 94.5172C93.0855 94.5172 93.6705 94.8565 93.4521 95.3752C93.2376 95.8978 92.6526 95.7418 92.6526 95.7418C92.6526 95.7418 92.715 96.5998 91.9155 96.6934C91.9155 96.6934 91.9467 97.2472 91.1472 97.1536C90.3477 97.06 88.23 95.6794 87.7386 95.4025C87.2472 95.1256 81.7833 92.5477 81.7833 92.5477L84.3651 88.2265Z" fill="#D8877B"/>
<path d="M84.0374 88.7795L81.7871 92.5586C81.7871 92.5586 82.7972 93.0344 83.9906 93.5999C85.2737 91.7006 85.6442 89.891 85.7417 89.1578C85.5389 89.0408 85.3361 88.916 85.1567 88.799L84.0374 88.7795Z" fill="#B44E50"/>
<path d="M40.1268 46.7494C41.0472 46.4413 43.3989 52.7164 42.1236 53.2897C40.8483 53.863 39.1167 51.6634 39.1167 51.6634L38.8086 48.7774L40.1268 46.7494Z" fill="#272828"/>
<path d="M40.7703 52.7057C41.9988 52.031 42.1821 51.9998 43.9644 52.2455C45.7467 52.4912 47.5251 51.9062 47.5251 51.9062L49.3659 48.9578C49.3659 48.9578 48.6288 44.4767 48.4455 44.4767C48.2622 44.4767 45.1929 45.5804 43.6563 46.0133C42.1197 46.4423 38.8047 47.7332 38.8047 47.7332L40.7703 52.7057Z" fill="#D8877B"/>
<path d="M55.7235 40.5958C44.8971 39.3673 43.8792 48.9652 44.2029 55.0141C44.5266 61.063 33.5832 69.4324 40.2132 81.343C46.8432 93.2497 58.8825 90.0322 62.4198 83.4685C65.961 76.9009 62.2911 64.9942 62.9346 57.3346C63.5781 49.6711 65.3799 41.6878 55.7235 40.5958Z" fill="#272828"/>
<path d="M39 48.225L40.7706 52.7061C41.5077 52.3005 41.8704 52.1289 42.4242 52.1094C41.2698 50.7015 40.5405 48.9543 40.365 47.1408C40.2792 47.172 40.1973 47.2032 40.1154 47.2344L39 48.225Z" fill="#B44E50"/>
<path d="M44.8854 63.1144C39.4527 62.9311 35.2758 59.6434 34.7532 57.7714C34.5387 57.0031 42.1203 53.2903 42.1203 53.2903C42.1203 53.2903 39.909 51.4807 40.1235 46.75C40.1235 46.75 28.4859 50.6812 25.2645 55.4704C22.0392 60.2596 34.8429 70.2982 41.1063 72.7864C41.1063 72.7864 40.8294 79.0498 40.7397 83.6557C40.6461 88.2616 37.8849 96.826 37.8849 96.826C37.8849 96.826 50.0412 103.827 64.596 97.2862C64.596 97.2862 62.3847 88.8115 62.4783 85.9567C62.5719 83.1019 64.1358 80.0638 63.7692 76.9321C63.7692 76.9321 67.4079 83.1487 70.5396 86.374C73.6713 89.5993 82.8363 93.7879 82.8363 93.7879C82.8363 93.7879 85.2309 90.6562 85.7847 88.4449C85.7847 88.4449 76.296 81.9046 75.2859 80.2471C74.2719 78.5896 69.7596 69.0112 67.6419 67.2601C65.5242 65.509 61.7061 64.3936 60.1344 64.3585C58.5627 64.3234 54.0075 65.6923 54.0075 65.6923L44.8854 63.1144Z" fill="#DFE0E0"/>
<path d="M49.0305 58.2775C49.0305 58.2775 48.4767 61.9162 47.88 62.6533C47.2794 63.3904 44.8848 63.1135 44.8848 63.1135C44.8848 63.1135 46.1289 68.593 52.1622 68.9167C58.1955 69.2404 60.1299 64.3576 60.1299 64.3576C60.1299 64.3576 58.2423 64.2211 57.5052 63.8038C56.7681 63.3904 56.9046 61.2727 56.9046 61.2727L49.0305 58.2775Z" fill="#D8877B"/>
<path d="M56.8576 62.2399L56.2375 61.0192L49.0303 58.2775C49.0303 58.2775 48.7846 59.8921 48.4414 61.1869C52.4818 65.0011 56.8576 62.2399 56.8576 62.2399Z" fill="#B44E50"/>
<path d="M48.3212 52.759C48.3212 52.759 47.9507 51.9712 46.4531 52.5016C44.9555 53.032 44.4719 56.9593 47.8064 56.2339C47.8064 56.2339 49.7837 63.5659 56.948 62.4466C63.3206 61.4482 61.9673 51.0859 61.9673 51.0859C61.9673 51.0859 60.1655 49.6702 58.8785 47.2873C58.8785 47.2873 55.9808 51.0859 48.3212 52.759Z" fill="#D8877B"/>
<path d="M93.0582 94.4002C92.949 94.3144 92.8086 94.2637 92.6799 94.2052C92.559 94.1467 92.4381 94.0921 92.3172 94.0336C92.0559 93.9088 91.7946 93.7879 91.5333 93.667C91.272 93.5461 91.0146 93.4174 90.7533 93.2926C90.6324 93.2341 90.5076 93.1795 90.3867 93.1249C90.2775 93.0742 90.1722 93.0157 90.0474 93.0079C90.0357 93.0079 90.0357 93.0196 90.0396 93.0274C90.1254 93.1366 90.2541 93.1951 90.3711 93.2614C90.4881 93.3277 90.6051 93.394 90.7221 93.4603C90.9678 93.5929 91.2135 93.7177 91.4631 93.8464C91.7088 93.9751 91.9584 94.0999 92.2119 94.2169C92.3328 94.2754 92.4537 94.33 92.5785 94.3885C92.7033 94.447 92.8359 94.5289 92.9724 94.5562C93.0465 94.5679 93.1362 94.4587 93.0582 94.4002Z" fill="#B44E50"/>
<path d="M92.692 95.5788C92.2045 95.298 91.6741 95.0601 91.1593 94.83C90.9019 94.7169 90.6445 94.6038 90.3871 94.4946C90.1648 94.401 89.8957 94.2528 89.65 94.2645C89.6422 94.2645 89.6383 94.2762 89.6422 94.284C89.806 94.4751 90.1219 94.5765 90.3442 94.6818C90.5899 94.7949 90.8317 94.9119 91.0735 95.0328C91.5727 95.2785 92.0719 95.5437 92.5789 95.7738C92.7076 95.8284 92.8168 95.649 92.692 95.5788Z" fill="#B44E50"/>
<path d="M92.0057 96.5422C91.7795 96.4252 91.5338 96.3433 91.3037 96.2341C91.0736 96.1249 90.8435 96.0118 90.6173 95.887C90.395 95.7661 90.1844 95.6296 89.966 95.5087C89.7671 95.3995 89.5721 95.3059 89.342 95.3176C89.3225 95.3176 89.3108 95.3488 89.3303 95.3566C89.771 95.5594 90.161 95.8519 90.5822 96.0898C90.7967 96.2107 91.019 96.3277 91.2413 96.433C91.4636 96.5344 91.6937 96.6553 91.9277 96.7216C92.033 96.745 92.1032 96.5929 92.0057 96.5422Z" fill="#B44E50"/>
<path d="M89.7163 91.4752C89.5213 91.5376 89.3575 91.6663 89.1703 91.7482C88.9792 91.8301 88.7764 91.8886 88.5697 91.9237C88.363 91.9588 88.1524 91.9666 87.9457 91.9471C87.7351 91.9315 87.5323 91.873 87.3256 91.8457C87.2242 91.8301 87.1501 91.9627 87.2515 92.0212C87.6376 92.2513 88.1758 92.2513 88.6048 92.1928C88.831 92.1616 89.0494 92.0992 89.2639 92.0134C89.4784 91.9237 89.7046 91.8262 89.8411 91.6312C89.8918 91.5571 89.8021 91.4479 89.7163 91.4752Z" fill="#B44E50"/>
<path d="M89.1432 92.455C88.9638 92.4316 88.7805 92.6578 88.6713 92.7709C88.527 92.923 88.3944 93.0868 88.2813 93.2623C88.1721 93.4339 88.0785 93.6172 88.0005 93.8083C87.9186 94.0033 87.8289 94.2178 87.8484 94.4284C87.8562 94.5142 87.9732 94.561 88.02 94.4752C88.1136 94.2997 88.1448 94.1008 88.215 93.9136C88.2852 93.7264 88.3749 93.547 88.4802 93.3793C88.5816 93.2116 88.6986 93.0556 88.8273 92.9074C88.8936 92.8294 88.9716 92.7592 89.0418 92.6851C89.0964 92.6305 89.1549 92.5564 89.1666 92.4784C89.1744 92.4628 89.1588 92.455 89.1432 92.455Z" fill="#B44E50"/>
<path d="M47.5812 54.613C47.5812 54.5935 47.5851 54.5779 47.5812 54.5584C47.5968 54.1528 47.4915 53.6341 47.1327 53.404C46.9611 53.2948 46.731 53.2714 46.5516 53.3767C46.3956 53.4703 46.263 53.6575 46.2786 53.8408C46.2864 53.9149 46.3644 53.9812 46.4385 53.9344C46.5009 53.8954 46.536 53.8525 46.5828 53.794C46.614 53.755 46.6491 53.7121 46.6881 53.6809C46.7778 53.6185 46.8909 53.6536 46.965 53.7277C47.0625 53.8252 47.0976 53.9656 47.1249 54.0982C47.1366 54.1606 47.1405 54.223 47.1405 54.2893C47.1015 54.2971 47.0664 54.3049 47.0274 54.3166C46.7895 54.3985 46.5906 54.5662 46.5126 54.8119C46.4385 55.0498 46.5165 55.3267 46.7349 55.4632C46.9221 55.5802 47.2263 55.5646 47.2926 55.3228C47.316 55.2448 47.2536 55.1785 47.1795 55.1746C47.1444 55.1707 47.0859 55.1629 47.0586 55.159C47.0352 55.1551 46.9806 55.1356 46.9689 55.1278C46.9221 55.1005 46.8987 55.0459 46.9143 54.9796C46.9299 54.8938 46.9884 54.8431 47.0547 54.8041C47.082 54.7885 47.1249 54.7729 47.1717 54.7612C47.199 54.7963 47.2341 54.8236 47.2809 54.8392C47.4057 54.8743 47.5266 54.7963 47.5656 54.6793C47.5734 54.6598 47.5734 54.6364 47.5734 54.6169C47.5812 54.613 47.5812 54.613 47.5812 54.613Z" fill="#B44E50"/>
<path d="M62.0191 51.5968C61.9918 51.2731 61.9684 51.0859 61.9684 51.0859C61.9684 51.0859 60.1666 49.6702 58.8796 47.2873C58.8796 47.2873 55.9819 51.0859 48.3223 52.759C48.3223 52.759 54.9601 52.0102 58.7587 48.2779C58.7587 48.2779 60.5449 50.4502 62.0191 51.5968Z" fill="#B44E50"/>
<path d="M63.8324 75.8955C63.6296 75.1935 63.3449 74.2848 62.7131 73.8636C62.6273 73.8051 62.5259 73.9026 62.5454 73.9923C62.6351 74.3745 62.8496 74.6826 63.0173 75.0375C63.1928 75.4002 63.3293 75.7824 63.4385 76.1724C63.6569 76.9524 63.7505 77.7597 63.7388 78.567C63.7115 80.3181 63.2435 82.0731 62.7443 83.7423C62.7326 83.7774 62.7872 83.8008 62.8028 83.7657C63.5906 82.0692 64.1561 80.2947 64.1639 78.4071C64.1717 77.5569 64.0664 76.7067 63.8324 75.8955Z" fill="#0C0D0D"/>
<path d="M38.3066 47.9425C38.3105 49.0228 38.4509 50.0992 38.7122 51.1483C38.9696 52.174 39.3401 53.1685 39.812 54.1123C39.8588 54.202 39.9056 54.2956 39.9524 54.3892C40.1045 54.3112 40.2566 54.2332 40.397 54.1591C39.9563 53.3518 39.5936 52.5055 39.3206 51.6241C39.0437 50.7271 38.8565 49.8067 38.7551 48.8707C38.7083 48.4339 38.6849 47.9932 38.6732 47.5525C38.6693 47.4667 38.6654 47.3731 38.6615 47.2795C38.5445 47.3224 38.4236 47.3692 38.2949 47.4199C38.2988 47.6656 38.3066 47.8684 38.3066 47.9425Z" fill="#0C0D0D"/>
<path d="M84.6918 87.6835C84.6021 87.6211 84.5085 87.5548 84.411 87.4846C84.2745 87.8317 84.1731 88.1983 84.0327 88.522C83.7363 89.2201 83.3853 89.8948 82.9953 90.5461C82.617 91.1857 82.1997 91.798 81.7668 92.4025C81.6147 92.6131 81.447 92.8276 81.2832 93.0421C81.4548 93.124 81.6147 93.202 81.759 93.2722C81.8916 93.0772 82.0203 92.8822 82.1451 92.6989C82.578 92.071 82.9953 91.4275 83.3775 90.7645C83.9469 89.7778 84.3486 88.7521 84.6918 87.6835Z" fill="#0C0D0D"/>
<path d="M64.0857 95.2267C63.8049 95.3671 63.5241 95.5036 63.2394 95.6362C62.3502 96.0535 61.4376 96.4006 60.5094 96.7087C58.6959 97.3132 56.8356 97.7656 54.9402 98.0347C51.1143 98.5729 47.1129 98.2999 43.3884 97.2898C42.3432 97.0051 41.3253 96.6424 40.3308 96.2095C39.6522 95.9131 39.0204 95.5543 38.3925 95.176C38.373 95.2462 38.3535 95.3125 38.334 95.3788C39.543 96.2992 41.0055 96.9232 42.4212 97.3873C44.2542 97.9879 46.1652 98.3545 48.084 98.5534C52.0542 98.9629 56.0907 98.569 59.9205 97.4653C60.9852 97.1572 62.0265 96.7633 63.0483 96.3304C63.45 96.1627 63.84 95.9755 64.2222 95.7727C64.1754 95.5972 64.1286 95.4178 64.0857 95.2267Z" fill="#0C0D0D"/>
<path d="M54.8002 70.4589C56.758 70.1547 58.2517 69.0432 59.566 67.6197C60.3421 66.7773 61.1065 65.7087 61.5706 64.5621C61.4146 64.527 61.2625 64.4997 61.1182 64.4724C61.1026 64.5114 61.0909 64.5543 61.0714 64.5933C60.736 65.3694 60.2719 66.0948 59.7493 66.7617C58.63 68.1891 57.2104 69.4293 55.4164 69.8817C52.0312 70.7397 48.0883 69.9753 45.6937 67.3077C44.5783 66.0675 44.005 64.6206 43.7944 63.0333C43.6735 63.0216 43.5565 62.9982 43.4395 62.9826C43.5097 64.4256 44.161 65.8764 45.0073 66.9957C46.0876 68.427 47.6008 69.4449 49.2934 70.0143C51.0406 70.6071 52.9828 70.7397 54.8002 70.4589Z" fill="#0C0D0D"/>
<path d="M47.2102 153.711C45.8686 153.84 44.5153 153.86 43.1698 153.766C41.9218 153.676 40.6777 153.47 39.4765 153.119C39.0358 152.99 38.6029 152.83 38.1778 152.662C38.6029 151.184 38.5834 149.628 38.6848 148.107C38.794 146.457 39.0631 144.835 39.3946 143.22C40.0459 140.054 40.8571 136.898 40.8883 133.646C40.9195 130.284 40.5451 126.86 40.0615 123.537C39.5779 120.23 38.638 117.009 38.3806 113.666C38.2402 111.841 38.2675 110.004 38.4547 108.187C38.521 107.555 38.6107 106.931 38.7199 106.311C38.7589 106.33 38.8096 106.338 38.8681 106.326C40.0381 106.061 41.1496 105.379 42.0427 104.599C42.499 104.197 42.9085 103.745 43.2712 103.253C43.4467 103.015 43.6066 102.77 43.7548 102.516C43.8991 102.266 44.098 101.974 44.1175 101.682C44.1292 101.502 43.8913 101.42 43.7704 101.537C43.5832 101.724 43.4896 102.013 43.3609 102.243C43.2205 102.485 43.0684 102.723 42.9046 102.949C42.5653 103.417 42.1675 103.846 41.7346 104.232C40.8688 105 39.8782 105.492 38.8018 105.89C39.0085 104.786 39.2659 103.694 39.5233 102.594C39.574 102.376 39.2659 102.294 39.1918 102.501C38.0998 105.5 37.7527 108.873 37.8151 112.044C37.8814 115.328 38.6263 118.479 39.2737 121.681C39.9562 125.05 40.3228 128.517 40.4632 131.949C40.5334 133.654 40.4671 135.354 40.2175 137.039C39.9757 138.665 39.5935 140.264 39.2269 141.863C38.8291 143.599 38.4469 145.346 38.2519 147.12C38.053 148.911 38.1505 150.72 37.7371 152.483C37.5109 152.393 37.2886 152.3 37.0624 152.21C37.039 152.331 37.0195 152.456 36.9961 152.573C37.6786 152.978 38.4391 153.271 39.1957 153.516C40.4047 153.906 41.6605 154.152 42.9241 154.281C44.3203 154.425 45.7243 154.402 47.1205 154.308C47.1634 154.304 47.2102 154.3 47.2531 154.296C47.3038 154.101 47.3584 153.899 47.413 153.684C47.3467 153.696 47.2765 153.708 47.2102 153.711Z" fill="#272828"/>
<path d="M56.1456 108.128C56.1105 108.014 55.9662 108.026 55.9272 108.128C55.7634 108.545 55.7907 109.017 55.7712 109.461C55.7478 109.957 55.7283 110.452 55.7049 110.951C55.662 111.922 55.623 112.893 55.584 113.864C55.545 114.832 55.4904 115.803 55.3461 116.762C55.2759 117.218 55.1862 117.671 55.0731 118.115C54.9561 118.556 54.7689 118.989 54.6948 119.441C54.6792 119.539 54.7923 119.59 54.8508 119.508C55.3539 118.81 55.5138 117.772 55.6659 116.942C55.8336 116.013 55.9194 115.07 55.9818 114.126C56.0481 113.131 56.0793 112.133 56.1222 111.134C56.1417 110.639 56.1651 110.144 56.1846 109.645C56.2041 109.153 56.2938 108.607 56.1456 108.128Z" fill="#272828"/>
<path d="M58.4574 124.683C58.1532 123.439 57.8373 122.195 57.4395 120.978C57.0534 119.801 56.601 118.58 55.8678 117.574C55.7781 117.453 55.6026 117.554 55.6689 117.691C56.1642 118.751 56.6478 119.804 56.9988 120.928C57.3381 122 57.6033 123.092 57.8685 124.184C58.4379 126.536 58.9215 128.911 59.3505 131.29C60.2046 136.064 60.6648 140.907 60.7896 145.755C60.8598 148.481 60.8403 151.211 60.696 153.933C60.6765 154.292 61.242 154.292 61.2576 153.933C61.6671 144.129 60.7857 134.223 58.4574 124.683Z" fill="#272828"/>
<path d="M69.3103 154.047C68.2495 154.293 67.1731 154.449 66.085 154.507C64.8565 154.574 63.6202 154.527 62.3956 154.414C61.7092 154.351 61.0228 154.265 60.3403 154.172C60.04 154.129 59.728 154.074 59.416 154.043C59.4121 154.184 59.4121 154.324 59.4082 154.457C59.5642 154.492 59.7241 154.511 59.8567 154.535C60.4807 154.648 61.1164 154.726 61.7482 154.804C63.1249 154.967 64.5094 155.061 65.8978 155.01C67.0444 154.971 68.1871 154.823 69.3064 154.585C69.3064 154.414 69.3103 154.23 69.3103 154.047Z" fill="#272828"/>
<path d="M65.2207 102.426C64.9438 102.333 64.6708 102.224 64.4056 102.083C63.9766 101.861 63.5671 101.592 63.1966 101.28C63.0016 101.12 62.8183 100.944 62.6467 100.761C62.4868 100.589 62.3464 100.398 62.1514 100.266C62.0695 100.207 61.9603 100.305 61.9837 100.394C62.1124 100.862 62.5843 101.28 62.9314 101.6C63.3253 101.962 63.766 102.27 64.2418 102.516C64.5967 102.699 64.9711 102.859 65.3611 102.98C65.3143 102.793 65.2675 102.61 65.2207 102.426Z" fill="#272828"/>
<path d="M40.7395 164.1C40.6303 164.107 40.525 164.119 40.4236 164.15C40.3066 164.185 40.1935 164.256 40.0804 164.306C39.9049 164.388 39.7216 164.458 39.5344 164.466C39.3784 164.47 39.2341 164.447 39.1015 164.373C39.0274 164.33 38.9806 164.295 38.9182 164.228C38.848 164.154 38.8129 164.064 38.6998 164.041C38.6218 164.022 38.5438 164.053 38.5009 164.123C38.3605 164.357 38.6413 164.626 38.8168 164.751C39.004 164.883 39.2341 164.946 39.4603 164.965C39.7099 164.985 39.9673 164.926 40.2013 164.833C40.4743 164.724 40.7083 164.575 40.8604 164.318C40.915 164.224 40.8487 164.092 40.7395 164.1Z" fill="#B44E50"/>
<path d="M43.9178 166.917C43.9178 166.917 44.0543 163.968 45.392 162.404L45.158 162.291C44.3234 162.779 43.6721 163.582 43.2587 164.468C42.9155 165.205 42.7127 165.996 42.5723 166.804C43.3679 166.878 43.9178 166.917 43.9178 166.917Z" fill="#B44E50"/>
<path d="M54.2803 51.2705C54.1516 51.1301 53.9293 51.1496 53.7811 51.251C53.7382 51.2822 53.6992 51.3173 53.6563 51.3485C53.6485 51.3524 53.6407 51.3602 53.6368 51.3641C53.6251 51.3641 53.5627 51.4187 53.5549 51.4226C53.5276 51.4421 53.4964 51.4616 53.4691 51.4772C53.4535 51.4889 53.3638 51.5474 53.3287 51.5591C53.3404 51.5552 53.3521 51.5474 53.3209 51.5591C53.3053 51.563 53.2897 51.5708 53.2702 51.5786C53.239 51.5903 53.2117 51.5981 53.1805 51.6059C53.1493 51.6137 53.1181 51.6176 53.0908 51.6215C53.083 51.6215 53.0713 51.6254 53.0596 51.6254C53.0557 51.6254 53.0518 51.6254 53.0479 51.6254C53.0167 51.6293 52.9855 51.6293 52.9543 51.6254C52.9387 51.6254 52.9231 51.6215 52.9075 51.6215C52.9036 51.6215 52.9075 51.6215 52.9036 51.6215C52.8763 51.6176 52.8451 51.6137 52.8178 51.6098C52.8061 51.6098 52.8022 51.6098 52.7983 51.6098C52.7749 51.6059 52.7515 51.602 52.7281 51.5942C52.5955 51.5552 52.4512 51.5864 52.4044 51.7346C52.3498 51.9101 52.5331 52.0583 52.6657 52.1363C52.7944 52.2143 52.9582 52.2416 53.1064 52.2533C53.3911 52.2767 53.6914 52.1597 53.9371 52.0232C54.0814 51.9413 54.2608 51.8477 54.3349 51.6956C54.409 51.5513 54.3934 51.3914 54.2803 51.2705Z" fill="#272828"/>
<path d="M59.391 51.7685C59.3838 51.7613 59.3766 51.7577 59.373 51.7541C59.3766 51.7577 59.3802 51.7613 59.3838 51.7649C59.3874 51.7649 59.3874 51.7649 59.391 51.7685Z" fill="#272828"/>
<path d="M60.7148 52.2871C60.6875 52.1857 60.6134 52.1272 60.5198 52.0921C60.4379 52.0609 60.3521 52.0453 60.2663 52.0375C60.2624 52.0375 60.2585 52.0375 60.2546 52.0375C60.3092 52.0414 60.1727 52.0258 60.1649 52.0258C60.1298 52.0219 60.0986 52.0219 60.0635 52.0219C60.0518 52.0219 60.0401 52.018 60.0284 52.018C59.9972 52.0141 59.9699 52.0063 59.9387 52.0024C59.8685 51.9868 59.7983 51.9673 59.732 51.9439C59.7047 51.9361 59.6813 51.9244 59.654 51.9166C59.6579 51.9166 59.6618 51.9205 59.6618 51.9205L59.654 51.9166C59.6501 51.9127 59.6423 51.9127 59.6384 51.9127C59.6033 51.901 59.6267 51.9049 59.6462 51.9127C59.6345 51.9049 59.615 51.901 59.6111 51.8971C59.5487 51.8659 59.4902 51.8347 59.4356 51.7957C59.4239 51.7879 59.4122 51.7801 59.3966 51.7684C59.4005 51.7723 59.4005 51.7723 59.4044 51.7762C59.4005 51.7723 59.3966 51.7684 59.3927 51.7645C59.3771 51.7528 59.3732 51.7489 59.381 51.7528C59.3459 51.7216 59.3108 51.6943 59.2757 51.6709C59.264 51.6631 59.2523 51.6553 59.2406 51.6436C59.2328 51.6397 59.2328 51.6397 59.2367 51.6397C59.1587 51.5812 59.0885 51.5461 58.991 51.5383C58.8194 51.5227 58.7024 51.6904 58.6907 51.8386C58.679 51.9556 58.7531 52.057 58.8194 52.1467C58.8779 52.2286 58.9481 52.291 59.0261 52.3495C59.1899 52.4782 59.3576 52.5718 59.5487 52.6498C59.7125 52.7161 59.8919 52.7434 60.0674 52.7512C60.2858 52.7629 60.4964 52.7044 60.6602 52.5562C60.7187 52.4938 60.7421 52.3807 60.7148 52.2871Z" fill="#272828"/>
<path d="M54.0862 52.9709C54.0628 52.9553 54.0433 52.9397 54.0199 52.928C53.7898 52.8071 53.5285 52.846 53.3335 53.0137C53.2282 53.1034 53.1541 53.2399 53.0956 53.3686C52.9708 53.6455 52.9006 53.942 52.9162 54.2501C52.9357 54.6167 53.041 55.0574 53.4271 55.1939C53.8015 55.3226 54.1486 55.0145 54.2929 54.6985C54.4177 54.4255 54.4918 54.1252 54.4684 53.8249C54.4528 53.5246 54.3748 53.123 54.0862 52.9709Z" fill="#272828"/>
<path d="M59.7366 53.4611C59.7132 53.4455 59.6937 53.4299 59.6703 53.4182C59.4402 53.2973 59.1789 53.3363 58.9839 53.504C58.8786 53.5937 58.8045 53.7341 58.746 53.8589C58.6212 54.1358 58.551 54.4322 58.5666 54.7403C58.5861 55.1069 58.6914 55.5476 59.0775 55.6841C59.4519 55.8128 59.799 55.5047 59.9433 55.1888C60.0681 54.9158 60.1422 54.6155 60.1188 54.3152C60.0993 54.0149 60.0213 53.6132 59.7366 53.4611Z" fill="#272828"/>
<path d="M53.7222 53.0044C53.7027 52.942 53.6715 52.8835 53.6247 52.8367C53.5974 52.8172 53.574 52.7977 53.5467 52.7782C53.4882 52.7431 53.4258 52.7275 53.3556 52.7275C53.3049 52.7236 53.2542 52.7353 53.2113 52.7587C53.1645 52.7743 53.1255 52.8016 53.0904 52.8367C53.0553 52.8718 53.028 52.9108 53.0124 52.9576C52.989 53.0044 52.9773 53.0512 52.9812 53.1019C52.9851 53.137 52.989 53.1682 52.9929 53.2033C53.0124 53.2657 53.0436 53.3242 53.0904 53.371C53.1177 53.3905 53.1411 53.41 53.1684 53.4295C53.2269 53.4646 53.2893 53.4802 53.3595 53.4802C53.4102 53.4802 53.4609 53.4724 53.5038 53.449C53.5506 53.4334 53.5896 53.4061 53.6247 53.371C53.6598 53.3359 53.6871 53.2969 53.7027 53.2501C53.7261 53.2033 53.7378 53.1565 53.7339 53.1058C53.73 53.0707 53.7261 53.0356 53.7222 53.0044Z" fill="white"/>
<path d="M59.4449 53.4966C59.4254 53.4342 59.3942 53.3757 59.3474 53.3289C59.3201 53.3094 59.2967 53.2899 59.2694 53.2704C59.2109 53.2353 59.1485 53.2197 59.0783 53.2197C59.0276 53.2158 58.9769 53.2275 58.934 53.2509C58.8872 53.2665 58.8482 53.2938 58.8131 53.3289C58.778 53.364 58.7507 53.403 58.7351 53.4498C58.7117 53.4966 58.7 53.5434 58.7039 53.5941C58.7078 53.6292 58.7117 53.6604 58.7156 53.6955C58.7351 53.7579 58.7663 53.8164 58.8131 53.8632C58.8404 53.8827 58.8638 53.9022 58.8911 53.9217C58.9496 53.9568 59.012 53.9724 59.0822 53.9724C59.1329 53.9763 59.1836 53.9646 59.2265 53.9412C59.2733 53.9256 59.3123 53.8983 59.3474 53.8632C59.3825 53.8281 59.4098 53.7891 59.4254 53.7423C59.4488 53.6955 59.4605 53.6487 59.4566 53.598C59.4527 53.5629 59.4488 53.5317 59.4449 53.4966Z" fill="white"/>
<path d="M57.1627 55.7425C57.0613 55.5163 56.8936 55.3213 56.7883 55.0951C56.7376 54.9859 56.6908 54.8767 56.6596 54.7597C56.6245 54.6349 56.6401 54.4789 56.566 54.3697C56.4802 54.2449 56.3203 54.2488 56.2345 54.3697C56.1058 54.5491 56.1994 54.8845 56.2579 55.0795C56.3281 55.3135 56.4529 55.5241 56.5933 55.723C56.7025 55.8751 56.8507 56.0272 56.7415 56.2183C56.6869 56.3119 56.6089 56.3704 56.527 56.4367C56.4373 56.5147 56.3671 56.5966 56.3047 56.698C56.2462 56.7916 56.3203 56.9398 56.4373 56.932C56.7181 56.9125 56.9326 56.7682 57.0886 56.5381C57.2563 56.3002 57.2797 56.0038 57.1627 55.7425Z" fill="#B44E50"/>
<path d="M57.1012 58.2558C56.7541 58.1037 56.3524 58.0101 55.9741 58.0413C55.6426 58.0686 55.1044 58.2012 55.0381 58.5873C55.0303 58.6419 55.0693 58.6848 55.1278 58.677C55.2838 58.6458 55.4164 58.56 55.5685 58.5132C55.7245 58.4625 55.8844 58.4391 56.0482 58.443C56.4187 58.4508 56.7736 58.6029 57.109 58.7472C57.2572 58.8096 57.5848 58.9071 57.5809 58.6341C57.5731 58.4274 57.2533 58.326 57.1012 58.2558Z" fill="#B44E50"/>
<path d="M53.0749 55.9615C53.032 56.4178 52.4665 56.7376 51.8074 56.6752C51.1483 56.6128 50.6491 56.1955 50.692 55.7392C50.7349 55.2829 51.3004 54.9631 51.9595 55.0255C52.6186 55.0879 53.1178 55.5052 53.0749 55.9615Z" fill="#C85F64"/>
<path d="M61.5495 56.8229C61.5066 57.2792 60.9411 57.599 60.282 57.5366C59.6229 57.4742 59.1237 57.0569 59.1666 56.6006C59.2095 56.1443 59.775 55.8245 60.4341 55.8869C61.0932 55.9454 61.5924 56.3666 61.5495 56.8229Z" fill="#C85F64"/>
<path d="M52.733 53.0134C52.7213 52.9978 52.7135 52.9822 52.7018 52.9666C52.6901 52.9471 52.6745 52.9315 52.6511 52.9198C52.6472 52.9159 52.6433 52.9159 52.6433 52.912C52.6394 52.9081 52.6316 52.9042 52.6277 52.9003C52.616 52.8925 52.6043 52.8847 52.5887 52.8769C52.5653 52.8652 52.538 52.8496 52.5107 52.8457C52.499 52.8418 52.4834 52.8379 52.4717 52.8379C52.4483 52.834 52.421 52.8262 52.3937 52.8262C52.3703 52.8262 52.3469 52.834 52.3235 52.8379C52.2845 52.8457 52.2494 52.8691 52.2299 52.9003C52.2143 52.9276 52.2104 52.9549 52.2143 52.9861C52.2182 53.0056 52.226 53.0251 52.2338 53.0446C52.2377 53.0563 52.2455 53.0641 52.2494 53.0758C52.265 53.0992 52.2806 53.1148 52.3001 53.1304C52.3196 53.146 52.3391 53.1694 52.3625 53.1811C52.3976 53.2006 52.4366 53.2162 52.4756 53.2318C52.4873 53.2357 52.499 53.2396 52.5146 53.2435C52.5458 53.2513 52.5692 53.2474 52.6004 53.2474C52.6277 53.2474 52.655 53.2396 52.6784 53.2279C52.7018 53.2123 52.7213 53.1967 52.733 53.1733C52.7603 53.1226 52.7642 53.0602 52.733 53.0134Z" fill="#C85F64"/>
<path d="M52.9352 52.6286C52.9274 52.6052 52.9196 52.5857 52.9157 52.5623C52.904 52.5272 52.8884 52.4921 52.8689 52.4609C52.8416 52.4141 52.7987 52.3868 52.7597 52.3595C52.7363 52.3439 52.709 52.3361 52.6778 52.3361C52.6505 52.3361 52.6232 52.3439 52.5959 52.3595C52.5491 52.3868 52.514 52.4414 52.5179 52.4999C52.5179 52.5116 52.5179 52.5233 52.5179 52.535C52.5179 52.5389 52.5179 52.5428 52.5179 52.5506C52.5218 52.5701 52.5218 52.5857 52.5257 52.6052C52.5335 52.6208 52.5374 52.6364 52.5452 52.6481C52.5569 52.6715 52.5647 52.6949 52.5803 52.7144C52.5959 52.7339 52.6076 52.7534 52.6232 52.769C52.6388 52.7885 52.6505 52.8119 52.6661 52.8275C52.6856 52.847 52.7012 52.8548 52.7246 52.8665C52.748 52.8782 52.7714 52.886 52.7987 52.886C52.8182 52.886 52.8377 52.8821 52.8572 52.8743C52.8962 52.8587 52.9352 52.8236 52.943 52.7768C52.9469 52.7534 52.9547 52.73 52.9547 52.7105C52.9508 52.6754 52.943 52.652 52.9352 52.6286Z" fill="#C85F64"/>
<path d="M60.4932 53.1265C60.4815 53.107 60.462 53.0875 60.4425 53.0758C60.4308 53.068 60.4152 53.0641 60.4035 53.0602C60.3918 53.0563 60.3762 53.0524 60.3606 53.0563C60.3528 53.0563 60.3255 53.0602 60.3177 53.0602C60.3021 53.0641 60.2865 53.0719 60.2709 53.0797C60.2631 53.0836 60.2553 53.0875 60.2475 53.0914C60.228 53.1031 60.2085 53.1187 60.1929 53.1343C60.1812 53.146 60.1656 53.1616 60.15 53.1733C60.1422 53.1811 60.1344 53.1889 60.1227 53.1967C60.1149 53.2045 60.1071 53.2123 60.1032 53.2201C60.0954 53.2279 60.0876 53.2357 60.0837 53.2435L60.0798 53.2474C60.072 53.2591 60.0642 53.2708 60.0564 53.2786C60.0525 53.2864 60.0486 53.2942 60.0486 53.302C60.0447 53.3137 60.0408 53.3215 60.0369 53.3332C60.0291 53.3605 60.0291 53.3878 60.0369 53.4112C60.0408 53.4307 60.0486 53.4463 60.0642 53.4619C60.0759 53.4775 60.0876 53.4892 60.1071 53.5009C60.1305 53.5126 60.1539 53.5204 60.1812 53.5204C60.2163 53.5243 60.2475 53.5126 60.2787 53.497C60.2865 53.4931 60.2982 53.4892 60.306 53.4814C60.3333 53.4658 60.3606 53.4463 60.384 53.4268C60.423 53.3917 60.462 53.3566 60.4854 53.3098C60.4893 53.302 60.4932 53.2942 60.4971 53.2864C60.501 53.2786 60.5049 53.2708 60.5049 53.263C60.5088 53.2552 60.5088 53.2513 60.5127 53.2435C60.5205 53.224 60.5205 53.2006 60.5166 53.1811C60.5127 53.1655 60.5088 53.1499 60.4932 53.1265Z" fill="#C85F64"/>
<path d="M60.8179 53.6186C60.8023 53.5952 60.7789 53.5679 60.7555 53.5562C60.7243 53.5367 60.6853 53.5328 60.6502 53.5367C60.6385 53.5367 60.6307 53.5406 60.619 53.5406C60.6112 53.5406 60.6034 53.5445 60.5995 53.5445C60.5722 53.5484 60.5449 53.5601 60.5215 53.5718C60.4942 53.5874 60.4708 53.603 60.4474 53.6186C60.4201 53.6381 60.3928 53.6576 60.3733 53.6849C60.3655 53.7005 60.3538 53.7239 60.3499 53.7395C60.3421 53.7824 60.3538 53.8292 60.3967 53.8487C60.4201 53.8604 60.463 53.876 60.4903 53.8721C60.5098 53.8721 60.5293 53.8682 60.5488 53.8682C60.5683 53.8682 60.5878 53.8682 60.6073 53.8682C60.6346 53.8682 60.658 53.8643 60.6853 53.8604C60.7048 53.8604 60.7243 53.8565 60.7438 53.8487C60.7711 53.837 60.7906 53.8214 60.8101 53.798C60.8257 53.7785 60.8218 53.7824 60.8335 53.759C60.8452 53.7161 60.8452 53.6654 60.8179 53.6186Z" fill="#C85F64"/>
<path d="M60.6651 53.8674H60.6687C60.6687 53.8674 60.6687 53.8674 60.6723 53.8674C60.6651 53.8674 60.6615 53.8674 60.6543 53.871C60.6615 53.8674 60.6615 53.8674 60.6651 53.8674Z" fill="#C85F64"/>
<path d="M60.7002 53.8635C60.6927 53.8635 60.6851 53.8635 60.6776 53.8672H60.6738C60.6814 53.8635 60.6927 53.8635 60.7002 53.8635Z" fill="#C85F64"/>
<path d="M59.5457 89.1787C59.1362 89.3503 58.7657 89.6233 58.3757 89.8417C57.974 90.0718 57.5528 90.2746 57.1277 90.4579C56.2814 90.8206 55.3844 91.078 54.4757 91.2262C52.6349 91.5265 50.7279 91.3432 48.969 90.7387C47.9628 90.3916 47.0619 89.8846 46.1376 89.3698C46.0596 89.3269 45.9621 89.4361 46.0362 89.5024C46.7343 90.1147 47.6001 90.5554 48.4581 90.9064C49.3551 91.273 50.2988 91.5226 51.2582 91.6513C53.1614 91.9126 55.1193 91.6825 56.9172 91.0078C57.4203 90.8206 57.9116 90.5983 58.3835 90.337C58.8321 90.0874 59.3469 89.8105 59.6823 89.4127C59.7603 89.3191 59.6861 89.1202 59.5457 89.1787Z" fill="#0C0D0D"/>
<path d="M59.4594 87.326C59.0967 87.5756 58.7418 87.8447 58.3596 88.067C58.1685 88.1762 57.9735 88.2737 57.7746 88.3634C57.6771 88.4063 57.5757 88.4453 57.4782 88.4843C57.4275 88.5038 57.3768 88.5233 57.33 88.5467C57.2793 88.5701 57.2559 88.6091 57.213 88.6364C57.1701 88.6637 57.1896 88.7261 57.2403 88.73C57.2949 88.7339 57.3261 88.7573 57.3846 88.7534C57.4392 88.7495 57.4899 88.7378 57.5445 88.7261C57.6537 88.7027 57.7629 88.6676 57.8682 88.6325C58.0944 88.5584 58.3128 88.4609 58.5234 88.3478C58.7301 88.2386 58.929 88.1138 59.1084 87.9656C59.2956 87.8135 59.4438 87.6536 59.5842 87.4547C59.6427 87.3806 59.5335 87.2753 59.4594 87.326Z" fill="#0C0D0D"/>
<path d="M135.002 76.007C134.99 75.9953 134.979 75.9836 134.971 75.9758C134.823 75.8471 134.667 75.7262 134.514 75.6053C134.241 75.3869 133.968 75.1685 133.699 74.9501C133.415 74.72 133.13 74.4899 132.841 74.2598C132.931 74.1428 133.017 74.0336 133.13 73.8893C133.399 73.5461 133.676 73.2107 133.933 72.8597C134.183 72.5204 134.429 72.224 134.546 71.8106C134.706 71.2295 134.148 70.6523 133.559 70.8239C132.791 71.0501 132.132 71.7755 131.574 72.3293C131.406 72.497 131.246 72.6647 131.082 72.8363C130.767 72.5828 130.443 72.3332 130.111 72.0992C129.515 71.6819 128.781 70.8668 127.998 70.937C127.494 70.9838 127.003 71.3426 127.03 71.9042C127.073 72.8324 127.998 73.4525 128.583 74.0804C128.824 74.3417 129.082 74.5874 129.339 74.8331C129.039 75.2075 128.75 75.5858 128.477 75.9758C127.986 76.6817 127.315 77.4929 127.288 78.386C127.26 79.2479 128.212 79.6691 128.91 79.3181C129.335 79.1036 129.62 78.6824 129.889 78.3002C130.115 77.9804 130.338 77.6606 130.568 77.3486C130.767 77.0795 130.962 76.8026 131.153 76.5296C131.445 76.8026 131.738 77.0795 132.03 77.3525C132.315 77.6216 132.596 77.8907 132.888 78.152C133.087 78.3275 133.29 78.5264 133.516 78.6668C133.933 78.9242 134.39 78.9281 134.854 78.8423C135.505 78.7253 135.938 78.0116 135.954 77.3954C135.954 77.3837 135.954 77.372 135.954 77.3603C135.973 76.7246 135.548 76.2215 135.002 76.007Z" fill="#272828"/>
<path d="M155.809 75.0593C155.797 75.0476 155.785 75.0359 155.777 75.0281C155.629 74.8994 155.473 74.7785 155.321 74.6576C155.048 74.4392 154.775 74.2208 154.506 74.0024C154.221 73.7723 153.937 73.5422 153.648 73.3121C153.738 73.1951 153.823 73.0859 153.937 72.9416C154.206 72.5984 154.483 72.263 154.74 71.912C154.99 71.5727 155.235 71.2763 155.352 70.8629C155.512 70.2818 154.954 69.7046 154.366 69.8762C153.597 70.1024 152.938 70.8278 152.38 71.3816C152.213 71.5493 152.053 71.717 151.889 71.8886C151.573 71.6351 151.249 71.3855 150.918 71.1515C150.321 70.7342 149.588 69.9191 148.804 69.9893C148.301 70.0361 147.81 70.3949 147.837 70.9565C147.88 71.8847 148.804 72.5048 149.389 73.1327C149.631 73.394 149.888 73.6397 150.146 73.8854C149.845 74.2598 149.557 74.6381 149.284 75.0281C148.792 75.734 148.122 76.5491 148.094 77.4383C148.067 78.3002 149.019 78.7214 149.717 78.3704C150.142 78.1559 150.427 77.7347 150.696 77.3525C150.922 77.0327 151.144 76.7129 151.374 76.4009C151.573 76.1318 151.768 75.8549 151.959 75.5819C152.252 75.8549 152.544 76.1318 152.837 76.4048C153.121 76.6739 153.402 76.943 153.695 77.2043C153.894 77.3798 154.096 77.5787 154.323 77.7191C154.74 77.9765 155.196 77.9804 155.66 77.8946C156.312 77.7776 156.745 77.0639 156.76 76.4477C156.76 76.436 156.76 76.4243 156.76 76.4126C156.78 75.7769 156.358 75.2738 155.809 75.0593Z" fill="#272828"/>
<path d="M147.828 82.4576C147.075 82.0988 146.295 81.8102 145.496 81.5723C143.998 81.1238 142.388 80.8469 140.824 80.9951C139.49 81.1199 138.141 81.5099 137.045 82.3055C136.471 82.7228 135.976 83.1908 135.547 83.7563C135.177 84.2477 134.826 84.9224 134.904 85.5503C134.958 85.991 135.414 86.3927 135.859 86.1002C136.296 85.8155 136.627 85.4021 137.002 85.0394C137.349 84.704 137.735 84.4466 138.172 84.2243C138.616 83.9981 138.971 83.8577 139.502 83.7212C140.137 83.5574 140.387 83.5223 140.991 83.5106C142.263 83.4833 143.46 83.768 144.689 84.2009C145.317 84.4232 145.933 84.6806 146.553 84.9302C146.568 84.938 146.58 84.9419 146.588 84.9458C146.756 85.0199 146.857 85.0628 146.892 85.0745C146.904 85.0784 146.912 85.0823 146.923 85.0901C147.048 85.1525 147.181 85.2071 147.313 85.25C147.621 85.3592 147.91 85.4177 148.242 85.4411C148.819 85.4801 149.263 84.9302 149.283 84.3998C149.306 83.495 148.589 82.8242 147.828 82.4576Z" fill="#272828"/>
<path d="M183.175 45.1736C183.136 45.0332 183.066 44.9123 182.964 44.8109C182.863 44.7095 182.742 44.6393 182.602 44.6003C182.34 44.5301 181.978 44.5886 181.798 44.8109C181.747 44.8772 181.693 44.9396 181.646 45.0098C181.619 45.0761 181.588 45.1463 181.56 45.2126C181.545 45.2516 181.525 45.2867 181.513 45.3257C181.471 45.4622 181.474 45.6221 181.459 45.7625C181.439 45.9263 181.42 46.0901 181.428 46.2539C181.435 46.4723 181.428 46.6907 181.471 46.9052C181.486 46.9988 181.509 47.0846 181.545 47.1704C181.595 47.2913 181.677 47.3849 181.763 47.4824C181.915 47.6501 182.204 47.6774 182.391 47.5643C182.477 47.5136 182.563 47.459 182.637 47.3888C182.719 47.3108 182.785 47.186 182.836 47.0846C182.929 46.8974 182.984 46.6907 183.05 46.4957C183.101 46.3436 183.132 46.1915 183.163 46.0355C183.206 45.7586 183.284 45.4466 183.175 45.1736Z" fill="#FFC727"/>
<path d="M188.225 45.3712C188.147 45.1138 187.925 44.8291 187.64 44.7862C187.5 44.7628 187.395 44.7471 187.262 44.7666C187.055 44.7939 186.915 44.8797 186.751 45.0123C186.685 45.0669 186.615 45.1215 186.552 45.1839C186.423 45.3126 186.318 45.4686 186.205 45.6129C185.944 45.9483 185.702 46.2916 185.468 46.6504C185.374 46.7947 185.281 46.9428 185.191 47.0871C185.074 47.2782 184.996 47.5005 184.906 47.7072C184.84 47.871 184.766 48.027 184.735 48.2025C184.707 48.3819 184.684 48.5574 184.782 48.7251C184.879 48.8889 185.023 48.9708 185.207 48.9864C185.608 49.0176 185.948 48.5925 186.213 48.3468C186.459 48.1167 186.665 47.8554 186.888 47.6058C187.102 47.3601 187.324 47.1183 187.539 46.8726C187.894 46.4514 188.409 45.9757 188.225 45.3712Z" fill="#FFC727"/>
<path d="M188.923 50.9447C188.779 50.816 188.638 50.7068 188.451 50.6483C188.303 50.6015 188.151 50.582 187.995 50.582C187.757 50.582 187.523 50.6132 187.289 50.6678C187.114 50.7068 186.942 50.7575 186.774 50.816C186.646 50.8628 186.513 50.9018 186.4 50.9837C186.283 51.0656 186.189 51.1514 186.096 51.2567C185.963 51.4049 185.901 51.5882 185.955 51.7871C186.002 51.9587 186.154 52.1342 186.334 52.1654C186.396 52.1771 186.462 52.1927 186.525 52.2005C186.607 52.2122 186.688 52.2278 186.774 52.2317C186.805 52.2317 186.837 52.2278 186.868 52.2239C186.86 52.2239 186.856 52.2239 186.848 52.2278C186.868 52.2239 186.883 52.2239 186.903 52.2239H186.907C187.164 52.1927 187.426 52.181 187.687 52.1927C187.827 52.2005 187.972 52.2005 188.112 52.1927C188.229 52.1849 188.358 52.1654 188.471 52.1381C188.588 52.1108 188.689 52.0406 188.791 51.9821C189.138 51.7793 189.243 51.2294 188.923 50.9447Z" fill="#FFC727"/>
<path d="M131.604 96.6758L122.209 104.012L118.633 142.493H153.748L158.007 96.6758H131.604Z" fill="#868686"/>
<path d="M130.922 104.012L131.604 96.6758L122.209 104.012H130.922Z" fill="#0C0D0D"/>
<path d="M142.981 115.563C143.464 114.985 144.03 114.393 144.217 113.64C144.373 113.02 143.831 112.548 143.238 112.661C142.54 112.794 141.967 113.285 141.421 113.702C140.82 114.163 140.251 114.654 139.681 115.153C138.882 115.851 138.114 116.596 137.353 117.345C136.967 116.787 136.581 116.226 136.191 115.668C135.801 115.11 135.419 114.549 135.005 114.007C134.569 113.437 134.132 112.782 133.504 112.408C132.958 112.08 132.041 112.489 132.123 113.199C132.283 114.584 133.274 115.914 133.972 117.088C134.424 117.844 134.888 118.585 135.364 119.326C134.803 119.892 134.245 120.461 133.691 121.034C132.689 122.064 131.328 123.148 130.84 124.537C130.552 125.356 131.495 126.409 132.353 126.05C133.734 125.473 134.713 124.131 135.735 123.078C136.16 122.641 136.589 122.208 137.018 121.771C137.54 122.512 138.071 123.246 138.621 123.963C139.061 124.537 139.506 125.11 139.958 125.671C140.185 125.952 140.399 126.26 140.664 126.506C141.148 126.958 141.631 127.052 142.275 126.943C142.735 126.865 143.063 126.428 143.199 126.019C143.523 125.055 142.794 124.357 142.22 123.69C141.787 123.187 141.362 122.68 140.945 122.169C140.29 121.366 139.662 120.543 139.042 119.712C139.904 118.846 140.777 117.985 141.604 117.088C142.076 116.584 142.544 116.089 142.981 115.563Z" fill="#EF877B"/>
<path d="M128.862 92.2891L119.463 99.6211L115.887 138.102H151.006L155.261 92.2891H128.862Z" fill="#B1B1B1"/>
<path d="M128.18 99.6211L128.862 92.2891L119.463 99.6211H128.18Z" fill="#FAFAFA"/>
<path d="M140.239 111.176C140.722 110.599 141.288 110.006 141.475 109.253C141.631 108.633 141.089 108.161 140.496 108.274C139.798 108.407 139.225 108.898 138.679 109.316C138.078 109.776 137.505 110.267 136.939 110.766C136.14 111.464 135.371 112.209 134.611 112.958C134.225 112.4 133.839 111.839 133.449 111.281C133.059 110.723 132.677 110.162 132.263 109.62C131.826 109.05 131.39 108.395 130.762 108.021C130.216 107.693 129.299 108.103 129.381 108.812C129.541 110.197 130.532 111.527 131.23 112.701C131.682 113.457 132.146 114.198 132.622 114.939C132.06 115.505 131.503 116.074 130.949 116.648C129.947 117.677 128.585 118.761 128.098 120.15C127.809 120.969 128.753 122.022 129.611 121.663C130.992 121.086 131.971 119.744 132.992 118.691C133.418 118.254 133.847 117.821 134.276 117.385C134.798 118.126 135.329 118.859 135.878 119.576C136.319 120.15 136.764 120.723 137.216 121.285C137.442 121.565 137.657 121.874 137.922 122.119C138.406 122.572 138.889 122.665 139.533 122.556C139.993 122.478 140.321 122.041 140.457 121.632C140.781 120.668 140.051 119.97 139.478 119.303C139.045 118.8 138.62 118.293 138.203 117.782C137.548 116.979 136.92 116.156 136.3 115.325C137.162 114.46 138.035 113.598 138.862 112.701C139.33 112.194 139.802 111.698 140.239 111.176Z" fill="white"/>
<path d="M119.037 138.102L151.828 139.338L154.855 96.6758L151.005 138.102H119.037Z" fill="#272828"/>
<path d="M121.764 91.8933C121.604 91.71 121.448 91.5267 121.272 91.359C121.101 91.1952 120.933 91.0314 120.746 90.8832C120.648 90.8052 120.551 90.7272 120.453 90.6492C120.383 90.5946 120.325 90.5439 120.243 90.5127C120.227 90.5049 120.208 90.4971 120.192 90.4893C120.142 90.4659 120.091 90.4464 120.036 90.423C119.849 90.345 119.67 90.3294 119.498 90.462C119.354 90.5712 119.26 90.7896 119.326 90.969C119.373 91.1016 119.416 91.2732 119.494 91.3902C119.556 91.4877 119.631 91.5774 119.701 91.6671C119.876 91.905 120.067 92.1195 120.27 92.334C120.438 92.5134 120.625 92.6655 120.812 92.8215C120.933 92.9229 121.054 93.036 121.191 93.114C121.358 93.2115 121.538 93.3168 121.737 93.2934C121.869 93.2778 121.998 93.2505 122.095 93.1452C122.189 93.0399 122.232 92.9268 122.244 92.7864C122.267 92.4432 121.971 92.1312 121.764 91.8933Z" fill="white"/>
<path d="M120.996 95.1604C120.918 95.0356 120.813 94.9576 120.692 94.8835C120.54 94.7509 120.306 94.7002 120.119 94.6846C119.97 94.6729 119.822 94.6651 119.674 94.669C119.491 94.6729 119.3 94.7119 119.12 94.747C118.913 94.786 118.722 94.8406 118.578 95.0122C118.379 95.2462 118.399 95.5816 118.672 95.7532C118.785 95.8234 118.913 95.8741 119.05 95.8741C119.124 95.8741 119.198 95.8663 119.268 95.8663C119.409 95.8624 119.553 95.8702 119.69 95.8507C119.986 95.8117 120.403 95.8312 120.657 95.6401C120.661 95.6401 120.661 95.6401 120.661 95.6362C120.719 95.6128 120.77 95.5894 120.821 95.5504C120.867 95.5153 120.918 95.4763 120.957 95.4334C121.027 95.3593 121.055 95.2462 120.996 95.1604Z" fill="white"/>
<path d="M124.666 90.0238C124.666 89.9263 124.67 89.8249 124.662 89.7274C124.654 89.5597 124.599 89.4505 124.51 89.3179C124.396 89.1541 124.201 89.0956 124.022 89.1892C123.893 89.2555 123.78 89.3335 123.706 89.4661C123.64 89.5831 123.593 89.7235 123.542 89.8483C123.461 90.055 123.445 90.3007 123.418 90.523C123.386 90.7531 123.367 90.9754 123.383 91.2094C123.398 91.4746 123.402 91.771 123.558 92.0011C123.749 92.2858 124.155 92.3014 124.346 92.0011C124.432 91.8607 124.471 91.6969 124.49 91.537C124.494 91.4941 124.498 91.4512 124.506 91.4083C124.51 91.3888 124.514 91.3732 124.514 91.3615C124.553 91.1158 124.58 90.874 124.603 90.6283C124.611 90.5308 124.623 90.4333 124.634 90.3397C124.638 90.3241 124.638 90.3046 124.642 90.3007C124.65 90.2032 124.666 90.1135 124.666 90.0238Z" fill="white"/>
<path d="M81.6433 53.7391C88.805 53.7391 94.6108 48.6737 94.6108 42.4252C94.6108 36.1767 88.805 31.1113 81.6433 31.1113C74.4815 31.1113 68.6758 36.1767 68.6758 42.4252C68.6758 48.6737 74.4815 53.7391 81.6433 53.7391Z" fill="#888888"/>
<path d="M71.5339 47.8711C71.5339 47.8711 69.7126 50.2852 67.7626 51.4747C67.4194 51.6853 67.5169 52.204 67.9108 52.282C69.5449 52.6096 72.6064 52.9333 75.6406 51.7321L71.5339 47.8711Z" fill="#888888"/>
<path d="M161.594 31.0174L163.626 31.6765L161.594 32.3356C160.768 32.6047 160.116 33.2521 159.847 34.0828L159.188 36.1147L158.529 34.0828C158.26 33.256 157.613 32.6047 156.782 32.3356L154.75 31.6765L156.782 31.0174C157.609 30.7483 158.26 30.1009 158.529 29.2702L159.188 27.2383L159.847 29.2702C160.116 30.1009 160.764 30.7483 161.594 31.0174Z" fill="#FFC727"/>
<path d="M28.4871 144.129L30.519 144.788L28.4871 145.447C27.6603 145.716 27.009 146.363 26.7399 147.194L26.0808 149.226L25.4217 147.194C25.1526 146.367 24.5052 145.716 23.6745 145.447L21.6426 144.788L23.6745 144.129C24.5013 143.86 25.1526 143.212 25.4217 142.382L26.0808 140.35L26.7399 142.382C27.0129 143.212 27.6603 143.86 28.4871 144.129Z" fill="#FFC727"/>
<path d="M103.13 90.9521L104.795 91.4942L103.13 92.0363C102.451 92.2547 101.917 92.789 101.698 93.4676L101.156 95.1329L100.614 93.4676C100.396 92.789 99.8615 92.2547 99.1829 92.0363L97.5176 91.4942L99.1829 90.9521C99.8615 90.7337 100.396 90.1994 100.614 89.5208L101.156 87.8555L101.698 89.5208C101.917 90.1994 102.451 90.7298 103.13 90.9521Z" fill="#FFC727"/>
<path d="M177.089 148.637L178.754 149.18L177.089 149.722C176.41 149.94 175.876 150.474 175.657 151.153L175.115 152.818L174.573 151.153C174.355 150.474 173.821 149.94 173.142 149.722L171.477 149.18L173.142 148.637C173.821 148.419 174.355 147.885 174.573 147.206L175.115 145.541L175.657 147.206C175.876 147.885 176.406 148.415 177.089 148.637Z" fill="#FFC727"/>
<path d="M168.837 36.9524L169.749 37.2488L168.837 37.5452C168.462 37.6661 168.174 37.9586 168.053 38.3291L167.757 39.2417L167.46 38.3291C167.339 37.9547 167.047 37.6661 166.676 37.5452L165.764 37.2488L166.676 36.9524C167.051 36.8315 167.339 36.539 167.46 36.1685L167.757 35.2559L168.053 36.1685C168.17 36.539 168.462 36.8315 168.837 36.9524Z" fill="#FFC727"/>
<path d="M47.0556 32.4445L47.9682 32.7409L47.0556 33.0373C46.6812 33.1582 46.3926 33.4507 46.2717 33.8212L45.9753 34.7338L45.6789 33.8212C45.558 33.4468 45.2655 33.1582 44.895 33.0373L43.9824 32.7409L44.895 32.4445C45.2694 32.3236 45.558 32.0311 45.6789 31.6606L45.9753 30.748L46.2717 31.6606C46.3926 32.035 46.6851 32.3236 47.0556 32.4445Z" fill="#FFC727"/>
<path d="M144.955 140.868C144.834 140.638 144.728 140.4 144.631 140.158" stroke="#4F4F4F" stroke-linecap="round" stroke-linejoin="round"/>
<path d="M144.214 138.673C143.68 135.713 144.764 132.445 147.119 130.542C149.896 128.295 153.742 128.061 157.31 127.917C160.98 127.769 164.677 127.609 168.261 126.813C170.672 126.279 173.07 125.429 174.965 123.849C176.861 122.27 178.183 119.856 177.976 117.399C177.77 114.942 175.761 112.614 173.296 112.5C170.831 112.387 168.495 114.985 169.24 117.336C169.669 118.694 170.948 119.676 172.337 119.992C173.725 120.312 175.196 120.039 176.51 119.489C179.345 118.311 181.599 115.815 182.485 112.875C182.988 111.21 183.066 109.443 182.957 107.707C182.828 105.621 182.422 103.503 181.358 101.705C179.957 99.3379 177.52 97.7155 174.919 96.8224C172.805 96.097 170.574 95.8084 168.335 95.6641" stroke="#4F4F4F" stroke-linecap="round" stroke-linejoin="round" stroke-dasharray="3.96 3.96"/>
<path d="M167.567 95.6212C167.306 95.6095 167.048 95.5978 166.787 95.5861" stroke="#4F4F4F" stroke-linecap="round" stroke-linejoin="round"/>
<path d="M114.255 140.361C108.26 142.062 101.51 141.153 96.3616 137.639C91.2175 134.125 87.8713 127.994 88.0351 121.766C88.1989 115.538 92.0131 109.462 97.6876 106.899C99.8443 105.924 102.387 105.46 104.555 106.404C106.724 107.348 108.194 110.054 107.18 112.192C106.166 114.321 103.07 114.879 101.084 113.603C99.0993 112.328 98.2414 109.742 98.5144 107.398C98.7874 105.055 100.02 102.925 101.455 101.053C105.815 95.367 112.391 91.4241 119.461 90.258" stroke="#4F4F4F" stroke-miterlimit="10" stroke-linecap="round" stroke-linejoin="round" stroke-dasharray="4 4"/>
<path d="M84.418 63.0069C84.418 62.1907 84.6848 61.5158 85.2185 60.9821C85.7522 60.417 86.4271 60.1345 87.2433 60.1345C88.5304 60.1345 89.6919 59.9462 90.7278 59.5694C91.7638 59.1614 92.5799 58.5178 93.1764 57.6388C93.8042 56.7599 94.1182 55.5984 94.1182 54.1543C94.1182 53.087 93.8513 52.1452 93.3177 51.329C92.8154 50.5128 92.1091 49.8693 91.1987 49.3984C90.3197 48.9275 89.3152 48.6921 88.1851 48.6921C87.3061 48.6921 86.4742 48.8491 85.6894 49.163C84.936 49.4769 84.2454 49.9007 83.6175 50.4344C83.1152 50.8738 82.5031 51.2035 81.7811 51.4232C81.0905 51.6116 80.3841 51.4389 79.6621 50.9052C78.9087 50.3402 78.5006 49.6652 78.4378 48.8804C78.375 48.0956 78.6733 47.3736 79.3325 46.7144C80.4626 45.5529 81.7811 44.6582 83.2879 44.0304C84.8261 43.3711 86.4585 43.0415 88.1851 43.0415C90.3511 43.0415 92.2974 43.5438 94.024 44.5483C95.7819 45.5215 97.1789 46.84 98.2148 48.5037C99.2508 50.1675 99.7687 52.051 99.7687 54.1543C99.7687 55.7239 99.5333 57.1209 99.0624 58.3452C98.5915 59.5381 97.9166 60.574 97.0376 61.453C96.19 62.3006 95.1855 62.9912 94.024 63.5248C92.8939 64.0271 91.6539 64.3881 90.304 64.6079C90.2412 64.6393 90.1785 64.6707 90.1157 64.7021C90.0843 64.7334 90.0686 64.7805 90.0686 64.8433V66.5856C90.0686 67.4018 89.8017 68.0924 89.2681 68.6575C88.7344 69.1911 88.0595 69.4579 87.2433 69.4579C86.4271 69.4579 85.7522 69.1911 85.2185 68.6575C84.6848 68.0924 84.418 67.4018 84.418 66.5856V63.0069ZM87.0079 77.8867C86.0975 77.8867 85.3912 77.6513 84.8889 77.1804C84.418 76.6781 84.1826 75.9718 84.1826 75.0614V74.2609C84.1826 73.3506 84.418 72.6599 84.8889 72.1891C85.3912 71.6868 86.0975 71.4356 87.0079 71.4356H87.62C88.5304 71.4356 89.221 71.6868 89.6919 72.1891C90.1942 72.6599 90.4453 73.3506 90.4453 74.2609V75.0614C90.4453 75.9718 90.1942 76.6781 89.6919 77.1804C89.221 77.6513 88.5304 77.8867 87.62 77.8867H87.0079Z" fill="#272828"/>
</svg>
