<svg width="50" height="22" viewBox="0 0 50 22" fill="none" xmlns="http://www.w3.org/2000/svg">
<path d="M15.3866 7.47239C15.3866 11.6004 12.1707 14.9448 8.20124 14.9448C4.23177 14.9448 1.01587 11.6004 1.01587 7.47239C1.01587 3.34436 4.23177 0 8.20124 0C12.1707 0 15.3866 3.34436 15.3866 7.47239Z" fill="#261E1C"/>
<path d="M9.26676 7.09582C9.26676 8.55277 8.13111 9.72827 6.73543 9.72827C5.33975 9.72827 4.2041 8.54725 4.2041 7.09582C4.2041 5.64439 5.33975 4.46338 6.73543 4.46338C8.13111 4.46338 9.26676 5.64439 9.26676 7.09582Z" fill="white"/>
<path d="M12.7372 5.98732C12.7372 6.83168 12.0792 7.51601 11.2672 7.51601C10.4553 7.51601 9.79724 6.83168 9.79724 5.98732C9.79724 5.14295 10.4553 4.45862 11.2672 4.45862C12.0792 4.45862 12.7372 5.14295 12.7372 5.98732Z" fill="white"/>
<path d="M48.2034 7.47239C48.2034 11.6004 44.9875 14.9448 41.018 14.9448C37.0485 14.9448 33.8326 11.6004 33.8326 7.47239C33.8326 3.34436 37.0485 0 41.018 0C44.9875 0 48.2034 3.34436 48.2034 7.47239Z" fill="#261E1C"/>
<path d="M42.0899 7.09582C42.0899 8.55277 40.9542 9.72827 39.5585 9.72827C38.1629 9.72827 37.0272 8.54725 37.0272 7.09582C37.0272 5.64439 38.1629 4.46338 39.5585 4.46338C40.9542 4.46338 42.0899 5.64439 42.0899 7.09582Z" fill="white"/>
<path d="M45.5554 5.98732C45.5554 6.83168 44.8974 7.51601 44.0854 7.51601C43.2735 7.51601 42.6155 6.83168 42.6155 5.98732C42.6155 5.14295 43.2735 4.45862 44.0854 4.45862C44.8974 4.45862 45.5554 5.14295 45.5554 5.98732Z" fill="white"/>
<path d="M30.8927 14.9504C30.8927 17.7374 28.0801 20.0001 24.6042 20.0001C21.1283 20.0001 18.3157 17.7374 18.3157 14.9504" stroke="#261E1C" stroke-width="2.46093" stroke-linecap="round" stroke-linejoin="round"/>
<path d="M8.28002 16.3635C7.74404 17.5777 5.48335 17.6936 3.22797 16.6174C0.972596 15.5412 -0.417776 13.6869 0.112901 12.4728C0.648885 11.2587 2.90957 11.1428 5.16495 12.219C7.42032 13.2951 8.8107 15.1494 8.27472 16.3635H8.28002Z" fill="#FCA695"/>
<path d="M40.9387 16.3635C41.4747 17.5777 43.7354 17.6936 45.9907 16.6174C48.2461 15.5412 49.6365 13.6869 49.1058 12.4728C48.5698 11.2587 46.3091 11.1428 44.0538 12.219C41.7984 13.2951 40.408 15.1494 40.944 16.3635H40.9387Z" fill="#FCA695"/>
</svg>
