<svg width="68" height="45" viewBox="0 0 68 45" fill="none" xmlns="http://www.w3.org/2000/svg">
<path d="M12.9934 21.4845C17.746 20.3672 20.693 15.6086 19.5757 10.856C18.4583 6.10338 13.6998 3.15641 8.94717 4.27375C4.19455 5.39109 1.24758 10.1496 2.36492 14.9023C3.48227 19.6549 8.24081 22.6019 12.9934 21.4845Z" fill="#1E1D20"/>
<path fill-rule="evenodd" clip-rule="evenodd" d="M6.3764 13.7079C7.7864 13.7079 8.9364 12.5579 8.9364 11.1479C8.9364 9.7379 7.7864 8.58789 6.3764 8.58789C4.9664 8.58789 3.81641 9.7379 3.81641 11.1479C3.81641 12.5579 4.9664 13.7079 6.3764 13.7079Z" fill="white"/>
<path fill-rule="evenodd" clip-rule="evenodd" d="M9.58727 9.07785C10.3473 9.07785 10.9773 8.45785 10.9773 7.68785C10.9773 6.91785 10.3573 6.29785 9.58727 6.29785C8.81727 6.29785 8.19727 6.91785 8.19727 7.68785C8.19727 8.45785 8.81727 9.07785 9.58727 9.07785Z" fill="white"/>
<path fill-rule="evenodd" clip-rule="evenodd" d="M56.0568 21.7171C60.9268 21.7171 64.8968 17.7471 64.8968 12.8771C64.8968 8.00711 60.9268 4.03711 56.0568 4.03711C51.1868 4.03711 47.2168 8.00711 47.2168 12.8771C47.2168 17.7471 51.1868 21.7171 56.0568 21.7171Z" fill="#1E1D20"/>
<path fill-rule="evenodd" clip-rule="evenodd" d="M60.6479 13.7079C62.0579 13.7079 63.2079 12.5579 63.2079 11.1479C63.2079 9.7379 62.0579 8.58789 60.6479 8.58789C59.2379 8.58789 58.0879 9.7379 58.0879 11.1479C58.0879 12.5579 59.2379 13.7079 60.6479 13.7079Z" fill="white"/>
<path fill-rule="evenodd" clip-rule="evenodd" d="M57.4369 9.07785C58.1969 9.07785 58.8269 8.45785 58.8269 7.68785C58.8269 6.91785 58.2069 6.29785 57.4369 6.29785C56.6669 6.29785 56.0469 6.91785 56.0469 7.68785C56.0469 8.45785 56.6669 9.07785 57.4369 9.07785Z" fill="white"/>
<path fill-rule="evenodd" clip-rule="evenodd" d="M8.19749 29.0572C12.0575 29.0572 15.2075 27.7172 15.2075 26.0672C15.2075 24.4172 12.0575 23.0771 8.19749 23.0771C4.33749 23.0771 1.1875 24.4172 1.1875 26.0672C1.1875 27.7172 4.33749 29.0572 8.19749 29.0572Z" fill="#FFBB96"/>
<path fill-rule="evenodd" clip-rule="evenodd" d="M60.6467 29.0572C64.5067 29.0572 67.6567 27.7172 67.6567 26.0672C67.6567 24.4172 64.5067 23.0771 60.6467 23.0771C56.7867 23.0771 53.6367 24.4172 53.6367 26.0672C53.6367 27.7172 56.7867 29.0572 60.6467 29.0572Z" fill="#FFBB96"/>
<path fill-rule="evenodd" clip-rule="evenodd" d="M33.9181 36.4377C28.4081 42.8877 22.0881 44.9777 16.7781 43.7877C14.7081 43.0677 13.1581 41.3177 12.7081 39.1777C12.2581 37.0277 12.9581 34.8077 14.5681 33.3077C13.8781 35.1377 14.5281 37.2077 16.1481 38.3077C21.8481 40.4877 23.2781 27.2177 33.8581 32.9577C44.4481 27.2277 45.8681 40.4877 51.5681 38.3077C53.1881 37.2077 53.8481 35.1377 53.1481 33.3077C54.8081 34.7577 55.5681 36.9877 55.1381 39.1477C54.7081 41.3077 53.1481 43.0777 51.0581 43.7777C45.0081 45.1077 39.2981 43.3377 33.9081 36.4277L33.9181 36.4377Z" fill="#2B2A29"/>
<path d="M45.3081 12.6175C44.9681 12.6175 44.6381 12.4975 44.3681 12.2575C43.7881 11.7375 43.7381 10.8475 44.2581 10.2675C48.6281 5.40751 54.4581 1.96751 61.6081 0.0475148C62.3581 -0.152485 63.1381 0.297515 63.3381 1.04751C63.5381 1.79751 63.0881 2.57751 62.3381 2.77751C55.7281 4.54751 50.3481 7.70752 46.3581 12.1475C46.0781 12.4575 45.6981 12.6175 45.3081 12.6175Z" fill="#1E1D20"/>
<path d="M22.3275 12.6175C21.9375 12.6175 21.5575 12.4575 21.2775 12.1475C17.2875 7.69752 11.9075 4.54751 5.29751 2.77751C4.54751 2.57751 4.09751 1.79751 4.29751 1.04751C4.49751 0.297515 5.26751 -0.152485 6.02751 0.0475148C13.1775 1.96751 19.0175 5.39751 23.3775 10.2675C23.8975 10.8475 23.8475 11.7375 23.2675 12.2575C22.9975 12.4975 22.6575 12.6175 22.3275 12.6175Z" fill="#1E1D20"/>
</svg>
