<svg width="40" height="40" viewBox="0 0 40 40" fill="none" xmlns="http://www.w3.org/2000/svg">
<path d="M23.3594 30.584H16.7188V34.2301H23.3594V30.584Z" fill="#333940"/>
<path d="M20 30.584H16.7188V34.2301H20V30.584Z" fill="#636978"/>
<path d="M24.377 33.5156H15.623C13.1291 33.5156 11.0938 35.545 11.0938 38.0388V38.8281C11.0938 39.4753 11.6248 40 12.2721 40H27.728C28.3752 40 28.9063 39.4753 28.9063 38.8281V38.0388C28.9062 35.545 26.8709 33.5156 24.377 33.5156Z" fill="#7E8596"/>
<path d="M20 33.5156H15.623C13.1291 33.5156 11.0938 35.545 11.0938 38.0388V38.8281C11.0938 39.4753 11.6248 40 12.2721 40H20V33.5156Z" fill="#DCE1EB"/>
<path d="M28.9844 15.25V19.989C28.9844 24.9633 24.9743 29.0102 20 29.0102C15.0257 29.0102 11.0156 24.9633 11.0156 19.989V15.25H8.67188V19.989C8.67188 26.2556 13.7334 31.3539 20 31.3539C26.2666 31.3539 31.3281 26.2556 31.3281 19.989V15.25H28.9844Z" fill="#FFD547"/>
<path d="M20 29.0102C15.0257 29.0102 11.0156 24.9633 11.0156 19.989V15.25H8.67188V19.989C8.67188 26.2556 13.7334 31.3539 20 31.3539V29.0102Z" fill="#FFDA5E"/>
<path d="M31.2355 15.6699H8.76367C8.11648 15.6699 7.5918 15.1452 7.5918 14.498C7.5918 13.8509 8.11648 13.3262 8.76367 13.3262H31.2355C31.8827 13.3262 32.4074 13.8509 32.4074 14.498C32.4074 15.1452 31.8827 15.6699 31.2355 15.6699Z" fill="#DCE1EB"/>
<path d="M27.5781 7.61719C27.5781 3.41031 24.1678 0 19.9609 0C15.7541 0 12.3438 3.41031 12.3438 7.61719V19.9609C12.3438 24.1678 15.7541 27.5781 19.9609 27.5781C24.1678 27.5781 27.5781 24.1678 27.5781 19.9609V7.61719Z" fill="#333940"/>
<path d="M19.9609 0C15.7541 0 12.3438 3.41031 12.3438 7.61719V19.9609C12.3438 24.1678 15.7541 27.5781 19.9609 27.5781V0Z" fill="#636978"/>
<path d="M18.3102 8.35938C18.3102 7.71219 17.7855 7.1875 17.1383 7.1875H12.3549C12.3477 7.34375 12.3438 7.47906 12.3438 7.61719V9.53125H17.1383C17.7855 9.53125 18.3102 9.00656 18.3102 8.35938Z" fill="#333940"/>
<path d="M18.3102 12.1875C18.3102 11.5403 17.7855 11.0156 17.1383 11.0156H12.3438V13.3594H17.1383C17.7855 13.3594 18.3102 12.8347 18.3102 12.1875Z" fill="#333940"/>
<path d="M18.3102 16.0156C18.3102 15.3684 17.7855 14.8438 17.1383 14.8438H12.3438V17.1875H17.1383C17.7855 17.1875 18.3102 16.6628 18.3102 16.0156Z" fill="#333940"/>
<path d="M21.6895 8.35938C21.6895 9.00656 22.2141 9.53125 22.8613 9.53125H27.5777V7.61719C27.5777 7.47906 27.5738 7.34375 27.5666 7.1875H22.8613C22.2141 7.1875 21.6895 7.71219 21.6895 8.35938Z" fill="#212121"/>
<path d="M21.6895 12.1875C21.6895 12.8347 22.2141 13.3594 22.8613 13.3594H27.5777V11.0156H22.8613C22.2141 11.0156 21.6895 11.5403 21.6895 12.1875Z" fill="#212121"/>
<path d="M21.6895 16.0156C21.6895 16.6628 22.2141 17.1875 22.8613 17.1875H27.5777V14.8438H22.8613C22.2141 14.8438 21.6895 15.3684 21.6895 16.0156Z" fill="#212121"/>
</svg>
