<svg width="11" height="16" viewBox="0 0 11 16" fill="none" xmlns="http://www.w3.org/2000/svg">
<path d="M2.19922 3C2.19922 2.20435 2.51529 1.44129 3.0779 0.87868C3.64051 0.31607 4.40357 0 5.19922 0C5.99487 0 6.75793 0.31607 7.32054 0.87868C7.88315 1.44129 8.19922 2.20435 8.19922 3V8C8.19922 8.79565 7.88315 9.55871 7.32054 10.1213C6.75793 10.6839 5.99487 11 5.19922 11C4.40357 11 3.64051 10.6839 3.0779 10.1213C2.51529 9.55871 2.19922 8.79565 2.19922 8V3Z" fill="white"/>
<path d="M0.699219 6.5C0.831827 6.5 0.959004 6.55268 1.05277 6.64645C1.14654 6.74021 1.19922 6.86739 1.19922 7V8C1.19922 9.06087 1.62065 10.0783 2.37079 10.8284C3.12094 11.5786 4.13835 12 5.19922 12C6.26008 12 7.2775 11.5786 8.02765 10.8284C8.77779 10.0783 9.19922 9.06087 9.19922 8V7C9.19922 6.86739 9.2519 6.74021 9.34566 6.64645C9.43943 6.55268 9.56661 6.5 9.69922 6.5C9.83183 6.5 9.959 6.55268 10.0528 6.64645C10.1465 6.74021 10.1992 6.86739 10.1992 7V8C10.1992 9.23953 9.73883 10.4349 8.90734 11.3541C8.07584 12.2734 6.93253 12.851 5.69922 12.975V15H8.69922C8.83183 15 8.959 15.0527 9.05277 15.1464C9.14654 15.2402 9.19922 15.3674 9.19922 15.5C9.19922 15.6326 9.14654 15.7598 9.05277 15.8536C8.959 15.9473 8.83183 16 8.69922 16H1.69922C1.56661 16 1.43943 15.9473 1.34567 15.8536C1.2519 15.7598 1.19922 15.6326 1.19922 15.5C1.19922 15.3674 1.2519 15.2402 1.34567 15.1464C1.43943 15.0527 1.56661 15 1.69922 15H4.69922V12.975C3.4659 12.851 2.32259 12.2734 1.4911 11.3541C0.659603 10.4349 0.199203 9.23953 0.199219 8V7C0.199219 6.86739 0.251897 6.74021 0.345665 6.64645C0.439434 6.55268 0.566611 6.5 0.699219 6.5Z" fill="white"/>
</svg>
