<svg width="138" height="102" viewBox="0 0 138 102" fill="none" xmlns="http://www.w3.org/2000/svg">
<path d="M0 0H13.9961L32.7399 45.7495H33.4798L52.2235 0H66.2197V63.1368H55.2447V19.7611H54.659L37.21 62.9518H29.0096L11.5607 19.6686H10.975V63.1368H0V0Z" fill="url(#paint0_linear_182_679)"/>
<path d="M103.584 0H114.929V44.3931C114.908 48.4624 114.045 51.9666 112.339 54.9056C110.633 57.824 108.249 60.0745 105.187 61.657C102.145 63.219 98.5999 64 94.5511 64C90.8516 64 87.5222 63.3423 84.5626 62.027C81.6236 60.6911 79.2909 58.718 77.5646 56.1079C75.8382 53.4978 74.975 50.2505 74.975 46.3661H86.3507C86.3712 48.0719 86.7412 49.5414 87.4605 50.7746C88.2004 52.0077 89.2177 52.9531 90.5125 53.6108C91.8073 54.2685 93.2974 54.5973 94.9827 54.5973C96.8118 54.5973 98.3635 54.2171 99.6378 53.4566C100.912 52.6757 101.878 51.5247 102.536 50.0039C103.214 48.483 103.563 46.6127 103.584 44.3931V0Z" fill="url(#paint1_linear_182_679)"/>
<path d="M130.751 63.815C128.881 63.815 127.278 63.1574 125.942 61.842C124.606 60.5267 123.949 58.9236 123.969 57.0328C123.949 55.183 124.606 53.6005 125.942 52.2852C127.278 50.9698 128.881 50.3121 130.751 50.3121C132.56 50.3121 134.132 50.9698 135.468 52.2852C136.825 53.6005 137.513 55.183 137.534 57.0328C137.513 58.2864 137.184 59.4271 136.547 60.4547C135.931 61.4823 135.109 62.3044 134.081 62.921C133.074 63.517 131.964 63.815 130.751 63.815Z" fill="url(#paint2_linear_182_679)"/>
<path d="M16.0334 97.2041C15.1204 97.2041 14.5833 96.6455 14.5833 95.6895V83.3789C14.5833 82.0684 15.3567 81.2842 16.678 81.2842C17.8059 81.2842 18.429 81.7568 18.9016 82.96L22.7473 92.4883H22.8333L26.6682 82.96C27.1409 81.7676 27.7747 81.2842 28.9133 81.2842C30.2239 81.2842 30.9973 82.0576 30.9973 83.3789V95.6895C30.9973 96.6455 30.4602 97.2041 29.5471 97.2041C28.634 97.2041 28.1077 96.6455 28.1077 95.6895V86.5371H28.0217L24.1868 95.915C23.9075 96.6025 23.4778 96.9033 22.801 96.9033C22.1135 96.9033 21.6624 96.5918 21.3938 95.9258L17.5588 86.5371H17.4729V95.6895C17.4729 96.6455 16.9465 97.2041 16.0334 97.2041ZM35.262 101.265C33.887 101.265 33.1458 100.738 33.1458 99.793C33.1458 99.1592 33.5862 98.7617 34.2952 98.7617C34.51 98.7617 34.6282 98.7725 34.843 98.7725C35.3909 98.7725 35.9817 98.5361 36.3577 97.7305L36.5188 97.3223L32.845 87.6328C32.7268 87.3105 32.6624 86.9668 32.6624 86.709C32.6624 85.8604 33.3606 85.248 34.2844 85.248C35.1116 85.248 35.5413 85.6025 35.7991 86.5156L38.302 94.4863H38.3557L40.8586 86.4941C41.1165 85.624 41.5676 85.248 42.3733 85.248C43.2756 85.248 43.8987 85.8389 43.8987 86.666C43.8987 86.9238 43.8342 87.2891 43.7268 87.5898L40.1926 97.1934C39.1184 100.169 37.7864 101.265 35.262 101.265ZM54.1682 97.2578C51.8372 97.2578 50.0432 96.1943 49.3127 94.4111C49.1301 93.96 49.0442 93.5732 49.0442 93.1006C49.0442 92.166 49.635 91.5752 50.5481 91.5752C51.3645 91.5752 51.8372 91.9619 52.095 92.8428C52.385 93.8848 53.1047 94.4648 54.136 94.4648C55.4895 94.4648 56.22 93.627 56.22 92.0693V82.9814C56.22 81.9072 56.8215 81.2842 57.842 81.2842C58.8625 81.2842 59.4641 81.9072 59.4641 82.9814V92.0908C59.4641 95.3887 57.4875 97.2578 54.1682 97.2578ZM67.1877 97.2471C63.7073 97.2471 61.4836 95.0127 61.4836 91.2314C61.4836 87.5039 63.7395 85.2373 67.1877 85.2373C70.636 85.2373 72.8918 87.4932 72.8918 91.2314C72.8918 95.0234 70.6682 97.2471 67.1877 97.2471ZM67.1877 94.8516C68.7239 94.8516 69.7014 93.5518 69.7014 91.2422C69.7014 88.9541 68.7131 87.6328 67.1877 87.6328C65.6624 87.6328 64.6633 88.9541 64.6633 91.2422C64.6633 93.5518 65.6409 94.8516 67.1877 94.8516ZM78.6067 97.2148C76.1145 97.2148 74.4602 95.5928 74.4602 92.9072V86.8916C74.4602 85.8174 75.1155 85.248 76.0286 85.248C76.9524 85.248 77.5969 85.8174 77.5969 86.8916V92.252C77.5969 93.7881 78.3596 94.6045 79.7454 94.6045C81.1418 94.6045 82.012 93.6055 82.012 92.0801V86.8916C82.012 85.8174 82.6672 85.248 83.5803 85.248C84.5042 85.248 85.1487 85.8174 85.1487 86.8916V95.6357C85.1487 96.6777 84.5364 97.2256 83.634 97.2256C82.7317 97.2256 82.1194 96.6777 82.1194 95.6357V94.9268H82.0549C81.4856 96.377 80.3469 97.2148 78.6067 97.2148ZM88.7581 97.2256C87.8127 97.2256 87.1897 96.6348 87.1897 95.5928V86.8271C87.1897 85.8281 87.802 85.248 88.7043 85.248C89.5852 85.248 90.1868 85.8281 90.1868 86.8271V87.5791H90.2512C90.552 86.1504 91.4973 85.3018 92.6467 85.3018C93.0657 85.3018 93.3987 85.3984 93.6243 85.5918C93.925 85.8281 94.0754 86.2148 94.0754 86.752C94.0754 87.2461 93.925 87.6221 93.6243 87.8799C93.3235 88.1377 92.8723 88.2773 92.26 88.2881C90.8313 88.3096 90.3264 89.1152 90.3264 90.4795V95.5928C90.3264 96.6348 89.7141 97.2256 88.7581 97.2256ZM96.7717 97.2256C95.8586 97.2256 95.2034 96.667 95.2034 95.5928V86.8271C95.2034 85.8496 95.7727 85.248 96.718 85.248C97.6633 85.248 98.2864 85.8496 98.2864 86.8379V87.4824H98.3508C98.9631 86.0537 100.123 85.2695 101.896 85.2695C104.452 85.2695 105.892 86.8809 105.892 89.5771V95.5928C105.892 96.667 105.237 97.2256 104.323 97.2256C103.4 97.2256 102.755 96.667 102.755 95.5928V90.2324C102.755 88.7285 102.046 87.8691 100.639 87.8691C99.2317 87.8691 98.3401 88.9004 98.3401 90.3936V95.5928C98.3401 96.667 97.6956 97.2256 96.7717 97.2256ZM111.284 97.1826C109.093 97.1826 107.428 95.7646 107.428 93.6914C107.428 91.5967 109.039 90.3828 111.918 90.2109L114.819 90.0391V89.2764C114.819 88.2021 114.067 87.5791 112.885 87.5791C111.929 87.5791 111.349 87.8906 110.651 88.793C110.307 89.1797 109.909 89.373 109.405 89.373C108.642 89.373 108.094 88.8789 108.094 88.1699C108.094 87.9229 108.148 87.6973 108.255 87.4609C108.792 86.0859 110.64 85.2373 113.025 85.2373C115.979 85.2373 117.902 86.7627 117.902 89.083V95.6465C117.902 96.6885 117.268 97.2256 116.376 97.2256C115.528 97.2256 114.937 96.7529 114.872 95.8291V95.2383H114.808C114.163 96.4629 112.724 97.1826 111.284 97.1826ZM112.316 94.916C113.691 94.916 114.819 94.0244 114.819 92.7783V91.9404L112.391 92.0908C111.22 92.1768 110.554 92.7031 110.554 93.5195C110.554 94.3789 111.263 94.916 112.316 94.916ZM121.575 97.2256C120.662 97.2256 120.007 96.667 120.007 95.5928V82.9062C120.007 81.832 120.662 81.2627 121.575 81.2627C122.499 81.2627 123.144 81.832 123.144 82.9062V95.5928C123.144 96.667 122.499 97.2256 121.575 97.2256Z" fill="#383939"/>
<defs>
<linearGradient id="paint0_linear_182_679" x1="-1.47346" y1="31.8098" x2="134.739" y2="31.8098" gradientUnits="userSpaceOnUse">
<stop stop-color="#74563A"/>
<stop offset="0.505" stop-color="#E8D787"/>
<stop offset="1" stop-color="#74563A"/>
</linearGradient>
<linearGradient id="paint1_linear_182_679" x1="-1.47346" y1="31.8098" x2="134.739" y2="31.8098" gradientUnits="userSpaceOnUse">
<stop stop-color="#74563A"/>
<stop offset="0.505" stop-color="#E8D787"/>
<stop offset="1" stop-color="#74563A"/>
</linearGradient>
<linearGradient id="paint2_linear_182_679" x1="-1.47346" y1="31.8098" x2="134.739" y2="31.8098" gradientUnits="userSpaceOnUse">
<stop stop-color="#74563A"/>
<stop offset="0.505" stop-color="#E8D787"/>
<stop offset="1" stop-color="#74563A"/>
</linearGradient>
</defs>
</svg>
