<svg width="141" height="103" viewBox="0 0 141 103" fill="none" xmlns="http://www.w3.org/2000/svg">
<path d="M117.161 45.3956V45.3931V2C117.161 1.17157 116.49 0.5 115.661 0.5H106.316C105.488 0.5 104.816 1.17157 104.816 2V45.3909C104.796 47.5625 104.454 49.3597 103.811 50.8002L103.809 50.8054C103.188 52.2416 102.287 53.3076 101.111 54.0289C99.9311 54.7324 98.4736 55.0973 96.7151 55.0973C95.0958 55.0973 93.6856 54.7817 92.4714 54.165C91.2605 53.5499 90.3142 52.6704 89.6233 51.5201C89.0882 50.6019 88.7554 49.533 88.6341 48.3034C88.5578 47.5306 87.927 46.8661 87.0951 46.8661H77.7074C76.8844 46.8661 76.1936 47.5374 76.2274 48.386C76.3675 51.9033 77.2439 54.9103 78.8799 57.3837C80.6598 60.0748 83.0665 62.1087 86.0881 63.4822L86.092 63.4839C89.1239 64.8314 92.524 65.5 96.2835 65.5C100.397 65.5 104.023 64.7062 107.148 63.1018L107.149 63.1012C110.294 61.4761 112.749 59.1598 114.503 56.1579L114.504 56.1566C116.262 53.1284 117.14 49.535 117.161 45.3956ZM139.766 58.041H139.766L139.766 58.0272C139.744 56.0416 138.999 54.3332 137.55 52.9274C136.125 51.5247 134.428 50.8121 132.484 50.8121C130.482 50.8121 128.753 51.5217 127.324 52.9289C125.894 54.3368 125.181 56.0475 125.202 58.0329C125.181 60.0558 125.891 61.788 127.324 63.1983C128.753 64.6055 130.482 65.315 132.484 65.315C133.783 65.315 134.981 64.9946 136.068 64.3513L136.071 64.3497C137.167 63.6917 138.048 62.8119 138.706 61.7155C139.392 60.6089 139.744 59.3804 139.766 58.041ZM2.73242 0.5C1.90399 0.5 1.23242 1.17157 1.23242 2V63.1368C1.23242 63.9652 1.904 64.6368 2.73242 64.6368H11.7074C12.5358 64.6368 13.2074 63.9652 13.2074 63.1368V21.7932L30.0259 63.5127C30.2547 64.0802 30.8052 64.4518 31.4171 64.4518H38.2679C38.8794 64.4518 39.4297 64.0807 39.6587 63.5137L56.4771 21.8837V63.1368C56.4771 63.9652 57.1487 64.6368 57.9771 64.6368H66.9521C67.7805 64.6368 68.4521 63.9652 68.4521 63.1368V2C68.4521 1.17157 67.7805 0.5 66.9521 0.5H54.6269C54.0181 0.5 53.4697 0.86797 53.2389 1.43132L34.8898 46.2176C34.8819 46.2369 34.8631 46.2495 34.8423 46.2495C34.8214 46.2495 34.8026 46.2369 34.7947 46.2176L16.4456 1.43132C16.2148 0.867971 15.6664 0.5 15.0576 0.5H2.73242Z" fill="#181919" stroke="black"/>
<path d="M17.7659 98.2041C16.8528 98.2041 16.3157 97.6455 16.3157 96.6895V84.3789C16.3157 83.0684 17.0891 82.2842 18.4104 82.2842C19.5383 82.2842 20.1614 82.7568 20.634 83.96L24.4797 93.4883H24.5657L28.4006 83.96C28.8733 82.7676 29.5071 82.2842 30.6458 82.2842C31.9563 82.2842 32.7297 83.0576 32.7297 84.3789V96.6895C32.7297 97.6455 32.1926 98.2041 31.2795 98.2041C30.3665 98.2041 29.8401 97.6455 29.8401 96.6895V87.5371H29.7542L25.9192 96.915C25.6399 97.6025 25.2102 97.9033 24.5334 97.9033C23.8459 97.9033 23.3948 97.5918 23.1262 96.9258L19.2913 87.5371H19.2053V96.6895C19.2053 97.6455 18.679 98.2041 17.7659 98.2041ZM36.9944 102.265C35.6194 102.265 34.8782 101.738 34.8782 100.793C34.8782 100.159 35.3186 99.7617 36.0276 99.7617C36.2424 99.7617 36.3606 99.7725 36.5754 99.7725C37.1233 99.7725 37.7141 99.5361 38.0901 98.7305L38.2512 98.3223L34.5774 88.6328C34.4592 88.3105 34.3948 87.9668 34.3948 87.709C34.3948 86.8604 35.093 86.248 36.0168 86.248C36.844 86.248 37.2737 86.6025 37.5315 87.5156L40.0344 95.4863H40.0881L42.5911 87.4941C42.8489 86.624 43.3 86.248 44.1057 86.248C45.0081 86.248 45.6311 86.8389 45.6311 87.666C45.6311 87.9238 45.5667 88.2891 45.4592 88.5898L41.925 98.1934C40.8508 101.169 39.5188 102.265 36.9944 102.265ZM55.9006 98.2578C53.5696 98.2578 51.7756 97.1943 51.0452 95.4111C50.8625 94.96 50.7766 94.5732 50.7766 94.1006C50.7766 93.166 51.3674 92.5752 52.2805 92.5752C53.0969 92.5752 53.5696 92.9619 53.8274 93.8428C54.1174 94.8848 54.8372 95.4648 55.8684 95.4648C57.2219 95.4648 57.9524 94.627 57.9524 93.0693V83.9814C57.9524 82.9072 58.554 82.2842 59.5745 82.2842C60.595 82.2842 61.1965 82.9072 61.1965 83.9814V93.0908C61.1965 96.3887 59.22 98.2578 55.9006 98.2578ZM68.9202 98.2471C65.4397 98.2471 63.2161 96.0127 63.2161 92.2314C63.2161 88.5039 65.4719 86.2373 68.9202 86.2373C72.3684 86.2373 74.6243 88.4932 74.6243 92.2314C74.6243 96.0234 72.4006 98.2471 68.9202 98.2471ZM68.9202 95.8516C70.4563 95.8516 71.4338 94.5518 71.4338 92.2422C71.4338 89.9541 70.4456 88.6328 68.9202 88.6328C67.3948 88.6328 66.3958 89.9541 66.3958 92.2422C66.3958 94.5518 67.3733 95.8516 68.9202 95.8516ZM80.3391 98.2148C77.8469 98.2148 76.1926 96.5928 76.1926 93.9072V87.8916C76.1926 86.8174 76.8479 86.248 77.761 86.248C78.6848 86.248 79.3293 86.8174 79.3293 87.8916V93.252C79.3293 94.7881 80.092 95.6045 81.4778 95.6045C82.8743 95.6045 83.7444 94.6055 83.7444 93.0801V87.8916C83.7444 86.8174 84.3997 86.248 85.3127 86.248C86.2366 86.248 86.8811 86.8174 86.8811 87.8916V96.6357C86.8811 97.6777 86.2688 98.2256 85.3665 98.2256C84.4641 98.2256 83.8518 97.6777 83.8518 96.6357V95.9268H83.7874C83.218 97.377 82.0793 98.2148 80.3391 98.2148ZM90.4905 98.2256C89.5452 98.2256 88.9221 97.6348 88.9221 96.5928V87.8271C88.9221 86.8281 89.5344 86.248 90.4368 86.248C91.3176 86.248 91.9192 86.8281 91.9192 87.8271V88.5791H91.9836C92.2844 87.1504 93.2297 86.3018 94.3792 86.3018C94.7981 86.3018 95.1311 86.3984 95.3567 86.5918C95.6575 86.8281 95.8079 87.2148 95.8079 87.752C95.8079 88.2461 95.6575 88.6221 95.3567 88.8799C95.0559 89.1377 94.6047 89.2773 93.9924 89.2881C92.5637 89.3096 92.0588 90.1152 92.0588 91.4795V96.5928C92.0588 97.6348 91.4465 98.2256 90.4905 98.2256ZM98.5042 98.2256C97.5911 98.2256 96.9358 97.667 96.9358 96.5928V87.8271C96.9358 86.8496 97.5051 86.248 98.4504 86.248C99.3958 86.248 100.019 86.8496 100.019 87.8379V88.4824H100.083C100.696 87.0537 101.856 86.2695 103.628 86.2695C106.185 86.2695 107.624 87.8809 107.624 90.5771V96.5928C107.624 97.667 106.969 98.2256 106.056 98.2256C105.132 98.2256 104.488 97.667 104.488 96.5928V91.2324C104.488 89.7285 103.779 88.8691 102.371 88.8691C100.964 88.8691 100.073 89.9004 100.073 91.3936V96.5928C100.073 97.667 99.428 98.2256 98.5042 98.2256ZM113.017 98.1826C110.825 98.1826 109.16 96.7646 109.16 94.6914C109.16 92.5967 110.772 91.3828 113.651 91.2109L116.551 91.0391V90.2764C116.551 89.2021 115.799 88.5791 114.617 88.5791C113.661 88.5791 113.081 88.8906 112.383 89.793C112.039 90.1797 111.642 90.373 111.137 90.373C110.374 90.373 109.826 89.8789 109.826 89.1699C109.826 88.9229 109.88 88.6973 109.988 88.4609C110.525 87.0859 112.372 86.2373 114.757 86.2373C117.711 86.2373 119.634 87.7627 119.634 90.083V96.6465C119.634 97.6885 119 98.2256 118.109 98.2256C117.26 98.2256 116.669 97.7529 116.605 96.8291V96.2383H116.54C115.896 97.4629 114.456 98.1826 113.017 98.1826ZM114.048 95.916C115.423 95.916 116.551 95.0244 116.551 93.7783V92.9404L114.123 93.0908C112.952 93.1768 112.286 93.7031 112.286 94.5195C112.286 95.3789 112.995 95.916 114.048 95.916ZM123.308 98.2256C122.395 98.2256 121.74 97.667 121.74 96.5928V83.9062C121.74 82.832 122.395 82.2627 123.308 82.2627C124.232 82.2627 124.876 82.832 124.876 83.9062V96.5928C124.876 97.667 124.232 98.2256 123.308 98.2256Z" fill="#383939"/>
</svg>
