<svg width="20" height="20" viewBox="0 0 20 20" fill="none" xmlns="http://www.w3.org/2000/svg">
<path d="M19.3372 9.7875C18.6233 7.91927 17.3784 6.30071 15.756 5.13125L18.7497 2.13125L17.8685 1.25L1.24973 17.8687L2.13098 18.75L5.31848 15.5688C6.74125 16.398 8.35319 16.8478 9.99973 16.875C12.0369 16.7984 14.007 16.1265 15.6665 14.9424C17.326 13.7584 18.6021 12.114 19.3372 10.2125C19.3869 10.0752 19.3869 9.92482 19.3372 9.7875ZM9.99973 14.0625C9.13824 14.0621 8.29945 13.7862 7.60598 13.275L8.74973 12.1438C9.22398 12.4036 9.7697 12.5027 10.305 12.4261C10.8403 12.3495 11.3364 12.1014 11.7188 11.719C12.1012 11.3367 12.3492 10.8406 12.4258 10.3053C12.5024 9.76997 12.4033 9.22425 12.1435 8.75L13.2747 7.61875C13.715 8.2235 13.9795 8.93822 14.039 9.68391C14.0984 10.4296 13.9505 11.1772 13.6116 11.8441C13.2726 12.5109 12.7559 13.0711 12.1185 13.4626C11.4811 13.8541 10.7478 14.0617 9.99973 14.0625ZM2.83098 13.6312L5.95598 10.5062C5.93973 10.338 5.93347 10.169 5.93723 10C5.93889 8.92307 6.36743 7.89071 7.12894 7.1292C7.89045 6.3677 8.9228 5.93915 9.99973 5.9375C10.1648 5.93838 10.3296 5.94881 10.4935 5.96875L12.856 3.6125C11.9365 3.29669 10.9719 3.13206 9.99973 3.125C7.96256 3.20161 5.99248 3.87347 4.33299 5.05755C2.67349 6.24164 1.39733 7.88603 0.662234 9.7875C0.612589 9.92482 0.612589 10.0752 0.662234 10.2125C1.14225 11.4892 1.88056 12.653 2.83098 13.6312Z" fill="#9E9FA1"/>
</svg>
