<svg width="24" height="24" viewBox="0 0 24 24" fill="none" xmlns="http://www.w3.org/2000/svg">
<path d="M2 12C2 8.22876 2 6.34315 3.17157 5.17157C4.34315 4 6.22876 4 10 4H14C17.7712 4 19.6569 4 20.8284 5.17157C22 6.34315 22 8.22876 22 12C22 15.7712 22 17.6569 20.8284 18.8284C19.6569 20 17.7712 20 14 20H10C6.22876 20 4.34315 20 3.17157 18.8284C2 17.6569 2 15.7712 2 12Z" stroke="#999999"/>
<path d="M8.5 12C8.5 12.8284 7.82842 13.5 7 13.5C6.17158 13.5 5.5 12.8284 5.5 12C5.5 11.1716 6.17158 10.5 7 10.5C7.82842 10.5 8.5 11.1716 8.5 12Z" fill="#999999"/>
<path d="M13.5 12C13.5 12.8284 12.8284 13.5 12 13.5C11.1716 13.5 10.5 12.8284 10.5 12C10.5 11.1716 11.1716 10.5 12 10.5C12.8284 10.5 13.5 11.1716 13.5 12Z" fill="#999999"/>
<path d="M18.5 12C18.5 12.8284 17.8284 13.5 17 13.5C16.1716 13.5 15.5 12.8284 15.5 12C15.5 11.1716 16.1716 10.5 17 10.5C17.8284 10.5 18.5 11.1716 18.5 12Z" fill="#999999"/>
</svg>
