<svg width="11" height="12" viewBox="0 0 11 12" fill="none" xmlns="http://www.w3.org/2000/svg">
<path d="M10.1534 6C10.1537 6.1567 10.1136 6.31083 10.0367 6.44741C9.9599 6.58398 9.84904 6.69835 9.71492 6.77939L1.40301 11.8641C1.26287 11.95 1.10237 11.9968 0.938077 11.9998C0.773783 12.0029 0.611656 11.962 0.468439 11.8814C0.326586 11.8021 0.208419 11.6865 0.126088 11.5463C0.0437584 11.4062 0.000237022 11.2467 0 11.0842V0.915821C0.000237022 0.753301 0.0437584 0.593777 0.126088 0.453653C0.208419 0.31353 0.326586 0.197865 0.468439 0.118552C0.611656 0.0379872 0.773783 -0.00288421 0.938077 0.000158269C1.10237 0.00320074 1.26287 0.0500469 1.40301 0.135858L9.71492 5.22061C9.84904 5.30165 9.9599 5.41602 10.0367 5.55259C10.1136 5.68917 10.1537 5.8433 10.1534 6Z" fill="#F5F5F5"/>
</svg>
