<svg width="141" height="160" viewBox="0 0 141 160" fill="none" xmlns="http://www.w3.org/2000/svg">
<g clip-path="url(#clip0_134_14893)">
<path d="M137.799 35.9686C136.899 35.6638 134.27 35.6239 131.349 35.7425C130.474 29.2773 129.588 22.8909 128.772 16.6036C128.588 15.195 128.41 13.7915 128.236 12.3931C126.483 11.7404 124.533 11.1512 122.412 10.6202C122.51 8.21829 122.756 5.76928 122.029 3.44303C121.518 1.80422 118.829 1.08404 118.007 2.91722C117.067 5.0133 116.887 7.14723 116.703 9.39983C110.866 8.33696 104.151 7.60655 96.9664 7.14928C97.0062 5.59333 96.9408 4.04352 96.4733 2.54485C95.9618 0.90604 93.2734 0.185863 92.4509 2.01904C91.743 3.59545 91.4668 5.19437 91.2939 6.84852C84.6415 6.56209 77.6934 6.48639 70.7464 6.57743C70.6779 4.86292 70.5265 3.14329 69.8881 1.55972C69.0789 -0.44736 66.4059 -0.595692 65.6438 1.55972C65.0637 3.19956 64.985 4.94885 64.9901 6.69098C58.3704 6.86489 51.8244 7.18201 45.6108 7.60553C45.4399 5.67926 45.1965 3.83483 44.3822 2.01802C43.5587 0.183817 40.8744 0.893765 40.3598 2.54383C39.8033 4.32688 39.8177 6.18154 39.8985 8.03313C32.4931 8.63669 25.719 9.38551 20.066 10.2141C19.8951 8.24489 19.6588 6.36159 18.8261 4.50693C18.0037 2.67272 15.3183 3.38267 14.8038 5.03274C14.1849 7.01527 14.2718 9.08782 14.3721 11.143C12.1502 11.5501 10.2086 11.9685 8.59737 12.392C6.92378 25.8145 4.841 39.7066 3.14183 53.9055C0.903552 72.6271 -0.658536 91.8826 0.275443 111.308C0.908667 124.603 2.71525 137.975 6.26703 151.31C26.4934 158.66 99.1995 166.488 130.562 151.31C130.945 149.866 131.312 148.427 131.649 146.982C137.769 121.346 137.656 95.6134 135.447 70.6261C135.362 69.6574 135.273 68.6907 135.182 67.7239C137.102 67.4334 138.697 66.436 138.724 63.9952C138.724 63.8243 138.702 63.6034 138.656 63.3415C138.269 61.092 136.264 55.7223 134.605 52.0642C136.474 49.1722 138.111 46.1268 139.485 42.9678C140.611 40.3654 141.116 37.0878 137.799 35.9686Z" fill="#FFFCF7"/>
<path d="M128.235 12.3931C126.482 11.7404 124.532 11.1512 122.411 10.6202C122.509 8.21829 122.755 5.76928 122.028 3.44303C121.517 1.80422 118.829 1.08404 118.006 2.91722C117.066 5.0133 116.886 7.14723 116.702 9.39983C110.865 8.33696 104.15 7.60655 96.9654 7.14928C97.0053 5.59333 96.9398 4.04352 96.4723 2.54485C95.9608 0.90604 93.2724 0.185863 92.45 2.01904C91.7421 3.59545 91.4659 5.19437 91.293 6.84852C84.6405 6.56209 77.6925 6.48639 70.7454 6.57743C70.6769 4.86292 70.5255 3.14329 69.8871 1.55972C69.078 -0.44736 66.4049 -0.595692 65.6428 1.55972C65.0628 3.19956 64.984 4.94885 64.9891 6.69098C58.3694 6.86489 51.8234 7.18201 45.6098 7.60553C45.439 5.67926 45.1955 3.83483 44.3812 2.01802C43.5577 0.183817 40.8734 0.893765 40.3589 2.54383C39.8024 4.32688 39.8167 6.18154 39.8975 8.03313C32.4922 8.63669 25.718 9.38551 20.065 10.2141C19.8942 8.24489 19.6579 6.36159 18.8252 4.50693C18.0027 2.67272 15.3174 3.38267 14.8028 5.03274C14.1839 7.01527 14.2709 9.08782 14.3711 11.143C12.1492 11.5501 10.2076 11.9685 8.59641 12.392C6.92282 25.8145 4.84004 39.7066 3.14087 53.9055C9.27465 46.668 16.6186 40.4043 24.6654 35.2352C38.7109 33.8797 52.7983 32.959 66.9031 32.4987C81.0039 32.0394 95.0616 32.2082 109.137 32.5826C109.206 32.3534 109.276 32.1294 109.345 31.9105C81.4223 30.7617 53.2259 31.9882 25.4162 34.7574C29.3066 32.3043 33.3556 30.1049 37.5078 28.1735C54.2305 20.3907 72.5571 16.6599 90.9932 15.2625C91.072 15.596 91.1764 15.9254 91.3093 16.2466C92.0408 18.0174 94.5399 18.7468 95.6386 16.8123C95.9864 16.1996 96.2268 15.5663 96.3946 14.9178C97.5689 14.8564 98.7433 14.8042 99.9167 14.7602C105.373 14.5577 110.894 14.5403 116.36 14.9229C116.42 15.684 116.571 16.4308 116.865 17.1438C117.597 18.9146 120.096 19.6439 121.195 17.7095C121.603 16.9903 121.863 16.2425 122.032 15.4753C124.298 15.7628 126.549 16.1331 128.773 16.6026C128.589 15.194 128.411 13.7905 128.237 12.392L128.235 12.3931Z" fill="white"/>
<path d="M128.548 147.88C111.543 152.622 93.7305 154.398 76.1077 153.867C63.078 153.474 49.3292 152.397 37.0544 147.788C32.6689 146.141 28.4072 144.077 24.4166 141.6C46.4423 141.368 68.4507 141.429 90.4764 141.59C93.8983 141.614 97.3212 141.642 100.744 141.671C100.962 141.673 100.961 141.34 100.744 141.333C97.223 141.223 93.7009 141.128 90.1767 141.049C68.0497 140.552 45.8633 140.659 23.7383 141.174C17.1514 136.975 11.3388 131.636 6.97888 125.178C4.08487 120.891 1.88547 116.206 0.277344 111.307C0.910567 124.601 2.71715 137.974 6.26893 151.309C26.4953 158.658 99.2014 166.487 130.564 151.309C130.946 149.865 131.314 148.425 131.651 146.981C130.62 147.287 129.585 147.589 128.549 147.879L128.548 147.88Z" fill="white"/>
<path d="M137.8 35.9685C136.901 35.6637 134.272 35.6238 131.35 35.7425C129.266 35.8274 127.035 35.9931 125.176 36.2008C124.269 35.0827 123.323 33.9952 122.341 32.9426C122.233 32.828 122.126 32.7124 122.018 32.5989C120.747 31.2577 119.418 29.9719 118.034 28.7473C115.909 26.8722 112.949 25.3787 110.853 28.1908C110.453 28.7289 109.91 30.1355 109.346 31.9114C109.276 32.1303 109.207 32.3544 109.137 32.5835C108.404 34.9896 107.661 37.9102 107.177 40.264C104.717 41.2185 102.314 42.3151 99.9958 43.5652C99.2859 43.9519 98.5811 44.3488 97.8824 44.758C96.0134 45.8597 94.2017 47.5037 94.3725 49.4985C94.3899 49.7051 94.4288 49.9148 94.4912 50.1286C94.5045 50.1757 94.5198 50.2238 94.5362 50.2708C94.661 50.6411 94.8564 51.0207 95.1326 51.4104C96.0696 52.7341 101.575 56.421 105.478 58.6429C105.62 61.2566 105.924 63.8642 106.392 66.4421C106.432 66.6702 106.475 66.8983 106.519 67.1264C106.632 67.7095 106.753 68.2906 106.882 68.8696C107.495 71.6367 109.012 74.585 112.359 73.5395C113.644 73.1395 117.442 70.2547 120.592 67.5551C120.763 67.4088 120.933 67.2625 121.1 67.1172C121.566 66.7111 122.014 66.3132 122.432 65.9316C125.761 66.8175 129.164 67.4313 132.59 67.7607C133.447 67.8415 134.345 67.8497 135.183 67.7228C137.103 67.4323 138.698 66.4349 138.726 63.9941C138.726 63.8232 138.703 63.6023 138.657 63.3404C138.271 61.0909 136.266 55.7212 134.606 52.0631C136.475 49.1711 138.112 46.1257 139.487 42.9667C140.612 40.3643 141.118 37.0867 137.8 35.9675V35.9685Z" fill="#FAD86F"/>
<path d="M107.708 86.5276C107.677 86.2852 107.638 86.0458 107.593 85.8085C106.676 80.9862 102.906 77.374 98.3948 77.374C93.8835 77.374 90.2427 80.8644 89.2453 85.5619C89.2044 85.7522 89.1686 85.9456 89.1379 86.1399C89.0356 86.7711 88.9824 87.4227 88.9824 88.0877C88.9824 94.0046 93.1961 98.8013 98.3948 98.8013C103.594 98.8013 107.807 94.0046 107.807 88.0877C107.807 87.5578 107.774 87.0371 107.708 86.5276Z" fill="#75533A"/>
<path d="M47.704 86.2085C46.9235 81.1877 43.071 77.374 38.4359 77.374C33.5481 77.374 29.5308 81.6143 29.0684 87.0391C29.0572 87.1701 29.048 87.301 29.0408 87.434C29.0296 87.6498 29.0234 87.8677 29.0234 88.0877C29.0234 94.0046 33.2371 98.8013 38.4359 98.8013C43.6346 98.8013 47.8483 94.0046 47.8483 88.0877C47.8483 87.5874 47.8176 87.0944 47.7593 86.6115C47.7429 86.4765 47.7245 86.3415 47.704 86.2085Z" fill="#75533A"/>
<path d="M72.2072 86.0772C71.9965 85.9177 71.7642 85.7775 71.5116 85.6619C71.2231 85.531 70.908 85.4307 70.5674 85.3683C71.8655 83.6149 73.0368 80.8795 71.5105 79.4105C69.6385 77.608 65.9189 80.281 65.031 82.06C64.6709 82.7822 65.7317 83.4175 66.1215 82.6973C66.5644 81.8789 67.2406 81.4032 68.0447 80.9746C68.8661 80.5368 70.7147 79.7245 70.7699 81.2784C70.819 82.6595 69.7612 84.1673 68.9725 85.3714C68.816 85.4379 68.7076 85.5596 68.6482 85.6987C68.6063 85.799 68.5889 85.9074 68.5981 86.0128C68.5899 86.0465 68.5858 86.0803 68.5848 86.113C68.5736 86.5437 69.1536 86.8557 69.5362 86.5304C70.8896 86.6542 72.4404 87.4439 72.1233 89.0572C71.8543 90.4218 70.4252 91.5277 69.0656 91.3977C66.8458 91.187 65.9506 89.0541 64.2484 88.0362C63.7267 87.7242 63.1057 88.2388 63.2469 88.8065C63.6622 90.473 65.7072 91.9051 67.2018 92.5435C68.7424 93.2023 70.4027 93.2074 71.7724 92.1701C74.1856 90.342 74.0189 87.4552 72.2062 86.0762L72.2072 86.0772Z" fill="#75533A"/>
<path d="M132.589 67.7619C129.163 67.4325 125.759 66.8188 122.431 65.9329C122.013 66.3144 121.565 66.7124 121.099 67.1185C122.466 67.1973 123.834 67.2811 125.201 67.3691C125.432 67.3845 125.435 67.7405 125.201 67.7313C123.664 67.6699 122.128 67.6116 120.591 67.5563C117.44 70.256 113.643 73.1408 112.357 73.5408C109.011 74.5862 107.494 71.637 106.88 68.8709C106.751 68.2918 106.631 67.7108 106.518 67.1277C106.177 67.1195 105.836 67.1113 105.494 67.1031C105.722 68.7235 106.015 70.3358 106.371 71.9337C106.984 74.6998 108.499 77.6501 111.847 76.6036C113.399 76.1187 118.599 72.0257 121.921 68.9936C125.249 69.8816 128.652 70.4943 132.077 70.8258C133.206 70.9332 134.41 70.9127 135.446 70.6263C135.361 69.6575 135.272 68.6908 135.181 67.7241C134.344 67.8509 133.445 67.8428 132.588 67.7619H132.589Z" fill="#FEE0B4"/>
<path d="M94.6228 54.4729C95.5568 55.7945 101.063 59.4844 104.968 61.7043C105.054 63.2776 105.198 64.8469 105.401 66.409C105.731 66.4202 106.061 66.4305 106.39 66.4427C105.923 63.8648 105.62 61.2573 105.477 58.6435C101.574 56.4216 96.0683 52.7348 95.1312 51.4111C94.855 51.0213 94.6596 50.6408 94.5348 50.2715C93.7123 51.4735 93.5026 52.8975 94.6228 54.4739V54.4729Z" fill="#FEE0B4"/>
<path d="M15.6372 19.3011C16.742 21.2458 19.2339 20.5083 19.9664 18.7354C20.9167 16.4337 20.3613 13.7965 20.1608 11.3812C20.128 10.9884 20.0973 10.5997 20.0636 10.214C19.8927 8.24479 19.6564 6.36148 18.8237 4.50682C18.0013 2.67262 15.3159 3.38257 14.8014 5.03264C14.1825 7.01517 14.2694 9.08772 14.3697 11.1429C14.3891 11.5429 14.4096 11.9429 14.4249 12.3418C14.518 14.7489 14.4198 17.1549 15.6382 19.3011H15.6372Z" fill="#F8B260"/>
<path d="M116.358 14.9248C116.419 15.6859 116.569 16.4327 116.864 17.1457C117.595 18.9164 120.094 19.6458 121.193 17.7114C121.601 16.9922 121.861 16.2444 122.031 15.4772C122.367 13.954 122.344 12.353 122.406 10.7521C122.408 10.7081 122.409 10.6641 122.411 10.6201C122.51 8.21813 122.755 5.76912 122.029 3.44287C121.517 1.80406 118.829 1.08388 118.006 2.91706C117.066 5.01314 116.886 7.14707 116.702 9.39967C116.692 9.52959 116.681 9.66053 116.67 9.79147C116.532 11.4579 116.225 13.2297 116.359 14.9238L116.358 14.9248Z" fill="#F8B260"/>
<path d="M41.1928 16.8136C42.2976 18.7583 44.7896 18.0207 45.5221 16.2479C46.4724 13.9462 45.9169 11.3089 45.7164 8.89369C45.6806 8.45995 45.6469 8.03132 45.609 7.60679C45.4382 5.68052 45.1947 3.83609 44.3804 2.01928C43.5569 0.185074 40.8726 0.895022 40.3581 2.54509C39.8016 4.32814 39.8159 6.1828 39.8967 8.03439C39.9233 8.64204 39.9571 9.24969 39.9806 9.85427C40.0737 12.2613 39.9755 14.6674 41.1938 16.8136H41.1928Z" fill="#F8B260"/>
<path d="M90.9929 15.2628C91.0716 15.5963 91.176 15.9257 91.309 16.2469C92.0404 18.0177 94.5395 18.7471 95.6382 16.8126C95.986 16.1999 96.2264 15.5667 96.3942 14.9181C96.8157 13.2936 96.7839 11.574 96.8504 9.85435C96.8852 8.95719 96.9435 8.05288 96.966 7.14959C97.0059 5.59364 96.9405 4.04383 96.473 2.54516C95.9615 0.906351 93.2731 0.186174 92.4506 2.01935C91.7427 3.59576 91.4665 5.19468 91.2936 6.84883C91.2241 7.52093 91.1709 8.20121 91.1136 8.89377C90.9417 10.9704 90.5059 13.2118 90.9929 15.2628Z" fill="#F8B260"/>
<path d="M66.0003 15.8497C66.7717 17.3401 69.3537 17.4527 70.0902 15.8497C71.1357 13.5766 70.9332 11.3363 70.8237 8.88114C70.7899 8.12311 70.7766 7.35178 70.7449 6.57841C70.6764 4.8639 70.525 3.14427 69.8866 1.5607C69.0775 -0.446384 66.4044 -0.594716 65.6423 1.5607C65.0623 3.20054 64.9835 4.94983 64.9886 6.69196C64.9907 7.42544 65.007 8.15789 65.0081 8.88011C65.0081 11.3097 64.8587 13.6421 66.0003 15.8486V15.8497Z" fill="#F8B260"/>
<path d="M100.743 141.671C97.3202 141.643 93.8973 141.615 90.4754 141.59C91.0473 142.562 91.7603 143.461 92.6165 144.253C97.2527 148.536 104.54 149.198 110.343 147.269C116.568 145.198 121.54 139.605 122.649 133.14C122.95 131.385 122.98 129.806 122.781 128.394C123.619 128.019 124.397 127.472 125.06 126.755C127.685 123.915 127.51 119.485 124.671 116.86C121.831 114.235 117.4 114.41 114.775 117.25C114.223 117.847 113.795 118.515 113.489 119.221C106.402 117.618 97.1166 120.067 92.3188 125.303C99.5114 125.316 106.702 125.399 113.885 125.561C115.489 125.597 117.092 125.638 118.695 125.682C118.896 125.687 118.897 125.995 118.695 125.994C117.182 125.991 115.669 125.988 114.156 125.986C106.668 125.976 99.182 125.986 91.6989 126.025C91.6488 126.088 91.5987 126.151 91.5496 126.215C88.3425 130.381 87.7635 136.435 90.1726 141.05C93.6968 141.129 97.2199 141.224 100.74 141.335C100.957 141.342 100.958 141.674 100.74 141.672L100.743 141.671Z" fill="#FFF2DE"/>
<path d="M122.227 32.6142C122.157 32.6091 122.086 32.605 122.016 32.5999C122.124 32.7144 122.232 32.829 122.339 32.9436C122.451 32.8566 122.413 32.6265 122.227 32.6142Z" fill="#F7C787"/>
<path d="M109.136 32.5838C109.205 32.3547 109.275 32.1306 109.344 31.9117C81.4212 30.7629 53.2248 31.9895 25.4152 34.7587C20.8414 35.2139 16.2779 35.7111 11.7277 36.2461C11.4986 36.2727 11.4955 36.6358 11.7277 36.6082C16.0355 36.11 20.3483 35.6528 24.6643 35.2364C38.7098 33.881 52.7972 32.9603 66.9021 32.4999C81.0028 32.0406 95.0606 32.2094 109.136 32.5838Z" fill="#F7C787"/>
<path d="M13.6931 53.4358C13.5049 53.4563 13.5018 53.7529 13.6931 53.7335C40.5923 51.0359 67.5222 49.8983 94.489 50.1285C94.4266 49.9147 94.3877 49.704 94.3703 49.4984C67.4291 49.1751 40.4297 50.5541 13.6931 53.4358Z" fill="#F7C787"/>
<path d="M15.8313 68.8452C15.5756 68.8656 15.5735 69.2677 15.8313 69.2472C45.7299 66.8729 75.5794 66.3972 105.494 67.103C105.836 67.1112 106.177 67.1194 106.518 67.1276C106.474 66.8995 106.431 66.6713 106.39 66.4432C106.061 66.432 105.731 66.4207 105.401 66.4095C75.5497 65.4284 45.5396 66.478 15.8313 68.8441V68.8452Z" fill="#F7C787"/>
<path d="M125.201 67.3678C123.835 67.2798 122.467 67.197 121.099 67.1172C120.932 67.2625 120.764 67.4087 120.592 67.555C122.128 67.6103 123.665 67.6686 125.201 67.73C125.436 67.7392 125.433 67.3821 125.201 67.3678Z" fill="#F7C787"/>
<path d="M71.5098 85.6623C71.7624 85.7779 71.9947 85.917 72.2054 86.0776C77.8533 86.0357 83.496 86.0643 89.1367 86.14C89.1684 85.9456 89.2042 85.7523 89.2441 85.562C83.3272 85.5487 77.4134 85.5907 71.5098 85.6623Z" fill="#F7C787"/>
<path d="M107.594 85.8086C107.639 86.0459 107.677 86.2853 107.708 86.5278C110.482 86.6014 113.254 86.6812 116.028 86.763C116.741 86.4827 117.504 86.2853 118.301 86.183C114.735 86.0255 111.166 85.9027 107.594 85.8096V85.8086Z" fill="#F7C787"/>
<path d="M129.805 86.8194C127.122 86.6383 124.434 86.4808 121.746 86.3447C122.407 86.4951 123.037 86.713 123.628 86.9892C125.687 87.0516 127.746 87.114 129.806 87.1754C130.036 87.1825 130.032 86.8358 129.806 86.8204L129.805 86.8194Z" fill="#F7C787"/>
<path d="M22.1719 87.437C22.3581 87.5485 22.5381 87.6672 22.7141 87.7909C24.8224 87.6651 26.9308 87.5465 29.0402 87.4339C29.0473 87.302 29.0565 87.17 29.0678 87.0391C26.7691 87.1639 24.4705 87.2958 22.1729 87.437H22.1719Z" fill="#F7C787"/>
<path d="M68.6476 85.6993C68.4031 85.7023 68.1586 85.7064 67.9141 85.7095C61.1747 85.8046 54.4374 85.9714 47.7031 86.2077C47.7236 86.3417 47.742 86.4757 47.7584 86.6107C54.4752 86.3795 61.1942 86.2159 67.9141 86.1218C68.1371 86.1187 68.3612 86.1156 68.5842 86.1125C68.5842 86.0798 68.5893 86.0461 68.5975 86.0123C68.5883 85.9069 68.6046 85.7985 68.6476 85.6982V85.6993Z" fill="#F7C787"/>
<path d="M6.07804 88.552C5.8448 88.5704 5.84276 88.9356 6.07804 88.9182C7.67696 88.7965 9.2769 88.6799 10.8768 88.5653C11.0252 88.4252 11.1786 88.2891 11.3382 88.1592C9.58481 88.286 7.83143 88.417 6.07804 88.552Z" fill="#F7C787"/>
<path d="M128.178 109.895C88.2159 109.095 48.198 109.33 8.23943 110.161C8.0246 110.165 8.0246 110.499 8.23943 110.495C48.2246 109.871 88.1913 109.939 128.178 110.261C128.413 110.263 128.413 109.9 128.178 109.895Z" fill="#F7C787"/>
<path d="M114.158 125.986C115.671 125.988 117.184 125.991 118.697 125.994C118.899 125.994 118.898 125.687 118.697 125.682C117.094 125.638 115.49 125.598 113.887 125.561C106.704 125.399 99.5132 125.316 92.3206 125.303C65.5462 125.254 38.7319 126.179 12.0383 127.635C11.8112 127.647 11.8091 128.001 12.0383 127.99C38.5999 126.674 65.138 126.164 91.7017 126.025C99.1848 125.986 106.67 125.976 114.159 125.986H114.158Z" fill="#F7C787"/>
<path d="M14.1131 141.731C17.5473 141.68 20.9814 141.637 24.4145 141.6C46.4403 141.368 68.4486 141.429 90.4744 141.59C93.8963 141.614 97.3191 141.642 100.742 141.67C100.96 141.673 100.959 141.34 100.742 141.333C97.2209 141.222 93.6988 141.127 90.1747 141.049C68.0476 140.551 45.8613 140.659 23.7363 141.173C20.5272 141.248 17.3192 141.331 14.1121 141.422C13.9137 141.427 13.9126 141.734 14.1121 141.731H14.1131Z" fill="#F7C787"/>
<path d="M100.728 84.6195C100.884 82.5015 99.2931 80.6581 97.175 80.5022C95.057 80.3463 93.2137 81.9369 93.0577 84.0549C92.9018 86.1729 94.4924 88.0163 96.6104 88.1722C98.7285 88.3281 100.572 86.7375 100.728 84.6195Z" fill="white"/>
<path d="M96.2228 91.1992C95.472 91.1992 94.8633 91.8079 94.8633 92.5588C94.8633 93.3096 95.472 93.9183 96.2228 93.9183C96.9737 93.9183 97.5824 93.3096 97.5824 92.5588C97.5824 91.8079 96.9737 91.1992 96.2228 91.1992Z" fill="white"/>
<path d="M40.1725 88.1787C42.2914 88.045 43.9008 86.2189 43.7671 84.0999C43.6334 81.981 41.8073 80.3716 39.6884 80.5053C37.5694 80.6389 35.96 82.4651 36.0937 84.584C36.2274 86.703 38.0535 88.3124 40.1725 88.1787Z" fill="white"/>
<path d="M40.6076 93.9173C41.3584 93.9173 41.9671 93.3086 41.9671 92.5578C41.9671 91.8069 41.3584 91.1982 40.6076 91.1982C39.8567 91.1982 39.248 91.8069 39.248 92.5578C39.248 93.3086 39.8567 93.9173 40.6076 93.9173Z" fill="white"/>
<path d="M119.562 86.1019C119.134 86.1019 118.713 86.1295 118.301 86.1816C117.503 86.2839 116.741 86.4814 116.028 86.7617C112.954 87.9688 110.809 90.7022 110.809 93.8816C110.809 98.1781 114.728 101.662 119.562 101.662C124.397 101.662 128.316 98.1791 128.316 93.8816C128.316 90.8894 126.415 88.291 123.628 86.9898C123.036 86.7136 122.406 86.4967 121.745 86.3453C121.048 86.1857 120.315 86.1008 119.561 86.1008L119.562 86.1019Z" fill="#F5A06E"/>
<path d="M17.2664 86.1016C14.979 86.1016 12.8962 86.8811 11.3362 88.1588C11.1766 88.2887 11.0231 88.4247 10.8748 88.5649C9.40887 89.9561 8.51172 91.8262 8.51172 93.8823C8.51172 98.1788 12.4308 101.663 17.2653 101.663C22.0999 101.663 26.019 98.1799 26.019 93.8823C26.019 91.4149 24.727 89.2165 22.7107 87.7905C22.5357 87.6667 22.3547 87.5481 22.1685 87.4365C20.769 86.5936 19.0811 86.1016 17.2643 86.1016H17.2664Z" fill="#F5A06E"/>
<path d="M71.1168 99.8934C71.9976 99.5968 72.0651 99.1497 71.7244 98.7201C71.2917 98.1738 70.2012 97.6551 69.2887 97.5099C68.0847 97.3186 65.9579 97.4526 65.5651 98.3098C65.3277 98.8275 65.5262 99.3195 66.2883 99.6663C67.6499 100.287 69.923 100.295 71.1168 99.8934Z" fill="#FEE0B4"/>
<path d="M129.46 63.848C122.864 63.3764 116.427 61.132 110.859 57.57C108.819 56.2637 106.888 54.7742 105.24 52.9963C102.757 50.315 101.041 47.065 99.9958 43.5654C99.2859 43.9521 98.5811 44.349 97.8824 44.7582C96.0134 45.86 94.2017 47.5039 94.3725 49.4987C94.3899 49.7053 94.4288 49.9151 94.4912 50.1289C94.5045 50.1759 94.5198 50.224 94.5362 50.2711C94.661 50.6414 94.8564 51.0209 95.1326 51.4107C96.0696 52.7344 101.575 56.4212 105.478 58.6431C105.62 61.2568 105.924 63.8644 106.392 66.4423C106.432 66.6704 106.475 66.8986 106.519 67.1267C106.632 67.7098 106.753 68.2908 106.882 68.8698C107.495 71.637 109.012 74.5852 112.359 73.5397C113.644 73.1397 117.442 70.2549 120.592 67.5553C120.763 67.409 120.933 67.2627 121.1 67.1175C121.566 66.7113 122.014 66.3134 122.432 65.9318C125.761 66.8177 129.164 67.4315 132.59 67.7609C133.447 67.8417 134.345 67.8499 135.183 67.7231C137.103 67.4325 138.698 66.4351 138.726 63.9943C138.726 63.8235 138.703 63.6025 138.657 63.3406C135.629 63.8971 132.527 64.068 129.459 63.846L129.46 63.848Z" fill="#FBCF59"/>
<path d="M123.015 37.633C122.871 37.633 122.73 37.6432 122.592 37.6637C122.177 33.225 117.263 29.2876 112.971 31.3898C108.934 33.3672 110.35 39.2933 113.2 41.6738C114.838 43.0415 117.192 43.5806 119.199 42.8574C119.695 42.6784 120.161 42.4185 120.58 42.0963C121.095 42.8952 121.993 43.4241 123.014 43.4241C124.613 43.4241 125.91 42.128 125.91 40.528C125.91 38.9281 124.614 37.632 123.014 37.632L123.015 37.633Z" fill="#FFE58D"/>
</g>
<defs>
<clipPath id="clip0_134_14893">
<rect width="140.338" height="160" fill="white"/>
</clipPath>
</defs>
</svg>
