<svg width="150" height="133" viewBox="0 0 150 133" fill="none" xmlns="http://www.w3.org/2000/svg">
<path d="M37.3806 22.3191C34.5868 32.1379 43.1181 42.6629 40.0306 52.3941C38.4306 57.4379 33.9931 61.0629 29.3868 63.6691C24.7806 66.2754 19.7493 68.2066 15.5681 71.4566C11.7243 74.4441 8.67434 78.5879 7.49309 83.3066C6.31184 88.0316 7.12434 93.3254 10.1056 97.1816C13.3181 101.338 18.4743 103.369 23.0806 105.9C31.3993 110.475 38.4243 117.125 46.7181 121.75C55.0118 126.375 65.5556 128.75 73.8681 124.163C82.2556 119.538 85.7931 109.432 87.8556 100.075C89.0493 94.6566 90.1118 88.9191 93.6743 84.6629C96.3118 81.5129 100.037 79.5254 103.612 77.4941C108.112 74.9379 112.512 72.1941 116.787 69.2754C122.712 65.2316 128.556 60.6816 132.143 54.4754C135.737 48.2691 136.631 40.0316 132.649 34.0691C130.981 31.5691 128.524 29.5066 127.643 26.6316C126.899 24.1879 127.424 21.5691 127.543 19.0191C127.749 14.4816 126.537 9.80661 123.712 6.25036C120.881 2.70036 116.349 0.419114 111.824 0.794114C106.418 1.23786 102.024 5.10662 97.6243 8.27536C93.2181 11.4441 87.5181 14.1441 82.5368 11.9941C56.9806 0.962863 40.6431 10.8754 37.3931 22.3191H37.3806Z" fill="#272828"/>
<path d="M61.8621 24.3686C58.3059 26.7186 54.0496 27.6936 49.8996 28.6374C43.8121 30.0124 37.7246 31.3874 31.6371 32.7624C26.0121 34.0311 19.7871 35.7124 16.7684 40.6249C12.3059 47.8749 16.8809 59.0061 10.6996 64.8561C9.19336 66.2811 7.24336 67.1311 5.59336 68.3874C2.11211 71.0249 0.118361 75.5186 0.512111 79.8686C0.905861 84.2186 3.66211 88.2874 7.56211 90.2624C16.0621 94.5686 27.9121 89.0624 35.1746 95.2311C38.4309 97.9936 39.7371 102.456 40.0121 106.719C40.2871 110.981 39.6996 115.262 39.9496 119.525C40.2121 124.075 41.8059 129.044 45.8184 131.206C50.8621 133.925 57.1934 130.906 61.2184 126.831C65.2434 122.756 68.2371 117.556 73.0371 114.419C77.1621 111.725 82.1746 110.856 87.0121 109.912C91.7496 108.987 96.4684 107.931 101.143 106.744C105.593 105.612 110.143 104.306 113.762 101.475C119.512 96.9749 121.9 89.4686 123.462 82.3374C124.325 78.3936 125.093 74.2624 127.543 71.0561C129.068 69.0561 131.15 67.5624 133.093 65.9686C137.675 62.2124 141.743 57.5561 143.606 51.9311C145.462 46.3061 144.756 39.5936 140.75 35.2249C137.075 31.2186 131.437 29.7936 126.812 26.9374C121.725 23.7936 117.95 18.9749 113.625 14.8436C107.5 8.99364 99.8684 4.36239 91.4621 3.37489C84.3434 2.53739 76.5371 4.67489 71.4184 9.84989C67.1121 14.2061 67.4246 20.7186 61.8746 24.3811L61.8621 24.3686Z" fill="white"/>
<path d="M76.2346 31.9806C79.78 32.1578 82.9915 32.7718 85.8689 33.8164C88.7462 34.861 91.1916 36.2599 93.1986 38.0135C95.2059 39.7734 96.7231 41.8531 97.7567 44.2585C98.7902 46.664 99.2292 49.3071 99.086 52.1873C98.9781 54.3084 98.4872 56.1679 97.6196 57.7655C96.7458 59.3634 95.6878 60.7895 94.4392 62.044C93.191 63.3048 91.8597 64.4135 90.4453 65.3701C89.0313 66.3329 87.7069 67.216 86.4847 68.0185C85.2563 68.8214 84.2329 69.5948 83.4023 70.3455C82.5717 71.0963 82.1369 71.8764 82.0983 72.692L81.9551 75.4533C81.9208 76.1122 81.359 76.6173 80.7004 76.5893L67.1834 75.902C66.5244 75.8677 66.0193 75.3058 66.0474 74.6472L66.3252 69.2002C66.379 68.0771 66.731 67.0323 67.3751 66.066C68.0188 65.0935 68.815 64.163 69.7698 63.2743C70.7243 62.3794 71.7425 61.5062 72.8178 60.6487C73.8931 59.7912 74.91 58.8931 75.8685 57.9541C76.8269 57.0152 77.6266 56.0345 78.2733 54.9992C78.9204 53.9702 79.2731 52.8189 79.3378 51.545C79.381 50.6978 79.2876 49.8703 79.0516 49.0691C78.8218 48.2675 78.4531 47.5608 77.9513 46.9425C77.4495 46.3242 76.8281 45.8122 76.0936 45.4126C75.353 45.0133 74.5022 44.7826 73.5296 44.7334C72.2557 44.6687 71.2134 44.8423 70.4029 45.2603C69.5921 45.672 68.9455 46.2316 68.4693 46.9387C67.9932 47.6459 67.6543 48.4647 67.459 49.395C67.2574 50.3256 67.1383 51.2769 67.0888 52.2433C67.0673 52.67 67.0452 53.0842 67.0228 53.4922C67.0228 53.4922 67.0231 53.4984 67.0235 53.5047C66.9901 54.1823 66.4424 54.718 65.771 54.6843L50.9992 53.9377C50.3905 53.907 49.9018 53.4194 49.8635 52.808C49.8514 52.5771 49.8396 52.3524 49.8278 52.1277C49.7984 51.566 49.7926 50.978 49.8236 50.3755C49.9777 47.3446 50.7503 44.6504 52.1475 42.2928C53.5448 39.9352 55.4124 37.9535 57.7572 36.3599C60.1017 34.76 62.8505 33.5895 66.0028 32.836C69.1552 32.0825 72.5641 31.8037 76.2287 31.9872L76.2346 31.9806Z" fill="#FFEEB5"/>
<path d="M65.6766 82.8853L65.037 95.5129C65.0036 96.1713 65.5103 96.7321 66.1688 96.7655L79.8637 97.4592C80.5222 97.4926 81.083 96.9858 81.1163 96.3274L81.756 83.6998C81.7894 83.0414 81.2826 82.4806 80.6242 82.4472L66.9293 81.7535C66.2708 81.7201 65.71 82.2269 65.6766 82.8853Z" fill="#FFEEB5"/>
<path d="M81.0337 80.4587C80.8589 80.4678 80.6838 80.4707 80.5081 80.4612L66.9911 79.7739C64.3868 79.6413 62.3198 77.5779 62.1834 74.9752C62.1742 74.8004 62.1713 74.6253 62.1809 74.4496L62.459 69.0088C62.4992 68.2244 62.6272 67.4416 62.8511 66.6976L64.0523 67.0478C63.8613 67.7024 63.7465 68.3781 63.7138 69.0682L63.4357 74.509C63.4301 74.6407 63.431 74.7784 63.4379 74.9094C63.5406 76.8692 65.099 78.4211 67.0633 78.5247L80.5803 79.2119C80.712 79.2175 80.8434 79.2169 80.9745 79.21L81.0744 79.2048L81.171 80.4515L81.0399 80.4583L81.0337 80.4587ZM93.8878 67.6621L93.1348 66.6689C94.2361 65.8289 95.3075 64.8965 96.3001 63.8932C97.483 62.6984 98.5328 61.3541 99.4198 59.887L100.486 60.532C99.5474 62.0833 98.4331 63.5123 97.1787 64.7734C96.1384 65.8231 95.0315 66.7948 93.8819 67.6687L93.8878 67.6621ZM57.697 58.1557L50.8069 57.8096C49.7902 57.7565 48.8206 57.4067 48.0064 56.7985L48.7615 55.8014C49.374 56.2637 50.1013 56.526 50.8666 56.561L57.7567 56.9071L57.6907 58.156L57.697 58.1557ZM51.1751 39.0396L50.1783 38.2907C51.6582 36.3168 53.4827 34.5877 55.5854 33.1507C58.3107 31.293 61.5181 29.917 65.1156 29.0588C68.5833 28.2324 72.3591 27.9094 76.3624 28.1064L76.3026 29.355C72.4186 29.1642 68.7611 29.4748 65.4109 30.2763C61.9616 31.0954 58.8951 32.414 56.2967 34.1836C54.3024 35.5399 52.5795 37.176 51.1813 39.0392L51.1751 39.0396Z" fill="#FFEEB5"/>
<path d="M80.1935 101.337C80.0188 101.346 79.8499 101.349 79.6742 101.339L65.9815 100.642C63.3772 100.51 61.3101 98.4463 61.1737 95.8436C61.1646 95.6689 61.1616 95.4938 61.1712 95.318L61.2154 94.4896L62.464 94.5493L62.4198 95.3778C62.4142 95.5095 62.4148 95.6409 62.4217 95.772C62.5244 97.7318 64.0827 99.2836 66.0471 99.3872L79.7398 100.084C79.8716 100.09 80.003 100.089 80.134 100.082L80.2556 101.327L80.1995 101.33L80.1935 101.337ZM85.4096 88.3712L84.1607 88.3052L84.39 83.8434C84.3953 83.7054 84.3947 83.574 84.3878 83.4429C84.3518 82.7564 84.1292 82.0921 83.7424 81.5178L84.776 80.819C85.2912 81.5744 85.5817 82.4604 85.6298 83.3779C85.639 83.5526 85.6419 83.7277 85.6327 83.9097L85.4034 88.3716L85.4096 88.3712Z" fill="#FFEEB5"/>
<path d="M106.475 95.6504C106.4 95.6504 106.331 95.6254 106.275 95.5692C106.169 95.4567 106.169 95.2817 106.275 95.1754L135.213 66.2379C135.325 66.1254 135.5 66.1254 135.606 66.2379C135.713 66.3504 135.713 66.5254 135.606 66.6317L106.669 95.5692C106.613 95.6254 106.544 95.6504 106.469 95.6504H106.475Z" fill="#272828"/>
<path d="M114.532 53.0445C114.457 53.0445 114.388 53.0195 114.332 52.9633C114.225 52.8508 114.225 52.6758 114.332 52.5695L143.688 23.2133C143.8 23.1008 143.975 23.1008 144.082 23.2133C144.188 23.3258 144.188 23.5008 144.082 23.607L114.725 52.9633C114.669 53.0195 114.6 53.0445 114.525 53.0445H114.532Z" fill="#272828"/>
<path d="M25.6059 48.9066C25.5309 48.9066 25.4621 48.8816 25.4059 48.8254C25.2996 48.7129 25.2996 48.5379 25.4059 48.4316L54.5559 19.2816C54.6684 19.1691 54.8434 19.1691 54.9496 19.2816C55.0559 19.3941 55.0559 19.5691 54.9496 19.6754L25.7996 48.8254C25.7434 48.8816 25.6746 48.9066 25.5996 48.9066H25.6059Z" fill="#272828"/>
<path d="M4.725 102.432C4.65 102.432 4.58125 102.407 4.525 102.35C4.41875 102.238 4.41875 102.063 4.525 101.957L25.5125 80.9691C25.625 80.8566 25.8 80.8566 25.9062 80.9691C26.0125 81.0816 26.0125 81.2566 25.9062 81.3629L4.91875 102.35C4.8625 102.407 4.79375 102.432 4.71875 102.432H4.725Z" fill="#272828"/>
<path d="M40.2309 96.3937C40.1559 96.3937 40.0871 96.3688 40.0309 96.3125C39.9246 96.2 39.9246 96.025 40.0309 95.9188L44.1621 91.7875C44.2746 91.675 44.4496 91.675 44.5559 91.7875C44.6621 91.9 44.6621 92.075 44.5559 92.1813L40.4246 96.3125C40.3684 96.3688 40.2996 96.3937 40.2246 96.3937H40.2309Z" fill="#272828"/>
<path d="M84.9555 131.157C84.8805 131.157 84.8117 131.132 84.7555 131.076C84.6492 130.963 84.6492 130.788 84.7555 130.682L102.455 112.982C102.568 112.869 102.743 112.869 102.849 112.982C102.955 113.094 102.955 113.269 102.849 113.376L85.1492 131.076C85.093 131.132 85.0242 131.157 84.9492 131.157H84.9555Z" fill="#272828"/>
<path d="M103.719 30.9939C103.644 30.9939 103.575 30.9689 103.519 30.9127C103.413 30.8002 103.413 30.6252 103.519 30.5189L111.894 22.1439C112.007 22.0314 112.182 22.0314 112.288 22.1439C112.394 22.2564 112.394 22.4314 112.288 22.5377L103.913 30.9127C103.857 30.9689 103.788 30.9939 103.713 30.9939H103.719Z" fill="#272828"/>
<path d="M18.6117 73.3934C18.5367 73.3934 18.468 73.3684 18.4117 73.3121C18.3055 73.1996 18.3055 73.0246 18.4117 72.9184L47.3492 43.9809C47.4617 43.8684 47.6367 43.8684 47.743 43.9809C47.8492 44.0934 47.8492 44.2684 47.743 44.3746L18.8055 73.3121C18.7492 73.3684 18.6805 73.3934 18.6055 73.3934H18.6117Z" fill="#272828"/>
<path d="M10.1312 116.425C10.0562 116.425 9.9875 116.4 9.93125 116.344C9.825 116.231 9.825 116.056 9.93125 115.95L39.2937 86.5875C39.4062 86.475 39.5812 86.475 39.6875 86.5875C39.7937 86.7 39.7937 86.8751 39.6875 86.9813L10.325 116.344C10.2687 116.4 10.2 116.425 10.125 116.425H10.1312Z" fill="#272828"/>
<path d="M99.268 120.344C99.193 120.344 99.1242 120.319 99.068 120.263C98.9617 120.15 98.9617 119.975 99.068 119.869L128.218 90.7191C128.33 90.6066 128.505 90.6066 128.612 90.7191C128.718 90.8316 128.718 91.0066 128.612 91.1129L99.4617 120.263C99.4055 120.319 99.3367 120.344 99.2617 120.344H99.268Z" fill="#272828"/>
<path d="M128.307 58.6562C128.232 58.6562 128.163 58.6312 128.107 58.575C128.001 58.4625 128.001 58.2875 128.107 58.1812L149.095 37.1937C149.207 37.0813 149.382 37.0813 149.488 37.1937C149.595 37.3062 149.595 37.4812 149.488 37.5875L128.501 58.575C128.445 58.6312 128.376 58.6562 128.301 58.6562H128.307Z" fill="#272828"/>
<path d="M109.657 47.8498C109.582 47.8498 109.513 47.8248 109.457 47.7686C109.35 47.6561 109.35 47.4811 109.457 47.3748L113.588 43.2436C113.7 43.1311 113.875 43.1311 113.982 43.2436C114.088 43.3561 114.088 43.5311 113.982 43.6373L109.85 47.7686C109.794 47.8248 109.725 47.8498 109.65 47.8498H109.657Z" fill="#272828"/>
<path d="M51.3617 26.65C51.2867 26.65 51.218 26.625 51.1617 26.5688C51.0555 26.4563 51.0555 26.2812 51.1617 26.175L68.8617 8.475C68.9742 8.3625 69.1492 8.3625 69.2555 8.475C69.3617 8.5875 69.3617 8.7625 69.2555 8.86875L51.5555 26.5688C51.4992 26.625 51.4305 26.65 51.3555 26.65H51.3617Z" fill="#272828"/>
<path d="M41.9242 117.481C41.8492 117.481 41.7805 117.456 41.7242 117.4C41.618 117.287 41.618 117.113 41.7242 117.006L50.0992 108.631C50.2117 108.519 50.3867 108.519 50.493 108.631C50.5992 108.744 50.5992 108.919 50.493 109.025L42.118 117.4C42.0617 117.456 41.993 117.481 41.918 117.481H41.9242Z" fill="#272828"/>
</svg>
