<svg width="110" height="142" viewBox="0 0 110 142" fill="none" xmlns="http://www.w3.org/2000/svg">
<path d="M33.6011 126.159C33.6011 126.159 37.5961 128.772 37.8526 133.816C38.109 138.859 32.7103 136.405 32.7103 136.405L31.5293 132.852V129.543L33.6011 126.159Z" fill="#00ABBD"/>
<path d="M0.296814 133.241C0.296814 133.241 0.718591 140.972 8.77283 141.611C16.8271 142.25 15.2344 135.57 15.2344 135.57L7.82805 129.526L0.296814 133.241Z" fill="#00ABBD"/>
<path d="M9.76155 102.747C9.76155 102.747 15.0624 105.488 15.3594 110.934C15.6563 116.38 9.76155 115.214 9.76155 115.214L7.82812 110.444L8.7729 105.644L9.76155 102.747Z" fill="#00ABBD"/>
<path d="M20.8906 89.4766C20.8906 89.4766 22.5339 98.0152 26.3433 102.748C30.1528 107.48 31.5295 99.3132 31.5295 99.3132L28.8841 91.6805L20.8906 89.4766Z" fill="#00ABBD"/>
<path d="M99.8261 45.2217C99.8261 45.2217 110.286 52.4758 109.993 67.1226C109.699 81.7695 101.28 77.5475 101.28 77.5475L99.8261 64.3643L98.166 55.6567L99.8261 45.2217Z" fill="#D6445D"/>
<path d="M57.4733 19.5151C57.4733 19.5151 57.281 27.6819 63.6683 29.3687C70.0557 31.0555 65.9864 23.0205 65.9864 23.0205C65.9864 23.0205 64.9404 18.5957 64.4748 18.5957C64.0091 18.5957 57.4733 19.5151 57.4733 19.5151Z" fill="#D6445D"/>
<path d="M77.748 0.240234C77.748 0.240234 83.2176 1.29827 84.4964 8.49155C85.7752 15.6848 77.748 12.4228 77.748 12.4228L77.0293 6.69999L77.748 0.240234Z" fill="#D6445D"/>
<path d="M93.3801 14.0625C93.3801 14.0625 98.2592 16.3476 98.1647 23.1183C98.0702 29.8891 92.0237 24.0986 92.0237 24.0986L89.9316 19.2918V16.3577L93.3801 14.0625Z" fill="#D6445D"/>
<path d="M44.3398 74.4274C44.3398 74.4274 45.8785 86.5019 55.9505 93.3842C66.0225 100.266 63.6673 87.8033 63.6673 87.8033L54.125 77.899L49.1413 72.6494L44.3398 74.4274Z" fill="#D6445D"/>
<path d="M83.5969 78.9195C78.6402 67.0107 67.3602 58.7594 55.5268 58.3909C49.3554 58.1983 42.769 59.8715 36.9889 63.1031C28.0068 68.1228 22.5473 76.0361 21.9872 84.8215C21.5621 91.4503 24.032 98.3427 29.1507 104.87L15.5222 118.53V112.405C15.5222 110.612 14.8112 108.892 13.5457 107.624C12.2801 106.356 10.5636 105.644 8.77381 105.644C6.98402 105.644 5.26753 106.356 4.00196 107.624C2.73638 108.892 2.02539 110.612 2.02539 112.405V134.85C2.02539 136.643 2.73638 138.363 4.00196 139.63C5.26753 140.898 6.98402 141.611 8.77381 141.611H31.1853C32.9751 141.611 34.6916 140.898 35.9571 139.63C37.2227 138.363 37.9337 136.643 37.9337 134.85C37.9337 133.057 37.2227 131.337 35.9571 130.069C34.6916 128.802 32.9751 128.089 31.1853 128.089H25.0611L38.8954 114.23C44.7429 118.371 51.11 120.578 57.4535 120.578H57.6998C67.3433 120.501 76.8215 114.964 81.8524 106.469C86.6269 98.3799 87.3018 87.8266 83.5969 78.9195ZM70.2316 99.5596C67.5998 103.998 62.5148 106.996 57.575 107.047H57.4704C52.0986 107.047 46.1297 103.788 41.0819 98.0926C38.3487 95.0097 35.1567 90.3517 35.4537 85.6767C35.8282 79.8356 41.2539 76.2119 43.5686 74.9003C47.1892 72.8721 51.3968 71.7803 55.1084 71.8952C61.5194 72.0947 68.2678 77.2327 71.1393 84.115C73.2381 89.1652 72.8838 95.0807 70.2316 99.5596Z" fill="#00ABBD"/>
<path d="M15.6023 118.443L15.5179 118.53V118.192L11.5431 106.243C10.808 105.912 10.0193 105.716 9.2149 105.665L21.1765 141.611H23.3123L15.6023 118.443Z" fill="#00BBCF"/>
<path d="M28.1836 128.09L32.6308 141.452C32.9606 141.378 33.2844 141.278 33.5992 141.155L29.2532 128.09H28.1836Z" fill="#00BBCF"/>
<path d="M27.4054 125.74L28.2051 124.939L23.4339 110.597L22.6309 111.398L27.4054 125.74Z" fill="#00BBCF"/>
<path d="M26.6996 141.61H30.256L25.7548 128.089H25.0597L25.5827 127.565L20.8116 113.223L18.1426 115.896L26.6996 141.61Z" fill="#00BBCF"/>
<path d="M63.1992 105.773L67.4777 118.618C67.8151 118.479 68.1728 118.33 68.5204 118.178L64.2182 105.252C63.8842 105.448 63.5434 105.617 63.1992 105.773Z" fill="#00BBCF"/>
<path d="M45.8316 61.7207L42.2617 62.9139L45.889 73.7782C47.0439 73.2845 48.2351 72.881 49.4522 72.5715L45.8316 61.7207Z" fill="#00BBCF"/>
<path d="M60.7717 106.621C59.7271 106.896 58.6529 107.043 57.5729 107.057H57.4683C57.2929 107.057 57.1309 107.057 56.9453 107.037L61.352 120.288C62.5994 120.097 63.8326 119.822 65.0434 119.466L60.7717 106.621Z" fill="#00BBCF"/>
<path d="M57.6726 120.579L52.9318 106.321C51.9945 106.031 51.0799 105.671 50.1953 105.246L55.2566 120.481C55.9888 120.539 56.7244 120.572 57.4566 120.572L57.6726 120.579Z" fill="#00BBCF"/>
<path d="M47.9707 60.0107L51.986 72.0783C52.3707 72.0276 52.7553 71.9837 53.1332 71.9566L49.0403 59.6523L47.9707 60.0107Z" fill="#00BBCF"/>
<path d="M40.7291 76.8103C41.3465 76.3251 41.9896 75.8737 42.6558 75.4582L38.8868 64.124L36.7441 64.8373L40.7291 76.8103Z" fill="#00BBCF"/>
<path d="M81.5712 75.3165C76.6145 63.4077 65.3345 55.1564 53.5046 54.7879C47.3298 54.5918 40.7433 56.2685 34.9633 59.5C25.9913 64.5198 20.5217 72.4331 19.9616 81.2185C19.5364 87.8472 22.0063 94.7397 27.125 101.267L13.4966 114.923V108.792C13.4966 106.999 12.7856 105.279 11.52 104.011C10.2544 102.743 8.53796 102.031 6.74817 102.031C4.95838 102.031 3.24189 102.743 1.97632 104.011C0.710748 105.279 -0.000244141 106.999 -0.000244141 108.792V131.247C-0.000244141 133.04 0.710748 134.76 1.97632 136.027C3.24189 137.295 4.95838 138.008 6.74817 138.008H29.163C30.9528 138.008 32.6693 137.295 33.9349 136.027C35.2005 134.76 35.9114 133.04 35.9114 131.247C35.9114 129.454 35.2005 127.734 33.9349 126.466C32.6693 125.199 30.9528 124.486 29.163 124.486H23.0388L36.8731 110.627C42.724 114.768 49.0911 116.975 55.4312 116.975H55.6742C65.3143 116.898 74.7958 111.357 79.8268 102.866C84.6046 94.7769 85.2761 84.2236 81.5712 75.3165ZM68.206 95.9667C65.5741 100.405 60.4892 103.403 55.5493 103.454H55.4447C50.073 103.454 44.1074 100.195 39.0596 94.4997C36.3265 91.4168 33.1311 86.7588 33.4314 82.0804C33.8026 76.2427 39.2283 72.6156 41.5295 71.3074C45.1534 69.2792 49.3577 68.1874 53.0693 68.3023C59.4972 68.5018 66.2287 73.6398 69.1002 80.5221C71.2124 85.5588 70.8581 91.4777 68.206 95.9667Z" fill="#00D3E9"/>
<g style="mix-blend-mode:multiply">
<path d="M82.3562 105.547C84.9712 100.626 86.2072 95.0883 85.9328 89.5207C85.6629 89.3922 85.393 89.2706 85.1163 89.1624C81.2567 87.6478 76.9766 87.6045 73.0872 89.0407C72.0573 89.4367 71.0804 89.959 70.1787 90.5956C69.8424 92.4888 69.1741 94.3073 68.2048 95.9669C67.3885 97.3309 66.3638 98.5582 65.168 99.6041C69.9135 103.739 76.0749 105.869 82.3562 105.547Z" fill="#E3E3E3"/>
</g>
<path d="M103.965 50.9412C99.5787 45.9519 92.9753 42.8285 84.7321 41.8449V29.8786H91.403C93.1928 29.8786 94.9092 29.1663 96.1748 27.8985C97.4404 26.6306 98.1514 24.911 98.1514 23.118C98.1514 21.325 97.4404 19.6054 96.1748 18.3375C94.9092 17.0697 93.1928 16.3574 91.403 16.3574H84.7456V10.3641C84.7456 8.57109 84.0346 6.85151 82.7691 5.58365C81.5035 4.31579 79.787 3.60352 77.9972 3.60352C76.2074 3.60352 74.4909 4.31579 73.2254 5.58365C71.9598 6.85151 71.2488 8.57109 71.2488 10.3641V16.3574H66.2415C64.4517 16.3574 62.7352 17.0697 61.4696 18.3375C60.2041 19.6054 59.4931 21.325 59.4931 23.118C59.4931 24.911 60.2041 26.6306 61.4696 27.8985C62.7352 29.1663 64.4517 29.8786 66.2415 29.8786H71.2488V42.122C64.1124 43.3525 57.9915 46.3576 53.4836 50.9446C46.7352 57.8303 43.9278 68.4613 46.364 78.031C48.6855 87.1578 55.66 95.0846 64.5645 98.759C68.7399 100.477 73.21 101.362 77.7239 101.365C85.6668 101.365 93.3465 98.6102 98.8903 93.3911C103.392 89.1522 106.867 83.3042 108.676 76.9256C111.49 67.0213 109.769 57.5497 103.965 50.9412ZM95.7017 73.2512C94.5713 77.2501 92.3713 81.0023 89.6652 83.551C84.9785 87.9454 76.5834 89.1048 69.7034 86.2552C64.6657 84.1764 60.7314 79.7448 59.4458 74.6879C58.1704 69.685 59.6449 63.9554 63.1068 60.4297C66.5688 56.9041 72.2172 55.0213 78.9319 55.0213C79.6405 55.0213 80.3603 55.0438 81.0914 55.0889C85.1978 55.3323 90.745 56.3632 93.8358 59.8821C97.6891 64.263 96.4238 70.6822 95.7017 73.2377V73.2512Z" fill="#D6445D"/>
<path d="M95.703 73.237C95.2152 74.9547 94.542 76.6141 93.6953 78.1857L98.787 93.4985L98.9085 93.3903C99.9066 92.4454 100.844 91.4383 101.716 90.3751L95.8278 72.7266C95.7907 72.9091 95.7468 73.0815 95.703 73.237Z" fill="#EB4A67"/>
<path d="M86.2451 55.8084C87.8205 56.1681 89.341 56.7365 90.7665 57.4985L85.7794 42.5137L82.2129 43.7069L86.2451 55.8084Z" fill="#EB4A67"/>
<path d="M88.4824 42.4697L94.6066 60.8822C95.6725 62.5262 96.3009 64.4159 96.4321 66.3718L103.589 87.8739C103.859 87.475 104.118 87.0728 104.375 86.6638L89.7714 42.7706C89.3462 42.6658 88.9177 42.5644 88.4824 42.4697Z" fill="#EB4A67"/>
<path d="M79.8268 55.0243C80.2452 55.0243 80.6636 55.0514 81.0887 55.0784C81.5139 55.1054 81.8547 55.1325 82.2528 55.1697L78.8348 44.8936L76.6955 45.6068L79.8268 55.0243Z" fill="#EB4A67"/>
<path d="M91.1607 81.9414C90.6936 82.5028 90.1933 83.0356 89.6625 83.5369L89.3926 83.7769L93.8432 97.146C94.518 96.7539 95.1692 96.3415 95.807 95.8953L91.1607 81.9414Z" fill="#EB4A67"/>
<path d="M74.931 4.35059C74.5857 4.52664 74.2571 4.73368 73.9491 4.96918L84.7466 37.4201V33.8505L74.931 4.35059Z" fill="#EB4A67"/>
<path d="M89.3789 16.3574L93.7384 29.4595C94.4648 29.1949 95.1405 28.8073 95.7359 28.3135L91.778 16.3777C91.6599 16.3777 91.5485 16.3574 91.4405 16.3574H89.3789Z" fill="#EB4A67"/>
<path d="M85.6001 16.3574H84.7465V13.7917L81.7333 4.73592C80.6276 3.99631 79.3276 3.6022 77.998 3.60352C77.799 3.60352 77.5999 3.60352 77.4042 3.63394L86.1366 29.8786H90.0912L85.6001 16.3574Z" fill="#EB4A67"/>
<path d="M86.9167 43.9438L87.9897 43.5855L87.5544 42.2807C87.136 42.203 86.7176 42.1252 86.2891 42.0576L86.9167 43.9438Z" fill="#EB4A67"/>
<path d="M93.7692 92.3092C94.866 91.5455 95.9058 90.7027 96.8803 89.7875C101.385 85.5486 104.857 79.7007 106.665 73.3221C109.469 63.4178 107.749 53.9462 101.942 47.3377C97.5551 42.3484 90.9518 39.225 82.7086 38.2413V26.2751H89.376C91.1658 26.2751 92.8823 25.5628 94.1479 24.2949C95.4135 23.0271 96.1245 21.3075 96.1245 19.5145C96.1245 17.7215 95.4135 16.0019 94.1479 14.734C92.8823 13.4661 91.1658 12.7539 89.376 12.7539H82.7255V6.7606C82.7255 4.96758 82.0145 3.24799 80.7489 1.98013C79.4833 0.712276 77.7668 0 75.9771 0C74.1873 0 72.4708 0.712276 71.2052 1.98013C69.9396 3.24799 69.2286 4.96758 69.2286 6.7606V12.7539H64.2213C62.4315 12.7539 60.715 13.4661 59.4495 14.734C58.1839 16.0019 57.4729 17.7215 57.4729 19.5145C57.4729 21.3075 58.1839 23.0271 59.4495 24.2949C60.715 25.5628 62.4315 26.2751 64.2213 26.2751H69.2286V38.5185C62.0888 39.749 55.968 42.754 51.4634 47.3411C44.6981 54.2268 41.9043 64.8578 44.3405 74.4275C46.6619 83.5543 53.6364 91.4811 62.541 95.1521C66.7157 96.8729 71.186 97.7594 75.7004 97.7617C82.2463 97.7617 88.6135 95.889 93.7557 92.3092M93.6646 69.6342C92.5309 73.6331 90.3309 77.3852 87.6248 79.934C82.9549 84.3486 74.57 85.4878 67.6799 82.6585C62.6388 80.583 58.7079 76.1514 57.4189 71.0945C56.1468 66.095 57.618 60.3485 61.0732 56.8262C64.5284 53.304 70.1835 51.4178 76.8982 51.4178C77.6034 51.4178 78.3255 51.4414 79.0543 51.4854C83.1641 51.7287 88.7079 52.7597 91.7987 56.2786C95.6656 60.6595 94.4002 67.0787 93.6782 69.6342H93.6646Z" fill="#FF6C85"/>
<g style="mix-blend-mode:multiply">
<path d="M44.3394 74.4273C44.657 76.3933 45.1829 78.3197 45.9084 80.1738C49.6609 76.5959 54.1438 73.8764 59.0476 72.2031C58.9936 71.4469 58.9936 70.6878 59.0476 69.9315C58.2509 69.1136 57.2289 68.5522 56.1121 68.3191C53.2609 67.6431 50.2376 67.4335 47.4235 68.2481C46.0424 68.6459 44.7535 69.3134 43.6309 70.2121C43.7597 71.6332 43.9966 73.0423 44.3394 74.4273Z" fill="#E3E3E3"/>
</g>
<path d="M44.3401 74.4271C44.3473 74.447 44.3529 74.4673 44.357 74.488C47.7919 72.7336 51.6621 71.7838 55.1072 71.9054C56.4589 71.9558 57.7964 72.2006 59.0786 72.6322C58.6062 68.1803 60.1078 63.4817 63.104 60.4293C63.2863 60.2468 63.4752 60.0676 63.6675 59.8952C61.0429 58.9925 58.299 58.4855 55.5256 58.391C51.7705 58.3 48.0257 58.8218 44.4379 59.9358C43.1875 64.6809 43.1539 69.6655 44.3401 74.4271Z" fill="#00ABBD"/>
<path d="M35.5784 76.4151C37.4612 73.8258 40.1032 72.1119 41.544 71.3074C45.1679 69.2792 49.3722 68.1874 53.0838 68.3023C57.1328 68.4274 61.3135 70.5198 64.5561 73.7717C68.4398 70.9424 71.3686 66.7102 71.814 62.0623C66.5536 57.6679 60.1123 54.9941 53.4954 54.7879C47.3206 54.5918 40.7342 56.2685 34.9542 59.5H34.9339C34.7686 59.9327 34.5965 60.3722 34.4649 60.8217C33.3908 64.1608 33.0659 67.6962 33.5134 71.1756C33.7766 73.0686 34.3198 75.0359 35.5784 76.4151Z" fill="#00D3E9"/>
<g style="mix-blend-mode:screen">
<path d="M1.30916 125.284C1.29707 125.731 1.39805 126.174 1.60272 126.572C1.71123 126.766 1.88584 126.915 2.09463 126.99C2.30342 127.066 2.53244 127.064 2.73982 126.984C2.89006 126.873 3.01562 126.732 3.10855 126.57C3.20148 126.407 3.25976 126.227 3.2797 126.041C4.17386 122.232 4.3392 118.294 4.50116 114.379L4.66987 110.323C4.78797 107.453 1.47112 108.231 1.40701 110.573C1.32603 113.582 1.14382 116.593 1.15057 119.605C1.15507 121.494 1.20793 123.387 1.30916 125.284Z" fill="#303030"/>
</g>
<g style="mix-blend-mode:screen">
<path d="M2.69966 105.983C2.65917 106.497 2.90211 107.102 3.40487 107.203C3.553 107.223 3.70358 107.21 3.84628 107.165C3.98897 107.121 4.1204 107.046 4.23155 106.946C4.45031 106.744 4.65758 106.53 4.8524 106.304C5.28197 105.859 5.82072 105.535 6.41466 105.364C6.72731 105.296 7.03596 105.21 7.3392 105.107C7.49105 105.056 7.63 104.972 7.74649 104.862C7.86298 104.752 7.95426 104.617 8.01404 104.468C8.05869 104.302 8.05781 104.127 8.0115 103.961C7.9652 103.795 7.87516 103.644 7.75085 103.525C7.49991 103.288 7.18377 103.131 6.84319 103.076C5.23369 102.734 2.83463 104.249 2.69966 105.983Z" fill="#303030"/>
</g>
<g style="mix-blend-mode:screen">
<path d="M37.2607 59.7135C37.6959 59.5276 38.2257 59.3755 38.6103 59.6324C38.7777 59.7779 38.8928 59.9745 38.9379 60.1918C38.983 60.4092 38.9557 60.6354 38.86 60.8358C38.6528 61.2306 38.3557 61.571 37.9929 61.8296C35.6309 63.7969 33.1036 65.5952 30.8497 67.6978C28.5957 69.8003 26.5813 72.2544 25.5049 75.1344C25.2282 75.8747 25.0055 76.6589 24.4927 77.2572C23.5108 78.4133 22.7212 78.0111 22.8595 76.6927C22.9709 75.655 23.4838 74.5192 23.8718 73.5558C24.6844 71.5086 25.7609 69.5767 27.0739 67.8093C29.6935 64.2542 33.209 61.4602 37.2607 59.7135Z" fill="#303030"/>
</g>
<g style="mix-blend-mode:screen">
<path d="M46.0789 57.6439C46.219 57.6569 46.3537 57.704 46.4713 57.7812C46.589 57.8584 46.686 57.9633 46.7537 58.0867C46.8718 58.4248 46.5783 58.7628 46.2949 58.969C44.8143 60.1009 42.9944 60.6967 41.1323 60.6592C39.5937 60.6254 40.724 58.8 41.4191 58.3775C42.8274 57.5613 44.4886 57.2998 46.0789 57.6439Z" fill="#303030"/>
</g>
<g style="mix-blend-mode:screen">
<path d="M67.2576 40.523C67.7637 40.4081 68.3677 40.3337 68.7254 40.7089C69.0831 41.0841 68.965 41.75 68.6073 42.1354C68.2161 42.4895 67.7466 42.7456 67.2374 42.8824C63.2672 44.3439 59.6391 46.6071 56.5782 49.5315C56.1148 50.0319 55.5831 50.4643 54.9991 50.816C54.7069 50.9884 54.378 51.0887 54.0395 51.1087C53.701 51.1287 53.3626 51.0677 53.0522 50.9309C50.616 49.643 55.1307 46.5365 56.1126 45.7929C58.1961 44.1816 60.4907 42.8645 62.9319 41.8785C64.3347 41.3099 65.7814 40.8566 67.2576 40.523Z" fill="#303030"/>
</g>
<g style="mix-blend-mode:screen">
<path d="M62.2386 15.3907C62.8004 14.9618 63.4347 14.6377 64.1112 14.4341C65.3125 14.0758 66.0345 15.7659 64.9379 16.3744H64.9143C64.0741 16.8341 63.1158 17.2195 62.6131 18.0341C62.3769 18.4195 62.2757 18.8691 62.0563 19.2713C61.3984 20.5525 59.9778 20.1333 60.0622 18.771C60.1499 17.5136 61.2769 16.1243 62.2386 15.3907Z" fill="#303030"/>
</g>
<g style="mix-blend-mode:screen">
<path d="M71.6873 4.26932C70.9515 5.60823 70.6719 7.15112 70.891 8.6637C70.8962 8.79391 70.929 8.92152 70.9872 9.03808C71.0453 9.15463 71.1276 9.25747 71.2284 9.33976C71.3514 9.39982 71.4903 9.41908 71.625 9.39477C71.7597 9.37047 71.8832 9.30384 71.9775 9.20455C72.1623 9.00459 72.2995 8.7654 72.379 8.50483C72.9763 6.93975 73.5161 5.20228 74.8996 4.26594C75.237 4.03608 75.6183 3.86706 75.9456 3.6203C76.1175 3.50579 76.2634 3.35632 76.3739 3.1816C76.4843 3.00689 76.5568 2.81084 76.5867 2.60621C76.5944 2.40039 76.5498 2.19597 76.4572 2.0121C76.3645 1.82823 76.2268 1.67093 76.0569 1.55493C74.4845 0.432675 72.3622 3.04565 71.6873 4.26932Z" fill="#303030"/>
</g>
<g style="mix-blend-mode:screen">
<path d="M87.3238 82.6887C86.9538 82.9777 86.6433 83.3359 86.4094 83.7434C86.2976 83.9495 86.253 84.1856 86.2821 84.4185C86.3111 84.6513 86.4123 84.8692 86.5714 85.0414C87.0809 85.4978 87.8873 85.1563 88.4542 84.771C92.6369 81.9099 95.6554 77.6396 96.9606 72.7371C97.2069 71.8042 98.263 66.6526 95.8505 68.9444C95.1014 69.6509 94.9158 71.4087 94.5345 72.3585C92.9428 76.3045 90.4772 79.8368 87.3238 82.6887Z" fill="#303030"/>
</g>
<g style="mix-blend-mode:screen">
<path d="M96.4436 63.523C96.5126 63.1437 96.6882 62.7919 96.9497 62.5089C97.0839 62.3694 97.259 62.2765 97.4496 62.2436C97.6402 62.2108 97.8362 62.2398 98.0092 62.3264C98.4614 62.6103 98.4243 63.2695 98.3466 63.7968C98.269 64.3242 98.1746 64.8109 98.0902 65.3078C97.9755 65.9839 97.4154 67.2312 96.5516 66.5146C95.9003 65.967 96.2782 64.1822 96.4436 63.523Z" fill="#303030"/>
</g>
</svg>
