<svg width="100" height="120" viewBox="0 0 100 120" fill="none" xmlns="http://www.w3.org/2000/svg">
<g clip-path="url(#clip0_134_11851)">
<path d="M99.8534 56.7398C99.8175 57.2913 99.7725 57.8457 99.7156 58.3912C99.6916 58.6669 99.6586 58.9396 99.6257 59.2154C99.0952 63.7648 97.9084 68.0535 95.9963 71.7968C95.8375 72.1145 95.6696 72.4231 95.4958 72.7288C94.1322 75.1774 92.4418 77.3712 90.3949 79.2174C90.2121 79.3852 90.0263 79.547 89.8404 79.7029C88.0452 81.2253 85.9923 82.4931 83.6696 83.4491C83.3969 83.563 83.1242 83.6709 82.8454 83.7758H82.8425C77.4988 85.7598 70.7945 86.1584 62.5737 84.3812C62.5677 84.3812 62.5587 84.3782 62.5527 84.3782C62.268 84.3183 61.9863 84.2613 61.7076 84.2164C54.0862 82.8557 48.4159 85.8947 42.3979 88.9816C42.1791 89.0925 41.9633 89.2034 41.7415 89.3143C34.4858 93.0126 26.6037 96.558 14.1002 92.4461C-5.19153 86.0985 -1.30142 64.4331 5.91237 48.9866C6.02626 48.7378 6.14314 48.4951 6.26002 48.2493C7.80348 45.0305 9.4818 42.1025 11.1062 39.6749C12.4069 37.7268 13.4438 35.6889 14.301 33.609C14.4149 33.3362 14.5228 33.0635 14.6307 32.7878C18.9254 21.7678 18.5537 9.86071 26.1931 5.20636C26.3879 5.08348 26.5887 4.9666 26.7955 4.85871C27.8744 4.28029 29.1032 3.84272 30.5118 3.55501C34.267 2.79078 37.4618 3.47409 40.243 5.04452C40.5008 5.19437 40.7555 5.34422 41.0043 5.50906C46.8574 9.2613 50.8674 16.9486 54.6137 23.0445C54.7485 23.2723 54.8864 23.4911 55.0213 23.7099C58.0033 28.4871 60.8444 32.1135 64.3569 31.7718C65.0672 31.6999 65.7865 31.6519 66.5088 31.6189C66.7605 31.607 67.0093 31.601 67.258 31.595C73.5068 31.4391 80.0882 32.6739 85.6926 35.2813C85.9264 35.3862 86.1571 35.4971 86.3819 35.611C91.4978 38.1314 95.7266 41.8267 98.0223 46.6879C98.1242 46.9007 98.2201 47.1164 98.316 47.3322C99.5058 50.1045 100.075 53.2423 99.8504 56.7368L99.8534 56.7398Z" fill="#EBEBEB"/>
<path d="M82.0416 24.4646C81.2863 24.8333 80.5401 25.13 79.7968 25.3637C79.5361 25.4447 79.2753 25.5196 79.0176 25.5825C66.0675 28.8852 55.3712 12.7134 54.4751 5.06203C53.57 -2.68522 63.571 -0.353553 73.1674 4.17192C73.4671 4.31278 73.7668 4.45364 74.0636 4.60049C74.3722 4.75334 74.6839 4.90619 74.9926 5.06203C85.3203 10.2558 96.3133 17.5026 82.0416 24.4646Z" fill="#EBEBEB"/>
<path opacity="0.62" d="M62.5707 84.3805C62.5707 84.3805 62.5557 84.3775 62.5497 84.3775C62.265 84.3176 61.9833 84.2606 61.7046 84.2157C59.7296 79.4505 56.8584 74.6493 52.9413 72.911C50.271 71.7242 47.3429 72.0928 44.238 74.0109C35.1361 79.6363 28.0992 82.8041 23.3639 79.9719C18.8384 77.2656 17.0612 69.0508 17.9214 54.848C18.4668 45.845 17.25 38.7272 14.295 33.6083C14.4089 33.3356 14.5168 33.0628 14.6247 32.7871C17.8584 38.0648 19.1981 45.4734 18.6257 54.89C17.7835 68.7991 19.4498 76.8041 23.7266 79.3605C28.4139 82.1687 36.1791 78.1557 43.8634 73.4055C47.1781 71.3555 50.328 70.9689 53.2231 72.2576C57.4998 74.1577 60.5387 79.3516 62.5677 84.3775L62.5707 84.3805Z" fill="white"/>
<path opacity="0.62" d="M42.3957 88.9784C42.1769 89.0893 41.9611 89.2001 41.7393 89.311C41.2778 87.7526 40.5106 86.2481 39.2518 85.2501C37.4296 83.8055 34.8372 83.6257 31.5465 84.7106C24.2638 87.1232 18.7074 86.8955 15.027 84.0423C10.9092 80.8535 9.15291 74.341 9.80926 64.6966C10.2858 57.6507 8.40666 52.5708 5.91016 48.9834C6.02404 48.7346 6.14093 48.4918 6.25781 48.2461C8.94912 51.9564 11.023 57.2821 10.5166 64.7446C9.87519 74.1372 11.5445 80.4429 15.4616 83.4819C18.9411 86.1822 24.2818 86.371 31.3217 84.0363C34.8552 82.8675 37.6694 83.0923 39.6924 84.6956C41.056 85.7776 41.8922 87.351 42.3927 88.9754L42.3957 88.9784Z" fill="white"/>
<path opacity="0.62" d="M75.3419 58.7357C74.1461 67.7926 75.5097 74.8386 79.3968 79.6817C80.7275 81.3421 82.226 82.5558 83.6706 83.4489C83.3978 83.5628 83.1251 83.6707 82.8464 83.7756H82.8434C81.4918 82.8795 80.1101 81.6987 78.8574 80.1373C74.8354 75.1383 73.4178 67.9095 74.6436 58.6457C76.232 46.6188 81.237 39.426 85.6965 35.2871C85.9303 35.392 86.1611 35.5029 86.3858 35.6168C81.9713 39.6328 76.9333 46.7237 75.3419 58.7387V58.7357Z" fill="white"/>
<path opacity="0.62" d="M85.6216 61.8132C84.5997 68.6884 85.4508 73.8672 88.1661 77.1999C88.8734 78.066 89.6466 78.7253 90.3959 79.2168C90.213 79.3847 90.0272 79.5465 89.8414 79.7024C89.0922 79.1869 88.3249 78.5155 87.6176 77.6464C84.7705 74.1519 83.8654 68.7903 84.9203 61.7083C85.9963 54.5095 90.5097 49.3517 98.0262 46.6934C98.1281 46.9061 98.224 47.1219 98.3199 47.3377C90.9383 49.9091 86.6676 54.7733 85.6216 61.8132Z" fill="white"/>
<path opacity="0.62" d="M99.7164 58.3907C99.6924 58.6664 99.6595 58.9391 99.6265 59.2149C98.131 59.9581 97.0221 61.0251 96.3058 62.4007C94.8493 65.2059 95.2479 68.8652 95.9971 71.7963C95.9971 71.7963 95.9971 71.7973 95.9971 71.7993C95.8383 72.114 95.6705 72.4227 95.4966 72.7284C94.5915 69.5815 93.9742 65.3527 95.6735 62.074C96.5276 60.4316 97.8793 59.1999 99.7134 58.3877L99.7164 58.3907Z" fill="white"/>
<path opacity="0.62" d="M67.2604 31.5976C66.8828 33.2819 66.3373 35.188 65.5581 37.0761C62.687 44.0382 57.9307 47.6945 51.7779 47.6945C51.5321 47.6945 51.2924 47.6915 51.0436 47.6795C42.667 47.2929 37.8508 34.235 33.1964 21.6086C30.9127 15.4198 28.7009 9.42277 26.1895 5.20898C26.3843 5.0861 26.5851 4.96922 26.7919 4.86133C29.3543 9.15004 31.5721 15.165 33.8588 21.3628C38.4352 33.7764 43.1705 46.6096 51.0796 46.9722C61.1015 47.4338 65.0156 37.9902 66.5081 31.6246C66.7599 31.6126 67.0086 31.6066 67.2574 31.6006L67.2604 31.5976Z" fill="white"/>
<path opacity="0.62" d="M55.0204 23.7151C54.415 23.826 53.7467 23.895 53.0364 23.895C51.5559 23.895 49.8955 23.5833 48.2532 22.6452C43.9255 20.1727 41.2402 14.2656 40.2422 5.0498C40.4999 5.19965 40.7547 5.3495 41.0034 5.51434C42.0164 14.1787 44.5639 19.7231 48.6038 22.0308C50.7167 23.2386 52.9015 23.3135 54.6128 23.0498C54.7477 23.2776 54.8855 23.4964 55.0204 23.7151Z" fill="white"/>
<path opacity="0.62" d="M79.7983 25.3637C79.5375 25.4446 79.2768 25.5195 79.019 25.5825C77.1489 23.6284 75.1259 19.6993 74.6404 11.7843C74.4576 8.76628 73.9151 6.25779 73.1719 4.17188C73.4716 4.31273 73.7713 4.45359 74.068 4.60045C74.7183 6.61743 75.1799 8.97907 75.3507 11.7423C75.8452 19.8612 77.9641 23.6194 79.8012 25.3637H79.7983Z" fill="white"/>
<path d="M49.3171 120.003C65.2302 120.003 78.1303 118.705 78.1303 117.102C78.1303 115.5 65.2302 114.201 49.3171 114.201C33.404 114.201 20.5039 115.5 20.5039 117.102C20.5039 118.705 33.404 120.003 49.3171 120.003Z" fill="#F9F6ED"/>
<path d="M14.8948 48.193C14.8948 48.193 15.3983 48.5377 16.3004 49.0591C19.2554 50.7794 26.4992 54.4507 34.4353 54.4058C34.687 54.4058 34.9388 54.3998 35.1905 54.3878C35.4752 54.3758 35.7569 54.3638 36.0417 54.3429C36.8029 54.2859 37.5641 54.193 38.3314 54.0641L39.3264 46.4308L36.692 46.5596L35.9697 46.5956L35.5412 46.6166L28.5581 46.9612L18.0117 43.6046L16.5042 43.1221C16.5042 43.1221 14.6161 44.4437 14.8978 48.196L14.8948 48.193Z" fill="#FEF2CA"/>
<path d="M14.8948 48.1922C14.8948 48.1922 15.3983 48.5368 16.3004 49.0583C16.4053 46.9874 17.2954 44.9404 18.0117 43.5978L16.5042 43.1152C16.5042 43.1152 14.6161 44.4369 14.8978 48.1892L14.8948 48.1922Z" fill="#FAFCFF"/>
<path opacity="0.47" d="M35.1897 54.3906C35.4744 54.3786 35.7561 54.3667 36.0408 54.3457C36.8021 54.2887 37.5633 54.1958 38.3305 54.067L39.3255 46.4336L36.6912 46.5625L35.9689 46.5984C35.7741 47.3597 35.6033 48.1779 35.4684 49.065C35.1777 50.9591 35.1088 52.7423 35.1897 54.3936V54.3906Z" fill="#C9C9C9"/>
<path d="M21.9822 40.4461L12.5448 41.9561L14.5614 54.56L23.9988 53.05L21.9822 40.4461Z" fill="#BAC1CC"/>
<path d="M23.0554 41.1201H13.4979V53.8844H23.0554V41.1201Z" fill="#EDF1F9"/>
<path d="M16.654 43.8143C16.654 44.3388 16.2284 44.7644 15.704 44.7644C15.1795 44.7644 14.7539 44.3388 14.7539 43.8143C14.7539 43.2898 15.1795 42.8643 15.704 42.8643C16.2284 42.8643 16.654 43.2898 16.654 43.8143Z" fill="#F4D242"/>
<path d="M20.3853 46.832H15.0296C14.8738 46.832 14.7479 46.7061 14.7479 46.5503C14.7479 46.3944 14.8738 46.2686 15.0296 46.2686H20.3853C20.5411 46.2686 20.667 46.3944 20.667 46.5503C20.667 46.7061 20.5411 46.832 20.3853 46.832Z" fill="#BAC1CC"/>
<path d="M21.635 48.3066H15.0296C14.8738 48.3066 14.7479 48.1807 14.7479 48.0249C14.7479 47.869 14.8738 47.7432 15.0296 47.7432H21.635C21.7909 47.7432 21.9167 47.869 21.9167 48.0249C21.9167 48.1807 21.7909 48.3066 21.635 48.3066Z" fill="#BAC1CC"/>
<path d="M21.635 49.6767H15.0296C14.8738 49.6767 14.7479 49.5508 14.7479 49.395C14.7479 49.2392 14.8738 49.1133 15.0296 49.1133H21.635C21.7909 49.1133 21.9167 49.2392 21.9167 49.395C21.9167 49.5508 21.7909 49.6767 21.635 49.6767Z" fill="#BAC1CC"/>
<path d="M21.635 50.9619H15.0296C14.8738 50.9619 14.7479 50.836 14.7479 50.6802C14.7479 50.5243 14.8738 50.3984 15.0296 50.3984H21.635C21.7909 50.3984 21.9167 50.5243 21.9167 50.6802C21.9167 50.836 21.7909 50.9619 21.635 50.9619Z" fill="#BAC1CC"/>
<path d="M13.1861 45.93C13.1861 45.93 15.2361 45.7082 15.296 46.2687C15.356 46.8291 14.0583 46.976 14.0583 46.976C14.0583 46.976 15.9464 47.0779 16.0063 47.5004C16.0663 47.923 14.0583 48.3036 14.0583 48.3036C14.0583 48.3036 15.6677 48.2916 15.7036 48.7022C15.7396 49.1128 14.0882 49.3915 14.0882 49.3915C14.0882 49.3915 15.356 49.4545 15.3859 49.8081C15.4159 50.1618 13.321 50.8121 12.9074 50.3985C12.4938 49.985 13.0543 49.2177 12.5837 48.7622C12.1102 48.3066 12.1102 47.5664 12.377 47.2427C12.6437 46.919 11.7566 45.942 13.1891 45.93H13.1861Z" fill="#FEB19E"/>
<path d="M24.7851 82.5053L19.2676 80.6232L19.9119 78.7321C20.1577 78.0068 20.9489 77.6202 21.6742 77.8659L24.5633 78.852C25.2886 79.1007 25.6752 79.8889 25.4294 80.6142L24.7851 82.5053ZM20.1966 80.1676L24.3265 81.5762L24.7341 80.3774C24.851 80.0358 24.6682 79.6611 24.3265 79.5443L21.4374 78.5582C21.0957 78.4414 20.7211 78.6242 20.6042 78.9658L20.1966 80.1646V80.1676Z" fill="#593131"/>
<path d="M13.3672 79.7207L29.0952 85.0872L26.5954 92.4137C26.2131 93.5341 24.9919 94.134 23.8715 93.7517L12.2053 89.7711C11.0849 89.3888 10.485 88.1676 10.8673 87.0472L13.3672 79.7207Z" fill="#593131"/>
<path d="M28.0454 86.183L20.5559 85.2959C20.2921 85.2659 20.0374 85.179 19.8096 85.0411L13.3391 81.166C13.0124 80.9712 12.8655 80.5726 12.9884 80.21L13.6088 78.3878C13.7527 77.9652 14.2112 77.7404 14.6368 77.8843L29.0224 82.7934C29.445 82.9372 29.6697 83.3958 29.5259 83.8214L28.9055 85.6435C28.7826 86.0032 28.423 86.2309 28.0454 86.186V86.183Z" fill="#754343"/>
<path d="M25.6684 75.8069C25.6684 75.8069 26.6994 78.645 26.124 79.0646C25.5486 79.4842 24.4876 77.9138 24.1549 78.5102C23.8223 79.1066 24.9072 80.2365 23.4237 80.3234C21.9402 80.4133 20.6125 79.2834 20.7683 77.713C20.9242 76.1425 22.1919 75.1655 22.1889 74.692L22.4946 73.709L25.9022 74.8598L25.6684 75.8039V75.8069Z" fill="#FEB19E"/>
<path d="M21.916 74.6048L26.0339 75.9205L26.9 74.1043L26.915 74.0713L31.0029 65.5269L35.3186 64.469L37.1708 64.0164L37.4705 63.9415L39.6703 63.402L41.4715 62.9585L39.1997 55.46C39.1997 55.46 38.4265 55.5798 37.2247 55.9065C36.7961 56.0234 36.3106 56.1643 35.7861 56.3381C35.6513 56.383 35.5104 56.431 35.3696 56.4789C35.0789 56.5778 34.7792 56.6917 34.4675 56.8116C32.1778 57.6957 29.4505 59.1043 27.2387 61.2801C23.942 64.5229 22.6563 69.6418 22.1827 72.4949C22.1768 72.5339 22.1678 72.5728 22.1648 72.6118C21.967 73.8226 21.916 74.5988 21.916 74.5988V74.6048Z" fill="#FEF2CA"/>
<path opacity="0.47" d="M35.7877 56.344C35.6528 56.389 35.512 56.4369 35.3711 56.4849C35.7757 59.6527 36.6808 62.2061 37.475 63.9444L39.6748 63.4049L41.476 62.9614L39.2043 55.4629C39.2043 55.4629 38.431 55.5828 37.2292 55.9094C36.8007 56.0263 36.3152 56.1672 35.7907 56.341L35.7877 56.344Z" fill="#C9C9C9"/>
<path d="M22.1628 72.6182C21.965 73.829 21.9141 74.6052 21.9141 74.6052L26.0319 75.9209L26.8981 74.1047L26.9131 74.0718C24.6713 73.7031 23.0469 73.0498 22.1628 72.6152V72.6182Z" fill="#9EB2EF"/>
<path d="M87.6117 37.9864L83.841 38.7693C83.4585 38.8487 83.2128 39.2231 83.2922 39.6056L84.9751 47.7105C85.0545 48.0929 85.4289 48.3386 85.8114 48.2592L89.5821 47.4763C89.9646 47.3968 90.2103 47.0224 90.1309 46.6399L88.448 38.5351C88.3686 38.1526 87.9941 37.9069 87.6117 37.9864Z" fill="#23406D"/>
<path d="M84.4129 39.361L87.318 38.7578C87.585 38.7024 87.8437 38.8721 87.8991 39.1391L89.2767 45.7738L85.4092 46.5769L84.0316 39.9422C83.9761 39.6751 84.1458 39.4165 84.4129 39.361Z" fill="#A8AFBA"/>
<path d="M81.7324 47.074L82.6825 46.7444C82.6825 46.7444 83.4737 47.1609 84.7384 46.5765L83.9712 42.8842C83.9712 42.8842 85.2929 41.9641 85.2719 41.4127C85.2509 40.8582 82.6615 40.9931 81.6216 43.5136L80.4707 43.9991L81.7324 47.074Z" fill="#FEB19E"/>
<path d="M82.0136 48.192C82.0136 48.192 81.5101 48.5367 80.608 49.0582C77.653 50.7784 70.4092 54.4498 62.4731 54.4048C62.2214 54.4048 61.9696 54.3988 61.7179 54.3868C61.4362 54.3748 61.1515 54.3629 60.8667 54.3419C60.1055 54.2849 59.3443 54.192 58.577 54.0632L57.582 46.4298L60.2164 46.5587L60.9387 46.5946L61.3672 46.6156L68.3503 46.9603L78.8967 43.6036L80.4042 43.1211C80.4042 43.1211 82.2923 44.4428 82.0106 48.195L82.0136 48.192Z" fill="#FEF2CA"/>
<path opacity="0.47" d="M61.7218 54.3897C61.4401 54.3777 61.1554 54.3657 60.8707 54.3447C60.1094 54.2878 59.3482 54.1949 58.5809 54.066L57.5859 46.4326L60.2203 46.5615L60.9426 46.5975C61.1374 47.3587 61.3082 48.1769 61.4431 49.064C61.7338 50.9581 61.8027 52.7413 61.7218 54.3927V54.3897Z" fill="#C9C9C9"/>
<path d="M80.4079 43.1211L78.9004 43.6036C79.6167 44.9463 80.5038 46.9932 80.6117 49.0642C81.5138 48.5397 82.0173 48.198 82.0173 48.198C82.296 44.4458 80.4109 43.1241 80.4109 43.1241L80.4079 43.1211Z" fill="#9EB2EF"/>
<path d="M76.0494 77.6349C76.1483 77.8687 76.0405 78.1354 75.8067 78.2343L70.9905 80.2872L70.6309 79.4451L75.447 77.3921C75.6808 77.2932 75.9475 77.4011 76.0464 77.6349H76.0494Z" fill="#A1A7AF"/>
<path d="M64.948 82.3676C65.6643 84.0489 67.6063 84.8281 69.2847 84.1149C70.963 83.3986 71.7422 81.4595 71.0259 79.7782C70.3096 78.0999 68.3706 77.3206 66.6922 78.0339C65.0139 78.7502 64.2347 80.6893 64.948 82.3676ZM70.4295 80.0299C71.0049 81.3816 70.3756 82.94 69.0269 83.5125C67.6783 84.0849 66.1198 83.4615 65.5444 82.1099C64.969 80.7612 65.5983 79.1998 66.947 78.6273C68.2956 78.0519 69.8571 78.6813 70.4295 80.0299Z" fill="#BAC1CC"/>
<path d="M71.1816 75.303L71.5113 76.298C71.5113 76.298 71.5982 77.3889 71.5503 77.9343C71.5023 78.4798 71.0977 79.3999 71.6312 79.5317C72.1617 79.6636 72.0478 80.8264 73.1986 80.5627C74.3465 80.302 76.0877 79.253 76.0428 78.318C76.0008 77.3859 74.6312 75.6986 74.6312 75.6986L74.4304 74.8145L71.1846 75.303H71.1816Z" fill="#FEB19E"/>
<path d="M74.9931 74.6048L70.8752 75.9205L70.0091 74.1043L69.9941 74.0713L65.9062 65.5269L61.5905 64.469L59.7383 64.0164L59.4386 63.9415L57.2388 63.402L55.4376 62.9585L57.7094 55.46C57.7094 55.46 58.4826 55.5798 59.6844 55.9065C60.1129 56.0234 60.5985 56.1643 61.1229 56.3381C61.2578 56.383 61.3987 56.431 61.5395 56.4789C61.8302 56.5778 62.1299 56.6917 62.4416 56.8116C64.7313 57.6957 67.4586 59.1043 69.6704 61.2801C72.9671 64.5229 74.2528 69.6418 74.7263 72.4949C74.7323 72.5339 74.7413 72.5728 74.7443 72.6118C74.9421 73.8226 74.9931 74.5988 74.9931 74.5988V74.6048Z" fill="#FEF2CA"/>
<path opacity="0.47" d="M61.12 56.344C61.2548 56.389 61.3957 56.4369 61.5365 56.4849C61.1319 59.6527 60.2268 62.2061 59.4326 63.9444L57.2328 63.4049L55.4316 62.9614L57.7034 55.4629C57.7034 55.4629 58.4766 55.5828 59.6784 55.9094C60.107 56.0263 60.5925 56.1672 61.117 56.341L61.12 56.344Z" fill="#C9C9C9"/>
<path d="M69.9902 74.0746L70.0052 74.1076L70.8714 75.9238L74.9892 74.6081C74.9892 74.6081 74.9383 73.8319 74.7405 72.6211C73.8564 73.0527 72.229 73.709 69.9902 74.0776V74.0746Z" fill="#9EB2EF"/>
<path d="M34.4417 20.1348C34.4417 20.1348 32.6225 19.3346 32.4697 18.6663C32.3198 17.998 32.0621 16.4605 31.5406 16.3586C31.0191 16.2567 31.3218 18.7322 31.3218 18.7322C31.3218 18.7322 31.184 16.3796 30.4797 16.1308C29.7784 15.8851 30.3628 19.0409 30.2908 18.936C30.2189 18.8281 29.8833 16.5444 29.5086 16.5894C29.134 16.6343 29.0051 18.924 29.5356 20.0449C30.0661 21.1658 30.2369 22.1638 30.2369 22.1638L33.5306 22.3826L34.4387 20.1348H34.4417Z" fill="#F49D8C"/>
<path d="M33.7591 22.3701C33.7591 22.3701 35.3625 21.4111 35.8151 19.1663C36.1178 17.6618 34.7122 18.9445 34.2506 20.0115C34.2506 20.0115 31.85 19.8676 31.4395 22.2083L33.7591 22.3671V22.3701Z" fill="#FEB19E"/>
<path d="M30.3933 36.405C31.9727 39.6868 34.5861 42.2252 36.633 43.8496C36.678 43.8856 36.7229 43.9155 36.7649 43.9515C36.7829 43.9665 36.7979 43.9755 36.8159 43.9905C38.4432 45.2582 39.681 45.9295 39.681 45.9295L44.3623 39.6448L42.8159 38.6168L42.1355 38.1643L41.7399 37.9035L35.3803 33.6838L34.4272 24.2222L34.2264 22.2262L29.9048 22.0674C29.9048 22.0674 29.677 22.8616 29.4432 24.1383C28.9217 26.9855 28.3943 32.2332 30.3993 36.402L30.3933 36.405Z" fill="#FEF2CA"/>
<path opacity="0.47" d="M39.6746 45.9293L44.356 39.6446L42.8095 38.6166L42.1292 38.1641L41.7336 37.9033C40.3819 38.6616 38.29 40.3579 36.8125 43.9902C38.4399 45.258 39.6776 45.9293 39.6776 45.9293H39.6746Z" fill="#C9C9C9"/>
<path d="M29.4355 24.1383C31.3566 23.9615 33.1458 24.0754 34.4196 24.2252L34.2188 22.2262L29.8971 22.0674C29.8971 22.0674 29.6663 22.8616 29.4355 24.1383Z" fill="#9EB2EF"/>
<path d="M35.5543 9.22539C35.5543 7.76585 34.3705 6.58203 32.911 6.58203C31.4514 6.58203 30.2616 7.77484 30.2676 9.23438C30.2676 9.95965 30.5643 10.616 31.0378 11.0925C31.4065 11.4641 31.6792 11.9197 31.8141 12.4262L32.0268 13.2144H33.7591L33.9599 12.4681C34.1008 11.9527 34.3795 11.4851 34.7601 11.1105C35.2486 10.631 35.5513 9.96265 35.5513 9.22539H35.5543Z" fill="#F4D242"/>
<path d="M32.3095 9.8252C32.1207 9.8252 31.9648 9.98104 31.9648 10.1699C31.9648 10.3587 32.1207 10.5145 32.3095 10.5145C32.3814 10.5145 32.4504 10.4905 32.5073 10.4516V13.2148H32.6542V10.1699C32.6542 9.98104 32.5013 9.8252 32.3095 9.8252ZM32.3095 10.3647C32.2016 10.3647 32.1117 10.2747 32.1117 10.1669C32.1117 10.059 32.2016 9.96905 32.3095 9.96905C32.4174 9.96905 32.5073 10.059 32.5073 10.1669C32.5073 10.2747 32.4174 10.3647 32.3095 10.3647Z" fill="white"/>
<path d="M33.3353 10.125C33.1465 10.125 32.9906 10.2808 32.9906 10.4697L32.9727 13.2149H33.1195L33.1375 10.7514C33.1944 10.7903 33.2604 10.8143 33.3353 10.8143C33.5241 10.8143 33.6799 10.6585 33.6799 10.4697C33.6799 10.2808 33.5241 10.125 33.3353 10.125ZM33.3353 10.6645C33.2274 10.6645 33.1375 10.5746 33.1375 10.4667C33.1375 10.3588 33.2274 10.2689 33.3353 10.2689C33.4432 10.2689 33.5331 10.3588 33.5331 10.4667C33.5331 10.5746 33.4432 10.6645 33.3353 10.6645Z" fill="white"/>
<path d="M32.8982 14.2066C32.4007 14.2066 31.9961 13.802 31.9961 13.3045V13.0947H33.8003V13.3045C33.8003 13.802 33.3957 14.2066 32.8982 14.2066Z" fill="#383838"/>
<path d="M33.808 13.5109H31.9889C31.9499 13.5109 31.9199 13.4809 31.9199 13.442C31.9199 13.403 31.9499 13.373 31.9889 13.373H33.808C33.847 13.373 33.877 13.403 33.877 13.442C33.877 13.4809 33.847 13.5109 33.808 13.5109Z" fill="#838689"/>
<path d="M33.8198 13.8049H32.0006C31.9616 13.8049 31.9316 13.7749 31.9316 13.7359C31.9316 13.697 31.9616 13.667 32.0006 13.667H33.8198C33.8587 13.667 33.8887 13.697 33.8887 13.7359C33.8887 13.7749 33.8587 13.8049 33.8198 13.8049Z" fill="#838689"/>
<path d="M29.7002 9.1086H29.0079C28.933 9.1086 28.873 9.04866 28.873 8.97373C28.873 8.89881 28.933 8.83887 29.0079 8.83887H29.7002C29.7751 8.83887 29.8351 8.89881 29.8351 8.97373C29.8351 9.04866 29.7751 9.1086 29.7002 9.1086Z" fill="#F4D242"/>
<path d="M29.9126 7.86511L29.2982 7.54443C29.2323 7.51147 29.2083 7.43055 29.2413 7.36461C29.2742 7.29868 29.3551 7.2747 29.4211 7.30767L30.0355 7.62835C30.1014 7.66132 30.1254 7.74223 30.0924 7.80817C30.0594 7.8741 29.9785 7.89808 29.9126 7.86511Z" fill="#F4D242"/>
<path d="M29.9575 10.0645L29.3431 10.3852C29.2772 10.4182 29.2532 10.4991 29.2862 10.565C29.3192 10.6309 29.4001 10.6549 29.466 10.6219L30.0804 10.3013C30.1463 10.2683 30.1703 10.1874 30.1373 10.1214C30.1044 10.0555 30.0234 10.0315 29.9575 10.0645Z" fill="#F4D242"/>
<path d="M30.6625 6.8367L30.171 6.34519C30.1201 6.29424 30.1201 6.20732 30.171 6.15638C30.222 6.10543 30.3089 6.10543 30.3598 6.15638L30.8513 6.64788C30.9023 6.69883 30.9023 6.78575 30.8513 6.8367C30.8004 6.88764 30.7135 6.88764 30.6625 6.8367Z" fill="#F4D242"/>
<path d="M31.5112 6.18345L31.2715 5.5331C31.2475 5.46417 31.2804 5.38625 31.3494 5.36227C31.4183 5.3383 31.4962 5.37126 31.5202 5.44019L31.76 6.09054C31.7839 6.15947 31.751 6.2374 31.682 6.26137C31.6131 6.28535 31.5352 6.25238 31.5112 6.18345Z" fill="#F4D242"/>
<path d="M36.1446 9.01875H36.8369C36.9119 9.01875 36.9718 8.95881 36.9718 8.88389C36.9718 8.80896 36.9119 8.74902 36.8369 8.74902H36.1446C36.0697 8.74902 36.0098 8.80896 36.0098 8.88389C36.0098 8.95881 36.0697 9.01875 36.1446 9.01875Z" fill="#F4D242"/>
<path d="M35.9308 7.7782L36.5452 7.45752C36.6112 7.42455 36.6351 7.34363 36.6022 7.2777C36.5692 7.21176 36.4883 7.18779 36.4224 7.22076L35.808 7.54143C35.742 7.5744 35.7181 7.65532 35.751 7.72125C35.784 7.78719 35.8649 7.81117 35.9308 7.7782Z" fill="#F4D242"/>
<path d="M35.8898 9.97759L36.5042 10.2983C36.5702 10.3312 36.5941 10.4122 36.5612 10.4781C36.5282 10.544 36.4473 10.568 36.3813 10.535L35.767 10.2144C35.701 10.1814 35.677 10.1005 35.71 10.0345C35.743 9.9686 35.8239 9.94462 35.8898 9.97759Z" fill="#F4D242"/>
<path d="M35.1841 6.74978L35.6756 6.25827C35.7265 6.20732 35.7265 6.12041 35.6756 6.06946C35.6246 6.01851 35.5377 6.01851 35.4868 6.06946L34.9952 6.56097C34.9443 6.61192 34.9443 6.69883 34.9952 6.74978C35.0462 6.80073 35.1331 6.80073 35.1841 6.74978Z" fill="#F4D242"/>
<path d="M34.3366 6.09654L34.5763 5.44619C34.6003 5.37726 34.5673 5.29933 34.4984 5.27536C34.4295 5.25138 34.3516 5.28435 34.3276 5.35328L34.0878 6.00363C34.0639 6.07256 34.0968 6.15048 34.1657 6.17446C34.2347 6.19843 34.3126 6.16547 34.3366 6.09654Z" fill="#F4D242"/>
<path d="M32.7754 5.88967V5.19737C32.7754 5.12244 32.8353 5.0625 32.9103 5.0625C32.9852 5.0625 33.0451 5.12244 33.0451 5.19737V5.88967C33.0451 5.9646 32.9852 6.02454 32.9103 6.02454C32.8353 6.02454 32.7754 5.9646 32.7754 5.88967Z" fill="#F4D242"/>
<path d="M62.5509 20.0479C62.5509 20.0479 64.37 19.2477 64.5229 18.5794C64.6727 17.9111 64.9305 16.3736 65.452 16.2717C65.9734 16.1698 65.6707 18.6453 65.6707 18.6453C65.6707 18.6453 65.8116 16.2927 66.5129 16.0439C67.2142 15.7982 66.6298 18.954 66.7017 18.8491C66.7736 18.7412 67.1093 16.4575 67.4839 16.5025C67.8586 16.5474 67.9874 18.8371 67.457 19.958C66.9265 21.0789 66.7557 22.0769 66.7557 22.0769L63.462 22.2957L62.5539 20.0479H62.5509Z" fill="#F49D8C"/>
<path d="M63.2369 22.2803C63.2369 22.2803 61.6335 21.3212 61.181 19.0765C60.8783 17.572 62.2839 18.8547 62.7454 19.9216C62.7454 19.9216 65.146 19.7778 65.5566 22.1184L63.2369 22.2773V22.2803Z" fill="#FEB19E"/>
<path d="M66.5159 36.406C64.9365 39.6877 62.3231 42.2262 60.2761 43.8506C60.2312 43.8865 60.1862 43.9165 60.1443 43.9525C60.1263 43.9675 60.1113 43.9765 60.0933 43.9914C58.466 45.2592 57.2282 45.9305 57.2282 45.9305L52.5469 39.6458L54.0933 38.6178L54.7736 38.1653L55.1693 37.9045L61.5289 33.6847L62.4819 24.2232L62.6827 22.2272L67.0044 22.0684C67.0044 22.0684 67.2322 22.8626 67.466 24.1393C67.9874 26.9864 68.5149 32.2342 66.5099 36.403L66.5159 36.406Z" fill="#FEF2CA"/>
<path opacity="0.47" d="M57.2341 45.9303L52.5527 39.6456L54.0992 38.6176L54.7795 38.165L55.1751 37.9043C56.5268 38.6625 58.6187 40.3588 60.0962 43.9912C58.4688 45.2589 57.2311 45.9303 57.2311 45.9303H57.2341Z" fill="#C9C9C9"/>
<path d="M62.6891 22.2272L62.4883 24.2262C63.762 24.0734 65.5512 23.9595 67.4723 24.1393C67.2385 22.8626 67.0108 22.0684 67.0108 22.0684L62.6891 22.2272Z" fill="#9EB2EF"/>
<path d="M63.3492 12.9778C64.925 12.9778 66.2024 11.7004 66.2024 10.1246C66.2024 8.54888 64.925 7.27148 63.3492 7.27148C61.7735 7.27148 60.4961 8.54888 60.4961 10.1246C60.4961 11.7004 61.7735 12.9778 63.3492 12.9778Z" fill="#EFA245"/>
<path d="M63.3485 6.91504C61.5772 6.91504 60.1387 8.3506 60.1387 10.1248C60.1387 11.8991 61.5742 13.3346 63.3485 13.3346C65.1227 13.3346 66.5583 11.8991 66.5583 10.1248C66.5583 8.3506 65.1227 6.91504 63.3485 6.91504ZM63.3485 12.7892C63.0727 12.7892 62.806 12.7472 62.5573 12.6693C61.7241 12.4085 61.0617 11.7492 60.804 10.916C60.7261 10.6643 60.6841 10.4006 60.6841 10.1248C60.6841 10.0319 60.6901 9.94201 60.6991 9.8521C60.81 8.77917 61.5593 7.88907 62.5603 7.57738C62.812 7.49945 63.0757 7.4575 63.3515 7.4575C64.823 7.4575 66.0188 8.6533 66.0188 10.1248C66.0188 11.5964 64.823 12.7922 63.3515 12.7922L63.3485 12.7892Z" fill="#F4D242"/>
<path d="M63.5607 9.92078V9.14755C63.9263 9.21049 63.9263 9.43826 63.9263 9.51918H64.3549C64.3549 9.06663 64.0612 8.77592 63.5607 8.71299V8.4043H63.1321V8.71299C62.6286 8.77592 62.3379 9.06663 62.3379 9.51918C62.3379 9.97173 62.6316 10.2624 63.1321 10.3254V11.0986C62.7665 11.0357 62.7665 10.8079 62.7665 10.727H62.3379C62.3379 11.1795 62.6316 11.4702 63.1321 11.5332V11.8419H63.5607V11.5332C64.0642 11.4702 64.3549 11.1795 64.3549 10.727C64.3549 10.2744 64.0612 9.98372 63.5607 9.92078ZM62.7665 9.51918C62.7665 9.43826 62.7665 9.21049 63.1321 9.14755V9.89081C62.7665 9.82787 62.7665 9.6001 62.7665 9.51918ZM63.5607 11.0986V10.3553C63.9263 10.4183 63.9263 10.6461 63.9263 10.727C63.9263 10.8079 63.9263 11.0357 63.5607 11.0986Z" fill="#F4D242"/>
<path d="M48.3377 112.211H41.6095C41.6095 112.211 39.6884 88.4896 40.3717 67.7773H48.8682L50.1149 85.7264C50.1149 85.7264 48.5145 103.094 48.3377 112.211Z" fill="#263238"/>
<path d="M46.7831 112.223C46.0278 101.62 48.1917 79.5587 48.2127 79.3369L48.5663 79.3729C48.5453 79.5947 46.3845 101.626 47.1367 112.199L46.7831 112.223Z" fill="#455A64"/>
<path d="M48.1609 116.251C48.1639 116.625 48.1399 116.916 48.071 117.051C47.7443 117.698 36.7693 117.552 36.1219 117.522C35.5555 117.498 35.6394 115.687 38.3037 114.647C38.6904 114.495 39.1309 114.36 39.6344 114.249C42.2898 113.658 42.1999 112.214 42.1999 112.214L47.7173 112.229C47.7173 112.229 48.1429 114.842 48.1609 116.254V116.251Z" fill="#263238"/>
<path d="M48.1609 116.251C48.1639 116.625 48.1399 116.916 48.071 117.051C47.7443 117.698 36.7693 117.552 36.1219 117.522C35.5555 117.498 35.6394 115.687 38.3037 114.647C38.9511 114.77 39.6494 115.277 39.9281 116.772C39.9281 116.772 45.6344 116.835 48.1609 116.251Z" fill="#455A64"/>
<path d="M60.5124 117.033C59.6792 117.401 56.8291 117.515 55.1417 117.323C54.5813 117.264 54.1497 117.165 53.9639 117.033C53.2087 116.502 54.0059 112.226 54.0059 112.226H58.0788C58.0788 112.226 57.9889 113.805 59.0558 114.294C59.4035 114.452 59.7961 114.746 60.1288 115.091C60.1497 115.112 60.1707 115.133 60.1887 115.154C60.4255 115.399 60.5483 115.591 60.5483 115.591C60.9589 116.179 61.0878 116.781 60.5124 117.033Z" fill="#263238"/>
<path d="M60.5122 117.032C59.679 117.401 56.8289 117.515 55.1416 117.323C54.9648 115.219 56.691 114.2 58.1176 114.2C59.0377 114.2 59.721 114.692 60.1256 115.09C60.1466 115.111 60.1676 115.132 60.1855 115.153C60.4223 115.399 60.5452 115.591 60.5452 115.591C60.9558 116.178 61.0846 116.781 60.5092 117.032H60.5122Z" fill="#455A64"/>
<path d="M46.9591 68.6284L52.7673 112.214H59.055L57.7243 74.4186C57.7243 74.4186 58.2428 71.1879 58.1379 67.7803L46.9591 68.6284Z" fill="#263238"/>
<path d="M57.4906 112.217L57.1369 112.205C57.5505 100.025 55.4466 74.7723 55.4257 74.5206C55.7763 70.6814 55.2308 68.6315 55.2249 68.6105L55.5665 68.5176C55.5905 68.6015 56.1359 70.6425 55.7793 74.5236C55.8003 74.7454 57.9072 100.016 57.4936 112.22L57.4906 112.217Z" fill="#455A64"/>
<path d="M38.5887 58.0434C38.5887 58.0434 37.318 61.5829 34.1322 59.7247C30.9463 57.8666 34.6267 49.6758 34.6267 49.6758L38.5887 58.0434Z" fill="#FEF2CA"/>
<path d="M35.9929 47.9315C35.9929 47.9315 35.6842 46.8916 37.1887 46.5829C38.6932 46.2742 39.3346 47.2242 39.7332 48.1323L35.9929 47.9345V47.9315Z" fill="#FEB19E"/>
<path d="M58.3817 54.9685C57.2339 57.8217 57.3148 58.424 57.3148 58.424L58.136 67.7777C58.136 67.7777 44.7154 72.2912 40.3727 67.7777L39.9471 60.2282L39.7314 56.3861L39.6894 56.1793L37.9961 48.0334L39.7314 48.1263C39.4317 47.443 38.9881 46.7267 38.1429 46.5529C38.6884 45.1863 39.9531 42.3691 41.4636 41.2632C43.4926 39.7827 47.6734 37.9905 53.7843 39.7377C59.8892 41.488 59.5236 52.1124 58.3787 54.9655L58.3817 54.9685Z" fill="#FEF2CA"/>
<path d="M57.3157 58.424C57.3157 58.424 57.1329 63.414 52.5895 64.7687C48.046 66.1233 44.4166 60.6957 43.6494 60.2612C43.011 59.9045 40.7183 60.1383 39.9511 60.2282L39.7353 56.386L39.6934 56.1792L43.5235 55.46L49.3197 60.9295L57.3187 58.418L57.3157 58.424Z" fill="#FEF2CA"/>
<path d="M53.2959 49.4268C53.2959 49.4268 48.4318 50.9313 41.7305 49.4268V56.0501C41.7305 56.0501 49.0462 57.5996 54.4767 56.0501L53.2959 49.4268Z" fill="#A9D0FF"/>
<path opacity="0.47" d="M54.4772 45.3066C54.4772 45.3066 51.1356 58.1758 45.6061 54.0699L44.0566 55.7932L51.7709 60.5854L54.4772 45.3096V45.3066Z" fill="#3150BC"/>
<path d="M50.0738 37.7716C50.0738 37.7716 51.7941 35.2062 51.0628 32.2871C50.3315 29.368 48.6952 30.0304 48.6952 30.0304C48.6952 30.0304 49.891 28.1273 47.853 27.1982C45.815 26.2691 44.3855 27.0214 45.827 27.5518C45.827 27.5518 42.854 27.5518 41.1277 29.41C39.4015 31.2681 38.1637 29.365 37.6752 29.7636C37.1897 30.1622 38.0948 31.4479 38.871 31.5768C38.871 31.5768 37.0128 31.1782 36.881 31.5768C36.7491 31.9754 37.9329 34.4959 40.6332 34.4509C40.6332 34.4509 40.2886 36.0843 43.0308 37.7686C45.7761 39.4529 50.0738 37.7686 50.0738 37.7686V37.7716Z" fill="url(#paint0_linear_134_11851)"/>
<path d="M51.0626 40.0766C51.0626 40.0766 50.9607 40.4632 50.7419 40.9937C50.2294 42.2225 49.0756 44.2485 47.0346 44.1705C46.3363 44.1466 46.1056 43.5591 46.0366 42.8099C45.9347 41.7879 46.1176 40.4662 45.7969 39.8548L47.7809 37.3014L49.0966 35.6051L49.3184 35.3174C49.3184 35.3174 49.8458 37.6431 51.0626 40.0766Z" fill="#FEB19E"/>
<path d="M50.74 40.9932C50.2275 42.2219 49.0736 44.2479 47.0327 44.17C46.3344 44.146 46.1036 43.5586 46.0347 42.8093C45.9328 41.7874 46.1156 40.4657 45.7949 39.8543L47.7789 37.3008L49.2894 36.7764C49.2894 36.7764 49.2475 39.7944 46.8648 41.6885C46.8648 41.6885 48.0816 42.12 49.703 40.4867C50.0417 40.145 50.3923 40.4507 50.74 40.9932Z" fill="#FF856A"/>
<path d="M50.2469 38.2363L50.4627 38.7728C50.4627 38.7728 49.7764 41.605 47.3848 42.4441L47.6095 45.1444C47.6095 45.1444 51.122 43.4421 51.7634 39.7468C51.7634 39.7468 51.0681 38.1884 50.2409 38.2393L50.2469 38.2363Z" fill="#23406D"/>
<path d="M46.4362 42.3215L46.1455 45.1057C46.1455 45.1057 44.0476 43.5982 44.7459 40.4873C44.7459 40.4873 45.5401 40.9758 46.1365 40.8649C46.1365 40.8649 45.8428 41.4134 46.4392 42.3215H46.4362Z" fill="#23406D"/>
<path d="M41.4668 34.232C42.0932 36.8993 42.8334 39.4587 45.0422 40.6605C45.6116 40.9692 46.292 40.9542 46.8434 40.6126C47.9134 39.9532 49.5437 38.4398 49.3219 35.4128C49.3219 35.4128 50.0532 35.6795 50.1731 34.232C50.29 32.7874 49.7955 32.5357 49.259 32.6525C48.7225 32.7694 48.7735 34.7025 48.7735 34.7025C48.7735 34.7025 46.8854 34.2979 46.4658 31.7744C46.4658 31.7744 45.6686 32.9043 44.9823 33.192C44.296 33.4797 44.5627 32.197 44.5627 32.197C44.5627 32.197 44.0682 34.0342 41.4728 34.232H41.4668Z" fill="#FEB19E"/>
<path d="M41.4126 47.4297L35.6758 47.8369C35.2118 47.8698 34.8624 48.2726 34.8954 48.7365L35.5343 57.7379C35.5672 58.2018 35.97 58.5512 36.4339 58.5183L42.1708 58.1111C42.6347 58.0782 42.9841 57.6754 42.9512 57.2114L42.3123 48.2101C42.2793 47.7461 41.8765 47.3967 41.4126 47.4297Z" fill="#BAC1CC"/>
<path d="M41.0808 47.4326L35.344 47.8398C34.88 47.8727 34.5306 48.2755 34.5635 48.7395L35.2024 57.7408C35.2354 58.2047 35.6382 58.5541 36.1021 58.5212L41.8389 58.114C42.3029 58.0811 42.6523 57.6783 42.6193 57.2143L41.9804 48.213C41.9475 47.7491 41.5447 47.3997 41.0808 47.4326Z" fill="#E1E7F4"/>
<path d="M39.1057 52.9631C39.1506 53.5925 38.836 54.126 38.4074 54.1559C37.9758 54.1859 37.5922 53.7004 37.5472 53.074C37.5023 52.4446 37.817 51.9112 38.2455 51.8812C38.6771 51.8512 39.0607 52.3367 39.1057 52.9631Z" fill="#F8FBFF"/>
<path d="M44.6137 53.6499C44.6137 53.6499 44.2451 51.3362 42.5248 51.2493V52.1814C42.5248 52.1814 41.4009 52.4481 40.7146 51.6719C40.0283 50.8986 39.297 50.3082 39.4768 52.4511C39.6537 54.594 41.1582 55.6339 42.7735 55.523L43.3939 56.0535L45.1651 54.2553L44.6197 53.6499H44.6137Z" fill="#FEB19E"/>
<path d="M53.3556 63.177C49.2047 64.7774 45.4405 60.2998 43.7172 57.7853C43.0878 56.8683 42.7342 56.2119 42.7342 56.2119L45.2697 53.7933L46.6902 54.9472L51.0629 58.5136C51.0629 58.5136 51.8211 55.0341 52.4715 50.9612C53.1188 46.8882 54.1857 44.3198 56.4215 44.6495C60.8481 45.2968 59.0199 60.9921 53.3556 63.177Z" fill="#FEF2CA"/>
<path d="M46.6894 54.9469C46.2518 55.6452 45.3497 56.784 43.7193 57.782C43.09 56.865 42.7363 56.2086 42.7363 56.2086L45.2718 53.79L46.6924 54.9439L46.6894 54.9469Z" fill="#9EB2EF"/>
</g>
<defs>
<linearGradient id="paint0_linear_134_11851" x1="44.9639" y1="36.0064" x2="43.2526" y2="29.1612" gradientUnits="userSpaceOnUse">
<stop stop-color="#1F3A65"/>
<stop offset="1" stop-color="#294A7A"/>
</linearGradient>
<clipPath id="clip0_134_11851">
<rect width="99.9021" height="120" fill="white"/>
</clipPath>
</defs>
</svg>
