<svg width="24" height="24" viewBox="0 0 24 24" fill="none" xmlns="http://www.w3.org/2000/svg">
<path d="M3.082 13.945C2.553 12.995 2.289 12.519 2.289 12C2.289 11.481 2.553 11.006 3.082 10.056L4.43 7.63001L5.856 5.24901C6.415 4.31601 6.694 3.84901 7.143 3.58901C7.593 3.33001 8.136 3.32201 9.223 3.30401L12 3.26001L14.775 3.30401C15.863 3.32201 16.406 3.33001 16.855 3.59001C17.305 3.85001 17.585 4.31601 18.143 5.24901L19.57 7.63001L20.92 10.056C21.448 11.006 21.712 11.481 21.712 12C21.712 12.519 21.448 12.994 20.919 13.944L19.57 16.37L18.144 18.751C17.585 19.684 17.306 20.151 16.857 20.411C16.407 20.67 15.864 20.678 14.777 20.696L12 20.74L9.225 20.696C8.137 20.678 7.594 20.67 7.145 20.41C6.695 20.15 6.415 19.684 5.857 18.751L4.43 16.37L3.082 13.945Z" stroke="#C2C3C3"/>
<path d="M12 15C13.6569 15 15 13.6569 15 12C15 10.3431 13.6569 9 12 9C10.3431 9 9 10.3431 9 12C9 13.6569 10.3431 15 12 15Z" stroke="#C2C3C3"/>
</svg>
