<svg width="172" height="80" viewBox="0 0 172 80" fill="none" xmlns="http://www.w3.org/2000/svg">
<path d="M0 0H17.4952L40.9249 57.1869H41.8497L65.2794 0H82.7746V78.921H69.0559V24.7013H68.3237L46.5125 78.6898H36.262L14.4509 24.5857H13.7187V78.921H0V0Z" fill="url(#paint0_linear_134_9833)"/>
<path d="M129.48 0H143.661V55.4913C143.635 60.578 142.556 64.9583 140.424 68.632C138.292 72.28 135.312 75.0931 131.484 77.0713C127.681 79.0238 123.25 80 118.189 80C113.565 80 109.403 79.1779 105.703 77.5337C102.03 75.8638 99.1137 73.3976 96.9557 70.1349C94.7977 66.8722 93.7187 62.8131 93.7187 57.9576H107.938C107.964 60.0899 108.426 61.9268 109.326 63.4682C110.25 65.0096 111.522 66.1914 113.141 67.0135C114.759 67.8356 116.622 68.2466 118.728 68.2466C121.015 68.2466 122.954 67.7714 124.547 66.8208C126.14 65.8446 127.347 64.4059 128.17 62.5048C129.017 60.6037 129.454 58.2659 129.48 55.4913V0Z" fill="url(#paint1_linear_134_9833)"/>
<path d="M163.439 79.7688C161.101 79.7688 159.098 78.9467 157.428 77.3025C155.758 75.6583 154.936 73.6545 154.961 71.2909C154.936 68.9788 155.758 67.0006 157.428 65.3565C159.098 63.7123 161.101 62.8902 163.439 62.8902C165.7 62.8902 167.665 63.7123 169.335 65.3565C171.031 67.0006 171.891 68.9788 171.917 71.2909C171.891 72.8581 171.48 74.2839 170.684 75.5684C169.913 76.8529 168.886 77.8805 167.601 78.6513C166.342 79.3963 164.955 79.7688 163.439 79.7688Z" fill="url(#paint2_linear_134_9833)"/>
<defs>
<linearGradient id="paint0_linear_134_9833" x1="-1.84183" y1="39.7622" x2="168.424" y2="39.7622" gradientUnits="userSpaceOnUse">
<stop stop-color="#74563A"/>
<stop offset="0.505" stop-color="#E8D787"/>
<stop offset="1" stop-color="#74563A"/>
</linearGradient>
<linearGradient id="paint1_linear_134_9833" x1="-1.84183" y1="39.7622" x2="168.424" y2="39.7622" gradientUnits="userSpaceOnUse">
<stop stop-color="#74563A"/>
<stop offset="0.505" stop-color="#E8D787"/>
<stop offset="1" stop-color="#74563A"/>
</linearGradient>
<linearGradient id="paint2_linear_134_9833" x1="-1.84183" y1="39.7622" x2="168.424" y2="39.7622" gradientUnits="userSpaceOnUse">
<stop stop-color="#74563A"/>
<stop offset="0.505" stop-color="#E8D787"/>
<stop offset="1" stop-color="#74563A"/>
</linearGradient>
</defs>
</svg>
