<svg width="108" height="120" viewBox="0 0 108 120" fill="none" xmlns="http://www.w3.org/2000/svg">
<g clip-path="url(#clip0_134_11987)">
<path d="M91.7476 65.0065L72.3681 57.6779C71.0276 57.1716 70.3534 55.6739 70.8597 54.3361L81.0052 27.5107C81.5115 26.1702 83.0092 25.496 84.3471 26.0023L96.6378 30.65L102.445 44.0547L95.0921 63.4982C94.5858 64.8386 93.0881 65.5129 91.7503 65.0065H91.7476Z" fill="#F5F5F5"/>
<path d="M96.6379 30.6504L93.7837 38.2002C93.312 39.4447 93.941 40.8385 95.1855 41.3075L102.445 44.0551L96.6379 30.6504Z" fill="#EBEBEB"/>
<path d="M93.6293 38.8984C93.6293 38.8984 92.8405 40.6946 94.6979 42.0831C94.7672 42.1363 94.8418 42.1817 94.9165 42.227C95.8012 42.7546 101.621 46.2244 101.675 46.0805C101.733 45.9259 102.442 44.0524 102.442 44.0524L95.1829 41.3075C95.1829 41.3075 93.3948 40.5614 93.6293 38.8984Z" fill="#E0E0E0"/>
<path d="M92.274 37.2778C92.2367 37.3737 90.2007 36.6941 87.7249 35.7587C85.2492 34.8233 83.2718 33.9839 83.3091 33.8879C83.3464 33.792 85.3824 34.4716 87.8582 35.407C90.3339 36.3424 92.3113 37.1818 92.274 37.2778Z" fill="#E0E0E0"/>
<path d="M96.4483 43.7343C96.4109 43.8303 93.0771 42.6604 89.0024 41.12C84.9277 39.5797 81.6525 38.2499 81.6898 38.1539C81.7271 38.058 85.0583 39.2279 89.1356 40.7683C93.2103 42.3086 96.4829 43.6384 96.4483 43.7343Z" fill="#E0E0E0"/>
<path d="M96.4297 47.8013C96.3924 47.8972 92.7627 46.6154 88.3202 44.9365C83.8778 43.2549 80.3067 41.8158 80.344 41.7199C80.3813 41.624 84.011 42.9058 88.4535 44.5874C92.8959 46.2663 96.467 47.708 96.4297 47.804V47.8013Z" fill="#E0E0E0"/>
<path d="M95.1601 51.1646C95.1228 51.2605 91.4932 49.9787 87.0507 48.2998C82.6082 46.6209 79.0372 45.1791 79.0745 45.0832C79.1118 44.9872 82.7415 46.2691 87.184 47.9507C91.6264 49.6296 95.1975 51.0713 95.1601 51.1673V51.1646Z" fill="#E0E0E0"/>
<path d="M93.8867 54.5279C93.8494 54.6238 90.2197 53.342 85.7773 51.6631C81.3348 49.9815 77.7638 48.5424 77.8011 48.4465C77.8384 48.3505 81.468 49.6324 85.9105 51.3139C90.353 52.9929 93.924 54.4346 93.8867 54.5305V54.5279Z" fill="#E0E0E0"/>
<path d="M92.6172 57.8912C92.5799 57.9871 88.9502 56.7052 84.5077 55.0263C80.0653 53.3474 76.4942 51.9057 76.5315 51.8097C76.5688 51.7138 80.1985 52.9956 84.641 54.6772C89.0834 56.3561 92.6545 57.7979 92.6172 57.8938V57.8912Z" fill="#E0E0E0"/>
<path d="M27.124 37.1529L1.57231 46.1009C0.688847 46.4103 0.223463 47.3773 0.532848 48.2608L13.353 84.8693C13.6623 85.7527 14.6293 86.2181 15.5128 85.9087L41.0645 76.9606C41.948 76.6512 42.4134 75.6843 42.104 74.8008L29.2839 38.1923C28.9745 37.3089 28.0075 36.8435 27.124 37.1529Z" fill="#EBEBEB"/>
<path d="M27.4511 39.4313L2.73438 48.0869L15.4409 84.3709L40.1575 75.7153L27.4511 39.4313Z" fill="#E0E0E0"/>
<path d="M27.0116 39.2574L2.29492 47.9131L14.7592 83.5054L39.4759 74.8498L27.0116 39.2574Z" fill="#FAFAFA"/>
<path d="M39.4708 74.8532C39.3669 74.5547 34.3488 60.2679 26.9749 39.2735L27.0202 39.2948C19.5237 41.9198 11.1371 44.8592 2.3081 47.9505H2.30543L2.32942 47.9026C6.98775 61.2726 11.3236 73.6193 14.7854 83.4956L14.7454 83.477C29.7784 78.2324 39.2283 74.9358 39.4708 74.8505C39.2283 74.9358 29.7864 78.2537 14.7667 83.5356L14.7374 83.5463L14.7268 83.517C11.265 73.638 6.93978 61.2913 2.25747 47.9266L2.24414 47.8893L2.28145 47.8759H2.28411C11.1131 44.7846 19.5024 41.8478 26.9989 39.2255L27.0335 39.2148L27.0442 39.2495C34.3781 60.2573 39.3695 74.5547 39.4735 74.8532H39.4708Z" fill="#E0E0E0"/>
<path d="M30.7058 77.9228C30.7058 77.9228 36.2089 73.2805 37.163 68.4463C37.163 68.4463 35.6359 70.8421 32.4567 71.2791C32.4567 71.2791 32.3474 76.3559 30.7031 77.9228H30.7058Z" fill="#E0E0E0"/>
<path d="M10.7426 55.844L9.44222 56.2994C8.96715 56.4657 8.7169 56.9857 8.88327 57.4608L9.33864 58.7611C9.50501 59.2362 10.025 59.4865 10.5001 59.3201L11.8004 58.8647C12.2755 58.6983 12.5257 58.1784 12.3594 57.7033L11.904 56.4029C11.7376 55.9279 11.2176 55.6776 10.7426 55.844Z" fill="#EBEBEB"/>
<path d="M10.5831 58.0856C10.5645 58.091 10.5405 58.0883 10.5245 58.0803L9.92754 57.7339C9.8929 57.7125 9.87957 57.6672 9.90089 57.6326C9.92221 57.5979 9.96752 57.5846 10.0022 57.6059L10.5272 57.9097L11.1561 56.5639C11.1747 56.5266 11.2174 56.5106 11.2547 56.5293C11.292 56.548 11.308 56.5906 11.2893 56.6279L10.6258 58.0483C10.6178 58.067 10.6018 58.0803 10.5831 58.0883V58.0856Z" fill="white"/>
<path d="M27.6492 50.3381C27.6572 50.3594 24.446 51.5 20.4805 52.8885C16.5124 54.2769 13.2932 55.3882 13.2852 55.3669C13.2772 55.3456 16.4884 54.205 20.4539 52.8165C24.4193 51.4281 27.6413 50.3195 27.6466 50.3381H27.6492Z" fill="#E0E0E0"/>
<path d="M20.1139 55.4577C20.1139 55.4577 20.0339 55.4977 19.882 55.5563C19.7168 55.6176 19.5009 55.6975 19.2371 55.7961C18.6908 55.9934 17.9366 56.2625 17.1025 56.5557C16.2657 56.8488 15.5089 57.11 14.9599 57.2939C14.6934 57.3818 14.4749 57.4537 14.307 57.5097C14.1524 57.5577 14.0671 57.5843 14.0645 57.579C14.0645 57.5737 14.1444 57.539 14.2963 57.4804C14.4615 57.4191 14.6774 57.3392 14.9412 57.2406C15.4875 57.0433 16.2417 56.7742 17.0785 56.481C17.9126 56.1879 18.6722 55.9267 19.2211 55.7429C19.4876 55.6549 19.7062 55.583 19.874 55.527C20.0286 55.479 20.1139 55.4524 20.1166 55.4577H20.1139Z" fill="#E0E0E0"/>
<path d="M27.993 51.3166C28.001 51.338 24.7897 52.4786 20.8243 53.867C16.8562 55.2554 13.6369 56.3667 13.6289 56.3454C13.6209 56.3241 16.8322 55.1835 20.7976 53.795C24.7631 52.4066 27.985 51.298 27.9903 51.3166H27.993Z" fill="#E0E0E0"/>
<path d="M12.598 61.1477L11.2977 61.6031C10.8226 61.7694 10.5724 62.2894 10.7387 62.7645L11.1941 64.0648C11.3605 64.5399 11.8805 64.7902 12.3555 64.6238L13.6559 64.1684C14.131 64.0021 14.3812 63.4821 14.2148 63.007L13.7595 61.7066C13.5931 61.2316 13.0731 60.9813 12.598 61.1477Z" fill="#EBEBEB"/>
<path d="M12.4405 63.3884C12.4219 63.3937 12.3979 63.391 12.3819 63.383L11.785 63.0366C11.7503 63.0153 11.737 62.97 11.7583 62.9353C11.7796 62.9007 11.8249 62.8874 11.8596 62.9087L12.3846 63.2125L13.0135 61.8667C13.0322 61.8294 13.0748 61.8134 13.1121 61.832C13.1494 61.8507 13.1654 61.8933 13.1468 61.9306L12.4832 63.3511C12.4752 63.3697 12.4592 63.383 12.4405 63.391V63.3884Z" fill="white"/>
<path d="M29.5066 55.6418C29.5146 55.6632 26.3033 56.8038 22.3379 58.1922C18.3697 59.5806 15.1505 60.6919 15.1425 60.6706C15.1345 60.6493 18.3458 59.5087 22.3112 58.1202C26.2767 56.7318 29.4986 55.6232 29.5039 55.6418H29.5066Z" fill="#E0E0E0"/>
<path d="M21.9694 60.7614C21.9694 60.7614 21.8894 60.8014 21.7375 60.86C21.5723 60.9213 21.3564 61.0013 21.0926 61.0999C20.5463 61.2971 19.7921 61.5662 18.958 61.8594C18.1212 62.1525 17.3643 62.4137 16.8153 62.5976C16.5489 62.6855 16.3303 62.7575 16.1624 62.8134C16.0079 62.8614 15.9226 62.888 15.9199 62.8827C15.9199 62.8774 15.9999 62.8427 16.1518 62.7841C16.317 62.7228 16.5329 62.6429 16.7967 62.5443C17.343 62.3471 18.0972 62.0779 18.934 61.7848C19.7681 61.4916 20.5276 61.2304 21.0766 61.0466C21.3431 60.9586 21.5616 60.8867 21.7295 60.8307C21.8841 60.7827 21.9694 60.7561 21.972 60.7614H21.9694Z" fill="#E0E0E0"/>
<path d="M29.8504 56.6203C29.8584 56.6417 26.6472 57.7823 22.6817 59.1707C18.7136 60.5591 15.4943 61.6704 15.4863 61.6491C15.4784 61.6278 18.6896 60.4872 22.6551 59.0987C26.6205 57.7103 29.8424 56.6017 29.8478 56.6203H29.8504Z" fill="#E0E0E0"/>
<path d="M14.4574 66.4504L13.1571 66.9058C12.682 67.0722 12.4317 67.5922 12.5981 68.0672L13.0535 69.3676C13.2199 69.8426 13.7398 70.0929 14.2149 69.9265L15.5153 69.4712C15.9903 69.3048 16.2406 68.7848 16.0742 68.3097L15.6188 67.0094C15.4525 66.5343 14.9325 66.2841 14.4574 66.4504Z" fill="#EBEBEB"/>
<path d="M14.298 68.6921C14.2793 68.6974 14.2553 68.6947 14.2393 68.6867L13.6424 68.3403C13.6077 68.319 13.5944 68.2737 13.6157 68.239C13.6371 68.2044 13.6824 68.1911 13.717 68.2124L14.242 68.5162L14.8709 67.1704C14.8896 67.1331 14.9322 67.1171 14.9695 67.1357C15.0068 67.1544 15.0228 67.197 15.0042 67.2343L14.3406 68.6548C14.3326 68.6734 14.3166 68.6867 14.298 68.6947V68.6921Z" fill="white"/>
<path d="M31.3641 60.9455C31.3721 60.9669 28.1608 62.1075 24.1954 63.4959C20.2273 64.8843 17.008 65.9956 17 65.9743C16.992 65.953 20.2033 64.8124 24.1687 63.4239C28.1342 62.0355 31.3561 60.9269 31.3614 60.9455H31.3641Z" fill="#E0E0E0"/>
<path d="M23.8287 66.0651C23.8287 66.0651 23.7488 66.1051 23.5969 66.1637C23.4317 66.225 23.2158 66.305 22.952 66.4036C22.4057 66.6008 21.6515 66.8699 20.8173 67.1631C19.9805 67.4562 19.2237 67.7174 18.6747 67.9013C18.4082 67.9892 18.1897 68.0612 18.0218 68.1171C17.8672 68.1651 17.782 68.1918 17.7793 68.1864C17.7793 68.1811 17.8592 68.1465 18.0111 68.0878C18.1764 68.0265 18.3922 67.9466 18.6561 67.848C19.2024 67.6508 19.9566 67.3816 20.7934 67.0885C21.6275 66.7953 22.387 66.5342 22.936 66.3503C23.2025 66.2623 23.421 66.1904 23.5889 66.1344C23.7435 66.0864 23.8287 66.0598 23.8314 66.0651H23.8287Z" fill="#E0E0E0"/>
<path d="M31.7078 61.9241C31.7158 61.9454 28.5046 63.086 24.5391 64.4744C20.571 65.8629 17.3518 66.9741 17.3438 66.9528C17.3358 66.9315 20.547 65.7909 24.5125 64.4025C28.4779 63.014 31.6998 61.9054 31.7052 61.9241H31.7078Z" fill="#E0E0E0"/>
<path d="M16.3129 71.7551L15.0125 72.2105C14.5375 72.3769 14.2872 72.8968 14.4536 73.3719L14.909 74.6723C15.0753 75.1473 15.5953 75.3976 16.0704 75.2312L17.3707 74.7758C17.8458 74.6095 18.0961 74.0895 17.9297 73.6144L17.4743 72.3141C17.3079 71.839 16.788 71.5887 16.3129 71.7551Z" fill="#EBEBEB"/>
<path d="M16.1534 73.9945C16.1348 73.9999 16.1108 73.9972 16.0948 73.9866L15.4979 73.6401C15.4632 73.6188 15.4499 73.5735 15.4712 73.5388C15.4925 73.5042 15.5378 73.4909 15.5725 73.5122L16.0975 73.816L16.7264 72.4702C16.7451 72.4329 16.7877 72.4169 16.825 72.4356C16.8623 72.4542 16.8783 72.4968 16.8596 72.5342L16.1961 73.9546C16.1881 73.9732 16.1721 73.9866 16.1534 73.9945Z" fill="white"/>
<path d="M33.2215 66.2453C33.2295 66.2667 30.0182 67.4073 26.0528 68.7957C22.0847 70.1841 18.8654 71.2954 18.8574 71.2741C18.8494 71.2528 22.0607 70.1122 26.0261 68.7238C29.9916 67.3353 33.2135 66.2267 33.2188 66.2453H33.2215Z" fill="#E0E0E0"/>
<path d="M25.6842 71.3679C25.6842 71.3679 25.6043 71.4078 25.4524 71.4665C25.2871 71.5278 25.0713 71.6077 24.8074 71.7063C24.2611 71.9035 23.5069 72.1727 22.6728 72.4658C21.836 72.759 21.0792 73.0201 20.5302 73.204C20.2637 73.292 20.0452 73.3639 19.8773 73.4199C19.7227 73.4678 19.6374 73.4945 19.6348 73.4892C19.6348 73.4838 19.7147 73.4492 19.8666 73.3906C20.0318 73.3293 20.2477 73.2493 20.5115 73.1507C21.0578 72.9535 21.812 72.6844 22.6488 72.3912C23.483 72.0981 24.2425 71.8369 24.7914 71.653C25.0579 71.5651 25.2765 71.4931 25.4444 71.4372C25.5989 71.3892 25.6842 71.3625 25.6869 71.3679H25.6842Z" fill="#E0E0E0"/>
<path d="M33.5653 67.2258C33.5733 67.2471 30.362 68.3877 26.3965 69.7762C22.4284 71.1646 19.2092 72.2759 19.2012 72.2546C19.1932 72.2333 22.4045 71.0927 26.3699 69.7042C30.3353 68.3158 33.5573 67.2072 33.5626 67.2258H33.5653Z" fill="#E0E0E0"/>
<path d="M5.09375 44.449L5.74666 46.3118C6.12509 47.3938 7.30832 47.9614 8.39029 47.583L22.0615 42.7967C23.1435 42.4183 23.7111 41.2351 23.3327 40.1531L22.6824 38.293L5.09642 44.4463L5.09375 44.449Z" fill="#E0E0E0"/>
<path d="M14.0682 41.9223C13.0556 42.2767 11.9443 41.7411 11.5898 40.7284C11.2354 39.7157 11.771 38.6044 12.7837 38.25C13.7964 37.8956 14.9077 38.4312 15.2621 39.4439C15.6166 40.4566 15.0809 41.5679 14.0682 41.9223ZM13.0289 38.9562C12.4053 39.1747 12.0749 39.8596 12.2934 40.4832C12.5119 41.1068 13.1968 41.4373 13.8204 41.2187C14.444 41.0002 14.7744 40.3153 14.5559 39.6917C14.3374 39.0681 13.6525 38.7377 13.0289 38.9562Z" fill="#E0E0E0"/>
<path d="M24.9946 46.7566C25.0079 46.7912 21.4023 48.0864 16.9438 49.648C12.4853 51.2097 8.86102 52.4462 8.84769 52.4116C8.83437 52.3769 12.44 51.0818 16.8985 49.5201C21.357 47.9585 24.9813 46.7219 24.9946 46.7566Z" fill="#E0E0E0"/>
<path d="M20.3802 47.4176C20.3936 47.4523 18.8053 48.0412 16.8359 48.7314C14.8665 49.4217 13.2595 49.952 13.2462 49.9173C13.2329 49.8827 14.8212 49.2937 16.7906 48.6035C18.76 47.9133 20.3669 47.383 20.3802 47.4176Z" fill="#E0E0E0"/>
<path d="M91.3991 101.42C92.3558 100.927 93.4831 100.863 94.5464 101.039C95.1167 101.132 95.7137 101.303 96.1001 101.732C96.4892 102.161 96.5611 102.915 96.1161 103.283C95.8496 103.502 95.4791 103.536 95.1354 103.531C94.3039 103.52 93.3818 103.374 92.7156 103.875C92.3372 104.16 92.084 104.634 91.631 104.775C91.1886 104.914 90.6876 104.65 90.4531 104.25C90.2185 103.851 90.2105 103.35 90.3198 102.899C90.3198 102.899 90.4344 101.916 91.3991 101.418V101.42Z" fill="#FEF2CA"/>
<path d="M89.2086 97.1858C89.7949 98.0226 90.9302 97.7454 91.4579 97.2338C91.9855 96.7248 92.2094 95.9839 92.4119 95.2777C92.8756 93.6654 93.342 91.9758 92.9982 90.3342C92.8943 89.8439 92.7104 89.3535 92.3666 88.9911C92.0228 88.626 91.4925 88.4101 91.0075 88.538C90.4345 88.6899 90.0774 89.2522 89.8189 89.7852C89.0621 91.3549 88.6597 93.0978 88.6543 94.8406C88.6517 95.6561 88.7476 96.5089 89.206 97.1805" fill="#FEF2CA"/>
<path d="M87.5993 98.3855C88.2336 97.6313 88.3562 96.5307 88.0737 95.5873C87.7912 94.6412 87.1516 93.8391 86.4161 93.1835C85.5527 92.4133 84.5373 91.8164 83.4473 91.4326C83.0183 91.2807 82.5652 91.1635 82.1122 91.2061C81.6592 91.2488 81.2035 91.4806 80.9929 91.883C80.6811 92.48 80.9796 93.2022 81.3047 93.7911C81.875 94.8305 82.5279 95.8245 83.2555 96.7599C83.8391 97.5141 84.508 98.2576 85.4008 98.596C86.2935 98.9345 87.2156 98.8972 87.6899 98.2789" fill="#FEF2CA"/>
<path d="M89.169 109.796C89.169 109.796 89.1983 109.66 89.2223 109.415C89.2489 109.138 89.2836 108.791 89.3236 108.378C89.3715 107.941 89.4355 107.424 89.5554 106.857C89.6753 106.292 89.8645 105.681 90.1071 105.063C90.3576 104.448 90.664 103.888 91.0238 103.44C91.3782 102.99 91.794 102.665 92.183 102.478C92.5695 102.286 92.9186 102.209 93.1584 102.174C93.4009 102.15 93.5368 102.129 93.5368 102.118C93.5368 102.108 93.4009 102.105 93.1531 102.113C92.9052 102.129 92.5455 102.193 92.1351 102.377C91.7247 102.558 91.285 102.889 90.9119 103.35C90.5361 103.808 90.219 104.378 89.9631 105.007C89.7153 105.639 89.5288 106.254 89.4142 106.83C89.2996 107.406 89.2463 107.931 89.2116 108.37C89.1797 108.81 89.1663 109.167 89.161 109.412C89.1557 109.658 89.1583 109.796 89.169 109.796Z" fill="#263238"/>
<path d="M89.2383 108.997C89.2383 108.997 89.2463 108.936 89.249 108.821C89.249 108.688 89.249 108.523 89.249 108.318C89.249 107.881 89.249 107.246 89.2703 106.466C89.3103 104.901 89.4435 103.22 89.7047 100.848C89.9498 98.6172 90.2803 96.0216 90.6294 94.3347C90.704 93.9509 90.7786 93.6045 90.8506 93.3033C90.9172 92.9995 90.9758 92.7384 91.0318 92.5278C91.0798 92.328 91.1198 92.1654 91.1491 92.0375C91.1731 91.9256 91.1864 91.8643 91.181 91.8643C91.1757 91.8643 91.1544 91.9202 91.1198 92.0295C91.0825 92.1574 91.0318 92.3173 90.9732 92.5118C90.9092 92.7224 90.8426 92.9809 90.7653 93.282C90.6854 93.5832 90.6028 93.9269 90.5201 94.3107C90.1764 95.8404 89.8086 97.9777 89.5474 100.355C89.2863 102.732 89.169 104.896 89.1584 106.463C89.1504 107.246 89.1663 107.881 89.185 108.318C89.1983 108.523 89.209 108.688 89.217 108.821C89.225 108.936 89.233 108.997 89.2383 108.997Z" fill="#263238"/>
<path d="M89.2502 104.824C89.2502 104.824 89.2582 104.637 89.2476 104.296C89.2289 103.958 89.181 103.47 89.0877 102.87C88.9864 102.273 88.8452 101.562 88.624 100.792C88.528 100.44 88.3015 99.5952 87.7552 98.332C87.0357 96.6211 86.055 95.2247 85.2022 94.3586C85.0023 94.1294 84.7811 93.9641 84.6026 93.8016C84.5093 93.7243 84.4294 93.647 84.3467 93.5857C84.2641 93.5271 84.1868 93.4738 84.1149 93.4258C83.8351 93.2339 83.6778 93.1327 83.6725 93.1433C83.6485 93.178 84.3014 93.5617 85.1249 94.4385C85.9457 95.3153 86.8971 96.7037 87.614 98.3986C88.0137 99.318 88.2909 100.139 88.4881 100.834C88.7173 101.599 88.8665 102.3 88.9811 102.892C89.0904 103.486 89.1516 103.968 89.1916 104.304C89.2236 104.64 89.2449 104.826 89.2556 104.826L89.2502 104.824Z" fill="#263238"/>
<path d="M85.2168 112.187L85.6325 117.916H92.9958L93.4142 112.187H85.2168Z" fill="#263238"/>
<path d="M94.2923 109.927H84.5039V112.187H94.2923V109.927Z" fill="#263238"/>
<path d="M84.5039 117.697V118.324H84.9623H94.1297V117.697H84.5039Z" fill="#455A64"/>
<path d="M85.4133 119.425L84.9629 118.324H93.7785L93.2535 119.425H85.4133Z" fill="#455A64"/>
<path d="M93.2761 114.06C93.2761 114.06 93.2654 114.079 93.2414 114.113C93.2121 114.153 93.1748 114.201 93.1321 114.26C93.0282 114.393 92.8843 114.577 92.7031 114.809L92.6844 114.833L92.6658 114.806C92.3966 114.433 92.0368 113.935 91.6131 113.348H91.6744C91.36 113.793 91.0108 114.286 90.6377 114.817L90.6058 114.862L90.5685 114.819C90.1847 114.364 89.769 113.871 89.3373 113.356H89.4092C89.3879 113.383 89.3639 113.412 89.3426 113.442C88.9615 113.919 88.5911 114.382 88.242 114.819L88.2047 114.865L88.17 114.817C87.7969 114.289 87.4478 113.793 87.1333 113.348H87.1946C86.683 113.935 86.2486 114.428 85.9155 114.806L85.8915 114.833L85.8755 114.803C85.7076 114.521 85.5717 114.294 85.4757 114.132C85.4331 114.06 85.4011 113.999 85.3718 113.953C85.3505 113.913 85.3398 113.889 85.3398 113.889C85.3398 113.889 85.3558 113.908 85.3825 113.945C85.4118 113.991 85.4491 114.047 85.4971 114.119C85.5983 114.278 85.7396 114.5 85.9181 114.78H85.8782C86.2059 114.393 86.6323 113.892 87.136 113.303L87.168 113.266L87.1973 113.306C87.5144 113.751 87.8689 114.241 88.2446 114.769H88.1753C88.5244 114.329 88.8922 113.865 89.2733 113.386C89.2973 113.356 89.3186 113.327 89.3399 113.3L89.3746 113.258L89.4119 113.3C89.8436 113.815 90.2567 114.31 90.6377 114.766H90.5685C90.9469 114.241 91.2987 113.748 91.6158 113.308L91.6478 113.266L91.6771 113.308C92.0928 113.9 92.4446 114.404 92.7084 114.782H92.6711C92.8603 114.556 93.0096 114.377 93.1162 114.247C93.1641 114.191 93.2041 114.145 93.2361 114.108C93.2627 114.076 93.2787 114.063 93.2814 114.063L93.2761 114.06Z" fill="#E0E0E0"/>
<path d="M93.5154 112.15C93.5154 112.176 91.6713 112.195 89.3954 112.195C87.1195 112.195 85.2754 112.174 85.2754 112.15C85.2754 112.126 87.1195 112.104 89.3954 112.104C91.6713 112.104 93.5154 112.126 93.5154 112.15Z" fill="#455A64"/>
<path d="M93.8878 118.385C93.8878 118.409 91.8838 118.43 89.4107 118.43C86.9376 118.43 84.9336 118.409 84.9336 118.385C84.9336 118.361 86.9376 118.34 89.4107 118.34C91.8838 118.34 93.8878 118.361 93.8878 118.385Z" fill="#263238"/>
<path d="M21.2709 100.104C21.2496 100.128 21.0817 100.029 20.8951 99.8774C20.7086 99.7281 20.5727 99.5869 20.594 99.5602C20.6153 99.5362 20.7832 99.6348 20.9698 99.7868C21.1563 99.936 21.2922 100.077 21.2709 100.104Z" fill="#263238"/>
<path d="M26.3757 92.4743C26.4076 91.7601 26.4263 91.0299 26.2024 90.353C25.9786 89.6761 25.4563 89.0525 24.7554 88.9086C23.9586 88.7433 23.1404 89.247 22.6927 89.9266C22.245 90.6061 22.0931 91.4349 21.9598 92.2371C21.0511 97.7748 20.7153 103.406 20.9605 109.013L24.2251 109.471C25.6588 103.614 26.1145 98.497 26.3757 92.4716V92.4743Z" fill="#455A64"/>
<path d="M24.3035 88.8818C24.3035 88.8818 24.3008 88.9005 24.2875 88.9351C24.2741 88.9751 24.2555 89.0231 24.2342 89.0844C24.1809 89.223 24.1089 89.4095 24.0156 89.6493C23.9703 89.7719 23.909 89.9052 23.8611 90.0571C23.8131 90.209 23.7598 90.3742 23.7038 90.5501C23.6479 90.7286 23.5866 90.9179 23.52 91.1177C23.4667 91.3229 23.4107 91.5388 23.3521 91.7653C23.1069 92.6687 22.9017 93.7694 22.7205 94.9952C22.5446 96.2238 22.4273 97.5829 22.3367 99.0113C22.1688 101.871 22.1449 104.466 22.0702 106.343C22.0356 107.281 22.0036 108.04 21.9663 108.565C21.9503 108.818 21.9343 109.021 21.9263 109.167C21.921 109.231 21.9157 109.282 21.913 109.325C21.9103 109.359 21.9077 109.378 21.905 109.378C21.905 109.378 21.9023 109.359 21.9023 109.325C21.9023 109.282 21.9023 109.231 21.9023 109.167C21.9077 109.018 21.913 108.818 21.921 108.562C21.9423 108.037 21.9636 107.278 21.9876 106.34C22.0409 104.464 22.0542 101.868 22.2195 99.0033C22.3101 97.5722 22.43 96.2104 22.6139 94.9792C22.8004 93.7507 23.0136 92.6501 23.2721 91.744C23.3334 91.5175 23.392 91.3016 23.448 91.0964C23.5146 90.8965 23.5813 90.7073 23.6399 90.5288C23.7012 90.3529 23.7571 90.1877 23.8078 90.0358C23.8584 89.8839 23.9224 89.7533 23.973 89.6307C24.0743 89.3962 24.1542 89.2096 24.2102 89.0737C24.2368 89.0151 24.2582 88.9698 24.2741 88.9298C24.2901 88.8978 24.2981 88.8818 24.3008 88.8818H24.3035Z" fill="#263238"/>
<path d="M24.6052 88.8842C24.6052 88.8842 24.8051 89.0894 25.005 89.5585C25.2102 90.0248 25.3381 90.7657 25.3034 91.6691C25.2155 93.4733 25.0556 95.957 24.8397 98.7019C24.6239 101.447 24.384 103.925 24.1921 105.719C24.0962 106.614 24.0136 107.339 23.9523 107.84C23.9203 108.083 23.8963 108.274 23.8777 108.416C23.8697 108.474 23.8617 108.525 23.8564 108.565C23.851 108.6 23.8457 108.616 23.8457 108.616C23.8457 108.616 23.8457 108.597 23.8457 108.565C23.8484 108.525 23.851 108.474 23.8564 108.413C23.8697 108.272 23.8857 108.077 23.9097 107.835C23.9576 107.323 24.0296 106.598 24.1149 105.708C24.2854 103.915 24.5119 101.433 24.7278 98.6886C24.941 95.9464 25.1169 93.4599 25.2235 91.6638C25.2688 90.7657 25.1569 90.0382 24.965 89.5718C24.7811 89.1028 24.5946 88.8869 24.6079 88.8789L24.6052 88.8842Z" fill="#263238"/>
<path d="M26.8668 97.3292C26.8561 97.3585 26.579 97.2892 26.2485 97.1693C25.9181 97.0493 25.6596 96.9294 25.6702 96.9001C25.6809 96.8708 25.9581 96.9427 26.2885 97.06C26.619 97.1799 26.8775 97.2998 26.8668 97.3292Z" fill="#263238"/>
<path d="M27.2615 94.0032C27.2748 94.0325 27.011 94.1791 26.6726 94.331C26.3341 94.4829 26.049 94.5815 26.0356 94.5522C26.0223 94.5229 26.2861 94.3763 26.6246 94.2244C26.963 94.0725 27.2482 93.9739 27.2615 94.0032Z" fill="#263238"/>
<path d="M27.0553 91.2912C27.0553 91.3232 26.8341 91.3338 26.5676 91.3152C26.3011 91.2965 26.0879 91.2565 26.0879 91.2246C26.0879 91.1926 26.3091 91.1819 26.5756 91.2006C26.8421 91.2192 27.0553 91.2592 27.0553 91.2912Z" fill="#263238"/>
<path d="M23.6879 89.5505C23.6613 89.5665 23.5174 89.3906 23.3681 89.1535C23.2189 88.9163 23.1203 88.7111 23.1469 88.6924C23.1736 88.6764 23.3175 88.8523 23.4667 89.0895C23.616 89.3267 23.7146 89.5319 23.6879 89.5505Z" fill="#263238"/>
<path d="M22.5771 91.1922C22.5771 91.2242 22.3692 91.2455 22.1134 91.2401C21.8575 91.2348 21.6523 91.2055 21.6523 91.1709C21.6523 91.1389 21.8602 91.1176 22.116 91.1229C22.3719 91.1282 22.5771 91.1575 22.5771 91.1922Z" fill="#263238"/>
<path d="M21.7769 94.4751C21.7636 94.5044 21.5477 94.4458 21.2892 94.3418C21.0307 94.2379 20.8335 94.1287 20.8442 94.0993C20.8575 94.07 21.0733 94.1287 21.3318 94.2326C21.5903 94.3365 21.7876 94.4458 21.7769 94.4751Z" fill="#263238"/>
<path d="M21.6915 97.239C21.6969 97.271 21.513 97.3349 21.2758 97.3855C21.0386 97.4362 20.8441 97.4495 20.8361 97.4175C20.8308 97.3855 21.0147 97.3216 21.2518 97.271C21.489 97.2203 21.6836 97.207 21.6915 97.239Z" fill="#263238"/>
<path d="M21.3149 101.756C21.3203 101.788 21.123 101.849 20.8752 101.894C20.6247 101.94 20.4195 101.95 20.4142 101.918C20.4088 101.886 20.606 101.825 20.8539 101.78C21.1017 101.734 21.3096 101.724 21.3149 101.756Z" fill="#263238"/>
<path d="M21.0653 104.251C21.0813 104.28 20.916 104.395 20.6975 104.512C20.479 104.626 20.2898 104.698 20.2765 104.669C20.2605 104.64 20.4257 104.525 20.6442 104.408C20.8628 104.293 21.052 104.221 21.0653 104.251Z" fill="#263238"/>
<path d="M23.1021 107.081C23.0754 107.097 22.9315 106.9 22.7823 106.639C22.633 106.377 22.5344 106.154 22.5638 106.138C22.5904 106.122 22.7343 106.319 22.8836 106.58C23.0328 106.841 23.1314 107.065 23.1021 107.081Z" fill="#263238"/>
<path d="M23.6894 102.377C23.7107 102.401 23.5535 102.593 23.3323 102.809C23.1137 103.025 22.9165 103.179 22.8926 103.158C22.8712 103.134 23.0285 102.942 23.2497 102.726C23.4682 102.51 23.6654 102.356 23.6894 102.377Z" fill="#263238"/>
<path d="M23.5594 99.9093C23.5354 99.9306 23.3888 99.8107 23.2289 99.6374C23.069 99.4642 22.9598 99.3096 22.9838 99.2857C23.0078 99.2643 23.1543 99.3843 23.3142 99.5575C23.4741 99.728 23.5834 99.8853 23.5594 99.9093Z" fill="#263238"/>
<path d="M23.9643 96.7539C23.9883 96.7753 23.8551 96.9645 23.6658 97.1723C23.4766 97.3829 23.3061 97.5348 23.2821 97.5135C23.2581 97.4921 23.3913 97.3029 23.5806 97.0951C23.7698 96.8845 23.9403 96.7326 23.9643 96.7539Z" fill="#263238"/>
<path d="M24.1908 94.4676C24.1695 94.4916 23.983 94.345 23.7751 94.1425C23.5672 93.9399 23.418 93.756 23.442 93.7321C23.4633 93.7081 23.6498 93.8547 23.8577 94.0572C24.0656 94.2597 24.2148 94.4436 24.1908 94.4676Z" fill="#263238"/>
<path d="M24.6387 91.3734C24.6654 91.3894 24.5721 91.5972 24.4309 91.8371C24.287 92.0769 24.151 92.2582 24.1217 92.2395C24.0951 92.2235 24.1884 92.0156 24.3296 91.7758C24.4735 91.536 24.6094 91.3547 24.6387 91.3734Z" fill="#263238"/>
<path d="M25.4776 88.5059C25.5069 88.5218 25.4243 88.7297 25.2937 88.9696C25.1631 89.2094 25.0352 89.3933 25.0059 89.3773C24.9766 89.3613 25.0592 89.1534 25.1898 88.9136C25.3204 88.6738 25.4483 88.4899 25.4776 88.5059Z" fill="#263238"/>
<path d="M26.4333 89.8087C26.4466 89.8381 26.3161 89.9287 26.1428 90.0139C25.9669 90.0966 25.815 90.1419 25.8017 90.1126C25.7884 90.0832 25.919 89.9926 26.0922 89.9073C26.2681 89.8247 26.42 89.7794 26.4333 89.8087Z" fill="#263238"/>
<path d="M26.4565 100.104C26.4511 100.133 26.1553 100.093 25.8169 99.9492C25.4811 99.8053 25.2466 99.6214 25.2626 99.5948C25.2812 99.5655 25.5371 99.704 25.8622 99.8426C26.1873 99.9812 26.4618 100.072 26.4538 100.104H26.4565Z" fill="#263238"/>
<path d="M26.0649 102.286C26.0703 102.318 25.8757 102.382 25.6252 102.43C25.3774 102.478 25.1695 102.491 25.1642 102.459C25.1588 102.427 25.3534 102.363 25.6039 102.315C25.8517 102.267 26.0596 102.254 26.0649 102.286Z" fill="#263238"/>
<path d="M25.5868 106.025C25.5681 106.049 25.3176 105.879 25.0911 105.588C24.8619 105.3 24.7527 105.018 24.7793 105.005C24.8086 104.989 24.9605 105.236 25.1817 105.516C25.4003 105.796 25.6081 105.999 25.5868 106.025Z" fill="#263238"/>
<path d="M20.3401 107.736C20.3188 107.712 20.4521 107.563 20.6359 107.406C20.8198 107.249 20.9877 107.139 21.009 107.163C21.0304 107.187 20.8971 107.337 20.7132 107.494C20.5293 107.651 20.3615 107.76 20.3401 107.736Z" fill="#263238"/>
<path d="M18.833 99.5731C18.6198 98.9095 18.2227 98.1367 17.5245 98.126C17.1114 98.1207 16.7383 98.4165 16.5465 98.7816C16.3519 99.1467 16.2693 99.5705 16.2826 99.9835C16.3626 102.712 16.8343 105.833 17.7803 108.677H20.328C20.296 105.519 19.7977 102.582 18.8357 99.5758L18.833 99.5731Z" fill="#455A64"/>
<path d="M14.2257 95.398C13.8686 93.9723 12.808 93.2048 11.5741 93.1328C10.4468 93.33 10.0098 94.4386 9.87653 95.5739C9.74328 96.7092 10.0951 97.8391 10.4442 98.9291C11.5634 102.425 12.6801 105.922 13.7993 109.421C14.8547 109.306 15.9126 109.189 16.968 109.075C15.9659 104.39 15.3876 100.046 14.2257 95.398Z" fill="#455A64"/>
<path d="M17.5278 98.1257C17.5278 98.1257 17.4239 98.2403 17.312 98.4855C17.2027 98.7333 17.1494 99.1277 17.192 99.6128C17.2427 100.098 17.296 100.681 17.3786 101.318C17.4612 101.958 17.5758 102.659 17.7197 103.392C18.0075 104.855 18.3326 106.169 18.5378 107.125C18.6418 107.605 18.7217 107.991 18.7697 108.261C18.791 108.386 18.8097 108.487 18.823 108.572C18.8336 108.644 18.839 108.682 18.8336 108.682C18.8283 108.682 18.8177 108.647 18.799 108.578C18.7777 108.495 18.7537 108.394 18.7244 108.271C18.6578 107.986 18.5671 107.608 18.4552 107.144C18.2287 106.193 17.8903 104.881 17.6024 103.413C17.4585 102.68 17.3466 101.974 17.2693 101.332C17.2293 101.009 17.2027 100.703 17.176 100.415C17.1521 100.13 17.1227 99.8633 17.1068 99.6154C17.0721 99.1251 17.1387 98.7147 17.2667 98.4642C17.3946 98.2163 17.5225 98.123 17.5225 98.123L17.5278 98.1257Z" fill="#263238"/>
<path d="M11.618 93.0417C11.618 93.0417 11.4501 93.2016 11.2343 93.5561C11.0211 93.9052 10.7945 94.4755 10.7519 95.2137C10.7039 95.9519 10.8692 96.826 11.1437 97.7667C11.4208 98.7101 11.7273 99.7441 12.0471 100.831C12.6787 103.003 13.2516 104.97 13.67 106.409C13.8699 107.115 14.0325 107.691 14.1497 108.104C14.2004 108.296 14.243 108.45 14.275 108.565C14.3016 108.672 14.3149 108.728 14.3096 108.728C14.307 108.728 14.2856 108.674 14.251 108.57C14.2137 108.456 14.1657 108.304 14.1044 108.115C13.9792 107.704 13.8033 107.134 13.5901 106.43C13.1637 104.994 12.5801 103.033 11.9351 100.863C11.618 99.7761 11.3142 98.7394 11.0397 97.7933C10.7679 96.8499 10.608 95.9572 10.6693 95.2057C10.7226 94.4542 10.9651 93.8759 11.1943 93.5294C11.4235 93.1776 11.6154 93.0391 11.6154 93.0391L11.618 93.0417Z" fill="#263238"/>
<path d="M16.2746 108.735C16.2746 108.735 16.2453 108.685 16.2027 108.583C16.16 108.482 16.0934 108.333 16.0215 108.138C15.8696 107.749 15.6777 107.176 15.4752 106.454C15.2726 105.735 15.0754 104.866 14.8835 103.899C14.6997 102.928 14.4971 101.862 14.2866 100.746C14.0654 99.6293 13.8202 98.5739 13.5351 97.6306C13.2499 96.6872 12.9328 95.8584 12.6103 95.1895C12.2905 94.5179 11.9841 93.9982 11.7549 93.6491C11.6456 93.4706 11.547 93.3427 11.4884 93.2494C11.4271 93.1588 11.3978 93.1081 11.4004 93.1055C11.4031 93.1055 11.4404 93.1481 11.507 93.2334C11.571 93.3213 11.6776 93.4466 11.7922 93.6198C12.0347 93.9609 12.3518 94.4779 12.6823 95.1495C13.0154 95.8211 13.3432 96.6499 13.6337 97.5959C13.9268 98.542 14.1747 99.6 14.3958 100.719C14.6037 101.839 14.8036 102.904 14.9848 103.875C15.1713 104.842 15.3579 105.711 15.5498 106.43C15.739 107.15 15.9202 107.725 16.0588 108.12C16.1227 108.317 16.184 108.469 16.2187 108.573C16.256 108.677 16.272 108.733 16.2693 108.733L16.2746 108.735Z" fill="#263238"/>
<path d="M10.499 98.4063C10.507 98.4383 10.3337 98.5076 10.1126 98.5609C9.89136 98.6142 9.70748 98.6328 9.69948 98.6009C9.69149 98.5689 9.86471 98.4996 10.0859 98.4463C10.3071 98.393 10.491 98.3743 10.499 98.4063Z" fill="#263238"/>
<path d="M10.1639 96.2419C10.1639 96.2739 9.9214 96.2872 9.62825 96.3005C9.33511 96.3112 9.09526 96.3165 9.08993 96.2846C9.0846 96.2526 9.32445 96.194 9.62292 96.1833C9.9214 96.17 10.1639 96.2099 10.1612 96.2419H10.1639Z" fill="#263238"/>
<path d="M10.5212 94.267C10.4999 94.291 10.3293 94.1791 10.1375 94.0165C9.94559 93.8539 9.80702 93.702 9.82834 93.678C9.84966 93.6541 10.0202 93.766 10.2121 93.9285C10.404 94.0911 10.5425 94.243 10.5212 94.267Z" fill="#263238"/>
<path d="M11.4893 92.4368C11.5213 92.4448 11.5133 92.5994 11.508 92.7833C11.5026 92.9698 11.5026 93.1244 11.4707 93.1297C11.4387 93.135 11.3854 92.9805 11.3934 92.7806C11.3987 92.5807 11.46 92.4288 11.492 92.4368H11.4893Z" fill="#263238"/>
<path d="M13.4633 93.2997C13.4899 93.3183 13.4126 93.4755 13.29 93.6488C13.1675 93.822 13.0475 93.9499 13.0209 93.9313C12.9942 93.9126 13.0715 93.7554 13.1941 93.5821C13.3167 93.4089 13.4366 93.281 13.4633 93.2997Z" fill="#263238"/>
<path d="M14.7477 95.5275C14.761 95.5568 14.5958 95.6527 14.3799 95.7407C14.164 95.8286 13.9802 95.8739 13.9695 95.8446C13.9562 95.8153 14.1214 95.7193 14.3373 95.6314C14.5531 95.5434 14.737 95.4981 14.7477 95.5275Z" fill="#263238"/>
<path d="M15.5231 97.82C15.5364 97.8493 15.3179 97.9719 15.0194 98.0385C14.721 98.1078 14.4731 98.0891 14.4705 98.0571C14.4705 98.0252 14.7076 97.9905 14.9928 97.9239C15.2779 97.8599 15.5071 97.788 15.5205 97.8173L15.5231 97.82Z" fill="#263238"/>
<path d="M11.9517 97.1697C11.9198 97.159 11.9438 97.0018 12.0024 96.8152C12.061 96.6287 12.133 96.4874 12.1623 96.4954C12.1943 96.5061 12.1703 96.6633 12.1116 96.8499C12.053 97.0364 11.9811 97.1777 11.9517 97.1697Z" fill="#263238"/>
<path d="M12.4505 100.045C12.4212 100.032 12.4851 99.8189 12.5944 99.5684C12.7036 99.3179 12.8156 99.126 12.8449 99.1393C12.8742 99.1527 12.8102 99.3658 12.701 99.6163C12.5917 99.8669 12.4798 100.059 12.4505 100.045Z" fill="#263238"/>
<path d="M11.2197 100.833C11.2064 100.863 11.0065 100.809 10.764 100.732C10.5215 100.655 10.3243 100.585 10.3323 100.553C10.3376 100.521 10.5508 100.543 10.7986 100.62C11.0465 100.697 11.233 100.801 11.2197 100.831V100.833Z" fill="#263238"/>
<path d="M11.9299 103.179C11.9485 103.205 11.8126 103.333 11.626 103.467C11.4395 103.6 11.2743 103.685 11.2556 103.658C11.237 103.632 11.3729 103.504 11.5594 103.371C11.746 103.237 11.9112 103.152 11.9299 103.179Z" fill="#263238"/>
<path d="M12.4991 105.518C12.5071 105.55 12.3392 105.617 12.1234 105.67C11.9075 105.724 11.729 105.74 11.721 105.708C11.713 105.676 11.8809 105.609 12.0967 105.556C12.3126 105.502 12.4911 105.486 12.4991 105.518Z" fill="#263238"/>
<path d="M15.5885 99.7737C15.6044 99.8004 15.4605 99.915 15.2527 99.9949C15.0448 100.075 14.8609 100.083 14.8556 100.051C14.8503 100.019 15.0128 99.9603 15.2127 99.8857C15.4126 99.811 15.5751 99.7471 15.5911 99.7737H15.5885Z" fill="#263238"/>
<path d="M16.0295 103.413C16.0161 103.443 15.8456 103.392 15.6484 103.299C15.4512 103.206 15.3019 103.107 15.3153 103.078C15.3286 103.048 15.4991 103.099 15.6963 103.192C15.8935 103.286 16.0428 103.384 16.0295 103.413Z" fill="#263238"/>
<path d="M16.8091 106.017C16.7984 106.046 16.5719 105.987 16.3054 105.881C16.0389 105.777 15.831 105.668 15.8444 105.638C15.855 105.609 16.0815 105.668 16.348 105.774C16.6145 105.878 16.8224 105.987 16.8091 106.017Z" fill="#263238"/>
<path d="M12.6239 108.056C12.6079 108.026 12.8158 107.888 13.0556 107.696C13.2955 107.507 13.482 107.339 13.506 107.36C13.53 107.382 13.3781 107.592 13.1276 107.787C12.8771 107.984 12.6372 108.082 12.6239 108.053V108.056Z" fill="#263238"/>
<path d="M14.6829 106.734C14.6509 106.737 14.6056 106.563 14.5257 106.358C14.4484 106.153 14.3631 105.996 14.3897 105.974C14.4137 105.956 14.5496 106.094 14.6349 106.315C14.7202 106.534 14.7149 106.729 14.6829 106.731V106.734Z" fill="#263238"/>
<path d="M14.1366 103.6C14.1179 103.627 13.9847 103.563 13.8408 103.459C13.6942 103.355 13.5929 103.249 13.6116 103.222C13.6302 103.195 13.7635 103.259 13.9074 103.363C14.054 103.467 14.1552 103.574 14.1366 103.6Z" fill="#263238"/>
<path d="M18.9372 98.6943C18.9559 98.721 18.8279 98.8489 18.6467 98.9795C18.4682 99.1127 18.3083 99.198 18.287 99.1714C18.2683 99.1447 18.3962 99.0168 18.5774 98.8862C18.756 98.753 18.9159 98.6677 18.9372 98.6943Z" fill="#263238"/>
<path d="M19.6597 100.672C19.6624 100.704 19.4598 100.746 19.2093 100.717C18.9588 100.69 18.7696 100.605 18.7776 100.576C18.7882 100.544 18.9828 100.576 19.22 100.603C19.4598 100.629 19.657 100.64 19.657 100.672H19.6597Z" fill="#263238"/>
<path d="M16.5515 101.113C16.5595 101.145 16.3703 101.212 16.1278 101.228C15.8853 101.244 15.6907 101.204 15.6934 101.172C15.6934 101.14 15.8879 101.129 16.1198 101.113C16.3516 101.097 16.5435 101.084 16.5515 101.113Z" fill="#263238"/>
<path d="M16.818 99.2429C16.818 99.2749 16.6261 99.2776 16.4183 99.1816C16.2104 99.0857 16.0905 98.9391 16.1118 98.9178C16.1331 98.8938 16.277 98.9898 16.4663 99.075C16.6555 99.163 16.8207 99.2083 16.818 99.2403V99.2429Z" fill="#263238"/>
<path d="M19.9257 102.793C19.9097 102.82 19.7152 102.729 19.4913 102.588C19.2675 102.447 19.1023 102.313 19.1183 102.284C19.1342 102.257 19.3288 102.348 19.5526 102.489C19.7765 102.63 19.9417 102.764 19.9257 102.793Z" fill="#263238"/>
<path d="M27.5131 108.344H10.9238V111.283H27.5131V108.344Z" fill="#FEF2CA"/>
<path d="M12.1641 110.699L14.1814 119.486H24.0684L26.2776 110.699H12.1641Z" fill="#FEF2CA"/>
<path d="M27.5056 111.286C27.5056 111.318 23.764 111.345 19.1483 111.345C14.5326 111.345 10.791 111.318 10.791 111.286C10.791 111.254 14.5326 111.228 19.1483 111.228C23.764 111.228 27.5056 111.254 27.5056 111.286Z" fill="#263238"/>
<path d="M18.2787 101.178C18.252 101.194 18.1374 101.063 18.0255 100.882C17.9136 100.701 17.8443 100.541 17.8709 100.525C17.8976 100.509 18.0122 100.639 18.1241 100.821C18.236 101.002 18.3053 101.162 18.2787 101.178Z" fill="#263238"/>
<path d="M18.2834 103.544C18.2541 103.533 18.2914 103.334 18.3713 103.096C18.4486 102.859 18.5392 102.675 18.5685 102.686C18.5978 102.697 18.5605 102.897 18.4806 103.134C18.4033 103.371 18.3127 103.555 18.2834 103.544Z" fill="#263238"/>
<path d="M19.0946 106.028C19.0652 106.041 18.9426 105.844 18.8174 105.585C18.6948 105.327 18.6175 105.106 18.6468 105.092C18.6762 105.079 18.7987 105.276 18.924 105.535C19.0466 105.793 19.1239 106.015 19.0946 106.028Z" fill="#263238"/>
<path d="M17.3434 108.027C17.3195 108.005 17.4181 107.851 17.5646 107.683C17.7112 107.515 17.8498 107.395 17.8738 107.417C17.8977 107.438 17.7991 107.592 17.6526 107.76C17.506 107.928 17.3674 108.048 17.3434 108.027Z" fill="#263238"/>
<path d="M16.9743 104.397C16.9689 104.428 16.809 104.426 16.6172 104.394C16.4253 104.359 16.2761 104.306 16.2814 104.277C16.2867 104.245 16.4466 104.247 16.6385 104.279C16.8304 104.314 16.9796 104.367 16.9743 104.397Z" fill="#263238"/>
<path d="M74.6915 88.1348H35.3516V119.507H74.6915V88.1348Z" fill="#E0E0E0"/>
<g opacity="0.3">
<path d="M38.2156 88.2018C42.8472 89.854 47.9559 90.2058 52.9261 90.2991C53.9547 90.3177 54.9967 90.3177 55.9934 90.5762C56.9901 90.8347 57.9548 91.3944 58.4665 92.2871C59.0235 93.2598 58.9649 94.4777 58.6477 95.5517C58.3306 96.6257 57.7843 97.617 57.3872 98.667C56.6916 100.506 56.4758 102.526 56.7663 104.469C56.8889 105.295 57.11 106.126 57.5871 106.814C58.0641 107.499 58.8343 108.021 59.6711 108.034C61.1661 108.056 62.1894 106.587 62.9303 105.287C65.971 99.9595 69.2596 93.9048 71.205 88.0898L38.2129 88.1991L38.2156 88.2018Z" fill="black"/>
</g>
<path d="M48.7568 119.339C48.7195 119.339 48.6875 112.386 48.6875 103.811C48.6875 95.2348 48.7195 88.2793 48.7568 88.2793C48.7941 88.2793 48.8261 95.2321 48.8261 103.811C48.8261 112.389 48.7941 119.339 48.7568 119.339Z" fill="#455A64"/>
<path d="M64.876 64.9495C64.7587 64.1687 62.4216 61.581 62.4216 61.581C62.4216 61.581 61.2516 56.8881 60.9025 55.5049C60.8146 55.1585 60.628 54.7668 60.3935 54.3723C59.5781 52.9892 58.3815 51.8673 56.9797 51.0785L53.7445 49.2583L52.969 47.5368L45.1953 43.542L43.0873 47.2623C43.0873 47.2623 37.968 48.8905 37.2911 50.0525C36.6142 51.2144 37.6269 66.7883 37.6269 66.7883C37.6269 66.7883 35.4842 75.7746 35.0312 77.6347C34.5808 79.4948 35.1778 81.7121 35.1778 81.7121L38.9913 76.9258C40.1772 75.4388 42.7782 74.7565 44.6463 74.7832L60.6121 74.8525L59.9778 70.3807L72.8868 72.8911C72.8868 72.8911 75.1094 68.5605 75.2826 68.4726C75.4585 68.3847 64.8786 64.9495 64.8786 64.9495H64.876Z" fill="#FEF2CA"/>
<path d="M44.8622 48.7225C44.7503 48.6079 45.7656 52.0351 47.0368 55.5235C47.7217 57.4023 48.0655 59.3956 48.0655 61.405V74.0369L55.7219 73.5172L54.5786 65.1972C54.5786 65.1972 53.6459 59.83 53.3847 57.7887C53.1449 55.9206 52.3241 50.8518 52.3241 50.8518C52.3241 50.8518 48.0681 51.9924 44.8649 48.7279L44.8622 48.7225Z" fill="white"/>
<path d="M61.8485 68.0885C61.8485 68.0885 61.8378 68.0192 61.8485 67.8966C61.8591 67.774 61.8885 67.5955 61.9498 67.3823C62.067 66.9559 62.3415 66.3829 62.8239 65.8979C63.3089 65.4129 63.8818 65.1384 64.3082 65.0185C64.5214 64.9572 64.7 64.9278 64.8226 64.9172C64.9452 64.9065 65.0144 64.9092 65.0144 64.9172C65.0171 64.9412 64.7453 64.9705 64.3375 65.1117C63.9298 65.2503 63.3862 65.5275 62.9225 65.9938C62.4588 66.4602 62.1816 67.0038 62.043 67.4116C61.9018 67.822 61.8725 68.0911 61.8485 68.0885Z" fill="#263238"/>
<path d="M62.2426 65.0588C62.2266 65.0295 62.7276 64.7736 63.4125 64.7203C64.0947 64.6617 64.633 64.8296 64.6197 64.8642C64.6117 64.9069 64.0787 64.8029 63.4231 64.8589C62.7676 64.9095 62.2585 65.0987 62.2426 65.0588Z" fill="#263238"/>
<g opacity="0.3">
<path d="M36.855 71.9502L36.1914 72.7044C36.9029 73.5332 37.8277 74.2261 38.8883 74.4872C39.949 74.7484 41.0496 74.7777 42.1422 74.783C42.5846 74.783 43.0323 74.7804 43.4587 74.6578C43.8904 74.5325 44.2955 74.2874 44.7459 74.2607C45.047 74.2421 45.3428 74.3247 45.6387 74.3886C45.9345 74.4526 46.2463 74.4952 46.5341 74.402C46.8219 74.3087 47.0724 74.0422 47.0537 73.741C43.7332 72.771 40.3061 72.1714 36.855 71.9502Z" fill="black"/>
</g>
<path d="M58.7062 72.9174L56.8275 70.9214L52.9633 69.9434C52.9633 69.9434 49.4216 71.004 49.3389 71.0013C49.2537 70.9987 46.2583 70.1832 46.2583 70.1832L45.2109 74.0234L50.6075 74.3938L56.7688 74.146C56.7688 74.146 57.0913 73.8475 56.8994 73.6423C56.7102 73.4371 57.9307 73.9888 58.0746 73.9941C58.2159 73.9994 58.4984 74.1113 58.6876 73.8822C58.8182 73.7249 58.9941 73.2212 58.7062 72.9174Z" fill="#FFBE9D"/>
<path d="M56.9031 73.6427C56.8951 73.6613 56.6633 73.5867 56.2902 73.4668C55.9144 73.3469 55.3974 73.1896 54.8191 73.0404C54.2382 72.8912 53.7078 72.7819 53.3241 72.7046C52.9377 72.6273 52.7005 72.5794 52.7031 72.5607C52.7031 72.5421 52.951 72.5554 53.3401 72.6087C53.7318 72.662 54.2701 72.7579 54.8538 72.9071C55.4374 73.0564 55.9571 73.2323 56.3248 73.3762C56.6926 73.5201 56.9138 73.6267 56.9058 73.6427H56.9031Z" fill="#EB996E"/>
<path d="M58.7067 72.9172C58.6987 72.9358 58.3762 72.8159 57.8486 72.64C57.3236 72.4615 56.588 72.2456 55.7699 72.0164C54.9544 71.7739 54.2269 71.5314 53.6752 71.4994C53.1263 71.4541 52.7905 71.5607 52.7852 71.5341C52.7852 71.5261 52.8624 71.4941 53.017 71.4568C53.1689 71.4195 53.3981 71.3928 53.6806 71.4008C54.2509 71.4088 54.9997 71.6433 55.8072 71.8832C56.6253 72.1124 57.3609 72.3442 57.8805 72.5468C58.1417 72.6454 58.3496 72.736 58.4908 72.7999C58.6321 72.8639 58.7093 72.9065 58.704 72.9145L58.7067 72.9172Z" fill="#EB996E"/>
<path d="M37.2884 50.0498C37.2884 50.0498 34.5035 51.9872 33.8266 54.7748C33.1498 57.565 30.213 68.9523 30.8153 70.6579C31.4175 72.3634 43.13 74.0343 43.13 74.0343L44.5184 68.1795L38.5703 66.5512C38.5703 66.5512 38.6449 61.128 38.7195 58.8814C38.7941 56.6349 37.2884 50.0498 37.2884 50.0498Z" fill="#FEF2CA"/>
<path d="M44.4376 69.0537L46.3537 69.5254L45.2025 73.9466L43.3184 73.6428L44.4376 69.0537Z" fill="white"/>
<path d="M30.77 70.0581C30.77 70.0581 30.7646 70.1567 30.7993 70.3352C30.8366 70.5111 30.9512 70.767 31.207 70.9988C31.716 71.4732 32.6887 71.8676 33.9199 72.0888H33.9253H33.9306C34.4929 72.2727 35.1351 72.4219 35.8227 72.5765C36.5103 72.731 37.2484 72.8883 38.0266 73.0455C39.5856 73.3653 41.3098 73.6984 43.1353 74.0422L43.0554 74.0928C43.1886 73.5492 43.3272 72.9762 43.4684 72.3926C43.7962 71.0495 44.116 69.7463 44.4172 68.5124L44.4651 68.5924C42.4984 68.0301 40.7022 67.5184 39.1805 67.084H39.1779H39.1752C38.3677 66.7536 37.5656 66.6336 36.87 66.6816C36.1718 66.7136 35.5855 66.9001 35.1298 67.0893C34.6741 67.2839 34.349 67.4971 34.1305 67.6436C34.0292 67.7183 33.9492 67.7742 33.8879 67.8195C33.832 67.8595 33.8027 67.8782 33.8027 67.8755C33.8027 67.8755 33.8267 67.8488 33.8773 67.8062C33.9306 67.7636 34.0052 67.6969 34.1118 67.617C34.325 67.4624 34.6475 67.2386 35.1058 67.0334C35.5615 66.8335 36.1532 66.6336 36.8647 66.5937C37.5709 66.5377 38.3917 66.6523 39.2178 66.9827H39.2125C40.7395 67.4091 42.5357 67.9128 44.5051 68.4645L44.5664 68.4831L44.5504 68.5471C44.2493 69.7809 43.9321 71.0841 43.607 72.4272C43.4658 73.0082 43.3245 73.5838 43.1913 74.1275L43.1753 74.1914L43.1113 74.1781C41.2832 73.8343 39.559 73.4932 38.0026 73.1681C37.2245 73.0055 36.4863 72.843 35.7987 72.6857C35.1112 72.5258 34.4742 72.3739 33.9013 72.1794H33.9093C32.6621 71.9449 31.6894 71.5345 31.175 71.0361C30.9165 70.791 30.8073 70.5218 30.7753 70.3379C30.7486 70.154 30.7753 70.0581 30.7753 70.0581H30.77Z" fill="#263238"/>
<path d="M38.8903 66.9427C38.8743 66.9613 38.6744 66.7774 38.3173 66.5376C37.9602 66.2977 37.4326 66.0153 36.8063 65.8314C36.1774 65.6502 35.5804 65.6049 35.1514 65.6155C34.7223 65.6262 34.4558 65.6715 34.4531 65.6502C34.4505 65.6368 34.709 65.5542 35.1487 65.5196C35.5857 65.4823 36.2014 65.5142 36.8463 65.7008C37.4912 65.89 38.0268 66.1938 38.376 66.4603C38.7251 66.7268 38.9009 66.9347 38.8903 66.9453V66.9427Z" fill="#263238"/>
<path d="M39.6713 57.4031C39.6713 57.4031 39.6819 57.531 39.674 57.7602C39.6686 57.9893 39.65 58.3225 39.618 58.7302C39.5514 59.5483 39.4314 60.6783 39.2156 61.9122C39.005 63.1487 38.7359 64.2546 38.4774 65.0355C38.4108 65.23 38.3441 65.4059 38.2882 65.5578C38.2242 65.7017 38.1683 65.8296 38.1176 65.9416C38.0084 66.1441 37.9444 66.2534 37.9364 66.2507C37.9284 66.2454 37.9764 66.1281 38.0697 65.9202C38.1123 65.8056 38.1629 65.6751 38.2162 65.5311C38.2669 65.3766 38.3255 65.2034 38.3841 65.0062C38.6186 64.2227 38.8691 63.1194 39.0797 61.8882C39.2929 60.657 39.4288 59.535 39.5194 58.7195C39.5594 58.3331 39.594 58.0107 39.6207 57.7548C39.6446 57.5256 39.6606 57.4004 39.6713 57.4004V57.4031Z" fill="#263238"/>
<path d="M46.4609 54.3798C46.4609 54.3798 46.4342 54.3079 46.3676 54.1826C46.301 54.06 46.1837 53.8868 45.9678 53.7456C45.7573 53.607 45.4349 53.5057 45.1017 53.6177C44.7739 53.7243 44.4515 54.0307 44.3715 54.4465L44.3342 54.6357L44.2516 54.4598C43.9718 53.8548 43.684 53.1593 43.4361 52.4024C42.9858 51.03 42.7912 49.7162 42.8339 48.7675C42.8339 48.5303 42.8658 48.3171 42.8818 48.1305C42.9138 47.944 42.9378 47.7841 42.9671 47.6562C43.0337 47.4003 43.0764 47.2591 43.0844 47.2618C43.119 47.2671 42.9271 47.8294 42.9325 48.7701C42.9165 49.7055 43.1217 51.0007 43.5694 52.3598C43.8146 53.1087 44.0944 53.8042 44.3662 54.4065L44.2463 54.4198C44.3449 53.9534 44.7073 53.6257 45.0698 53.5164C45.4428 53.4018 45.7946 53.5217 46.0105 53.6816C46.2343 53.8415 46.3489 54.0334 46.4049 54.164C46.4315 54.2306 46.4502 54.2839 46.4555 54.3212C46.4635 54.3585 46.4662 54.3772 46.4609 54.3772V54.3798Z" fill="#263238"/>
<path d="M52.9578 54.9804C52.9578 54.9804 52.9312 54.8684 52.8965 54.6632C52.8672 54.458 52.8006 54.1569 52.8406 53.7705C52.8939 53.392 53.0724 52.931 53.4828 52.5899C53.6854 52.422 53.9625 52.3101 54.2583 52.3127C54.5488 52.3127 54.8659 52.4247 55.0738 52.6778L54.9565 52.7445C54.8766 52.5393 54.7913 52.3261 54.7034 52.1075C54.205 50.8523 53.7626 49.7117 53.4508 48.8856C53.3043 48.4912 53.1817 48.1607 53.0857 47.9049C53.0031 47.6731 52.9605 47.5425 52.9685 47.5372C52.9765 47.5345 53.0351 47.6571 53.1364 47.8836C53.243 48.1368 53.3789 48.4619 53.5414 48.851C53.8799 49.6691 54.3356 50.8017 54.8339 52.0596C54.9192 52.2781 55.0045 52.4913 55.0844 52.6965L55.247 53.1069L54.9672 52.7631C54.794 52.5499 54.5168 52.446 54.2583 52.4433C53.9945 52.4407 53.7493 52.5339 53.5601 52.6858C53.179 52.9896 52.9925 53.4294 52.9338 53.7838C52.8832 54.1489 52.9338 54.4527 52.9498 54.6579C52.9685 54.8658 52.9711 54.9804 52.9632 54.9804H52.9578Z" fill="#263238"/>
<path d="M57.9022 55.6413C57.9395 55.636 58.5418 59.6867 59.248 64.6888C59.9542 69.6936 60.4925 73.7523 60.4552 73.7577C60.4179 73.763 59.8156 69.7123 59.1094 64.7075C58.4059 59.7054 57.8649 55.644 57.9022 55.6387V55.6413Z" fill="#263238"/>
<g opacity="0.3">
<path d="M43.5195 52.4482C43.5515 53.4822 43.778 54.5109 44.1831 55.457C44.4736 55.0999 44.796 54.7188 45.2358 54.6148C45.7874 54.4843 46.3417 54.8227 46.7415 55.2358C46.6562 54.8227 46.5176 54.4123 46.2618 54.0872C46.0059 53.7594 45.6142 53.5249 45.2064 53.5355C44.7987 53.5462 44.391 53.8473 44.3163 54.2604L43.5515 52.4669" fill="black"/>
</g>
<path d="M39.0197 55.3773C38.993 55.3773 39.0037 55.0974 38.9211 54.6631C38.8411 54.2287 38.6466 53.6397 38.2735 53.0774C38.0843 52.7976 37.8737 52.5577 37.6632 52.3525C37.4473 52.1553 37.2421 51.9928 37.0529 51.8782C36.6798 51.641 36.416 51.5504 36.424 51.5264C36.4267 51.5184 36.4933 51.5344 36.6159 51.5744C36.6772 51.593 36.7491 51.6197 36.8317 51.657C36.9144 51.6943 37.0076 51.7343 37.1062 51.7929C37.3061 51.8995 37.5273 52.0621 37.7538 52.2593C37.975 52.4645 38.1962 52.7123 38.3907 53.0001C38.7772 53.5811 38.9637 54.1967 39.0197 54.6471C39.049 54.8709 39.057 55.0548 39.0463 55.1827C39.0383 55.308 39.0303 55.3773 39.0223 55.3773H39.0197Z" fill="#263238"/>
<path d="M54.489 36.3566C54.1745 33.3985 51.6375 31.1786 48.6634 31.2559L48.3676 31.2639C45.1857 31.533 43.6347 34.3845 43.9918 37.5585L44.8659 48.7219L45.2363 49.175C46.9472 51.275 49.8573 51.9625 52.3277 50.8459L52.0825 47.2536C52.0825 47.2536 55.1339 46.6992 55.0939 43.6346C55.0753 42.1528 54.7848 39.1095 54.4917 36.3566H54.489Z" fill="#FFBE9D"/>
<path d="M52.104 47.251C52.104 47.251 50.1506 47.4189 48.0586 46.1797C48.0586 46.1797 49.0606 48.3596 52.1093 48.0052L52.104 47.251Z" fill="#EB996E"/>
<path d="M53.5186 38.892C53.5319 39.1238 53.348 39.3264 53.1082 39.345C52.8684 39.3637 52.6605 39.1931 52.6472 38.9613C52.6338 38.7294 52.8177 38.5269 53.0576 38.5082C53.2974 38.4896 53.5053 38.6601 53.5186 38.892Z" fill="#263238"/>
<path d="M53.7126 37.2262C53.678 37.2795 53.3315 37.3168 52.9158 37.5406C52.5001 37.7618 52.2522 38.0443 52.1936 38.039C52.1669 38.039 52.1909 37.9617 52.2975 37.8364C52.4041 37.7138 52.6013 37.5406 52.8598 37.402C53.1183 37.2635 53.3608 37.1995 53.5101 37.1862C53.662 37.1729 53.7286 37.1995 53.7126 37.2235V37.2262Z" fill="#263238"/>
<path d="M49.0947 39.1234C49.108 39.3553 48.9241 39.5578 48.6843 39.5765C48.4444 39.5951 48.2365 39.4246 48.2232 39.1927C48.2099 38.9609 48.3938 38.7583 48.6336 38.7397C48.8735 38.721 49.0813 38.8916 49.0947 39.1234Z" fill="#263238"/>
<path d="M49.028 37.871C48.9667 37.8843 48.6816 37.6924 48.2259 37.5778C47.7702 37.4632 47.3998 37.4926 47.3571 37.4526C47.3358 37.4339 47.4051 37.3993 47.5676 37.386C47.7275 37.37 47.9887 37.3833 48.2739 37.4526C48.559 37.5245 48.7802 37.6338 48.9028 37.7191C49.0254 37.8044 49.0574 37.8657 49.028 37.871Z" fill="#263238"/>
<path d="M50.8763 41.5301C50.8736 41.5035 51.1641 41.4448 51.6385 41.3729C51.7584 41.3569 51.8703 41.3302 51.889 41.2476C51.9156 41.1597 51.8623 41.0318 51.7984 40.8932C51.6785 40.6054 51.5505 40.3042 51.42 39.9871C50.8923 38.6973 50.5085 37.6339 50.5592 37.6126C50.6125 37.5913 51.0815 38.62 51.6092 39.9125C51.7371 40.2296 51.857 40.5334 51.9743 40.8239C52.0222 40.9598 52.1048 41.1117 52.0489 41.2929C52.0196 41.3835 51.9316 41.4502 51.857 41.4741C51.7797 41.5008 51.7131 41.5035 51.6545 41.5088C51.1774 41.5461 50.8816 41.5568 50.879 41.5301H50.8763Z" fill="#263238"/>
<path d="M49.0353 36.0506C48.982 36.1759 48.5156 36.0933 47.9613 36.1333C47.4043 36.1626 46.9513 36.3011 46.8847 36.1839C46.8554 36.1279 46.938 36.0107 47.1245 35.8961C47.3084 35.7815 47.5989 35.6775 47.932 35.6562C48.2651 35.6349 48.5663 35.7042 48.7635 35.7948C48.9633 35.8854 49.0593 35.992 49.0353 36.0506Z" fill="#263238"/>
<path d="M53.702 36.155C53.6007 36.2643 53.1929 36.155 52.7079 36.155C52.2202 36.1417 51.8098 36.2349 51.7139 36.1257C51.6713 36.0724 51.7352 35.9631 51.9138 35.8619C52.0897 35.7579 52.3855 35.6726 52.7213 35.678C53.0544 35.6833 53.3475 35.7766 53.5154 35.8858C53.6886 35.9951 53.7446 36.1044 53.702 36.155Z" fill="#263238"/>
<path d="M55.3821 33.647C55.3234 33.3699 55.0489 33.1327 54.7691 33.1753C54.9184 33.122 55.0729 33.0661 55.1929 32.9595C55.3128 32.8529 55.3874 32.6823 55.3368 32.5331C55.2595 32.2959 54.9557 32.2479 54.7158 32.1786C54.4014 32.0907 54.1189 31.9015 53.9163 31.6457C53.6259 31.2779 53.5139 30.7982 53.2608 30.4038C52.9356 29.8921 52.368 29.5377 51.7657 29.4711C51.1608 29.4044 50.5319 29.6256 50.1028 30.0547C49.6338 29.575 48.9276 29.3378 48.264 29.4391C47.6004 29.5403 46.9981 29.9774 46.6943 30.5743C45.8815 30.2359 44.8902 30.3745 44.1999 30.9261C43.5124 31.4751 43.1579 32.4132 43.3072 33.2819L45.2153 34.4518C45.2473 33.8629 45.9055 33.3939 46.4731 33.5564C47.0488 33.7216 47.4165 34.3905 48.0161 34.4359C48.4825 34.4705 48.8769 34.1107 49.33 33.9908C49.8763 33.8442 50.4546 34.0628 50.9476 34.3426C51.4406 34.6197 51.9096 34.9662 52.4586 35.1048C53.1035 35.2673 53.7884 35.1261 54.404 34.8729C54.6679 34.7663 54.929 34.6331 55.1236 34.4279C55.3181 34.2227 55.4407 33.9295 55.3847 33.6497L55.3821 33.647Z" fill="#263238"/>
<path d="M45.5473 33.5508L54.2883 33.5001C54.0005 32.9059 53.5022 32.4368 52.9638 32.0504C51.8046 31.2216 50.3948 30.7233 48.9691 30.7366C47.5433 30.7499 44.6918 32.5674 43.6871 33.5774C42.8823 34.3876 42.9063 35.0671 42.9063 35.0671C42.8077 36.2024 43.4766 37.4736 43.7591 38.5769C43.9057 39.1472 44.2041 40.8741 44.2041 40.8741C44.6865 40.8581 44.8544 40.4716 44.7664 39.9973L44.6252 38.1318C44.6252 38.1318 46.2295 36.9219 45.3954 34.8166C45.2648 34.6514 44.9796 33.8812 45.5473 33.5481V33.5508Z" fill="#263238"/>
<path d="M44.4896 38.0118C44.0446 36.4635 43.6368 34.8059 44.1085 33.2655C44.0233 33.2629 43.9353 33.2575 43.85 33.2549L43.7408 33.3348C43.2531 33.1696 42.6668 33.3562 42.363 33.7745C42.0592 34.1903 42.0619 34.8059 42.3657 35.2216C41.8487 35.1976 41.3503 35.6294 41.305 36.1464C41.273 36.5035 41.4276 36.8472 41.5875 37.167C41.7474 37.4868 41.918 37.8199 41.9206 38.177C41.9206 38.5341 41.6941 38.9232 41.3397 38.9659C41.4996 39.3336 41.9419 39.5495 42.3284 39.4456C42.2058 39.7494 41.9952 40.0132 41.7287 40.2024C42.299 40.5888 43.0799 40.4582 43.6981 40.1571C44.0659 39.9786 44.4257 39.7227 44.5749 39.3443C44.7401 38.9232 44.6149 38.4489 44.4896 38.0145V38.0118Z" fill="#263238"/>
<path d="M44.3462 39.8141C44.2929 39.7928 42.2249 39.2464 42.3449 41.3384C42.4648 43.4304 44.5408 42.8788 44.5408 42.8175C44.5408 42.7562 44.3436 39.8141 44.3436 39.8141H44.3462Z" fill="#FFBE9D"/>
<path d="M44.0414 42.058C44.0414 42.058 44.0067 42.0847 43.9454 42.1166C43.8868 42.1486 43.7856 42.1726 43.6736 42.138C43.4471 42.0687 43.2419 41.7302 43.2099 41.3518C43.1939 41.1626 43.2232 40.9787 43.2819 40.8241C43.3378 40.6669 43.4284 40.555 43.5404 40.5283C43.6496 40.4964 43.7323 40.5577 43.7616 40.6163C43.7935 40.6722 43.7829 40.7149 43.7935 40.7175C43.7989 40.7229 43.8362 40.6802 43.8149 40.595C43.8042 40.555 43.7776 40.507 43.7243 40.4697C43.671 40.4324 43.5963 40.4164 43.5191 40.4271C43.3592 40.4484 43.2206 40.6056 43.1566 40.7735C43.082 40.9441 43.0447 41.1493 43.0633 41.3651C43.1007 41.7862 43.3405 42.1673 43.647 42.2392C43.7962 42.2686 43.9161 42.2179 43.9774 42.1646C44.0387 42.1087 44.0467 42.0607 44.0414 42.058Z" fill="#EB996E"/>
<path d="M42.1728 38.0789C42.1728 38.0789 42.1142 37.9989 42.1355 37.8364C42.1542 37.6765 42.2714 37.4446 42.5273 37.2901C42.7804 37.1355 43.1296 37.0982 43.4867 37.0582C43.8384 37.0209 44.2408 36.9196 44.4407 36.5732C44.6432 36.2348 44.6486 35.8217 44.6033 35.4752C44.5526 35.1235 44.4594 34.8037 44.4141 34.5292C44.3021 33.9749 44.4087 33.6204 44.4274 33.6311C44.4514 33.6338 44.3901 33.9749 44.526 34.5052C44.5846 34.7717 44.6885 35.0835 44.7498 35.4539C44.8005 35.819 44.8085 36.2614 44.5766 36.6585C44.4594 36.853 44.2755 37.0023 44.0783 37.0795C43.8811 37.1595 43.6839 37.1861 43.5 37.2075C43.1349 37.2394 42.8124 37.2661 42.5806 37.3913C42.3514 37.5113 42.2315 37.7085 42.1968 37.847C42.1595 37.9883 42.1888 38.0762 42.1728 38.0789Z" fill="#455A64"/>
<path d="M41.6679 37.1673C41.6679 37.1673 41.6226 37.1087 41.6039 36.9781C41.5879 36.8502 41.5959 36.6503 41.7079 36.4398C41.7638 36.3359 41.8438 36.2293 41.9557 36.1413C42.065 36.0507 42.2142 35.9921 42.3581 35.9548C42.4993 35.9121 42.6486 35.8775 42.7552 35.7922C42.8618 35.7069 42.9097 35.5684 42.9124 35.4085C42.9177 35.2486 42.8938 35.0807 42.8991 34.9128C42.8991 34.7476 42.9204 34.5877 42.9524 34.4384C43.0163 34.1399 43.1256 33.8868 43.2535 33.6896C43.3788 33.487 43.5813 33.3884 43.7172 33.3938C43.8558 33.3938 43.9144 33.4577 43.9064 33.463C43.9011 33.4764 43.8371 33.4391 43.7199 33.4577C43.6026 33.471 43.4534 33.5617 43.3495 33.7509C43.2455 33.9374 43.1523 34.1852 43.099 34.4677C43.0723 34.609 43.059 34.7582 43.059 34.9154C43.059 35.07 43.083 35.2326 43.0776 35.4165C43.0776 35.595 43.011 35.8029 42.8564 35.9175C42.7045 36.0321 42.5393 36.0614 42.4007 36.1013C42.1129 36.1573 41.921 36.3172 41.8091 36.5011C41.5879 36.8768 41.6999 37.1727 41.6705 37.1727L41.6679 37.1673Z" fill="#455A64"/>
<path d="M53.9161 31.6483C53.9161 31.6483 53.7588 31.7629 53.4843 31.6323C53.3511 31.5736 53.2178 31.4457 53.0899 31.2965C52.962 31.1446 52.8154 30.982 52.6049 30.8648C52.1972 30.6329 51.5336 30.5716 51.0273 30.9687C50.7688 31.1552 50.5396 31.4191 50.2384 31.6376C50.0892 31.7442 49.9133 31.8401 49.7134 31.8801C49.5162 31.9201 49.3057 31.8908 49.1165 31.8241C48.7381 31.6882 48.4423 31.4564 48.1171 31.3391C47.792 31.2139 47.4536 31.1579 47.1338 31.1632C46.4888 31.1632 45.9292 31.4084 45.5481 31.7096C45.1617 32.0107 44.9325 32.3465 44.7993 32.5863C44.6687 32.8288 44.6207 32.9781 44.6074 32.9727C44.6021 32.9727 44.6074 32.9328 44.6287 32.8608C44.6474 32.7889 44.6847 32.6849 44.7433 32.557C44.8632 32.3038 45.0818 31.9441 45.4762 31.6189C45.8626 31.2938 46.4489 31.0247 47.1311 31.014C47.4695 31.006 47.8266 31.0593 48.1731 31.1926C48.5249 31.3205 48.8287 31.5523 49.1698 31.6722C49.3403 31.7335 49.5136 31.7549 49.6815 31.7229C49.8493 31.6909 50.0012 31.6083 50.1425 31.5097C50.425 31.3098 50.6595 31.046 50.9366 30.8488C51.2111 30.6436 51.5469 30.5423 51.8507 30.545C52.1572 30.545 52.437 30.6329 52.6609 30.7635C52.8874 30.8941 53.042 31.0806 53.1592 31.2352C53.2818 31.3898 53.3937 31.5097 53.5137 31.5736C53.7535 31.7096 53.9187 31.6296 53.9161 31.6456V31.6483Z" fill="#455A64"/>
<path d="M49.7137 42.0785C49.7803 42.0626 49.8549 42.5103 50.292 42.7634C50.729 43.0166 51.1954 42.886 51.2114 42.95C51.2221 42.9766 51.1208 43.0539 50.9183 43.0939C50.7211 43.1339 50.4226 43.1179 50.1561 42.9633C49.8896 42.8087 49.7457 42.5662 49.7004 42.385C49.6524 42.2011 49.6844 42.0812 49.7137 42.0785Z" fill="#263238"/>
<path d="M77.2912 83.7163C76.4997 83.0101 75.4044 82.6823 74.3465 82.7436L72.545 88.4679C73.8641 88.5265 75.1806 89.2061 76.4544 88.857C77.4778 88.5772 78.2533 87.6151 78.3945 86.5651C78.5358 85.5151 78.08 84.4225 77.2886 83.7163H77.2912Z" fill="#FEF2CA"/>
<path d="M74.3775 82.61C74.3802 82.5647 74.5721 82.5274 74.9238 82.5327C75.2703 82.5434 75.7873 82.5807 76.3976 82.8099C77.0105 83.0364 77.6767 83.5001 78.1911 84.2037C78.4496 84.5554 78.6654 84.9738 78.7907 85.4455C78.9186 85.9146 78.9399 86.4395 78.836 86.9459C78.7321 87.4549 78.5082 87.9319 78.1804 88.313C77.8526 88.6968 77.4342 88.9606 77.0185 89.1178C76.179 89.4323 75.3716 89.3816 74.7533 89.2644C74.1297 89.1418 73.6607 88.9606 73.3409 88.8273C73.0237 88.6914 72.8585 88.5902 72.8718 88.5449C72.8852 88.4996 73.0797 88.5129 73.4182 88.5688C73.7566 88.6221 74.2363 88.7261 74.8226 88.7794C75.4035 88.8327 76.1071 88.814 76.7786 88.5262C77.1118 88.3823 77.4209 88.1691 77.6608 87.876C77.9033 87.5828 78.0738 87.2097 78.1564 86.8073C78.3297 85.9945 78.0818 85.1817 77.6687 84.5688C77.253 83.9505 76.712 83.5081 76.2004 83.2576C75.686 83.0018 75.2117 82.8872 74.8865 82.7992C74.5588 82.714 74.3722 82.658 74.3775 82.61Z" fill="#F5F5F5"/>
<path d="M57.6909 104.079L53.7734 115.056L67.4047 120C67.7964 118.67 61.6937 113.497 61.6937 113.497L64.4919 106.568L57.6909 104.082V104.079Z" fill="#FEF2CA"/>
<g opacity="0.6">
<path d="M57.6913 111.375C57.4008 111.351 57.1103 111.583 57.0757 111.871C57.0411 112.159 57.2729 112.457 57.5607 112.484C57.8512 112.513 58.2056 112.247 58.2083 111.956C58.211 111.666 57.9205 111.332 57.6327 111.372" fill="white"/>
</g>
<path d="M53.7734 115.056L54.1678 113.947L67.1168 119.112C67.1168 119.112 67.6285 119.597 67.4046 119.999L53.7734 115.056Z" fill="white"/>
<path d="M61.9381 113.508C61.9115 113.574 61.5677 113.484 61.1626 113.577C60.7549 113.662 60.4804 113.889 60.4298 113.841C60.3738 113.806 60.6163 113.444 61.1093 113.337C61.5997 113.225 61.9755 113.452 61.9381 113.508Z" fill="#263238"/>
<path d="M63.1536 114.616C63.1456 114.686 62.8151 114.696 62.4873 114.894C62.1542 115.083 61.9863 115.368 61.9197 115.341C61.8531 115.328 61.949 114.923 62.3621 114.683C62.7725 114.438 63.1749 114.553 63.1536 114.616Z" fill="#263238"/>
<path d="M63.3459 116.623C63.2793 116.615 63.3086 116.25 63.6124 115.947C63.9135 115.643 64.2786 115.611 64.2866 115.677C64.3053 115.747 64.0308 115.869 63.7856 116.12C63.5351 116.365 63.4152 116.639 63.3459 116.623Z" fill="#263238"/>
<path d="M62.3996 111.856C62.349 111.906 62.0772 111.704 61.6934 111.592C61.3097 111.472 60.9712 111.493 60.9579 111.424C60.9366 111.362 61.3123 111.219 61.7654 111.357C62.2184 111.49 62.4529 111.816 62.4023 111.856H62.3996Z" fill="#263238"/>
<path d="M62.6632 110.121C62.6552 110.148 62.3754 110.095 61.981 109.871C61.7838 109.759 61.5626 109.602 61.3467 109.391C61.2374 109.287 61.1308 109.17 61.0296 109.042C60.9816 108.978 60.923 108.911 60.883 108.807C60.835 108.712 60.8564 108.52 60.9816 108.442C61.0882 108.362 61.2294 108.362 61.3281 108.397C61.4293 108.429 61.5039 108.48 61.5706 108.525C61.7091 108.616 61.8344 108.72 61.941 108.823C62.1595 109.037 62.3167 109.263 62.4207 109.466C62.6312 109.873 62.6472 110.161 62.6205 110.167C62.5832 110.177 62.5033 109.913 62.2688 109.554C62.1515 109.375 61.9916 109.175 61.7838 108.989C61.6798 108.895 61.5626 108.807 61.4346 108.725C61.3041 108.634 61.1815 108.589 61.1202 108.64C61.0989 108.658 61.0935 108.669 61.1069 108.722C61.1228 108.773 61.1682 108.831 61.2161 108.895C61.3094 109.018 61.4053 109.13 61.5013 109.231C61.6958 109.436 61.8957 109.599 62.0689 109.724C62.4207 109.975 62.6712 110.087 62.6552 110.121H62.6632Z" fill="#263238"/>
<path d="M62.5415 110.185C62.5148 110.185 62.4695 109.899 62.6001 109.46C62.6667 109.241 62.7813 108.991 62.9652 108.746C63.0558 108.623 63.1651 108.506 63.2903 108.394C63.4182 108.287 63.5808 108.143 63.85 108.207C63.9859 108.25 64.0605 108.396 64.0658 108.5C64.0765 108.61 64.0578 108.692 64.0445 108.775C64.0125 108.943 63.9512 109.097 63.8793 109.236C63.73 109.51 63.5248 109.708 63.333 109.835C62.9386 110.091 62.6321 110.07 62.6347 110.046C62.6241 110.003 62.9039 109.961 63.229 109.694C63.3889 109.564 63.5595 109.374 63.6767 109.132C63.7354 109.009 63.7833 108.876 63.8073 108.732C63.8393 108.58 63.826 108.442 63.7674 108.439C63.7007 108.412 63.5462 108.482 63.4476 108.575C63.333 108.671 63.2317 108.778 63.1438 108.884C62.9679 109.1 62.8453 109.321 62.7653 109.518C62.6028 109.913 62.5814 110.187 62.5415 110.185Z" fill="#263238"/>
<path d="M44.483 74.7621C42.415 74.81 40.4536 75.1032 39.0306 76.6009C37.1411 78.5889 34.8066 81.4244 34.6734 83.3885C34.4762 86.3253 36.2457 87.1994 37.5408 87.9136C38.1138 88.2307 38.7641 88.372 39.4196 88.348L63.3189 88.1668L64.0704 84.1187L48.6137 80.3078L49.256 74.4902L44.4857 74.7594L44.483 74.7621Z" fill="#263238"/>
<path d="M49.2509 74.4929L56.7687 74.1465C56.7687 74.1465 69.755 74.8687 72.5266 77.4084C75.2981 79.9481 74.9517 82.8342 74.0269 85.6031C73.1022 88.372 64.9661 106.091 64.9661 106.091C64.9661 106.091 65.627 107.218 65.2539 108.343C64.6783 110.083 63.1326 110.363 63.1326 110.363L55.9053 107.706C55.9053 107.706 54.9246 107.36 55.6175 106.438C56.3104 105.513 56.7714 105.342 56.7714 105.342V103.496C56.7714 103.496 59.3111 98.8772 59.5429 98.243C59.7748 97.6087 62.2079 88.2121 62.2079 88.2121L63.8255 85.4325C63.8255 85.4325 59.916 83.5937 56.5262 82.2613L48.6113 80.3105L49.2536 74.4929H49.2509Z" fill="#263238"/>
<path d="M61.4464 107.376C61.4331 107.395 61.2039 107.213 60.8121 106.96C60.4204 106.707 59.8581 106.393 59.1945 106.139C58.5309 105.889 57.8994 105.748 57.4383 105.678C56.9773 105.606 56.6868 105.59 56.6895 105.569C56.6895 105.553 56.9826 105.534 57.4516 105.582C57.9207 105.628 58.5683 105.756 59.2452 106.011C59.9221 106.27 60.487 106.603 60.8708 106.88C61.2545 107.157 61.4597 107.365 61.4491 107.376H61.4464Z" fill="#455A64"/>
<path d="M65.0565 106.104C65.0432 106.115 64.8806 105.95 64.6355 105.662C64.3929 105.377 64.0678 104.969 63.7267 104.508C63.3856 104.047 63.0951 103.615 62.8952 103.298C62.6954 102.981 62.5834 102.776 62.5968 102.765C62.6128 102.754 62.754 102.938 62.9752 103.242C63.2284 103.589 63.5162 103.986 63.836 104.425C64.1611 104.862 64.4542 105.257 64.7101 105.601C64.9339 105.902 65.0672 106.091 65.0539 106.104H65.0565Z" fill="#455A64"/>
<path d="M67.7052 82.8958C67.7105 82.9171 67.4387 82.9757 67.0203 83.1143C66.6019 83.2529 66.0369 83.4874 65.464 83.8445C64.8937 84.2016 64.4326 84.6067 64.1261 84.9211C63.817 85.2356 63.6465 85.4541 63.6278 85.4408C63.6145 85.4328 63.7584 85.193 64.0542 84.8545C64.3473 84.5161 64.8084 84.0897 65.392 83.7246C65.9756 83.3621 66.5592 83.1356 66.9936 83.0184C67.428 82.9011 67.7052 82.8771 67.7078 82.8931L67.7052 82.8958Z" fill="#455A64"/>
<path d="M60.3125 95.4416C60.3125 95.4416 60.3178 95.3856 60.3418 95.2843C60.3711 95.1697 60.4084 95.0232 60.4537 94.8446C60.5603 94.4449 60.7069 93.8986 60.8855 93.2323C61.2692 91.8572 61.7889 89.9891 62.3645 87.9264C62.6656 86.8924 62.9215 85.9037 63.212 85.011C63.5477 84.1235 64.0807 83.4413 64.5738 82.935C65.0694 82.4286 65.5358 82.0875 65.8663 81.869C66.0341 81.7624 66.1647 81.6824 66.2553 81.6345C66.3459 81.5838 66.3966 81.5599 66.3966 81.5652C66.4019 81.5758 66.2154 81.6878 65.8956 81.9143C65.5758 82.1435 65.1254 82.4926 64.643 83.0016C64.166 83.5079 63.6517 84.1875 63.3319 85.0536C63.0547 85.9357 62.7962 86.9324 62.4978 87.9637C61.9061 90.0237 61.3731 91.8865 60.9787 93.259C60.7815 93.9226 60.6216 94.4635 60.5044 94.8606C60.4484 95.0365 60.4031 95.1804 60.3685 95.295C60.3365 95.3936 60.3178 95.4442 60.3125 95.4442V95.4416Z" fill="#455A64"/>
<path d="M53.6636 81.9072C53.6263 81.9099 53.4664 80.5054 53.3118 78.7679C53.1546 77.0303 53.0586 75.6179 53.0959 75.6152C53.1332 75.6126 53.2931 77.017 53.4477 78.7545C53.6049 80.4921 53.7009 81.9019 53.6636 81.9072Z" fill="#455A64"/>
<path d="M41.1488 85.6622C41.1275 85.6729 41.0129 85.4463 40.7757 85.1106C40.5412 84.7774 40.1735 84.3457 39.6831 83.9646C39.1928 83.5835 38.6864 83.3277 38.3053 83.1838C37.9242 83.0372 37.6764 82.9786 37.6817 82.9546C37.6817 82.9413 37.9429 82.9626 38.34 83.0905C38.737 83.2158 39.2647 83.4636 39.771 83.8554C40.2747 84.2498 40.6425 84.7028 40.8583 85.0573C41.0769 85.4117 41.1622 85.6569 41.1488 85.6622Z" fill="#455A64"/>
<path d="M45.7571 80.5585C45.7438 80.5798 45.424 80.3746 44.8724 80.1241C44.3207 79.8709 43.5239 79.5964 42.6098 79.4632C41.6931 79.3326 40.851 79.3752 40.2514 79.4632C39.6517 79.5484 39.2866 79.655 39.2813 79.631C39.2786 79.6231 39.3666 79.5884 39.5292 79.5351C39.6917 79.4792 39.9342 79.4205 40.2354 79.3646C40.8376 79.2526 41.6958 79.194 42.6285 79.3246C43.5586 79.4605 44.366 79.7563 44.9123 80.0361C45.1868 80.1747 45.4 80.3 45.5413 80.3986C45.6825 80.4945 45.7598 80.5505 45.7545 80.5585H45.7571Z" fill="#455A64"/>
<path d="M63.758 84.1161C63.758 84.1161 63.6914 84.1108 63.5715 84.0841C63.4356 84.0548 63.2597 84.0175 63.0411 83.9695C62.5668 83.8629 61.9032 83.7137 61.0931 83.5325C59.4488 83.1647 57.1729 82.669 54.6492 82.1707C52.1255 81.6724 49.8337 81.262 48.1707 80.9741C47.3526 80.8329 46.6837 80.7183 46.204 80.6357C45.9828 80.5957 45.8042 80.5637 45.6683 80.5398C45.5457 80.5158 45.4818 80.5024 45.4845 80.4971C45.4871 80.4918 45.5511 80.4971 45.6737 80.5131C45.8096 80.5318 45.9881 80.5531 46.212 80.5824C46.6784 80.6464 47.3553 80.745 48.1867 80.8755C49.8523 81.1367 52.1495 81.5311 54.6759 82.0321C57.1996 82.5331 59.4754 83.0421 61.1144 83.4339C61.9352 83.6311 62.5961 83.7937 63.0518 83.9136C63.2677 83.9722 63.4436 84.0175 63.5768 84.0548C63.6967 84.0895 63.758 84.1081 63.758 84.1135V84.1161Z" fill="#455A64"/>
<path d="M48.6081 80.9987C48.5814 81.0066 48.5255 80.6815 48.2776 80.2338C48.1524 80.0126 47.9712 79.7648 47.7313 79.5276C47.4941 79.2878 47.2036 79.0452 46.8945 78.8027C46.2709 78.3257 45.6367 77.9873 45.1836 77.7394C44.7252 77.4942 44.4428 77.3423 44.4534 77.3237C44.4614 77.3077 44.7599 77.4276 45.2289 77.6515C45.6953 77.878 46.3455 78.2058 46.9798 78.6935C47.2943 78.9386 47.5847 79.1838 47.8246 79.437C48.0671 79.6875 48.2483 79.9513 48.3656 80.1858C48.4828 80.423 48.5468 80.6282 48.5788 80.7695C48.6107 80.9134 48.6187 80.9933 48.6107 80.996L48.6081 80.9987Z" fill="#455A64"/>
<path d="M75.228 84.6113C75.26 84.6406 74.8602 85.0457 74.5484 85.6587C74.2313 86.2689 74.1354 86.8312 74.0927 86.8232C74.0581 86.8232 74.0927 86.2316 74.4232 85.5974C74.7483 84.9578 75.2067 84.5847 75.228 84.614V84.6113Z" fill="#263238"/>
<g opacity="0.3">
<path d="M58.123 57.3008L59.8339 69.3517L59.9192 69.5436C60.3243 65.3969 59.7007 61.1543 58.123 57.3008Z" fill="black"/>
</g>
<path d="M67.3354 64.2278L61.7737 73.9575L48.0678 74.256L48.0332 74.877L61.3046 74.7784L61.7257 74.765L75.7407 74.7917L78.5735 69.9068L82.1925 64.7208C82.4297 64.3797 82.1845 63.916 81.7715 63.916L67.7831 63.9693C67.5993 63.9693 67.4314 64.0679 67.3408 64.2278H67.3354Z" fill="#E0E0E0"/>
<path d="M78.5723 69.9043C78.5723 69.9043 79.2918 70.5652 79.1799 71.1248C79.0653 71.6845 79.1053 72.1029 78.5723 72.1402C78.5723 72.1402 78.6096 72.8597 77.8528 72.9743C77.8528 72.9743 78.0153 73.8538 76.992 74.0057C76.992 74.0057 76.6775 74.9464 76.0326 74.7172C75.3877 74.488 74.9719 74.2242 74.9719 74.2242L74.7827 73.8831C74.7827 73.8831 73.834 73.526 74.0685 72.9903C74.2098 72.6652 74.7028 72.5799 74.7028 72.5799C74.7028 72.5799 74.4976 72.1029 74.7641 71.7458C74.9906 71.4393 75.7341 71.6925 75.7341 71.6925C75.7341 71.6925 75.6915 71.2981 75.9686 70.9676C76.2218 70.6691 77.3997 71.482 77.3997 71.482L78.0446 70.7144L78.5776 69.9043H78.5723Z" fill="#FFBE9D"/>
<path d="M76.992 74.0056C76.9707 74.0376 76.443 73.7444 75.8087 73.3527C75.1745 72.9582 74.6788 72.6145 74.7001 72.5825C74.7214 72.5505 75.2491 72.841 75.8834 73.2354C76.5149 73.6298 77.0133 73.9736 76.992 74.0056Z" fill="#EB996E"/>
<path d="M77.853 72.9742C77.8344 73.0062 77.3414 72.7477 76.7551 72.3933C76.1688 72.0388 75.7104 71.727 75.7291 71.6951C75.7477 71.6631 76.2407 71.9216 76.827 72.276C77.4133 72.6305 77.8717 72.9422 77.853 72.9742Z" fill="#EB996E"/>
<path d="M76.6788 71.0455C76.7001 71.0055 77.1398 71.2374 77.6515 71.5625C78.1631 71.8903 78.5762 72.1435 78.5656 72.1701C78.5469 72.2154 78.0885 72.0075 77.5769 71.6798C77.0625 71.3546 76.6628 71.0748 76.6761 71.0455H76.6788Z" fill="#EB996E"/>
<path d="M82.1891 64.2842C82.1891 64.2842 82.1651 64.2895 82.1225 64.2921C82.0692 64.2921 82.0052 64.2975 81.9253 64.3001C81.7414 64.3028 81.4882 64.3081 81.1684 64.3135C80.4995 64.3188 79.5508 64.3268 78.3862 64.3348C76.0251 64.3401 72.7845 64.3481 69.2055 64.3561C68.9816 64.3561 68.7578 64.3561 68.5366 64.3561C68.326 64.3401 68.1368 64.4334 68.0276 64.5959C67.817 64.977 67.6092 65.3501 67.404 65.7206C66.9936 66.4587 66.5991 67.173 66.2234 67.8525C65.4692 69.209 64.7896 70.4295 64.2167 71.4582C63.6464 72.4735 63.18 73.2997 62.8522 73.8833C62.6923 74.1604 62.5671 74.379 62.4765 74.5389C62.4365 74.6082 62.4018 74.6615 62.3752 74.7068C62.3512 74.7441 62.3379 74.7627 62.3379 74.7627C62.3379 74.7627 62.3459 74.7414 62.3645 74.7014C62.3885 74.6535 62.4178 74.5975 62.4525 74.5255C62.5378 74.363 62.6577 74.1391 62.8069 73.8567C63.1267 73.2677 63.5771 72.4362 64.1314 71.4102C64.6964 70.3762 65.3679 69.1503 66.1141 67.7886C66.4872 67.1063 66.8816 66.3921 67.2894 65.6513C67.4946 65.2808 67.7024 64.9024 67.9156 64.5187C68.0462 64.3108 68.3074 64.1962 68.5392 64.2149C68.7604 64.2149 68.9843 64.2149 69.2081 64.2149C72.7898 64.2229 76.0304 64.2308 78.3889 64.2362C79.5561 64.2442 80.5022 64.2522 81.1711 64.2575C81.4909 64.2628 81.744 64.2682 81.9279 64.2708C82.0079 64.2735 82.0718 64.2762 82.1251 64.2788C82.1704 64.2788 82.1918 64.2841 82.1918 64.2868L82.1891 64.2842Z" fill="#263238"/>
<path d="M72.3302 69.1737C72.0824 69.4482 72.0771 69.8453 72.3169 70.0638C72.5568 70.2796 72.9538 70.2343 73.199 69.9598C73.4469 69.6854 73.4522 69.2883 73.2123 69.0698C72.9725 68.8539 72.5754 68.8992 72.3276 69.1737H72.3302Z" fill="white"/>
<g opacity="0.3">
<path d="M33.4238 65.4131C33.3039 65.4611 33.1706 65.5411 33.168 65.669C33.168 65.7729 33.2639 65.8555 33.3652 65.8768C33.4664 65.8982 33.8342 65.7463 33.9355 65.7249C35.3772 65.4078 36.5631 65.7116 37.9356 66.2499L37.9809 66.2046C37.4319 65.048 34.9748 64.7869 33.4238 65.4131Z" fill="black"/>
</g>
<path d="M107.675 119.507C107.675 119.544 83.5675 119.576 53.84 119.576C24.1125 119.576 0 119.544 0 119.507C0 119.469 24.1018 119.438 53.84 119.438C83.5781 119.438 107.675 119.469 107.675 119.507Z" fill="#263238"/>
<path d="M25.9672 34.5615C26.0125 34.6068 34.8628 31.5661 34.8628 31.5661L31.4596 23.7578L23.582 26.7692L27.9152 29.2583L25.9672 34.5615Z" fill="#455A64"/>
<path d="M30.1192 26.1107V15.4776C30.1192 15.4776 42.3273 13.247 51.1216 13.3776C59.916 13.5082 68.9741 14.9526 68.9741 14.9526V25.1593C68.9741 25.1593 41.4079 22.6969 30.1192 26.1107Z" fill="#455A64"/>
<path d="M30.0547 26.1186L34.8623 31.611V25.1592C34.8623 25.1592 30.8408 25.6415 30.0547 26.1186Z" fill="#263238"/>
<path d="M30.1184 15.4775C30.1557 15.4775 30.1743 17.86 30.1557 20.7994C30.137 23.7389 30.0917 26.1213 30.0544 26.1213C30.0171 26.1213 29.9984 23.7389 30.0171 20.7994C30.0357 17.86 30.081 15.4802 30.1184 15.4802V15.4775Z" fill="#263238"/>
<path d="M73.1104 33.7451C73.0651 33.7904 64.2148 30.7497 64.2148 30.7497L67.618 22.9414L75.4956 25.9528L71.1624 28.4419L73.1104 33.7451Z" fill="#455A64"/>
<path d="M69.0224 25.3036L64.2148 30.796V24.8105C65.8165 24.8638 67.4208 25.0291 69.0224 25.3036Z" fill="#263238"/>
<path d="M68.9754 14.9531C69.0127 14.9531 69.0553 17.269 69.0686 20.1285C69.082 22.9879 69.0633 25.3038 69.0233 25.3038C68.986 25.3038 68.9434 22.9879 68.93 20.1285C68.9167 17.2716 68.9354 14.9531 68.9754 14.9531Z" fill="#263238"/>
<path d="M37.0036 20.1386C36.8863 19.2912 37.454 18.593 38.3281 18.473C38.8131 18.4064 39.2448 18.5263 39.5539 18.8115L39.1888 19.2539C38.9703 19.062 38.7171 18.9847 38.4373 19.022C37.9123 19.094 37.5899 19.515 37.6618 20.048C37.7364 20.5784 38.1602 20.8955 38.6878 20.8235C38.9703 20.7836 39.1915 20.6396 39.3487 20.3918L39.8204 20.7196C39.5992 21.082 39.2182 21.3139 38.7278 21.3832C37.8564 21.5031 37.1208 20.9888 37.0036 20.1386Z" fill="white"/>
<path d="M39.9105 19.7384C39.8253 18.899 40.4142 18.2114 41.3043 18.1182C42.1917 18.0275 42.9139 18.5765 42.9992 19.4186C43.0872 20.2608 42.4929 20.9457 41.6054 21.0389C40.7127 21.1295 39.9958 20.5779 39.9105 19.7384ZM42.341 19.4879C42.285 18.9523 41.8693 18.6245 41.3656 18.6751C40.8619 18.7258 40.5208 19.1335 40.5741 19.6692C40.6301 20.2048 41.0458 20.5326 41.5495 20.482C42.0532 20.4313 42.3943 20.0236 42.341 19.4879Z" fill="white"/>
<path d="M46.1925 20.6265L46.0779 18.9262L45.3344 20.3786L45.0386 20.3973L44.1219 19.0861L44.2285 20.749L43.6129 20.789L43.4316 17.9562L43.9726 17.9215L45.1452 19.6138L46.0753 17.7856L46.6136 17.751L46.8028 20.5838L46.1872 20.6238L46.1925 20.6265Z" fill="white"/>
<path d="M49.8621 18.6882C49.8808 19.3198 49.4171 19.7276 48.6576 19.7489L48.0873 19.7649L48.1086 20.5484L47.453 20.567L47.373 17.7289L48.6016 17.6942C49.3584 17.6729 49.8461 18.054 49.8621 18.6882ZM49.1959 18.7069C49.1879 18.3951 48.98 18.2192 48.5776 18.2299L48.042 18.2459L48.0686 19.2319L48.6043 19.2159C49.0067 19.2052 49.2039 19.016 49.1932 18.7096L49.1959 18.7069Z" fill="white"/>
<path d="M50.3594 17.6572H51.015V19.9597H52.438V20.4954H50.3594V17.6572Z" fill="white"/>
<path d="M54.9997 20.0395L54.9837 20.5672L52.7852 20.5032L52.8678 17.665L55.013 17.7263L54.9971 18.254L53.5047 18.2114L53.486 18.827L54.8025 18.8643L54.7865 19.3759L53.47 19.3386L53.4514 19.9942L54.9971 20.0395H54.9997Z" fill="white"/>
<path d="M56.2125 18.3314L55.3064 18.2781L55.3384 17.7451L57.8062 17.8944L57.7742 18.4273L56.8681 18.3714L56.7295 20.6686L56.074 20.6286L56.2125 18.3314Z" fill="white"/>
<path d="M60.1966 20.4289L60.1487 20.9539L57.9607 20.7513L58.2219 17.9238L60.3592 18.121L60.3112 18.646L58.8242 18.5075L58.7682 19.1204L60.0794 19.243L60.0314 19.752L58.7203 19.6294L58.659 20.2823L60.1966 20.4262V20.4289Z" fill="white"/>
<path d="M61.0183 18.1934L62.2948 18.3639C63.2143 18.4865 63.7712 19.1261 63.6566 19.9762C63.542 20.829 62.8385 21.298 61.9191 21.1754L60.6426 21.0049L61.0183 18.1934ZM61.9591 20.6371C62.5187 20.7117 62.9264 20.4266 62.9984 19.8883C63.0703 19.3499 62.7506 18.9662 62.1909 18.8942L61.5966 18.8143L61.3648 20.5572L61.9591 20.6371Z" fill="white"/>
<path d="M74.4355 15.9194L75.1338 16.7375L77.1005 15.9194L76.5249 15.0586L74.4355 15.9194Z" fill="#455A64"/>
<path d="M73.535 12.0292C73.535 12.5942 73.0766 13.0525 72.5116 13.0525C71.9467 13.0525 71.4883 12.5942 71.4883 12.0292C71.4883 11.4642 71.9467 11.0059 72.5116 11.0059C73.0766 11.0059 73.535 11.4642 73.535 12.0292Z" fill="#FEF2CA"/>
<path d="M50.6093 27.291C50.6093 27.5735 50.3801 27.8026 50.0976 27.8026C49.8151 27.8026 49.5859 27.5735 49.5859 27.291C49.5859 27.0085 49.8151 26.7793 50.0976 26.7793C50.3801 26.7793 50.6093 27.0085 50.6093 27.291Z" fill="#FEF2CA"/>
<path d="M26.7723 19.6C26.7723 19.8159 26.5991 19.9891 26.3832 19.9891C26.1674 19.9891 25.9941 19.8159 25.9941 19.6C25.9941 19.3842 26.1674 19.2109 26.3832 19.2109C26.5991 19.2109 26.7723 19.3842 26.7723 19.6Z" fill="#FEF2CA"/>
<path d="M25.3281 15.3174L26.4741 15.3866L27.0204 13.1348L25.9491 13.1774L25.3281 15.3174Z" fill="#455A64"/>
<path d="M61.1445 33.3141L61.5309 34.3961L63.8175 34.015L63.3564 33.0449L61.1445 33.3141Z" fill="#FEF2CA"/>
<path d="M38.0186 27.0703L37.3124 27.9791L38.8607 29.7006L39.431 28.7945L38.0186 27.0703Z" fill="#455A64"/>
<path d="M35.2815 5.78516L37.9864 8.54604L41.7973 7.10431L41.9466 8.05036L40.297 11.4295L41.8186 13.9506L41.6907 14.7021L38.0051 14.0811L35.8252 16.4743L35.3162 16.0852L34.8631 13.0445L31.4253 11.2536L31.2734 10.5607L34.7352 9.61202L35.2815 5.78516Z" fill="#FEF2CA"/>
<g opacity="0.3">
<path d="M35.2815 5.78516L37.9864 8.54604L41.7973 7.10431L41.9466 8.05036L40.297 11.4295L41.8186 13.9506L41.6907 14.7021L38.0051 14.0811L35.8252 16.4743L35.3162 16.0852L34.8631 13.0445L31.4253 11.2536L31.2734 10.5607L34.7352 9.61202L35.2815 5.78516Z" fill="black"/>
</g>
<path d="M35.2815 5.00977L37.9864 7.77065L41.7973 7.10442L40.0091 10.5342L41.8186 13.9507L38.0051 13.3084L35.3162 16.0853L34.7459 12.2611L31.2734 10.5609L34.7352 8.8393L35.2815 5.00977Z" fill="#FEF2CA"/>
<path d="M63.3298 5.78516L60.6222 8.54604L56.814 7.10431L56.6621 8.05036L58.3117 11.4295L56.7927 13.9506L56.9179 14.7021L60.6036 14.0811L62.7835 16.4743L63.2952 16.0852L63.7455 13.0445L67.1833 11.2536L67.3352 10.5607L63.8735 9.61202L63.3298 5.78516Z" fill="#FEF2CA"/>
<g opacity="0.3">
<path d="M63.3298 5.78516L60.6222 8.54604L56.814 7.10431L56.6621 8.05036L58.3117 11.4295L56.7927 13.9506L56.9179 14.7021L60.6036 14.0811L62.7835 16.4743L63.2952 16.0852L63.7455 13.0445L67.1833 11.2536L67.3352 10.5607L63.8735 9.61202L63.3298 5.78516Z" fill="black"/>
</g>
<path d="M63.3301 5.00977L60.6225 7.77065L56.8143 7.10442L58.6025 10.5342L56.793 13.9507L60.6038 13.3084L63.2954 16.0853L63.8631 12.2611L67.3355 10.5609L63.8737 8.8393L63.3301 5.00977Z" fill="#FEF2CA"/>
<path d="M49.2173 0.943359L51.4692 5.34319L56.6632 5.03672L56.4873 6.24661L53.1881 9.74036L54.0835 13.3967L53.6411 14.2654L49.3799 12.1068L45.8115 14.1935L45.3345 13.5246L45.9421 9.64175L42.4297 6.14801L42.5096 5.24459L47.096 5.40715L49.2173 0.943359Z" fill="#FEF2CA"/>
<g opacity="0.3">
<path d="M49.2173 0.943359L51.4692 5.34319L56.6632 5.03672L56.4873 6.24661L53.1881 9.74036L54.0835 13.3967L53.6411 14.2654L49.3799 12.1068L45.8115 14.1935L45.3345 13.5246L45.9421 9.64175L42.4297 6.14801L42.5096 5.24459L47.096 5.40715L49.2173 0.943359Z" fill="black"/>
</g>
<path d="M49.5105 0L51.7623 4.39983L56.6632 5.03675L53.1748 8.5385L54.0835 13.3967L49.6757 11.1608L45.3345 13.5246L46.0993 8.64243L42.5096 5.24462L47.3892 4.46379L49.5105 0Z" fill="#FEF2CA"/>
<path d="M58.4831 39.4699L62.246 39.8856C63.1521 38.5958 64.4153 37.5325 65.969 36.8636C70.4381 34.9395 75.6188 37.0048 77.5428 41.4739C79.4669 45.943 77.4016 51.1237 72.9325 53.0478C68.4634 54.9719 63.2827 52.9065 61.3586 48.4374C60.5565 46.572 60.4499 44.5812 60.9216 42.7558V42.7611L58.4805 39.4725L58.4831 39.4699Z" fill="#FAFAFA"/>
<path d="M58.4819 39.4701C58.6285 39.6646 59.3906 40.6746 60.947 42.7399H60.8883C60.8963 42.724 60.9177 42.716 60.9363 42.7266C60.9496 42.7346 60.9576 42.7506 60.9523 42.7666C60.6405 43.9845 60.5206 45.5861 61.0109 47.3157C61.1362 47.7447 61.2881 48.1844 61.4986 48.6108C61.6052 48.824 61.7065 49.0425 61.8237 49.2584C61.9543 49.4663 62.0849 49.6768 62.2182 49.89C62.7911 50.7161 63.5346 51.4943 64.4434 52.1232C65.3495 52.7548 66.4208 53.2398 67.5854 53.493C68.7499 53.7462 70.0105 53.7782 71.2523 53.509C72.4915 53.2398 73.7068 52.6935 74.7621 51.8834C75.8121 51.0732 76.7235 50.0126 77.3071 48.7601C77.9094 47.4889 78.2318 46.0978 78.1812 44.7387C78.1439 43.3822 77.7868 42.0684 77.1952 40.9224C76.6036 39.7765 75.7774 38.7878 74.8127 38.0496C73.8533 37.3061 72.774 36.7944 71.692 36.504C70.6074 36.2135 69.5228 36.1469 68.5101 36.2481C67.4947 36.3547 66.5753 36.6585 65.7519 37.0103C64.1129 37.7618 62.983 38.8971 62.2688 39.9018C62.2608 39.9124 62.2501 39.9178 62.2368 39.9151C59.8543 39.6326 58.7084 39.494 58.4766 39.4674C58.7084 39.4914 59.857 39.606 62.2448 39.8485L62.2128 39.8618C62.9217 38.8438 64.0543 37.6899 65.7092 36.9197C66.538 36.5573 67.4708 36.2455 68.4968 36.1362C69.5201 36.0296 70.6207 36.0936 71.7214 36.3867C72.8193 36.6772 73.9119 37.1942 74.89 37.9457C75.868 38.6919 76.7075 39.6939 77.3124 40.8558C77.9174 42.0177 78.2798 43.3502 78.3198 44.7307C78.3704 46.1111 78.0453 47.5235 77.435 48.816C76.8407 50.0899 75.916 51.1665 74.8473 51.99C73.776 52.8134 72.5395 53.3678 71.2816 53.6369C70.0211 53.9061 68.7393 53.8741 67.5587 53.6129C66.3755 53.3518 65.2935 52.8588 64.3741 52.2165C63.4547 51.5743 62.7032 50.7854 62.1275 49.946C61.9943 49.7301 61.861 49.5169 61.7305 49.3064C61.6132 49.0879 61.5119 48.8667 61.4053 48.6508C61.1948 48.2191 61.0429 47.774 60.9177 47.3396C60.43 45.5888 60.5632 43.9711 60.8857 42.7453L60.9496 42.7719V42.7773C60.939 42.7932 60.9177 42.8012 60.9017 42.7906C60.8963 42.7906 60.8937 42.7852 60.891 42.7799C59.3693 40.6906 58.6258 39.6673 58.4819 39.4701Z" fill="#263238"/>
<path d="M66.2026 41.8211C66.2026 41.8211 66.208 41.8637 66.2106 41.9436C66.2106 42.0316 66.216 42.1435 66.2186 42.2848C66.2213 42.5912 66.2266 43.023 66.2346 43.5666C66.2426 44.6726 66.2533 46.2289 66.2639 48.0944L66.2026 48.0331C68.0281 48.0304 70.1787 48.0277 72.4733 48.0224C72.4893 48.0064 72.3427 48.153 72.404 48.0917V47.6653C72.404 47.5241 72.404 47.3801 72.404 47.2389C72.404 46.9564 72.404 46.6766 72.404 46.3994C72.404 45.8451 72.404 45.3041 72.404 44.7792C72.404 43.7265 72.4093 42.7325 72.412 41.8211L72.4733 41.8824C70.6078 41.869 69.0515 41.8584 67.9455 41.853C67.4019 41.845 66.9728 41.8424 66.6637 41.8371C66.5224 41.8344 66.4105 41.8317 66.3226 41.8291C66.2453 41.8291 66.2026 41.8237 66.2 41.8211C66.2 41.8211 66.2346 41.8157 66.3092 41.8131C66.3945 41.8131 66.5038 41.8077 66.6397 41.8051C66.9435 41.8024 67.3699 41.7971 67.9082 41.7891C69.0222 41.7811 70.5945 41.7704 72.4733 41.7598H72.5319V41.8211C72.5319 42.7325 72.5372 43.7265 72.5399 44.7792C72.5399 45.3068 72.5399 45.8478 72.5399 46.3994C72.5399 46.6766 72.5399 46.9564 72.5399 47.2389C72.5399 47.3801 72.5399 47.5214 72.5399 47.6653V47.8785V47.9851V48.0864V48.0917C72.6012 48.0304 72.4546 48.177 72.4706 48.161C70.1761 48.1583 68.0255 48.1556 66.2 48.1503H66.1387V48.089C66.152 46.2076 66.1627 44.6379 66.168 43.524C66.1733 42.9883 66.1786 42.5619 66.184 42.2554C66.1866 42.1195 66.1893 42.0103 66.192 41.925C66.192 41.8504 66.1973 41.8131 66.2 41.8157L66.2026 41.8211Z" fill="#263238"/>
<path d="M71.7983 42.8578C71.8889 42.9298 71.0441 44.145 69.9142 45.5707C69.6876 45.8559 69.4691 46.1277 69.2639 46.3756L69.1307 46.5381L68.9814 46.4022C68.0007 45.5201 67.3372 44.8432 67.3984 44.7739C67.4597 44.7046 68.2246 45.2643 69.2399 46.1037L68.9548 46.1304C69.1493 45.8746 69.3625 45.5974 69.589 45.3122C70.719 43.8865 71.7103 42.7859 71.8009 42.8578H71.7983Z" fill="#FEF2CA"/>
</g>
<defs>
<clipPath id="clip0_134_11987">
<rect width="107.675" height="120" fill="white"/>
</clipPath>
</defs>
</svg>
