<svg width="24" height="16" viewBox="0 0 24 16" fill="none" xmlns="http://www.w3.org/2000/svg">
<path d="M23.0081 7.18438C21.7678 5.26625 20.1586 3.63688 18.3548 2.47203C16.3594 1.18203 14.1562 0.5 11.9841 0.5C9.99093 0.5 8.03108 1.06953 6.15889 2.19266C4.24968 3.33781 2.51999 5.01078 1.01765 7.16469C0.848044 7.40811 0.754638 7.69646 0.749297 7.99309C0.743955 8.28973 0.826918 8.58125 0.987645 8.83063C2.22561 10.768 3.81889 12.3997 5.59452 13.5486C7.59374 14.8437 9.7453 15.5 11.9841 15.5C14.1736 15.5 16.3814 14.8236 18.3684 13.5444C20.1712 12.3833 21.7772 10.7478 23.0128 8.81375C23.168 8.57017 23.25 8.28719 23.2492 7.99838C23.2484 7.70956 23.1647 7.42705 23.0081 7.18438ZM12 12.5C11.11 12.5 10.2399 12.2361 9.49992 11.7416C8.7599 11.2471 8.18312 10.5443 7.84253 9.72208C7.50194 8.89981 7.41282 7.99501 7.58645 7.12209C7.76009 6.24918 8.18867 5.44736 8.81801 4.81802C9.44734 4.18868 10.2492 3.7601 11.1221 3.58647C11.995 3.41283 12.8998 3.50195 13.7221 3.84254C14.5443 4.18314 15.2471 4.75991 15.7416 5.49993C16.2361 6.23995 16.5 7.10998 16.5 8C16.4986 9.19306 16.0241 10.3369 15.1805 11.1805C14.3368 12.0241 13.193 12.4986 12 12.5Z" fill="black"/>
</svg>
