<svg width="390" height="558" viewBox="0 0 390 558" fill="none" xmlns="http://www.w3.org/2000/svg">
<g clip-path="url(#clip0_1137_896)">
<path fill-rule="evenodd" clip-rule="evenodd" d="M-9.79838 497.833C18.4853 523.697 55.3627 540.84 100.672 548.85C169.806 561.07 239.081 560.921 308.331 549.179C401.664 533.349 463.27 475.463 483.016 381.687C497.736 307.675 497.512 232.803 483.24 158.721C476.744 125.009 465.361 96.2692 449.136 72.4317C449.62 76.293 450.097 80.2049 450.58 84.1625C452.801 102.362 455.14 121.528 458.821 141.188C472.701 215.345 472.53 290.217 457.42 364.151C437.179 457.821 375.268 515.381 281.853 530.718C212.543 542.094 143.267 541.877 74.1989 529.292C41.8495 523.397 13.831 512.861 -9.79838 497.833Z" fill="#272828"/>
<path d="M241.429 308.396V308.393V265C241.429 264.172 240.757 263.5 239.929 263.5H230.584C229.755 263.5 229.084 264.172 229.084 265V308.391C229.063 310.562 228.721 312.36 228.079 313.8L228.077 313.805C227.456 315.242 226.555 316.308 225.379 317.029C224.199 317.732 222.741 318.097 220.983 318.097C219.363 318.097 217.953 317.782 216.739 317.165C215.528 316.55 214.582 315.67 213.891 314.52C213.356 313.602 213.023 312.533 212.902 311.303C212.825 310.531 212.195 309.866 211.363 309.866H201.975C201.152 309.866 200.461 310.537 200.495 311.386C200.635 314.903 201.512 317.91 203.148 320.384C204.927 323.075 207.334 325.109 210.356 326.482L210.36 326.484C213.392 327.831 216.792 328.5 220.551 328.5C224.665 328.5 228.291 327.706 231.415 326.102L231.416 326.101C234.561 324.476 237.016 322.16 238.771 319.158L238.772 319.157C240.529 316.128 241.408 312.535 241.429 308.396ZM264.034 321.041H264.034L264.034 321.027C264.012 319.042 263.267 317.333 261.818 315.927C260.392 314.525 258.696 313.812 256.751 313.812C254.75 313.812 253.021 314.522 251.591 315.929C250.161 317.337 249.448 319.048 249.469 321.033C249.448 323.056 250.159 324.788 251.591 326.198C253.021 327.605 254.75 328.315 256.751 328.315C258.05 328.315 259.249 327.995 260.336 327.351L260.338 327.35C261.435 326.692 262.315 325.812 262.974 324.716C263.659 323.609 264.012 322.38 264.034 321.041ZM127 263.5C126.172 263.5 125.5 264.172 125.5 265V326.137C125.5 326.965 126.172 327.637 127 327.637H135.975C136.803 327.637 137.475 326.965 137.475 326.137V284.793L154.293 326.513C154.522 327.08 155.073 327.452 155.685 327.452H162.535C163.147 327.452 163.697 327.081 163.926 326.514L180.745 284.884V326.137C180.745 326.965 181.416 327.637 182.245 327.637H191.22C192.048 327.637 192.72 326.965 192.72 326.137V265C192.72 264.172 192.048 263.5 191.22 263.5H178.894C178.286 263.5 177.737 263.868 177.506 264.431L159.157 309.218C159.149 309.237 159.131 309.25 159.11 309.25C159.089 309.25 159.07 309.237 159.062 309.218L140.713 264.431C140.482 263.868 139.934 263.5 139.325 263.5H127Z" fill="#181919" stroke="black"/>
<path d="M142.033 361.204C141.12 361.204 140.583 360.646 140.583 359.689V347.379C140.583 346.068 141.357 345.284 142.678 345.284C143.806 345.284 144.429 345.757 144.902 346.96L148.747 356.488H148.833L152.668 346.96C153.141 345.768 153.775 345.284 154.913 345.284C156.224 345.284 156.997 346.058 156.997 347.379V359.689C156.997 360.646 156.46 361.204 155.547 361.204C154.634 361.204 154.108 360.646 154.108 359.689V350.537H154.022L150.187 359.915C149.907 360.603 149.478 360.903 148.801 360.903C148.114 360.903 147.662 360.592 147.394 359.926L143.559 350.537H143.473V359.689C143.473 360.646 142.947 361.204 142.033 361.204ZM161.262 365.265C159.887 365.265 159.146 364.738 159.146 363.793C159.146 363.159 159.586 362.762 160.295 362.762C160.51 362.762 160.628 362.772 160.843 362.772C161.391 362.772 161.982 362.536 162.358 361.73L162.519 361.322L158.845 351.633C158.727 351.311 158.662 350.967 158.662 350.709C158.662 349.86 159.361 349.248 160.284 349.248C161.112 349.248 161.541 349.603 161.799 350.516L164.302 358.486H164.356L166.859 350.494C167.116 349.624 167.568 349.248 168.373 349.248C169.276 349.248 169.899 349.839 169.899 350.666C169.899 350.924 169.834 351.289 169.727 351.59L166.193 361.193C165.118 364.169 163.786 365.265 161.262 365.265ZM180.168 361.258C177.837 361.258 176.043 360.194 175.313 358.411C175.13 357.96 175.044 357.573 175.044 357.101C175.044 356.166 175.635 355.575 176.548 355.575C177.365 355.575 177.837 355.962 178.095 356.843C178.385 357.885 179.105 358.465 180.136 358.465C181.49 358.465 182.22 357.627 182.22 356.069V346.981C182.22 345.907 182.822 345.284 183.842 345.284C184.863 345.284 185.464 345.907 185.464 346.981V356.091C185.464 359.389 183.488 361.258 180.168 361.258ZM193.188 361.247C189.707 361.247 187.484 359.013 187.484 355.231C187.484 351.504 189.74 349.237 193.188 349.237C196.636 349.237 198.892 351.493 198.892 355.231C198.892 359.023 196.668 361.247 193.188 361.247ZM193.188 358.852C194.724 358.852 195.701 357.552 195.701 355.242C195.701 352.954 194.713 351.633 193.188 351.633C191.662 351.633 190.663 352.954 190.663 355.242C190.663 357.552 191.641 358.852 193.188 358.852ZM204.607 361.215C202.115 361.215 200.46 359.593 200.46 356.907V350.892C200.46 349.817 201.115 349.248 202.029 349.248C202.952 349.248 203.597 349.817 203.597 350.892V356.252C203.597 357.788 204.36 358.604 205.745 358.604C207.142 358.604 208.012 357.605 208.012 356.08V350.892C208.012 349.817 208.667 349.248 209.58 349.248C210.504 349.248 211.149 349.817 211.149 350.892V359.636C211.149 360.678 210.536 361.226 209.634 361.226C208.732 361.226 208.119 360.678 208.119 359.636V358.927H208.055C207.486 360.377 206.347 361.215 204.607 361.215ZM214.758 361.226C213.813 361.226 213.19 360.635 213.19 359.593V350.827C213.19 349.828 213.802 349.248 214.704 349.248C215.585 349.248 216.187 349.828 216.187 350.827V351.579H216.251C216.552 350.15 217.497 349.302 218.647 349.302C219.066 349.302 219.399 349.398 219.624 349.592C219.925 349.828 220.075 350.215 220.075 350.752C220.075 351.246 219.925 351.622 219.624 351.88C219.323 352.138 218.872 352.277 218.26 352.288C216.831 352.31 216.326 353.115 216.326 354.479V359.593C216.326 360.635 215.714 361.226 214.758 361.226ZM222.772 361.226C221.859 361.226 221.203 360.667 221.203 359.593V350.827C221.203 349.85 221.773 349.248 222.718 349.248C223.663 349.248 224.286 349.85 224.286 350.838V351.482H224.351C224.963 350.054 226.123 349.27 227.896 349.27C230.452 349.27 231.892 350.881 231.892 353.577V359.593C231.892 360.667 231.237 361.226 230.323 361.226C229.4 361.226 228.755 360.667 228.755 359.593V354.232C228.755 352.729 228.046 351.869 226.639 351.869C225.232 351.869 224.34 352.9 224.34 354.394V359.593C224.34 360.667 223.696 361.226 222.772 361.226ZM237.284 361.183C235.093 361.183 233.428 359.765 233.428 357.691C233.428 355.597 235.039 354.383 237.918 354.211L240.819 354.039V353.276C240.819 352.202 240.067 351.579 238.885 351.579C237.929 351.579 237.349 351.891 236.651 352.793C236.307 353.18 235.909 353.373 235.405 353.373C234.642 353.373 234.094 352.879 234.094 352.17C234.094 351.923 234.148 351.697 234.255 351.461C234.792 350.086 236.64 349.237 239.025 349.237C241.979 349.237 243.902 350.763 243.902 353.083V359.646C243.902 360.688 243.268 361.226 242.376 361.226C241.528 361.226 240.937 360.753 240.872 359.829V359.238H240.808C240.163 360.463 238.724 361.183 237.284 361.183ZM238.316 358.916C239.691 358.916 240.819 358.024 240.819 356.778V355.94L238.391 356.091C237.22 356.177 236.554 356.703 236.554 357.52C236.554 358.379 237.263 358.916 238.316 358.916ZM247.575 361.226C246.662 361.226 246.007 360.667 246.007 359.593V346.906C246.007 345.832 246.662 345.263 247.575 345.263C248.499 345.263 249.144 345.832 249.144 346.906V359.593C249.144 360.667 248.499 361.226 247.575 361.226Z" fill="#383939"/>
</g>
<defs>
<clipPath id="clip0_1137_896">
<rect width="390" height="558" fill="white"/>
</clipPath>
</defs>
</svg>
