<svg width="390" height="557" viewBox="0 0 390 557" fill="none" xmlns="http://www.w3.org/2000/svg">
<g clip-path="url(#clip0_179_652)">
<path d="M-70.5838 151.735C-51.0653 57.3046 8.9916 4.71009 102.67 -11.1783C171.919 -22.921 241.195 -23.0697 310.329 -10.8486C406.783 6.20105 464.768 61.8628 483.24 157.721C497.512 231.803 497.736 306.675 483.016 380.687C463.27 474.463 401.664 532.349 308.331 548.179C239.081 559.921 169.806 560.069 100.672 547.85C4.2173 530.799 -54.0252 472.358 -72.4961 376.501C-87.4955 301.931 -86.0523 226.585 -70.5838 151.734V151.735Z" fill="#272828"/>
<path d="M-95.5838 132.735C-76.0653 38.3046 -16.0084 -14.29 77.6695 -30.1783C146.919 -41.921 216.195 -74.0697 285.329 -61.8486C381.783 -44.799 439.768 42.8628 458.24 138.721C472.512 212.803 472.736 287.675 458.016 361.687C438.27 455.463 376.664 513.349 283.331 529.179C214.081 540.921 144.806 541.069 75.6722 528.85C-20.7827 511.799 -79.0252 453.358 -97.4961 357.501C-112.496 282.93 -111.052 207.585 -95.5838 132.734V132.735Z" fill="#FEF2CA"/>
<path d="M126 263H139.996L158.74 308.75H159.48L178.224 263H192.22V326.137H181.245V282.761H180.659L163.21 325.952H155.01L137.561 282.669H136.975V326.137H126V263Z" fill="url(#paint0_linear_179_652)"/>
<path d="M229.584 263H240.929V307.393C240.908 311.462 240.045 314.967 238.339 317.906C236.633 320.824 234.249 323.075 231.187 324.657C228.145 326.219 224.6 327 220.551 327C216.852 327 213.522 326.342 210.563 325.027C207.624 323.691 205.291 321.718 203.565 319.108C201.838 316.498 200.975 313.25 200.975 309.366H212.351C212.371 311.072 212.741 312.541 213.461 313.775C214.2 315.008 215.218 315.953 216.513 316.611C217.807 317.268 219.297 317.597 220.983 317.597C222.812 317.597 224.364 317.217 225.638 316.457C226.912 315.676 227.878 314.525 228.536 313.004C229.214 311.483 229.563 309.613 229.584 307.393V263Z" fill="url(#paint1_linear_179_652)"/>
<path d="M256.751 326.815C254.881 326.815 253.278 326.157 251.942 324.842C250.606 323.527 249.949 321.924 249.969 320.033C249.949 318.183 250.606 316.601 251.942 315.285C253.278 313.97 254.881 313.312 256.751 313.312C258.56 313.312 260.132 313.97 261.468 315.285C262.825 316.601 263.513 318.183 263.534 320.033C263.513 321.286 263.184 322.427 262.547 323.455C261.931 324.482 261.109 325.304 260.081 325.921C259.074 326.517 257.964 326.815 256.751 326.815Z" fill="url(#paint2_linear_179_652)"/>
<path d="M142.033 360.204C141.12 360.204 140.583 359.646 140.583 358.689V346.379C140.583 345.068 141.357 344.284 142.678 344.284C143.806 344.284 144.429 344.757 144.902 345.96L148.747 355.488H148.833L152.668 345.96C153.141 344.768 153.775 344.284 154.913 344.284C156.224 344.284 156.997 345.058 156.997 346.379V358.689C156.997 359.646 156.46 360.204 155.547 360.204C154.634 360.204 154.108 359.646 154.108 358.689V349.537H154.022L150.187 358.915C149.907 359.603 149.478 359.903 148.801 359.903C148.114 359.903 147.662 359.592 147.394 358.926L143.559 349.537H143.473V358.689C143.473 359.646 142.947 360.204 142.033 360.204ZM161.262 364.265C159.887 364.265 159.146 363.738 159.146 362.793C159.146 362.159 159.586 361.762 160.295 361.762C160.51 361.762 160.628 361.772 160.843 361.772C161.391 361.772 161.982 361.536 162.358 360.73L162.519 360.322L158.845 350.633C158.727 350.311 158.662 349.967 158.662 349.709C158.662 348.86 159.361 348.248 160.284 348.248C161.112 348.248 161.541 348.603 161.799 349.516L164.302 357.486H164.356L166.859 349.494C167.116 348.624 167.568 348.248 168.373 348.248C169.276 348.248 169.899 348.839 169.899 349.666C169.899 349.924 169.834 350.289 169.727 350.59L166.193 360.193C165.118 363.169 163.786 364.265 161.262 364.265ZM180.168 360.258C177.837 360.258 176.043 359.194 175.313 357.411C175.13 356.96 175.044 356.573 175.044 356.101C175.044 355.166 175.635 354.575 176.548 354.575C177.365 354.575 177.837 354.962 178.095 355.843C178.385 356.885 179.105 357.465 180.136 357.465C181.49 357.465 182.22 356.627 182.22 355.069V345.981C182.22 344.907 182.822 344.284 183.842 344.284C184.863 344.284 185.464 344.907 185.464 345.981V355.091C185.464 358.389 183.488 360.258 180.168 360.258ZM193.188 360.247C189.707 360.247 187.484 358.013 187.484 354.231C187.484 350.504 189.74 348.237 193.188 348.237C196.636 348.237 198.892 350.493 198.892 354.231C198.892 358.023 196.668 360.247 193.188 360.247ZM193.188 357.852C194.724 357.852 195.701 356.552 195.701 354.242C195.701 351.954 194.713 350.633 193.188 350.633C191.662 350.633 190.663 351.954 190.663 354.242C190.663 356.552 191.641 357.852 193.188 357.852ZM204.607 360.215C202.115 360.215 200.46 358.593 200.46 355.907V349.892C200.46 348.817 201.115 348.248 202.029 348.248C202.952 348.248 203.597 348.817 203.597 349.892V355.252C203.597 356.788 204.36 357.604 205.745 357.604C207.142 357.604 208.012 356.605 208.012 355.08V349.892C208.012 348.817 208.667 348.248 209.58 348.248C210.504 348.248 211.149 348.817 211.149 349.892V358.636C211.149 359.678 210.536 360.226 209.634 360.226C208.732 360.226 208.119 359.678 208.119 358.636V357.927H208.055C207.486 359.377 206.347 360.215 204.607 360.215ZM214.758 360.226C213.813 360.226 213.19 359.635 213.19 358.593V349.827C213.19 348.828 213.802 348.248 214.704 348.248C215.585 348.248 216.187 348.828 216.187 349.827V350.579H216.251C216.552 349.15 217.497 348.302 218.647 348.302C219.066 348.302 219.399 348.398 219.624 348.592C219.925 348.828 220.075 349.215 220.075 349.752C220.075 350.246 219.925 350.622 219.624 350.88C219.323 351.138 218.872 351.277 218.26 351.288C216.831 351.31 216.326 352.115 216.326 353.479V358.593C216.326 359.635 215.714 360.226 214.758 360.226ZM222.772 360.226C221.859 360.226 221.203 359.667 221.203 358.593V349.827C221.203 348.85 221.773 348.248 222.718 348.248C223.663 348.248 224.286 348.85 224.286 349.838V350.482H224.351C224.963 349.054 226.123 348.27 227.896 348.27C230.452 348.27 231.892 349.881 231.892 352.577V358.593C231.892 359.667 231.237 360.226 230.323 360.226C229.4 360.226 228.755 359.667 228.755 358.593V353.232C228.755 351.729 228.046 350.869 226.639 350.869C225.232 350.869 224.34 351.9 224.34 353.394V358.593C224.34 359.667 223.696 360.226 222.772 360.226ZM237.284 360.183C235.093 360.183 233.428 358.765 233.428 356.691C233.428 354.597 235.039 353.383 237.918 353.211L240.819 353.039V352.276C240.819 351.202 240.067 350.579 238.885 350.579C237.929 350.579 237.349 350.891 236.651 351.793C236.307 352.18 235.909 352.373 235.405 352.373C234.642 352.373 234.094 351.879 234.094 351.17C234.094 350.923 234.148 350.697 234.255 350.461C234.792 349.086 236.64 348.237 239.025 348.237C241.979 348.237 243.902 349.763 243.902 352.083V358.646C243.902 359.688 243.268 360.226 242.376 360.226C241.528 360.226 240.937 359.753 240.872 358.829V358.238H240.808C240.163 359.463 238.724 360.183 237.284 360.183ZM238.316 357.916C239.691 357.916 240.819 357.024 240.819 355.778V354.94L238.391 355.091C237.22 355.177 236.554 355.703 236.554 356.52C236.554 357.379 237.263 357.916 238.316 357.916ZM247.575 360.226C246.662 360.226 246.007 359.667 246.007 358.593V345.906C246.007 344.832 246.662 344.263 247.575 344.263C248.499 344.263 249.144 344.832 249.144 345.906V358.593C249.144 359.667 248.499 360.226 247.575 360.226Z" fill="#383939"/>
</g>
<defs>
<linearGradient id="paint0_linear_179_652" x1="124.527" y1="294.81" x2="260.739" y2="294.81" gradientUnits="userSpaceOnUse">
<stop stop-color="#74563A"/>
<stop offset="0.505" stop-color="#E8D787"/>
<stop offset="1" stop-color="#74563A"/>
</linearGradient>
<linearGradient id="paint1_linear_179_652" x1="124.527" y1="294.81" x2="260.739" y2="294.81" gradientUnits="userSpaceOnUse">
<stop stop-color="#74563A"/>
<stop offset="0.505" stop-color="#E8D787"/>
<stop offset="1" stop-color="#74563A"/>
</linearGradient>
<linearGradient id="paint2_linear_179_652" x1="124.527" y1="294.81" x2="260.739" y2="294.81" gradientUnits="userSpaceOnUse">
<stop stop-color="#74563A"/>
<stop offset="0.505" stop-color="#E8D787"/>
<stop offset="1" stop-color="#74563A"/>
</linearGradient>
<clipPath id="clip0_179_652">
<rect width="390" height="557" fill="white"/>
</clipPath>
</defs>
</svg>
