<svg width="48" height="32" viewBox="0 0 48 32" fill="none" xmlns="http://www.w3.org/2000/svg">
<rect x="0.5" y="0.5" width="47" height="31" rx="7.5" stroke="black"/>
<path fill-rule="evenodd" clip-rule="evenodd" d="M6.15391 11.0784C6.53891 11.6334 8.34892 12.7284 8.29892 13.3385C8.29892 14.3335 7.19891 16.5635 7.66391 17.3236C8.16391 18.1386 10.0889 16.6385 10.7289 16.2185C11.7989 15.5135 11.9539 15.7035 13.4589 16.6785C16.6939 18.7686 16.1689 16.3635 15.3189 14.2685C14.8739 12.7534 15.9489 12.3934 17.0389 11.4234C19.3889 9.09835 16.0289 9.53836 14.1589 9.37336C13.5289 9.29836 13.0489 7.1133 12.4939 6.33328C11.2989 4.23323 10.0939 8.02833 9.66391 8.95335C9.25391 9.96337 4.19891 8.66834 6.14891 11.0784H6.15391Z" fill="#FFCD1D"/>
<path d="M8.13896 18.2679C8.03896 18.2679 7.93895 18.2579 7.83895 18.2379C7.50395 18.1679 7.23395 17.9779 7.05895 17.6879C6.61395 16.9579 6.93396 15.8728 7.26896 14.7178C7.41396 14.2278 7.57395 13.6728 7.58895 13.3728C7.45395 13.1478 6.88395 12.6828 6.57395 12.4278C6.15895 12.0828 5.79395 11.7877 5.58895 11.5027C5.36895 11.2277 4.76396 10.4527 5.09896 9.6977C5.47396 8.85268 6.63396 8.78768 7.75396 8.72768C8.15896 8.70268 8.81895 8.66767 9.05895 8.57767C9.11395 8.44767 9.17396 8.30766 9.23896 8.14766C9.91896 6.46762 10.574 5.07258 11.669 5.00258C12.049 4.97758 12.614 5.12259 13.099 5.95261C13.354 6.32262 13.5639 6.85763 13.7889 7.41764C13.9439 7.81765 14.199 8.45767 14.369 8.67767C14.644 8.69767 14.969 8.70767 15.314 8.71767C16.749 8.75767 18.104 8.79268 18.479 9.7427C18.799 10.5527 18.099 11.3777 17.544 11.9277C17.284 12.1628 17.049 12.3478 16.829 12.5178C16.014 13.1528 15.804 13.3528 15.994 14.0378C16.834 16.1278 16.894 17.3179 16.189 17.9029C15.359 18.5879 14.094 17.9279 13.079 17.2729L12.814 17.1029C12.0973 16.6362 11.5323 16.5379 11.119 16.8079C11.044 16.8579 10.954 16.9229 10.849 16.9929C9.87896 17.6679 8.93896 18.2679 8.13896 18.2679ZM9.00396 13.3578C8.99896 13.8478 8.81896 14.4628 8.62896 15.1178C8.48896 15.6028 8.23396 16.4629 8.25396 16.8379C8.56396 16.7729 9.16395 16.4329 10.0389 15.8278C10.1539 15.7478 10.254 15.6778 10.339 15.6228C11.729 14.7028 12.274 15.0578 13.584 15.9128L13.844 16.0828C14.664 16.6129 15.079 16.7379 15.249 16.7679C15.269 16.5529 15.234 15.9428 14.659 14.5378L14.634 14.4728C14.144 12.8028 15.104 12.0578 15.949 11.4027C16.144 11.2477 16.354 11.0877 16.564 10.8977C16.859 10.6077 16.9989 10.4127 17.0689 10.2927C16.6789 10.1727 15.779 10.1477 15.264 10.1327C14.869 10.1227 14.454 10.1127 14.094 10.0777C13.269 9.9827 12.894 9.03268 12.459 7.93766C12.279 7.48765 12.0789 6.97763 11.9139 6.74263L11.874 6.68262C11.809 6.56762 11.754 6.49762 11.719 6.45262C11.454 6.66262 11.059 7.40764 10.544 8.67767C10.449 8.91268 10.3689 9.10768 10.3039 9.24768C9.99395 10.0177 8.93896 10.0777 7.82896 10.1377C7.41896 10.1627 6.77395 10.1977 6.46395 10.2877C6.50395 10.3627 6.57395 10.4727 6.69895 10.6227L6.72895 10.6677C6.81895 10.7977 7.19395 11.1027 7.46395 11.3277C8.30395 12.0178 9.03396 12.6178 8.99896 13.3528L9.00396 13.3578Z" fill="#2B2A29"/>
<path fill-rule="evenodd" clip-rule="evenodd" d="M11.7784 22.3182C13.7084 22.3182 15.2834 21.6482 15.2834 20.8232C15.2834 19.9981 13.7084 19.3281 11.7784 19.3281C9.84844 19.3281 8.27344 19.9981 8.27344 20.8232C8.27344 21.6482 9.84844 22.3182 11.7784 22.3182Z" fill="#FFBB96"/>
<path fill-rule="evenodd" clip-rule="evenodd" d="M35.2531 22.3182C37.1831 22.3182 38.758 21.6482 38.758 20.8232C38.758 19.9981 37.1831 19.3281 35.2531 19.3281C33.3231 19.3281 31.748 19.9981 31.748 20.8232C31.748 21.6482 33.3231 22.3182 35.2531 22.3182Z" fill="#FFBB96"/>
<path fill-rule="evenodd" clip-rule="evenodd" d="M18.8833 22.917V20.627C21.9733 20.692 25.0583 20.692 28.1483 20.627V22.917C28.1733 24.587 27.2983 26.1421 25.8533 26.9871C24.4083 27.8321 22.6233 27.8321 21.1783 26.9871C19.7333 26.1421 18.8583 24.587 18.8833 22.917Z" fill="#2B2A29"/>
<path fill-rule="evenodd" clip-rule="evenodd" d="M27.2883 23.9234C26.6633 25.7634 25.1733 26.9635 23.5133 26.9635C21.8533 26.9635 20.3633 25.7584 19.7383 23.9234C21.9383 21.7833 25.0883 21.7833 27.2883 23.9234Z" fill="#FF3C2E"/>
<path fill-rule="evenodd" clip-rule="evenodd" d="M30.7282 11.0784C31.1132 11.6334 32.9232 12.7284 32.8732 13.3385C32.8732 14.3335 31.7732 16.5635 32.2382 17.3236C32.7382 18.1386 34.6632 16.6385 35.3032 16.2185C36.3732 15.5135 36.5282 15.7035 38.0332 16.6785C41.2682 18.7686 40.7432 16.3635 39.8932 14.2685C39.4482 12.7534 40.5232 12.3934 41.6132 11.4234C43.9632 9.09835 40.6032 9.53836 38.7332 9.37336C38.1032 9.29836 37.6232 7.1133 37.0682 6.33328C35.8732 4.23323 34.6682 8.02833 34.2382 8.95335C33.8282 9.96337 28.7732 8.66834 30.7232 11.0784H30.7282Z" fill="#FFCD1D"/>
<path d="M32.7132 18.2679C32.6132 18.2679 32.5132 18.2579 32.4132 18.2379C32.0782 18.1679 31.8082 17.9779 31.6332 17.6879C31.1882 16.9579 31.5082 15.8728 31.8432 14.7178C31.9882 14.2278 32.1482 13.6728 32.1632 13.3728C32.0282 13.1478 31.4632 12.6828 31.1482 12.4278C30.7332 12.0828 30.3682 11.7877 30.1632 11.5027C29.9432 11.2277 29.3382 10.4577 29.6732 9.6977C30.0482 8.85268 31.2082 8.78768 32.3282 8.72768C32.7332 8.70268 33.3932 8.66767 33.6332 8.57767C33.6882 8.44767 33.7482 8.30766 33.8132 8.14766C34.4932 6.46762 35.1482 5.07258 36.2432 5.00258C36.6332 4.97758 37.1882 5.12259 37.6732 5.95261C37.9282 6.32762 38.1382 6.85763 38.3632 7.41764C38.5182 7.81765 38.7732 8.45767 38.9432 8.67767C39.2182 8.69767 39.5432 8.70767 39.8882 8.71767C41.3232 8.75767 42.6782 8.79268 43.0532 9.7427C43.3732 10.5527 42.6732 11.3777 42.1182 11.9277C41.8582 12.1628 41.6232 12.3478 41.4032 12.5178C40.5882 13.1528 40.3782 13.3528 40.5682 14.0378C41.4082 16.1278 41.4682 17.3179 40.7632 17.9029C39.9332 18.5879 38.6682 17.9279 37.6532 17.2729L37.3882 17.1029C36.6716 16.6362 36.1065 16.5379 35.6932 16.8079C35.6182 16.8579 35.5282 16.9229 35.4232 16.9929C34.4532 17.6679 33.5132 18.2679 32.7132 18.2679ZM33.5832 13.3578C33.5782 13.8478 33.3982 14.4628 33.2082 15.1178C33.0682 15.6028 32.8132 16.4629 32.8332 16.8379C33.1432 16.7729 33.7432 16.4329 34.6182 15.8278C34.7332 15.7478 34.8332 15.6778 34.9182 15.6228C36.3082 14.7028 36.8532 15.0578 38.1632 15.9128L38.4232 16.0828C39.2432 16.6129 39.6582 16.7379 39.8282 16.7679C39.8482 16.5529 39.8132 15.9428 39.2382 14.5378L39.2132 14.4728C38.7232 12.8028 39.6832 12.0578 40.5282 11.4027C40.7232 11.2477 40.9332 11.0877 41.1432 10.8977C41.4382 10.6077 41.5782 10.4127 41.6482 10.2927C41.2582 10.1727 40.3582 10.1477 39.8432 10.1327C39.4482 10.1227 39.0332 10.1127 38.6732 10.0777C37.8482 9.9827 37.4732 9.03268 37.0382 7.93766C36.8582 7.48765 36.6582 6.97763 36.4932 6.74263L36.4532 6.68262C36.3882 6.56762 36.3332 6.49762 36.2982 6.45262C36.0332 6.66262 35.6382 7.41264 35.1232 8.67767C35.0282 8.91268 34.9482 9.10768 34.8832 9.24768C34.5732 10.0177 33.5182 10.0777 32.4082 10.1377C31.9982 10.1627 31.3532 10.1977 31.0432 10.2877C31.0832 10.3627 31.1532 10.4727 31.2782 10.6227L31.3082 10.6677C31.3982 10.7977 31.7732 11.1027 32.0432 11.3277C32.8832 12.0178 33.6132 12.6178 33.5782 13.3528L33.5832 13.3578Z" fill="#2B2A29"/>
</svg>
