<svg width="40" height="24" viewBox="0 0 40 24" fill="none" xmlns="http://www.w3.org/2000/svg">
<path d="M14.3441 14.0053C14.1528 14.0053 13.9616 13.9309 13.8128 13.7875L5.30704 5.28171C5.01484 4.98951 5.01484 4.51136 5.30704 4.21915C5.59925 3.92695 6.0774 3.92695 6.3696 4.21915L14.8754 12.7249C15.1676 13.0171 15.1676 13.4953 14.8754 13.7875C14.7266 13.9363 14.5354 14.0053 14.3441 14.0053Z" fill="#1E1D20"/>
<path d="M5.83832 14.0053C5.64706 14.0053 5.4558 13.9309 5.30704 13.7875C5.01484 13.4953 5.01484 13.0171 5.30704 12.7249L13.8128 4.21915C14.105 3.92695 14.5832 3.92695 14.8754 4.21915C15.1676 4.51136 15.1676 4.98951 14.8754 5.28171L6.3696 13.7875C6.22084 13.9363 6.02958 14.0053 5.83832 14.0053Z" fill="#1E1D20"/>
<path d="M34.5121 14.0053C34.3208 14.0053 34.1295 13.9309 33.9808 13.7875L25.475 5.28171C25.1828 4.98951 25.1828 4.51136 25.475 4.21915C25.7672 3.92695 26.2454 3.92695 26.5376 4.21915L35.0433 12.7249C35.3355 13.0171 35.3355 13.4953 35.0433 13.7875C34.8946 13.9363 34.7033 14.0053 34.5121 14.0053Z" fill="#1E1D20"/>
<path d="M26.0063 14.0053C25.815 14.0053 25.6238 13.9309 25.475 13.7875C25.1828 13.4953 25.1828 13.0171 25.475 12.7249L33.9808 4.21915C34.273 3.92695 34.7458 3.92695 35.0433 4.21915C35.3355 4.51136 35.3355 4.98951 35.0433 5.28171L26.5376 13.7875C26.3888 13.9363 26.1976 14.0053 26.0063 14.0053Z" fill="#1E1D20"/>
<path fill-rule="evenodd" clip-rule="evenodd" d="M20.1508 20.0666C21.6755 20.0666 22.9187 18.7118 22.9187 17.0489C22.9187 15.386 21.6755 14.0312 20.1508 14.0312C18.626 14.0312 17.3828 15.386 17.3828 17.0489C17.3828 18.7118 18.626 20.0666 20.1508 20.0666Z" fill="#1E1D20"/>
<path fill-rule="evenodd" clip-rule="evenodd" d="M3.72427 18.139C5.77501 18.139 7.44853 17.4271 7.44853 16.5504C7.44853 15.6738 5.77501 14.9619 3.72427 14.9619C1.67353 14.9619 0 15.6738 0 16.5504C0 17.4271 1.67353 18.139 3.72427 18.139Z" fill="#FFBB96"/>
<path fill-rule="evenodd" clip-rule="evenodd" d="M36.2751 18.139C38.3258 18.139 39.9993 17.4271 39.9993 16.5504C39.9993 15.6738 38.3258 14.9619 36.2751 14.9619C34.2243 14.9619 32.5508 15.6738 32.5508 16.5504C32.5508 17.4271 34.2243 18.139 36.2751 18.139Z" fill="#FFBB96"/>
</svg>
