<svg width="40" height="24" viewBox="0 0 40 24" fill="none" xmlns="http://www.w3.org/2000/svg">
<g clip-path="url(#clip0_134_15317)">
<path d="M10.8066 11.3789V23.5925" stroke="#91DDE2" stroke-width="3" stroke-linecap="round" stroke-linejoin="round"/>
<path d="M8.22461 12.627V17.4882" stroke="#91DDE2" stroke-width="3" stroke-linecap="round" stroke-linejoin="round"/>
<path d="M29.8398 11.7207V19.3151" stroke="#91DDE2" stroke-width="3" stroke-linecap="round" stroke-linejoin="round"/>
<path d="M7.16103 15.0721C6.73958 15.9901 4.96199 16.0777 3.18857 15.2641C1.41515 14.4504 0.321891 13.0483 0.739166 12.1303C1.16061 11.2123 2.9382 11.1247 4.71162 11.9384C6.48504 12.7521 7.5783 14.1541 7.15686 15.0721H7.16103Z" fill="#FCA695"/>
<path d="M32.8403 15.0721C33.2617 15.9901 35.0393 16.0777 36.8127 15.2641C38.5861 14.4504 39.6836 13.0483 39.2621 12.1303C38.8407 11.2123 37.0631 11.1247 35.2897 11.9384C33.5162 12.7521 32.423 14.1541 32.8444 15.0721H32.8403Z" fill="#FCA695"/>
<path d="M1.44745 6.97266C1.44745 10.0939 3.97614 12.6226 7.09735 12.6226C10.2186 12.6226 12.7473 10.0897 12.7473 6.97266" stroke="#261E1C" stroke-width="1.5" stroke-linecap="round" stroke-linejoin="round"/>
<path d="M27.2521 6.97266C27.2521 10.0939 29.7808 12.6226 32.902 12.6226C36.0233 12.6226 38.5519 10.0897 38.5519 6.97266" stroke="#261E1C" stroke-width="1.5" stroke-linecap="round" stroke-linejoin="round"/>
<path d="M24.0103 15.4771C24.0103 14.0167 22.2118 12.2725 20.0002 12.2725C17.7887 12.2725 15.9902 14.0167 15.9902 15.4771" stroke="#261E1C" stroke-width="1.5" stroke-linecap="round" stroke-linejoin="round"/>
<path d="M0 4.8237C0 4.8237 5.75005 4.06009 8.85875 0" stroke="#261E1C" stroke-width="1.5" stroke-linecap="round" stroke-linejoin="round"/>
<path d="M39.9994 4.8237C39.9994 4.8237 34.2452 4.06009 31.1406 0" stroke="#261E1C" stroke-width="1.5" stroke-linecap="round" stroke-linejoin="round"/>
</g>
<defs>
<clipPath id="clip0_134_15317">
<rect width="40" height="24" fill="white"/>
</clipPath>
</defs>
</svg>
