<svg width="40" height="24" viewBox="0 0 40 24" fill="none" xmlns="http://www.w3.org/2000/svg">
<g clip-path="url(#clip0_134_15291)">
<path d="M12.7473 10.0829C12.7473 13.2042 10.2186 15.7329 7.0973 15.7329C3.97601 15.7329 1.44727 13.2042 1.44727 10.0829C1.44727 6.96161 3.98018 4.43286 7.0973 4.43286C10.2144 4.43286 12.7473 6.96161 12.7473 10.0829Z" fill="#261E1C"/>
<path d="M7.93988 9.79928C7.93988 10.9009 7.04689 11.7897 5.94943 11.7897C4.85198 11.7897 3.95898 10.8967 3.95898 9.79928C3.95898 8.70182 4.85198 7.80884 5.94943 7.80884C7.04689 7.80884 7.93988 8.70182 7.93988 9.79928Z" fill="white"/>
<path d="M10.6653 8.96068C10.6653 9.59913 10.1478 10.1166 9.50939 10.1166C8.87094 10.1166 8.35352 9.59913 8.35352 8.96068C8.35352 8.32224 8.87094 7.80481 9.50939 7.80481C10.1478 7.80481 10.6653 8.32224 10.6653 8.96068Z" fill="white"/>
<path d="M38.5557 10.0827C38.5557 13.2039 36.027 15.7327 32.9057 15.7327C29.7844 15.7327 27.2557 13.2039 27.2557 10.0827C27.2557 6.96137 29.7844 4.43262 32.9057 4.43262C36.027 4.43262 38.5557 6.96137 38.5557 10.0827Z" fill="#261E1C"/>
<path d="M33.7483 9.79928C33.7483 10.9009 32.8553 11.7897 31.7578 11.7897C30.6604 11.7897 29.7674 10.8967 29.7674 9.79928C29.7674 8.70182 30.6604 7.80884 31.7578 7.80884C32.8553 7.80884 33.7483 8.70182 33.7483 9.79928Z" fill="white"/>
<path d="M36.4737 8.96056C36.4737 9.59901 35.9562 10.1164 35.3178 10.1164C34.6794 10.1164 34.1619 9.59901 34.1619 8.96056C34.1619 8.32212 34.6794 7.80469 35.3178 7.80469C35.9562 7.80469 36.4737 8.32212 36.4737 8.96056Z" fill="white"/>
<path d="M7.16118 16.8057C6.73972 17.7237 4.96209 17.8114 3.18863 16.9977C1.41517 16.184 0.321883 14.7819 0.739168 13.8639C1.16063 12.9458 2.93825 12.8582 4.71171 13.6719C6.48517 14.4856 7.57846 15.8877 7.157 16.8057H7.16118Z" fill="#FCA695"/>
<path d="M32.842 16.8057C33.2635 17.7237 35.0411 17.8114 36.8146 16.9977C38.588 16.184 39.6813 14.7819 39.264 13.8639C38.8426 12.9458 37.0649 12.8582 35.2915 13.6719C33.518 14.4856 32.4247 15.8877 32.8462 16.8057H32.842Z" fill="#FCA695"/>
<path d="M0 6.82381C0 6.82381 5.75018 6.06018 8.85895 2" stroke="#261E1C" stroke-width="1.5" stroke-linecap="round" stroke-linejoin="round"/>
<path d="M39.9996 6.82381C39.9996 6.82381 34.2494 6.06018 31.1406 2" stroke="#261E1C" stroke-width="1.5" stroke-linecap="round" stroke-linejoin="round"/>
<path d="M23.3098 14.9238C21.9202 14.9238 21.1983 15.8377 20.0007 15.8377C18.8031 15.8377 18.0812 14.9238 16.6917 14.9238C14.5134 14.9238 12.7441 16.5012 12.7441 18.4457C12.7441 20.3903 14.2172 21.9676 16.3954 21.9676C17.7849 21.9676 18.7989 20.3569 19.9965 20.3569C21.1942 20.3569 22.1289 21.9676 23.5184 21.9676C25.6967 21.9676 27.249 20.3903 27.249 18.4457C27.249 16.5012 25.4838 14.9238 23.3014 14.9238H23.3098Z" fill="#261E1C"/>
<path d="M20.0015 17.7491C18.0986 17.7491 16.5547 19.2931 16.5547 21.1959C16.5547 21.4546 16.5881 21.705 16.6423 21.947C17.9109 21.7801 18.8748 20.353 20.0015 20.353C21.1281 20.353 22.0628 21.8344 23.3606 21.9554C23.4149 21.7134 23.4482 21.4588 23.4482 21.2001C23.4482 19.2973 21.9043 17.7533 20.0015 17.7533V17.7491Z" fill="#FE6661"/>
</g>
<defs>
<clipPath id="clip0_134_15291">
<rect width="40" height="24" fill="white"/>
</clipPath>
</defs>
</svg>
