<svg width="40" height="24" viewBox="0 0 40 24" fill="none" xmlns="http://www.w3.org/2000/svg">
<g clip-path="url(#clip0_134_15269)">
<path d="M12.5011 8.84027C12.5011 12.0667 9.88721 11.8984 6.66083 11.8984C3.43445 11.8984 0.820557 12.0667 0.820557 8.84027C0.820557 5.61389 3.43445 3 6.66083 3C9.88721 3 12.5011 5.61389 12.5011 8.84027Z" fill="#261E1C"/>
<path d="M7.53119 8.54197C7.53119 9.68069 6.60814 10.5994 5.47373 10.5994C4.33932 10.5994 3.41626 9.67638 3.41626 8.54197C3.41626 7.40756 4.33932 6.4845 5.47373 6.4845C6.60814 6.4845 7.53119 7.40756 7.53119 8.54197Z" fill="white"/>
<path d="M10.3488 7.67514C10.3488 8.33508 9.81397 8.86993 9.15403 8.86993C8.49408 8.86993 7.95923 8.33508 7.95923 7.67514C7.95923 7.0152 8.49408 6.48035 9.15403 6.48035C9.81397 6.48035 10.3488 7.0152 10.3488 7.67514Z" fill="white"/>
<path d="M39.1788 8.84027C39.1788 12.0667 36.5649 11.8984 33.3386 11.8984C30.1122 11.8984 27.4983 12.0667 27.4983 8.84027C27.4983 5.61389 30.1122 3 33.3386 3C36.5649 3 39.1788 5.61389 39.1788 8.84027Z" fill="#261E1C"/>
<path d="M34.209 8.54197C34.209 9.68069 33.286 10.5994 32.1516 10.5994C31.0172 10.5994 30.0941 9.67638 30.0941 8.54197C30.0941 7.40756 31.0172 6.4845 32.1516 6.4845C33.286 6.4845 34.209 7.40756 34.209 8.54197Z" fill="white"/>
<path d="M37.0266 7.67514C37.0266 8.33508 36.4917 8.86993 35.8318 8.86993C35.1718 8.86993 34.637 8.33508 34.637 7.67514C34.637 7.0152 35.1718 6.48035 35.8318 6.48035C36.4917 6.48035 37.0266 7.0152 37.0266 7.67514Z" fill="white"/>
<path d="M6.73 15.7846C6.29435 16.7336 4.45687 16.8241 2.6237 15.983C0.790532 15.1419 -0.339568 13.6926 0.0917659 12.7437C0.527414 11.7948 2.3649 11.7042 4.19807 12.5453C6.03124 13.3864 7.16134 14.8357 6.72569 15.7846H6.73Z" fill="#FCA695"/>
<path d="M33.2707 15.7846C33.7064 16.7336 35.5438 16.8241 37.377 15.983C39.2102 15.1419 40.3403 13.6926 39.9089 12.7437C39.4733 11.7948 37.6358 11.7042 35.8026 12.5453C33.9695 13.3864 32.8394 14.8357 33.275 15.7846H33.2707Z" fill="#FCA695"/>
<path d="M20.0031 11.3848C17.2685 11.3848 14.0723 12.118 14.0723 14.1798V15.655C14.0723 18.9245 16.7336 21.5858 20.0031 21.5858C23.2726 21.5858 25.934 18.9245 25.934 15.655V14.1798C25.934 12.118 22.7378 11.3848 20.0031 11.3848Z" fill="#261E1C"/>
<path d="M21.1932 18.1221H18.8079C17.5269 18.1221 16.414 18.8165 15.8145 19.8517C16.8885 20.9257 18.368 21.59 20.0027 21.59C21.6375 21.59 23.1169 20.9257 24.191 19.8517C23.5914 18.8208 22.4743 18.1221 21.1975 18.1221H21.1932Z" fill="#FE6661"/>
</g>
<defs>
<clipPath id="clip0_134_15269">
<rect width="40" height="24" fill="white"/>
</clipPath>
</defs>
</svg>
