<svg width="40" height="24" viewBox="0 0 40 24" fill="none" xmlns="http://www.w3.org/2000/svg">
<path d="M25.27 16.7414C25.0889 16.2626 24.8344 15.8443 24.5368 15.4863C23.6872 16.7586 21.975 17.6298 19.9954 17.6298C19.9565 17.6298 19.9177 17.6255 19.8789 17.6212C19.9177 17.9705 19.9867 18.3242 20.1204 18.6735C20.8019 20.4893 22.5098 21.5287 23.933 20.9939C25.3563 20.4591 25.9558 18.5528 25.27 16.7371V16.7414Z" fill="#FE6661"/>
<path d="M12.5035 7.83964C12.5035 11.0657 9.88989 13.6793 6.66386 13.6793C3.43782 13.6793 0.824219 11.0657 0.824219 7.83964C0.824219 4.61361 3.43782 2 6.66386 2C9.88989 2 12.5035 4.61361 12.5035 7.83964Z" fill="#261E1C"/>
<path d="M7.5305 7.54553C7.5305 8.68413 6.60754 9.60277 5.47326 9.60277C4.33897 9.60277 3.41602 8.67981 3.41602 7.54553C3.41602 6.41124 4.33897 5.48828 5.47326 5.48828C6.60754 5.48828 7.5305 6.41124 7.5305 7.54553Z" fill="white"/>
<path d="M10.3503 6.67904C10.3503 7.33891 9.81547 7.87371 9.1556 7.87371C8.49573 7.87371 7.96094 7.33891 7.96094 6.67904C7.96094 6.01917 8.49573 5.48438 9.1556 5.48438C9.81547 5.48438 10.3503 6.01917 10.3503 6.67904Z" fill="white"/>
<path d="M25.1066 13.6835C25.1066 15.8615 22.8208 17.6298 19.9959 17.6298C18.9392 17.6298 17.9559 17.3796 17.1407 16.957" stroke="#261E1C" stroke-width="1.5" stroke-linecap="round" stroke-linejoin="round"/>
<path d="M6.72927 14.788C6.29367 15.7368 4.45639 15.8274 2.62341 14.9864C0.79044 14.1454 -0.339531 12.6962 0.0917564 11.7474C0.527357 10.7986 2.36464 10.708 4.19761 11.549C6.03059 12.39 7.16056 13.8392 6.72496 14.788H6.72927Z" fill="#FCA695"/>
<path d="M33.2707 14.788C33.7063 15.7368 35.5436 15.8274 37.3766 14.9864C39.2095 14.1454 40.3395 12.6962 39.9082 11.7474C39.4726 10.7986 37.6353 10.708 35.8024 11.549C33.9694 12.39 32.8394 13.8392 33.275 14.788H33.2707Z" fill="#FCA695"/>
<path d="M39.0288 7.04176C39.0288 7.04176 31.8694 4.90257 28.6348 11.0096C28.6348 11.0096 33.6248 9.07743 37.0794 11.0096" stroke="#261E1C" stroke-width="1.5" stroke-linecap="round" stroke-linejoin="round"/>
<path d="M22.5781 17.2637L23.4407 19.4848" stroke="#261E1C" stroke-linecap="round" stroke-linejoin="round"/>
</svg>
