<svg width="40" height="40" viewBox="0 0 40 40" fill="none" xmlns="http://www.w3.org/2000/svg">
<g clip-path="url(#clip0_134_15523)">
<path d="M20.0841 26.2441L14.0537 32.2745C13.0105 33.3177 11.6877 34.0362 10.2446 34.3436L10.2441 34.3438C9.35117 34.5343 8.53258 34.9792 7.88695 35.6247L7.41687 36.0948L0 28.6779L0.784922 27.893C1.21672 27.4612 1.45953 26.8755 1.45914 26.2645V16.2086C1.45914 15.5993 1.70578 15.0477 2.10531 14.6482C2.50484 14.2486 3.05641 14.002 3.6657 14.002C4.88453 14.0023 5.87227 14.99 5.87227 16.2086V19.0342L12.4188 12.4876C12.8067 12.0997 13.3152 11.9061 13.8232 11.9061C14.3316 11.9057 14.84 12.1001 15.2276 12.4876C16.003 13.2631 16.0027 14.5206 15.2272 15.2961L16.4301 14.0932C17.2091 13.3142 18.503 13.295 19.2755 14.0804C19.6555 14.4668 19.8452 14.9693 19.8455 15.4725C19.8455 15.9805 19.6512 16.4889 19.2636 16.8765L17.8128 18.3273C18.5883 17.5518 19.8454 17.5518 20.6212 18.3277C21.0088 18.7153 21.2031 19.2236 21.2031 19.7318C21.2027 20.2402 21.0091 20.7478 20.6212 21.1358L17.7984 23.9586C18.114 23.6431 18.5279 23.485 18.9414 23.4853C19.3549 23.485 19.7688 23.6431 20.0844 23.9586C20.7155 24.5895 20.7155 25.6127 20.0841 26.2441Z" fill="#EEC5C5"/>
<path d="M15.875 25.8811L17.7983 23.9579C18.4297 23.3265 19.4528 23.3265 20.0839 23.9575C20.176 24.0496 20.2544 24.1503 20.3196 24.2568C19.6972 23.8753 18.8724 23.9536 18.3333 24.4928L16.945 25.8811C16.6495 26.1766 16.1705 26.1766 15.875 25.8811Z" fill="#D8AEAE"/>
<path d="M15.522 12.8622C15.2069 12.6707 14.8498 12.5745 14.4926 12.5748C13.9845 12.5748 13.4761 12.7684 13.0882 13.1563L6.21633 20.0282L5.87305 19.6849V19.0342L12.4196 12.4876C12.8075 12.0997 13.3159 11.9061 13.824 11.9061C14.3324 11.9057 14.8408 12.1001 15.2284 12.4876C15.3435 12.6029 15.4412 12.7287 15.522 12.8622Z" fill="#D8AEAE"/>
<path d="M10.2617 20.2628L16.4569 14.0677C16.8448 13.6798 17.3532 13.4862 17.8612 13.4862C18.3697 13.4858 18.878 13.6802 19.2656 14.0677C19.3809 14.1829 19.4785 14.3087 19.5594 14.4422C19.2442 14.2507 18.8872 14.1545 18.5299 14.1548C18.0219 14.1548 17.5134 14.3484 17.1255 14.7363L11.599 20.2628C11.2297 20.6321 10.6309 20.6321 10.2617 20.2628Z" fill="#D8AEAE"/>
<path d="M13.0252 23.1156L17.8136 18.3272C18.2015 17.9393 18.7099 17.7457 19.218 17.7457C19.7264 17.7453 20.2348 17.9397 20.6223 18.3272C20.7376 18.4424 20.8352 18.5682 20.9161 18.7017C20.6009 18.5103 20.2439 18.414 19.8866 18.4143C19.3786 18.4143 18.8702 18.6079 18.4823 18.9958L14.3626 23.1155C13.9932 23.4849 13.3945 23.4849 13.0252 23.1156Z" fill="#D8AEAE"/>
<path d="M2.99742 26.2643C2.99781 26.8753 2.755 27.461 2.3232 27.8928L0.769141 29.4469L0 28.6778L0.784922 27.8928C1.21672 27.461 1.45953 26.8753 1.45922 26.2643V16.2084C1.45922 15.5992 1.70586 15.0475 2.10539 14.648C2.50492 14.2485 3.05648 14.0018 3.66578 14.0018C3.93602 14.0022 4.19461 14.0507 4.43383 14.1396C4.13445 14.2513 3.8657 14.4259 3.64359 14.648C3.24406 15.0475 2.99742 15.5991 2.99742 16.2084V26.2643Z" fill="#D8AEAE"/>
<path d="M8.50582 25.9479C8.41551 25.9479 8.32387 25.9276 8.23746 25.8846C7.93902 25.7362 7.81738 25.3738 7.96582 25.0753C8.6209 23.7584 8.36199 22.1745 7.3216 21.1341L6.2159 20.0284C5.98012 19.7927 5.98012 19.4105 6.2159 19.1747C6.4516 18.939 6.83379 18.939 7.06957 19.1747L8.17527 20.2804C9.58293 21.688 9.93316 23.831 9.04676 25.613C8.94129 25.8252 8.7277 25.9479 8.50582 25.9479Z" fill="#D8AEAE"/>
<path d="M30.1485 14.5175L36.1789 20.5479C37.2221 21.5911 37.9406 22.9139 38.248 24.357L38.2482 24.3575C38.4387 25.2504 38.8836 26.069 39.5291 26.7146L39.9992 27.1847L32.5823 34.6016L31.7974 33.8166C31.3656 33.3848 30.7799 33.142 30.1689 33.1424H20.113C19.5038 33.1424 18.9521 32.8958 18.5526 32.4963C18.153 32.0967 17.9064 31.5452 17.9064 30.9359C17.9067 29.717 18.8945 28.7293 20.113 28.7293H22.9386L16.392 22.1827C16.0041 21.7948 15.8105 21.2864 15.8105 20.7784C15.8102 20.2699 16.0045 19.7616 16.392 19.374C17.1675 18.5985 18.425 18.5989 19.2005 19.3744L17.9976 18.1715C17.2186 17.3925 17.1994 16.0985 17.9848 15.326C18.3712 14.9461 18.8737 14.7564 19.3769 14.7561C19.8849 14.7561 20.3934 14.9504 20.7809 15.338L22.2317 16.7887C21.4563 16.0133 21.4563 14.7562 22.2321 13.9803C22.6197 13.5927 23.128 13.3984 23.6362 13.3984C24.1446 13.3988 24.6523 13.5924 25.0402 13.9803L27.863 16.8031C27.5475 16.4876 27.3895 16.0737 27.3898 15.6602C27.3894 15.2466 27.5475 14.8327 27.863 14.5172C28.4939 13.8861 29.5171 13.8861 30.1485 14.5175Z" fill="#EAAC9D"/>
<path d="M31.1749 20.1152L27.8623 16.8026C27.2309 16.1712 27.2309 15.148 27.8619 14.517C27.954 14.4248 28.0547 14.3465 28.1612 14.2812C27.7797 14.9037 27.858 15.7284 28.3972 16.2676L31.1749 19.0452C31.4702 19.3407 31.4702 19.8197 31.1749 20.1152Z" fill="#DF9380"/>
<path d="M16.7666 19.0811C16.5752 19.3962 16.4789 19.7532 16.4792 20.1105C16.4792 20.6186 16.6728 21.127 17.0607 21.5149L23.9326 28.3868L23.5893 28.73H22.9386L16.392 22.1835C16.0041 21.7956 15.8105 21.2871 15.8105 20.7791C15.8102 20.2707 16.0045 19.7623 16.392 19.3747C16.5073 19.2596 16.6331 19.1619 16.7666 19.0811Z" fill="#DF9380"/>
<path d="M24.1673 24.3416L17.9721 18.1464C17.5842 17.7586 17.3906 17.2501 17.3906 16.7421C17.3902 16.2336 17.5846 15.7253 17.9721 15.3377C18.0873 15.2225 18.2131 15.1248 18.3466 15.0439C18.1552 15.3591 18.0589 15.7161 18.0592 16.0734C18.0592 16.5814 18.2528 17.0899 18.6407 17.4778L24.1673 23.0043C24.5366 23.3736 24.5366 23.9724 24.1673 24.3416Z" fill="#DF9380"/>
<path d="M27.02 21.5774L22.2316 16.789C21.8438 16.4011 21.6502 15.8927 21.6502 15.3846C21.6498 14.8762 21.8441 14.3679 22.2316 13.9803C22.3469 13.865 22.4727 13.7674 22.6062 13.6865C22.4147 14.0017 22.3184 14.3587 22.3188 14.716C22.3188 15.224 22.5124 15.7325 22.9002 16.1204L27.0199 20.24C27.3893 20.6093 27.3893 21.2081 27.02 21.5774Z" fill="#DF9380"/>
<path d="M30.1687 31.6044C30.7797 31.604 31.3654 31.8468 31.7972 32.2786L33.3512 33.8327L32.5821 34.6018L31.7972 33.8169C31.3654 33.3851 30.7797 33.1423 30.1687 33.1426H20.1128C19.5036 33.1426 18.952 32.8959 18.5524 32.4964C18.1529 32.0969 17.9062 31.5453 17.9062 30.936C17.9066 30.6658 17.9551 30.4072 18.044 30.168C18.1557 30.4673 18.3303 30.7361 18.5524 30.9582C18.952 31.3577 19.5035 31.6044 20.1128 31.6044H30.1687Z" fill="#DF9380"/>
<path d="M23.506 28.5631C23.3515 28.5631 23.197 28.5041 23.0792 28.3863C22.8434 28.1506 22.8434 27.7684 23.0792 27.5326L24.1849 26.4269C25.5925 25.0192 27.7354 24.669 29.5175 25.5554C29.8159 25.7039 29.9375 26.0662 29.7891 26.3647C29.6407 26.6632 29.2783 26.7848 28.9798 26.6364C27.6628 25.9813 26.079 26.2401 25.0386 27.2806L23.9329 28.3863C23.815 28.5041 23.6604 28.5631 23.506 28.5631Z" fill="#DF9380"/>
<path d="M26.8639 12.2667V5.70492C26.8639 4.56984 26.5351 3.45914 25.9173 2.5068L25.917 2.50641C25.5349 1.91695 25.3316 1.22953 25.3316 0.527109V0.015625H17.2611V0.869766C17.2611 1.33961 17.0745 1.79039 16.7419 2.12266L11.2709 7.59367C10.9394 7.92516 10.7734 8.35945 10.7734 8.79414C10.7734 9.22883 10.9394 9.66312 11.2709 9.99461C11.9342 10.6576 13.0089 10.6576 13.6719 9.99461L15.2092 8.45726V15.5807C15.2092 16.0028 15.3805 16.3848 15.657 16.6612C15.9334 16.938 16.3157 17.1089 16.7374 17.1089C17.5812 17.1089 18.2652 16.4245 18.2652 15.5808V16.8897C18.2652 17.7373 18.9587 18.4518 19.8063 18.4448C20.2232 18.4413 20.5998 18.2711 20.8737 17.9975C21.1502 17.7211 21.3211 17.3387 21.3211 16.917V15.3384C21.3211 16.1822 22.0051 16.8662 22.8492 16.8662C23.2709 16.8662 23.6533 16.6953 23.9297 16.4188C24.2061 16.142 24.377 15.7605 24.377 15.3384V12.2668C24.377 12.6102 24.5162 12.9213 24.7414 13.1462C24.9663 13.3713 25.2774 13.5105 25.6208 13.5105C26.3073 13.5104 26.8639 12.9537 26.8639 12.2667Z" fill="#FFDDCE"/>
<path d="M24.377 8.66211V12.2666C24.377 12.9536 24.9336 13.5102 25.6202 13.5102C25.7205 13.5102 25.8179 13.498 25.9113 13.4756C25.3652 13.3445 24.9591 12.8533 24.9591 12.2666V9.24414C24.9591 8.92273 24.6984 8.66211 24.377 8.66211Z" fill="#FFCBBE"/>
<path d="M17.1009 17.0649C16.8253 16.9976 16.5787 16.8558 16.3844 16.6612C16.108 16.3848 15.9367 16.0028 15.9367 15.5807V8.10327H15.5632L15.2091 8.45733V15.5808C15.2091 16.0029 15.3804 16.3848 15.6569 16.6612C15.9333 16.938 16.3156 17.109 16.7373 17.109C16.8627 17.1089 16.9843 17.0936 17.1009 17.0649Z" fill="#FFCBBE"/>
<path d="M18.2658 10.1755V16.9166C18.2658 17.3387 18.437 17.7207 18.7135 17.9971C18.9899 18.2739 19.3723 18.4448 19.794 18.4448C19.9194 18.4448 20.0409 18.4295 20.1576 18.4009C19.8819 18.3336 19.6353 18.1917 19.4411 17.9971C19.1647 17.7207 18.9934 17.3387 18.9934 16.9166V10.9031C18.9934 10.5013 18.6676 10.1755 18.2658 10.1755Z" fill="#FFCBBE"/>
<path d="M21.3205 10.1277V15.338C21.3205 15.7601 21.4917 16.1421 21.7682 16.4185C22.0446 16.6953 22.4269 16.8662 22.8487 16.8662C22.9741 16.8662 23.0956 16.8509 23.2123 16.8222C22.9366 16.755 22.69 16.6131 22.4958 16.4185C22.2194 16.1421 22.048 15.7601 22.048 15.338V10.8553C22.048 10.4534 21.7223 10.1277 21.3205 10.1277Z" fill="#FFCBBE"/>
<path d="M17.5789 2.95945C17.9115 2.62719 18.0981 2.17648 18.0981 1.70656V0.015625H17.2612V0.869766C17.2612 1.33961 17.0747 1.79039 16.742 2.12266L11.271 7.59367C10.9395 7.92516 10.7736 8.35945 10.7736 8.79414C10.7736 9.22883 10.9395 9.66313 11.271 9.99461C11.4182 10.1414 11.5853 10.2557 11.7638 10.3376C11.6617 10.1139 11.6105 9.87266 11.6105 9.63102C11.6105 9.19633 11.7765 8.76203 12.1079 8.43055L17.5789 2.95945Z" fill="#FFCBBE"/>
<path d="M39.2662 3.94448C38.2883 2.96659 36.703 2.96659 35.7251 3.94448L34.8455 4.82401L33.966 3.94448C32.9881 2.96659 31.4027 2.96659 30.4248 3.94448C29.4469 4.92237 29.4469 6.50776 30.4248 7.48565L34.8454 11.9063L39.2661 7.48565C40.244 6.50776 40.244 4.92237 39.2662 3.94448Z" fill="#DD636E"/>
<path d="M34.8456 11.9059L30.4249 7.48554C29.9357 6.99671 29.6914 6.35578 29.6914 5.71492C29.6914 5.07406 29.9357 4.43312 30.4249 3.94429C30.9571 3.41171 31.67 3.16921 32.3663 3.21679C31.6953 3.69882 31.3258 4.46523 31.3258 5.2507C31.3258 5.68273 31.4377 6.12007 31.6728 6.51906L34.8456 11.9059Z" fill="#DA4A54"/>
<path d="M13.3033 32.0227C12.3254 31.0448 10.7401 31.0448 9.76217 32.0227L8.88264 32.9022L8.00311 32.0227C7.02521 31.0448 5.43982 31.0448 4.46193 32.0227C3.48404 33.0006 3.48404 34.5859 4.46193 35.5638L8.88272 39.9845L13.3033 35.5638C14.2812 34.5859 14.2812 33.0006 13.3033 32.0227Z" fill="#DD636E"/>
<path d="M8.88274 39.9841L4.46204 35.5637C3.9729 35.0748 3.7286 34.4339 3.7286 33.793C3.7286 33.1522 3.9729 32.5112 4.46204 32.0224C4.9943 31.4898 5.70719 31.2473 6.40344 31.2949C5.73251 31.7769 5.36297 32.5434 5.36297 33.3288C5.36297 33.7609 5.47485 34.1982 5.70993 34.5972L8.88274 39.9841Z" fill="#DA4A54"/>
<path d="M8.34094 5.43988C7.62031 4.71926 6.45203 4.71926 5.73141 5.43988L5.08328 6.08801L4.43516 5.43988C3.71453 4.71926 2.54625 4.71926 1.82563 5.43988C1.105 6.16051 1.105 7.32879 1.82563 8.04941L5.08328 11.3071L8.34094 8.04941C9.06156 7.32879 9.06156 6.16043 8.34094 5.43988Z" fill="#DD636E"/>
<path d="M5.08336 11.3069L1.82562 8.04936C1.46516 7.68912 1.28516 7.21686 1.28516 6.74459C1.28516 6.27233 1.46516 5.80006 1.82562 5.43982C2.21789 5.04732 2.7432 4.86865 3.25625 4.90373C2.7618 5.25889 2.48953 5.82373 2.48953 6.40256C2.48953 6.72092 2.57195 7.04326 2.74516 7.33725L5.08336 11.3069Z" fill="#DA4A54"/>
</g>
<defs>
<clipPath id="clip0_134_15523">
<rect width="40" height="40" fill="white"/>
</clipPath>
</defs>
</svg>
