<svg width="40" height="40" viewBox="0 0 40 40" fill="none" xmlns="http://www.w3.org/2000/svg">
<g clip-path="url(#clip0_134_15882)">
<path d="M28.6224 13.5413H22.3556C21.9132 13.5413 21.9335 13.2038 21.6581 12.8575C21.2705 12.3702 21.2483 11.7028 21.5777 11.1975L25.955 4.43638C26.037 4.31063 25.6599 4.08646 25.5098 4.08646H22.5489C21.7852 4.08646 21.7583 3.43067 21.7224 2.66785C21.684 1.85341 21.7028 1.25 22.5088 1.25H28.4349C28.8773 1.25 29.3079 1.43617 29.5833 1.7824C29.9709 2.26971 29.9931 2.93712 29.6637 3.44249L25.1222 10.4126C25.0403 10.5384 25.1306 10.705 25.2807 10.705H28.5823C29.346 10.705 30.0031 11.2918 30.0391 12.0546C30.0774 12.869 29.4285 13.5413 28.6224 13.5413Z" fill="#A8D8F8"/>
<path d="M21.0934 2.73725C21.0547 1.92319 21.7042 1.25 22.5098 1.25H24.4008C23.5952 1.25 22.9457 1.92319 22.9844 2.73725C23.0203 3.50026 23.6775 4.08646 24.4414 4.08646H22.5504C21.7865 4.08646 21.1294 3.50026 21.0934 2.73725Z" fill="#94CDF6"/>
<path d="M23.0197 11.3492C22.6897 11.854 22.7124 12.5216 23.1001 13.0085C23.3752 13.3555 23.8054 13.5408 24.2479 13.5408H22.3569C21.9144 13.5408 21.4843 13.3555 21.2091 13.0085C20.8215 12.5216 20.7988 11.854 21.1288 11.3492L25.6699 4.37904C25.7522 4.25329 25.6614 4.08594 25.5111 4.08594H27.402C27.5524 4.08594 27.6431 4.25329 27.5609 4.37904L23.0197 11.3492Z" fill="#94CDF6"/>
<path d="M38.5818 17.7949H33.5764C33.1341 17.7949 33.0896 17.5139 32.8143 17.1676C32.4267 16.6803 32.4046 16.0129 32.7339 15.5076L35.8693 10.5025C35.9513 10.3768 35.6489 10.231 35.4987 10.231H33.7311C32.9675 10.231 32.7349 9.63987 32.6989 8.87705C32.6606 8.06261 32.8851 7.39453 33.6911 7.39453H38.4239C38.8663 7.39453 39.2969 7.5807 39.5723 7.92693C39.9599 8.41424 39.982 9.08166 39.6527 9.58702L36.3433 14.6661C36.2613 14.7918 36.3516 14.9584 36.5018 14.9584H38.5419C39.3056 14.9584 39.9627 15.5453 39.9987 16.3081C40.0368 17.1225 39.3878 17.7949 38.5818 17.7949Z" fill="#A8D8F8"/>
<path d="M34.2385 15.6023C33.9085 16.1081 33.9312 16.7756 34.3188 17.2626C34.594 17.6096 35.0242 17.7949 35.4667 17.7949H33.5757C33.1332 17.7949 32.703 17.6096 32.4279 17.2626C32.0402 16.7756 32.0175 16.1081 32.3475 15.6023L35.6567 10.5241C35.738 10.3983 35.6482 10.231 35.4979 10.231H33.7307C32.9668 10.231 32.3097 9.64479 32.2738 8.88178C32.2359 8.06772 32.8845 7.39453 33.6901 7.39453H35.5811C34.7755 7.39453 34.1269 8.06772 34.1647 8.88178C34.2007 9.64479 34.8578 10.231 35.6217 10.231H37.3888C37.5392 10.231 37.629 10.3983 37.5477 10.5241L34.2385 15.6023Z" fill="#94CDF6"/>
<path d="M28.6229 25.8336H24.879C24.4366 25.8336 24.3319 25.52 24.0565 25.1736C23.669 24.6863 23.6467 24.0189 23.9761 23.5136L25.7276 20.453C25.8095 20.3273 25.7192 20.1607 25.5691 20.1607H24.9993C24.2331 20.1607 23.7886 19.5782 23.7548 18.8128C23.719 18.0003 24.1502 17.3242 24.9548 17.3242H28.4942C28.9366 17.3242 29.3672 17.5104 29.6426 17.8566C30.0302 18.3439 30.0524 19.0113 29.723 19.5167L27.6457 22.7048C27.5637 22.8305 27.654 22.9971 27.8041 22.9971H28.5829C29.3466 22.9971 30.0037 23.584 30.0396 24.3468C30.0779 25.1613 29.429 25.8336 28.6229 25.8336Z" fill="#A8D8F8"/>
<path d="M26.9562 20.4538C27.0385 20.328 26.9477 20.1607 26.7974 20.1607H25.5969C24.941 20.0469 24.4186 19.4892 24.3883 18.8067C24.3524 17.9946 25.001 17.3242 25.8056 17.3242H24.9546C24.15 17.3242 23.5014 17.9946 23.5373 18.8067C23.5714 19.5726 24.2323 20.1607 24.9991 20.1607H25.5682C25.7186 20.1607 25.8093 20.328 25.7271 20.4538L23.6499 23.641C23.3208 24.1468 23.3426 24.8144 23.7302 25.3013C24.0054 25.6483 24.4365 25.8336 24.878 25.8336H25.729H26.1072C25.6656 25.8336 25.2345 25.6483 24.9594 25.3013C24.5717 24.8144 24.55 24.1468 24.879 23.641L26.9562 20.4538Z" fill="#94CDF6"/>
<path d="M32.1401 28.8963C32.5522 28.707 32.9703 29.1473 32.7564 29.5472C29.8188 35.0406 24.0125 38.7721 17.3355 38.7485C7.7388 38.7145 0 30.9577 0 21.3752C0 12.1353 7.22275 4.5813 16.3374 4.03367C16.4419 4.02743 16.6307 4.0227 16.8522 4.01958C17.3019 4.01334 17.5042 4.57543 17.1561 4.86021C13.9401 7.49074 11.8935 11.496 11.9133 15.9791C11.948 23.879 18.4822 30.2943 26.3814 30.1905C28.4347 30.1636 30.3833 29.7031 32.1401 28.8963Z" fill="#F7E365"/>
<path d="M32.7564 29.5493C29.8187 35.0426 24.0125 38.7744 17.3355 38.7508C7.7388 38.7167 0 30.96 0 21.3775C0 15.9589 2.48379 11.1199 6.37636 7.93359C5.31836 10.1763 4.72743 12.6818 4.72743 15.3263C4.72743 24.9088 12.4662 32.6656 22.0629 32.6996C26.086 32.7138 29.7932 31.3646 32.7469 29.0879C32.8254 29.2184 32.8433 29.3867 32.7564 29.5493Z" fill="#FFC736"/>
</g>
<defs>
<clipPath id="clip0_134_15882">
<rect width="40" height="40" fill="white"/>
</clipPath>
</defs>
</svg>
