<svg width="40" height="40" viewBox="0 0 40 40" fill="none" xmlns="http://www.w3.org/2000/svg">
<g clip-path="url(#clip0_134_15740)">
<path fill-rule="evenodd" clip-rule="evenodd" d="M20.5309 37.1418C21.0119 37.5356 21.2512 37.7497 21.4929 37.7588C21.7322 37.7496 21.9738 37.5355 22.4548 37.1418L35.1369 24.1557C38.8879 20.1424 38.8879 13.5734 35.1369 9.55789C31.7287 5.91071 26.1322 6.72125 22.5813 10.2141L21.914 10.8703C21.5273 11.2502 21.4537 11.2502 21.0579 10.8611L20.402 10.2141C16.8581 6.71891 11.2546 5.91071 7.84646 9.55789C4.09545 13.5734 4.09545 20.1424 7.84646 24.1557L9.36756 25.7145L20.5309 37.1418Z" fill="#FD8087"/>
<path fill-rule="evenodd" clip-rule="evenodd" d="M24.1436 8.93894C25.9684 11.5868 27.027 14.732 27.027 18.1052C27.027 18.4735 27.0132 18.8374 26.9879 19.1966C26.7854 22.1921 25.7452 24.9782 24.0837 27.3567C23.352 28.4043 22.5005 29.3736 21.5432 30.2486C20.5215 31.1835 19.3823 32.0078 18.1466 32.7008C17.7231 32.938 17.2882 33.1613 16.8418 33.3685L20.5307 37.1446C21.0116 37.5384 21.251 37.7525 21.4927 37.7617C21.732 37.7525 21.9736 37.5383 22.4546 37.1446L26.3345 33.1705L35.1366 24.1584C38.1005 20.9878 38.7219 16.2194 37.0029 12.3789C36.5449 11.3589 35.9236 10.4033 35.1366 9.56058C34.6187 9.008 34.0504 8.55667 33.4474 8.20214C31.4822 7.04863 29.1418 6.91738 26.9327 7.59425C25.9638 7.89128 25.018 8.34722 24.1436 8.93894Z" fill="#FE636E"/>
<path d="M25.2325 22.7516C25.2289 22.7516 25.2253 22.7515 25.2218 22.7515C25.0053 22.7477 24.8075 22.628 24.7033 22.4382L21.5831 16.7494L19.26 20.8105C19.1547 20.9946 18.9607 21.1099 18.7487 21.1144C18.5352 21.1183 18.338 21.0117 18.2252 20.8323L16.7822 18.538L15.6932 20.3477C15.5841 20.5292 15.3878 20.6402 15.1761 20.6402H11.4044C11.071 20.6402 10.8008 20.3698 10.8008 20.0363C10.8008 19.7027 11.071 19.4323 11.4044 19.4323H14.8349L16.2537 17.0746C16.3618 16.895 16.5552 16.7842 16.7648 16.7822C16.7669 16.7821 16.7688 16.7821 16.7708 16.7821C16.9781 16.7821 17.1711 16.8886 17.2816 17.0644L18.7115 19.3376L21.0703 15.2141C21.1779 15.026 21.3779 14.9102 21.5941 14.9102C21.596 14.9102 21.5977 14.9102 21.5996 14.9102C21.818 14.9122 22.0183 15.032 22.1234 15.2236L25.2539 20.9315L26.8333 18.2789C26.9421 18.0961 27.1391 17.9841 27.3519 17.9841H32.3823C32.7157 17.9841 32.9859 18.2545 32.9859 18.588C32.9859 18.9215 32.7157 19.1919 32.3823 19.1919H27.6949L25.751 22.4567C25.642 22.6397 25.4449 22.7516 25.2325 22.7516Z" fill="#F8F2F0"/>
<path fill-rule="evenodd" clip-rule="evenodd" d="M33.4484 13.4252C37.0567 13.4252 40 10.4803 40 6.86773C40 3.25742 37.0567 0.3125 33.4484 0.3125C29.8377 0.3125 26.8945 3.25742 26.8945 6.86773C26.8945 10.4803 29.8377 13.4252 33.4484 13.4252Z" fill="#F8F2F0"/>
<path fill-rule="evenodd" clip-rule="evenodd" d="M31.0992 0.745391C33.4027 1.76313 35.009 4.06563 35.009 6.7457C35.009 6.78711 35.009 6.82859 35.0067 6.86773C34.9929 7.62984 34.8502 8.35977 34.5971 9.03438C33.9436 10.7935 32.5536 12.1957 30.8047 12.868C31.6124 13.2273 32.5076 13.4252 33.4488 13.4252C34.7582 13.4252 35.9802 13.0407 37.0042 12.3776C38.8084 11.2079 40.0004 9.17711 40.0004 6.86773C40.0004 3.2482 37.0663 0.3125 33.4487 0.3125C32.6203 0.3125 31.8287 0.464453 31.0992 0.745391Z" fill="#D6DCEA"/>
<path d="M35.8327 6.26422H34.0522V4.48281C34.0522 4.1493 33.782 3.87891 33.4486 3.87891C33.1152 3.87891 32.845 4.1493 32.845 4.48281V6.2643H31.0645C30.7312 6.2643 30.4609 6.53469 30.4609 6.8682C30.4609 7.20172 30.7312 7.47211 31.0645 7.47211H32.845V9.25359C32.845 9.58711 33.1152 9.8575 33.4486 9.8575C33.782 9.8575 34.0522 9.58711 34.0522 9.25359V7.47203H35.8327C36.166 7.47203 36.4363 7.20164 36.4363 6.86812C36.4363 6.53461 36.1661 6.26422 35.8327 6.26422Z" fill="#FD8087"/>
<path fill-rule="evenodd" clip-rule="evenodd" d="M5.59 27.1759L4.24609 31.5369L5.59 36.158L11.7803 37.8434L16.8016 39.2088C19.731 40.1206 21.0243 39.6002 23.7191 38.7345L33.5937 35.5663C36.4287 34.6568 36.0054 30.7563 31.8563 32.0895L26.3356 33.1693L25.4335 33.3466C24.0942 33.6067 23.9101 33.7149 22.5593 33.5055L18.1478 32.6996L17.347 32.5523C15.5382 31.9744 16.2423 29.5521 17.821 29.7916C18.8888 29.9274 20.3202 30.1208 21.5444 30.2474C21.5697 30.2497 21.595 30.252 21.618 30.2543C23.9814 30.4938 24.9295 28.7277 24.085 27.3555C23.7652 26.8328 23.1829 26.3654 22.3199 26.0914L18.9946 25.4813C16.8384 25.0852 15.3057 25.578 11.9598 26.1283L10.0751 26.4392L5.59 27.1759Z" fill="#FED1A3"/>
<path fill-rule="evenodd" clip-rule="evenodd" d="M0 26.3961V37.0221C0 37.1556 0.140391 37.2639 0.310703 37.2639H5.2768C5.44938 37.2639 5.58977 37.1557 5.58977 37.0221V36.1587V27.1766V26.3961C5.58977 26.2626 5.44938 26.1543 5.2768 26.1543H0.310703C0.140391 26.1544 0 26.2626 0 26.3961Z" fill="#99E6FC"/>
<path fill-rule="evenodd" clip-rule="evenodd" d="M0 35.3887V37.0212C0 37.1547 0.140391 37.263 0.310703 37.263H5.2768C5.44938 37.263 5.58977 37.1548 5.58977 37.0212V36.1577V35.3887C5.58977 35.5199 5.44938 35.6305 5.2768 35.6305H0.310703C0.140391 35.6305 0 35.5199 0 35.3887Z" fill="#62DBFB"/>
<path fill-rule="evenodd" clip-rule="evenodd" d="M5.58984 35.3884V36.1574L11.7802 37.8428L16.8014 39.2082C19.7309 40.12 21.0241 39.5996 23.7189 38.7339L33.5935 35.5657C35.1929 35.0545 35.7544 33.5902 35.1975 32.6484C34.9237 33.1918 34.3875 33.6799 33.5935 33.9332L23.7189 37.1014C21.0241 37.9648 19.7309 38.4875 16.8014 37.5757L11.7802 36.2103L5.58984 34.5226V35.3884Z" fill="#FFBC85"/>
<path fill-rule="evenodd" clip-rule="evenodd" d="M17.821 28.1584C16.5691 27.9696 15.8672 29.4502 16.5299 30.3596C16.7946 29.9659 17.2503 29.7057 17.821 29.7909C18.8887 29.9267 20.3201 30.1201 21.5443 30.2467L21.618 30.2536C23.8709 30.4816 24.8374 28.8905 24.1931 27.5527C24.0159 27.8935 23.719 28.1859 23.3094 28.3816C22.8721 28.5912 22.3038 28.6902 21.618 28.6211L21.5443 28.6142C20.3201 28.4877 18.8888 28.2942 17.821 28.1584Z" fill="#FFBC85"/>
</g>
<defs>
<clipPath id="clip0_134_15740">
<rect width="40" height="40" fill="white"/>
</clipPath>
</defs>
</svg>
