<svg width="40" height="40" viewBox="0 0 40 40" fill="none" xmlns="http://www.w3.org/2000/svg">
<path d="M39.9393 36.3419L37.5955 29.3107L36.4843 29.6815L35.373 29.3107L33.0293 36.3419L35.2518 37.0835L36.4843 33.3859L37.7168 37.0835L39.9393 36.3419Z" fill="#FF9F00"/>
<path d="M37.6562 11.6816H35.3124V24.9941H37.6562V11.6816Z" fill="#FF9F00"/>
<path d="M37.6562 24.0332C37.2813 23.8926 36.9062 23.8224 36.4844 23.8224C36.0625 23.8224 35.6874 23.8926 35.3125 24.0332C33.953 24.502 32.9688 25.8145 32.9688 27.338C32.9688 29.2832 34.539 30.8536 36.4844 30.8536C38.4298 30.8536 40 29.2832 40 27.338C40 25.8145 39.0157 24.502 37.6562 24.0332Z" fill="#FDBF00"/>
<path d="M9.45312 12.7599V20.3068C9.45312 23.6584 13.9766 26.1662 20 26.1662C26.0234 26.1662 30.5469 23.6584 30.5469 20.3068V12.7599H9.45312Z" fill="#53433F"/>
<path d="M30.5469 12.7599V20.3068C30.5469 23.6584 26.0234 26.1662 20 26.1662V12.7599H30.5469Z" fill="#3E322E"/>
<path d="M20 2.91614L0 10.9318L20 18.9473L35.3125 12.8301L37.6562 11.8925L40 10.9317L20 2.91614Z" fill="#68544F"/>
<path d="M40 10.9318L37.6562 11.8926L35.3125 12.8302L20 18.9473V2.91614L40 10.9318Z" fill="#53433F"/>
</svg>
