<svg width="40" height="40" viewBox="0 0 40 40" fill="none" xmlns="http://www.w3.org/2000/svg">
<g clip-path="url(#clip0_134_15666)">
<path d="M26.551 10.158C27.0863 9.26047 28.0664 8.65898 29.1873 8.65898C30.8817 8.65898 32.2552 10.0326 32.2552 11.7269C32.2552 11.849 32.2473 11.9692 32.2334 12.0877C32.6029 11.984 32.9773 11.93 33.347 11.93C33.6895 11.93 34.0126 11.9772 34.3119 12.068C34.3193 11.9552 34.3244 11.8416 34.3244 11.727C34.3244 8.88977 32.0244 6.58984 29.1873 6.58984C27.4964 6.58984 25.9967 7.40695 25.0605 8.66766L26.551 10.158Z" fill="#FED2A4"/>
<path d="M8.47055 20.3559L8.57672 20.3368L8.52539 20.2419C8.4375 20.0794 8.36211 19.9149 8.29766 19.7498C6.80945 19.5384 5.66484 18.2598 5.66484 16.7132C5.66484 15.0188 7.03844 13.6453 8.73273 13.6453C9.61937 13.6453 10.4177 14.0219 10.9778 14.6233C11.0974 14.0973 11.3459 13.6328 11.7152 13.2635C11.8546 13.1241 12.0074 13.0023 12.1718 12.8976C11.2613 12.0764 10.0555 11.5762 8.73281 11.5762C5.8957 11.5762 3.5957 13.8762 3.5957 16.7133C3.5957 18.7668 4.80102 20.5382 6.5425 21.3605C6.98719 20.8637 7.66062 20.5018 8.47055 20.3559Z" fill="#FED2A4"/>
<path d="M22.3779 15.1268C22.6004 15.0208 22.8478 14.9668 23.1157 14.9668C23.5605 14.9668 24.0579 15.1174 24.5541 15.4025L24.6562 15.4611L24.6706 15.3442C24.9215 13.3055 26 11.8258 27.235 11.8258C28.1299 11.8258 28.9546 12.5892 29.4409 13.8679L29.4892 13.9949L29.5747 13.8893C29.6988 13.7358 29.829 13.5907 29.9617 13.4572L21.87 5.36552C21.7047 5.20028 21.4352 5.21122 21.2808 5.38661C19.5616 7.33849 19.1693 10.0489 20.1008 12.3486C21.1178 12.4522 22.0063 13.5553 22.3779 15.1268Z" fill="#FB2B3A"/>
<path d="M22.3779 15.1268C22.6004 15.0208 22.8478 14.9668 23.1157 14.9668C23.1958 14.9668 23.2783 14.9733 23.3615 14.9831C21.379 12.5854 21.3175 9.13481 23.1747 6.67028L21.87 5.36552C21.7047 5.20028 21.4352 5.21122 21.2808 5.38661C19.5616 7.33849 19.1693 10.0489 20.1008 12.3486C21.1178 12.4522 22.0063 13.5553 22.3779 15.1268Z" fill="#E41F2D"/>
<path d="M23.3437 13.2638C23.1938 13.2638 23.0438 13.2066 22.9294 13.0922C22.7006 12.8633 22.7006 12.4923 22.9294 12.2636L23.578 11.615C23.8069 11.3862 24.1779 11.3862 24.4066 11.615C24.6355 11.8438 24.6355 12.2148 24.4066 12.4436L23.758 13.0922C23.6436 13.2066 23.4937 13.2638 23.3437 13.2638Z" fill="#FE646F"/>
<path d="M23.1438 10.3828H22.2266C21.903 10.3828 21.6406 10.1205 21.6406 9.79688C21.6406 9.47328 21.903 9.21094 22.2266 9.21094H23.1438C23.4674 9.21094 23.7298 9.47328 23.7298 9.79688C23.7298 10.1205 23.4674 10.3828 23.1438 10.3828Z" fill="#FE646F"/>
<path d="M16.9511 8.36511C19.189 6.12722 19.2871 2.55988 17.2455 0.205346C17.0924 0.0287839 16.8213 0.0190964 16.656 0.184331L8.77034 8.07011C8.60511 8.23535 8.6148 8.50644 8.79136 8.65956C11.1458 10.7011 14.7132 10.603 16.9511 8.36511Z" fill="#FD4755"/>
<path d="M10.2825 6.82705C10.231 6.78236 10.1954 6.72713 10.1725 6.66791L8.77027 8.07017C8.60503 8.23541 8.61472 8.5065 8.79128 8.65963C11.1458 10.7013 14.7132 10.6031 16.951 8.36525C17.3883 7.92799 17.7428 7.43947 18.0167 6.91955C15.7719 8.77431 12.4928 8.74361 10.2825 6.82705Z" fill="#FB2B3A"/>
<path d="M15.2582 7.37342C15.1083 7.37342 14.9583 7.31623 14.8439 7.20178L14.2654 6.62326C14.0365 6.39443 14.0365 6.02342 14.2654 5.79467C14.4942 5.56584 14.8652 5.56584 15.094 5.79467L15.6725 6.37318C15.9013 6.60201 15.9013 6.97303 15.6725 7.20178C15.5581 7.31615 15.4081 7.37342 15.2582 7.37342Z" fill="#E41F2D"/>
<path d="M12.6895 8.36891C12.3659 8.36891 12.1035 8.10656 12.1035 7.78297V6.96484C12.1035 6.64125 12.3659 6.37891 12.6895 6.37891C13.013 6.37891 13.2754 6.64125 13.2754 6.96484V7.78297C13.2754 8.10656 13.013 8.36891 12.6895 8.36891Z" fill="#E41F2D"/>
<path d="M16.371 4.85156H15.5529C15.2293 4.85156 14.9669 4.58922 14.9669 4.26562C14.9669 3.94203 15.2293 3.67969 15.5529 3.67969H16.371C16.6946 3.67969 16.9569 3.94203 16.9569 4.26562C16.9569 4.58922 16.6946 4.85156 16.371 4.85156Z" fill="#E41F2D"/>
<path d="M13.0066 24.8994C13.0066 24.5204 13.0498 24.1515 13.1293 23.7961C11.721 23.3496 10.7852 22.4678 10.7852 21.4853C10.7852 20.5906 11.5483 19.766 12.8265 19.2796L12.9532 19.2314L12.8479 19.146C12.6925 19.0199 12.5458 18.8879 12.4117 18.7539C11.5975 17.9397 11.075 16.9318 10.9342 15.91C10.1877 15.7476 9.45091 15.8632 8.87747 16.299C7.79856 17.1191 7.65645 18.7997 8.457 20.2799C7.10372 20.5237 6.05958 21.386 5.90286 22.536C5.77395 23.4815 6.27575 24.4 7.14661 25.0286H13.0099C13.0088 24.9855 13.0066 24.9427 13.0066 24.8994Z" fill="#80D261"/>
<path d="M21.1884 25.0291C21.1952 25.0209 21.2027 25.0128 21.2094 25.0045C21.2105 24.9698 21.212 24.935 21.212 24.8999C21.212 23.1652 19.8008 21.7539 18.066 21.7539C16.3312 21.7539 14.9199 23.1652 14.9199 24.8999C14.9199 24.9433 14.9223 24.9862 14.924 25.0291H21.1884Z" fill="#017B4E"/>
<path d="M18.0656 19.8403C19.8283 19.8403 21.3824 20.747 22.2884 22.1179C22.2611 21.6117 22.2913 21.103 22.3793 20.602C22.3203 20.5093 22.2624 20.4153 22.2067 20.3188C21.6134 19.2911 21.2956 18.1877 21.312 17.2116C21.3282 16.2502 21.6671 15.5302 22.2663 15.1843C22.3251 15.1503 22.3861 15.1206 22.4488 15.0946C22.0522 13.4349 21.0795 12.2617 19.9423 12.2617C18.9831 12.2617 18.1415 13.097 17.6634 14.3542C17.5387 14.2001 17.4048 14.0498 17.2602 13.9052C15.5216 12.1665 13.0143 11.8548 11.6602 13.2089C10.306 14.563 10.6177 17.0703 12.3564 18.809C12.4989 18.9515 12.647 19.0834 12.7987 19.2065C11.542 19.6847 10.707 20.5262 10.707 21.4851C10.707 22.5216 11.6821 23.421 13.1115 23.8725C13.5873 21.5736 15.6278 19.8403 18.0656 19.8403Z" fill="#017B4E"/>
<path d="M16.4039 24.0453C15.9866 23.9624 15.5964 23.8437 15.2431 23.6955C15.0794 24.0793 14.9914 24.5032 14.9985 24.9485C14.9988 24.9488 14.9991 24.949 14.9994 24.9493H16.5632C16.597 24.8281 16.6395 24.7057 16.6903 24.5828C16.7857 24.3519 16.6489 24.094 16.4039 24.0453Z" fill="#026841"/>
<path d="M10.7071 21.4852C10.7071 22.5035 11.6479 23.39 13.0364 23.8489C13.1441 23.3307 13.3305 22.8416 13.5815 22.3934C13.4123 22.1096 13.3195 21.804 13.3195 21.4852C13.3195 20.6679 13.9259 19.9359 14.8831 19.4415C15.1198 19.3192 15.1617 19.0015 14.9731 18.8134C14.9717 18.812 14.9703 18.8105 14.9688 18.8091C13.2302 17.0704 12.9184 14.5631 14.2726 13.209C14.5396 12.942 14.852 12.7407 15.1939 12.6014C13.8798 12.1571 12.5313 12.3377 11.6601 13.209C10.3059 14.5631 10.6177 17.0704 12.3563 18.8091C12.4988 18.9515 12.6469 19.0834 12.7986 19.2066C11.542 19.6847 10.7071 20.5262 10.7071 21.4852Z" fill="#026841"/>
<path d="M17.4962 19.8737C17.6833 19.8526 17.8732 19.8407 18.0658 19.8407C18.4791 19.8407 18.8806 19.8916 19.2654 19.9856L16.0705 16.7908C15.8417 16.5619 15.4707 16.5619 15.2419 16.7908C15.0131 17.0196 15.0131 17.3906 15.2419 17.6194L17.4962 19.8737Z" fill="#026841"/>
<path d="M34.378 18.6909C34.5297 18.5677 34.6777 18.4358 34.8202 18.2934C36.5589 16.5547 36.8706 14.0474 35.5165 12.6933C34.1623 11.3391 31.6551 11.6509 29.9164 13.3895C29.7718 13.5341 29.638 13.6845 29.5133 13.8386C29.0351 12.5814 28.1935 11.7461 27.2343 11.7461C25.9314 11.7461 24.8444 13.2859 24.5924 15.333C23.7452 14.8465 22.8873 14.7342 22.2283 15.1148C20.9383 15.8595 20.8988 18.2061 22.1401 20.356C22.2108 20.4786 22.2851 20.5966 22.3608 20.7125C22.5486 19.5252 23.0589 18.3781 23.8989 17.4157C23.9662 17.3387 24.0633 17.2945 24.1655 17.2945C24.2592 17.2945 24.3473 17.3309 24.4135 17.3971L32.043 25.0266H33.3213C33.3069 24.577 33.1507 24.093 32.8738 23.6124C34.9254 23.3625 36.4696 22.2742 36.4696 20.9695C36.4695 20.0105 35.6347 19.1691 34.378 18.6909Z" fill="#68CA44"/>
<path d="M31.9349 16.2732C31.7061 16.0444 31.3351 16.0444 31.1063 16.2732L27.2539 20.1256L28.0825 20.9542L31.9349 17.1018C32.1637 16.873 32.1637 16.502 31.9349 16.2732Z" fill="#80D261"/>
<path d="M23.1261 24.8998C23.1261 24.9113 23.1258 24.9228 23.1254 24.9342L23.1226 25.029H32.154L24.4694 17.3443C24.2931 17.1681 24.0046 17.179 23.8407 17.3668C22.6915 18.6836 22.1444 20.343 22.199 21.9861C22.7821 22.8105 23.1261 23.8154 23.1261 24.8998Z" fill="white"/>
<path d="M27.5296 25.0298H30.2441C30.66 24.8572 31.0499 24.6023 31.3881 24.2641L26.3857 19.2617C25.0043 20.6431 25.0043 22.8827 26.3857 24.2641C26.7239 24.6023 27.1137 24.8572 27.5296 25.0298Z" fill="#FEDF74"/>
<path d="M27.5318 25.0298H28.8592C28.4431 24.8573 28.0531 24.6024 27.7148 24.2641C26.5636 23.113 26.3727 21.3661 27.1402 20.0163L26.3857 19.2617C25.0043 20.6431 25.0043 22.8827 26.3857 24.2641C26.7243 24.6029 27.1151 24.8573 27.5318 25.0298Z" fill="#FED402"/>
<path d="M15.0022 25.028C15.0004 24.9852 14.9989 24.9422 14.9989 24.8988C14.9989 23.2045 16.3725 21.8309 18.0668 21.8309C19.7611 21.8309 21.1347 23.2045 21.1347 24.8988C21.1347 24.9422 21.1332 24.9852 21.1314 25.028H23.2006C23.2017 24.985 23.2039 24.9422 23.2039 24.8988C23.2039 22.0616 20.9039 19.7617 18.0668 19.7617C15.2297 19.7617 12.9297 22.0617 12.9297 24.8988C12.9297 24.9422 12.9319 24.9849 12.933 25.028H15.0022Z" fill="#FED2A4"/>
<path d="M13.9765 40.001H25.4092C25.5651 40.001 25.72 39.972 25.8642 39.9125C31.4948 37.5877 35.5269 32.1776 35.8534 25.7887C35.8768 25.3312 35.5074 24.9492 35.0493 24.9492H4.33644C3.87839 24.9492 3.50894 25.3312 3.5323 25.7887C3.85878 32.1776 7.89089 37.5877 13.5215 39.9125C13.6657 39.972 13.8206 40.001 13.9765 40.001Z" fill="#D8ECFE"/>
<path d="M7.01633 28.7344H3.95703C5.17336 33.8096 8.78102 37.955 13.5223 39.9127C13.6664 39.9722 13.8213 40.0012 13.9773 40.0012H17.0366C16.8806 40.0012 16.7257 39.9722 16.5816 39.9127C11.8403 37.9551 8.23266 33.8096 7.01633 28.7344Z" fill="#C4E2FF"/>
<path d="M35.0493 24.9492H4.33644C3.87839 24.9492 3.50894 25.3312 3.5323 25.7887C3.58386 26.7977 3.72808 27.7823 3.95628 28.7342H35.4294C35.6575 27.7823 35.8018 26.7977 35.8534 25.7887C35.8768 25.3312 35.5073 24.9492 35.0493 24.9492Z" fill="#EAF6FF"/>
<path d="M3.5323 25.7887C3.58386 26.7977 3.72808 27.7823 3.95628 28.7342H7.01558C6.78746 27.7823 6.64316 26.7977 6.5916 25.7887C6.56824 25.3312 6.93769 24.9492 7.39574 24.9492H4.33644C3.87839 24.9492 3.50894 25.3312 3.5323 25.7887Z" fill="#D8ECFE"/>
<path d="M29.8534 3.692C30.0483 3.63981 30.1755 3.45129 30.1489 3.25137C30.0434 2.45637 29.6857 1.68848 29.0748 1.07754C28.464 0.466684 27.6961 0.108871 26.9011 0.0034805C26.7012 -0.0230039 26.5127 0.104184 26.4605 0.298949L25.3989 4.26067C25.3187 4.55989 25.5925 4.83364 25.8917 4.75348L29.8534 3.692Z" fill="#FE9901"/>
<path d="M27.1587 4.26075L28.1883 0.418246C27.7829 0.200824 27.3462 0.062543 26.9011 0.0034805C26.7012 -0.0230039 26.5127 0.104184 26.4605 0.298949L25.3989 4.26067C25.3187 4.55989 25.5925 4.83364 25.8917 4.75348L27.1481 4.41684C27.1417 4.36692 27.1443 4.31426 27.1587 4.26075Z" fill="#FB8801"/>
</g>
<defs>
<clipPath id="clip0_134_15666">
<rect width="40" height="40" fill="white"/>
</clipPath>
</defs>
</svg>
