<svg width="40" height="40" viewBox="0 0 40 40" fill="none" xmlns="http://www.w3.org/2000/svg">
<path d="M23.9326 8.77541L14.2187 8.99423L14.1346 5.18953C14.1346 4.40023 15.0702 3.38859 15.0702 3.38859C15.3189 3.27756 15.5882 3.22035 15.8605 3.2207H22.4572C22.9714 3.2207 23.4645 3.42497 23.8281 3.78857C24.1917 4.15217 24.396 4.64532 24.396 5.15953V5.98823L23.9326 8.77541Z" fill="#F74F73"/>
<path d="M24.396 5.98822C23.3719 6.30363 21.7069 6.62351 19.1588 6.62351C16.0553 6.62351 15.2401 4.79363 15.0708 3.39081C14.7288 3.54322 14.4383 3.79145 14.2344 4.10549C14.0304 4.41952 13.9219 4.7859 13.9218 5.16034V9.50998H24.396V5.98822Z" fill="#CC3B5E"/>
<path d="M10.9836 10.3074C10.4128 9.93783 9.76366 9.70655 9.08781 9.6319C8.41196 9.55724 7.72801 9.64128 7.09034 9.87732C6.45266 10.1134 5.87884 10.4949 5.41448 10.9916C4.95013 11.4883 4.60804 12.0865 4.41541 12.7386C4.22279 13.3907 4.18493 14.0787 4.30486 14.748C4.42479 15.4173 4.6992 16.0494 5.10626 16.5941C5.51333 17.1387 6.04184 17.5809 6.64977 17.8855C7.25771 18.19 7.92831 18.3486 8.60827 18.3485H13.7217V11.8512L10.9836 10.3074Z" fill="#87A574"/>
<path d="M12.3658 9.38695C12.4029 9.2031 12.4768 9.02865 12.5831 8.87411C12.6894 8.71957 12.8258 8.58814 12.9842 8.48772C13.1426 8.3873 13.3197 8.31998 13.5048 8.2898C13.6899 8.25963 13.8792 8.26722 14.0613 8.31213C16.271 8.82955 18.5331 9.08889 20.8025 9.08495C23.0646 9.09217 25.3145 8.75424 27.4746 8.08283C27.626 8.03301 27.7865 8.0177 27.9445 8.03801C28.1025 8.05831 28.2539 8.11373 28.3877 8.2002C28.5215 8.28666 28.6343 8.40198 28.7177 8.53769C28.8011 8.6734 28.8531 8.82606 28.8698 8.98448C28.9508 9.84554 29.0444 10.9986 29.0869 12.0959C29.0869 12.0959 28.5282 15.8635 25.1911 15.5982L13.4651 15.6435L12.5357 14.373C12.4704 13.8041 12.1133 12.2957 12.1133 12.2957C12.1106 11.3205 12.1951 10.347 12.3658 9.38695Z" fill="#7AAEED"/>
<path d="M7.73401 16.0478C7.64109 16.0479 7.5484 16.0387 7.4573 16.0204C6.2226 15.7744 5.52848 14.802 5.72977 13.6007C5.78876 13.2482 5.9166 12.9108 6.106 12.6076C6.29541 12.3045 6.54266 12.0417 6.83365 11.8341C7.12463 11.6265 7.45365 11.4783 7.80192 11.3979C8.15019 11.3175 8.51089 11.3065 8.86342 11.3654C9.74119 11.5124 10.4502 11.9603 10.8595 12.6265C11.3118 13.3625 11.3799 14.2982 11.0567 15.3324C11.0406 15.384 11.0144 15.4319 10.9798 15.4735C10.9451 15.515 10.9026 15.5493 10.8547 15.5743C10.8068 15.5994 10.7545 15.6149 10.7006 15.6197C10.6467 15.6246 10.5924 15.6188 10.5408 15.6026C10.4892 15.5865 10.4413 15.5604 10.3998 15.5257C10.3582 15.491 10.324 15.4486 10.2989 15.4007C10.2738 15.3527 10.2584 15.3004 10.2535 15.2465C10.2487 15.1926 10.2545 15.1384 10.2706 15.0867C10.5207 14.2867 10.4818 13.5846 10.1579 13.0576C9.87095 12.5905 9.37624 12.2862 8.72742 12.1776C8.23091 12.0945 7.72173 12.2121 7.31189 12.5044C6.90205 12.7967 6.62512 13.2399 6.54201 13.7364C6.41401 14.5011 6.81648 15.0524 7.61836 15.2123C7.98424 15.2862 8.35483 14.9726 8.48754 14.6409C8.5525 14.5114 8.56443 14.3618 8.5208 14.2237C8.47717 14.0857 8.38142 13.97 8.25389 13.9014C8.20819 13.8725 8.16863 13.8349 8.13747 13.7907C8.10631 13.7465 8.08416 13.6966 8.07229 13.6439C8.04831 13.5373 8.06763 13.4256 8.12601 13.3333C8.18439 13.241 8.27704 13.1757 8.38358 13.1517C8.49012 13.1277 8.60183 13.1471 8.69413 13.2054C8.98361 13.3776 9.20016 13.6496 9.30297 13.9703C9.40577 14.291 9.38773 14.6383 9.25224 14.9466C9.02448 15.5166 8.43624 16.0478 7.73401 16.0478Z" fill="#526D3A"/>
<path d="M29.0411 14.5937C29.1225 13.9529 29.1235 13.0451 29.0874 12.0957C26.6881 13.5145 23.5969 13.515 23.5969 13.515H14.6977C13.2729 13.515 12.5076 12.8562 12.1137 12.2959C12.1087 13.0556 12.1472 13.8148 12.2289 14.5701C12.397 16.0361 13.3818 15.923 13.3818 15.923H25.2937C28.6302 16.1885 29.0411 14.5937 29.0411 14.5937Z" fill="#497FCE"/>
<path d="M18.3556 7.94922C18.6063 7.94922 18.8468 8.04882 19.0241 8.22612C19.2014 8.40342 19.301 8.64389 19.301 8.89463V16.0358H17.4102V8.89463C17.4102 8.77048 17.4346 8.64754 17.4821 8.53284C17.5296 8.41813 17.5993 8.31391 17.6871 8.22612C17.7749 8.13833 17.8791 8.0687 17.9938 8.02118C18.1085 7.97367 18.2314 7.94922 18.3556 7.94922Z" fill="#4A4A60"/>
<path d="M23.4513 7.94922C23.702 7.94922 23.9425 8.04882 24.1198 8.22612C24.2971 8.40342 24.3967 8.64389 24.3967 8.89463V16.0358H22.5059V8.89463C22.5059 8.77048 22.5303 8.64754 22.5778 8.53284C22.6253 8.41813 22.695 8.31391 22.7828 8.22612C22.8706 8.13833 22.9748 8.0687 23.0895 8.02118C23.2042 7.97367 23.3271 7.94922 23.4513 7.94922Z" fill="#4A4A60"/>
<path d="M6.26529 19.5354L4.99749 19.2834C4.06905 19.0988 3.1668 19.7019 2.98224 20.6303L1.6988 27.087C1.51425 28.0155 2.11729 28.9177 3.04573 29.1023L4.31353 29.3543C5.24196 29.5388 6.14422 28.9358 6.32877 28.0073L7.61222 21.5506C7.79677 20.6222 7.19373 19.7199 6.26529 19.5354Z" fill="#4A4A60"/>
<path d="M38.3377 28.6298V26.2029L35.446 22.428L32.262 22.341C31.8698 22.3272 31.488 22.2112 31.1545 22.0045C30.8209 21.7978 30.5471 21.5076 30.3601 21.1626C29.6821 19.8917 28.9085 18.6741 28.046 17.5204C27.6378 16.987 27.1124 16.5547 26.5105 16.2568C25.9085 15.959 25.2461 15.8036 24.5744 15.8027H14.0136C13.4114 15.8021 12.815 15.9212 12.2591 16.1529C11.7032 16.3846 11.1989 16.7245 10.7754 17.1527C9.34515 18.5963 8.14334 20.2494 7.21139 22.0552L5.64056 26.8586C5.49772 27.7861 5.44375 28.7251 5.47939 29.6629L7.30562 30.757H37.2467L38.3377 28.6298Z" fill="#FFB655"/>
<path d="M35.4473 22.4297V24.2757C35.4472 24.7587 35.6333 25.2232 35.9667 25.5727C36.3001 25.9222 36.7553 26.1299 37.2379 26.1526L38.339 26.2045C38.339 26.2045 38.6851 22.4297 35.4473 22.4297Z" fill="#FFEEDC"/>
<path d="M7.21145 22.0547C7.39072 22.1247 7.56272 22.212 7.72498 22.3155C8.02251 22.5043 8.26175 22.772 8.41603 23.0889C8.57031 23.4057 8.63356 23.7591 8.59874 24.1097L8.50792 25.0405C8.47828 25.3447 8.38399 25.6392 8.23135 25.904C8.07871 26.1689 7.87126 26.3981 7.62287 26.5764C7.37448 26.7546 7.09088 26.8777 6.79106 26.9374C6.49125 26.9972 6.18212 26.9922 5.88439 26.9228C5.80423 26.9042 5.72298 26.8827 5.64062 26.8582C5.64062 26.8582 6.13957 23.8908 7.21145 22.0547Z" fill="#F74F73"/>
<path d="M13.3418 18.0273C13.1474 18.135 12.9665 18.2653 12.8028 18.4156C11.9302 19.239 11.2238 20.2223 10.7218 21.312C10.6519 21.4602 10.6206 21.6236 10.6308 21.7871C10.6409 21.9506 10.6922 22.1089 10.7799 22.2473C10.8675 22.3856 10.9887 22.4996 11.1322 22.5786C11.2757 22.6576 11.4368 22.6991 11.6007 22.6992H12.4985C12.7221 22.6992 12.9365 22.6104 13.0945 22.4524C13.2526 22.2943 13.3414 22.0799 13.3415 21.8564L13.3418 18.0273Z" fill="#4A4A60"/>
<path d="M19.0337 17.6641H15.8724C15.451 17.6641 15.1094 18.0057 15.1094 18.4271V21.9369C15.1094 22.3583 15.451 22.6999 15.8724 22.6999H19.0337C19.4552 22.6999 19.7968 22.3583 19.7968 21.9369V18.4271C19.7968 18.0057 19.4552 17.6641 19.0337 17.6641Z" fill="#4A4A60"/>
<path d="M27.6318 21.3783C27.2448 20.3613 26.7351 19.3952 26.1142 18.5016C25.9269 18.2419 25.6805 18.0304 25.3954 17.8848C25.1102 17.7392 24.7945 17.6635 24.4743 17.6641H22.4049C22.1825 17.6641 21.9693 17.7524 21.812 17.9096C21.6548 18.0668 21.5664 18.2801 21.5664 18.5024V21.8615C21.5664 22.0839 21.6547 22.2971 21.812 22.4544C21.9692 22.6116 22.1825 22.6999 22.4049 22.6999H26.7252C26.8831 22.7002 27.0387 22.6619 27.1785 22.5885C27.3182 22.515 27.4379 22.4085 27.5273 22.2783C27.6166 22.1481 27.6728 21.9981 27.691 21.8413C27.7092 21.6844 27.6889 21.5255 27.6318 21.3783Z" fill="#4A4A60"/>
<path d="M16.3043 25.0774H15.109C14.9998 25.0774 14.8951 25.0341 14.8179 24.9568C14.7406 24.8796 14.6973 24.7749 14.6973 24.6657C14.6973 24.5565 14.7406 24.4517 14.8179 24.3745C14.8951 24.2973 14.9998 24.2539 15.109 24.2539H16.3043C16.4135 24.2539 16.5183 24.2973 16.5955 24.3745C16.6727 24.4517 16.7161 24.5565 16.7161 24.6657C16.7161 24.7749 16.6727 24.8796 16.5955 24.9568C16.5183 25.0341 16.4135 25.0774 16.3043 25.0774Z" fill="#E87B31"/>
<path d="M22.7615 25.0774H21.5661C21.4569 25.0774 21.3521 25.0341 21.2749 24.9568C21.1977 24.8796 21.1543 24.7749 21.1543 24.6657C21.1543 24.5565 21.1977 24.4517 21.2749 24.3745C21.3521 24.2973 21.4569 24.2539 21.5661 24.2539H22.7615C22.8707 24.2539 22.9754 24.2973 23.0526 24.3745C23.1299 24.4517 23.1732 24.5565 23.1732 24.6657C23.1732 24.7749 23.1299 24.8796 23.0526 24.9568C22.9754 25.0341 22.8707 25.0774 22.7615 25.0774Z" fill="#E87B31"/>
<path d="M36.3698 31.8699C36.8918 31.8699 37.3925 31.6625 37.7616 31.2933C38.1307 30.9242 38.3381 30.4235 38.3381 29.9014V28.6309C37.3812 29.571 36.0958 29.6643 36.0958 29.6643H5.48047C5.48482 29.7782 5.48965 29.8923 5.49659 30.0073C5.52505 30.51 5.74446 30.9829 6.10996 31.3292C6.47546 31.6755 6.95944 31.8691 7.46294 31.8704L36.3698 31.8699Z" fill="#E87B31"/>
<path d="M12.7803 36.7794C15.4636 36.7794 17.6388 34.6042 17.6388 31.921C17.6388 29.2377 15.4636 27.0625 12.7803 27.0625C10.0971 27.0625 7.92188 29.2377 7.92188 31.921C7.92188 34.6042 10.0971 36.7794 12.7803 36.7794Z" fill="#4A4A60"/>
<path d="M12.7807 34.1786C14.0274 34.1786 15.038 33.168 15.038 31.9214C15.038 30.6747 14.0274 29.6641 12.7807 29.6641C11.5341 29.6641 10.5234 30.6747 10.5234 31.9214C10.5234 33.168 11.5341 34.1786 12.7807 34.1786Z" fill="white"/>
<path d="M30.8155 36.7794C33.4988 36.7794 35.674 34.6042 35.674 31.921C35.674 29.2377 33.4988 27.0625 30.8155 27.0625C28.1322 27.0625 25.957 29.2377 25.957 31.921C25.957 34.6042 28.1322 36.7794 30.8155 36.7794Z" fill="#4A4A60"/>
<path d="M30.8159 34.1786C32.0626 34.1786 33.0732 33.168 33.0732 31.9214C33.0732 30.6747 32.0626 29.6641 30.8159 29.6641C29.5692 29.6641 28.5586 30.6747 28.5586 31.9214C28.5586 33.168 29.5692 34.1786 30.8159 34.1786Z" fill="white"/>
</svg>
