<svg width="40" height="40" viewBox="0 0 40 40" fill="none" xmlns="http://www.w3.org/2000/svg">
<g clip-path="url(#clip0_134_15765)">
<path d="M38.75 20.4316V23.6754C38.6398 23.6085 38.5195 23.5599 38.3938 23.5316L38.125 23.4754V23.4691L37.5 23.3316V20.4754C37.6771 20.5759 37.8776 20.6277 38.0813 20.6254H38.125C38.3468 20.6174 38.5626 20.5506 38.75 20.4316Z" fill="#565656"/>
<path d="M2.5 20.4758V23.332L1.875 23.4695V23.4758L1.60625 23.532C1.48049 23.5603 1.36016 23.6088 1.25 23.6758V20.4258C1.4356 20.5494 1.65209 20.6187 1.875 20.6258H1.91875C2.12236 20.6281 2.32294 20.5763 2.5 20.4758Z" fill="#565656"/>
<path d="M8.75 22.5V33.125C8.75 33.4565 8.6183 33.7745 8.38388 34.0089C8.14946 34.2433 7.83152 34.375 7.5 34.375C7.16848 34.375 6.85054 34.2433 6.61612 34.0089C6.3817 33.7745 6.25 33.4565 6.25 33.125V22.5C6.25099 22.1688 6.383 21.8514 6.61721 21.6172C6.85142 21.383 7.16878 21.251 7.5 21.25C7.83076 21.2525 8.14728 21.3849 8.38117 21.6188C8.61506 21.8527 8.74755 22.1692 8.75 22.5Z" fill="#666666"/>
<path d="M31.25 22.5V33.125V34.375H24.375V26.875V19.375H31.25V22.5Z" fill="#99E0D4"/>
<path d="M31.25 34.375V36.875H24.375V35.625V34.375H31.25Z" fill="#7070F2"/>
<path d="M31.25 16.875V19.375H24.375V18.125V16.875H31.25Z" fill="#7070F2"/>
<path d="M31.25 15V16.875H24.375V15C24.375 14.8342 24.4408 14.6753 24.5581 14.5581C24.6753 14.4408 24.8342 14.375 25 14.375H30.625C30.7908 14.375 30.9497 14.4408 31.0669 14.5581C31.1842 14.6753 31.25 14.8342 31.25 15Z" fill="#99E0D4"/>
<path d="M14.1562 34.375C13.8995 35.1064 13.4217 35.7399 12.7891 36.1878C12.1564 36.6357 11.4002 36.8759 10.625 36.875H8.75V34.375H14.1562Z" fill="#7070F2"/>
<path d="M15.625 26.875V34.375H8.75V33.125V22.5V19.375H15.625V26.875Z" fill="#99E0D4"/>
<path d="M15.625 18.125V19.375H8.75V16.875H15.625V18.125Z" fill="#7070F2"/>
<path d="M15.625 15V16.875H8.75V15C8.75 14.8342 8.81585 14.6753 8.93306 14.5581C9.05027 14.4408 9.20924 14.375 9.375 14.375H15C15.1658 14.375 15.3247 14.4408 15.4419 14.5581C15.5592 14.6753 15.625 14.8342 15.625 15Z" fill="#99E0D4"/>
<path d="M15.625 15V16.875H14.375V14.375H15C15.1658 14.375 15.3247 14.4408 15.4419 14.5581C15.5592 14.6753 15.625 14.8342 15.625 15Z" fill="#5BD3C7"/>
<path d="M14.375 16.875H15.625V19.375H14.375V16.875Z" fill="#5858DD"/>
<path d="M15.625 19.375V34.375H14.1562C14.3021 33.9744 14.3761 33.5513 14.375 33.125V19.375H15.625Z" fill="#5BD3C7"/>
<path d="M15.625 34.375V36.875H10.625C11.4002 36.8759 12.1564 36.6357 12.7891 36.1878C13.4217 35.7399 13.8995 35.1064 14.1562 34.375H15.625Z" fill="#5858DD"/>
<path d="M15.625 36.875V38.75C15.625 38.9158 15.5592 39.0747 15.4419 39.1919C15.3247 39.3092 15.1658 39.375 15 39.375H9.375C9.20924 39.375 9.05027 39.3092 8.93306 39.1919C8.81585 39.0747 8.75 38.9158 8.75 38.75V36.875H15.625Z" fill="#5BD3C7"/>
<path d="M31.25 15V16.875H30V14.375H30.625C30.7908 14.375 30.9497 14.4408 31.0669 14.5581C31.1842 14.6753 31.25 14.8342 31.25 15Z" fill="#5BD3C7"/>
<path d="M30 16.875H31.25V19.375H30V16.875Z" fill="#5858DD"/>
<path d="M31.25 19.375V34.375H29.7812C29.9271 33.9744 30.0011 33.5513 30 33.125V19.375H31.25Z" fill="#5BD3C7"/>
<path d="M31.25 34.375V36.875H26.25C27.0252 36.8759 27.7814 36.6357 28.4141 36.1878C29.0467 35.7399 29.5245 35.1064 29.7813 34.375H31.25Z" fill="#5858DD"/>
<path d="M31.25 36.875V38.75C31.25 38.9158 31.1842 39.0747 31.0669 39.1919C30.9497 39.3092 30.7908 39.375 30.625 39.375H25C24.8342 39.375 24.6753 39.3092 24.5581 39.1919C24.4408 39.0747 24.375 38.9158 24.375 38.75V36.875H31.25Z" fill="#5BD3C7"/>
<path d="M39.375 24.75V30.875C39.3737 31.1593 39.276 31.4347 39.0977 31.6561C38.9194 31.8776 38.6712 32.0319 38.3938 32.0937L33.75 33.125V22.5L38.125 23.4687V23.475L38.3938 23.5313C38.6712 23.5931 38.9194 23.7474 39.0977 23.9689C39.276 24.1903 39.3737 24.4657 39.375 24.75Z" fill="#EAEAEA"/>
<path d="M39.375 24.7492V30.8742C39.3737 31.1585 39.276 31.4339 39.0977 31.6553C38.9194 31.8768 38.6712 32.0311 38.3938 32.093L33.75 33.1242V31.4555L36.5188 30.843C36.7962 30.7811 37.0444 30.6268 37.2227 30.4053C37.401 30.1839 37.4987 29.9085 37.5 29.6242V23.4992C37.4992 23.4407 37.495 23.3823 37.4875 23.3242L38.125 23.468V23.4742L38.3938 23.5305C38.6712 23.5924 38.9194 23.7467 39.0977 23.9681C39.276 24.1895 39.3737 24.4649 39.375 24.7492Z" fill="#DAD4D4"/>
<path d="M38.1242 20.625H38.0805C37.7643 20.6255 37.4597 20.5056 37.2287 20.2897C36.9977 20.0738 36.8575 19.778 36.8367 19.4625C36.2617 10.3562 28.9305 3.125 19.9992 3.125C11.068 3.125 3.73672 10.3562 3.16172 19.4625C3.14091 19.778 3.00077 20.0738 2.76975 20.2897C2.53874 20.5056 2.23418 20.6255 1.91797 20.625H1.87422C1.55142 20.6137 1.24552 20.4779 1.02065 20.246C0.795777 20.0142 0.669386 19.7042 0.667969 19.3813V19.2938C1.33047 8.88125 9.74922 0.625 19.9992 0.625C30.2492 0.625 38.668 8.88125 39.3305 19.2938C39.3415 19.461 39.3187 19.6287 39.2635 19.787C39.2084 19.9452 39.122 20.0908 39.0095 20.215C38.8969 20.3392 38.7606 20.4395 38.6085 20.5099C38.4564 20.5804 38.2917 20.6195 38.1242 20.625Z" fill="#666666"/>
<path d="M39.3312 19.2938C39.3422 19.461 39.3195 19.6287 39.2643 19.787C39.2092 19.9452 39.1228 20.0908 39.0102 20.215C38.8977 20.3392 38.7613 20.4395 38.6093 20.5099C38.4572 20.5804 38.2925 20.6195 38.125 20.625H38.0812C37.8633 20.6278 37.6489 20.5693 37.4625 20.4562C37.6633 20.3389 37.8275 20.1681 37.9368 19.9628C38.0461 19.7575 38.0961 19.5258 38.0812 19.2938C37.4312 9.09375 29.3438 0.9625 19.375 0.64375C19.5813 0.63125 19.7937 0.625 20 0.625C30.25 0.625 38.6688 8.88125 39.3312 19.2938Z" fill="#4D4D4D"/>
<path d="M33.75 22.5V33.125C33.75 33.4565 33.6183 33.7745 33.3839 34.0089C33.1495 34.2433 32.8315 34.375 32.5 34.375C32.1685 34.375 31.8505 34.2433 31.6161 34.0089C31.3817 33.7745 31.25 33.4565 31.25 33.125V22.5C31.2525 22.1692 31.3849 21.8527 31.6188 21.6188C31.8527 21.3849 32.1692 21.2525 32.5 21.25C32.8312 21.251 33.1486 21.383 33.3828 21.6172C33.617 21.8514 33.749 22.1688 33.75 22.5Z" fill="#666666"/>
<path d="M33.75 22.4987V33.1237C33.7498 33.343 33.6919 33.5584 33.5821 33.7483C33.4722 33.9381 33.3144 34.0957 33.1244 34.2053C32.9345 34.3148 32.719 34.3725 32.4997 34.3724C32.2804 34.3724 32.0649 34.3146 31.875 34.205C32.0648 34.0954 32.2225 33.9378 32.3322 33.748C32.4419 33.5582 32.4998 33.3429 32.5 33.1237V22.4987C32.4998 22.2795 32.4419 22.0642 32.3322 21.8744C32.2225 21.6847 32.0648 21.5271 31.875 21.4175C32.0649 21.3078 32.2804 21.2501 32.4997 21.25C32.719 21.2499 32.9345 21.3076 33.1244 21.4171C33.3144 21.5267 33.4722 21.6843 33.5821 21.8742C33.6919 22.064 33.7498 22.2794 33.75 22.4987Z" fill="#4D4D4D"/>
<path d="M8.75 22.4987V33.1237C8.74978 33.343 8.69185 33.5584 8.58205 33.7483C8.47225 33.9381 8.31443 34.0957 8.12445 34.2053C7.93446 34.3148 7.71899 34.3725 7.49968 34.3724C7.28037 34.3724 7.06493 34.3146 6.875 34.205C7.06484 34.0954 7.22251 33.9378 7.33221 33.748C7.44191 33.5582 7.49978 33.3429 7.5 33.1237V22.4987C7.49978 22.2795 7.44191 22.0642 7.33221 21.8744C7.22251 21.6847 7.06484 21.5271 6.875 21.4175C7.06493 21.3078 7.28037 21.2501 7.49968 21.25C7.71899 21.2499 7.93446 21.3076 8.12445 21.4171C8.31443 21.5267 8.47225 21.6843 8.58205 21.8742C8.69185 22.064 8.74978 22.2794 8.75 22.4987Z" fill="#4D4D4D"/>
<path d="M24.375 36.875V38.75C24.375 38.9158 24.3092 39.0747 24.1919 39.1919C24.0747 39.3092 23.9158 39.375 23.75 39.375H16.25C16.0842 39.375 15.9253 39.3092 15.8081 39.1919C15.6908 39.0747 15.625 38.9158 15.625 38.75V26.875H24.375V36.875Z" fill="#FFCA3A"/>
<path d="M24.375 19.375V26.875H15.625V19.375V18.125H24.375V19.375Z" fill="#F7931E"/>
<path d="M24.375 16.875V18.125H15.625V15C15.625 14.8342 15.6908 14.6753 15.8081 14.5581C15.9253 14.4408 16.0842 14.375 16.25 14.375H23.75C23.9158 14.375 24.0747 14.4408 24.1919 14.5581C24.3092 14.6753 24.375 14.8342 24.375 15V16.875Z" fill="#FFCA3A"/>
<path d="M24.375 26.875V38.75C24.375 38.9158 24.3092 39.0747 24.1919 39.1919C24.0747 39.3092 23.9158 39.375 23.75 39.375H16.25C16.0842 39.375 15.9253 39.3092 15.8081 39.1919C15.6908 39.0747 15.625 38.9158 15.625 38.75V36.875H18.75C19.7446 36.875 20.6984 36.4799 21.4017 35.7767C22.1049 35.0734 22.5 34.1196 22.5 33.125V26.875H24.375Z" fill="#F7931E"/>
<path d="M22.5 18.125H24.375V26.875H22.5V18.125Z" fill="#F15A24"/>
<path d="M24.375 15V18.125H22.5V14.375H23.75C23.9158 14.375 24.0747 14.4408 24.1919 14.5581C24.3092 14.6753 24.375 14.8342 24.375 15Z" fill="#F7931E"/>
<path d="M6.25 22.5V33.125L1.60625 32.0937C1.32879 32.0319 1.08059 31.8776 0.902309 31.6561C0.724031 31.4347 0.626254 31.1593 0.625 30.875V24.75C0.626254 24.4657 0.724031 24.1903 0.902309 23.9689C1.08059 23.7474 1.32879 23.5931 1.60625 23.5313L1.875 23.475V23.4687L6.25 22.5Z" fill="#EAEAEA"/>
<path d="M6.25 22.5V33.125L1.60625 32.0937C1.32879 32.0319 1.08059 31.8776 0.902309 31.6561C0.724031 31.4347 0.626254 31.1593 0.625 30.875V29.7937L1.89562 30.0756C2.19353 30.1417 2.50247 30.14 2.79965 30.0707C3.09682 30.0014 3.37465 29.8663 3.61262 29.6753C3.85059 29.4843 4.04264 29.2423 4.17459 28.9672C4.30655 28.692 4.37503 28.3908 4.375 28.0856V22.9125L6.25 22.5Z" fill="#DAD4D4"/>
<path d="M2.5 24.375C1.69562 24.375 1.06937 26.25 1.875 26.25C2.68062 26.25 3.30562 24.375 2.5 24.375Z" fill="white"/>
</g>
<defs>
<clipPath id="clip0_134_15765">
<rect width="40" height="40" fill="white"/>
</clipPath>
</defs>
</svg>
