<svg width="40" height="40" viewBox="0 0 40 40" fill="none" xmlns="http://www.w3.org/2000/svg">
<path d="M21.875 23.125V26.25L19.375 30.625L17.8867 33.2289C17.5859 33.7556 17.1383 34.1834 16.5985 34.46C16.0587 34.7366 15.4501 34.8502 14.8469 34.7867L5 33.75L4.375 30.625H13.75L14.5539 28.2141L16.25 23.125H21.875Z" fill="#FFCEB6"/>
<path d="M21.8758 23.125V26.25L19.3758 30.625L14.5547 28.2141L16.2508 23.125H21.8758Z" fill="#FFA100"/>
<path d="M5 33.75L3.125 36.875H1.875V30.625H4.375L5 33.75Z" fill="#E0EDFF"/>
<path d="M35 33.75L31.875 35.625L30 26.25H19.375C18.5462 26.25 17.7514 25.9207 17.1653 25.3347C16.5793 24.7486 16.25 23.9538 16.25 23.125V19.375H22.5L27.5 20.4859L31.5555 21.3875C32.1948 21.5296 32.7733 21.8689 33.2093 22.3576C33.6452 22.8463 33.9167 23.4596 33.9852 24.1109L35 33.75Z" fill="#FFCEB6"/>
<path d="M27.5 20.4859V26.25H19.375C18.5462 26.25 17.7514 25.9207 17.1653 25.3347C16.5793 24.7486 16.25 23.9538 16.25 23.125V19.375H22.5L27.5 20.4859Z" fill="#FFB401"/>
<path d="M20 9.375L23.0871 12.4621C23.2973 12.6723 23.464 12.9218 23.5777 13.1964C23.6915 13.471 23.75 13.7653 23.75 14.0625C23.75 14.3597 23.6915 14.654 23.5777 14.9286C23.464 15.2032 23.2973 15.4527 23.0871 15.6629L22.5 16.25V19.375H16.25V14.375C16.25 13.4047 16.4759 12.4478 16.9098 11.5799C17.3438 10.7121 17.9738 9.95717 18.75 9.375H20Z" fill="#EF5E3B"/>
<path d="M18.125 4.6875L16.5519 3.90067C16.3538 3.80159 16.1354 3.75 15.9139 3.75H15.8927C15.6932 3.74995 15.4957 3.7892 15.3114 3.86552C15.1272 3.94183 14.9597 4.05371 14.8187 4.19477C14.6777 4.33582 14.5658 4.50327 14.4896 4.68757C14.4133 4.87186 14.3741 5.06938 14.3742 5.26884C14.3744 5.71813 14.3746 6.22374 14.3747 6.72261C14.3749 7.5634 14.2094 8.39599 13.8878 9.17281C13.5661 9.94964 13.0945 10.6555 12.5 11.25H14.375C14.7854 11.25 15.1917 11.1692 15.5709 11.0121C15.95 10.8551 16.2945 10.6249 16.5847 10.3347C16.8749 10.0445 17.1051 9.70003 17.2621 9.32089C17.4192 8.94174 17.5 8.53538 17.5 8.125V6.875L18.125 4.6875Z" fill="#B1712C"/>
<path d="M18.75 6.875L20 5.625H22.5V8.125C22.5 8.78804 22.2366 9.42393 21.7678 9.89277C21.2989 10.3616 20.663 10.625 20 10.625C19.337 10.625 18.7011 10.3616 18.2322 9.89277C17.7634 9.42393 17.5 8.78804 17.5 8.125V6.875H18.75Z" fill="#FFCEB6"/>
<path d="M22.5 5.625C22.5 4.96196 22.2366 4.32607 21.7678 3.85723C21.2989 3.38839 20.663 3.125 20 3.125C19.337 3.125 18.7011 3.38839 18.2322 3.85723C17.7634 4.32607 17.5 4.96196 17.5 5.625V6.875H18.75L20 5.625H22.5Z" fill="#C78640"/>
<path d="M21.5223 13.6187L18.75 17.5L20.625 21.25L22.5 21.875L23.125 22.5L22.5 23.75H18.75L15.9375 20C15.329 19.1886 15 18.2017 15 17.1875C15 16.1733 15.329 15.1864 15.9375 14.375L18.011 11.6104C18.2404 11.3044 18.538 11.0561 18.88 10.8851C19.2221 10.714 19.5993 10.625 19.9817 10.625C20.2304 10.625 20.4765 10.674 20.7063 10.7691C20.936 10.8643 21.1447 11.0037 21.3205 11.1795C21.4963 11.3553 21.6357 11.564 21.7309 11.7937C21.826 12.0234 21.875 12.2696 21.875 12.5183C21.875 12.9129 21.7517 13.2976 21.5223 13.6187Z" fill="#FFCEB6"/>
<path d="M31.875 35.625L35 33.75L38.125 35.625V36.875H31.875V35.625Z" fill="#E0EDFF"/>
</svg>
