<svg width="40" height="40" viewBox="0 0 40 40" fill="none" xmlns="http://www.w3.org/2000/svg">
<g clip-path="url(#clip0_134_15805)">
<path d="M10.5119 19.6602C10.1364 19.6602 9.76075 19.6805 9.38724 19.7205C5.04039 20.1876 0.8901 24.3209 0.407446 28.6691C-0.234581 34.2485 3.76852 39.2916 9.34786 39.9336C11.6223 40.1954 13.9178 39.6814 15.8641 38.4761C16.8498 37.8347 17.9745 37.4395 19.1446 37.3236C19.4266 37.2985 19.7127 37.2863 20.0029 37.2863C20.2781 37.2863 20.5513 37.2958 20.8218 37.3154C22.0095 37.4273 23.1525 37.8266 24.1518 38.4788C28.9312 41.4285 35.1965 39.9451 38.1462 35.1658C39.3455 33.2228 39.856 30.9328 39.595 28.6651C39.1129 24.3203 34.962 20.1877 30.6151 19.7205C30.2422 19.6805 29.868 19.6602 29.4938 19.6602H10.5119V19.6602Z" fill="#FFD33F"/>
<path d="M24.7467 31.8626C25.87 31.8626 26.7805 30.952 26.7805 29.8287C26.7805 28.7055 25.87 27.7949 24.7467 27.7949C23.6235 27.7949 22.7129 28.7055 22.7129 29.8287C22.7129 30.952 23.6235 31.8626 24.7467 31.8626Z" fill="#EA3836"/>
<path d="M37.688 24.0449C29.5284 33.1895 11.1518 36.5927 3.97461 37.6035C7.32967 40.44 12.1307 40.7905 15.862 38.4719C16.8477 37.8306 17.9724 37.4354 19.1426 37.3195C19.4259 37.2971 19.7133 37.2855 20.0029 37.2855C20.2781 37.2855 20.5513 37.295 20.8218 37.3147C22.0095 37.4266 23.1525 37.8259 24.1518 38.478C28.9312 41.4277 35.1965 39.9444 38.1462 35.165C39.3455 33.2221 39.856 30.9321 39.5949 28.6643C39.376 26.9837 38.7185 25.3906 37.688 24.0449Z" fill="#FFAC3E"/>
<path d="M9.15529 25.082H11.867V28.4717H15.2566V31.1834H11.867V34.5731H9.15529V31.1834H5.76562V28.4717H9.15529V25.082Z" fill="#383856"/>
<path d="M29.4928 27.7942C30.616 27.7942 31.5266 26.8836 31.5266 25.7604C31.5266 24.6371 30.616 23.7266 29.4928 23.7266C28.3696 23.7266 27.459 24.6371 27.459 25.7604C27.459 26.8836 28.3696 27.7942 29.4928 27.7942Z" fill="#91CECE"/>
<path d="M29.4928 35.929C30.616 35.929 31.5266 35.0184 31.5266 33.8951C31.5266 32.7719 30.616 31.8613 29.4928 31.8613C28.3696 31.8613 27.459 32.7719 27.459 33.8951C27.459 35.0184 28.3696 35.929 29.4928 35.929Z" fill="#91CECE"/>
<path d="M34.2428 31.8626C35.366 31.8626 36.2766 30.952 36.2766 29.8287C36.2766 28.7055 35.366 27.7949 34.2428 27.7949C33.1196 27.7949 32.209 28.7055 32.209 29.8287C32.209 30.952 33.1196 31.8626 34.2428 31.8626Z" fill="#EA3836"/>
<path d="M18.6465 19.659V16.9473H21.3582V19.659" fill="#874D1B"/>
<path d="M20.6801 16.9482H19.3243V14.9144C19.3243 14.1652 18.7175 13.5585 17.9684 13.5585H14.5787C13.0812 13.5585 11.867 12.3444 11.867 10.8468C11.867 9.34924 13.0812 8.13511 14.5787 8.13511H25.4256C26.1747 8.13511 26.7814 7.52839 26.7814 6.77926C26.7814 6.03012 26.1747 5.42341 25.4256 5.42341H22.0359C20.5383 5.42341 19.3242 4.20927 19.3242 2.7117V0H20.68V2.7117C20.68 3.46084 21.2867 4.06755 22.0359 4.06755H25.4256C26.9231 4.06755 28.1373 5.28169 28.1373 6.77926C28.1373 8.27683 26.9231 9.49096 25.4256 9.49096H14.5787C13.8296 9.49096 13.2229 10.0977 13.2229 10.8468C13.2229 11.5959 13.8296 12.2027 14.5787 12.2027H17.9684C19.466 12.2027 20.6801 13.4168 20.6801 14.9144V16.9482Z" fill="#383856"/>
<path d="M25.8006 28.0977C25.9972 28.4142 26.1016 28.779 26.103 29.1512C26.103 30.2745 25.1925 31.185 24.0691 31.185C23.6969 31.1837 23.3323 31.0792 23.0156 30.8826C23.5946 31.8412 24.8419 32.149 25.8005 31.5701C26.7591 30.9911 27.0669 29.7437 26.4879 28.7852C26.3179 28.5037 26.0819 28.2678 25.8006 28.0977Z" fill="#D62121"/>
<path d="M30.5467 24.0312C30.7433 24.3478 30.8477 24.7126 30.849 25.0848C30.849 26.2081 29.9386 27.1186 28.8152 27.1186C28.443 27.1172 28.0784 27.0128 27.7617 26.8162C28.3407 27.7748 29.588 28.0826 30.5466 27.5037C31.5052 26.9247 31.813 25.6773 31.234 24.7187C31.064 24.4373 30.8281 24.2014 30.5467 24.0312Z" fill="#83B2B7"/>
<path d="M35.2928 28.0977C35.4894 28.4142 35.5938 28.779 35.5951 29.1512C35.5951 30.2745 34.6847 31.185 33.5613 31.185C33.1891 31.1837 32.8245 31.0792 32.5078 30.8826C33.0868 31.8412 34.3341 32.149 35.2927 31.5701C36.2513 30.9911 36.5591 29.7437 35.9801 28.7852C35.8101 28.5037 35.5741 28.2678 35.2928 28.0977Z" fill="#D62121"/>
<path d="M30.5467 32.1641C30.7433 32.4806 30.8477 32.8454 30.849 33.2176C30.849 34.3409 29.9386 35.2514 28.8152 35.2514C28.443 35.2501 28.0784 35.1456 27.7617 34.949C28.3407 35.9076 29.588 36.2154 30.5466 35.6365C31.5052 35.0575 31.813 33.8101 31.234 32.8516C31.064 32.5702 30.8281 32.3342 30.5467 32.1641Z" fill="#83B2B7"/>
<path d="M5.76562 30.522V31.1844H9.15529V34.574H11.867V31.1844H15.2567V28.4727H14.1252C11.4473 30.3397 7.36421 30.5268 5.76562 30.522Z" fill="#202033"/>
<path d="M18.6465 19.4755V19.6606H21.3582V17.4336C20.7122 18.4024 19.7556 19.1223 18.6465 19.4755Z" fill="#6B3713"/>
</g>
<defs>
<clipPath id="clip0_134_15805">
<rect width="40" height="40" fill="white"/>
</clipPath>
</defs>
</svg>
