<svg width="40" height="34" viewBox="0 0 40 34" fill="none" xmlns="http://www.w3.org/2000/svg">
<path d="M0 15.4299C0 14.0462 0.960471 12.8868 2.25114 12.5821C2.59616 12.5007 2.92588 12.7674 2.92588 13.122V17.7378C2.92588 18.0923 2.59608 18.359 2.25114 18.2776C0.960471 17.9729 0 16.8136 0 15.4299Z" fill="url(#paint0_linear_134_15574)"/>
<path d="M21.1544 15.4299C21.1544 14.0462 20.1939 12.8868 18.9033 12.5821C18.5582 12.5007 18.2285 12.7674 18.2285 13.122V17.7378C18.2285 18.0923 18.5583 18.359 18.9033 18.2776C20.1939 17.9729 21.1544 16.8136 21.1544 15.4299Z" fill="url(#paint1_linear_134_15574)"/>
<path d="M21.1544 15.4299C21.1544 14.0462 20.1939 12.8868 18.9033 12.5821C18.5582 12.5007 18.2285 12.7674 18.2285 13.122V17.7378C18.2285 18.0923 18.5583 18.359 18.9033 18.2776C20.1939 17.9729 21.1544 16.8136 21.1544 15.4299Z" fill="url(#paint2_linear_134_15574)"/>
<path d="M31.6308 22.2998H12.541V27.7377H19.4398C19.1169 28.6225 18.9405 29.5779 18.9405 30.5745V33.3199H38.9217C39.4651 33.3199 39.9056 32.8794 39.9056 32.336V30.5745C39.9056 26.0046 36.2008 22.2998 31.6308 22.2998Z" fill="url(#paint3_linear_134_15574)"/>
<path d="M21.0605 33.3199H37.7856V25.0443C36.2708 23.3596 34.0747 22.2999 31.6308 22.2999H27.2153C24.7714 22.2999 22.5753 23.3597 21.0605 25.0443V33.3199Z" fill="url(#paint4_linear_134_15574)"/>
<path d="M18.9414 25.043V33.3186H27.2171L18.9414 25.043Z" fill="url(#paint5_linear_134_15574)"/>
<path d="M34.9685 33.3199H38.922C39.4654 33.3199 39.9058 32.8794 39.9058 32.336V30.5745C39.9058 26.0045 36.2011 22.2998 31.6311 22.2998H27.2156C26.238 22.2998 25.3003 22.4698 24.4297 22.7811L34.9685 33.3199Z" fill="url(#paint6_linear_134_15574)"/>
<path d="M19.002 15.4299C19.002 14.0462 19.9625 12.8868 21.2531 12.5821C21.598 12.5007 21.9278 12.7674 21.9278 13.122V17.7378C21.9278 18.0923 21.598 18.359 21.2531 18.2776C19.9624 17.9729 19.002 16.8136 19.002 15.4299Z" fill="url(#paint7_linear_134_15574)"/>
<path d="M40.0001 15.4299C40.0001 14.0462 39.0396 12.8868 37.749 12.5821C37.4039 12.5007 37.0742 12.7674 37.0742 13.122V17.7378C37.0742 18.0923 37.404 18.359 37.749 18.2776C39.0396 17.9729 40.0001 16.8136 40.0001 15.4299Z" fill="url(#paint8_linear_134_15574)"/>
<path d="M40.0001 15.4299C40.0001 14.0462 39.0396 12.8868 37.749 12.5821C37.4039 12.5007 37.0742 12.7674 37.0742 13.122V17.7378C37.0742 18.0923 37.404 18.359 37.749 18.2776C39.0396 17.9729 40.0001 16.8136 40.0001 15.4299Z" fill="url(#paint9_linear_134_15574)"/>
<path d="M29.4214 24.5649C34.067 24.5649 37.833 20.4753 37.833 15.4304C37.833 10.3856 34.067 6.2959 29.4214 6.2959C24.7758 6.2959 21.0098 10.3856 21.0098 15.4304C21.0098 20.4753 24.7758 24.5649 29.4214 24.5649Z" fill="url(#paint10_linear_134_15574)"/>
<path d="M39.699 8.97761C39.699 8.37503 39.4472 7.83126 39.0432 7.44561C38.7103 7.12781 38.5912 6.63801 38.7441 6.20389C38.8704 5.84561 38.9261 5.45408 38.8943 5.04577C38.7943 3.75801 37.8058 2.69032 36.5296 2.49087C36.4055 2.4715 36.2826 2.46051 36.1615 2.45738C35.7453 2.44671 35.3715 2.22208 35.1553 1.86624C34.7838 1.25502 34.1117 0.846789 33.3443 0.846789C32.9391 0.846789 32.5607 0.960672 32.239 1.15816C31.8523 1.39557 31.36 1.40302 30.9826 1.15095C30.5363 0.852672 29.9999 0.678711 29.4227 0.678711C28.8455 0.678711 28.3092 0.852672 27.8628 1.15095C27.4855 1.40302 26.9932 1.39557 26.6064 1.15816C26.2848 0.960672 25.9063 0.846789 25.5012 0.846789C24.7337 0.846789 24.0615 1.25502 23.6902 1.86624C23.4739 2.22208 23.1001 2.44671 22.6837 2.45738C22.5629 2.46051 22.4402 2.47142 22.3162 2.49079C21.0401 2.69001 20.0514 3.75746 19.9511 5.04514C19.9193 5.45354 19.975 5.84522 20.1012 6.20357C20.2542 6.63785 20.135 7.12781 19.802 7.44577C19.3981 7.83134 19.1465 8.37503 19.1465 8.97754C19.1465 9.69667 19.5051 10.3318 20.0531 10.7144C20.6551 11.1347 21.0111 11.8249 21.0111 12.5592V15.4299C21.0111 12.6177 21.7733 10.2569 29.4227 10.2569C37.0721 10.2569 37.8343 12.6176 37.8343 15.4299V12.5592C37.8343 11.8249 38.1903 11.1347 38.7924 10.7144C39.3404 10.3319 39.699 9.69675 39.699 8.97761Z" fill="url(#paint11_linear_134_15574)"/>
<path d="M25.6714 16.9754C24.9921 16.9754 24.4414 16.4248 24.4414 15.7455V15.1147C24.4414 14.4354 24.9921 13.8848 25.6714 13.8848C26.3507 13.8848 26.9013 14.4354 26.9013 15.1147V15.7455C26.9013 16.4248 26.3507 16.9754 25.6714 16.9754Z" fill="url(#paint12_linear_134_15574)"/>
<path d="M33.1753 16.9754C32.496 16.9754 31.9453 16.4248 31.9453 15.7455V15.1147C31.9453 14.4354 32.496 13.8848 33.1753 13.8848C33.8546 13.8848 34.4052 14.4354 34.4052 15.1147V15.7455C34.4052 16.4248 33.8546 16.9754 33.1753 16.9754Z" fill="url(#paint13_linear_134_15574)"/>
<path d="M21.0607 33.3199H1.07955C0.536174 33.3199 0.0957031 32.8794 0.0957031 32.336V30.5745C0.0957031 26.0045 3.80041 22.2998 8.37045 22.2998H12.786C17.356 22.2998 21.0607 26.0045 21.0607 30.5745V33.3199Z" fill="url(#paint14_linear_134_15574)"/>
<path d="M21.0588 30.5753V33.3204H7.29175L1.00391 27.0333V26.7996C1.29802 26.2271 1.65724 25.6929 2.07214 25.2074C3.589 23.4286 5.84704 22.3008 8.36861 22.3008H12.7843C17.3545 22.3008 21.0588 26.005 21.0588 30.5753Z" fill="url(#paint15_linear_134_15574)"/>
<path d="M2.21484 33.3208H18.9399V25.0452C17.4251 23.3605 15.229 22.3008 12.7851 22.3008H8.36959C5.92567 22.3008 3.72959 23.3605 2.21484 25.0452V33.3208Z" fill="url(#paint16_linear_134_15574)"/>
<path d="M4.7655 26.368C3.89303 27.2404 2.67428 27.5555 1.5517 27.3131C0.602128 27.1081 0.274598 25.9138 0.9615 25.2268L3.62425 22.564C4.31115 21.8771 5.50558 22.2047 5.7106 23.1542C5.95295 24.2767 5.63789 25.4956 4.7655 26.368Z" fill="url(#paint17_linear_134_15574)"/>
<path d="M16.1228 33.3199H21.0601V30.5745C21.0601 26.0045 17.3554 22.2998 12.7854 22.2998H8.36987C7.3923 22.2998 6.45457 22.4698 5.58398 22.7811L16.1228 33.3199Z" fill="url(#paint18_linear_134_15574)"/>
<path d="M10.5776 24.5649C15.2232 24.5649 18.9892 20.4753 18.9892 15.4304C18.9892 10.3856 15.2232 6.2959 10.5776 6.2959C5.93202 6.2959 2.16602 10.3856 2.16602 15.4304C2.16602 20.4753 5.93202 24.5649 10.5776 24.5649Z" fill="url(#paint19_linear_134_15574)"/>
<path d="M6.82572 16.9753C6.14643 16.9753 5.59576 16.4246 5.59576 15.7453V15.1146C5.59576 14.4353 6.14643 13.8846 6.82572 13.8846C7.50502 13.8846 8.05569 14.4353 8.05569 15.1146V15.7453C8.05569 16.4246 7.50502 16.9753 6.82572 16.9753Z" fill="url(#paint20_linear_134_15574)"/>
<path d="M14.3296 16.9753C13.6503 16.9753 13.0997 16.4246 13.0997 15.7453V15.1146C13.0997 14.4353 13.6503 13.8846 14.3296 13.8846C15.0089 13.8846 15.5596 14.4353 15.5596 15.1146V15.7453C15.5596 16.4246 15.0089 16.9753 14.3296 16.9753Z" fill="url(#paint21_linear_134_15574)"/>
<path d="M20.4089 11.1072C19.1903 13.8821 14.6361 14.5655 10.2369 12.6336C5.83765 10.7017 3.25922 6.88599 4.47788 4.11101C5.69655 1.33603 10.2507 0.652736 14.6499 2.58466C19.0491 4.51658 21.6275 8.33227 20.4089 11.1072Z" fill="url(#paint22_linear_134_15574)"/>
<path d="M3.39733 13.9324C5.27363 13.9324 6.79467 11.9464 6.79467 9.49647C6.79467 7.04658 5.27363 5.06055 3.39733 5.06055C1.52104 5.06055 0 7.04658 0 9.49647C0 11.9464 1.52104 13.9324 3.39733 13.9324Z" fill="url(#paint23_linear_134_15574)"/>
<defs>
<linearGradient id="paint0_linear_134_15574" x1="0.860941" y1="14.1649" x2="3.21435" y2="16.5183" gradientUnits="userSpaceOnUse">
<stop stop-color="#FFDFCF"/>
<stop offset="1" stop-color="#FFA78F"/>
</linearGradient>
<linearGradient id="paint1_linear_134_15574" x1="17.3164" y1="13.7179" x2="20.6095" y2="17.011" gradientUnits="userSpaceOnUse">
<stop stop-color="#FFDFCF"/>
<stop offset="1" stop-color="#FFA78F"/>
</linearGradient>
<linearGradient id="paint2_linear_134_15574" x1="19.8229" y1="15.4299" x2="17.8606" y2="15.4299" gradientUnits="userSpaceOnUse">
<stop stop-color="#CA6E59" stop-opacity="0"/>
<stop offset="1" stop-color="#883F2E"/>
</linearGradient>
<linearGradient id="paint3_linear_134_15574" x1="23.5425" y1="20.8858" x2="29.9412" y2="38.9182" gradientUnits="userSpaceOnUse">
<stop stop-color="#CCFC5C"/>
<stop offset="0.1591" stop-color="#C6F95A"/>
<stop offset="0.3653" stop-color="#B6F053"/>
<stop offset="0.5975" stop-color="#9BE248"/>
<stop offset="0.8469" stop-color="#76CF38"/>
<stop offset="1" stop-color="#5CC12D"/>
</linearGradient>
<linearGradient id="paint4_linear_134_15574" x1="29.4231" y1="28.7295" x2="29.4231" y2="38.9812" gradientUnits="userSpaceOnUse">
<stop stop-color="#5CC12D" stop-opacity="0"/>
<stop offset="0.6065" stop-color="#61942D" stop-opacity="0.607"/>
<stop offset="1" stop-color="#647C2D"/>
</linearGradient>
<linearGradient id="paint5_linear_134_15574" x1="24.0282" y1="30.1252" x2="16.002" y2="28.635" gradientUnits="userSpaceOnUse">
<stop stop-color="#5CC12D" stop-opacity="0"/>
<stop offset="0.6065" stop-color="#61942D" stop-opacity="0.607"/>
<stop offset="1" stop-color="#647C2D"/>
</linearGradient>
<linearGradient id="paint6_linear_134_15574" x1="32.1677" y1="31.4881" x2="32.1677" y2="17.3509" gradientUnits="userSpaceOnUse">
<stop stop-color="#5CC12D" stop-opacity="0"/>
<stop offset="0.6065" stop-color="#61942D" stop-opacity="0.607"/>
<stop offset="1" stop-color="#647C2D"/>
</linearGradient>
<linearGradient id="paint7_linear_134_15574" x1="19.8629" y1="14.1649" x2="22.2162" y2="16.5183" gradientUnits="userSpaceOnUse">
<stop stop-color="#F1B0A2"/>
<stop offset="1" stop-color="#CA6E59"/>
</linearGradient>
<linearGradient id="paint8_linear_134_15574" x1="36.1621" y1="13.7179" x2="39.4552" y2="17.011" gradientUnits="userSpaceOnUse">
<stop stop-color="#F1B0A2"/>
<stop offset="1" stop-color="#CA6E59"/>
</linearGradient>
<linearGradient id="paint9_linear_134_15574" x1="39.5174" y1="15.4299" x2="37.2784" y2="15.4299" gradientUnits="userSpaceOnUse">
<stop stop-color="#CA6E59" stop-opacity="0"/>
<stop offset="1" stop-color="#883F2E"/>
</linearGradient>
<linearGradient id="paint10_linear_134_15574" x1="24.8293" y1="10.8383" x2="36.1718" y2="22.1809" gradientUnits="userSpaceOnUse">
<stop stop-color="#F1B0A2"/>
<stop offset="1" stop-color="#CA6E59"/>
</linearGradient>
<linearGradient id="paint11_linear_134_15574" x1="25.3557" y1="3.16648" x2="31.8143" y2="12.6423" gradientUnits="userSpaceOnUse">
<stop stop-color="#7A6D79"/>
<stop offset="1" stop-color="#554E56"/>
</linearGradient>
<linearGradient id="paint12_linear_134_15574" x1="24.4414" y1="15.4301" x2="26.9013" y2="15.4301" gradientUnits="userSpaceOnUse">
<stop stop-color="#7A6D79"/>
<stop offset="1" stop-color="#554E56"/>
</linearGradient>
<linearGradient id="paint13_linear_134_15574" x1="31.9453" y1="15.4301" x2="34.4052" y2="15.4301" gradientUnits="userSpaceOnUse">
<stop stop-color="#7A6D79"/>
<stop offset="1" stop-color="#554E56"/>
</linearGradient>
<linearGradient id="paint14_linear_134_15574" x1="8.09994" y1="23.8405" x2="13.118" y2="37.9822" gradientUnits="userSpaceOnUse">
<stop stop-color="#89E2FF"/>
<stop offset="1" stop-color="#3FA9F5"/>
</linearGradient>
<linearGradient id="paint15_linear_134_15574" x1="9.07873" y1="25.7965" x2="-2.94739" y2="15.8881" gradientUnits="userSpaceOnUse">
<stop stop-color="#2740B0" stop-opacity="0"/>
<stop offset="0.2879" stop-color="#243CA6" stop-opacity="0.288"/>
<stop offset="0.7742" stop-color="#1D308C" stop-opacity="0.774"/>
<stop offset="1" stop-color="#192A7D"/>
</linearGradient>
<linearGradient id="paint16_linear_134_15574" x1="10.5774" y1="28.848" x2="10.5774" y2="40.5041" gradientUnits="userSpaceOnUse">
<stop stop-color="#2740B0" stop-opacity="0"/>
<stop offset="0.2879" stop-color="#243CA6" stop-opacity="0.288"/>
<stop offset="0.7742" stop-color="#1D308C" stop-opacity="0.774"/>
<stop offset="1" stop-color="#192A7D"/>
</linearGradient>
<linearGradient id="paint17_linear_134_15574" x1="2.34213" y1="23.9447" x2="4.43828" y2="26.0408" gradientUnits="userSpaceOnUse">
<stop stop-color="#FFDFCF"/>
<stop offset="1" stop-color="#FFA78F"/>
</linearGradient>
<linearGradient id="paint18_linear_134_15574" x1="13.9341" y1="30.5247" x2="10.9929" y2="10.564" gradientUnits="userSpaceOnUse">
<stop stop-color="#2740B0" stop-opacity="0"/>
<stop offset="0.2879" stop-color="#243CA6" stop-opacity="0.288"/>
<stop offset="0.7742" stop-color="#1D308C" stop-opacity="0.774"/>
<stop offset="1" stop-color="#192A7D"/>
</linearGradient>
<linearGradient id="paint19_linear_134_15574" x1="5.98555" y1="10.8383" x2="17.3281" y2="22.1809" gradientUnits="userSpaceOnUse">
<stop stop-color="#FFDFCF"/>
<stop offset="1" stop-color="#FFA78F"/>
</linearGradient>
<linearGradient id="paint20_linear_134_15574" x1="5.59576" y1="15.43" x2="8.05569" y2="15.43" gradientUnits="userSpaceOnUse">
<stop stop-color="#7A6D79"/>
<stop offset="1" stop-color="#554E56"/>
</linearGradient>
<linearGradient id="paint21_linear_134_15574" x1="13.0997" y1="15.43" x2="15.5596" y2="15.43" gradientUnits="userSpaceOnUse">
<stop stop-color="#7A6D79"/>
<stop offset="1" stop-color="#554E56"/>
</linearGradient>
<linearGradient id="paint22_linear_134_15574" x1="11.2896" y1="4.67007" x2="14.0608" y2="11.7289" gradientUnits="userSpaceOnUse">
<stop stop-color="#F5F173"/>
<stop offset="1" stop-color="#FBB03B"/>
</linearGradient>
<linearGradient id="paint23_linear_134_15574" x1="1.98126" y1="7.03694" x2="4.96165" y2="12.2134" gradientUnits="userSpaceOnUse">
<stop stop-color="#F5F173"/>
<stop offset="1" stop-color="#FBB03B"/>
</linearGradient>
</defs>
</svg>
