<svg width="40" height="40" viewBox="0 0 40 40" fill="none" xmlns="http://www.w3.org/2000/svg">
<path d="M30.2254 34.5676C29.8705 34.9225 29.4061 35.0996 28.9417 35.0996C28.4766 35.0996 28.0113 34.9225 27.6572 34.5676C28.3662 35.2767 28.3662 36.426 27.6572 37.1358C27.303 37.49 26.8379 37.6679 26.3727 37.6679C25.9083 37.6679 25.4439 37.49 25.089 37.1358L23.9083 35.9551C24.6173 36.6642 24.6173 37.8143 23.9083 38.5233C23.5541 38.8775 23.089 39.0553 22.6246 39.0553C22.1602 39.0553 21.6959 38.8774 21.3409 38.5241V38.5233H21.3402C17.2307 41.6026 8.34938 31.1873 5.95266 28.2239L5.04883 24.1057L10.4983 17.7314C14.4017 16.8139 18.0878 17.4078 18.0878 17.4078L24.7977 21.6284L30.2254 31.9994C30.9345 32.7085 30.9345 33.8586 30.2254 34.5676Z" fill="#FFCBBE"/>
<path d="M21.3406 38.5229C17.2312 41.6022 8.34984 31.1869 5.95312 28.2235L6.92453 25.9805C10.4143 31.0413 15.4646 36.4248 18.4409 35.6223L21.3406 38.5229Z" fill="#EAAC9D"/>
<path d="M33.9372 27.5119C33.6757 28.3102 33.5356 29.0813 33.864 29.7534V29.7541C32.3872 31.9047 30.7429 32.7972 30.697 32.8222C30.6181 32.5212 30.4604 32.2362 30.2246 32.0005L20.8201 22.596C19.6572 22.984 18.4193 24.023 17.5187 24.9066C17.0768 25.3397 16.4982 25.5609 15.9155 25.5609C15.439 25.5609 14.9602 25.4128 14.5529 25.1119C14.5224 25.0894 14.4918 25.066 14.4628 25.0419C14.462 25.0411 14.4611 25.0402 14.4604 25.0394C13.6379 24.365 13.3811 23.2036 13.864 22.2451C15.8157 18.3682 19.0495 16.7368 20.049 16.3094C20.243 16.2266 20.4522 16.1863 20.6631 16.1944C21.6321 16.229 22.5907 16.4237 23.5018 16.7111C26.5818 17.6801 29.1251 19.7066 29.7175 20.2024C30.2462 21.5891 34.0748 22.2765 34.6559 23.6406C35.1429 24.7827 34.3718 26.1839 33.9372 27.5119Z" fill="#FFA894"/>
<path d="M33.8655 29.7544V29.7552C32.3887 31.9057 30.7445 32.7982 30.6985 32.8232C30.6196 32.5222 30.4619 32.2373 30.2261 32.0015L24.5215 26.2969C26.5287 28.3041 30.8716 29.1621 32.8796 27.6844C33.1484 27.4872 33.5114 27.4421 33.9388 27.513C33.6773 28.3112 33.5372 29.0823 33.8655 29.7544Z" fill="#EF8F79"/>
<path d="M14.4604 25.0394C13.6379 24.365 13.3811 23.2036 13.864 22.2451C15.8157 18.3682 19.0495 16.7368 20.049 16.3094C20.243 16.2266 20.4522 16.1863 20.6631 16.1944C21.6321 16.229 22.5907 16.4237 23.5018 16.7111C19.225 16.7135 13.2048 23.8056 14.4604 25.0394Z" fill="#EF8F79"/>
<path d="M30.5385 34.1482C30.4573 34.2987 30.3526 34.4404 30.2255 34.5675C29.8705 34.9224 29.4062 35.0995 28.9418 35.0995C28.4766 35.0995 28.0114 34.9224 27.6573 34.5675L21.6582 28.5683C21.9209 28.0963 22.5621 28.0068 22.9441 28.3887L28.3896 33.8351C28.7437 34.19 29.2089 34.367 29.6741 34.367C29.9719 34.3671 30.2697 34.2947 30.5385 34.1482Z" fill="#EAAC9D"/>
<path d="M24.2516 38.0479C24.1655 38.2193 24.052 38.3795 23.9095 38.522C23.5554 38.8761 23.0902 39.0539 22.625 39.0539C22.1606 39.0539 21.6963 38.876 21.3413 38.522L16.4648 33.6447C17.0474 33.2737 17.8096 33.3572 18.298 33.8456L22.1582 37.7059C22.5123 38.06 22.9775 38.2379 23.4419 38.2379C23.7196 38.2379 23.9973 38.1743 24.2516 38.0479Z" fill="#EAAC9D"/>
<path d="M27.9577 36.7397C27.8788 36.8822 27.7783 37.0157 27.6575 37.1365C27.3026 37.4907 26.8382 37.6686 26.3738 37.6686C25.9087 37.6686 25.4434 37.4907 25.0893 37.1365L19.6035 31.6497C20.028 31.2882 20.659 31.3136 21.0532 31.7079L24.6048 35.2597L25.7846 36.4404C26.1395 36.7953 26.6039 36.9724 27.0691 36.9724C27.3759 36.9723 27.6825 36.895 27.9577 36.7397Z" fill="#EAAC9D"/>
<path d="M34.2963 30.6265C32.4354 26.9016 30.7592 23.0328 29.3145 19.1274C31.025 17.8879 32.9441 17.0565 35.0184 16.6562C36.8794 20.3812 38.5555 24.25 40.0003 28.1553C38.2897 29.3948 36.3706 30.2262 34.2963 30.6265Z" fill="#9DC6FB"/>
<path d="M39.9998 28.1529C38.2815 29.3991 36.3805 30.2226 34.296 30.6244C33.8092 29.6493 33.3372 28.6684 32.8789 27.6819C35.05 27.2598 37.0341 26.4079 38.8314 25.125C39.235 26.1287 39.6248 27.1379 39.9998 28.1529Z" fill="#80B4FB"/>
<path d="M5.70391 28.728C3.62969 28.3278 1.71063 27.4964 0 26.2569C1.44469 22.3516 3.12086 18.4827 4.98195 14.7578C7.05617 15.158 8.97524 15.9895 10.6859 17.229C9.2411 21.1344 7.56492 25.0032 5.70391 28.728Z" fill="#80CB8E"/>
<path d="M0 26.2564C1.71836 27.5026 3.61937 28.3261 5.70383 28.7279C6.19062 27.7528 6.66266 26.772 7.12094 25.7854C4.94984 25.3634 2.9657 24.5114 1.16844 23.2285C0.764844 24.2321 0.375078 25.2414 0 26.2564Z" fill="#6EC17D"/>
<path d="M20 18.2137C9.63711 14.4101 8.42281 6.32321 10.3327 3.06181C11.651 0.810946 14.6931 0.282196 17.1839 1.69907C17.1869 1.70071 17.1902 1.70243 17.1931 1.70454C17.2162 1.71751 17.2397 1.73095 17.2627 1.74477C17.2661 1.74641 17.2695 1.74852 17.2728 1.75063C18.3559 2.39009 19.3283 3.40188 20 4.80493C21.8617 0.917899 26.0297 0.0327432 28.4638 1.75063C28.9423 2.08821 29.3536 2.52634 29.6673 3.06181C31.5772 6.32321 30.3629 14.4101 20 18.2137Z" fill="#DD636E"/>
<path d="M20 18.2137C9.63711 14.4101 8.42281 6.32321 10.3327 3.06181C11.651 0.810946 14.6931 0.282196 17.1839 1.69907C14.562 0.257509 10.5254 6.09149 13.7036 10.8367C16.1704 14.5197 20 18.2137 20 18.2137Z" fill="#DA4A54"/>
</svg>
