<svg width="40" height="40" viewBox="0 0 40 40" fill="none" xmlns="http://www.w3.org/2000/svg">
<g clip-path="url(#clip0_134_15824)">
<path d="M24.2031 24.9531C29.26 24.9531 33.3594 20.8537 33.3594 15.7969C33.3594 10.74 29.26 6.64062 24.2031 6.64062C19.1463 6.64062 15.0469 10.74 15.0469 15.7969C15.0469 20.8537 19.1463 24.9531 24.2031 24.9531Z" fill="url(#paint0_linear_134_15824)"/>
<path d="M24.2031 5.07812C23.6641 5.07812 23.2266 4.64062 23.2266 4.10156V0.976562C23.2266 0.4375 23.6641 0 24.2031 0C24.7422 0 25.1797 0.4375 25.1797 0.976562V4.10156C25.1797 4.64062 24.7422 5.07812 24.2031 5.07812ZM24.2031 31.5938C23.6641 31.5938 23.2266 31.1562 23.2266 30.6172V27.4922C23.2266 26.9531 23.6641 26.5156 24.2031 26.5156C24.7422 26.5156 25.1797 26.9531 25.1797 27.4922V30.6172C25.1797 31.1562 24.7422 31.5938 24.2031 31.5938ZM34.9219 15.7969C34.9219 15.2578 35.3594 14.8203 35.8984 14.8203H39.0234C39.5625 14.8203 40 15.2578 40 15.7969C40 16.3359 39.5625 16.7734 39.0234 16.7734H35.8984C35.3594 16.7734 34.9219 16.3359 34.9219 15.7969ZM8.40625 15.7969C8.40625 15.2578 8.84375 14.8203 9.38281 14.8203H12.5078C13.0469 14.8203 13.4844 15.2578 13.4844 15.7969C13.4844 16.3359 13.0469 16.7734 12.5078 16.7734H9.38281C8.84375 16.7734 8.40625 16.3359 8.40625 15.7969ZM31.7812 23.375C32.1641 22.9922 32.7812 22.9922 33.1641 23.375L35.375 25.5859C35.7578 25.9688 35.7578 26.5859 35.375 26.9688C34.9922 27.3516 34.375 27.3516 33.9922 26.9688L31.7812 24.7578C31.3984 24.375 31.3984 23.7578 31.7812 23.375ZM13.0313 4.625C13.4141 4.24219 14.0312 4.24219 14.4141 4.625L16.625 6.83594C17.0078 7.21875 17.0078 7.83594 16.625 8.21875C16.2422 8.60156 15.625 8.60156 15.2422 8.21875L13.0313 6.00781C12.6563 5.625 12.6563 5.00781 13.0313 4.625ZM16.625 23.375C17.0078 23.7578 17.0078 24.375 16.625 24.7578L14.4141 26.9688C14.0312 27.3516 13.4141 27.3516 13.0313 26.9688C12.6484 26.5859 12.6484 25.9688 13.0313 25.5859L15.2422 23.375C15.625 22.9922 16.2422 22.9922 16.625 23.375ZM35.375 4.625C35.7578 5.00781 35.7578 5.625 35.375 6.00781L33.1641 8.21875C32.7812 8.60156 32.1641 8.60156 31.7812 8.21875C31.3984 7.83594 31.3984 7.21875 31.7812 6.83594L33.9922 4.625C34.375 4.24219 34.9922 4.24219 35.375 4.625Z" fill="url(#paint1_linear_134_15824)"/>
<path d="M35.3359 25.4844C35.6719 24.6875 35.8594 23.8047 35.8594 22.8828C35.8594 19.2031 32.8828 16.2266 29.2031 16.2266C27.6484 16.2266 26.2266 16.7656 25.0938 17.6562C23.7188 13.9531 20.1484 11.3047 15.9609 11.3047C10.5859 11.3047 6.22656 15.6641 6.22656 21.0391C6.22656 21.3203 6.24219 21.5938 6.26562 21.8672C2.76562 22.1094 0 25.0156 0 28.5781C0 32.1406 3.01562 35.3125 6.73438 35.3125H35.0781C37.7969 35.3125 40 33.1094 40 30.3906C40 27.7656 37.9297 25.6172 35.3359 25.4844Z" fill="url(#paint2_linear_134_15824)"/>
<path d="M14.1562 36.6875C14.1562 38.5156 12.6719 40 10.8438 40C9.01563 40 7.53125 38.5156 7.53125 36.6875C7.53125 34.8594 10.8438 29.3984 10.8438 29.3984C10.8438 29.3984 14.1562 34.8594 14.1562 36.6875Z" fill="url(#paint3_linear_134_15824)"/>
<path d="M20 23.6875C20 23.6875 16.6875 29.1484 16.6875 30.9766C16.6875 32.8047 18.1719 34.2891 20 34.2891C21.8281 34.2891 23.3125 32.8047 23.3125 30.9766C23.3125 29.1484 20 23.6875 20 23.6875Z" fill="url(#paint4_linear_134_15824)"/>
<path d="M29.1563 28.4375C29.1563 28.4375 25.8438 33.8984 25.8438 35.7266C25.8438 37.5547 27.3281 39.0391 29.1563 39.0391C30.9844 39.0391 32.4688 37.5547 32.4688 35.7266C32.4688 33.8984 29.1563 28.4375 29.1563 28.4375Z" fill="url(#paint5_linear_134_15824)"/>
</g>
<defs>
<linearGradient id="paint0_linear_134_15824" x1="24.2039" y1="24.9516" x2="24.2039" y2="6.64062" gradientUnits="userSpaceOnUse">
<stop stop-color="#FF9500"/>
<stop offset="1" stop-color="#FFDE26"/>
</linearGradient>
<linearGradient id="paint1_linear_134_15824" x1="24.2043" y1="31.5914" x2="24.2043" y2="0" gradientUnits="userSpaceOnUse">
<stop stop-color="#FF9D00"/>
<stop offset="1" stop-color="#FFEB78"/>
</linearGradient>
<linearGradient id="paint2_linear_134_15824" x1="20" y1="35.3125" x2="20" y2="11.3133" gradientUnits="userSpaceOnUse">
<stop stop-color="#0074DB"/>
<stop offset="1" stop-color="#61B8FF"/>
</linearGradient>
<linearGradient id="paint3_linear_134_15824" x1="10.8414" y1="40" x2="10.8414" y2="29.3977" gradientUnits="userSpaceOnUse">
<stop stop-color="#9CDCFF"/>
<stop offset="1" stop-color="#47BEFF"/>
</linearGradient>
<linearGradient id="paint4_linear_134_15824" x1="20" y1="34.2898" x2="20" y2="23.6875" gradientUnits="userSpaceOnUse">
<stop stop-color="#9CDCFF"/>
<stop offset="1" stop-color="#47BEFF"/>
</linearGradient>
<linearGradient id="paint5_linear_134_15824" x1="29.1586" y1="39.0359" x2="29.1586" y2="28.4336" gradientUnits="userSpaceOnUse">
<stop stop-color="#9CDCFF"/>
<stop offset="1" stop-color="#47BEFF"/>
</linearGradient>
<clipPath id="clip0_134_15824">
<rect width="40" height="40" fill="white"/>
</clipPath>
</defs>
</svg>
