<svg width="38" height="38" viewBox="0 0 38 38" fill="none" xmlns="http://www.w3.org/2000/svg">
<path d="M16.8509 0.249268C13.0603 0.249268 9.82524 3.37204 9.94049 7.16085V10.198H14.3143V7.16085C14.3143 5.71837 15.4084 4.62304 16.8509 4.62304H21.1526C22.5951 4.62304 23.6905 5.71837 23.6905 7.16085V10.198H28.0643V7.16085C28.0643 3.37029 24.9432 0.249268 21.1526 0.249268H16.8509Z" fill="#666666"/>
<path d="M9.93946 7.6311V10.1983H14.3132V7.6311H9.93946ZM23.6895 7.6311V10.1983H28.0632V7.6311H23.6895Z" fill="#4D4D4D"/>
<path d="M3.375 9.72876H34.625C36.3563 9.72876 37.75 11.1225 37.75 12.8537V34.6238C37.75 36.355 36.3563 37.7488 34.625 37.7488H3.375C1.64375 37.7488 0.250002 36.355 0.250002 34.6238V12.8537C0.250002 11.1225 1.64375 9.72876 3.375 9.72876Z" fill="#A0694C"/>
<path d="M3.375 9.72876C1.64375 9.72876 0.250002 11.1225 0.250002 12.8537V18.9927C0.250002 24.073 4.33958 28.1638 9.41992 28.1638H28.5801C33.6604 28.1638 37.75 24.073 37.75 18.9927V12.8537C37.75 11.1225 36.3563 9.72876 34.625 9.72876H3.375Z" fill="#FFC861"/>
<path d="M16.3438 9.72876V26.6794H21.6562V9.72876H16.3438Z" fill="#666666"/>
<path d="M37.7508 18.9934C37.7508 23.6052 34.2847 27.6372 29.4915 28.1182C29.1917 28.1475 28.8887 28.1645 28.5809 28.1645H22.3602V30.3276C22.3602 31.2365 21.6284 31.9682 20.7195 31.9682H18.189C17.6667 32.8007 18.2646 33.8827 19.2474 33.8835H20.7427C22.8017 33.8835 24.2884 32.6034 24.306 30.1689H28.775C33.0559 30.1689 36.1399 27.6805 37.7508 25.4631V18.9934ZM9.50371 28.1645C8.87306 28.9981 9.4829 30.1916 10.5279 30.169H15.6414V28.1645H9.50371Z" fill="#8F4E40"/>
<path d="M17.2813 25.2491H20.7188C21.6277 25.2491 22.3594 25.9808 22.3594 26.8897V30.3273C22.3594 31.2362 21.6277 31.9679 20.7188 31.9679H17.2813C16.3723 31.9679 15.6406 31.2362 15.6406 30.3273V26.8897C15.6406 25.9808 16.3723 25.2491 17.2813 25.2491Z" fill="#D1DCFF"/>
</svg>
