<svg width="40" height="40" viewBox="0 0 40 40" fill="none" xmlns="http://www.w3.org/2000/svg">
<g clip-path="url(#clip0_134_15900)">
<path d="M40 36.7641L39.5906 20.2977C39.582 19.9586 39.3047 19.6883 38.9656 19.6883H34.8961L34.5765 6.79688C34.5679 6.45781 34.2906 6.1875 33.9515 6.1875H27.4883C27.3648 3.14687 24.8515 0.710938 21.7781 0.710938H18.8484C15.775 0.710938 13.2609 3.14687 13.1383 6.1875H6.60388C6.26481 6.1875 5.98747 6.45781 5.97888 6.79688L5.73044 16.7219H1.10231C0.763251 16.7219 0.485908 16.9922 0.477314 17.3312L0.000751485 36.4594C-0.016436 37.1937 0.261689 37.8937 0.785126 38.4297C1.31872 38.9758 2.06013 39.2891 2.82028 39.2891H37.4875C38.1656 39.2891 38.8265 39.0094 39.3015 38.5219C39.7695 38.0437 40.0172 37.4195 40 36.7641ZM14.3875 6.1875C14.5093 3.83672 16.4633 1.96094 18.8476 1.96094H21.7773C24.1617 1.96094 26.1156 3.83594 26.2375 6.1875H14.3875Z" fill="#FB4F3B"/>
<path d="M20.307 36.7648L20.7164 20.2984C20.725 19.9594 21.0023 19.6891 21.3414 19.6891H24.1523L24.0922 17.332C24.0836 16.993 23.8062 16.7227 23.4672 16.7227H18.45C18.4515 16.7687 18.4539 16.8148 18.4539 16.8609V20.8289C18.4539 21.1742 18.1742 21.4539 17.8289 21.4539C17.4836 21.4539 17.2039 21.1742 17.2039 20.8289V16.8609C17.2039 16.8148 17.2023 16.7687 17.2 16.7227H6.96872C6.96716 16.7687 6.9656 16.8148 6.9656 16.8609V20.8289C6.9656 21.1742 6.68591 21.4539 6.3406 21.4539C5.99528 21.4539 5.7156 21.1742 5.7156 20.8289V16.8609C5.7156 16.8148 5.71794 16.7687 5.71872 16.7227H1.10231C0.763251 16.7227 0.485908 16.993 0.477314 17.332L0.000751485 36.4602C-0.016436 37.1945 0.261689 37.8945 0.785126 38.4305C1.31872 38.9766 2.06013 39.2898 2.82028 39.2898H22.8203C22.1414 39.2898 21.4797 39.0102 21.0039 38.5219C20.5382 38.0438 20.2906 37.4195 20.307 36.7648Z" fill="#FFC347"/>
<path d="M40.0004 36.7633L39.591 20.2969C39.5824 19.9578 39.3051 19.6875 38.966 19.6875H21.3418C21.0027 19.6875 20.7254 19.9578 20.7168 20.2969L20.3074 36.7633C20.291 37.418 20.5379 38.0422 21.0043 38.5203C21.4801 39.0086 22.1426 39.2883 22.8207 39.2883H37.4879C38.166 39.2883 38.8269 39.0086 39.3019 38.5211C39.7699 38.043 40.0176 37.4187 40.0004 36.7633Z" fill="#69D6F4"/>
<path d="M26.8703 10.6773C26.525 10.6773 26.2453 10.3977 26.2453 10.0523V6.42109C26.2453 3.96172 24.2414 1.96094 21.7789 1.96094H18.8492C16.3867 1.96094 14.3828 3.96172 14.3828 6.42109V10.0531C14.3828 10.3984 14.1031 10.6781 13.7578 10.6781C13.4125 10.6781 13.1328 10.3984 13.1328 10.0531V6.42109C13.1328 3.27266 15.6969 0.710938 18.8492 0.710938H21.7789C24.9312 0.710938 27.4953 3.27266 27.4953 6.42109V10.0531C27.4953 10.3977 27.2156 10.6773 26.8703 10.6773Z" fill="#D0DDDD"/>
<path d="M31.0273 31.2055H29.2781C27.2594 31.2055 25.6172 29.5641 25.6172 27.5461V24.8516C25.6172 24.5062 25.8969 24.2266 26.2422 24.2266C26.5875 24.2266 26.8672 24.5062 26.8672 24.8516V27.5453C26.8672 28.8742 27.9484 29.9547 29.2781 29.9547H31.0273C32.357 29.9547 33.4383 28.8734 33.4383 27.5453V24.8516C33.4383 24.5062 33.718 24.2266 34.0633 24.2266C34.4086 24.2266 34.6883 24.5062 34.6883 24.8516V27.5453C34.6891 29.5633 33.0461 31.2055 31.0273 31.2055Z" fill="#D0DDDD"/>
<path d="M20.6164 38.0055H4.88356C4.12341 38.0055 3.382 37.6922 2.84841 37.1461C2.32497 36.6102 2.04685 35.9102 2.06403 35.1758L2.52341 16.7227H1.10231C0.763251 16.7227 0.485908 16.993 0.477314 17.332L0.000751485 36.4602C-0.016436 37.1945 0.261689 37.8945 0.785126 38.4305C1.31872 38.9766 2.06013 39.2898 2.82028 39.2898H22.8203C22.1414 39.2898 21.4797 39.0102 21.0039 38.5219C20.8507 38.3641 20.7211 38.1906 20.6164 38.0055Z" fill="#F7B746"/>
<path d="M39.5504 38.0051H24.8832C24.2043 38.0051 23.5426 37.7254 23.0668 37.2371C22.6004 36.759 22.3527 36.1348 22.3699 35.4801L22.7629 19.6895H21.3418C21.0027 19.6895 20.7254 19.9598 20.7168 20.2988L20.3074 36.7652C20.291 37.4199 20.5379 38.0441 21.0043 38.5223C21.4801 39.0105 22.1426 39.2902 22.8207 39.2902H37.4879C38.166 39.2902 38.8269 39.0105 39.3019 38.523C39.4574 38.3637 39.5879 38.1879 39.6926 38.0004C39.6457 38.0027 39.598 38.0051 39.5504 38.0051Z" fill="#5FC7E0"/>
<path d="M17.8289 21.4539C17.4836 21.4539 17.2039 21.1742 17.2039 20.8289V16.8609C17.2039 14.7492 15.4836 13.0312 13.3687 13.0312H10.8023C8.68672 13.0312 6.96484 14.7492 6.96484 16.8609V20.8289C6.96484 21.1742 6.68516 21.4539 6.33984 21.4539C5.99453 21.4539 5.71484 21.1742 5.71484 20.8289V16.8609C5.71484 14.0602 7.99688 11.7812 10.8023 11.7812H13.3687C16.1727 11.7812 18.4539 14.0602 18.4539 16.8609V20.8289C18.4539 21.1742 18.1734 21.4539 17.8289 21.4539Z" fill="#D0DDDD"/>
<path d="M26.9094 9.53086V5.89961C26.9094 3.44023 24.9055 1.43945 22.443 1.43945H19.5133C18.3258 1.43945 17.2461 1.90508 16.4453 2.66289C17.1391 2.21914 17.9633 1.96055 18.8469 1.96055H21.7766C24.2391 1.96055 26.243 3.96133 26.243 6.4207V10.0527C26.243 10.398 26.5227 10.6777 26.868 10.6777C27.1781 10.6777 27.4352 10.4512 27.4844 10.1543C27.1625 10.1277 26.9094 9.85898 26.9094 9.53086Z" fill="#C9D3D3"/>
<path d="M13.7973 9.53125V5.9C13.7973 4.22734 14.5207 2.72109 15.6715 1.67578C14.1402 2.70078 13.1309 4.44531 13.1309 6.42109V10.0531C13.1309 10.3984 13.4105 10.6781 13.7559 10.6781C14.066 10.6781 14.323 10.4516 14.3723 10.1547C14.0504 10.1281 13.7973 9.85938 13.7973 9.53125Z" fill="#C9D3D3"/>
<path d="M34.1055 27.0242V24.3305C34.1055 24.2961 34.1094 24.2617 34.1141 24.2289C34.0977 24.2273 34.0805 24.2266 34.0633 24.2266C33.718 24.2266 33.4383 24.5062 33.4383 24.8516V27.5453C33.4383 28.1633 33.2039 28.7266 32.8203 29.1539C33.5844 28.7484 34.1055 27.9461 34.1055 27.0242Z" fill="#C9D3D3"/>
<path d="M31.6945 30.6836H29.9453C27.9266 30.6836 26.2844 29.0422 26.2844 27.0242V24.3305C26.2844 24.2961 26.2883 24.2617 26.293 24.2289C26.2766 24.2273 26.2594 24.2266 26.2422 24.2266C25.8969 24.2266 25.6172 24.5062 25.6172 24.8516V27.5453C25.6172 29.5633 27.2594 31.2047 29.2781 31.2047H31.0273C32.0266 31.2047 32.9336 30.8016 33.5953 30.1508C33.0406 30.4883 32.3898 30.6836 31.6945 30.6836Z" fill="#C9D3D3"/>
<path d="M6.38125 20.307V16.3391C6.38125 14.868 7.01172 13.5414 8.01562 12.6133C6.63125 13.5219 5.71484 15.0859 5.71484 16.8602V20.8281C5.71484 21.1734 5.99453 21.4531 6.33984 21.4531C6.65 21.4531 6.90703 21.2266 6.95625 20.9297C6.63359 20.9031 6.38125 20.6344 6.38125 20.307Z" fill="#C9D3D3"/>
<path d="M17.8703 20.3074V16.3395C17.8703 14.2277 16.15 12.5098 14.0352 12.5098H11.4688C10.4273 12.5098 9.48125 12.927 8.78906 13.6012C9.375 13.2395 10.0641 13.0301 10.8016 13.0301H13.368C15.4828 13.0301 17.2031 14.748 17.2031 16.8598V20.8277C17.2031 21.173 17.4828 21.4527 17.8281 21.4527C18.1383 21.4527 18.3953 21.2262 18.4445 20.9293C18.1234 20.9035 17.8703 20.6348 17.8703 20.3074Z" fill="#C9D3D3"/>
<path d="M6.96875 16.7219H17.2008C17.1844 16.2695 17.0891 15.8367 16.9281 15.4367H7.79297L7.81719 14.457C7.3125 15.0812 6.99922 15.8664 6.96875 16.7219Z" fill="#EA473B"/>
<path d="M7.86016 12.7203L8.02344 6.1875H6.60312C6.26406 6.1875 5.98672 6.45781 5.97812 6.79687L5.73828 16.368C5.88438 14.8648 6.68906 13.5523 7.86016 12.7203Z" fill="#EA473B"/>
<path d="M34.8641 18.4039H26.2156L26.1555 16.0469C26.1469 15.7078 25.8695 15.4375 25.5305 15.4375H18.25C18.3695 15.8469 18.4391 16.2773 18.4508 16.7227H23.468C23.807 16.7227 24.0844 16.993 24.093 17.332L24.1531 19.6891H34.8961L34.8641 18.4039Z" fill="#EA473B"/>
</g>
<defs>
<clipPath id="clip0_134_15900">
<rect width="40" height="40" fill="white"/>
</clipPath>
</defs>
</svg>
