<svg width="40" height="40" viewBox="0 0 40 40" fill="none" xmlns="http://www.w3.org/2000/svg">
<g clip-path="url(#clip0_134_15929)">
<path d="M39.4154 22.4621C39.0921 22.4621 38.8301 22.2 38.8301 21.8767V18.1205C38.8301 17.7972 39.0921 17.5352 39.4154 17.5352C39.7388 17.5352 40.0008 17.7972 40.0008 18.1205V21.8767C40.0008 22.2 39.7388 22.4621 39.4154 22.4621Z" fill="#FED73A"/>
<path d="M36.9916 26.2823C36.6683 26.2823 36.4062 26.0202 36.4062 25.6969V14.3041C36.4062 13.9808 36.6683 13.7188 36.9916 13.7188C37.315 13.7188 37.577 13.9808 37.577 14.3041V25.697C37.577 26.0202 37.3149 26.2823 36.9916 26.2823Z" fill="#FED73A"/>
<path d="M34.5658 25.0062C34.2425 25.0062 33.9805 24.7441 33.9805 24.4208V15.5776C33.9805 15.2543 34.2425 14.9922 34.5658 14.9922C34.8892 14.9922 35.1512 15.2543 35.1512 15.5776V24.4208C35.1512 24.7441 34.8892 25.0062 34.5658 25.0062Z" fill="#FED73A"/>
<path d="M32.142 28.9369C31.8187 28.9369 31.5566 28.6748 31.5566 28.3516V11.6479C31.5566 11.3246 31.8187 11.0625 32.142 11.0625C32.4654 11.0625 32.7274 11.3246 32.7274 11.6479V28.3516C32.7274 28.6748 32.4653 28.9369 32.142 28.9369Z" fill="#FED73A"/>
<path d="M29.7182 31.3064C29.3948 31.3064 29.1328 31.0443 29.1328 30.7211V9.27873C29.1328 8.95545 29.3948 8.69336 29.7182 8.69336C30.0415 8.69336 30.3035 8.95545 30.3035 9.27873V30.7211C30.3035 31.0443 30.0415 31.3064 29.7182 31.3064Z" fill="#FED73A"/>
<path d="M27.2944 36.4288C26.971 36.4288 26.709 36.1668 26.709 35.8435V4.15568C26.709 3.8324 26.971 3.57031 27.2944 3.57031C27.6177 3.57031 27.8797 3.8324 27.8797 4.15568V35.8435C27.8797 36.1668 27.6176 36.4288 27.2944 36.4288Z" fill="#FED73A"/>
<path d="M24.8686 34.8304C24.5452 34.8304 24.2832 34.5683 24.2832 34.245V5.75724C24.2832 5.43396 24.5452 5.17188 24.8686 5.17188C25.1919 5.17188 25.4539 5.43396 25.4539 5.75724V34.245C25.4539 34.5683 25.1919 34.8304 24.8686 34.8304Z" fill="#FED73A"/>
<path d="M22.4447 38.1462C22.1214 38.1462 21.8594 37.8841 21.8594 37.5608V2.43888C21.8594 2.1156 22.1214 1.85352 22.4447 1.85352C22.7681 1.85352 23.0301 2.1156 23.0301 2.43888V37.5608C23.0301 37.8841 22.768 38.1462 22.4447 38.1462Z" fill="#FED73A"/>
<path d="M0.585366 22.4621C0.26201 22.4621 0 22.2 0 21.8767V18.1205C0 17.7972 0.26201 17.5352 0.585366 17.5352C0.908722 17.5352 1.17073 17.7972 1.17073 18.1205V21.8767C1.17073 22.2 0.908722 22.4621 0.585366 22.4621Z" fill="#FED73A"/>
<path d="M3.00919 26.2823C2.68584 26.2823 2.42383 26.0202 2.42383 25.6969V14.3041C2.42383 13.9808 2.68584 13.7188 3.00919 13.7188C3.33255 13.7188 3.59456 13.9808 3.59456 14.3041V25.697C3.59456 26.0202 3.33247 26.2823 3.00919 26.2823Z" fill="#FED73A"/>
<path d="M5.43498 25.0062C5.11162 25.0062 4.84961 24.7441 4.84961 24.4208V15.5776C4.84961 15.2543 5.11162 14.9922 5.43498 14.9922C5.75833 14.9922 6.02034 15.2543 6.02034 15.5776V24.4208C6.02034 24.7441 5.75833 25.0062 5.43498 25.0062Z" fill="#FED73A"/>
<path d="M7.8588 28.9369C7.53545 28.9369 7.27344 28.6748 7.27344 28.3516V11.6479C7.27344 11.3246 7.53545 11.0625 7.8588 11.0625C8.18216 11.0625 8.44417 11.3246 8.44417 11.6479V28.3516C8.44417 28.6748 8.18208 28.9369 7.8588 28.9369Z" fill="#FED73A"/>
<path d="M10.2826 31.3064C9.95928 31.3064 9.69727 31.0443 9.69727 30.7211V9.27873C9.69727 8.95545 9.95928 8.69336 10.2826 8.69336C10.606 8.69336 10.868 8.95545 10.868 9.27873V30.7211C10.868 31.0443 10.606 31.3064 10.2826 31.3064Z" fill="#FED73A"/>
<path d="M12.7065 36.4288C12.3831 36.4288 12.1211 36.1668 12.1211 35.8435V4.15568C12.1211 3.8324 12.3831 3.57031 12.7065 3.57031C13.0298 3.57031 13.2918 3.8324 13.2918 4.15568V35.8435C13.2918 36.1668 13.0297 36.4288 12.7065 36.4288Z" fill="#FED73A"/>
<path d="M15.1322 34.8304C14.8089 34.8304 14.5469 34.5683 14.5469 34.245V5.75724C14.5469 5.43396 14.8089 5.17188 15.1322 5.17188C15.4556 5.17188 15.7176 5.43396 15.7176 5.75724V34.245C15.7176 34.5683 15.4556 34.8304 15.1322 34.8304Z" fill="#FED73A"/>
<path d="M17.5561 38.1464C17.2328 38.1464 16.9708 37.8843 16.9708 37.561V2.43906C16.9708 2.11579 17.2328 1.8537 17.5561 1.8537C17.8795 1.8537 18.1415 2.11579 18.1415 2.43906V37.561C18.1415 37.8843 17.8794 38.1464 17.5561 38.1464Z" fill="#FED73A"/>
<path d="M19.9799 39.9805C19.6565 39.9805 19.3945 39.7184 19.3945 39.3951V0.604897C19.3945 0.281619 19.6565 0.0195312 19.9799 0.0195312C20.3033 0.0195312 20.5653 0.281619 20.5653 0.604897V39.3951C20.5653 39.7184 20.3033 39.9805 19.9799 39.9805Z" fill="#FED73A"/>
<path d="M20.0195 30.5392C25.8402 30.5392 30.5588 25.8207 30.5588 20C30.5588 14.1793 25.8402 9.46075 20.0195 9.46075C14.1989 9.46075 9.48029 14.1793 9.48029 20C9.48029 25.8207 14.1989 30.5392 20.0195 30.5392Z" fill="#FF73A6"/>
<path d="M20.0198 9.46075C19.4894 9.46075 18.9682 9.5004 18.4588 9.57603C23.5392 10.3304 27.4371 14.7098 27.4371 20C27.4371 25.2902 23.5392 29.6696 18.4588 30.424C18.9682 30.4996 19.4894 30.5392 20.0198 30.5392C25.8404 30.5392 30.559 25.8206 30.559 20C30.559 14.1793 25.8404 9.46075 20.0198 9.46075Z" fill="#FC3F84"/>
<path d="M16.4791 25.7611C17.5086 25.7611 18.3431 24.9265 18.3431 23.8971C18.3431 22.8676 17.5086 22.033 16.4791 22.033C15.4496 22.033 14.6151 22.8676 14.6151 23.8971C14.6151 24.9265 15.4496 25.7611 16.4791 25.7611Z" fill="white"/>
<path d="M22.7642 23.515C23.7937 23.515 24.6283 22.6804 24.6283 21.651C24.6283 20.6215 23.7937 19.7869 22.7642 19.7869C21.7348 19.7869 20.9002 20.6215 20.9002 21.651C20.9002 22.6804 21.7348 23.515 22.7642 23.515Z" fill="white"/>
<path d="M24.6238 14.065C24.5823 13.6964 24.1956 13.4549 23.8456 13.58L17.5602 15.8248C17.3294 15.9071 17.1717 16.1322 17.1717 16.3761V18.3964V23.8961C17.1717 24.2193 17.4337 24.4814 17.7571 24.4814C18.0804 24.4814 18.3424 24.2193 18.3424 23.8961V18.8088L23.457 16.9822V21.6513C23.457 21.9746 23.719 22.2367 24.0424 22.2367C24.3658 22.2367 24.6278 21.9746 24.6278 21.6513V16.1516V14.1314C24.6278 14.1089 24.6263 14.0868 24.6238 14.065ZM18.3424 17.5658V16.7886L23.457 14.962V15.7391L18.3424 17.5658Z" fill="white"/>
<path d="M23.9995 16.0145L17.7166 18.3039V16.2639L23.9995 13.9744V16.0145Z" fill="white"/>
</g>
<defs>
<clipPath id="clip0_134_15929">
<rect width="40" height="40" fill="white"/>
</clipPath>
</defs>
</svg>
