<svg width="40" height="40" viewBox="0 0 40 40" fill="none" xmlns="http://www.w3.org/2000/svg">
<path d="M38.6919 32.705H1.30664V38.3409H38.6919V32.705Z" fill="#FCE48C"/>
<path d="M33.3801 35.9706L20.5628 36.8581L19.3503 36.9416L19.3425 36.9425L19.0081 33.9487L18.9159 33.9815L19.0042 33.9714L19.3214 36.8065L16.2323 36.8471L13.4464 37.1589C13.4348 37.1605 13.4222 37.1612 13.4105 37.1612C13.2769 37.1612 13.1645 37.0768 13.1512 36.962C13.1434 36.8885 13.1387 36.8159 13.1387 36.7432C13.1387 36.4689 13.1965 36.2018 13.3012 35.9518L6.21133 35.4612C4.76289 35.2995 3.67852 34.1127 3.59961 32.705H18.3347L20.5971 33.3151L20.5886 33.3941L23.1441 32.705H35.9762C35.977 32.7097 35.977 32.7144 35.9777 32.7191C36.1583 34.3347 34.9957 35.7901 33.3801 35.9706Z" fill="#FDC323"/>
<path d="M30.2341 4.4043C30.0184 4.4043 29.8435 4.57914 29.8435 4.79492V5.18937C29.8435 5.40516 30.0184 5.58 30.2341 5.58C30.4499 5.58 30.6248 5.40516 30.6248 5.18937V4.79492C30.6248 4.57914 30.4499 4.4043 30.2341 4.4043Z" fill="#EA9807"/>
<path d="M30.2341 7.58969C30.4499 7.58969 30.6248 7.41484 30.6248 7.19906V6.80469C30.6248 6.58891 30.4499 6.41406 30.2341 6.41406C30.0184 6.41406 29.8435 6.58891 29.8435 6.80469V7.19906C29.8435 7.41477 30.0184 7.58969 30.2341 7.58969Z" fill="#EA9807"/>
<path d="M29.8162 5.99609C29.8162 5.78031 29.6413 5.60547 29.4255 5.60547H29.0312C28.8155 5.60547 28.6406 5.78031 28.6406 5.99609C28.6406 6.21188 28.8155 6.38672 29.0312 6.38672H29.4255C29.6413 6.38672 29.8162 6.21188 29.8162 5.99609Z" fill="#EA9807"/>
<path d="M31.8261 5.99609C31.8261 5.78031 31.6512 5.60547 31.4355 5.60547H31.041C30.8252 5.60547 30.6504 5.78031 30.6504 5.99609C30.6504 6.21188 30.8252 6.38672 31.041 6.38672H31.4355C31.6512 6.38672 31.8261 6.21188 31.8261 5.99609Z" fill="#EA9807"/>
<path d="M9.53906 14.3066C9.32328 14.3066 9.14844 14.4815 9.14844 14.6973V15.0916C9.14844 15.3074 9.32328 15.4823 9.53906 15.4823C9.75484 15.4823 9.92969 15.3074 9.92969 15.0916V14.6973C9.92969 14.4815 9.75484 14.3066 9.53906 14.3066Z" fill="#EA9807"/>
<path d="M9.53906 17.492C9.75484 17.492 9.92969 17.3172 9.92969 17.1014V16.707C9.92969 16.4912 9.75484 16.3164 9.53906 16.3164C9.32328 16.3164 9.14844 16.4912 9.14844 16.707V17.1014C9.14844 17.3171 9.32328 17.492 9.53906 17.492Z" fill="#EA9807"/>
<path d="M9.12289 15.8984C9.12289 15.6827 8.94805 15.5078 8.73227 15.5078H8.33789C8.12211 15.5078 7.94727 15.6827 7.94727 15.8984C7.94727 16.1142 8.12211 16.2891 8.33789 16.2891H8.73227C8.94805 16.2891 9.12289 16.1142 9.12289 15.8984Z" fill="#EA9807"/>
<path d="M11.1327 15.8984C11.1327 15.6827 10.9578 15.5078 10.742 15.5078H10.3477C10.1319 15.5078 9.95703 15.6827 9.95703 15.8984C9.95703 16.1142 10.1319 16.2891 10.3477 16.2891H10.742C10.9577 16.2891 11.1327 16.1142 11.1327 15.8984Z" fill="#EA9807"/>
<path d="M21.5367 14.8281H18.4573V17.6413H21.5367V14.8281Z" fill="#FAC1AC"/>
<path d="M18.4573 17.6422V15.0527H21.5367L18.4573 17.6422Z" fill="#FB9D6E"/>
<path d="M24.0901 9.08984C24.8195 9.08984 25.4107 9.68117 25.4107 10.4106C25.4107 11.1401 24.8195 11.7314 24.0901 11.7314" fill="#FB9D6E"/>
<path d="M24.9805 5.86407V9.82078C24.9805 10.294 24.6312 10.6855 24.1765 10.752L21.1642 10.7456L20.0746 10.7434L15.6597 10.7341C15.1895 10.623 14.8384 10.2009 14.8384 9.69649V7.05492C14.8384 4.11844 17.2404 1.65219 20.177 1.66024H20.1845C20.5818 1.66086 20.9311 1.86446 21.1352 2.17219C21.1452 2.17219 21.1545 2.17219 21.1642 2.17282C23.1915 2.18836 24.9805 3.83508 24.9805 5.86407Z" fill="#565656"/>
<path d="M24.9806 9.03961V9.81984C24.9806 10.293 24.6313 10.6845 24.1766 10.7511L21.1644 10.7447L21.0116 10.7424L20.999 5.6543C20.999 5.6543 20.7156 4.99609 21.3136 4.99609H22.4432C23.2755 4.99609 23.9505 5.67094 23.9505 6.50336V7.01422C23.9505 7.81516 24.3333 8.56789 24.9806 9.03961Z" fill="#424242"/>
<path d="M15.7292 11.7334C14.9998 11.7334 14.4084 11.142 14.4084 10.4126C14.4084 9.68313 14.9998 9.0918 15.7292 9.0918" fill="#FB9D6E"/>
<path d="M21.0115 9.67674L21.015 10.7341H15.6597C15.1895 10.623 14.8384 10.2008 14.8384 9.69643V7.05494C14.8384 6.76869 14.8609 6.48697 14.9054 6.21166C14.906 6.21002 14.906 6.20822 14.906 6.20705C14.906 6.20643 14.906 6.2058 14.906 6.2058C15.3149 3.65807 17.5284 1.65275 20.177 1.66018H20.1845C20.5818 1.6608 20.9311 1.8644 21.1352 2.17213C21.1365 2.17213 21.1527 2.20447 21.1793 2.26119C21.6956 3.35025 21.6274 4.62682 20.9988 5.65518L21.0115 9.67674Z" fill="#606060"/>
<path d="M21.0113 9.67578L19.2923 10.7331H15.6595C15.1892 10.622 14.8381 10.1998 14.8381 9.69547V7.05398C14.8381 6.76773 14.8607 6.48602 14.9052 6.2107C14.8988 6.34148 14.7982 8.55898 15.3222 8.28891C15.8624 8.0107 16.1239 6.81516 17.844 6.77695C19.5641 6.7382 20.1587 6.72953 20.9985 5.6543L21.0113 9.67578Z" fill="#424242"/>
<path d="M18.2488 7.34203H18.5617C19.6456 7.34203 20.6162 6.67055 20.9983 5.65625L22.0968 5.66414C22.8449 5.66414 23.4513 6.27063 23.4513 7.01867V7.61805C23.4513 8.04289 23.5792 8.45789 23.8183 8.80914C24.0574 9.16031 24.1852 9.57531 24.1852 10.0002V11.1043C24.1852 13.4562 22.2787 15.3628 19.9267 15.3628C17.5748 15.3628 15.6682 13.4563 15.6682 11.1043V10.2293V9.92266C15.6682 8.49734 16.8236 7.34203 18.2488 7.34203Z" fill="#FAC1AC"/>
<path d="M18.5159 10.3555H18.4884C18.3881 10.3555 18.3011 10.4151 18.2531 10.5032C18.2005 10.5998 18.098 10.6655 17.9805 10.6655C17.863 10.6655 17.7605 10.5998 17.708 10.5032C17.6601 10.4151 17.5729 10.3555 17.4727 10.3555H17.4452C17.2475 10.3555 17.1116 10.5627 17.1993 10.7401C17.3416 11.028 17.6383 11.2263 17.9805 11.2263C18.3227 11.2263 18.6195 11.028 18.7618 10.7401C18.8495 10.5627 18.7137 10.3555 18.5159 10.3555Z" fill="#565656"/>
<path d="M22 11.2263C22.3423 11.2263 22.639 11.028 22.7813 10.7401C22.8689 10.5627 22.7331 10.3555 22.5354 10.3555H22.5079C22.4076 10.3555 22.3205 10.4151 22.2725 10.5032C22.22 10.5998 22.1175 10.6655 22 10.6655C21.8824 10.6655 21.78 10.5998 21.7274 10.5032C21.6795 10.4151 21.5925 10.3555 21.4922 10.3555H21.4647C21.267 10.3555 21.1311 10.5627 21.2188 10.7401C21.3611 11.028 21.6579 11.2263 22 11.2263Z" fill="#565656"/>
<path d="M34.9084 28.4934L37.6179 30.2782C37.9389 30.4896 38.3614 30.2325 38.3209 29.8502C38.1834 28.5497 37.4772 27.3766 36.3923 26.6464L35.8903 26.3086L34.9084 28.4934Z" fill="#FAC1AC"/>
<path d="M35.9443 28.0391C35.9443 28.5048 36.0303 28.9446 36.185 29.3337L34.9084 28.493L35.8904 26.3086L36.2638 26.5602C36.0607 26.9923 35.9443 27.4985 35.9443 28.0391Z" fill="#FB9D6E"/>
<path d="M5.04039 28.4934L2.33094 30.2782C2.00992 30.4896 1.5875 30.2325 1.62789 29.8502C1.76547 28.5497 2.47156 27.3766 3.55656 26.6464L4.05867 26.3086L5.04039 28.4934Z" fill="#FAC1AC"/>
<path d="M4.0052 28.0391C4.0052 28.5048 3.91926 28.9446 3.76457 29.3337L5.04114 28.493L4.05918 26.3086L3.68575 26.5602C3.88879 26.9923 4.0052 27.4985 4.0052 28.0391Z" fill="#FB9D6E"/>
<path d="M36.1596 26.1594L34.965 28.8374L28.4846 26.2531L26.0392 23.0125V32.2578H13.9603V23.0125L11.515 26.2531L6.28528 28.339L5.04629 28.8632L3.84004 26.1594L9.50723 23.4406L11.6744 19.7625C12.3455 18.2741 13.676 17.1859 15.2689 16.8249L17.9369 16.2211L18.4626 16.1016C18.4626 16.1016 19.0931 16.6875 19.9525 16.6875C20.8118 16.6875 21.5369 16.1016 21.5369 16.1016L22.0588 16.2195L24.7306 16.825C26.3236 17.1859 27.654 18.2742 28.3251 19.7626L30.4923 23.4407L36.1596 26.1594Z" fill="#3196CA"/>
<path d="M22.0576 16.2195C21.5669 16.8117 20.8255 17.1891 19.9958 17.1891C19.1677 17.1891 18.4263 16.8125 17.9357 16.2211L18.4614 16.1016C18.4614 16.1016 19.0919 16.6875 19.9513 16.6875C20.8107 16.6875 21.5357 16.1016 21.5357 16.1016L22.0576 16.2195Z" fill="#A6E0F6"/>
<path d="M19.9982 30.5877C19.8904 30.5877 19.8029 30.5003 19.8029 30.3924V19.0117C19.8029 18.9038 19.8904 18.8164 19.9982 18.8164C20.1061 18.8164 20.1936 18.9038 20.1936 19.0117V30.3924C20.1936 30.5003 20.1061 30.5877 19.9982 30.5877Z" fill="#A6E0F6"/>
<path d="M3.84004 26.1596L5.04629 28.8635L5.95254 28.4455L4.76301 25.7168L3.84004 26.1596Z" fill="#2E426A"/>
<path d="M36.1592 26.1597L34.9646 28.8378L34.0373 28.468L35.2441 25.7207L36.1592 26.1597Z" fill="#2E426A"/>
<path d="M13.3023 34.6627L6.21211 34.1723C4.5968 33.9917 3.43398 32.5356 3.61453 30.9204C3.78344 29.4164 5.05672 28.3047 6.53594 28.3047C6.64477 28.3047 6.75523 28.3105 6.86641 28.3228L20.7376 32.0653" fill="#A6E0F6"/>
<path d="M20.7375 32.0663L13.3015 34.664L6.21168 34.1734C4.99597 34.0375 4.03746 33.1805 3.71324 32.0766C5.12972 33.2039 7.32027 33.9266 9.77965 33.9266C12.9414 33.9266 15.6593 32.732 16.8578 31.0195L20.7375 32.0663Z" fill="#5CB4E2"/>
<path d="M33.3805 34.7039L20.5632 35.5922L20.5445 35.593L19.3507 35.675L19.3429 35.6759L19.0664 33.2039L18.9945 32.5586L19.014 32.5531L20.2445 32.2211L20.2656 32.2148L32.7265 28.8547C32.8375 28.843 32.9476 28.8359 33.057 28.8359C33.3805 28.8359 33.6937 28.8891 33.9882 28.9883C35.0399 29.3407 35.8469 30.2766 35.9782 31.4523C36.1587 33.068 34.9961 34.5234 33.3805 34.7039Z" fill="#5CB4E2"/>
<path d="M15.7811 33.0155L19.2024 32.6328L19.5244 35.5117L16.3874 35.5525L13.5587 35.869C13.4073 35.8859 13.2732 35.7964 13.2589 35.6691C13.1142 34.3755 14.2434 33.1874 15.7811 33.0155Z" fill="#FAC1AC"/>
<path d="M33.9882 28.9883C33.3764 32.1102 29.4679 34.518 24.7382 34.518C22.6046 34.518 20.6382 34.0281 19.0664 33.2039L18.9945 32.5586L19.014 32.5531L20.2445 32.2211L20.2656 32.2148L32.7265 28.8547C32.8375 28.843 32.9476 28.8359 33.057 28.8359C33.3804 28.8359 33.6937 28.8891 33.9882 28.9883Z" fill="#A6E0F6"/>
<path d="M20.5444 35.5719L19.3507 35.6539L19.3429 35.6547L18.9945 32.5367L19.014 32.5312L20.2445 32.1992L20.5304 35.1578L20.5444 35.5719Z" fill="#2E426A"/>
</svg>
